<?xml version="1.0" standalone="no"?>
<!DOCTYPE svg PUBLIC "-//W3C//DTD SVG 1.1//EN" "http://www.w3.org/Graphics/SVG/1.1/DTD/svg11.dtd">
<svg width="382mm" height="147mm" viewBox="37 0 382 147" xmlns="http://www.w3.org/2000/svg" version="1.1">
<title>OpenSCAD Model</title>
<path d="
M 37.4661,11 L 38.1502,14.8899 L 42.1826,37.8206 L 53.1177,57.9356 L 55.9944,62.7541 L 56.4212,63.469
 L 75.4552,81.4117 L 81.197,86.8243 L 106.064,101.855 L 114.354,106.866 L 117.744,108.206 L 120.831,109.427
 L 128.372,111.986 L 130.458,112.694 L 130.56,112.799 L 136.227,116.641 L 153.746,126.831 L 168.655,135.504
 L 170.986,136.576 L 186.991,141.088 L 190.665,142.124 L 202.096,144.354 L 207.863,145.479 L 215.954,146.286
 L 222.839,146.972 L 237.161,146.972 L 244.046,146.286 L 252.137,145.479 L 257.904,144.354 L 269.335,142.124
 L 273.009,141.088 L 289.013,136.576 L 291.344,135.504 L 306.254,126.831 L 323.773,116.641 L 329.441,112.799
 L 329.851,112.374 L 330.424,111.78 L 331.49,110.676 L 335.169,109.427 L 338.256,108.206 L 341.646,106.866
 L 349.936,101.855 L 374.803,86.8243 L 380.545,81.4117 L 399.578,63.469 L 400.005,62.754 L 400.015,62.7372
 L 402.882,57.9356 L 413.817,37.8206 L 413.963,36.9895 L 414.007,36.7398 L 417.85,14.8899 L 418.026,13.8914
 L 418.277,12.4632 L 418.534,11 L 417.85,7.11001 L 416.6,-0 L 333.602,-0 L 332.758,2.26173
 L 327.084,17.469 L 321.186,26.365 L 313.389,36.4558 L 310.014,40.8243 L 289.652,57.7221 L 287.311,59.2588
 L 284.863,60.8657 L 268.25,67.9995 L 260.041,70.4385 L 251.526,72.9687 L 239.078,74.8593 L 236.963,75.1806
 L 223.037,75.1806 L 220.922,74.8593 L 208.474,72.9687 L 201.569,70.9171 L 191.75,67.9995 L 186.841,65.8915
 L 175.137,60.8657 L 172.689,59.2588 L 170.348,57.7221 L 149.986,40.8243 L 146.611,36.4558 L 138.814,26.365
 L 132.916,17.469 L 127.242,2.26173 L 126.398,-0 L 39.4005,-0 L 38.1502,7.11001 z
" stroke="black" fill="lightgray" stroke-width="0.5"/>
</svg>
