<?xml version="1.0" encoding="utf-8"?>
<!-- Generator: Adobe Illustrator 24.0.3, SVG Export Plug-In . SVG Version: 6.00 Build 0)  -->
<svg version="1.1" id="Layer_1" xmlns="http://www.w3.org/2000/svg" xmlns:xlink="http://www.w3.org/1999/xlink" x="0px" y="0px"
	 viewBox="0 0 379.8 578.3" style="enable-background:new 0 0 379.8 578.3;" xml:space="preserve">
<style type="text/css">
	.st0{fill:none;stroke:#000000;stroke-width:7.400000e-02;stroke-miterlimit:11.3386;}
</style>
<title>OpenSCAD Model</title>
<path class="st0" d="M0,197.7l0.1,1.7l0.2,2.1l0.3,2.4l0.5,2.7l0.5,3l0.6,3.2l0.7,3.4l0.7,3.6l0.8,3.7l0.8,3.8L6,231l0.7,3.9
	l0.7,3.9l0.7,3.8l0.6,3.7l0.5,3.6l0.4,3.5l0.3,3.3l0.1,3.1l0,2.9l0,2.3l0.2,2.2l0.3,2.1l0.4,2l0.5,2l0.6,1.9l0.7,1.9l0.7,1.8
	l0.8,1.8l0.8,1.8l0.8,1.8l0.8,1.8l0.8,1.8l0.7,1.9l0.7,1.9l0.6,2l0.5,2l0.4,2.1l0.3,2.2l0.2,2.3l0.1,2.4l0,2.4l-0.1,2.5l-0.2,2.5
	l-0.2,2.5l-0.2,2.6l-0.2,2.6l-0.2,2.6l-0.2,2.6l-0.2,2.5l-0.1,2.5l0,2.5l0.1,2.5l0.2,2.4l0.3,2.3l0.4,2.3l0.6,2.2l0.8,2.1l1,2
	l1.2,1.9l1.4,1.9l1.6,2.1l1.9,2.2l2,2.3l2.2,2.5l2.4,2.7l2.5,2.9l2.6,3.1l2.6,3.4l2.7,3.6l2.7,3.9l2.7,4.2l2.7,4.5l2.7,4.8l2.6,5.1
	l2.5,5.5l2.4,5.9l2.3,6.3l2.1,6.7l2,7.1l2,6.8l2.2,5.8l2.4,5l2.6,4.3l2.7,3.7l2.8,3.2l2.9,2.8l2.9,2.6l2.9,2.5l2.9,2.5l2.8,2.6
	l2.8,2.9l2.6,3.3l2.5,3.8l2.3,4.4l2.1,5.1l1.9,6l1.6,7l1.3,8.1l1,9.3l0.2,1.3l0.3,1.3l0.5,1.3l0.6,1.3l0.8,1.3l0.9,1.3l1,1.3
	l1.1,1.3l1.2,1.3l1.3,1.3l1.4,1.3l1.5,1.4l1.6,1.4l1.7,1.5l1.8,1.5l1.8,1.6l1.9,1.6l2,1.7l2,1.8l2.1,1.8l2,1.8l1.9,1.8l1.7,1.8
	l1.7,1.8l1.6,1.7l1.5,1.7l1.5,1.6l1.4,1.6l1.4,1.5l1.4,1.4l1.3,1.3l1.3,1.2l1.4,1.1l1.4,1l1.4,0.9l1.5,0.8l1.5,0.6l1.6,0.5l1.7,0.3
	l1.8,0.1l2.5,0l2.3-0.1l2.1-0.2l2-0.3l1.9-0.4l1.7-0.5l1.6-0.6l1.6-0.7l1.5-0.8l1.5-0.9l1.4-0.9l1.4-1l1.4-1.1l1.5-1.1l1.5-1.2
	l1.6-1.3l1.7-1.3l1.8-1.4l1.9-1.4l2-1.4l2.1-1.5l2.1-1.4l2.1-1.3l2-1.3l2-1.2l2-1.2l1.9-1.3l1.9-1.3l1.9-1.4l1.8-1.4l1.8-1.5
	l1.7-1.7l1.6-1.8l1.6-2l1.5-2.2l1.4-2.4l1.4-2.6l1.3-2.8l1.2-3.1l1.1-3.4l1-3.4l1.4-3.1l1.7-2.8l2.1-2.6l2.3-2.5l2.6-2.3l2.7-2.2
	l2.9-2.2l2.9-2.1l3-2.1l3-2.2l2.9-2.3l2.8-2.4l2.6-2.5l2.4-2.7l2.2-2.9l1.9-3.2l1.6-3.5l1.2-3.8l0.7-4.2l0.7-4.3l1-4l1.3-3.6
	l1.6-3.3l1.8-3l2-2.8l2.2-2.5l2.3-2.3l2.3-2.1l2.4-2l2.3-1.8l2.3-1.7l2.2-1.6l2.1-1.6l1.9-1.5l1.7-1.5l1.4-1.5l1.1-1.6l0.8-1.6
	l0.4-1.7l0.9-6.9l1-6.2l1-5.6l1-5l1-4.4l1.1-3.9l1.1-3.5l1-3.1l1-2.7l1-2.3l1-2.1l0.9-1.8l0.9-1.6l0.8-1.5l0.7-1.3l0.7-1.3l0.6-1.3
	l0.5-1.3l0.4-1.3l0.3-1.5l0.8-5.1l0.8-4.9l0.9-4.6l1-4.4l1-4.2l1.1-4l1.1-3.8l1.1-3.6l1.1-3.4l1.1-3.2l1-3l1-2.9l0.9-2.7l0.9-2.5
	l0.8-2.4l0.7-2.2l0.6-2.1l0.5-2l0.3-1.8l0.2-1.7l0.5-8.4l0.6-7.4l0.7-6.4l0.8-5.6l0.9-4.8l1-4.2l1-3.7l1.1-3.3l1.2-3l1.2-2.8
	l1.3-2.7l1.3-2.7l1.4-2.8l1.4-3.1l1.5-3.4l1.5-3.8l1.5-4.4l1.5-5l1.5-5.8l1.5-6.7l0.6-3l0.3-2.8l0.1-2.6l-0.1-2.4l-0.3-2.2l-0.4-2
	l-0.6-1.9l-0.7-1.8l-0.9-1.7l-1-1.6l-1-1.6l-1.1-1.5l-1.2-1.5l-1.2-1.5l-1.3-1.5l-1.3-1.6l-1.3-1.6l-1.2-1.7l-1.2-1.8l-1.2-1.9
	l-3.7-6.3l-3.7-5.6l-3.6-5l-3.6-4.4l-3.5-3.9l-3.5-3.5l-3.4-3l-3.3-2.7l-3.3-2.3l-3.2-2l-3.1-1.8l-3.1-1.6l-3-1.4l-2.9-1.3l-2.8-1.3
	l-2.7-1.3l-2.7-1.3l-2.6-1.4l-2.5-1.5l-2.4-1.6l-3.4-2.7l-3-2.8l-2.7-2.9l-2.4-3l-2.2-3l-2-3.1l-1.9-3.1l-1.7-3.2l-1.7-3.2l-1.6-3.2
	l-1.6-3.2l-1.7-3.2l-1.7-3.2l-1.9-3.2l-2-3.2l-2.2-3.2l-2.5-3.2l-2.7-3.1l-3-3.1l-3.4-3.1l-1.9-1.8l-1.6-1.8l-1.3-1.8l-1-1.8
	l-0.8-1.8l-0.6-1.8l-0.4-1.8l-0.4-1.8l-0.3-1.8l-0.3-1.8l-0.3-1.8l-0.4-1.8l-0.6-1.8l-0.7-1.8l-1-1.8l-1.2-1.8l-1.5-1.8l-1.9-1.8
	l-2.3-1.9l-2.7-1.9l-3.1-0.8l-3.1-0.9l-3.1-1l-3.1-1l-3-1.1l-3-1.1l-3-1.1l-2.9-1.1l-2.9-1.1l-2.9-1.1l-2.8-1.1l-2.8-1l-2.7-0.9
	l-2.7-0.9L190,3.2l-2.6-0.7L185,2l-2.4-0.4l-2.4-0.2l-2.3-0.1l-4.3,0.3l-4.2,0.8l-4.2,1.3l-4.1,1.7l-4,2l-3.9,2.3l-3.8,2.6l-3.7,2.8
	l-3.5,2.9l-3.4,3l-3.2,3l-3.1,3l-2.9,2.9l-2.7,2.8l-2.6,2.6l-2.4,2.3l-2.2,2l-1.9,1.6l-1.7,1.2l-1.5,0.7l-1.4,0.5l-1.4,0.6l-1.4,0.6
	l-1.5,0.7l-1.5,0.8l-1.5,0.9l-1.6,1l-1.6,1.1l-1.6,1.2l-1.6,1.4l-1.7,1.5L96.2,55l-1.7,1.8l-1.7,1.9l-1.7,2.1l-1.7,2.3l-1.7,2.5
	l-1.7,2.6l-1.7,2.8l-1.8,3l-2.1,3.6L78.1,81l-2.2,3l-2.2,2.7l-2.3,2.4l-2.3,2.2l-2.3,2L64.6,95l-2.2,1.7l-2.2,1.5l-2.2,1.4l-2.1,1.4
	l-2.1,1.3l-2,1.3l-2,1.3l-1.9,1.4l-1.8,1.5l-1.7,1.6l-1.6,1.7l-1.5,1.8l-0.6,0.9L40,115l-0.5,1.4L39,118l-0.5,1.8l-0.5,1.9l-0.5,2.1
	L37,126l-0.5,2.3l-0.6,2.4l-0.6,2.4l-0.7,2.5l-0.8,2.5l-0.8,2.5L32,143l-1,2.4l-1.1,2.4l-1.3,2.3l-1.4,2.2l-1.5,2.1l-2.4,3l-2.3,2.9
	l-4.3,5.3l-2,2.4l-1.9,2.3l-1.7,2.2l-1.6,2.1L8,176.7l-1.4,2l-1.2,1.9l-1.1,1.9l-1,1.9l-0.9,1.8l-0.7,1.8L1.1,190l-0.5,1.9l-0.3,1.9
	l-0.2,2L0,197.7z M40.8,202.3v-18h17.7v18H40.8z M74.3,402.7v-18H92v18H74.3z M84.6,290.3l0.3-12.4l1-12.2l1.6-11.9l2.3-11.5
	l2.8-11.1l3.4-10.7l3.9-10.2l4.4-9.7l4.9-9.1l5.4-8.5l5.8-7.9l6.2-7.2l6.6-6.5l6.9-5.8l7.2-5l7.5-4.2l7.8-3.3l8-2.4l8.3-1.5l8.4-0.5
	l8.5,0.5l8.3,1.5l8.1,2.4l7.8,3.3l7.5,4.2l7.3,5l6.9,5.8l6.6,6.5l6.2,7.2l5.8,7.9l5.4,8.5l4.9,9.1l4.4,9.7l3.9,10.2l3.4,10.7
	l2.8,11.1l2.2,11.5l1.6,11.9l1,12.2l0.3,12.4l-0.4,12.1l-1,11.8l-1.6,11.5l-2.3,11.1l-2.8,10.7l-3.4,10.3l-3.9,9.9l-4.4,9.4
	l-4.9,8.8l-5.3,8.2l-5.8,7.6l-6.2,7l-6.5,6.3l-6.9,5.6l-7.2,4.8l-7.5,4l-7.8,3.2l-8,2.3l-8.2,1.4l-8.4,0.5l-8.5-0.5l-8.3-1.4
	l-8.1-2.3l-7.8-3.2l-7.6-4l-7.3-4.8l-6.9-5.6l-6.6-6.3l-6.2-7l-5.8-7.6l-5.4-8.2l-4.9-8.8l-4.5-9.3l-4-9.9l-3.4-10.3L89.9,337
	l-2.3-11.2L86,314.3l-1-11.9L84.6,290.3z M174.8,516.8V499h18v17.9H174.8z M174.8,475.4v-17.7h18v17.7H174.8z M174.8,118.4v-17.7h18
	v17.7H174.8z M174.8,64.9V47.2h18v17.7H174.8z M286.8,402.7v-18h17.7v18H286.8z M315.9,202.3v-18h17.7v18H315.9z"/>
</svg>
