<?xml version="1.0" encoding="utf-8"?>
<!-- Generator: Adobe Illustrator 24.0.3, SVG Export Plug-In . SVG Version: 6.00 Build 0)  -->
<svg version="1.1" id="Layer_1" xmlns="http://www.w3.org/2000/svg" xmlns:xlink="http://www.w3.org/1999/xlink" x="0px" y="0px"
	 viewBox="0 0 309 184.3" style="enable-background:new 0 0 309 184.3;" xml:space="preserve">
<style type="text/css">
	.st0{fill:none;stroke:#000000;stroke-width:7.400000e-02;stroke-miterlimit:11.3386;}
</style>
<title>OpenSCAD Model</title>
<path class="st0" d="M2.4,20.1l0.4,11.5l1.1,11.6l1.9,11.6l2.7,11.5l3.4,11.3L16,88.7L21,99.5l5.7,10.5l6.5,10.1l7.3,9.6l8,9
	l8.8,8.3l9.6,7.6l10.3,6.8l11.1,6l11.9,5.1l12.7,4.1l13.5,3l14.3,1.9l15,0.6l13.6-0.6l13.1-1.7l12.6-2.7l12.1-3.7l11.5-4.7l11-5.6
	l10.4-6.4l9.7-7.2l9.1-8l8.4-8.6l7.7-9.3l7-9.9l6.2-10.4l5.5-10.9l4.7-11.3l3.9-11.7l3-12l2.2-12.3l1.3-12.5l0.4-12.6h-6.5V2.7
	h-17.7v17.4h-6.5l-1,12.3L275.3,44l-2.7,10.9l-3.4,10.2l-4.1,9.5l-4.7,8.8l-5.3,8.2l-5.8,7.5l-6.2,6.9l-6.6,6.2l-6.9,5.6l-7.1,5
	l-7.3,4.4l-7.4,3.8l-7.4,3.2l-7.4,2.7l-7.3,2.1l-7.2,1.6l-7,1l-6.7,0.5l-3.3,0v25.6h-18v-26l-8.4-1l-11.2-2.3l-10.5-3.2l-9.8-3.9
	l-5.2-2.6l-3.3-1.7l-0.6-0.3l-8.4-5.2l-7.7-5.8l0,0l-2.4-2.1l-4.6-4.1l-6.4-6.7l-5.8-7.1L54,88.3l-4.6-7.6l-4-7.7l-3.4-7.8l-2.8-7.8
	l-2.3-7.8l-1.8-7.7l-1.2-7.5l-0.7-7.2L33,20.1h-5.6V2.7H9.7v17.4H2.4z M16.8,73.4l1.2-6.6l2-11.2l0.5,0.1l8.3,1.5l4.7,0.8l0.6,0.1
	L34,58.8l-1.7,9.9l-1,5.9L31,75.9l-1.1-0.2l-5-0.9l-7.8-1.4L16.8,73.4z M55.8,130.4l0.2-1l0.6-3.2l1.5-8.5l0.9-5l3.9,0.7l9.5,1.7
	l1,0.2l-0.2,1.2l-1.3,7.2l-0.7,3.8l-0.9,5.3l0,0.2l-0.8-0.1l-8.8-1.6l-4.6-0.8L55.8,130.4z M249.9,101.8l0.7-0.1l8.7-1.5l4.6-0.8
	l0.3-0.1l0.1,0.8l1.9,10.5l1,5.7l0.1,0.7l-0.6,0.1L262,118l-8.4,1.5l-0.5,0.1l-0.1-0.7l-1.9-10.8l-1-5.9L249.9,101.8z M279.7,49.1
	l0.4-0.1l4.5-0.8l8.5-1.5l0.7-0.1l0.2,0.9l1.8,10.4l1,5.7l0.1,0.8l-0.6,0.1l-8.3,1.5l-4.7,0.8l-0.7,0.1l-0.1-0.7l-1.9-10.6l-1-5.8
	L279.7,49.1z"/>
</svg>
