<?xml version="1.0" encoding="utf-8"?>
<!-- Generator: Adobe Illustrator 24.0.3, SVG Export Plug-In . SVG Version: 6.00 Build 0)  -->
<svg version="1.1" id="Layer_1" xmlns="http://www.w3.org/2000/svg" xmlns:xlink="http://www.w3.org/1999/xlink" x="0px" y="0px"
	 viewBox="0 0 238.1 147.4" style="enable-background:new 0 0 238.1 147.4;" xml:space="preserve">
<style type="text/css">
	.st0{fill:none;stroke:#000000;stroke-width:7.400000e-02;stroke-miterlimit:11.3386;}
</style>
<title>OpenSCAD Model</title>
<path class="st0" d="M0.6,20.3L1,30.2l1,9.8l1.6,9.6l2.2,9.4l2.8,9.2l3.4,8.9l3.9,8.5l4.5,8.2l5.1,7.7l5.7,7.3l6.3,6.8l6.9,6.2
	l7.5,5.7l8.1,5l8.7,4.4l9.3,3.7l9.9,2.9l10.5,2.1l11.1,1.3l11.7,0.4l12.6-0.7l11.8-1.8l11-2.8l10.2-3.7l9.4-4.6l8.7-5.4l7.9-6.1
	l7.2-6.6l6.5-7.2l5.8-7.6l5.2-7.9l4.5-8.2l3.9-8.4l3.2-8.4l2.6-8.4l2-8.4l1.5-8.2l0.9-7.9l0.4-7.6l-0.2-7.1h-2.9V2.8L216,2.6v17.7
	h-2.9l-0.1,5.5l-0.6,5.7l-1,5.9l-1.5,6.1l-1.9,6.2l-2.4,6.2l-2.8,6.2l-3.3,6.1l-3.8,5.9l-4.3,5.7l-4.8,5.5l-5.3,5.2l-5.8,4.8
	l-6.3,4.4l-6.8,3.9l-7.4,3.4l-7.9,2.8l-8.4,2.2l-9,1.5l-7.7,0.6v15.6h-18v-16.3l-1.2-0.1l-8.1-1.5l-7.7-2.2l-7.3-2.8l-6.9-3.4
	l-6.5-3.9l-6.1-4.4l-5.6-4.8l-5.2-5.2l-4.7-5.6l-4.2-5.9l-3.8-6.2l-3.3-6.4l-2.8-6.6l-2.3-6.7l-1.8-6.8L25,34l-0.8-6.8l-0.2-6.8
	h-2.9V2.6H3.5v17.7H0.6z M11.6,65.2l1.8-10.4l0.1-0.5l0.9-5.3l0.3-1.6l1,0.2l3.6,0.6l7,1.2l0.2,0l-2.1,12l-1,5.7l0,0l-6.6-1.2
	l-3.8-0.7L11.6,65.2z M51.7,122.4l0.1-0.8l2-11.5l0.9-4.9l0.1-0.5l0.4,0.1l3.8,0.7l9.3,1.6l0.9,0.2l-0.2,1L67,119.1l-0.8,4.7
	l-0.2,1.1l-0.6-0.1l-8.8-1.5l-4-0.7L51.7,122.4z M174.6,101l9.7-1.7l4.6-0.8l2.1,12l1,5.7l-1.4,0.2l-4.2,0.7l-8.3,1.5l-0.4,0.1
	l-0.1-0.5l-1.9-10.6l-0.9-5.2L174.6,101z M210.9,47.1l8-1.4l3.8-0.7l0.1,0.3l1.8,10.2l1,5.4l0.3,1.8l-1.2,0.2l-3.7,0.7l-6.8,1.2
	l-0.1,0l0-0.2l-1.9-10.5l-1-5.6L210.9,47.1z"/>
</svg>
