<?xml version="1.0" encoding="utf-8"?>
<!-- Generator: Adobe Illustrator 24.0.3, SVG Export Plug-In . SVG Version: 6.00 Build 0)  -->
<svg version="1.1" id="Layer_1" xmlns="http://www.w3.org/2000/svg" xmlns:xlink="http://www.w3.org/1999/xlink" x="0px" y="0px"
	 viewBox="0 0 170.1 504.6" style="enable-background:new 0 0 170.1 504.6;" xml:space="preserve">
<style type="text/css">
	.st0{fill:none;stroke:#000000;stroke-width:7.400000e-02;stroke-miterlimit:11.3386;}
</style>
<title>OpenSCAD Model</title>
<path class="st0" d="M0.6,482.9l19.3-0.3l0.5,19.9l0.1,0l0.3,0l0.5-0.1l0.7-0.1l0.9-0.2l1-0.2l1.1-0.2l1.2-0.3l1.3-0.3l1.4-0.4
	l1.4-0.4l1.5-0.5l1.5-0.6l1.5-0.6l1.5-0.7l1.4-0.7l1.4-0.8l1.3-0.9l1.2-1l1.1-1l1-1.1l1-1.1l0.9-1.1l0.9-1.1l0.9-1.1l0.9-1.1
	l0.8-1.1l0.8-1l0.8-1l0.7-0.9l0.7-0.9l0.6-0.8l0.5-0.8l0.5-0.7l0.4-0.6l0.4-0.5l0.3-0.4l0.2-0.3l0.1-0.2l0-0.1l3.2-1.8l2.8-1.9
	l2.5-2l2.1-2.1l1.9-2.2l1.6-2.2l1.3-2.3l1.1-2.3l1-2.3l0.8-2.3l0.7-2.3l0.6-2.2l0.5-2.1l0.5-2.1l0.5-2l0.5-1.9l0.5-1.7l0.6-1.6
	l0.7-1.4l0.8-1.2l5.3-4.1l5-4l4.6-3.9l4.3-3.9l4-3.8l3.7-3.7l3.4-3.7l3.1-3.6l2.8-3.5l2.5-3.5l2.2-3.4l2-3.4l1.7-3.4l1.5-3.3
	l1.2-3.3l1-3.3l0.8-3.2l0.6-3.2l0.4-3.2l0.1-1.8H114v-18h17.4l0.3-1.4l1.7-5.5l2-5.3l2.3-5.1l2.6-4.9l2.7-4.7l2.8-4.5l2.9-4.4
	l2.9-4.2l2.8-4l2.7-3.9l2.5-3.8l2.3-3.6l2-3.5l1.6-3.4l1.2-3.3l0.7-3.2l0.2-3.1l-0.6-6.4l-0.4-5.7l-0.3-5l-0.2-4.3l-0.1-3.7l0-3.2
	l0.1-2.7l0.2-2.2l0.2-1.8l0.3-1.5l0.3-1.2l0.3-1l0.3-0.8l0.3-0.7l0.3-0.6l0.3-0.6l0.2-0.7l0.2-0.7l0.1-0.9l0-1.1l0-2.8l0-3.2l0-3.5
	l0-3.8l0-4.1l0-4.3l0-4.5l0-4.6l0-4.7l-0.1-4.7l-0.1-4.7l-0.1-4.6l-0.1-4.5l-0.1-4.4l-0.2-4.2l-0.1-2.9h-26v-18h24.2l-0.4-2.2
	l-0.8-3.3l-0.9-3.4l-1.1-3.5l-1.2-3.6l-1.4-3.7l-1.6-3.8l-1.8-3.9l-2-4l-2.2-4.1l-2.4-4.2l-2.6-4.4l-2.9-4.5l-3.1-4.6l-3.4-4.8
	l-3.6-5l-3.9-5.1l-4.2-5.3l-4.5-5.5l-1.4-1.6l-1.4-1.4l-1.3-1.2l-1.3-1l-1.3-0.9l-1.3-0.8l-1.2-0.7l-1.2-0.6l-1.2-0.5l-1.1-0.5
	l-1-0.4l-1-0.4l-0.9-0.4l-0.9-0.4l-0.8-0.4l-0.7-0.5l-0.6-0.5l-0.5-0.6l-0.4-0.7l-0.3-0.8l-0.9-2.6l-1.1-2.2l-1.4-1.9l-1.6-1.7
	l-1.7-1.4L94,46.2l-2-0.9l-2-0.7L87.9,44l-2.1-0.4l-2.1-0.3l-2-0.2L79.8,43L78,43l-1.7,0l-1.5,0.1l-1.3,0.1l-1.1,0l-0.8,0L71,43.2
	l-1.2-1.8l-1-1.6l-0.9-1.3l-0.8-1.1l-0.7-0.9l-0.6-0.7l-0.5-0.6l-0.5-0.5l-0.5-0.4L63.8,34l-0.5-0.3l-0.5-0.3l-0.6-0.3l-0.6-0.4
	l-0.7-0.5L60,31.7l-1-0.7l-1.1-0.9L56.7,29l-1.5-1.3L52.8,24l-2.4-3.3l-2.4-3L45.5,15l-2.4-2.4l-2.4-2.1l-2.3-1.8l-2.2-1.6L34,5.7
	L32,4.5l-1.9-1l-1.8-0.8l-1.7-0.6l-1.5-0.5l-1.3-0.4l-1.1-0.3l-0.9-0.2l-0.7-0.1l-0.4,0l-0.1,0l-0.4,12.4H0.6v17.7h19.7v35.8H0.6
	v17.7h19.7v35.4l0.6,0.1l1.6,0.5l2.6,0.8l3.4,1.3l4.1,1.8l4.7,2.3l5.2,2.9l5.6,3.6l5.8,4.3l6,5.1l6,5.9l5.9,6.8l5.7,7.7l5.4,8.7
	l4.9,9.7l4.4,10.8l3.7,12l2.9,13.2l2,14.5l1,15.8l-0.2,15.9l-1.4,14.7l-2.4,13.5l-3.3,12.4l-4.1,11.4l-4.8,10.3l-5.3,9.4l-5.7,8.4
	l-6,7.5l-6.1,6.6l-6.2,5.8l-6.1,5l-5.8,4.3l-5.5,3.6l-5,2.9l-4.4,2.3l-3.6,1.7l-2.7,1.2l-1.7,0.7l-0.6,0.2v38.2H0.6v17.7h19.8V465
	H0.6V482.9z"/>
</svg>
