<?xml version="1.0" encoding="utf-8"?>
<!-- Generator: Adobe Illustrator 24.0.3, SVG Export Plug-In . SVG Version: 6.00 Build 0)  -->
<svg version="1.1" id="Layer_1" xmlns="http://www.w3.org/2000/svg" xmlns:xlink="http://www.w3.org/1999/xlink" x="0px" y="0px"
	 viewBox="0 0 853.2 371.3" style="enable-background:new 0 0 853.2 371.3;" xml:space="preserve">
<style type="text/css">
	.st0{fill:#D3D3D3;stroke:#000000;stroke-width:1.4173;stroke-miterlimit:11.3386;}
</style>
<title>OpenSCAD Model</title>
<path class="st0" d="M1.3,1l0.1,2.7l0.5,7.8L3,23.7l2.1,16.2l3.4,19.5l4.9,22.3l6.8,24.5l8.9,26.2l11.3,27.3l14,27.8l17.1,27.7
	L92,242.3l23.9,25.9l27.8,24.2l32,21.9l36.4,19l41.2,15.5l46.2,11.5l51.6,6.9l57.2,1.8l63.1-3.7l56.8-8.4l50.9-12.7l45.2-16.3
	l39.9-19.5l34.9-22.1l30.3-24.2l26-25.8l22-26.8l18.3-27.3l15-27.2l12-26.6l9.4-25.5l7-23.8l5.1-21.6l3.4-18.9l2.1-15.6l1.1-11.8
	l0.4-7.5l0.1-2.6L749.4,0l-1.4,4.6L746,9.9l-3.3,8.4L738,29.4l-6.2,13.4l-7.7,15.3l-9.4,16.8l-11.1,18l-12.8,18.7l-14.7,19.1
	l-16.6,19.1l-18.6,18.7l-20.6,17.9l-22.7,16.8l-24.9,15.2l-27.2,13.3l-29.5,11l-31.9,8.2l-34.4,5.2l-36.9,1.7l-1.6-0.1l-18-1
	l-17.3-0.9l-34.4-5.4l-31.9-8.4l-29.5-11.1l-27.2-13.4L228,202.2l-22.7-16.8l-20.6-17.9l-18.6-18.7l-16.6-19l-14.7-19L122,92.2
	l-11.1-17.9l-9.4-16.7l-7.7-15.1l-6.2-13.3l-4.7-11l-3.3-8.3l-1.9-5.3l0.8-4.9L1.3,1z"/>
</svg>
