<?xml version="1.0" standalone="no"?>
<!DOCTYPE svg PUBLIC "-//W3C//DTD SVG 1.1//EN" "http://www.w3.org/Graphics/SVG/1.1/DTD/svg11.dtd">
<svg width="393mm" height="149mm" viewBox="7 7 393 149" xmlns="http://www.w3.org/2000/svg" version="1.1">
<title>OpenSCAD Model</title>
<path d="
M 7.66422,22.1233 L 7.70038,25.4451 L 7.93021,28.6893 L 8.34207,31.8589 L 8.92433,34.9571 L 9.66534,37.9868
 L 10.5535,40.9514 L 11.5771,43.8537 L 12.7245,46.6969 L 13.9841,49.4842 L 15.3442,52.2186 L 16.7932,54.9032
 L 18.3195,57.5411 L 19.9114,60.1353 L 21.5573,62.6891 L 23.2455,65.2055 L 24.9644,67.6875 L 27.0635,70.2959
 L 30.1713,73.5793 L 34.2346,77.456 L 39.2,81.8443 L 45.0143,86.6625 L 51.6243,91.8289 L 58.9765,97.2618
 L 67.0178,102.879 L 75.6948,108.6 L 84.9543,114.342 L 94.7429,120.024 L 105.007,125.564 L 115.695,130.88
 L 126.751,135.891 L 138.123,140.514 L 149.759,144.669 L 161.603,148.273 L 173.604,151.245 L 185.708,153.503
 L 197.861,154.965 L 209.889,155.535 L 221.643,155.219 L 233.112,154.087 L 244.283,152.21 L 255.143,149.659
 L 265.681,146.505 L 275.883,142.818 L 285.738,138.669 L 295.233,134.129 L 304.356,129.269 L 313.094,124.16
 L 321.434,118.871 L 329.366,113.475 L 336.875,108.042 L 343.951,102.642 L 350.579,97.3462 L 356.749,92.2259
 L 362.447,87.3515 L 367.662,82.7938 L 372.38,78.6236 L 376.605,74.5441 L 380.365,70.2424 L 383.687,65.7652
 L 386.598,61.1591 L 389.125,56.4708 L 391.294,51.7469 L 393.133,47.0341 L 394.668,42.379 L 395.926,37.8282
 L 396.933,33.4284 L 397.718,29.2262 L 398.306,25.2684 L 398.724,21.6015 L 399,18.2721 L 399.159,15.327
 L 399.229,12.8128 L 399.237,10.7761 L 399.21,9.26352 L 399.174,8.32179 L 399.156,7.99751 L 316.853,7.99751
 L 316.628,8.668 L 315.941,10.5876 L 314.774,13.6183 L 313.108,17.6224 L 310.924,22.4619 L 308.204,27.9991
 L 304.93,34.0959 L 301.082,40.6145 L 296.643,47.4171 L 291.594,54.3657 L 285.916,61.3226 L 279.591,68.1498
 L 272.6,74.7094 L 264.925,80.8636 L 256.548,86.4746 L 247.449,91.4043 L 237.61,95.515 L 227.013,98.6688
 L 215.639,100.728 L 207,101.314 L 207,124.321 L 200.65,124.321 L 200.65,101.432 L 191.318,101.029
 L 179.994,99.2089 L 169.476,96.2376 L 159.741,92.2578 L 150.767,87.4122 L 142.533,81.8438 L 135.016,75.6954
 L 128.193,69.1099 L 122.044,62.2302 L 116.546,55.1992 L 111.676,48.1597 L 107.412,41.2546 L 103.733,34.6268
 L 100.617,28.4191 L 98.0401,22.7745 L 95.9817,17.8358 L 94.4192,13.7458 L 93.3305,10.6476 L 92.6935,8.68384
 L 92.4861,7.99751 L 9.68916,7.99751 L 8.8342,11.6609 L 8.21948,15.2343 L 7.83337,18.7207 z
" stroke="black" fill="lightgray" stroke-width="0.5"/>
</svg>
