<?xml version="1.0" standalone="no"?>
<!DOCTYPE svg PUBLIC "-//W3C//DTD SVG 1.1//EN" "http://www.w3.org/Graphics/SVG/1.1/DTD/svg11.dtd">
<svg width="357mm" height="149mm" viewBox="24 7 357 149" xmlns="http://www.w3.org/2000/svg" version="1.1">
<title>OpenSCAD Model</title>
<path d="
M 24.4581,23.29 L 24.6546,27.198 L 25.0679,31.1125 L 25.6815,35.0197 L 26.4794,38.9059 L 27.4452,42.7574
 L 28.5628,46.5605 L 29.8158,50.3014 L 31.188,53.9664 L 32.6632,57.5418 L 34.2251,61.0138 L 35.8576,64.3686
 L 37.5442,67.5927 L 39.2689,70.6721 L 41.0153,73.5933 L 42.7672,76.3425 L 44.5083,78.9058 L 46.4657,81.4329
 L 49.168,84.4835 L 52.5912,87.9928 L 56.7113,91.896 L 61.5045,96.128 L 66.9467,100.624 L 73.0139,105.319
 L 79.6823,110.149 L 86.9277,115.048 L 94.7262,119.952 L 103.054,124.795 L 111.887,129.513 L 121.201,134.041
 L 130.972,138.314 L 141.177,142.267 L 151.791,145.835 L 162.79,148.954 L 174.151,151.559 L 185.849,153.584
 L 197.861,154.965 L 209.786,155.527 L 221.245,155.187 L 232.243,154.015 L 242.789,152.08 L 252.886,149.454
 L 262.543,146.205 L 271.765,142.404 L 280.559,138.122 L 288.93,133.428 L 296.886,128.392 L 304.431,123.085
 L 311.574,117.576 L 318.32,111.936 L 324.675,106.235 L 330.645,100.543 L 336.238,94.9304 L 341.458,89.4668
 L 346.314,84.2225 L 350.81,79.2677 L 354.953,74.6725 L 358.745,70.1966 L 362.135,65.639 L 365.145,61.0333
 L 367.799,56.4133 L 370.118,51.8125 L 372.124,47.2646 L 373.841,42.8033 L 375.291,38.4623 L 376.495,34.2751
 L 377.478,30.2754 L 378.26,26.497 L 378.864,22.9733 L 379.314,19.7382 L 379.63,16.8253 L 379.837,14.2681
 L 379.955,12.1004 L 380.009,10.3559 L 380.019,9.06812 L 380.008,8.27077 L 380,7.99751 L 296.392,7.99751
 L 296.315,8.668 L 296.053,10.5876 L 295.556,13.6183 L 294.775,17.6224 L 293.66,22.4619 L 292.163,27.9991
 L 290.233,34.0959 L 287.823,40.6145 L 284.883,47.4171 L 281.363,54.3657 L 277.215,61.3226 L 272.389,68.1498
 L 266.835,74.7094 L 260.506,80.8636 L 253.351,86.4746 L 245.321,91.4043 L 236.367,95.515 L 226.44,98.6688
 L 215.491,100.728 L 207,101.312 L 207,110.476 L 200.65,110.476 L 200.65,101.431 L 191.464,101.029
 L 180.557,99.2089 L 170.697,96.2376 L 161.832,92.2578 L 153.909,87.4122 L 146.876,81.8438 L 140.681,75.6954
 L 135.272,69.1099 L 130.595,62.2302 L 126.6,55.1992 L 123.233,48.1597 L 120.442,41.2546 L 118.176,34.6268
 L 116.382,28.4191 L 115.007,22.7745 L 113.999,17.8358 L 113.306,13.7458 L 112.876,10.6476 L 112.656,8.68384
 L 112.594,7.99751 L 26.1639,7.99751 L 25.3312,11.7422 L 24.7802,15.5484 L 24.4946,19.4022 z
" stroke="black" fill="lightgray" stroke-width="0.5"/>
</svg>
