<?xml version="1.0" encoding="utf-8"?>
<!-- Generator: Adobe Illustrator 24.0.3, SVG Export Plug-In . SVG Version: 6.00 Build 0)  -->
<svg version="1.1" id="Layer_1" xmlns="http://www.w3.org/2000/svg" xmlns:xlink="http://www.w3.org/1999/xlink" x="0px" y="0px"
	 viewBox="0 0 1162.2 453.5" style="enable-background:new 0 0 1162.2 453.5;" xml:space="preserve">
<style type="text/css">
	.st0{fill:none;stroke:#000000;stroke-width:7.400000e-02;stroke-miterlimit:11.3386;}
</style>
<title>OpenSCAD Model</title>
<path class="st0" d="M1.2,35.6l3.5,33.7l7.8,31.9L24,131.3l14.9,28.3l17.7,26.5l20,24.6l21.7,22.8l23,21l23.7,19.2l23.9,17.4
	l23.6,15.5l22.7,13.7l21.4,11.9l19.5,10.1l17.1,8.2l14.2,6.4l10.8,4.6l6.9,2.7l2.4,0.9l0.9,0.7l2.6,1.9l4.2,3l5.8,3.9l7.4,4.7
	l8.9,5.4l10.3,5.9l11.7,6.3l13,6.5l14.3,6.6l15.5,6.6l16.6,6.4l17.7,6.1l18.8,5.6l19.8,5l20.7,4.3l21.6,3.4l22.4,2.4l23.2,1.3
	l23.9,0l39.4-2.3l38-4.4l36.7-6.4l35.3-8.2l33.9-9.9l32.5-11.5l31.1-13l29.7-14.3l28.3-15.4l26.9-16.5l25.5-17.3l24-18.1l22.6-18.7
	l21.2-19.2l19.8-19.6l18.4-19.8l16.9-19.9l15.5-19.8l14.1-19.6l12.6-19.3l7.6-12.7l6.8-12.5l6.1-12.2l5.4-11.9l4.7-11.5l4.1-11.1
	l3.5-10.6l3-10.1l2.5-9.6l2-9l1.6-8.3l1.3-7.6l1-6.9l0.7-6.1l0.5-5.3l0.3-4.4l0.1-3.5l0-2.6l0-1.6l0-0.5h-227l-0.7,2.1l-2,6.1
	L927,18l-5,12.7l-6.5,15.4l-8.2,17.6L897.4,83l-11.7,20.6l-13.6,21.5L856.7,147l-17.5,21.9l-19.5,21.4L798,210.6l-23.9,19.1
	L748,246.9l-28.5,15l-30.9,12.2l-33.4,9.1l-35.9,5.5l-35.3,1.3v87.2h-18V289l-23.8-1.7l-35.7-6.6l-33-9.9L443,257.9l-27.9-15.3
	l-25.5-17.4L366.4,206l-20.9-20.3l-18.7-21.1l-16.7-21.5l-14.7-21.5l-12.7-21l-10.9-20.1l-9.2-18.8l-7.5-17.1l-6-14.9l-4.5-12.3
	L241.5,8l-1.8-5.9L239.2,0H2.6L1.2,35.6z"/>
</svg>
