<?xml version="1.0" encoding="utf-8"?>
<!-- Generator: Adobe Illustrator 24.0.3, SVG Export Plug-In . SVG Version: 6.00 Build 0)  -->
<svg version="1.1" id="Layer_1" xmlns="http://www.w3.org/2000/svg" xmlns:xlink="http://www.w3.org/1999/xlink" x="0px" y="0px"
	 viewBox="0 0 1167.9 459.2" style="enable-background:new 0 0 1167.9 459.2;" xml:space="preserve">
<style type="text/css">
	.st0{fill:none;stroke:#000000;stroke-width:1.4173;stroke-miterlimit:11.3386;}
</style>
<title>OpenSCAD Model</title>
<path class="st0" d="M1.5,0l0.1,3.3l0.6,9.5l1.5,15l2.9,19.9l4.8,24l7.1,27.4l9.9,30.2l13.2,32.3l16.9,33.6l21.1,34.3l25.7,34.3
	l30.8,33.6l36.4,32.3l42.4,30.2l48.9,27.4l55.8,24l63.2,19.9l71.1,15l79.4,9.5l88.2,3.3l82.5-3.3l73.7-9.5l65.5-15l57.7-19.9
	l50.4-24L995,360l37.4-30.2l31.5-32.3l26.2-33.6l21.4-34.3l17-34.3l13.2-33.6l9.8-32.3l6.9-30.2l4.5-27.4l2.6-24l1.2-19.9l0.2-15
	l-0.2-9.5l-0.2-3.3L1081,0l-2,5.7l-3,8l-5.1,12.6l-7.3,16.7l-9.5,20.2l-11.8,23l-14.1,25.3l-16.5,27l-18.9,28.1l-21.4,28.7l-24,28.6
	l-26.6,28l-29.3,26.8l-32,25l-34.8,22.7l-37.6,19.7l-40.5,16.2l-43.5,12.1l-46.5,7.4l-35.8,1.5l-18,0.3l-45.5-3.1l-47-8.4L466,359.2
	l-41.4-16.8L386,322.3l-36-22.9l-33.4-25.1l-30.7-26.7l-28.1-27.8l-25.5-28.3l-23-28.3l-20.5-27.7l-18-26.5l-15.5-24.8l-13-22.5
	L131.7,42l-8.1-16.3l-5.8-12.3l-3.5-7.8l-2-5.6L1.5,0z"/>
</svg>
