<?xml version="1.0" standalone="no"?>
<!DOCTYPE svg PUBLIC "-//W3C//DTD SVG 1.1//EN" "http://www.w3.org/Graphics/SVG/1.1/DTD/svg11.dtd">
<svg width="358mm" height="139mm" viewBox="21 7 358 139" xmlns="http://www.w3.org/2000/svg" version="1.1">
<title>OpenSCAD Model</title>
<path d="
M 21.1611,7.00557 L 21.2874,8.01225 L 21.7365,10.8935 L 22.6138,15.4409 L 24.0245,21.4463 L 26.0741,28.7014
 L 28.8678,36.9979 L 32.5109,46.1275 L 37.1089,55.8819 L 42.767,66.0529 L 49.5906,76.4322 L 57.6849,86.8115
 L 67.1554,96.9825 L 78.1074,106.737 L 90.6461,115.867 L 104.877,124.163 L 120.905,131.418 L 138.836,137.424
 L 158.775,141.971 L 180.828,144.852 L 205.099,145.859 L 229.295,144.852 L 251.129,141.971 L 270.724,137.424
 L 288.2,131.418 L 303.679,124.163 L 317.282,115.867 L 329.13,106.737 L 339.343,96.9825 L 348.043,86.8115
 L 355.352,76.4322 L 361.39,66.0529 L 366.278,55.8819 L 370.137,46.1275 L 373.089,36.9979 L 375.255,28.7014
 L 376.755,21.4463 L 377.711,15.4409 L 378.244,10.8935 L 378.475,8.01225 L 378.525,7.00557 L 311.497,7.00557
 L 311.33,7.64989 L 310.806,9.49318 L 309.889,12.4009 L 308.547,16.2385 L 306.743,20.8714 L 304.444,26.1651
 L 301.615,31.9851 L 298.221,38.1968 L 294.229,44.6656 L 289.603,51.2571 L 284.309,57.8367 L 278.312,64.2699
 L 271.578,70.422 L 264.073,76.1586 L 255.761,81.3452 L 246.609,85.8472 L 236.581,89.53 L 225.644,92.2591
 L 213.762,93.8999 L 207,94.1198 L 207,116.464 L 200.65,116.464 L 200.65,94.3002 L 189.272,93.4892
 L 178.496,91.5218 L 168.546,88.5436 L 159.394,84.6821 L 151.011,80.0653 L 143.37,74.8207 L 136.444,69.0761
 L 130.205,62.9592 L 124.624,56.5977 L 119.674,50.1194 L 115.328,43.6519 L 111.557,37.323 L 108.334,31.2604
 L 105.63,25.5917 L 103.419,20.4447 L 101.672,15.9472 L 100.362,12.2268 L 99.4601,9.41125 L 98.9396,7.62828
 L 98.7722,7.00557 z
" stroke="black" fill="lightgray" stroke-width="0.5"/>
</svg>
