<?xml version="1.0" standalone="no"?>
<!DOCTYPE svg PUBLIC "-//W3C//DTD SVG 1.1//EN" "http://www.w3.org/Graphics/SVG/1.1/DTD/svg11.dtd">
<svg width="333mm" height="136mm" viewBox="35 7 333 136" xmlns="http://www.w3.org/2000/svg" version="1.1">
<title>OpenSCAD Model</title>
<path d="
M 35.0472,7.0639 L 35.0838,8.06635 L 35.2754,10.9338 L 35.7446,15.4563 L 36.6141,21.4239 L 38.0067,28.6269
 L 40.045,36.8552 L 42.8517,45.8991 L 46.5495,55.5485 L 51.261,65.5937 L 57.1091,75.8247 L 64.2162,86.0316
 L 72.7053,96.0045 L 82.6988,105.534 L 94.3196,114.409 L 107.69,122.421 L 122.933,129.359 L 140.172,135.013
 L 159.528,139.175 L 181.126,141.633 L 205.086,142.178 L 228.754,140.768 L 249.997,137.623 L 268.947,132.937
 L 285.735,126.907 L 300.49,119.727 L 313.345,111.593 L 324.43,102.701 L 333.877,93.2461 L 341.815,83.424
 L 348.376,73.4302 L 353.69,63.4602 L 357.89,53.7096 L 361.105,44.3738 L 363.467,35.6484 L 365.106,27.729
 L 366.154,20.8109 L 366.741,15.0899 L 366.998,10.7614 L 367.056,8.02084 L 367.046,7.0639 L 305.628,7.0639
 L 305.384,7.62402 L 304.652,9.22713 L 303.427,11.7573 L 301.708,15.0988 L 299.492,19.1355 L 296.776,23.7517
 L 293.558,28.8314 L 289.833,34.2588 L 285.601,39.918 L 280.858,45.6931 L 275.602,51.4681 L 269.829,57.1273
 L 263.537,62.5547 L 256.724,67.6344 L 249.386,72.2506 L 241.52,76.2874 L 233.125,79.6288 L 224.198,82.159
 L 214.734,83.7621 L 207,84.1953 L 207,113.837 L 200.65,113.837 L 200.65,84.0867 L 195.024,83.7621
 L 185.894,82.159 L 177.333,79.6288 L 169.334,76.2874 L 161.887,72.2506 L 154.984,67.6344 L 148.616,62.5547
 L 142.774,57.1273 L 137.45,51.4681 L 132.634,45.6931 L 128.319,39.918 L 124.495,34.2588 L 121.153,28.8314
 L 118.285,23.7517 L 115.883,19.1355 L 113.937,15.0988 L 112.438,11.7573 L 111.379,9.22713 L 110.749,7.62402
 L 110.542,7.0639 z
" stroke="black" fill="lightgray" stroke-width="0.5"/>
</svg>
