<?xml version="1.0" standalone="no"?>
<!DOCTYPE svg PUBLIC "-//W3C//DTD SVG 1.1//EN" "http://www.w3.org/Graphics/SVG/1.1/DTD/svg11.dtd">
<svg width="297mm" height="125mm" viewBox="50 5 297 125" xmlns="http://www.w3.org/2000/svg" version="1.1">
<title>OpenSCAD Model</title>
<path d="
M 50.3161,5.60001 L 50.3635,6.44318 L 50.5738,8.86028 L 51.0489,12.6827 L 51.8909,17.7418 L 53.2017,23.8689
 L 55.0834,30.8956 L 57.6378,38.653 L 60.9672,46.9727 L 65.1733,55.6859 L 70.3583,64.6241 L 76.6241,73.6187
 L 84.0727,82.5011 L 92.8061,91.1025 L 102.926,99.2544 L 114.535,106.788 L 127.735,113.535 L 142.628,119.327
 L 159.315,123.995 L 177.9,127.37 L 198.483,129.284 L 219.066,129.404 L 237.65,127.647 L 254.338,124.213
 L 269.23,119.306 L 282.43,113.128 L 294.039,105.882 L 304.159,97.7694 L 312.893,88.9933 L 320.341,79.7559
 L 326.607,70.2598 L 331.792,60.7072 L 335.998,51.3008 L 339.328,42.2429 L 341.882,33.7359 L 343.764,25.9823
 L 345.075,19.1845 L 345.917,13.5449 L 346.392,9.26604 L 346.602,6.55025 L 346.649,5.60001 L 293.839,5.70584
 L 293.818,6.30989 L 293.325,7.78127 L 292.362,10.0216 L 290.93,12.9324 L 289.033,16.4154 L 286.673,20.3721
 L 283.851,24.7042 L 280.571,29.3132 L 276.835,34.1007 L 272.645,38.9684 L 268.004,43.8178 L 262.914,48.5506
 L 257.377,53.0683 L 251.396,57.2725 L 244.973,61.0649 L 238.111,64.3471 L 230.812,67.0206 L 223.077,68.9871
 L 214.911,70.1481 L 207,70.3848 L 207,104.429 L 200.65,104.429 L 200.65,69.9647 L 197.556,69.7241
 L 189.212,68.2184 L 181.29,65.9809 L 173.796,63.1042 L 166.737,59.6808 L 160.118,55.8035 L 153.948,51.5647
 L 148.232,47.057 L 142.977,42.3732 L 138.189,37.6058 L 133.875,32.8473 L 130.041,28.1905 L 126.694,23.7278
 L 123.841,19.552 L 121.487,15.7556 L 119.641,12.4312 L 118.307,9.67142 L 117.493,7.56886 L 117.205,6.21614
 L 117.45,5.70584 z
" stroke="black" fill="lightgray" stroke-width="0.5"/>
</svg>
