<?xml version="1.0" standalone="no"?>
<!DOCTYPE svg PUBLIC "-//W3C//DTD SVG 1.1//EN" "http://www.w3.org/Graphics/SVG/1.1/DTD/svg11.dtd">
<svg width="318mm" height="134mm" viewBox="37 7 318 134" xmlns="http://www.w3.org/2000/svg" version="1.1">
<title>OpenSCAD Model</title>
<path d="
M 37.0398,8.10353 L 37.1132,11.0736 L 37.3957,15.7507 L 38.0181,21.9116 L 39.1115,29.333 L 40.8068,37.7915
 L 43.235,47.064 L 46.5271,56.9269 L 50.814,67.1571 L 56.2267,77.5312 L 62.8962,87.826 L 70.9534,97.8181
 L 80.5294,107.284 L 91.755,116.001 L 104.761,123.745 L 119.679,130.293 L 136.64,135.422 L 155.774,138.909
 L 177.212,140.53 L 201.086,140.061 L 224.883,137.664 L 246.102,133.765 L 264.89,128.541 L 281.392,122.165
 L 295.757,114.815 L 308.131,106.666 L 318.661,97.8941 L 327.493,88.6741 L 334.775,79.1821 L 340.654,69.5938
 L 345.275,60.0848 L 348.787,50.8309 L 351.336,42.0078 L 353.068,33.791 L 354.131,26.3564 L 354.671,19.8796
 L 354.836,14.5363 L 354.772,10.5021 L 354.626,7.95271 L 354.544,7.0639 L 298.1,7.0639 L 297.877,7.59077
 L 297.203,9.09872 L 296.071,11.4787 L 294.474,14.6218 L 292.405,18.4189 L 289.858,22.7611 L 286.825,27.5393
 L 283.299,32.6445 L 279.274,37.9678 L 274.742,43.4 L 269.696,48.8323 L 264.13,54.1555 L 258.036,59.2607
 L 251.408,64.0389 L 244.239,68.3811 L 236.521,72.1782 L 228.248,75.3213 L 219.413,77.7013 L 210.008,79.2092
 L 207,79.3681 L 207,111.1 L 200.65,111.1 L 200.65,79.7033 L 200.028,79.7361 L 190.355,79.2092
 L 181.327,77.7013 L 172.928,75.3213 L 165.142,72.1782 L 157.954,68.3811 L 151.345,64.0389 L 145.302,59.2607
 L 139.807,54.1555 L 134.845,48.8323 L 130.398,43.4 L 126.452,37.9678 L 122.99,32.6445 L 119.995,27.5393
 L 117.452,22.7611 L 115.345,18.4189 L 113.656,14.6218 L 112.372,11.4787 L 111.474,9.09872 L 110.947,7.59077
 L 110.775,7.0639 L 37.0444,7.0639 z
" stroke="black" fill="lightgray" stroke-width="0.5"/>
</svg>
