<?xml version="1.0" standalone="no"?>
<!DOCTYPE svg PUBLIC "-//W3C//DTD SVG 1.1//EN" "http://www.w3.org/Graphics/SVG/1.1/DTD/svg11.dtd">
<svg width="356mm" height="148mm" viewBox="25 5 356 148" xmlns="http://www.w3.org/2000/svg" version="1.1">
<title>OpenSCAD Model</title>
<path d="
M 25.4064,5.98529 L 25.5449,7.13739 L 26.028,10.428 L 26.9566,15.6086 L 28.4318,22.4307 L 30.5547,30.6456
 L 33.4264,40.0048 L 37.148,50.2598 L 41.8204,61.162 L 47.5449,72.4629 L 54.4223,83.9139 L 62.554,95.2665
 L 72.0408,106.272 L 82.9839,116.682 L 95.4843,126.248 L 109.643,134.722 L 125.561,141.854 L 143.34,147.396
 L 163.081,151.101 L 184.884,152.718 L 208.851,152 L 232.733,149.165 L 254.295,144.723 L 273.654,138.863
 L 290.93,131.775 L 306.24,123.649 L 319.703,114.673 L 331.438,105.039 L 341.563,94.9335 L 350.197,84.548
 L 357.458,74.0714 L 363.466,63.6932 L 368.337,53.603 L 372.192,43.9901 L 375.148,35.0442 L 377.324,26.9546
 L 378.839,19.911 L 379.811,14.1027 L 380.358,9.71936 L 380.599,6.95039 L 380.654,5.98529 L 319.623,5.98529
 L 319.378,6.61255 L 318.633,8.40947 L 317.379,11.2487 L 315.601,15.0029 L 313.29,19.5446 L 310.431,24.7467
 L 307.015,30.4816 L 303.028,36.6222 L 298.46,43.041 L 293.297,49.6107 L 287.528,56.2039 L 281.142,62.6933
 L 274.126,68.9516 L 266.468,74.8514 L 258.157,80.2654 L 249.18,85.0662 L 239.526,89.1265 L 229.183,92.3189
 L 218.139,94.5162 L 207,95.5343 L 207,126.886 L 200.65,126.886 L 200.65,95.4815 L 194.604,95.3662
 L 183.501,93.8448 L 173.065,91.1681 L 163.289,87.4775 L 154.165,82.9146 L 145.685,77.6207 L 137.842,71.7373
 L 130.627,65.4061 L 124.034,58.7683 L 118.055,51.9655 L 112.681,45.1391 L 107.906,38.4307 L 103.721,31.9817
 L 100.119,25.9335 L 97.0919,20.4277 L 94.6327,15.6057 L 92.7333,11.609 L 91.3861,8.57901 L 90.5834,6.6573
 L 90.3175,5.98529 z
" stroke="black" fill="lightgray" stroke-width="0.5"/>
</svg>
