<?xml version="1.0" standalone="no"?>
<!DOCTYPE svg PUBLIC "-//W3C//DTD SVG 1.1//EN" "http://www.w3.org/Graphics/SVG/1.1/DTD/svg11.dtd">
<svg width="318mm" height="134mm" viewBox="37 7 318 134" xmlns="http://www.w3.org/2000/svg" version="1.1">
<title>OpenSCAD Model</title>
<path d="
M 37.0398,8.10353 L 37.1132,11.0736 L 37.3957,15.7507 L 38.0181,21.9116 L 39.1115,29.333 L 40.8068,37.7915
 L 43.235,47.064 L 46.5271,56.9269 L 50.814,67.1571 L 56.2267,77.5312 L 62.8962,87.826 L 70.9534,97.8181
 L 80.5294,107.284 L 91.755,116.001 L 104.761,123.745 L 119.679,130.293 L 136.64,135.422 L 155.774,138.909
 L 177.212,140.53 L 201.086,140.061 L 224.883,137.664 L 246.102,133.765 L 264.89,128.541 L 281.392,122.165
 L 295.757,114.815 L 308.131,106.666 L 318.661,97.8941 L 327.493,88.6741 L 334.775,79.1821 L 340.654,69.5938
 L 345.275,60.0848 L 348.787,50.8309 L 351.336,42.0078 L 353.068,33.791 L 354.131,26.3564 L 354.671,19.8796
 L 354.836,14.5363 L 354.772,10.5021 L 354.626,7.95271 L 354.544,7.0639 L 289.598,7.0639 L 289.396,7.52939
 L 288.788,8.86165 L 287.768,10.9644 L 286.331,13.7413 L 284.472,17.096 L 282.186,20.9323 L 279.468,25.1538
 L 276.312,29.6642 L 272.715,34.3673 L 268.669,39.1667 L 264.172,43.966 L 259.217,48.6691 L 253.8,53.1795
 L 247.914,57.401 L 241.556,61.2373 L 234.721,64.5921 L 227.402,67.369 L 219.595,69.4717 L 211.295,70.804
 L 207,71.0312 L 207,106.272 L 200.65,106.272 L 200.65,71.1713 L 193.738,70.804 L 185.548,69.4717
 L 177.914,67.369 L 170.824,64.5921 L 164.265,61.2373 L 158.223,57.401 L 152.686,53.1795 L 147.64,48.6691
 L 143.073,43.966 L 138.971,39.1667 L 135.321,34.3673 L 132.111,29.6642 L 129.328,25.1538 L 126.957,20.9323
 L 124.988,17.096 L 123.405,13.7413 L 122.197,10.9644 L 121.35,8.86165 L 120.851,7.52939 L 120.688,7.0639
 L 37.0444,7.0639 z
" stroke="black" fill="lightgray" stroke-width="0.5"/>
</svg>
