<?xml version="1.0" standalone="no"?>
<!DOCTYPE svg PUBLIC "-//W3C//DTD SVG 1.1//EN" "http://www.w3.org/Graphics/SVG/1.1/DTD/svg11.dtd">
<svg width="297mm" height="121mm" viewBox="52 9 297 121" xmlns="http://www.w3.org/2000/svg" version="1.1">
<title>OpenSCAD Model</title>
<path d="
M 52.2333,9.60001 L 52.2746,10.4168 L 52.4673,12.7585 L 52.9146,16.4619 L 53.7198,21.3639 L 54.9861,27.3012
 L 56.8168,34.1107 L 59.315,41.6292 L 62.5841,49.6936 L 66.7273,58.1407 L 71.8478,66.8073 L 78.0488,75.5303
 L 85.4337,84.1465 L 94.1055,92.4926 L 104.168,100.406 L 115.723,107.722 L 128.876,114.28 L 143.728,119.914
 L 160.384,124.463 L 178.946,127.763 L 199.518,129.65 L 220.103,129.797 L 238.701,128.115 L 255.415,124.8
 L 270.344,120.05 L 283.588,114.062 L 295.249,107.033 L 305.428,99.1596 L 314.223,90.6387 L 321.737,81.6675
 L 328.07,72.443 L 333.323,63.1621 L 337.595,54.0218 L 340.988,45.2191 L 343.602,36.951 L 345.538,29.4146
 L 346.897,22.8066 L 347.778,17.3242 L 348.283,13.1643 L 348.513,10.5239 L 348.567,9.60001 L 286.478,9.70584
 L 286.286,10.0822 L 285.71,11.16 L 284.748,12.8621 L 283.398,15.1115 L 281.66,17.8313 L 279.532,20.9444
 L 277.013,24.3737 L 274.101,28.0424 L 270.794,31.8733 L 267.093,35.7894 L 262.994,39.7136 L 258.497,43.5691
 L 253.601,47.2788 L 248.303,50.7655 L 242.603,53.9524 L 236.5,56.7625 L 229.991,59.1185 L 223.076,60.9437
 L 215.752,62.1609 L 208.02,62.6931 L 207,62.6619 L 207,96.9594 L 200.65,96.9594 L 200.65,62.4682
 L 200.282,62.457 L 192.943,61.4752 L 186.002,59.8297 L 179.46,57.6023 L 173.315,54.8752 L 167.569,51.7301
 L 162.221,48.2491 L 157.27,44.514 L 152.716,40.6069 L 148.559,36.6096 L 144.8,32.6041 L 141.436,28.6723
 L 138.47,24.8962 L 135.899,21.3578 L 133.725,18.1389 L 131.946,15.3215 L 130.563,12.9876 L 129.576,11.219
 L 128.984,10.0978 L 128.786,9.70584 z
" stroke="black" fill="lightgray" stroke-width="0.5"/>
</svg>
