<?xml version="1.0" standalone="no"?>
<!DOCTYPE svg PUBLIC "-//W3C//DTD SVG 1.1//EN" "http://www.w3.org/Graphics/SVG/1.1/DTD/svg11.dtd">
<svg width="379mm" height="156mm" viewBox="8 7 379 156" xmlns="http://www.w3.org/2000/svg" version="1.1">
<title>OpenSCAD Model</title>
<path d="
M 8.82835,16.4529 L 8.97067,23.1815 L 9.56828,31.3103 L 10.8065,40.6059 L 12.8704,50.8349 L 15.9455,61.7641
 L 20.2169,73.1599 L 25.8699,84.7892 L 33.0898,96.4184 L 42.0618,107.814 L 52.9712,118.743 L 66.0032,128.972
 L 81.3431,138.268 L 99.1762,146.397 L 119.688,153.125 L 143.063,158.221 L 169.487,161.449 L 199.146,162.577
 L 229.2,161.449 L 255.878,158.221 L 279.38,153.125 L 299.902,146.397 L 317.644,138.268 L 332.804,128.972
 L 345.58,118.743 L 356.17,107.814 L 364.773,96.4184 L 371.588,84.7892 L 376.812,73.1599 L 380.644,61.7641
 L 383.282,50.8349 L 384.925,40.6059 L 385.771,31.3103 L 386.018,23.1815 L 385.866,16.4529 L 385.511,11.3578
 L 385.152,8.12959 L 384.989,7.00168 L 320.289,7.00168 L 320.178,7.71785 L 319.807,9.76781 L 319.122,13.0036
 L 318.066,17.2774 L 316.585,22.4412 L 314.624,28.3472 L 312.127,34.8474 L 309.039,41.794 L 305.305,49.0391
 L 300.869,56.4347 L 295.677,63.8329 L 289.672,71.0859 L 282.801,78.0457 L 275.007,84.5645 L 266.235,90.4942
 L 256.43,95.6872 L 245.538,99.9953 L 233.501,103.271 L 220.267,105.366 L 207,106.068 L 207,134.909
 L 200.65,134.909 L 200.65,105.895 L 191.26,105.461 L 177.943,103.442 L 165.778,100.225 L 154.714,95.9581
 L 144.703,90.7919 L 135.695,84.8756 L 127.642,78.3587 L 120.492,71.3907 L 114.199,64.121 L 108.711,56.6992
 L 103.98,49.2748 L 99.9563,41.9972 L 96.5907,35.016 L 93.8339,28.4805 L 91.6365,22.5404 L 89.9492,17.3451
 L 88.7228,13.0441 L 87.9078,9.78685 L 87.455,7.72289 L 87.315,7.00168 L 9.28055,7.00168 L 9.16855,8.12959
 L 8.95607,11.3578 z
" stroke="black" fill="lightgray" stroke-width="0.5"/>
</svg>
