<?xml version="1.0" standalone="no"?>
<!DOCTYPE svg PUBLIC "-//W3C//DTD SVG 1.1//EN" "http://www.w3.org/Graphics/SVG/1.1/DTD/svg11.dtd">
<svg width="318mm" height="134mm" viewBox="37 7 318 134" xmlns="http://www.w3.org/2000/svg" version="1.1">
<title>OpenSCAD Model</title>
<path d="
M 37.0398,8.10353 L 37.1132,11.0736 L 37.3957,15.7507 L 38.0181,21.9116 L 39.1115,29.333 L 40.8068,37.7915
 L 43.235,47.064 L 46.5271,56.9269 L 50.814,67.1571 L 56.2267,77.5312 L 62.8962,87.826 L 70.9534,97.8181
 L 80.5294,107.284 L 91.755,116.001 L 104.761,123.745 L 119.679,130.293 L 136.64,135.422 L 155.774,138.909
 L 177.212,140.53 L 201.086,140.061 L 224.883,137.664 L 246.102,133.765 L 264.89,128.541 L 281.392,122.165
 L 295.757,114.815 L 308.131,106.666 L 318.661,97.8941 L 327.493,88.6741 L 334.775,79.1821 L 340.654,69.5938
 L 345.275,60.0848 L 348.787,50.8309 L 351.336,42.0078 L 353.068,33.791 L 354.131,26.3564 L 354.671,19.8796
 L 354.836,14.5363 L 354.772,10.5021 L 354.626,7.95271 L 354.544,7.0639 L 293.867,7.0639 L 293.621,7.56392
 L 292.888,8.995 L 291.67,11.2537 L 289.972,14.2366 L 287.798,17.8401 L 285.151,21.961 L 282.036,26.4957
 L 278.457,31.3407 L 274.418,36.3926 L 269.922,41.5479 L 264.974,46.7033 L 259.577,51.7552 L 253.735,56.6002
 L 247.453,61.1349 L 240.735,65.2557 L 233.584,68.8593 L 226.004,71.8421 L 218,74.1008 L 209.575,75.5319
 L 207,75.6776 L 207,108.755 L 200.65,108.755 L 200.65,76.0272 L 191.943,75.5319 L 183.664,74.1008
 L 175.891,71.8421 L 168.616,68.8593 L 161.834,65.2557 L 155.537,61.1349 L 149.719,56.6002 L 144.374,51.7552
 L 139.494,46.7033 L 135.073,41.5479 L 131.104,36.3926 L 127.581,31.3407 L 124.498,26.4957 L 121.847,21.961
 L 119.622,17.8401 L 117.816,14.2366 L 116.424,11.2537 L 115.437,8.995 L 114.85,7.56392 L 114.656,7.0639
 L 37.0444,7.0639 z
" stroke="black" fill="lightgray" stroke-width="0.5"/>
</svg>
