<?xml version="1.0" encoding="utf-8"?>
<!-- Generator: Adobe Illustrator 24.0.3, SVG Export Plug-In . SVG Version: 6.00 Build 0)  -->
<svg version="1.1" id="Layer_1" xmlns="http://www.w3.org/2000/svg" xmlns:xlink="http://www.w3.org/1999/xlink" x="0px" y="0px"
	 viewBox="0 0 1074.3 442.2" style="enable-background:new 0 0 1074.3 442.2;" xml:space="preserve">
<style type="text/css">
	.st0{fill:none;stroke:#000000;stroke-width:7.400000e-02;stroke-miterlimit:11.3386;}
</style>
<title>OpenSCAD Model</title>
<path class="st0" d="M2.3,26.8l0.4,19.1l1.7,23L8,95.3l5.9,29l8.7,31l12.1,32.3l16,33l20.5,33l25.4,32.3l30.9,31l36.9,29l43.5,26.4
	l50.6,23l58.1,19.1l66.3,14.4l74.9,9.2l84.1,3.2l85.2-3.2l75.6-9.2l66.6-14.4l58.2-19.1l50.3-23l43-26.4l36.2-29l30-31l24.4-32.3
	l19.3-33l14.8-33l10.9-32.3l7.5-31l4.7-29L1071,69l0.7-23l-0.4-19.1l-1-14.4l-1-9.2l-0.5-3.2h-75.6l-0.7,2.6l-2.1,7.7l-3.7,12.1
	l-5.4,16L974,57.7l-9.1,22l-11.2,24.2l-13.3,25.8l-15.6,26.9l-18,27.4l-20.6,27.4L863,238.2l-26,25.6l-28.9,23.8l-31.9,21.6
	l-35.1,18.7l-38.3,15.3l-41.7,11.3l-45.2,6.8l-48.8,1.7l-5.9-0.4l-18-1.1l-22.9-1.5l-44.4-6.9L434,342.8l-39.5-13.4l-37-16.1
	l-34.6-18.5l-32.2-20.4l-29.8-22l-27.3-23.3L208.7,205l-22.5-24.6l-20.1-24.7l-17.7-24.4l-15.3-23.7l-12.9-22.7l-10.4-21.3l-8-19.5
	l-5.6-17.4L93,11.9L92.2,0H3.6L3.3,3.2l-0.6,9.2L2.3,26.8z"/>
</svg>
