<?xml version="1.0" standalone="no"?>
<!DOCTYPE svg PUBLIC "-//W3C//DTD SVG 1.1//EN" "http://www.w3.org/Graphics/SVG/1.1/DTD/svg11.dtd">
<svg width="297mm" height="121mm" viewBox="49 7 297 121" xmlns="http://www.w3.org/2000/svg" version="1.1">
<title>OpenSCAD Model</title>
<path d="
M 49.3972,8.49112 L 49.4626,8.83249 L 49.6664,9.82722 L 50.0199,11.4312 L 50.5346,13.6005 L 51.2217,16.2908
 L 52.0928,19.4582 L 53.1591,23.0586 L 54.4321,27.0478 L 55.923,31.3818 L 57.6434,36.0166 L 59.6045,40.908
 L 61.8178,46.012 L 64.2946,51.2845 L 67.0463,56.6813 L 70.0843,62.1585 L 73.42,67.672 L 77.0647,73.1776
 L 81.0297,78.6313 L 85.3266,83.989 L 89.9667,89.2067 L 94.7811,92.1146 L 99.4102,94.9122 L 103.896,97.6002
 L 108.28,100.179 L 112.605,102.651 L 116.913,105.015 L 121.246,107.273 L 125.645,109.425 L 130.154,111.473
 L 134.814,113.416 L 139.666,115.256 L 144.754,116.994 L 150.12,118.631 L 155.805,120.166 L 161.851,121.602
 L 168.3,122.938 L 175.195,124.176 L 182.578,125.316 L 190.491,126.359 L 198.975,127.307 L 220.05,126.748
 L 238.929,124.507 L 255.737,120.768 L 270.598,115.717 L 283.639,109.537 L 294.984,102.414 L 304.758,94.5313
 L 313.086,86.0746 L 320.093,77.2281 L 325.904,68.1767 L 330.644,59.1049 L 334.438,50.1974 L 337.411,41.6387
 L 339.688,33.6137 L 341.394,26.3069 L 342.653,19.9031 L 343.592,14.5867 L 344.334,10.5426 L 345.005,7.95526
 L 345.731,7.00945 L 277.256,7.00945 L 277.125,7.37596 L 276.719,8.42599 L 276.026,10.0853 L 275.03,12.2797
 L 273.718,14.9348 L 272.073,17.9765 L 270.082,21.3306 L 267.73,24.9227 L 265.002,28.6786 L 261.884,32.5241
 L 258.361,36.385 L 254.419,40.1869 L 250.043,43.8558 L 245.218,47.3172 L 239.93,50.497 L 234.164,53.321
 L 227.906,55.7148 L 221.141,57.6043 L 213.854,58.9153 L 207,59.4918 L 207,95.358 L 200.65,95.358
 L 200.65,59.5019 L 198.192,59.4692 L 190.861,58.5988 L 184.026,57.0453 L 177.677,54.8924 L 171.8,52.2234
 L 166.386,49.1219 L 161.422,45.6712 L 156.897,41.9548 L 152.8,38.0561 L 149.119,34.0587 L 145.843,30.0459
 L 142.96,26.1012 L 140.459,22.3081 L 138.329,18.75 L 136.558,15.5103 L 135.134,12.6725 L 134.047,10.3201
 L 133.284,8.53648 L 132.835,7.40512 L 132.688,7.00945 z
" stroke="black" fill="lightgray" stroke-width="0.5"/>
</svg>
