<?xml version="1.0" standalone="no"?>
<!DOCTYPE svg PUBLIC "-//W3C//DTD SVG 1.1//EN" "http://www.w3.org/Graphics/SVG/1.1/DTD/svg11.dtd">
<svg width="358mm" height="139mm" viewBox="23 6 358 139" xmlns="http://www.w3.org/2000/svg" version="1.1">
<title>OpenSCAD Model</title>
<path d="
M 23.1611,6.00557 L 23.2874,7.01225 L 23.7365,9.89346 L 24.6138,14.4409 L 26.0245,20.4463 L 28.0741,27.7014
 L 30.8678,35.9979 L 34.5109,45.1275 L 39.1089,54.8819 L 44.767,65.0529 L 51.5906,75.4322 L 59.6849,85.8115
 L 69.1554,95.9825 L 80.1074,105.737 L 92.6461,114.867 L 106.877,123.163 L 122.905,130.418 L 140.836,136.424
 L 160.775,140.971 L 182.828,143.852 L 207.099,144.859 L 231.295,143.852 L 253.129,140.971 L 272.724,136.424
 L 290.2,130.418 L 305.679,123.163 L 319.282,114.867 L 331.13,105.737 L 341.343,95.9825 L 350.043,85.8115
 L 357.352,75.4322 L 363.39,65.0529 L 368.278,54.8819 L 372.137,45.1275 L 375.089,35.9979 L 377.255,27.7014
 L 378.755,20.4463 L 379.711,14.4409 L 380.244,9.89346 L 380.475,7.01225 L 380.525,6.00557 L 313.497,6.00557
 L 313.33,6.64989 L 312.806,8.49318 L 311.889,11.4009 L 310.547,15.2385 L 308.743,19.8714 L 306.444,25.1651
 L 303.615,30.9851 L 300.221,37.1968 L 296.229,43.6656 L 291.603,50.2571 L 286.309,56.8367 L 280.312,63.2699
 L 273.578,69.422 L 266.073,75.1586 L 257.761,80.3452 L 248.609,84.8472 L 238.581,88.53 L 227.644,91.2591
 L 215.762,92.8999 L 207,93.1848 L 207,123.212 L 200.65,123.212 L 200.65,93.1576 L 191.272,92.4892
 L 180.496,90.5218 L 170.546,87.5436 L 161.394,83.6821 L 153.011,79.0653 L 145.37,73.8207 L 138.444,68.0761
 L 132.205,61.9592 L 126.624,55.5977 L 121.674,49.1194 L 117.328,42.6519 L 113.557,36.323 L 110.334,30.2604
 L 107.63,24.5917 L 105.419,19.4447 L 103.672,14.9472 L 102.362,11.2268 L 101.46,8.41125 L 100.94,6.62828
 L 100.772,6.00557 z
" stroke="black" fill="lightgray" stroke-width="0.5"/>
</svg>
