<?xml version="1.0" standalone="no"?>
<!DOCTYPE svg PUBLIC "-//W3C//DTD SVG 1.1//EN" "http://www.w3.org/Graphics/SVG/1.1/DTD/svg11.dtd">
<svg width="297mm" height="121mm" viewBox="51 6 297 121" xmlns="http://www.w3.org/2000/svg" version="1.1">
<title>OpenSCAD Model</title>
<path d="
M 51.3161,6.60001 L 51.3574,7.41684 L 51.5501,9.75853 L 51.9974,13.4619 L 52.8026,18.3639 L 54.0689,24.3012
 L 55.8995,31.1107 L 58.3978,38.6292 L 61.6669,46.6936 L 65.8101,55.1407 L 70.9305,63.8073 L 77.1316,72.5303
 L 84.5164,81.1465 L 93.1883,89.4926 L 103.25,97.4057 L 114.806,104.722 L 127.959,111.28 L 142.811,116.914
 L 159.467,121.463 L 178.029,124.763 L 198.601,126.65 L 219.186,126.797 L 237.784,125.115 L 254.498,121.8
 L 269.426,117.05 L 282.671,111.062 L 294.332,104.033 L 304.51,96.1596 L 313.306,87.6387 L 320.82,78.6675
 L 327.153,69.443 L 332.405,60.1621 L 336.678,51.0218 L 340.071,42.2191 L 342.685,33.951 L 344.621,26.4146
 L 345.98,19.8066 L 346.861,14.3242 L 347.366,10.1643 L 347.595,7.52391 L 347.649,6.60001 L 291.029,6.70584
 L 291.038,7.28142 L 290.628,8.66139 L 289.796,10.7543 L 288.539,13.4687 L 286.852,16.7132 L 284.732,20.3961
 L 282.176,24.4262 L 279.179,28.7118 L 275.739,33.1617 L 271.851,37.6841 L 267.512,42.1879 L 262.718,46.5813
 L 257.466,50.773 L 251.751,54.6716 L 245.572,58.1855 L 238.922,61.2233 L 231.801,63.6935 L 224.202,65.5046
 L 216.124,66.5652 L 207.561,66.7839 L 207,66.7426 L 207,101.205 L 200.65,101.205 L 200.65,66.275
 L 198.83,66.141 L 190.574,64.735 L 182.793,62.6517 L 175.488,59.977 L 168.658,56.7964 L 162.302,53.1958
 L 156.422,49.261 L 151.016,45.0776 L 146.084,40.7315 L 141.627,36.3083 L 137.644,31.8939 L 134.135,27.5739
 L 131.1,23.4342 L 128.538,19.5605 L 126.45,16.0385 L 124.835,12.954 L 123.694,10.3927 L 123.025,8.44041
 L 122.829,7.18288 L 123.106,6.70584 z
" stroke="black" fill="lightgray" stroke-width="0.5"/>
</svg>
