<?xml version="1.0" encoding="utf-8"?>
<!-- Generator: Adobe Illustrator 24.0.1, SVG Export Plug-In . SVG Version: 6.00 Build 0)  -->
<svg version="1.1" id="main" xmlns="http://www.w3.org/2000/svg" xmlns:xlink="http://www.w3.org/1999/xlink" x="0px" y="0px"
	 viewBox="0 0 378.3 574.2" style="enable-background:new 0 0 378.3 574.2;" xml:space="preserve">
<style type="text/css">
	.st0{fill:none;stroke:#000000;stroke-width:7.400000e-02;stroke-miterlimit:10;}
</style>
<g id="frame" transform="translate(730.0, 1079.0) scale(1, -1)">
	<path id="SVG_Exporter" class="st0" d="M-655.6,677.8c0,6,0,11.9,0,17.9c6,0,11.9,0,17.9,0c0-6,0-11.9,0-17.9
		C-644.1,677.8-649.6,677.8-655.6,677.8"/>
	<path id="SVG_Exporter_1_" class="st0" d="M-450.3,724.9c-2.5-6.8-5.1-13.6-8.5-20c-3-6.4-6.8-12.3-10.2-17.9
		c-3.8-5.5-8.1-10.6-12.3-15.3c-4.3-4.7-8.9-8.5-14-12.3c-5.1-3.8-9.8-6.4-14.9-8.9c-5.1-2.5-10.6-4.3-15.7-5.5
		c-5.5-1.3-10.6-1.7-16.1-1.7c-5.5,0-10.6,0.4-16.1,1.7s-10.6,3-15.7,5.5c-5.1,2.5-10.2,5.5-14.9,8.9c-4.7,3.4-9.4,7.6-14,12.3
		c-4.3,4.7-8.5,9.8-12.3,15.3c-3.8,5.5-7.2,11.5-10.6,17.9c-3,6.4-6,12.8-8.5,20c-2.5,6.8-4.7,14-6.4,21.7c-1.7,7.2-3,14.9-3.8,22.5
		c-0.9,7.6-1.3,15.3-1.3,23.4c0,7.6,0.4,15.7,1.3,23.4c0.9,7.6,2.1,15.3,3.8,22.5c1.7,7.2,3.8,14.5,6,21.7c2.5,6.8,5.1,13.6,8.5,20
		c3,6.4,6.8,12.3,10.6,17.8c3.8,5.5,8.1,10.6,12.3,15.3c4.3,4.7,8.9,8.5,14,12.3c4.7,3.4,9.8,6.4,14.9,8.9
		c5.1,2.5,10.6,4.3,15.7,5.5c5.5,1.3,10.6,1.7,16.1,1.7s11-0.4,16.1-1.7s10.6-3,15.7-5.5c5.1-2.5,10.2-5.5,14.9-8.9
		c4.7-3.4,9.8-7.2,14-12.3c4.3-5.1,8.1-10.6,11.9-16.2c3.8-5.5,7.6-10.6,11-16.6c3.4-6,6-12.8,8.5-20c2.5-7.2,4.7-14,6-21.7
		c1.3-7.6,2.5-14.9,3.4-22.5c0.9-7.6,1.3-15.3,1.3-23.4c0-7.6-0.4-15.7-1.3-23.4c-0.9-7.6-2.1-15.3-3.8-22.5
		S-447.8,731.7-450.3,724.9"/>
	<path id="SVG_Exporter_2_" class="st0" d="M-425.7,678.2c0,6,0,11.9,0,17.9c-6,0-11.9,0-17.9,0c0-6,0-11.9,0-17.9
		C-437.6,678.2-431.6,678.2-425.7,678.2"/>
	<path id="SVG_Exporter_3_" class="st0" d="M-549.3,568.5c0-2.1,0-4.7,0-6.8c6,0,11.9,0,17.9,0c0,6,0,11.9,0,17.9
		c-6,0-11.9,0-17.9,0C-549.3,576.2-549.3,572.4-549.3,568.5"/>
	<path id="SVG_Exporter_4_" class="st0" d="M-549.3,960.4c0,6,0,11.9,0,17.8c6,0,11.9,0,17.9,0c0-6,0-11.9,0-17.8
		C-537.4,960.4-543.4,960.4-549.3,960.4"/>
	<path id="SVG_Exporter_5_" class="st0" d="M-669.2,878.4c0,6,0,11.9,0,17.8c-6,0-11.9,0-17.9,0c0-4.7,0-9.3,0-14c0-0.8,0-1.7,0-2.5
		c0-0.4,0-0.8,0-1.3C-680.7,878.4-675.1,878.4-669.2,878.4"/>
	<path id="SVG_Exporter_6_" class="st0" d="M-531.5,1021.6c0,2.5,0,5.1,0,8.1c0,0.8,0,1.3,0,2.1c-6,0-11.9,0-17.9,0
		c0-6,0-11.9,0-17.8c6,0,11.9,0,17.9,0C-531.5,1016.5-531.5,1019-531.5,1021.6"/>
	<path id="SVG_Exporter_7_" class="st0" d="M-531.5,622.1c0-6,0-11.9,0-17.9c-6,0-11.9,0-17.9,0c0,6,0,11.9,0,17.9
		C-543.4,622.1-537.4,622.1-531.5,622.1"/>
	<path id="SVG_Exporter_8_" class="st0" d="M-614.8,575.8c-0.4,3.4-1.3,6.4-2.1,9.4s-1.7,6-2.5,8.1s-1.7,3.8-3,5.5
		c-0.9,1.7-2.1,3-3.4,4.3c-1.3,1.3-2.1,2.5-3.8,4.3c-1.3,1.3-3,3-5.1,5.1s-4.7,4.7-7.2,7.2c-2.5,2.5-5.1,5.1-6.8,7.6
		c-1.7,2.1-3,4.3-4.3,6c-1.3,1.7-1.7,3.4-2.5,5.1c-0.9,1.7-1.7,3.4-2.1,5.5c-0.9,1.7-1.3,3.8-2.1,5.5c-0.9,1.7-1.3,3.8-2.1,5.5
		c-0.9,1.7-1.3,3.8-2.1,5.5c-0.9,1.7-1.3,3.8-2.1,5.5c-0.9,2.1-1.7,4.3-3,6.8c-1.3,3-3,6.4-5.1,9.8s-3.8,6.8-5.1,9.4
		c-1.7,2.5-3,4.7-4.3,6.8c-1.3,1.7-2.5,3.4-3.8,5.1c-1.3,1.7-2.5,3.4-3.8,5.1c-1.3,1.7-2.5,3.4-3.8,5.1c-1.3,1.7-3,3.4-4.3,5.1
		c-1.3,1.7-2.5,3.4-3.8,5.5c-1.3,1.7-2.5,3.4-3.4,5.5c-0.9,1.7-2.1,3.8-2.5,5.5c-0.9,1.7-1.3,3.8-1.7,5.5c-0.4,2.1-0.4,4.3-0.4,7.2
		s0,6.4,0.4,10.2c0.4,3.4,0.4,7.2,0.9,10.2c0,3,0.4,5.1,0.4,7.2s0,3.8-0.4,5.5c-0.4,1.7-0.9,3.4-1.3,5.5c-0.4,2.1-0.9,3.4-1.7,5.1
		c-0.4,1.7-1.3,3.4-1.7,5.1c-0.4,1.7-1.3,3.4-1.7,5.1c-0.4,1.7-0.9,3.4-1.7,5.1c-0.4,1.7-0.9,3.4-1.3,5.1c-0.4,1.7-0.9,3.4-0.9,5.1
		c-0.4,1.7-0.4,3.4-0.9,5.1c0,1.7-0.4,3.4-0.4,5.1c0,1.7,0,3.4-0.4,5.1c0,1.7,0,3.4-0.4,5.1c0,1.7-0.4,3.4-0.4,5.1
		c0,1.7-0.4,3-0.9,4.7c-0.4,1.7-0.9,3.4-1.3,6c-0.4,2.1-1.3,5.1-1.7,7.6c-0.9,2.5-1.3,5.5-1.7,7.7c-0.4,2.1-0.9,3.8-1.3,5.5
		c-0.4,1.7-0.4,3-0.4,4.3s0,2.5,0,4.3c0,1.3,0,2.5,0.4,3.8c0,1.3,0.4,2.5,0.9,3.8c0.4,1.3,0.9,2.5,1.3,3.8c0.4,1.3,0.9,2.5,1.7,3.8
		s1.3,2.5,2.1,3.8s1.7,2.5,2.5,3.8c0.9,1.3,2.1,2.5,3,3.8c1.3,1.3,2.1,2.5,3.4,3.8c1.3,1.3,2.5,2.5,3.4,3.8c1.3,1.3,2.5,2.5,3.4,4.3
		c1.3,1.3,2.1,3,3.4,4.3c1.3,1.7,2.1,3,3,4.7c0.9,1.7,1.7,3.4,2.5,5.1c0.9,1.7,1.3,3.8,2.1,6c0.4,2.1,0.9,3.8,1.3,6.4
		c0.4,2.1,0.9,5.1,1.3,6.4c0.4,1.7,0.4,2.1,0.9,3c0,0.8,0.4,2.1,1.3,3.8c0.9,1.7,1.7,3.8,3,6c1.3,2.1,2.5,3.4,4.7,5.1s4.7,3.4,6,4.3
		c1.3,0.8,1.3,0.8,2.5,1.3c0.9,0.4,2.5,1.3,4.7,2.5c2.1,1.3,4.3,2.5,6.4,4.3c2.1,1.3,3.8,3,5.5,4.7c1.7,1.7,3.4,3.4,4.7,5.1
		c1.7,1.7,3,3.4,3.8,5.5c1.3,2.1,2.1,4.3,3,6c0.9,2.1,1.7,4.3,3,6.4c1.3,2.1,2.1,3.8,3.8,5.5c1.3,1.7,3,3.4,4.7,5.1
		c1.7,1.7,3.4,3,5.5,4.3c2.1,1.3,3.8,2.5,6,3.8c2.1,1.3,3.8,2.5,6,3.8c2.1,1.3,3.8,2.5,5.5,3.8c1.7,1.3,3.4,3,5.1,4.3
		c1.7,1.7,3,3,4.7,4.7c1.7,1.3,3,3,4.7,4.3c1.7,1.3,3.4,3,5.1,4.3c1.7,1.3,3.4,3,5.1,4.3c1.7,1.3,3.4,3,5.5,4.3
		c1.7,1.3,3.8,3,5.5,4.3c2.1,1.3,3.8,3,6,4.3c2.1,1.3,4.3,2.5,6.4,3.4s4.7,1.7,6.8,2.1c2.5,0.4,4.7,0.4,7.2,0.4
		c2.5,0,5.1-0.4,7.6-1.3c2.5-0.8,5.1-1.7,7.6-3c2.5-1.3,4.7-2.1,7.6-3.4c3-1.3,7.2-2.5,8.1-2.5c0.9-0.4-0.9,0.4,0.4,0
		c1.3-0.4,4.7-1.3,8.1-2.1c3-0.8,5.5-1.3,8.1-2.1c2.5-0.8,6-2.1,7.2-3c1.3-0.8,1.3-0.8,1.7-1.3c0.9-0.4,2.1-1.7,3.8-3
		c1.7-1.7,3-3.8,4.3-6c1.3-2.1,2.1-4.7,2.5-7.2c0.9-2.5,1.7-5.1,2.5-7.7c0.9-2.5,2.5-4.7,3.8-6.8c1.3-2.1,3-4.3,4.7-6.4
		c1.7-2.1,3.4-3.8,5.1-6c1.7-1.7,3.4-3.8,5.1-6s3-3.8,4.3-6c1.3-2.1,2.5-4.3,3.8-6.4c1.3-2.1,2.5-4.3,3.4-6.4
		c0.9-2.1,2.5-4.3,3.4-6.4c1.3-2.1,2.5-4.3,3.8-6.4s2.5-3.8,4.3-6c1.3-1.7,3-3.4,4.7-5.1c1.7-1.7,4.3-3.8,5.5-4.7
		c1.3-0.8,0.9-0.4,1.7-0.8c0.9-0.4,2.5-1.7,4.7-3c2.1-1.3,4.7-2.1,6.8-3.4c2.1-0.8,4.7-2.1,6.8-3s4.7-2.1,6.8-3.4s3.4-2.5,5.1-4.3
		c1.7-1.3,3.4-2.5,5.5-3.8s3.8-2.5,5.5-3.8c1.7-1.3,3-3,4.3-4.7c1.3-1.7,2.5-3.4,3.8-5.1c1.3-1.7,2.1-3.4,3.4-5.5
		c1.3-1.7,2.1-3.8,3-5.1c0.9-1.3,1.7-2.5,2.1-3c0.4-0.8,0.9-1.3,1.7-2.5c0.9-1.3,2.1-3,3-4.3c1.3-1.7,2.5-3,3.4-4.3
		c1.3-1.3,2.5-3,3.4-4.3c1.3-1.3,2.1-2.5,3-3.8c0.9-1.3,1.7-2.5,1.7-3.4c0.4-0.8,0.4-1.3,0.9-2.1c0.4-0.8,0.9-2.1,0.9-3.8
		c0.4-1.3,0.4-2.5,0.9-4.3c0-1.3,0-3,0-4.7c0-1.7-0.4-3.4-0.9-5.1c-0.4-1.7-0.9-3.8-1.7-6c-0.9-2.1-1.7-5.1-2.5-7.7s-2.1-5.1-3-7.6
		c-0.9-2.1-1.7-4.3-2.5-6.4s-1.7-3.4-2.1-5.1c-0.9-1.7-1.3-3.4-2.1-4.7c-0.9-1.7-1.3-3-2.1-4.7c-0.9-1.3-1.3-3-1.7-4.3
		c-0.4-1.3-0.4-3-0.9-3.8c-0.4-0.9-0.4-1.7-0.9-2.5c-0.4-0.9-0.4-2.5-0.9-3.8c-0.4-1.3-0.4-3.4-0.4-5.1c0-1.7,0-3.4-0.4-5.1
		c0-1.7,0-3.4,0-5.1c0-1.7,0-3.4-0.4-5.1c0-1.7-0.4-3.4-0.4-5.1c0-1.7-0.4-3.4-0.9-5.1c-0.4-2.1-0.9-4.7-1.3-5.1c0-0.9,0,0.4,0,0
		c0-0.4-0.9-2.5-1.3-5.1c-0.9-2.5-1.7-6-2.1-6.4c-0.4-0.9,0.4,1.3,0-0.4c-0.4-1.3-2.1-6-3.4-9.4c-1.3-3.8-2.1-6.8-3-9.8
		c-0.9-3-1.3-5.1-1.7-7.2c-0.4-2.1-0.9-3.8-1.3-6c-0.4-1.7-0.4-3.8-0.9-6c-0.4-2.1-0.4-3.8-0.9-6c-0.4-2.1-0.9-3.8-1.3-6
		s-1.3-3.8-1.7-5.5c-0.9-1.7-1.7-3.8-2.5-5.5s-1.7-3.8-3-5.5c-0.9-1.7-1.7-3.4-2.5-5.5c-0.9-2.1-1.7-4.3-2.1-7.6
		c-0.4-3-0.9-6.8-1.7-11c-0.4-4.3-1.3-9.8-1.3-11c0-1.7,0.4,0.9,0,0s-1.3-4.7-2.1-7.2c-0.9-2.5-2.1-3.8-3.4-5.5
		c-1.3-1.7-3-3.4-4.3-4.7c-1.7-1.7-3.4-3-5.1-4.3c-1.7-1.3-3.4-3-5.1-4.3c-1.7-1.3-3.4-2.5-4.7-4.3c-1.7-1.7-3-3.4-3.8-4.7
		c-0.9-1.3-0.9-2.1-1.7-3c-0.4-0.9-1.3-1.3-2.1-3.8c-0.9-2.1-1.7-6-3-9.4c-0.9-3.4-1.7-6.8-2.5-9.8c-0.9-2.5-1.7-4.7-2.5-6.4
		c-0.9-1.7-2.1-3.4-3-4.7c-1.3-1.3-2.5-2.5-3.8-3.8c-1.3-1.3-3.4-2.5-5.5-4.3c-2.1-1.7-5.1-3.4-8.1-5.5c-3-2.1-6-4.3-8.1-6.4
		s-4.3-4.7-6-7.2c-1.7-2.5-3-4.7-3.8-6.4c-0.9-2.1-1.3-3.4-1.7-5.1c-0.4-1.7-0.9-3-1.7-5.1c-0.9-1.7-1.7-3.8-3-6
		c-1.3-2.1-3-4.3-5.1-6.8c-2.1-2.1-5.5-4.7-8.5-6.4c-3-2.1-6-3.8-8.5-5.5c-2.5-1.7-3.8-2.5-5.1-3.4s-2.5-1.7-3.8-2.5s-2.5-2.1-3.8-3
		c-1.3-0.9-2.5-2.1-3.8-3.4c-1.7-1.3-3.4-2.5-4.3-3c-0.9-0.9-0.9-0.9-1.7-0.9s-1.3-0.9-2.5-1.7c-1.3-0.9-3-1.3-4.3-2.1
		c-1.3-0.4-3-0.9-4.3-1.3c-1.3-0.4-3-0.4-4.3-0.4c-1.3,0-2.5,0-3.8,0.4s-2.5,0.4-3.8,0.9c-1.3,0.4-2.5,0.9-3.8,1.7
		c-1.3,0.4-2.1,1.3-3.4,2.1c-1.3,0.9-2.1,1.7-3,3s-1.7,2.1-3,3.4c-1.3,1.3-2.5,3-4.7,5.1s-5.1,5.1-8.1,7.6c-3,3-6.4,5.5-8.9,8.1
		c-3,2.5-5.1,4.3-7.6,6.4c-2.1,1.7-3.8,3.4-5.5,5.1c-1.3,1.7-2.5,3.4-3,4.3c-0.4,1.3-0.4,1.7-0.9,2.1c-0.4,0.4-0.4,1.3-0.9,3.4
		s-0.9,5.1-1.3,8.1C-613.9,569.4-614.4,572.8-614.8,575.8"/>
	<path id="SVG_Exporter_9_" class="st0" d="M-395.1,895.8c-5.5,0-11,0-16.6,0c0-6,0-11.9,0-17.8c6,0,11.5,0,17.4,0h0.4
		c0,6,0,11.9,0,17.8C-394.2,895.8-394.6,895.8-395.1,895.8"/>
</g>
</svg>
