<?xml version="1.0" standalone="no"?>
<!DOCTYPE svg PUBLIC "-//W3C//DTD SVG 1.1//EN" "http://www.w3.org/Graphics/SVG/1.1/DTD/svg11.dtd">
<svg width="134mm" height="204mm" viewBox="0 -203 134 204" xmlns="http://www.w3.org/2000/svg" version="1.1">
<title>OpenSCAD Model</title>
<path d="
M 0,-133.244 L 0.0270844,-132.641 L 0.104491,-131.91 L 0.226456,-131.061 L 0.387206,-130.108 L 0.580977,-129.061
 L 0.802002,-127.933 L 1.04451,-126.737 L 1.30273,-125.482 L 1.57091,-124.183 L 1.84326,-122.85 L 2.11403,-121.496
 L 2.37743,-120.133 L 2.62772,-118.771 L 2.85912,-117.425 L 3.06586,-116.104 L 3.24216,-114.822 L 3.38228,-113.59
 L 3.48042,-112.42 L 3.53085,-111.324 L 3.52777,-110.314 L 3.52925,-109.512 L 3.58298,-108.744 L 3.68355,-108.007
 L 3.82552,-107.296 L 4.00346,-106.608 L 4.21198,-105.939 L 4.44563,-105.285 L 4.69899,-104.641 L 4.96664,-104.005
 L 5.24315,-103.373 L 5.5231,-102.739 L 5.80107,-102.102 L 6.07162,-101.456 L 6.32936,-100.798 L 6.56883,-100.124
 L 6.78462,-99.43 L 6.9713,-98.7124 L 7.12346,-97.9673 L 7.23566,-97.1907 L 7.30249,-96.3789 L 7.32675,-95.543
 L 7.31876,-94.6884 L 7.28436,-93.8181 L 7.2294,-92.9349 L 7.15973,-92.0419 L 7.08119,-91.142 L 6.99965,-90.2382
 L 6.92093,-89.3335 L 6.85089,-88.4307 L 6.79538,-87.533 L 6.76024,-86.6431 L 6.75131,-85.7642 L 6.77446,-84.8992
 L 6.83553,-84.0509 L 6.94034,-83.2225 L 7.09477,-82.4168 L 7.30467,-81.6368 L 7.57587,-80.8855 L 7.9142,-80.1659
 L 8.32555,-79.4808 L 8.82428,-78.7953 L 9.40501,-78.0684 L 10.0598,-77.2939 L 10.7806,-76.4659 L 11.5595,-75.5782
 L 12.3886,-74.625 L 13.2598,-73.6001 L 14.1653,-72.4975 L 15.097,-71.3112 L 16.047,-70.0352 L 17.0073,-68.6634
 L 17.9699,-67.1898 L 18.927,-65.6083 L 19.8705,-63.9129 L 20.7924,-62.0977 L 21.6848,-60.1565 L 22.5398,-58.0833
 L 23.3493,-55.8722 L 24.1055,-53.517 L 24.8003,-51.0117 L 25.5041,-48.6142 L 26.2857,-46.5579 L 27.1343,-44.7995
 L 28.0393,-43.296 L 28.9901,-42.0043 L 29.9758,-40.8812 L 30.986,-39.8837 L 32.0099,-38.9687 L 33.0369,-38.093
 L 34.0563,-37.2136 L 35.0574,-36.2874 L 36.0296,-35.2713 L 36.9622,-34.1221 L 37.8446,-32.7968 L 38.6661,-31.2522
 L 39.416,-29.4454 L 40.0837,-27.3331 L 40.6584,-24.8722 L 41.1297,-22.0197 L 41.4867,-18.7325 L 41.5559,-18.2662
 L 41.6777,-17.8081 L 41.85,-17.356 L 42.0709,-16.9082 L 42.3383,-16.4626 L 42.6503,-16.0172 L 43.0049,-15.5702
 L 43.4001,-15.1195 L 43.834,-14.6632 L 44.3045,-14.1993 L 44.8096,-13.7259 L 45.3475,-13.241 L 45.916,-12.7427
 L 46.5132,-12.229 L 47.1372,-11.6979 L 47.7859,-11.1475 L 48.4573,-10.5758 L 49.1495,-9.98093 L 49.8605,-9.36084
 L 50.5883,-8.71361 L 51.2814,-8.06828 L 51.9346,-7.42564 L 52.5519,-6.78888 L 53.1374,-6.16118 L 53.695,-5.54578
 L 54.2288,-4.94583 L 54.7428,-4.36458 L 55.241,-3.80519 L 55.7275,-3.2709 L 56.2063,-2.76489 L 56.6814,-2.29036
 L 57.1568,-1.85052 L 57.6365,-1.44858 L 58.1246,-1.08771 L 58.625,-0.771149 L 59.1419,-0.50206 L 59.6792,-0.283675
 L 60.241,-0.119202 L 60.8312,-0.0118093 L 61.4539,0.0352631 L 62.3389,0.0363007 L 63.1568,-0.00199795 L 63.9141,-0.0782614
 L 64.617,-0.191054 L 65.2722,-0.338988 L 65.8859,-0.520659 L 66.4646,-0.73465 L 67.0148,-0.979584 L 67.5429,-1.25404
 L 68.0552,-1.55663 L 68.5583,-1.88593 L 69.0586,-2.24055 L 69.5625,-2.61909 L 70.0764,-3.02016 L 70.6068,-3.44234
 L 71.1601,-3.88422 L 71.7426,-4.34441 L 72.361,-4.82152 L 73.0215,-5.31412 L 73.7305,-5.82083 L 74.4738,-6.33295
 L 75.2104,-6.8158 L 75.9392,-7.27664 L 76.6586,-7.72272 L 77.3675,-8.16129 L 78.0644,-8.59958 L 78.7482,-9.04488
 L 79.4173,-9.50439 L 80.0706,-9.9854 L 80.7067,-10.4951 L 81.3243,-11.0408 L 81.922,-11.6298 L 82.4986,-12.2692
 L 83.0527,-12.9664 L 83.583,-13.7286 L 84.0881,-14.5629 L 84.5668,-15.4768 L 85.0177,-16.4774 L 85.4395,-17.572
 L 85.8308,-18.7678 L 86.1779,-19.9619 L 86.6683,-21.0551 L 87.2856,-22.0604 L 88.0135,-22.9907 L 88.8355,-23.8588
 L 89.7351,-24.6777 L 90.696,-25.4603 L 91.7016,-26.2196 L 92.7356,-26.9683 L 93.7816,-27.7195 L 94.823,-28.486
 L 95.8435,-29.2808 L 96.8267,-30.1168 L 97.756,-31.0068 L 98.6152,-31.9639 L 99.3876,-33.0008 L 100.057,-34.1306
 L 100.607,-35.366 L 101.021,-36.7202 L 101.282,-38.2058 L 101.528,-39.7276 L 101.894,-41.1235 L 102.366,-42.4023
 L 102.932,-43.5726 L 103.577,-44.6429 L 104.287,-45.622 L 105.048,-46.5184 L 105.845,-47.3408 L 106.666,-48.0978
 L 107.496,-48.798 L 108.32,-49.45 L 109.126,-50.0625 L 109.899,-50.6442 L 110.624,-51.2035 L 111.289,-51.7492
 L 111.878,-52.2898 L 112.379,-52.8341 L 112.776,-53.3906 L 113.057,-53.9679 L 113.206,-54.5747 L 113.537,-57.02
 L 113.882,-59.2226 L 114.238,-61.1984 L 114.602,-62.9629 L 114.971,-64.5319 L 115.342,-65.9209 L 115.713,-67.1457
 L 116.08,-68.2218 L 116.44,-69.1651 L 116.791,-69.9911 L 117.13,-70.7155 L 117.453,-71.354 L 117.758,-71.9221
 L 118.042,-72.4357 L 118.301,-72.9103 L 118.534,-73.3617 L 118.736,-73.8054 L 118.905,-74.2572 L 119.039,-74.7327
 L 119.133,-75.2475 L 119.398,-77.0518 L 119.694,-78.7726 L 120.016,-80.4122 L 120.358,-81.9729 L 120.718,-83.4567
 L 121.089,-84.8661 L 121.468,-86.2033 L 121.85,-87.4705 L 122.23,-88.67 L 122.604,-89.804 L 122.966,-90.8747
 L 123.314,-91.8845 L 123.641,-92.8355 L 123.944,-93.7301 L 124.218,-94.5703 L 124.458,-95.3586 L 124.66,-96.0972
 L 124.819,-96.7883 L 124.93,-97.4341 L 124.989,-98.0369 L 125.167,-101.008 L 125.382,-103.607 L 125.632,-105.873
 L 125.916,-107.841 L 126.23,-109.551 L 126.573,-111.04 L 126.943,-112.346 L 127.338,-113.506 L 127.756,-114.557
 L 128.195,-115.539 L 128.653,-116.488 L 129.127,-117.443 L 129.616,-118.44 L 130.117,-119.517 L 130.63,-120.713
 L 131.151,-122.065 L 131.678,-123.611 L 132.21,-125.388 L 132.745,-127.434 L 133.279,-129.787 L 133.475,-130.854
 L 133.589,-131.839 L 133.628,-132.747 L 133.596,-133.587 L 133.5,-134.364 L 133.344,-135.087 L 133.135,-135.761
 L 132.877,-136.394 L 132.576,-136.994 L 132.239,-137.566 L 131.869,-138.118 L 131.473,-138.657 L 131.057,-139.189
 L 130.625,-139.723 L 130.184,-140.264 L 129.738,-140.821 L 129.294,-141.399 L 128.856,-142.006 L 128.431,-142.648
 L 128.023,-143.334 L 126.718,-145.542 L 125.426,-147.521 L 124.151,-149.286 L 122.892,-150.853 L 121.651,-152.239
 L 120.429,-153.459 L 119.227,-154.53 L 118.047,-155.467 L 116.889,-156.286 L 115.755,-157.004 L 114.646,-157.636
 L 113.563,-158.198 L 112.507,-158.706 L 111.479,-159.177 L 110.481,-159.625 L 109.514,-160.068 L 108.578,-160.521
 L 107.676,-161.001 L 106.807,-161.522 L 105.974,-162.101 L 104.787,-163.069 L 103.722,-164.064 L 102.767,-165.086
 L 101.908,-166.13 L 101.13,-167.196 L 100.421,-168.279 L 99.7669,-169.379 L 99.1531,-170.491 L 98.5664,-171.615
 L 97.9928,-172.746 L 97.4188,-173.884 L 96.8304,-175.025 L 96.2141,-176.167 L 95.5558,-177.307 L 94.8421,-178.443
 L 94.059,-179.572 L 93.1929,-180.692 L 92.2299,-181.801 L 91.1563,-182.896 L 89.9583,-183.974 L 89.2757,-184.607
 L 88.7202,-185.237 L 88.2759,-185.864 L 87.9272,-186.489 L 87.6581,-187.113 L 87.4529,-187.735 L 87.2959,-188.357
 L 87.1711,-188.978 L 87.0629,-189.6 L 86.9553,-190.222 L 86.8327,-190.846 L 86.6792,-191.472 L 86.479,-192.1
 L 86.2164,-192.73 L 85.8755,-193.365 L 85.4405,-194.003 L 84.8957,-194.645 L 84.2252,-195.292 L 83.4133,-195.945
 L 82.4442,-196.603 L 81.3367,-196.885 L 80.2375,-197.199 L 79.1472,-197.539 L 78.0666,-197.9 L 76.9965,-198.279
 L 75.9376,-198.669 L 74.8908,-199.065 L 73.8567,-199.464 L 72.8362,-199.859 L 71.83,-200.245 L 70.8388,-200.619
 L 69.8635,-200.974 L 68.9049,-201.307 L 67.9636,-201.611 L 67.0405,-201.881 L 66.1362,-202.114 L 65.2517,-202.304
 L 64.3876,-202.446 L 63.5448,-202.534 L 62.7239,-202.565 L 61.21,-202.466 L 59.7184,-202.182 L 58.2525,-201.732
 L 56.8156,-201.136 L 55.4109,-200.415 L 54.0418,-199.587 L 52.7117,-198.672 L 51.4237,-197.689 L 50.1812,-196.66
 L 48.9876,-195.602 L 47.8461,-194.536 L 46.76,-193.482 L 45.7326,-192.459 L 44.7673,-191.486 L 43.8674,-190.584
 L 43.0361,-189.772 L 42.2767,-189.07 L 41.5927,-188.498 L 40.9872,-188.074 L 40.4636,-187.819 L 39.9758,-187.639
 L 39.4759,-187.437 L 38.9644,-187.21 L 38.442,-186.956 L 37.9093,-186.67 L 37.3667,-186.351 L 36.8149,-185.997
 L 36.2545,-185.603 L 35.6861,-185.168 L 35.1102,-184.688 L 34.5274,-184.161 L 33.9383,-183.585 L 33.3436,-182.956
 L 32.7436,-182.271 L 32.1391,-181.528 L 31.5307,-180.725 L 30.9189,-179.858 L 30.3042,-178.924 L 29.6874,-177.922
 L 29.0689,-176.847 L 28.3143,-175.572 L 27.5446,-174.417 L 26.7629,-173.373 L 25.9721,-172.43 L 25.1751,-171.578
 L 24.375,-170.808 L 23.5746,-170.11 L 22.777,-169.474 L 21.9851,-168.891 L 21.2019,-168.35 L 20.4304,-167.842
 L 19.6734,-167.358 L 18.934,-166.887 L 18.2152,-166.421 L 17.5198,-165.948 L 16.8509,-165.46 L 16.2114,-164.947
 L 15.6043,-164.399 L 15.0326,-163.807 L 14.4992,-163.16 L 14.2954,-162.834 L 14.1051,-162.423 L 13.9249,-161.934
 L 13.7513,-161.373 L 13.5808,-160.749 L 13.4101,-160.067 L 13.2357,-159.336 L 13.0542,-158.562 L 12.862,-157.753
 L 12.6559,-156.916 L 12.4323,-156.057 L 12.1878,-155.184 L 11.9189,-154.305 L 11.6223,-153.425 L 11.2944,-152.553
 L 10.9319,-151.696 L 10.5312,-150.86 L 10.0891,-150.053 L 9.60194,-149.282 L 9.06638,-148.555 L 8.20789,-147.48
 L 7.38948,-146.465 L 5.87473,-144.595 L 5.17921,-143.732 L 4.5255,-142.91 L 3.914,-142.125 L 3.34517,-141.372
 L 2.81941,-140.648 L 2.33714,-139.947 L 1.8988,-139.265 L 1.50481,-138.598 L 1.15556,-137.941 L 0.851532,-137.289
 L 0.593094,-136.639 L 0.380707,-135.985 L 0.214783,-135.323 L 0.0957327,-134.648 L 0.0240021,-133.957 z
M 16.2105,-131.65 L 16.2105,-138 L 22.4547,-138 L 22.4547,-131.65 z
M 27.023,-60.65 L 27.023,-67 L 33.2672,-67 L 33.2672,-60.65 z
M 29.845,-100.577 L 29.9654,-104.967 L 30.3204,-109.259 L 30.9007,-113.44 L 31.6969,-117.495 L 32.6997,-121.411
 L 33.8998,-125.174 L 35.2877,-128.77 L 36.8543,-132.186 L 38.59,-135.407 L 40.4857,-138.421 L 42.5318,-141.213
 L 44.7192,-143.77 L 47.0385,-146.077 L 49.4803,-148.121 L 52.0353,-149.889 L 54.6941,-151.366 L 57.4474,-152.538
 L 60.2859,-153.393 L 63.2003,-153.916 L 66.1811,-154.093 L 69.1624,-153.916 L 72.0782,-153.393 L 74.9188,-152.538
 L 77.6749,-151.366 L 80.3369,-149.889 L 82.8952,-148.121 L 85.3406,-146.077 L 87.6633,-143.77 L 89.8539,-141.213
 L 91.903,-138.421 L 93.801,-135.407 L 95.5384,-132.186 L 97.1058,-128.77 L 98.4935,-125.174 L 99.6922,-121.411
 L 100.692,-117.495 L 101.484,-113.44 L 102.059,-109.259 L 102.406,-104.967 L 102.517,-100.577 L 102.388,-96.3098
 L 102.029,-92.1423 L 101.447,-88.0873 L 100.653,-84.1578 L 99.6548,-80.3666 L 98.4618,-76.7267 L 97.0829,-73.2508
 L 95.5271,-69.9519 L 93.8034,-66.8428 L 91.9207,-63.9366 L 89.8879,-61.2459 L 87.7141,-58.7838 L 85.4082,-56.563
 L 82.9792,-54.5966 L 80.4361,-52.8974 L 77.7878,-51.4782 L 75.0433,-50.3519 L 72.2115,-49.5315 L 69.3015,-49.0298
 L 66.3222,-48.8597 L 63.3404,-49.0288 L 60.4231,-49.5277 L 57.58,-50.3438 L 54.8205,-51.4646 L 52.1543,-52.8775
 L 49.5909,-54.5699 L 47.1398,-56.5293 L 44.8107,-58.7431 L 42.6129,-61.1988 L 40.5562,-63.8836 L 38.65,-66.7852
 L 36.9039,-69.8909 L 35.3275,-73.1882 L 33.9303,-76.6644 L 32.7218,-80.3071 L 31.7116,-84.1036 L 30.9093,-88.0414
 L 30.3244,-92.108 L 29.9664,-96.2907 z
M 64.65,-19.7203 L 64.65,-25.9644 L 71,-25.9644 L 71,-19.7203 z
M 64.65,-34.678 L 64.65,-40.9222 L 71,-40.9222 L 71,-34.678 z
M 64.65,-160.232 L 64.65,-166.476 L 71,-166.476 L 71,-160.232 z
M 64.65,-179.105 L 64.65,-185.349 L 71,-185.349 L 71,-179.105 z
M 101.988,-60.65 L 101.988,-67 L 108.232,-67 L 108.232,-60.65 z
M 113.26,-131.65 L 113.26,-138 L 119.504,-138 L 119.504,-131.65 z
" stroke="black" fill="lightgray" stroke-width="0.5"/>
</svg>
