<?xml version="1.0" encoding="utf-8"?>
<!-- Generator: Adobe Illustrator 24.0.3, SVG Export Plug-In . SVG Version: 6.00 Build 0)  -->
<svg version="1.1" id="Layer_2" xmlns="http://www.w3.org/2000/svg" xmlns:xlink="http://www.w3.org/1999/xlink" x="0px" y="0px"
	 viewBox="0 0 378.3 574.2" style="enable-background:new 0 0 378.3 574.2;" xml:space="preserve">
<style type="text/css">
	.st0{fill:none;stroke:#000000;stroke-width:7.400000e-02;stroke-miterlimit:10;}
</style>
<path class="st0" d="M362.9,167.9c-24.8-44-47.1-41.6-62.5-53.2c-23.7-18-21.5-41.8-45.4-62c-14.2-12-1.4-23.3-21.3-35.8
	c-21-5-40.6-16.9-55.9-16.9c-28.8,0-54,38.7-63.1,41.8c-9.1,3.2-20.6,10.1-32.3,31.1c-14.1,25.3-31.6,26-41.3,38.8
	c-4,5.3-4.8,28.1-15.4,41.4C9.1,174,0,182.8,0,196.5c0,10.1,10.6,46.8,10,65C9.5,277,19.9,285.3,20.7,301
	c0.8,15.6-5.6,35.3,2.9,47.9c8.6,12.6,34.2,31.9,46.7,80.7c12.5,48.8,41.7,25,47.3,91.5c0.8,8.9,11.9,15.9,25.8,28.4
	c13.5,12.2,18.7,24.5,30.8,24.8c17.4,0.4,20.9-6.9,34.8-16.6c14.1-10,27.2-13.1,34.3-36.7c5.1-23.6,40.4-25.7,43.8-55.1
	c3.4-30,32.3-34.6,33.8-46.4c6.1-48.6,15.4-48.4,16.8-58.6c4.7-34.9,16-53.6,16.6-64.6c3-59.9,13.4-42.4,23.5-90
	C382.3,185.3,370.4,181.3,362.9,167.9z M188,435.7c-56.9,0-103.4-64.7-103.4-146.6c0-83.8,46.1-151.7,103-151.7
	c56.9,0,103.2,67.9,103,151.7C290.4,370.6,244.9,435.7,188,435.7z"/>
</svg>
