<?xml version="1.0" encoding="utf-8"?>
<!-- Generator: Adobe Illustrator 24.0.1, SVG Export Plug-In . SVG Version: 6.00 Build 0)  -->
<svg version="1.1" id="main" xmlns="http://www.w3.org/2000/svg" xmlns:xlink="http://www.w3.org/1999/xlink" x="0px" y="0px"
	 viewBox="0 0 306.7 179.4" style="enable-background:new 0 0 306.7 179.4;" xml:space="preserve">
<style type="text/css">
	.st0{fill:none;stroke:#000000;stroke-width:7.400000e-02;stroke-miterlimit:10;}
</style>
<g id="frame" transform="translate(2401.0, 1079.0) scale(1, -1)">
	<path id="SVG_Exporter" class="st0" d="M-2376.7,917.1c0-5.8,0-11.7,0-17.4c-5.9,0-11.8,0-17.7,0c0,5.8,0,11.7,0,17.4
		c-2.2,0-4.3,0-6.5,0c0.6,8,1.3,15.9,1.9,23.9c1.9,10.6,3.7,21.3,5.6,32c3.1,7.4,6.2,14.8,9.2,22.3c4.1,6.8,8.4,13.7,12.6,20.5
		c5.2,6.1,10.5,12.2,15.7,18.3c6.1,5.2,12.3,10.5,18.3,15.6c6.8,4.1,13.7,8.4,20.5,12.5c7.4,3.1,14.8,6.2,22.3,9.1
		c7.8,1.9,15.7,3.7,23.3,5.6c8,0.6,16,1.3,23.9,1.9c8-0.6,16-1.3,23.9-1.9c7.8-1.9,15.7-3.7,23.3-5.6c7.4-3.1,14.8-6.2,22.3-9.1
		c6.8-4.1,13.7-8.4,20.5-12.5c6.1-5.2,12.3-10.5,18.3-15.6c5.2-6.1,10.5-12.2,15.7-18.3c4.1-6.8,8.4-13.7,12.6-20.5
		c3.1-7.4,6.2-14.8,9.2-22.3c1.9-10.6,3.7-21.3,5.6-32c0.6-8,1.3-15.9,1.9-23.9c-2.2,0-4.3,0-6.5,0c0-5.8,0-11.7,0-17.4
		c-5.9,0-11.8,0-17.7,0c0,5.8,0,11.7,0,17.4c-2.2,0-4.3,0-6.5,0c-0.4,6.3-1,12.8-1.5,19.2c-1.5,6.2-3,12.4-4.4,18.7
		c-2.5,5.9-4.9,11.8-7.4,17.7c-3.4,5.5-6.6,10.9-10,16.4c-4.1,4.9-8.3,9.7-12.6,14.6c-4.9,4.1-9.7,8.3-14.6,12.5
		c-5.5,3.4-10.9,6.6-16.4,10c-5.9,2.5-11.8,4.9-17.7,7.4c-6.2,1.5-12.4,3-18.8,4.4c-3.2,0.3-6.6,0.6-9.9,0.7c0,7.4,0,14.8,0,22.1
		c-3.1,0-6.2,0-9.3,0c-3.1,0-6.2,0-9.3,0c0-7.4,0-14.8,0-22.1c-3.2-0.3-6.6-0.6-9.9-0.7c-6.2-1.5-12.4-3-18.8-4.4
		c-5.9-2.5-11.8-4.9-17.7-7.4c-5.5-3.4-10.9-6.6-16.4-10c-4.9-4.1-9.7-8.3-14.6-12.5c-4.1-4.9-8.3-9.7-12.6-14.6
		c-3.4-5.5-6.6-10.9-10-16.4c-2.5-5.9-4.9-11.8-7.4-17.7c-1.5-6.2-3-12.4-4.4-18.7c-0.4-6.3-1-12.8-1.5-19.2
		C-2372.5,917.1-2374.5,917.1-2376.7,917.1"/>
	<path id="SVG_Exporter_1_" class="st0" d="M-2366.4,952.9c-3.5-2.1-7.2-4.1-10.8-6.2c-3,5.2-5.8,10.2-8.7,15.3
		c1.8,1,3.5,2.1,5.3,3.1c1.9,1,3.7,2.2,5.6,3.2c1.9-3.4,3.8-6.8,5.8-10.2C-2368.3,956.3-2367.3,954.7-2366.4,952.9"/>
	<path id="SVG_Exporter_2_" class="st0" d="M-2338,1001.9c-2.8,5.2-5.8,10.2-8.6,15.3c-5-3-10.2-5.9-15.2-8.7
		c1.5-2.8,3.1-5.5,4.6-8.3c1.3-2.4,2.7-4.7,4-7.1c0.6,0.3,1.2,0.7,1.8,1C-2347.1,996.8-2342.6,999.4-2338,1001.9"/>
	<path id="SVG_Exporter_3_" class="st0" d="M-2157,1001.9c2.8,5.2,5.8,10.2,8.6,15.3c5-3,10.2-5.9,15.2-8.7
		c-1.5-2.8-3.1-5.5-4.6-8.3c-1.3-2.4-2.7-4.7-4-7.1c-0.6,0.3-1.2,0.7-1.8,1C-2148.1,996.8-2152.5,999.4-2157,1001.9"/>
	<path id="SVG_Exporter_4_" class="st0" d="M-2128.8,952.9c3.5-2.1,7.2-4.1,10.8-6.2c3,5.2,5.8,10.2,8.7,15.3
		c-1.8,1-3.5,2.1-5.3,3.1c-1.9,1-3.7,2.2-5.6,3.2c-1.9-3.4-3.8-6.8-5.8-10.2C-2126.9,956.3-2127.9,954.7-2128.8,952.9"/>
</g>
</svg>
