<?xml version="1.0" encoding="utf-8"?>
<!-- Generator: Adobe Illustrator 24.0.1, SVG Export Plug-In . SVG Version: 6.00 Build 0)  -->
<svg version="1.1" id="main" xmlns="http://www.w3.org/2000/svg" xmlns:xlink="http://www.w3.org/1999/xlink" x="0px" y="0px"
	 viewBox="0 0 306.6 179.3" style="enable-background:new 0 0 306.6 179.3;" xml:space="preserve">
<style type="text/css">
	.st0{fill:none;stroke:#000000;stroke-width:7.400000e-02;stroke-miterlimit:10;}
</style>
<g id="frame" transform="translate(730.0, 1079.0) scale(1, -1)">
	<path id="SVG_Exporter" class="st0" d="M-697.8,936.3c1.5,6.2,3,12.5,4.5,18.7c2.5,5.9,4.9,11.9,7.4,17.8
		c3.4,5.5,6.7,10.9,10.1,16.4c4.2,4.9,8.3,9.8,12.5,14.6c4.9,4.2,9.8,8.3,14.6,12.5c5.5,3.4,10.9,6.7,16.4,10.1
		c5.9,2.5,11.9,4.9,17.8,7.4c6.2,1.5,12.5,3,18.7,4.5c3.6,0.3,7.2,0.6,10.7,0.8c0,7.3,0,14.7,0,22c2.8,0,5.6,0,8.4,0
		c3.1,0,6.2,0,9.3,0c0-7.4,0-14.7,0-22.1c3.3-0.3,6.6-0.5,9.9-0.8c6.2-1.5,12.5-3,18.7-4.5c5.9-2.5,11.9-4.9,17.8-7.4
		c5.5-3.4,10.9-6.7,16.4-10.1c4.9-4.2,9.8-8.3,14.6-12.5c4.2-4.9,8.3-9.8,12.5-14.6c3.4-5.5,6.7-10.9,10.1-16.4
		c2.5-5.9,4.9-11.9,7.4-17.8c1.5-6.2,3-12.5,4.5-18.7c0.5-6.4,1-12.8,1.5-19.2c2.2,0,4.3,0,6.5,0c0-5.8,0-11.6,0-17.4
		c5.9,0,11.8,0,17.7,0c0,5.8,0,11.6,0,17.4c2.2,0,4.3,0,6.5,0c-0.6,8-1.3,16-1.9,24c-1.9,10.7-3.7,21.3-5.6,32
		c-3.1,7.4-6.1,14.8-9.2,22.2c-4.2,6.8-8.4,13.7-12.6,20.5c-5.2,6.1-10.4,12.2-15.6,18.3c-6.1,5.2-12.2,10.4-18.3,15.6
		c-6.8,4.2-13.7,8.4-20.5,12.6c-7.4,3.1-14.8,6.1-22.2,9.2c-7.8,1.9-15.6,3.7-23.4,5.6c-8,0.6-16,1.3-24,1.9c-8-0.6-16-1.3-24-1.9
		c-7.8-1.9-15.6-3.7-23.4-5.6c-7.4-3.1-14.8-6.1-22.2-9.2c-6.8-4.2-13.7-8.4-20.5-12.6c-6.1-5.2-12.2-10.4-18.3-15.6
		c-5.2-6.1-10.4-12.2-15.6-18.3c-4.2-6.8-8.4-13.7-12.6-20.5c-3.1-7.4-6.1-14.8-9.2-22.2c-1.9-10.7-3.7-21.3-5.6-32
		c-0.6-8-1.3-16-1.9-24c2.4,0,4.9,0,7.3,0c0-5.8,0-11.6,0-17.4c5.9,0,11.8,0,17.7,0c0,5.8,0,11.6,0,17.4c1.9,0,3.8,0,5.6,0
		C-698.8,923.5-698.3,929.9-697.8,936.3"/>
</g>
</svg>
