<?xml version="1.0" encoding="utf-8"?>
<!-- Generator: Adobe Illustrator 24.0.1, SVG Export Plug-In . SVG Version: 6.00 Build 0)  -->
<svg version="1.1" id="main" xmlns="http://www.w3.org/2000/svg" xmlns:xlink="http://www.w3.org/1999/xlink" x="0px" y="0px"
	 viewBox="0 0 236.1 144.9" style="enable-background:new 0 0 236.1 144.9;" xml:space="preserve">
<style type="text/css">
	.st0{fill:none;stroke:#000000;stroke-width:7.400000e-02;stroke-miterlimit:10;}
</style>
<g id="frame" transform="translate(2401.0, 1079.0) scale(1, -1)">
	<path id="SVG_Exporter" class="st0" d="M-2351.6,1047.9c2.8-5.2,5.8-10.2,8.6-15.4c-3.8-2.2-7.8-4.4-11.7-6.8
		c-1.2-0.7-2.4-1.3-3.5-2.1c-2.8,5.2-5.8,10.2-8.6,15.4c0.9,0.4,1.6,1,2.5,1.5C-2360,1043.1-2355.9,1045.4-2351.6,1047.9"/>
	<path id="SVG_Exporter_1_" class="st0" d="M-2268.3,1044.8c-1.8,0.1-3.7,0.3-5.5,0.4c0,5.8,0,11.5,0,17.3c-3.1,0-6.2,0-9.3,0
		c-3.1,0-6.2,0-9.3,0c0-5.8,0-11.5,0-17.3c-1.8-0.1-3.7-0.3-5.5-0.4c-4.7-1.2-9.6-2.4-14.3-3.4c-4.6-1.9-9.2-3.8-13.8-5.6
		c-4.1-2.5-8.4-5.2-12.6-7.7c-3.7-3.3-7.5-6.4-11.2-9.6c-3.3-3.7-6.4-7.5-9.6-11.2c-2.5-4.1-5.2-8.4-7.7-12.6
		c-1.9-4.6-3.8-9.2-5.6-13.7c-1.2-4.7-2.4-9.6-3.4-14.3c-0.4-4.9-0.7-9.9-1.2-14.8c-1,0-1.9,0-3,0c0-5.9,0-11.8,0-17.7
		c-5.9,0-11.8,0-17.7,0c0,5.9,0,11.8,0,17.7c-1,0-1.9,0-3,0c0.4,6.2,1,12.3,1.5,18.5c1.5,9,2.8,18,4.3,27.2
		c2.4,5.8,4.7,11.4,7.1,17.1c3.3,5.3,6.5,10.5,9.6,15.8c4,4.7,8,9.5,12,14c4.7,4,9.5,8,14,12c5.3,3.3,10.5,6.5,15.8,9.6
		c5.8,2.4,11.4,4.7,17.2,7.1c6.1,1.5,12,2.8,18,4.3c6.2,0.4,12.3,1,18.5,1.5c6.2-0.4,12.3-1,18.5-1.5c6.1-1.5,12-2.8,18-4.3
		c5.8-2.4,11.4-4.7,17.2-7.1c5.3-3.3,10.5-6.5,15.8-9.6c4.7-4,9.5-8,14-12c4-4.7,8-9.5,12-14c3.3-5.3,6.5-10.5,9.6-15.8
		c2.4-5.8,4.7-11.4,7.1-17.1c1.5-9,2.8-18,4.3-27.2c0.4-6.2,1-12.3,1.5-18.5c-1,0-1.9,0-3,0c0-5.9,0-11.8,0-17.7
		c-5.9,0-11.8,0-17.7,0c0,5.9,0,11.8,0,17.7c-1,0-1.9,0-3,0c-0.4,4.9-0.7,9.9-1.2,14.8c-1.2,4.7-2.4,9.6-3.4,14.3
		c-1.9,4.6-3.8,9.2-5.6,13.7c-2.5,4.1-5.2,8.4-7.7,12.6c-3.3,3.7-6.4,7.5-9.6,11.2c-3.7,3.3-7.5,6.4-11.2,9.6
		c-4.1,2.5-8.4,5.2-12.6,7.7c-4.6,1.9-9.2,3.8-13.8,5.6C-2258.7,1042.6-2263.6,1043.6-2268.3,1044.8"/>
	<path id="SVG_Exporter_2_" class="st0" d="M-2214.6,1047.9c-2.8-5.2-5.8-10.2-8.6-15.4c3.8-2.2,7.8-4.4,11.7-6.8
		c1.2-0.7,2.4-1.3,3.5-2.1c2.8,5.2,5.8,10.2,8.6,15.4c-0.9,0.4-1.6,1-2.5,1.5C-2206.2,1043.1-2210.4,1045.4-2214.6,1047.9"/>
	<path id="SVG_Exporter_3_" class="st0" d="M-2386.8,1001.2c3-5.2,5.8-10.2,8.7-15.4c-0.3-0.1-0.6-0.3-0.9-0.6
		c-2.1-1.2-4.3-2.5-6.4-3.7c-2.7,4.7-5.3,9.5-8,14.2c-0.1,0.4-0.4,0.7-0.6,1.2C-2391.6,998.3-2389.1,999.8-2386.8,1001.2"/>
	<path id="SVG_Exporter_4_" class="st0" d="M-2179.4,1001.2c-3-5.2-5.8-10.2-8.7-15.4c0.3-0.1,0.6-0.3,0.9-0.6
		c2.1-1.2,4.3-2.5,6.4-3.7c2.7,4.7,5.3,9.5,8,14.2c0.1,0.4,0.4,0.7,0.6,1.2C-2174.6,998.3-2177.1,999.8-2179.4,1001.2"/>
</g>
</svg>
