<?xml version="1.0" encoding="utf-8"?>
<!-- Generator: Adobe Illustrator 24.0.1, SVG Export Plug-In . SVG Version: 6.00 Build 0)  -->
<svg version="1.1" id="main" xmlns="http://www.w3.org/2000/svg" xmlns:xlink="http://www.w3.org/1999/xlink" x="0px" y="0px"
	 viewBox="0 0 235.9 144.8" style="enable-background:new 0 0 235.9 144.8;" xml:space="preserve">
<style type="text/css">
	.st0{fill:none;stroke:#000000;stroke-width:7.400000e-02;stroke-miterlimit:10;}
</style>
<g id="frame" transform="translate(730.0, 1079.0) scale(1, -1)">
	<path id="SVG_Exporter" class="st0" d="M-597.3,1045.1c-1.8,0.1-3.7,0.3-5.5,0.4c0,5.8,0,11.6,0,17.3c-3.1,0-6.2,0-9.3,0
		c-2.8,0-5.6,0-8.4,0c0-5.8,0-11.5,0-17.3c-2.1-0.2-4.2-0.3-6.3-0.5c-4.8-1.2-9.6-2.3-14.4-3.5c-4.6-1.9-9.1-3.8-13.7-5.7
		c-4.2-2.6-8.4-5.2-12.6-7.7c-3.8-3.2-7.5-6.4-11.3-9.6c-3.2-3.8-6.4-7.5-9.6-11.3c-2.6-4.2-5.2-8.4-7.7-12.6
		c-1.9-4.6-3.8-9.1-5.7-13.7c-1.2-4.8-2.3-9.6-3.5-14.4c-0.4-4.9-0.8-9.8-1.2-14.8c-1,0-2,0-2.9,0c0-5.9,0-11.8,0-17.7
		c-5.9,0-11.8,0-17.7,0c0,5.9,0,11.8,0,17.7c-1,0-2,0-2.9,0c0.5,6.1,1,12.3,1.5,18.4c1.4,9,2.9,18.1,4.3,27.1
		c2.4,5.7,4.7,11.4,7.1,17.1c3.2,5.3,6.4,10.5,9.7,15.8c4,4.7,8,9.4,12,14.1c4.7,4,9.4,8,14.1,12c5.3,3.2,10.5,6.4,15.8,9.7
		c5.7,2.4,11.4,4.7,17.1,7.1c6,1.4,12,2.9,18,4.3c6.1,0.5,12.3,1,18.4,1.5c6.1-0.5,12.3-1,18.4-1.5c6-1.4,12-2.9,18-4.3
		c5.7-2.4,11.4-4.7,17.1-7.1c5.3-3.2,10.5-6.4,15.8-9.7c4.7-4,9.4-8,14.1-12c4-4.7,8-9.4,12-14.1c3.2-5.3,6.4-10.5,9.7-15.8
		c2.4-5.7,4.7-11.4,7.1-17.1c1.4-9,2.9-18.1,4.3-27.1c0.5-6.1,1-12.3,1.5-18.4c-1,0-2,0-2.9,0c0-5.9,0-11.8,0-17.7
		c-5.9,0-11.8,0-17.7,0c0,5.9,0,11.8,0,17.7c-1,0-1.9,0-2.9,0c-0.4,4.9-0.8,9.8-1.2,14.8c-1.2,4.8-2.3,9.6-3.5,14.4
		c-1.9,4.6-3.8,9.1-5.7,13.7c-2.6,4.2-5.2,8.4-7.7,12.6c-3.2,3.8-6.4,7.5-9.6,11.3c-3.8,3.2-7.5,6.4-11.3,9.6
		c-4.2,2.6-8.4,5.2-12.6,7.7c-4.6,1.9-9.1,3.8-13.7,5.7C-587.7,1042.8-592.5,1043.9-597.3,1045.1"/>
</g>
</svg>
