<?xml version="1.0" encoding="utf-8"?>
<!-- Generator: Adobe Illustrator 24.0.3, SVG Export Plug-In . SVG Version: 6.00 Build 0)  -->
<svg version="1.1" id="Layer_2" xmlns="http://www.w3.org/2000/svg" xmlns:xlink="http://www.w3.org/1999/xlink" x="0px" y="0px"
	 viewBox="0 0 175.7 504.6" style="enable-background:new 0 0 175.7 504.6;" xml:space="preserve">
<style type="text/css">
	.st0{fill:none;stroke:#000000;stroke-width:7.400000e-02;stroke-miterlimit:10;}
</style>
<path class="st0" d="M20.6,0.8c0,0,18.8,1.1,34.6,26.9C65.6,37.2,62.5,30,71,43.2c2.5,0.6,26.6-4.2,31.5,14
	c1.9,5.8,10.7,3.2,19.9,14.3c30.9,37.4,41.7,61.7,44.7,83.1c2.2,15.7,2,61.9,2,79.3c0,8-5.7-0.6-1.5,44.9
	c0.9,20.7-38.6,46.1-38.2,88.5c-0.4,21.1-13.7,43-50.2,70.5c-6,7.7-1.4,28.4-24.1,39.8c0,0-5.8,8.6-12.4,15.8s-22.3,9.1-22.3,9.1
	l-0.5-19.9l-19.3,0.3V465h19.8v-23.6H0.6v-17.7H21v-38.2c0,0,83.8-28,80.9-137.9S20.3,119.8,20.3,119.8V84.4H0.6V66.7h19.7V30.9H0.6
	V13.2h19.6L20.6,0.8z"/>
</svg>
