<?xml version="1.0" encoding="utf-8"?>
<!-- Generator: Adobe Illustrator 24.0.1, SVG Export Plug-In . SVG Version: 6.00 Build 0)  -->
<svg version="1.1" id="main" xmlns="http://www.w3.org/2000/svg" xmlns:xlink="http://www.w3.org/1999/xlink" x="0px" y="0px"
	 viewBox="0 0 171.6 502" style="enable-background:new 0 0 171.6 502;" xml:space="preserve">
<style type="text/css">
	.st0{fill:none;stroke:#000000;stroke-width:7.400000e-02;stroke-miterlimit:10;}
</style>
<g id="frame" transform="translate(730.0, 1079.0) scale(1, -1)">
	<path id="SVG_Exporter" class="st0" d="M-604.7,713.1c0,5.9,0,11.8,0,17.7c2.3,0,4.7,0,7,0c0.1,0.9,0.3,1.8,0.4,2.8
		c0.5,2,1.1,4,1.6,6c0.9,2,1.8,3.9,2.7,5.9c1.2,1.9,2.4,3.9,3.7,5.8c1.4,1.9,2.8,3.8,4.2,5.8c1.5,1.9,3,3.8,4.4,5.8
		c1.5,1.9,2.9,3.9,4.4,5.8c1.4,2,2.8,4,4.2,6c0.3,0.6,0.7,1.2,1,1.8c0.9,1.5,1.7,3,2.6,4.5c1,2.2,2.1,4.4,3.1,6.6
		c0.8,2.3,1.7,4.6,2.5,6.9c0.6,2.3,1.2,4.7,1.8,7c0.1,0.4,0.1,0.8,0.2,1.2c0.2,1.9,0.5,3.9,0.7,5.8c-0.1,2.3-0.1,4.5-0.2,6.8
		c-0.3,2.2-0.7,4.3-1,6.5c-0.3,2-0.7,4.1-1,6.1c0,1.9,0.1,3.8,0.1,5.7c0.4,1.8,0.8,3.6,1.1,5.4c0.4,1.7,0.7,3.4,1.1,5.1
		c0.3,1.6,0.5,3.2,0.8,4.9c0.2,1.6,0.3,3.1,0.5,4.7c0.1,1.5,0.1,3,0.2,4.5c0,0.7,0,1.4,0,2.1c-0.1,0.8-0.1,1.6-0.2,2.3
		c-0.2,1.4-0.4,2.9-0.6,4.3c-0.2,1.4-0.5,2.8-0.7,4.2c-0.3,1.4-0.6,2.7-0.8,4.1c-0.2,1.3-0.5,2.7-0.7,4c-0.2,1.3-0.5,2.6-0.7,3.9
		c-0.2,1.3-0.4,2.6-0.7,3.8c-0.2,1.2-0.5,2.4-0.7,3.7c-0.2,1.2-0.4,2.3-0.5,3.5c-0.1,1.1-0.2,2.2-0.3,3.3c0,1,0,2.1,0,3.1
		c0.1,1,0.2,2,0.2,3c0.1,1,0.3,2,0.4,3c0.2,1,0.3,2,0.5,3c0.2,1,0.3,2.1,0.5,3.1c0,0.1,0,0.2,0,0.4c-4.5,0-9.1,0-13.6,0
		c0,5.9,0,11.8,0,17.7c4.1,0,8.2,0,12.3,0c0,0.1-0.1,0.3-0.1,0.4c-0.4,1.4-0.8,2.9-1.2,4.3c0,0.1-0.1,0.3-0.1,0.4
		c-0.5,1.4-0.9,2.7-1.4,4.1c-0.5,1.5-1,3.1-1.5,4.6c-0.5,1.6-1,3.2-1.5,4.8c-0.6,1.6-1.1,3.3-1.7,4.9c-0.8,1.7-1.6,3.3-2.3,5
		c-1,1.7-2,3.4-3,5c-1.3,1.7-2.5,3.4-3.8,5.2c-1.4,1.8-2.8,3.6-4.3,5.5c-1.6,1.9-3.2,3.9-4.8,5.8c-1.8,2.1-3.6,4.2-5.3,6.3
		c-2,2.3-4,4.6-6,6.8c-1.7,2.5-3.5,5.1-5.2,7.6c-1.6,2.8-3.1,5.5-4.7,8.3c-3.1,2.1-6.1,4.2-9.2,6.3c-2.9,1.6-5.7,3.3-8.6,4.9
		c-1.5,1.8-3.1,3.5-4.6,5.3c-0.2,1.7-0.4,3.3-0.6,5c-1.1,0.9-2.3,1.8-3.4,2.7c-0.5,0.3-1,0.7-1.5,1c-2.2,0.3-4.3,0.7-6.5,1
		c-1.5,0-3.1,0-4.6,0c-0.3-0.1-0.7-0.1-1-0.2c-1.3-0.3-2.6-0.5-3.9-0.8c-0.3,0-0.7,0-1,0c-0.8,0-1.6,0.1-2.3,0.1c-1,0.3-2,0.6-2.9,1
		c-0.4,0.3-0.8,0.7-1.1,1c-0.3,0.3-0.5,0.6-0.8,0.8c-0.4,0.7-0.8,1.4-1.3,2.1c-0.5,0.8-1,1.6-1.6,2.4c-0.8,0.9-1.6,1.8-2.3,2.7
		c-1.3,0.9-2.6,1.9-3.9,2.8c-1.7,1.4-3.5,2.8-5.2,4.1c0,0-0.1,0.1-0.1,0.1c-2.4,2.7-4.8,5.3-7.2,8c-2.4,2.8-4.8,5.5-7.2,8.3
		c-1.6,1.3-3.2,2.7-4.8,4c-0.4,0.3-0.8,0.7-1.2,1c-2.5,1.2-5,2.3-7.5,3.5c-2.4,0.7-4.7,1.4-7.1,2.1c0-4.2,0-8.3,0-12.5
		c-5.9,0-11.8,0-17.7,0c0-5.9,0-11.8,0-17.7c5.9,0,11.8,0,17.7,0c0-11.9,0-23.9,0-35.8c-5.9,0-11.8,0-17.7,0c0-5.9,0-11.8,0-17.7
		c5.9,0,11.8,0,17.7,0c0-11.8,0-23.6,0-35.4c4.2-1.2,8.5-2.5,12.7-3.7c1.3-0.7,2.6-1.3,3.9-2c3.6-2,7.3-4.1,10.9-6.1
		c4.4-3.7,8.9-7.4,13.3-11.1c4-4.6,7.9-9.2,11.9-13.8c3.4-5.4,6.8-10.8,10.1-16.1c2.7-6,5.4-12.1,8.2-18.1c2-6.5,4-13.1,6-19.6
		c1.2-6.9,2.4-13.8,3.6-20.6c0.4-7.1,0.8-14.1,1.2-21.2c-0.4-7.1-0.8-14.1-1.2-21.2c-1.2-6.9-2.4-13.8-3.6-20.6
		c-2-6.5-4-13.1-6-19.6c-2.7-6-5.4-12.1-8.1-18.1c-3.4-5.4-6.8-10.8-10.1-16.1c-4-4.6-7.9-9.2-11.9-13.8c-4.4-3.7-8.9-7.4-13.3-11.1
		c-3.6-2-7.3-4.1-10.9-6.1c-1.3-0.7-2.6-1.3-3.9-2c-4.2-1.2-8.5-2.5-12.7-3.7c0-12.7,0-25.5,0-38.2c-5.9,0-11.8,0-17.7,0
		c0-5.9,0-11.8,0-17.7c5.9,0,11.8,0,17.7,0c0-8.2,0-16.4,0-24.7c-5.9,0-11.8,0-17.7,0c0-5.9,0-11.8,0-17.7c5.9,0,11.8,0,17.7,0
		c0-6.6,0-13.1,0-19.7c2.1,0.5,4.3,1,6.4,1.5c2.6,0.8,5.3,1.7,7.9,2.5c0.4,0.3,0.8,0.5,1.2,0.8c1.7,1.2,3.3,2.3,5,3.5
		c1.5,1.9,3,3.7,4.5,5.6c0.2,0.3,0.4,0.5,0.7,0.8c1.4,1.8,2.8,3.6,4.2,5.5c0.2,0.2,0.3,0.4,0.5,0.6c1.6,1.4,3.2,2.9,4.8,4.3
		c0.5,0.3,1,0.6,1.5,0.9c0.9,0.6,1.9,1.2,2.8,1.7c1,0.9,2,1.8,3.1,2.7c0.2,0.3,0.5,0.6,0.7,0.8c0.6,0.7,1.1,1.3,1.7,2
		c0.2,0.3,0.5,0.6,0.7,0.8c0.9,1.1,1.7,2.2,2.6,3.3c0.8,1,1.5,2,2.3,3c0.2,0.2,0.3,0.4,0.5,0.6c0.9,1.1,1.8,2.3,2.7,3.4
		c0.8,1.1,1.6,2.2,2.4,3.3c0.5,1.2,1.1,2.4,1.6,3.7c0,0.1,0.1,0.3,0.1,0.4c0.3,1.2,0.6,2.5,1,3.7c0.3,1.5,0.6,3.1,1,4.6
		c0.3,0.8,0.5,1.7,0.8,2.5c0.2,0.8,0.5,1.5,0.7,2.3c0.9,1.5,1.8,3,2.8,4.5c0.4,0.4,0.9,0.9,1.3,1.3c0.9,0.9,1.7,1.9,2.6,2.8
		c1.5,1.3,2.9,2.7,4.4,4c0.6,0.5,1.2,0.9,1.8,1.4c1.1,0.9,2.2,1.8,3.3,2.7c1.9,1.4,3.8,2.8,5.7,4.1c2,1.4,3.9,2.7,5.9,4.1
		c0.3,0.3,0.6,0.5,1,0.8c1.3,1.2,2.6,2.5,3.9,3.7c1,1.8,2,3.5,3,5.3c0.9,1.8,1.8,3.6,2.7,5.4c0.9,1.8,1.8,3.6,2.7,5.5
		c0.8,1.8,1.6,3.7,2.5,5.5c0.8,1.9,1.6,3.7,2.4,5.6c0.8,1.9,1.5,3.7,2.3,5.6c0.7,1.9,1.3,3.8,2,5.7c0.2,1,0.5,2,0.7,3
		C-601.7,713.1-603.2,713.1-604.7,713.1"/>
</g>
</svg>
