<?xml version="1.0" encoding="utf-8"?>
<!-- Generator: Adobe Illustrator 24.0.1, SVG Export Plug-In . SVG Version: 6.00 Build 0)  -->
<svg version="1.1" id="main" xmlns="http://www.w3.org/2000/svg" xmlns:xlink="http://www.w3.org/1999/xlink" x="0px" y="0px"
	 viewBox="0 0 157.3 626.1" style="enable-background:new 0 0 157.3 626.1;" xml:space="preserve">
<style type="text/css">
	.st0{fill:none;stroke:#000000;stroke-width:7.400000e-02;stroke-miterlimit:10;}
</style>
<g id="frame" transform="translate(2401.0, 1079.0) scale(1, -1)">
	<path id="SVG_Exporter" class="st0" d="M-2318.8,858.2c-10.6-59.9-21.4-119.8-32-179.7c1.5-0.3,3.1-0.5,4.6-0.8
		c0-8.5,0-16.8,0-25.2c5.2,0,10.6,0,15.9,0c0,7.5,0,15.1,0,22.6c1.5-0.3,3.1-0.5,4.5-0.8c10.6,59.9,21.4,119.8,32,179.7
		c-1.5,0.3-3.1,0.5-4.5,0.8c0,8.2,0,16.3,0,24.5c-5.2,0-10.6,0-15.9,0c0-7.2,0-14.6,0-21.9C-2315.7,857.8-2317.3,857.9-2318.8,858.2
		"/>
</g>
</svg>
