<?xml version="1.0" encoding="utf-8"?>
<!-- Generator: Adobe Illustrator 24.0.1, SVG Export Plug-In . SVG Version: 6.00 Build 0)  -->
<svg version="1.1" id="main" xmlns="http://www.w3.org/2000/svg" xmlns:xlink="http://www.w3.org/1999/xlink" x="0px" y="0px"
	 viewBox="0 0 52.6 226.8" style="enable-background:new 0 0 52.6 226.8;" xml:space="preserve">
<style type="text/css">
	.st0{fill:none;stroke:#000000;stroke-width:7.400000e-02;stroke-miterlimit:10;}
</style>
<g id="frame" transform="translate(2401.0, 1079.0) scale(1, -1)">
	<path id="SVG_Exporter" class="st0" d="M-2374.3,1059.1c-8.9-61.1-17.7-122.2-26.6-183.4c2.9-0.5,6-0.9,8.9-1.4
		c0-7.4,0-14.8,0-22.2c2.6,0,5.1,0,7.7,0c0,6.9,0,14,0,20.9c2.9-0.5,6-0.9,8.9-1.4c8.9,61.1,18,122.2,26.9,183.4
		c-2.5,0.3-4.8,0.8-7.2,1.1c0,7.5,0,15.2,0,22.8c-3.7,0-7.5,0-11.2,0c0-7.1,0-14,0-21.1C-2369.4,1058.3-2371.9,1058.6-2374.3,1059.1
		"/>
</g>
</svg>
