<?xml version="1.0" standalone="no"?>
<!DOCTYPE svg PUBLIC "-//W3C//DTD SVG 1.1//EN" "http://www.w3.org/Graphics/SVG/1.1/DTD/svg11.dtd">
<svg width="132mm" height="82mm" viewBox="136 6 132 82" xmlns="http://www.w3.org/2000/svg" version="1.1">
<title>OpenSCAD Model</title>
<path d="
M 136.624,6 L 136.682,6.36751 L 136.858,7.42233 L 137.149,9.09302 L 137.554,11.308 L 138.072,13.9959
 L 138.701,17.0852 L 139.441,20.5043 L 140.289,24.1819 L 141.245,28.0463 L 142.308,32.0262 L 143.475,36.05
 L 144.747,40.0462 L 146.12,43.9433 L 147.595,47.6699 L 149.17,51.1545 L 150.843,54.3255 L 152.614,57.1115
 L 154.48,59.441 L 156.441,61.2425 L 158.496,62.4445 L 160.268,63.3064 L 161.988,64.3618 L 163.674,65.5848
 L 165.342,66.9498 L 167.01,68.4312 L 168.697,70.0032 L 170.419,71.6401 L 172.193,73.3162 L 174.038,75.0059
 L 175.972,76.6834 L 178.01,78.3232 L 180.172,79.8993 L 182.475,81.3863 L 184.935,82.7583 L 187.572,83.9898
 L 190.402,85.055 L 193.442,85.9281 L 196.711,86.5837 L 200.226,86.9958 L 204.004,87.1389 L 207.479,86.9839
 L 210.814,86.5382 L 214.013,85.8306 L 217.08,84.8902 L 220.017,83.7456 L 222.829,82.4259 L 225.518,80.96
 L 228.089,79.3767 L 230.544,77.7049 L 232.888,75.9735 L 235.123,74.2114 L 237.253,72.4475 L 239.281,70.7108
 L 241.211,69.03 L 243.047,67.4341 L 244.791,65.9519 L 246.447,64.6124 L 248.019,63.4445 L 249.51,62.477
 L 250.924,61.7389 L 252.336,60.7643 L 253.712,59.1594 L 255.049,56.9978 L 256.342,54.3531 L 257.588,51.2989
 L 258.782,47.9086 L 259.92,44.2558 L 260.999,40.4142 L 262.014,36.4572 L 262.962,32.4583 L 263.839,28.4913
 L 264.64,24.6295 L 265.361,20.9466 L 266,17.5161 L 266.551,14.4116 L 267.01,11.7065 L 267.375,9.47461
 L 267.64,7.78929 L 267.802,6.72417 L 267.857,6.35278 z
M 200.65,16.2729 L 200.65,7.0625 L 207,7.0625 L 207,16.2729 z
" stroke="black" fill="lightgray" stroke-width="0.5"/>
</svg>
