<?xml version="1.0" standalone="no"?>
<!DOCTYPE svg PUBLIC "-//W3C//DTD SVG 1.1//EN" "http://www.w3.org/Graphics/SVG/1.1/DTD/svg11.dtd">
<svg width="267mm" height="118mm" viewBox="62 9 267 118" xmlns="http://www.w3.org/2000/svg" version="1.1">
<title>OpenSCAD Model</title>
<path d="
M 62.1638,17.0039 L 62.1807,19.8325 L 62.2757,23.0346 L 62.4721,26.567 L 62.7931,30.3862 L 63.2619,34.4488
 L 63.9015,38.7114 L 64.7353,43.1306 L 65.7863,47.6631 L 67.0778,52.2654 L 68.6329,56.8942 L 70.4748,61.5061
 L 72.6267,66.0576 L 75.1118,70.5055 L 77.9532,74.8062 L 81.1742,78.9164 L 83.7476,81.6356 L 86.6878,84.2285
 L 89.9525,86.6986 L 93.4994,89.0493 L 97.2862,91.284 L 101.271,93.4061 L 105.41,95.4191 L 109.663,97.3263
 L 113.987,99.1312 L 118.339,100.837 L 122.678,102.448 L 126.96,103.966 L 131.144,105.396 L 135.188,106.74
 L 139.048,108.002 L 142.684,109.186 L 146.052,110.295 L 149.11,111.333 L 151.817,112.302 L 154.129,113.206
 L 155.96,113.989 L 157.849,114.818 L 159.802,115.682 L 161.822,116.574 L 163.917,117.484 L 166.09,118.403
 L 168.347,119.321 L 170.694,120.229 L 173.137,121.117 L 175.679,121.977 L 178.327,122.8 L 181.086,123.575
 L 183.961,124.293 L 186.957,124.946 L 190.081,125.524 L 193.336,126.018 L 196.729,126.418 L 200.265,126.716
 L 203.949,126.901 L 207.786,126.965 L 211.348,126.911 L 214.934,126.754 L 218.527,126.499 L 222.111,126.153
 L 225.671,125.722 L 229.191,125.212 L 232.654,124.629 L 236.046,123.979 L 239.349,123.268 L 242.548,122.502
 L 245.627,121.688 L 248.571,120.831 L 251.363,119.937 L 253.987,119.013 L 256.428,118.065 L 258.67,117.098
 L 260.696,116.12 L 262.491,115.135 L 264.039,114.15 L 265.324,113.171 L 266.536,112.263 L 267.855,111.481
 L 269.284,110.804 L 270.825,110.21 L 272.481,109.677 L 274.254,109.182 L 276.147,108.705 L 278.162,108.222
 L 280.303,107.711 L 282.571,107.152 L 284.968,106.521 L 287.498,105.798 L 290.163,104.959 L 292.966,103.983
 L 295.908,102.847 L 298.993,101.531 L 302.223,100.012 L 305.601,98.2673 L 309.128,96.2758 L 312.808,94.0153
 L 315.841,91.534 L 318.478,88.302 L 320.747,84.4142 L 322.673,79.9657 L 324.281,75.0513 L 325.598,69.7659
 L 326.65,64.2045 L 327.462,58.4621 L 328.061,52.6335 L 328.471,46.8136 L 328.72,41.0975 L 328.833,35.58
 L 328.835,30.3562 L 328.754,25.5208 L 328.614,21.1689 L 328.441,17.3953 L 328.262,14.2951 L 328.101,11.9631
 L 327.986,10.4943 L 327.942,9.98361 L 296.244,9.98361 L 296.237,10.0103 L 295.425,12.5503 L 294.226,15.9017
 L 292.638,19.9586 L 290.592,24.58 L 288.087,29.66 L 285.054,35.0575 L 281.491,40.702 L 277.363,46.4169
 L 272.636,52.132 L 267.274,57.7058 L 261.276,62.9975 L 254.574,67.9011 L 247.165,72.3108 L 238.981,76.0856
 L 230.02,79.1194 L 220.248,81.3067 L 209.63,82.5061 L 207.019,82.5414 L 207.019,82.4577 L 200.669,82.4577
 L 200.669,82.5767 L 198.129,82.612 L 195.843,82.4577 L 190.58,82.4577 L 187.561,81.8988 L 186.629,81.8358
 L 176.045,80.5306 L 166.309,78.7314 L 157.419,76.4383 L 149.305,73.722 L 141.967,70.6175 L 135.335,67.1603
 L 129.373,63.3856 L 124.046,59.3286 L 119.319,55.0247 L 115.156,50.5092 L 111.522,45.8525 L 108.382,41.0195
 L 105.701,36.1511 L 103.408,31.2122 L 101.503,26.2733 L 99.9511,21.3345 L 98.6811,16.4661 L 97.6581,11.7036
 L 97.3692,9.98361 L 62.4417,9.98361 L 62.4151,10.2934 L 62.3509,11.1936 L 62.2721,12.6411 L 62.2021,14.5923
 z
" stroke="black" fill="lightgray" stroke-width="0.5"/>
</svg>
