<?xml version="1.0" standalone="no"?>
<!DOCTYPE svg PUBLIC "-//W3C//DTD SVG 1.1//EN" "http://www.w3.org/Graphics/SVG/1.1/DTD/svg11.dtd">
<svg width="101mm" height="52mm" viewBox="72 -127 101 52" xmlns="http://www.w3.org/2000/svg" version="1.1">
<title>OpenSCAD Model</title>
<path d="
M 126.561,-75.2044 L 129.119,-75.4863 L 131.572,-75.9337 L 133.923,-76.5285 L 136.176,-77.2523 L 138.331,-78.0867
 L 140.393,-79.0137 L 142.363,-80.0148 L 144.245,-81.0718 L 146.041,-82.1664 L 147.754,-83.2802 L 149.387,-84.3952
 L 150.942,-85.4928 L 152.422,-86.555 L 153.83,-87.5633 L 155.168,-88.4995 L 156.439,-89.3454 L 157.646,-90.0825
 L 158.792,-90.6928 L 159.879,-91.1578 L 160.962,-91.7747 L 162.017,-92.7901 L 163.042,-94.1576 L 164.033,-95.8305
 L 164.988,-97.7624 L 165.903,-99.9068 L 166.776,-102.217 L 167.603,-104.647 L 168.382,-107.15 L 169.108,-109.679
 L 169.78,-112.188 L 170.394,-114.63 L 170.948,-116.959 L 171.437,-119.129 L 171.86,-121.092 L 172.212,-122.803
 L 172.491,-124.214 L 172.695,-125.28 L 172.819,-125.954 L 172.861,-126.189 L 72.2136,-126.4 L 72.2587,-126.168
 L 72.3932,-125.501 L 72.6163,-124.444 L 72.9268,-123.043 L 73.3237,-121.343 L 73.8062,-119.39 L 74.3731,-117.228
 L 75.0234,-114.903 L 75.7562,-112.459 L 76.5704,-109.943 L 77.4651,-107.4 L 78.4391,-104.874 L 79.4917,-102.411
 L 80.6216,-100.056 L 81.8279,-97.855 L 83.1096,-95.8525 L 84.4658,-94.094 L 85.8953,-92.6246 L 87.3972,-91.4897
 L 88.9706,-90.7344 L 90.3322,-90.1865 L 91.6534,-89.5168 L 92.9476,-88.7413 L 94.2283,-87.8764 L 95.5091,-86.9382
 L 96.8033,-85.943 L 98.1245,-84.9071 L 99.4861,-83.8465 L 100.902,-82.7776 L 102.385,-81.7166 L 103.949,-80.6796
 L 105.608,-79.6829 L 107.374,-78.7427 L 109.262,-77.8753 L 111.285,-77.0968 L 113.456,-76.4235 L 115.789,-75.8716
 L 118.298,-75.4573 L 120.996,-75.1968 L 123.896,-75.1064 z
" stroke="black" fill="lightgray" stroke-width="0.5"/>
</svg>
