<?xml version="1.0" standalone="no"?>
<!DOCTYPE svg PUBLIC "-//W3C//DTD SVG 1.1//EN" "http://www.w3.org/Graphics/SVG/1.1/DTD/svg11.dtd">
<svg width="204mm" height="112mm" viewBox="98 7 204 112" xmlns="http://www.w3.org/2000/svg" version="1.1">
<title>OpenSCAD Model</title>
<path d="
M 98,7.30112 L 98.0606,7.76631 L 98.2411,9.10078 L 98.5401,11.2128 L 98.9556,14.0107 L 99.4861,17.4027
 L 100.13,21.2971 L 100.885,25.6024 L 101.75,30.2266 L 102.723,35.0782 L 103.803,40.0654 L 104.988,45.0965
 L 106.275,50.0798 L 107.664,54.9236 L 109.153,59.5363 L 110.74,63.826 L 112.423,67.7012 L 114.2,71.07
 L 116.071,73.8409 L 118.033,75.922 L 120.084,77.2217 L 122.116,78.2054 L 124.58,79.6092 L 127.439,81.3822
 L 130.658,83.4735 L 134.199,85.8322 L 138.027,88.4075 L 142.105,91.1485 L 146.398,94.0043 L 150.868,96.924
 L 155.481,99.8568 L 160.199,102.752 L 164.986,105.558 L 169.806,108.225 L 174.624,110.701 L 179.402,112.935
 L 184.104,114.878 L 188.695,116.477 L 193.138,117.683 L 197.396,118.444 L 201.434,118.708 L 205.147,118.492
 L 209.165,117.873 L 213.441,116.89 L 217.929,115.586 L 222.585,114.003 L 227.361,112.182 L 232.212,110.164
 L 237.093,107.991 L 241.956,105.704 L 246.758,103.345 L 251.45,100.955 L 255.989,98.5763 L 260.327,96.2497
 L 264.419,94.0169 L 268.219,91.9193 L 271.681,89.9984 L 274.759,88.2958 L 277.408,86.8529 L 279.581,85.7112
 L 281.233,84.9122 L 282.668,83.7765 L 284.111,81.7104 L 285.553,78.821 L 286.985,75.2151 L 288.399,70.9996
 L 289.784,66.2813 L 291.134,61.1673 L 292.438,55.7643 L 293.689,50.1793 L 294.876,44.5192 L 295.993,38.8908
 L 297.029,33.401 L 297.976,28.1568 L 298.826,23.265 L 299.568,18.8325 L 300.196,14.9663 L 300.699,11.7731
 L 301.07,9.35992 L 301.298,7.83363 L 301.376,7.30112 L 233.961,7.30112 L 233.982,7.56294 L 234.03,8.31306
 L 234.076,9.49841 L 234.095,11.066 L 234.06,12.9626 L 233.943,15.1354 L 233.719,17.5312 L 233.361,20.0971
 L 232.842,22.7798 L 232.135,25.5265 L 231.214,28.284 L 230.051,30.9993 L 228.622,33.6194 L 226.897,36.0911
 L 224.852,38.3615 L 222.459,40.3776 L 219.692,42.0861 L 216.524,43.4342 L 212.928,44.3687 L 208.878,44.8367
 L 207,44.8151 L 207,61.3593 L 200.65,61.3593 L 200.65,44.2479 L 200.188,44.18 L 196.504,43.084
 L 193.229,41.5561 L 190.339,39.6564 L 187.81,37.4446 L 185.617,34.9809 L 183.737,32.3252 L 182.146,29.5374
 L 180.819,26.6774 L 179.733,23.8053 L 178.863,20.981 L 178.185,18.2644 L 177.676,15.7155 L 177.312,13.3943
 L 177.067,11.3606 L 176.919,9.67451 L 176.843,8.39594 L 176.815,7.58481 L 176.811,7.30112 z
" stroke="black" fill="lightgray" stroke-width="0.5"/>
</svg>
