<?xml version="1.0" standalone="no"?>
<!DOCTYPE svg PUBLIC "-//W3C//DTD SVG 1.1//EN" "http://www.w3.org/Graphics/SVG/1.1/DTD/svg11.dtd">
<svg width="169mm" height="92mm" viewBox="117 6 169 92" xmlns="http://www.w3.org/2000/svg" version="1.1">
<title>OpenSCAD Model</title>
<path d="
M 117.404,6 L 117.5,6.3895 L 117.78,7.50728 L 118.236,9.27733 L 118.859,11.6236 L 119.641,14.47
 L 120.572,17.7405 L 121.644,21.3591 L 122.848,25.2498 L 124.174,29.3365 L 125.615,33.5431 L 127.161,37.7937
 L 128.804,42.0121 L 130.534,46.1224 L 132.343,50.0485 L 134.222,53.7143 L 136.162,57.0439 L 138.154,59.9611
 L 140.19,62.3899 L 142.26,64.2543 L 144.356,65.4783 L 146.244,66.3955 L 148.294,67.5988 L 150.501,69.0524
 L 152.857,70.72 L 155.357,72.5659 L 157.994,74.5538 L 160.762,76.6477 L 163.654,78.8116 L 166.665,81.0096
 L 169.787,83.2054 L 173.015,85.3632 L 176.343,87.4468 L 179.763,89.4202 L 183.27,91.2475 L 186.857,92.8925
 L 190.518,94.3192 L 194.246,95.4916 L 198.036,96.3736 L 201.881,96.9293 L 205.775,97.1225 L 209.34,96.9302
 L 212.935,96.3776 L 216.545,95.5014 L 220.153,94.3381 L 223.745,92.9245 L 227.305,91.297 L 230.818,89.4924
 L 234.268,87.5473 L 237.641,85.4982 L 240.92,83.3818 L 244.092,81.2347 L 247.139,79.0936 L 250.047,76.995
 L 252.801,74.9755 L 255.384,73.0719 L 257.783,71.3206 L 259.981,69.7584 L 261.963,68.4218 L 263.714,67.3474
 L 265.218,66.5719 L 266.656,65.5597 L 268.108,63.8472 L 269.562,61.5158 L 271.011,58.6469 L 272.444,55.3217
 L 273.853,51.6215 L 275.228,47.6278 L 276.56,43.4218 L 277.839,39.0849 L 279.056,34.6985 L 280.201,30.3438
 L 281.266,26.1021 L 282.24,22.0549 L 283.115,18.2834 L 283.881,14.8691 L 284.529,11.8931 L 285.049,9.43686
 L 285.432,7.58173 L 285.669,6.409 L 285.75,6 L 207,6 L 207,26.4221 L 200.65,26.4221
 L 200.65,6 z
" stroke="black" fill="lightgray" stroke-width="0.5"/>
</svg>
