<?xml version="1.0" standalone="no"?>
<!DOCTYPE svg PUBLIC "-//W3C//DTD SVG 1.1//EN" "http://www.w3.org/Graphics/SVG/1.1/DTD/svg11.dtd">
<svg width="246mm" height="113mm" viewBox="69 7 246 113" xmlns="http://www.w3.org/2000/svg" version="1.1">
<title>OpenSCAD Model</title>
<path d="
M 69.0481,29.8819 L 69.1577,33.7636 L 69.4721,37.8099 L 70.025,41.9851 L 70.8503,46.2536 L 71.9817,50.5795
 L 73.4531,54.9273 L 75.2983,59.2612 L 77.5512,63.5455 L 80.2455,67.7446 L 83.415,71.8228 L 85.7741,74.4517
 L 88.1009,76.7862 L 90.3974,78.8486 L 92.6657,80.6609 L 94.9078,82.2452 L 97.1259,83.6236 L 99.322,84.8184
 L 101.498,85.8515 L 103.656,86.7451 L 105.799,87.5214 L 107.927,88.2024 L 110.044,88.8103 L 112.152,89.3672
 L 114.251,89.8952 L 116.346,90.4164 L 118.437,90.9529 L 120.526,91.527 L 122.616,92.1606 L 124.709,92.8759
 L 126.807,93.695 L 128.776,94.5641 L 131.06,95.64 L 133.635,96.8954 L 136.478,98.3031 L 139.566,99.8361
 L 142.875,101.467 L 146.383,103.169 L 150.066,104.914 L 153.901,106.677 L 157.864,108.428 L 161.934,110.141
 L 166.085,111.79 L 170.296,113.346 L 174.543,114.783 L 178.802,116.074 L 183.051,117.191 L 187.267,118.106
 L 191.425,118.794 L 195.504,119.227 L 199.479,119.377 L 203.054,119.273 L 206.678,118.973 L 210.332,118.495
 L 214,117.859 L 217.663,117.081 L 221.306,116.181 L 224.909,115.176 L 228.456,114.086 L 231.93,112.929
 L 235.312,111.722 L 238.586,110.485 L 241.734,109.235 L 244.739,107.991 L 247.583,106.772 L 250.249,105.596
 L 252.72,104.48 L 254.977,103.445 L 257.004,102.507 L 258.784,101.685 L 260.298,100.998 L 261.786,100.382
 L 263.389,99.7954 L 265.103,99.2229 L 266.92,98.6494 L 268.837,98.0601 L 270.848,97.4399 L 272.946,96.774
 L 275.128,96.0473 L 277.387,95.245 L 279.718,94.3521 L 282.116,93.3535 L 284.575,92.2345 L 287.09,90.98
 L 289.656,89.5751 L 292.266,88.0048 L 294.916,86.2542 L 297.601,84.3084 L 300.314,82.1523 L 303.051,79.7711
 L 305.806,77.1497 L 307.774,74.7427 L 309.447,71.7923 L 310.847,68.3707 L 311.994,64.5499 L 312.91,60.4022
 L 313.614,55.9995 L 314.129,51.414 L 314.475,46.7177 L 314.674,41.9828 L 314.745,37.2814 L 314.71,32.6856
 L 314.589,28.2674 L 314.405,24.099 L 314.177,20.2525 L 313.927,16.7999 L 313.676,13.8134 L 313.443,11.3651
 L 313.252,9.52699 L 313.121,8.37128 L 313.073,7.97 L 251.902,7.97 L 251.886,8.24567 L 251.818,9.03433
 L 251.667,10.2786 L 251.403,11.9211 L 250.995,13.9044 L 250.413,16.171 L 249.626,18.6636 L 248.604,21.3248
 L 247.316,24.097 L 245.732,26.923 L 243.822,29.7453 L 241.554,32.5064 L 238.898,35.149 L 235.824,37.6157
 L 232.301,39.849 L 228.299,41.7915 L 223.787,43.3858 L 218.735,44.5746 L 213.112,45.3003 L 207,45.5019
 L 207,68.7529 L 200.65,68.7529 L 200.65,45.1972 L 199.934,45.1618 L 193.656,44.326 L 188.02,43.0532
 L 182.99,41.3987 L 178.533,39.4174 L 174.613,37.1645 L 171.196,34.6952 L 168.248,32.0645 L 165.734,29.3275
 L 163.619,26.5394 L 161.87,23.7552 L 160.451,21.0301 L 159.328,18.4193 L 158.467,15.9777 L 157.833,13.7605
 L 157.392,11.8229 L 157.109,10.2199 L 156.95,9.00671 L 156.879,8.23837 L 156.863,7.97 L 71.7733,7.97
 L 71.6954,8.24266 L 71.484,9.03685 L 71.173,10.3168 L 70.7963,12.047 L 70.3876,14.1916 L 69.9807,16.7149
 L 69.6095,19.5813 L 69.3078,22.7551 L 69.1094,26.2005 z
" stroke="black" fill="lightgray" stroke-width="0.5"/>
</svg>
