<?xml version="1.0" standalone="no"?>
<!DOCTYPE svg PUBLIC "-//W3C//DTD SVG 1.1//EN" "http://www.w3.org/Graphics/SVG/1.1/DTD/svg11.dtd">
<svg width="132mm" height="82mm" viewBox="50 -127 132 82" xmlns="http://www.w3.org/2000/svg" version="1.1">
<title>OpenSCAD Model</title>
<path d="
M 121.479,-46.0161 L 124.814,-46.4618 L 128.013,-47.1694 L 131.08,-48.1098 L 134.017,-49.2544 L 136.829,-50.5741
 L 139.518,-52.04 L 142.089,-53.6233 L 144.544,-55.2951 L 146.888,-57.0265 L 149.123,-58.7886 L 151.253,-60.5525
 L 153.281,-62.2892 L 155.211,-63.97 L 157.047,-65.5659 L 158.791,-67.0481 L 160.447,-68.3876 L 162.019,-69.5555
 L 163.51,-70.523 L 164.924,-71.2611 L 166.336,-72.2357 L 167.712,-73.8406 L 169.049,-76.0022 L 170.342,-78.6469
 L 171.588,-81.7011 L 172.782,-85.0914 L 173.92,-88.7442 L 174.999,-92.5858 L 176.014,-96.5428 L 176.962,-100.542
 L 177.839,-104.509 L 178.64,-108.37 L 179.361,-112.053 L 180,-115.484 L 180.551,-118.588 L 181.01,-121.293
 L 181.375,-123.525 L 181.64,-125.211 L 181.802,-126.276 L 181.857,-126.647 L 50.6236,-127 L 50.6824,-126.632
 L 50.8579,-125.578 L 51.1488,-123.907 L 51.5538,-121.692 L 52.0716,-119.004 L 52.701,-115.915 L 53.4406,-112.496
 L 54.2891,-108.818 L 55.2453,-104.954 L 56.3077,-100.974 L 57.4753,-96.95 L 58.7465,-92.9538 L 60.1202,-89.0567
 L 61.5951,-85.3301 L 63.1698,-81.8455 L 64.8431,-78.6745 L 66.6136,-75.8885 L 68.4801,-73.559 L 70.4413,-71.7575
 L 72.4958,-70.5555 L 74.2683,-69.6936 L 75.9884,-68.6382 L 77.6738,-67.4152 L 79.342,-66.0502 L 81.0105,-64.5688
 L 82.6968,-62.9968 L 84.4185,-61.3599 L 86.1932,-59.6838 L 88.0384,-57.9941 L 89.9716,-56.3166 L 92.0103,-54.6768
 L 94.1722,-53.1007 L 96.4747,-51.6137 L 98.9354,-50.2417 L 101.572,-49.0102 L 104.402,-47.945 L 107.442,-47.0719
 L 110.711,-46.4163 L 114.226,-46.0042 L 118.004,-45.8611 z
" stroke="black" fill="lightgray" stroke-width="0.5"/>
</svg>
