<?xml version="1.0" standalone="no"?>
<!DOCTYPE svg PUBLIC "-//W3C//DTD SVG 1.1//EN" "http://www.w3.org/Graphics/SVG/1.1/DTD/svg11.dtd">
<svg width="204mm" height="112mm" viewBox="98 7 204 112" xmlns="http://www.w3.org/2000/svg" version="1.1">
<title>OpenSCAD Model</title>
<path d="
M 98.2103,7.35278 L 98.2708,7.81798 L 98.4514,9.15245 L 98.7503,11.2645 L 99.1659,14.0623 L 99.6964,17.4544
 L 100.34,21.3488 L 101.095,25.654 L 101.96,30.2783 L 102.934,35.1298 L 104.013,40.117 L 105.198,45.1481
 L 106.486,50.1315 L 107.875,54.9753 L 109.363,59.588 L 110.95,63.8777 L 112.633,67.7529 L 114.411,71.1217
 L 116.281,73.8925 L 118.243,75.9736 L 120.294,77.2733 L 122.326,78.257 L 124.79,79.6608 L 127.65,81.4338
 L 130.868,83.5251 L 134.409,85.8839 L 138.237,88.4592 L 142.315,91.2002 L 146.608,94.056 L 151.079,96.9757
 L 155.691,99.9084 L 160.409,102.803 L 165.196,105.61 L 170.017,108.276 L 174.834,110.752 L 179.612,112.987
 L 184.315,114.93 L 188.905,116.529 L 193.348,117.735 L 197.607,118.495 L 201.645,118.76 L 205.358,118.544
 L 209.375,117.924 L 213.651,116.942 L 218.139,115.638 L 222.795,114.055 L 227.571,112.233 L 232.422,110.215
 L 237.303,108.042 L 242.167,105.756 L 246.968,103.397 L 251.661,101.007 L 256.199,98.628 L 260.537,96.3014
 L 264.629,94.0685 L 268.429,91.9709 L 271.891,90.0501 L 274.969,88.3475 L 277.618,86.9046 L 279.791,85.7629
 L 281.443,84.9639 L 282.879,83.8281 L 284.322,81.7621 L 285.764,78.8727 L 287.196,75.2667 L 288.609,71.0512
 L 289.995,66.333 L 291.344,61.2189 L 292.648,55.816 L 293.899,50.231 L 295.087,44.5708 L 296.203,38.9424
 L 297.239,33.4527 L 298.186,28.2085 L 299.036,23.3167 L 299.779,18.8842 L 300.406,15.0179 L 300.909,11.8248
 L 301.28,9.41159 L 301.508,7.8853 L 301.587,7.35278 L 207,7.35278 L 207,45.8541 L 200.65,45.8541
 L 200.65,7.35278 z
" stroke="black" fill="lightgray" stroke-width="0.5"/>
</svg>
