<?xml version="1.0" encoding="utf-8"?>
<!-- Generator: Adobe Illustrator 24.0.3, SVG Export Plug-In . SVG Version: 6.00 Build 0)  -->
<svg version="1.1" id="Layer_1" xmlns="http://www.w3.org/2000/svg" xmlns:xlink="http://www.w3.org/1999/xlink" x="0px" y="0px"
	 viewBox="0 0 1133.9 1870.9" style="enable-background:new 0 0 1133.9 1870.9;" xml:space="preserve">
<style type="text/css">
	.st0{fill:#D3D3D3;stroke:#000000;stroke-width:1.4173;stroke-miterlimit:11.3386;}
</style>
<title>OpenSCAD Model</title>
<path class="st0" d="M1.5,888.3l4.7,13.2l5,14.8l4.5,14.8l4,14.8l3.3,14.9l2.5,15.1l1.6,15.3l0.5,15.5l6,18.4l6,18.7l6,19l5.9,19.2
	l5.9,19.3l5.8,19.5l5.7,19.5l5.6,19.5l5.5,19.5l5.3,19.5l5.2,19.3l5,19.2l4.8,19l4.6,18.7l4.4,18.4l4.2,18.1l4,17.7l3.7,17.3
	l3.5,16.8l3.2,16.3l13.8,17.5l12.3,16.7l10.8,15.8l9.5,14.9l8.3,14.1l7.1,13.2l6.1,12.4l5.2,11.5l4.4,10.7l3.7,9.8l3.1,9l2.6,8.2
	l2.2,7.3l1.9,6.5l1.7,5.6l1.6,4.8l1.7,4l1.8,3.1l2.1,2.3l2.4,1.5l12.2,6.6l11.4,7.7l10.7,8.7l10,9.6l9.4,10.3l8.8,10.9l8.2,11.4
	l7.7,11.7l7.3,11.9l6.9,11.9l6.6,11.8l6.3,11.6l6,11.3l5.8,10.8l5.7,10.2l5.6,9.4l5.6,8.6l5.6,7.5l5.6,6.4l5.7,5.1l6,4.8l6.4,5.4
	l6.9,5.9l7.3,6.3l7.7,6.6l8.2,6.9l8.6,7l9,7.1l9.4,7.1l9.8,7l10.2,6.8l10.5,6.5l10.9,6.1l11.3,5.7l11.6,5.1l12,4.5l12.4,3.8
	l12.7,2.9l13,2l13.4,1.1l13.1,0l12.2-0.9l11.4-1.8l10.7-2.6l9.9-3.3l9.3-4l8.7-4.6l8.1-5.2l7.6-5.6l7.2-6.1l6.8-6.4l6.4-6.7l6.1-7
	l5.8-7.1l5.6-7.2l5.5-7.3l5.4-7.3l5.3-7.2l5.3-7l5.3-6.8l5.8-6.6l6.5-6.4l7.2-6.4l7.8-6.4l8.2-6.6l8.6-6.9l8.8-7.3l9-7.8l9-8.4
	l8.9-9.1l8.8-10l8.5-10.9l8.1-12l7.6-13.1l7.1-14.4l6.4-15.8l5.6-17.3l4.7-18.9l3.7-20.7l2.5-22.5l21.4-20.9l19.7-22.9l18.1-24.7
	l16.6-26.3l15.1-27.6l13.8-28.8l12.5-29.8l11.3-30.5l10.2-31.1l9.2-31.5l8.3-31.6l7.5-31.6l6.7-31.3l6.1-30.9l5.5-30.2l5-29.3
	l4.6-28.3l4.3-27l4-25.5l3.9-23.9l7.3-11l6.6-13.1l5.9-14.9l5.3-16.6l4.7-18l4.1-19.2l3.5-20.2l3-21l2.5-21.5l2.1-21.9l1.7-22
	l1.3-21.9l1-21.6l0.7-21.1l0.4-20.4l0.2-19.5l0-4.7l-8.2-41.4l-15.2-76.4l-24.5-69.6l-21-59.5l-8.2-13.7l-10.1-15.6l-10.3-14.5
	l-10.3-13.2l-10.2-11.7l-10.1-10l-9.8-8.1l-9.5-5.9l-9-3.6l-8.4-2.6l-7.6-2.8l-6.9-3l-6.1-3.1l-5.5-3.2l-4.8-3.3l-4.2-3.3l-3.7-3.3
	l-3.2-3.3l-2.7-3.2l-2.3-3.1l-1.9-2.9l-1.5-2.7l-1.2-2.5l-0.9-2.2l-0.6-1.9l-0.4-1.5l-0.3-1.1l-0.1-0.7l0-0.2l-0.8-2l-2.3-5.8
	l-3.8-9.1l-5.4-12.1l-6.9-14.6l-8.5-16.6l-10.1-18.3l-11.7-19.5L850,156l-14.9-20.7l-16.5-20.6l-18.1-20.2l-19.8-19.3l-21.5-18
	l-23.1-16.2l-24.8-14.1l-26.5-11.5l-28.2-8.5l-30-5.1l-31.7-1.2L594,0.7l-2.2,0.5l-3.6,0.8l-5,1.2l-6.3,1.5l-7.5,1.8l-8.6,2.1
	L551,11l-10.7,2.7l-11.7,3L516,20.1l-13.4,3.6l-14.2,3.9l-14.8,4.2l-15.5,4.5l-16,4.7l-16.5,5l-17,5.3l-17.3,5.5l-17.6,5.8l-4.5,3.2
	l-5.4,4.8l-6.1,6.4l-6.8,7.8l-7.4,9.2l-7.9,10.5l-8.3,11.7l-8.6,12.8l-8.8,13.8l-8.9,14.8l-8.9,15.6l-8.9,16.4l-8.7,17.1l-8.5,17.7
	l-8.2,18.2l-7.7,18.6l-7.2,18.9l-6.6,19.2l-5.9,19.3l-5.1,19.4l-0.9,3.3l-1,3.2l-1.2,3.1l-1.4,3l-1.5,2.9l-1.7,2.8l-1.8,2.7
	l-1.9,2.6l-2.1,2.5l-2.2,2.4l-2.3,2.3l-2.5,2.2l-2.6,2l-2.7,1.9l-2.8,1.8l-2.9,1.6l-3,1.5l-3.1,1.3l-3.2,1.1l-3.2,1l-9.9,2.9
	l-10.7,3.9l-11.4,5l-12,6l-12.4,7.2l-12.8,8.3L99.1,426l-10,8.2l-16,45.5l-24.5,69.6l-15.2,76.4L11.1,738L6,817.9L1.5,888.3z
	 M233.8,949.6l5.3-101.3l2.3-44.3l6.9-42.4l15.7-96.9l25.5-88.2l11.1-38.6l34.1-75.7l14.9-33.1l41.2-59.9l18-26.2l46.5-41.4
	l20.3-18.1l21.8-9.3l49.8-21.2h73.2l49.8,21.2l21.8,9.3l20.3,18.1l46.5,41.4l18,26.2l41.2,59.9l14.9,33.1l34.1,75.7l11.1,38.6
	l25.5,88.2l15.7,96.9l6.9,42.4l2.3,44.3l5.3,101.3l-5.3,101.3l-2.3,44.3l-6.9,42.4l-15.7,96.9l-25.5,88.2l-11.1,38.6l-34.1,75.7
	l-14.9,33.1l-41.2,59.9l-18,26.2l-46.5,41.4l-20.3,18.1l-21.8,9.3l-49.8,21.2h-73.2l-49.8-21.2l-21.8-9.3l-20.3-18.1l-46.5-41.4
	l-18-26.2l-41.2-59.9l-14.9-33.1l-34.1-75.7l-11.1-38.6l-25.5-88.2l-15.7-96.9l-6.9-42.4l-2.3-44.3L233.8,949.6z"/>
</svg>
