<?xml version="1.0" encoding="utf-8"?>
<!-- Generator: Adobe Illustrator 24.0.3, SVG Export Plug-In . SVG Version: 6.00 Build 0)  -->
<svg version="1.1" id="Layer_1" xmlns="http://www.w3.org/2000/svg" xmlns:xlink="http://www.w3.org/1999/xlink" x="0px" y="0px"
	 viewBox="0 0 459.2 1870.9" style="enable-background:new 0 0 459.2 1870.9;" xml:space="preserve">
<style type="text/css">
	.st0{fill:#D3D3D3;stroke:#000000;stroke-width:1.4173;stroke-miterlimit:11.3386;}
</style>
<title>OpenSCAD Model</title>
<path class="st0" d="M0,1868.6h102.8l0.5-0.1l2.9-0.8l1-0.3l72.7-61.6l66.2-99.6l23.2-54.4l50.5-78.9l55.6-132.8l10.5-25.6l1.4-3.3
	l3.4-13.4l43.3-172.7l11.3-94.5l3.8-32l4.2-37.6l3.8-33.8l0.2-2.5l0.5-4.8V850.9l-0.5-4.8l-0.2-2.5l-3.8-33.8l-4.2-37.6l-3.8-32
	l-11.3-94.5L390.5,473l-3.4-13.4l-1.4-3.3l-10.5-25.6l-55.6-132.8L269.3,219l-23.2-54.4L179.9,65l-19.8-16.8l-3.5-2.9l-3.9-3.3
	l-3.4-2.9L107.2,3.4l-4.1-1.1l-0.2-0.1l-1.3-0.4l-1.2-0.3l-0.9-0.2l-0.3-0.1H0v251.9l49.5,32l66.2,76l27.4,49l27,49.5l2.4,4.4
	l37.6,105.2l7.3,20.6l18.2,83l12.9,59l4.5,43.2l2.1,21.4l5.4,54.9l2.5,28.9l0.5,6.3l0.2,3l0.7,9.3v101.3l-0.7,9.3l-0.2,3l-0.5,6.3
	l-2.5,28.9l-5.4,54.9l-2.1,21.4l-4.5,43.2l-12.9,59l-18.2,83l-7.3,20.6l-37.6,105.2l-2.4,4.4l-27,49.5l-27.4,49l-66.2,76l-49.5,32
	V1868.6z"/>
</svg>
