solid OpenSCAD_Model
  facet normal 1 -0 0
    outer loop
      vertex 37.5 -12 11
      vertex 37.5 12 -11
      vertex 37.5 12 11
    endloop
  endfacet
  facet normal 1 0 0
    outer loop
      vertex 37.5 12 -11
      vertex 37.5 -12 11
      vertex 37.5 -12 -11
    endloop
  endfacet
  facet normal -0 0 1
    outer loop
      vertex -37.5 12 11
      vertex 37.5 -12 11
      vertex 37.5 12 11
    endloop
  endfacet
  facet normal 0 0 1
    outer loop
      vertex 37.5 -12 11
      vertex -37.5 12 11
      vertex -37.5 -12 11
    endloop
  endfacet
  facet normal 0 0 -1
    outer loop
      vertex 37.5 -12 -11
      vertex 35.5 -10 -11
      vertex 37.5 12 -11
    endloop
  endfacet
  facet normal 0 0 -1
    outer loop
      vertex 37.5 -12 -11
      vertex -35.5 -10 -11
      vertex 35.5 -10 -11
    endloop
  endfacet
  facet normal -0 0 -1
    outer loop
      vertex -35.5 -10 -11
      vertex -37.5 -12 -11
      vertex -35.5 10 -11
    endloop
  endfacet
  facet normal 0 0 -1
    outer loop
      vertex -37.5 -12 -11
      vertex -35.5 -10 -11
      vertex 37.5 -12 -11
    endloop
  endfacet
  facet normal 0 0 -1
    outer loop
      vertex 35.5 10 -11
      vertex 37.5 12 -11
      vertex 35.5 -10 -11
    endloop
  endfacet
  facet normal 0 0 -1
    outer loop
      vertex -35.5 10 -11
      vertex 37.5 12 -11
      vertex 35.5 10 -11
    endloop
  endfacet
  facet normal 0 0 -1
    outer loop
      vertex -35.5 10 -11
      vertex -37.5 12 -11
      vertex 37.5 12 -11
    endloop
  endfacet
  facet normal 0 0 -1
    outer loop
      vertex -37.5 12 -11
      vertex -35.5 10 -11
      vertex -37.5 -12 -11
    endloop
  endfacet
  facet normal -1 0 0
    outer loop
      vertex -37.5 -12 -11
      vertex -37.5 12 11
      vertex -37.5 12 -11
    endloop
  endfacet
  facet normal -1 -0 0
    outer loop
      vertex -37.5 12 11
      vertex -37.5 -12 -11
      vertex -37.5 -12 11
    endloop
  endfacet
  facet normal 0 1 -0
    outer loop
      vertex 37.5 12 -11
      vertex -37.5 12 11
      vertex 37.5 12 11
    endloop
  endfacet
  facet normal 0 1 0
    outer loop
      vertex -37.5 12 11
      vertex 37.5 12 -11
      vertex -37.5 12 -11
    endloop
  endfacet
  facet normal 0 -1 0
    outer loop
      vertex -37.5 -12 -11
      vertex 37.5 -12 11
      vertex -37.5 -12 11
    endloop
  endfacet
  facet normal 0 -1 -0
    outer loop
      vertex 37.5 -12 11
      vertex -37.5 -12 -11
      vertex 37.5 -12 -11
    endloop
  endfacet
  facet normal -1 0 0
    outer loop
      vertex 35.5 -10 -11
      vertex 35.5 10 9
      vertex 35.5 10 -11
    endloop
  endfacet
  facet normal -1 -0 0
    outer loop
      vertex 35.5 10 9
      vertex 35.5 -10 -11
      vertex 35.5 -10 9
    endloop
  endfacet
  facet normal 0 0 -1
    outer loop
      vertex -35.5 -10 9
      vertex 35.5 10 9
      vertex 35.5 -10 9
    endloop
  endfacet
  facet normal -0 0 -1
    outer loop
      vertex 35.5 10 9
      vertex -35.5 -10 9
      vertex -35.5 10 9
    endloop
  endfacet
  facet normal 1 -0 0
    outer loop
      vertex -35.5 -10 9
      vertex -35.5 10 -11
      vertex -35.5 10 9
    endloop
  endfacet
  facet normal 1 0 0
    outer loop
      vertex -35.5 10 -11
      vertex -35.5 -10 9
      vertex -35.5 -10 -11
    endloop
  endfacet
  facet normal 0 -1 0
    outer loop
      vertex -35.5 10 -11
      vertex 35.5 10 9
      vertex -35.5 10 9
    endloop
  endfacet
  facet normal 0 -1 -0
    outer loop
      vertex 35.5 10 9
      vertex -35.5 10 -11
      vertex 35.5 10 -11
    endloop
  endfacet
  facet normal 0 1 -0
    outer loop
      vertex 35.5 -10 -11
      vertex -35.5 -10 9
      vertex 35.5 -10 9
    endloop
  endfacet
  facet normal 0 1 0
    outer loop
      vertex -35.5 -10 9
      vertex 35.5 -10 -11
      vertex -35.5 -10 -11
    endloop
  endfacet
endsolid OpenSCAD_Model
