<?xml version="1.0" standalone="no"?>
<!DOCTYPE svg PUBLIC "-//W3C//DTD SVG 1.1//EN" "http://www.w3.org/Graphics/SVG/1.1/DTD/svg11.dtd">
<svg width="237mm" height="106mm" viewBox="87 5 237 106" xmlns="http://www.w3.org/2000/svg" version="1.1">
<title>OpenSCAD Model</title>
<path d="
M 87.5667,6.35556 L 87.7193,7.10182 L 88.2059,9.23843 L 89.0692,12.6122 L 90.3522,17.0699 L 92.0977,22.4582
 L 94.3485,28.6241 L 97.1475,35.4142 L 100.538,42.6753 L 104.562,50.2543 L 109.262,57.9978 L 114.683,65.7527
 L 120.866,73.3658 L 127.854,80.6839 L 135.691,87.5536 L 144.419,93.8219 L 154.081,99.3354 L 164.719,103.941
 L 176.378,107.485 L 189.099,109.815 L 202.925,110.778 L 219.037,110.26 L 233.659,108.283 L 246.864,105.008
 L 258.723,100.595 L 269.308,95.2059 L 278.69,89.0005 L 286.941,82.1393 L 294.134,74.7832 L 300.338,67.0926
 L 305.627,59.2281 L 310.072,51.3505 L 313.745,43.6202 L 316.717,36.1979 L 319.06,29.2441 L 320.846,22.9196
 L 322.147,17.3848 L 323.034,12.8004 L 323.578,9.32701 L 323.852,7.1252 L 323.928,6.35556 L 271.364,6.35556
 L 271.199,6.3631 L 270.703,6.38414 L 269.872,6.41629 L 268.703,6.45717 L 267.191,6.50439 L 265.335,6.55559
 L 263.129,6.60837 L 260.572,6.66037 L 257.659,6.70918 L 254.386,6.75244 L 250.752,6.78777 L 246.751,6.81276
 L 242.381,6.82507 L 237.639,6.82228 L 232.52,6.80205 L 227.021,6.76196 L 221.139,6.69966 L 214.871,6.61273
 L 208.213,6.49884 L 207,6.4742 L 207,34.4201 L 200.65,34.4201 L 200.65,6.34516 L 194.121,6.2123
 L 187.495,6.09839 L 181.277,6.01147 L 175.463,5.94916 L 170.045,5.90907 L 165.019,5.88884 L 160.378,5.88606
 L 156.117,5.89836 L 152.23,5.92337 L 148.712,5.95869 L 145.556,6.00195 L 142.756,6.05077 L 140.308,6.10275
 L 138.205,6.15553 L 136.441,6.20674 L 135.01,6.25397 L 133.908,6.29485 L 133.128,6.32698 L 132.664,6.34802
 L 132.511,6.35556 z
" stroke="black" fill="lightgray" stroke-width="0.5"/>
</svg>
