<?xml version="1.0" standalone="no"?>
<!DOCTYPE svg PUBLIC "-//W3C//DTD SVG 1.1//EN" "http://www.w3.org/Graphics/SVG/1.1/DTD/svg11.dtd">
<svg width="301mm" height="131mm" viewBox="61 6 301 131" xmlns="http://www.w3.org/2000/svg" version="1.1">
<title>OpenSCAD Model</title>
<path d="
M 61.4611,6.35556 L 61.4951,7.31337 L 61.6656,10.0535 L 62.0752,14.3759 L 62.8265,20.0806 L 64.022,26.9677
 L 65.7645,34.8372 L 68.1564,43.4892 L 71.3005,52.7235 L 75.2993,62.3404 L 80.2553,72.1398 L 86.2713,81.9217
 L 93.4499,91.4862 L 101.894,100.633 L 111.705,109.163 L 122.987,116.875 L 135.841,123.57 L 150.372,129.048
 L 166.68,133.109 L 184.869,135.552 L 205.042,136.178 L 227.317,134.888 L 247.368,131.917 L 265.312,127.454
 L 281.266,121.687 L 295.347,114.807 L 307.671,107 L 318.357,98.4579 L 327.52,89.3678 L 335.278,79.9192
 L 341.747,70.3009 L 347.046,60.702 L 351.29,51.3113 L 354.596,42.3178 L 357.083,33.9104 L 358.865,26.2781
 L 360.062,19.6098 L 360.789,14.0945 L 361.163,9.92105 L 361.302,7.27843 L 361.322,6.35556 L 271.364,6.35556
 L 271.212,6.75443 L 270.753,7.89543 L 269.979,9.69527 L 268.886,12.0706 L 267.467,14.938 L 265.716,18.2142
 L 263.626,21.8158 L 261.193,25.6596 L 258.409,29.662 L 255.268,33.7399 L 251.766,37.8099 L 247.894,41.7886
 L 243.648,45.5926 L 239.022,49.1387 L 234.008,52.3435 L 228.602,55.1236 L 222.796,57.3957 L 216.586,59.0764
 L 209.964,60.0825 L 207,60.187 L 207,87.4471 L 200.65,87.4471 L 200.65,60.1581 L 195.872,59.796
 L 189.209,58.5621 L 182.934,56.7075 L 177.043,54.3108 L 171.533,51.4505 L 166.402,48.2052 L 161.645,44.6536
 L 157.26,40.8742 L 153.244,36.9455 L 149.594,32.9462 L 146.306,28.9548 L 143.377,25.05 L 140.805,21.3102
 L 138.586,17.8141 L 136.716,14.6403 L 135.194,11.8674 L 134.015,9.57382 L 133.177,7.83829 L 132.677,6.73933
 L 132.511,6.35556 z
" stroke="black" fill="lightgray" stroke-width="0.5"/>
</svg>
