<?xml version="1.0" standalone="no"?>
<!DOCTYPE svg PUBLIC "-//W3C//DTD SVG 1.1//EN" "http://www.w3.org/Graphics/SVG/1.1/DTD/svg11.dtd">
<svg width="258mm" height="131mm" viewBox="76 6 258 131" xmlns="http://www.w3.org/2000/svg" version="1.1">
<title>OpenSCAD Model</title>
<path d="
M 76.6306,6.35556 L 76.8778,7.30884 L 77.6353,10.0363 L 78.9261,14.3394 L 80.7736,20.0196 L 83.201,26.8784
 L 86.2318,34.7172 L 89.889,43.3375 L 94.1961,52.5407 L 99.1762,62.1283 L 104.853,71.9017 L 111.249,81.6624
 L 118.388,91.2119 L 126.294,100.352 L 134.988,108.883 L 144.496,116.607 L 154.84,123.327 L 166.043,128.842
 L 178.129,132.954 L 191.121,135.466 L 205.042,136.178 L 222.258,134.95 L 237.869,132.028 L 251.954,127.603
 L 264.591,121.863 L 275.856,115 L 285.83,107.203 L 294.588,98.6614 L 302.211,89.566 L 308.775,80.1065
 L 314.359,70.4729 L 319.04,60.8552 L 322.898,51.4434 L 326.009,42.4274 L 328.452,33.9971 L 330.305,26.3426
 L 331.647,19.6539 L 332.554,14.1208 L 333.105,9.93344 L 333.379,7.28169 L 333.453,6.35556 L 271.364,6.35556
 L 271.212,6.75443 L 270.753,7.89543 L 269.979,9.69527 L 268.886,12.0706 L 267.467,14.938 L 265.716,18.2142
 L 263.626,21.8158 L 261.193,25.6596 L 258.409,29.662 L 255.268,33.7399 L 251.766,37.8099 L 247.894,41.7886
 L 243.648,45.5926 L 239.022,49.1387 L 234.008,52.3435 L 228.602,55.1236 L 222.796,57.3957 L 216.586,59.0764
 L 209.964,60.0825 L 207,60.187 L 207,76.212 L 200.65,76.212 L 200.65,60.1581 L 195.872,59.796
 L 189.209,58.5621 L 182.934,56.7075 L 177.043,54.3108 L 171.533,51.4505 L 166.402,48.2052 L 161.645,44.6536
 L 157.26,40.8742 L 153.244,36.9455 L 149.594,32.9462 L 146.306,28.9548 L 143.377,25.05 L 140.805,21.3102
 L 138.586,17.8141 L 136.716,14.6403 L 135.194,11.8674 L 134.015,9.57382 L 133.177,7.83829 L 132.677,6.73933
 L 132.511,6.35556 z
" stroke="black" fill="lightgray" stroke-width="0.5"/>
</svg>
