<?xml version="1.0" encoding="utf-8"?>
<!-- Generator: Adobe Illustrator 24.0.3, SVG Export Plug-In . SVG Version: 6.00 Build 0)  -->
<svg version="1.1" id="Layer_1" xmlns="http://www.w3.org/2000/svg" xmlns:xlink="http://www.w3.org/1999/xlink" x="0px" y="0px"
	 viewBox="0 0 671.8 300.5" style="enable-background:new 0 0 671.8 300.5;" xml:space="preserve">
<style type="text/css">
	.st0{fill:#D3D3D3;stroke:#000000;stroke-width:1.4173;stroke-miterlimit:11.3386;}
</style>
<title>OpenSCAD Model</title>
<path class="st0" d="M1.6,3.8L2,6L3.4,12l2.4,9.6l3.6,12.6l4.9,15.3L20.8,67l7.9,19.2l9.6,20.6l11.4,21.5l13.3,22l15.4,22L96,193.8
	l19.8,20.7L138,234l24.7,17.8l27.4,15.6l30.2,13.1l33,10l36.1,6.6l39.2,2.7l45.7-1.5l41.4-5.6l37.4-9.3l33.6-12.5l30-15.3l26.6-17.6
	l23.4-19.4l20.4-20.9l17.6-21.8l15-22.3l12.6-22.3l10.4-21.9l8.4-21l6.6-19.7l5.1-17.9l3.7-15.7l2.5-13l1.5-9.8l0.8-6.2l0.2-2.2
	h-149l-0.5,0l-1.4,0.1L518.4,4l-3.3,0.1l-4.3,0.1l-5.3,0.1l-6.3,0.1L492,4.7l-8.3,0.1L474.5,5l-10.3,0.1l-11.3,0.1l-12.4,0l-13.4,0
	l-14.5-0.1L396.9,5l-16.7-0.2l-17.8-0.2l-18.9-0.3l-3.4-0.1l-18-0.4l-18.5-0.4l-18.8-0.3l-17.6-0.2l-16.5-0.2l-15.4-0.1l-14.2-0.1
	l-13.2,0l-12.1,0l-11,0.1l-10,0.1L166,2.8L158,3l-6.9,0.1l-6,0.1l-5,0.1l-4.1,0.1L133,3.7l-2.2,0.1l-1.3,0.1l-0.4,0H1.6z"/>
</svg>
