solid OpenSCAD_Model
  facet normal 0 1 -0
    outer loop
      vertex 32.4672 67.3 -0.0705414
      vertex 26.223 67.3 6.1736
      vertex 32.4672 67.3 6.1736
    endloop
  endfacet
  facet normal 0 1 0
    outer loop
      vertex 26.223 67.3 6.1736
      vertex 32.4672 67.3 -0.0705414
      vertex 26.223 67.3 -0.0705414
    endloop
  endfacet
  facet normal 0 1 -0
    outer loop
      vertex 107.432 67.3 0
      vertex 101.188 67.3 6.1736
      vertex 107.432 67.3 6.1736
    endloop
  endfacet
  facet normal 0 1 0
    outer loop
      vertex 101.188 67.3 6.1736
      vertex 107.432 67.3 0
      vertex 101.188 67.3 -0.0705414
    endloop
  endfacet
  facet normal 0 1 0
    outer loop
      vertex 28.0516 67.3 21.5826
      vertex 27.0751 67.3 19.838
      vertex 27.9586 67.3 21.5662
    endloop
  endfacet
  facet normal 0 1 0
    outer loop
      vertex 29.1051 67.3 21.7683
      vertex 27.0751 67.3 19.838
      vertex 28.0516 67.3 21.5826
    endloop
  endfacet
  facet normal 0 1 0
    outer loop
      vertex 30.1244 67.3 16.0089
      vertex 27.0751 67.3 19.838
      vertex 29.1051 67.3 21.7683
    endloop
  endfacet
  facet normal 0 1 0
    outer loop
      vertex 27.0751 67.3 19.838
      vertex 30.1244 67.3 16.0089
      vertex 26.3012 67.3 16.5172
    endloop
  endfacet
  facet normal 0 1 0
    outer loop
      vertex 34.0556 67.3 16.702
      vertex 34.2887 67.3 13.3951
      vertex 30.1244 67.3 16.0089
    endloop
  endfacet
  facet normal 0 1 -0
    outer loop
      vertex 33.8366 67.3 10.9844
      vertex 30.1244 67.3 16.0089
      vertex 34.2887 67.3 13.3951
    endloop
  endfacet
  facet normal 0 1 0
    outer loop
      vertex 30.1244 67.3 16.0089
      vertex 25.7312 67.3 13.123
      vertex 26.3012 67.3 16.5172
    endloop
  endfacet
  facet normal 0 1 0
    outer loop
      vertex 30.1244 67.3 16.0089
      vertex 33.8366 67.3 10.9844
      vertex 25.7312 67.3 13.123
    endloop
  endfacet
  facet normal 0 1 0
    outer loop
      vertex 33.8366 67.3 10.9844
      vertex 25.3644 67.3 9.67026
      vertex 25.7312 67.3 13.123
    endloop
  endfacet
  facet normal 0 1 -0
    outer loop
      vertex 33.5694 67.3 8.57214
      vertex 25.3644 67.3 9.67026
      vertex 33.8366 67.3 10.9844
    endloop
  endfacet
  facet normal 0 1 0
    outer loop
      vertex 32.4672 67.3 6.1736
      vertex 33.5694 67.3 8.57214
      vertex 33.4903 67.3 6.1736
    endloop
  endfacet
  facet normal 0 1 0
    outer loop
      vertex 33.5694 67.3 8.57214
      vertex 32.4672 67.3 6.1736
      vertex 25.3644 67.3 9.67026
    endloop
  endfacet
  facet normal 0 1 -0
    outer loop
      vertex 26.223 67.3 6.1736
      vertex 25.3644 67.3 9.67026
      vertex 32.4672 67.3 6.1736
    endloop
  endfacet
  facet normal 0 1 0
    outer loop
      vertex 25.3644 67.3 9.67026
      vertex 26.223 67.3 6.1736
      vertex 25.2 67.3 6.1736
    endloop
  endfacet
  facet normal 0 1 0
    outer loop
      vertex 104.75 67.3 25.9438
      vertex 100.628 67.3 22.013
      vertex 100.52 67.3 22.032
    endloop
  endfacet
  facet normal 0 1 0
    outer loop
      vertex 104.75 67.3 25.9438
      vertex 104.689 67.3 21.2969
      vertex 100.628 67.3 22.013
    endloop
  endfacet
  facet normal 0 1 0
    outer loop
      vertex 106.823 67.3 19.9898
      vertex 104.689 67.3 21.2969
      vertex 105.894 67.3 22.9665
    endloop
  endfacet
  facet normal 0 1 0
    outer loop
      vertex 103.645 67.3 15.3714
      vertex 106.823 67.3 19.9898
      vertex 107.545 67.3 17.044
    endloop
  endfacet
  facet normal 0 1 0
    outer loop
      vertex 106.823 67.3 19.9898
      vertex 103.645 67.3 15.3714
      vertex 104.689 67.3 21.2969
    endloop
  endfacet
  facet normal 0 1 0
    outer loop
      vertex 108.063 67.3 14.1592
      vertex 103.645 67.3 15.3714
      vertex 107.545 67.3 17.044
    endloop
  endfacet
  facet normal 0 1 0
    outer loop
      vertex 103.645 67.3 15.3714
      vertex 108.063 67.3 14.1592
      vertex 103.586 67.3 15.0396
    endloop
  endfacet
  facet normal 0 1 0
    outer loop
      vertex 108.383 67.3 11.3657
      vertex 103.586 67.3 15.0396
      vertex 108.063 67.3 14.1592
    endloop
  endfacet
  facet normal 0 1 0
    outer loop
      vertex 103.586 67.3 15.0396
      vertex 99.5667 67.3 12.236
      vertex 99.0527 67.3 14.3801
    endloop
  endfacet
  facet normal 0 1 0
    outer loop
      vertex 99.922 67.3 10.1405
      vertex 103.586 67.3 15.0396
      vertex 108.383 67.3 11.3657
    endloop
  endfacet
  facet normal 0 1 0
    outer loop
      vertex 103.586 67.3 15.0396
      vertex 99.922 67.3 10.1405
      vertex 99.5667 67.3 12.236
    endloop
  endfacet
  facet normal 0 1 0
    outer loop
      vertex 108.513 67.3 8.69374
      vertex 99.922 67.3 10.1405
      vertex 108.383 67.3 11.3657
    endloop
  endfacet
  facet normal 0 1 0
    outer loop
      vertex 108.513 67.3 8.69374
      vertex 100.121 67.3 8.11317
      vertex 99.922 67.3 10.1405
    endloop
  endfacet
  facet normal 0 1 0
    outer loop
      vertex 107.432 67.3 6.1736
      vertex 108.513 67.3 8.69374
      vertex 108.456 67.3 6.1736
    endloop
  endfacet
  facet normal 0 1 0
    outer loop
      vertex 101.188 67.3 6.1736
      vertex 108.513 67.3 8.69374
      vertex 107.432 67.3 6.1736
    endloop
  endfacet
  facet normal 0 1 0
    outer loop
      vertex 108.513 67.3 8.69374
      vertex 101.188 67.3 6.1736
      vertex 100.121 67.3 8.11317
    endloop
  endfacet
  facet normal 0 1 0
    outer loop
      vertex 100.121 67.3 8.11317
      vertex 101.188 67.3 6.1736
      vertex 100.165 67.3 6.1736
    endloop
  endfacet
  facet normal 0 1 0
    outer loop
      vertex 29.0157 67.3 22.2771
      vertex 29.2376 67.3 26.2002
      vertex 33.1844 67.3 23.0121
    endloop
  endfacet
  facet normal 0 1 0
    outer loop
      vertex 29.2376 67.3 26.2002
      vertex 29.0157 67.3 22.2771
      vertex 28.0536 67.3 23.0706
    endloop
  endfacet
  facet normal 0 1 0
    outer loop
      vertex 27.8699 67.3 22.075
      vertex 28.0536 67.3 23.0706
      vertex 29.0157 67.3 22.2771
    endloop
  endfacet
  facet normal 0 1 0
    outer loop
      vertex 27.866 67.3 22.0743
      vertex 28.0536 67.3 23.0706
      vertex 27.8699 67.3 22.075
    endloop
  endfacet
  facet normal 0 1 0
    outer loop
      vertex 27.8632 67.3 22.0738
      vertex 28.0536 67.3 23.0706
      vertex 27.866 67.3 22.0743
    endloop
  endfacet
  facet normal 0 1 0
    outer loop
      vertex 27.8617 67.3 22.0736
      vertex 28.0536 67.3 23.0706
      vertex 27.8632 67.3 22.0738
    endloop
  endfacet
  facet normal 0 1 -0
    outer loop
      vertex 27.8617 67.3 22.0736
      vertex 27.0751 67.3 19.838
      vertex 28.0536 67.3 23.0706
    endloop
  endfacet
  facet normal 0 1 0
    outer loop
      vertex 27.0751 67.3 19.838
      vertex 27.8617 67.3 22.0736
      vertex 27.9586 67.3 21.5662
    endloop
  endfacet
  facet normal 0 1 0
    outer loop
      vertex 67.8156 67.3 50.9411
      vertex 70.7244 67.3 39.0137
      vertex 67.3569 67.3 39.2642
    endloop
  endfacet
  facet normal 0 1 0
    outer loop
      vertex 80.2853 67.3 49.0952
      vertex 73.8963 67.3 38.4977
      vertex 70.7244 67.3 39.0137
    endloop
  endfacet
  facet normal 0 1 0
    outer loop
      vertex 80.2853 67.3 49.0952
      vertex 76.8748 67.3 37.7356
      vertex 73.8963 67.3 38.4977
    endloop
  endfacet
  facet normal 0 1 0
    outer loop
      vertex 83.8819 67.3 47.7754
      vertex 76.8748 67.3 37.7356
      vertex 80.2853 67.3 49.0952
    endloop
  endfacet
  facet normal 0 1 0
    outer loop
      vertex 87.6366 67.3 40.472
      vertex 82.2612 67.3 35.5523
      vertex 79.6624 67.3 36.7473
    endloop
  endfacet
  facet normal 0 1 -0
    outer loop
      vertex 86.6316 67.3 34.7723
      vertex 82.2612 67.3 35.5523
      vertex 87.6366 67.3 40.472
    endloop
  endfacet
  facet normal 0 1 0
    outer loop
      vertex 86.6316 67.3 34.7723
      vertex 84.6737 67.3 34.1702
      vertex 82.2612 67.3 35.5523
    endloop
  endfacet
  facet normal 0 1 -0
    outer loop
      vertex 86.9021 67.3 32.6207
      vertex 86.6316 67.3 34.7723
      vertex 91.6691 67.3 33.8841
    endloop
  endfacet
  facet normal 0 1 0
    outer loop
      vertex 86.6316 67.3 34.7723
      vertex 86.9021 67.3 32.6207
      vertex 84.6737 67.3 34.1702
    endloop
  endfacet
  facet normal 0 1 0
    outer loop
      vertex 90.2688 67.3 44.2606
      vertex 88.1718 67.3 40.9526
      vertex 87.7349 67.3 41.0297
    endloop
  endfacet
  facet normal 0 1 0
    outer loop
      vertex 93.0705 67.3 42.126
      vertex 92.7725 67.3 40.1414
      vertex 88.1718 67.3 40.9526
    endloop
  endfacet
  facet normal 0 1 0
    outer loop
      vertex 95.6184 67.3 39.7803
      vertex 92.7725 67.3 40.1414
      vertex 93.0705 67.3 42.126
    endloop
  endfacet
  facet normal 0 1 0
    outer loop
      vertex 91.6691 67.3 33.8841
      vertex 95.6184 67.3 39.7803
      vertex 97.9182 67.3 37.2538
    endloop
  endfacet
  facet normal 0 1 0
    outer loop
      vertex 91.6691 67.3 33.8841
      vertex 97.9182 67.3 37.2538
      vertex 99.9756 67.3 34.5766
    endloop
  endfacet
  facet normal 0 1 0
    outer loop
      vertex 95.6184 67.3 39.7803
      vertex 91.6691 67.3 33.8841
      vertex 92.7725 67.3 40.1414
    endloop
  endfacet
  facet normal 0 1 -0
    outer loop
      vertex 92.5056 67.3 27.1639
      vertex 91.6691 67.3 33.8841
      vertex 99.9756 67.3 34.5766
    endloop
  endfacet
  facet normal 0 1 0
    outer loop
      vertex 92.5056 67.3 27.1639
      vertex 99.9756 67.3 34.5766
      vertex 101.796 67.3 31.7791
    endloop
  endfacet
  facet normal 0 1 0
    outer loop
      vertex 91.6691 67.3 33.8841
      vertex 88.9486 67.3 30.9234
      vertex 86.9021 67.3 32.6207
    endloop
  endfacet
  facet normal 0 1 0
    outer loop
      vertex 91.6691 67.3 33.8841
      vertex 90.8157 67.3 29.0979
      vertex 88.9486 67.3 30.9234
    endloop
  endfacet
  facet normal 0 1 0
    outer loop
      vertex 94.0206 67.3 25.141
      vertex 101.796 67.3 31.7791
      vertex 103.386 67.3 28.8914
    endloop
  endfacet
  facet normal 0 1 0
    outer loop
      vertex 91.6691 67.3 33.8841
      vertex 92.5056 67.3 27.1639
      vertex 90.8157 67.3 29.0979
    endloop
  endfacet
  facet normal 0 1 0
    outer loop
      vertex 100.52 67.3 22.032
      vertex 103.386 67.3 28.8914
      vertex 104.75 67.3 25.9438
    endloop
  endfacet
  facet normal 0 1 0
    outer loop
      vertex 101.796 67.3 31.7791
      vertex 94.0206 67.3 25.141
      vertex 92.5056 67.3 27.1639
    endloop
  endfacet
  facet normal 0 1 0
    outer loop
      vertex 103.386 67.3 28.8914
      vertex 100.52 67.3 22.032
      vertex 94.0206 67.3 25.141
    endloop
  endfacet
  facet normal 0 1 0
    outer loop
      vertex 104.689 67.3 21.2969
      vertex 104.75 67.3 25.9438
      vertex 105.894 67.3 22.9665
    endloop
  endfacet
  facet normal 0 1 0
    outer loop
      vertex 94.0206 67.3 25.141
      vertex 100.52 67.3 22.032
      vertex 95.363 67.3 23.0488
    endloop
  endfacet
  facet normal 0 1 0
    outer loop
      vertex 96.5351 67.3 20.907
      vertex 100.52 67.3 22.032
      vertex 100.491 67.3 21.8656
    endloop
  endfacet
  facet normal 0 1 0
    outer loop
      vertex 100.52 67.3 22.032
      vertex 96.5351 67.3 20.907
      vertex 95.363 67.3 23.0488
    endloop
  endfacet
  facet normal 0 1 0
    outer loop
      vertex 100.491 67.3 21.8656
      vertex 97.5392 67.3 18.7352
      vertex 96.5351 67.3 20.907
    endloop
  endfacet
  facet normal 0 1 0
    outer loop
      vertex 100.491 67.3 21.8656
      vertex 98.3777 67.3 16.553
      vertex 97.5392 67.3 18.7352
    endloop
  endfacet
  facet normal 0 1 -0
    outer loop
      vertex 99.417 67.3 15.7747
      vertex 98.3777 67.3 16.553
      vertex 100.491 67.3 21.8656
    endloop
  endfacet
  facet normal 0 1 0
    outer loop
      vertex 99.417 67.3 15.7747
      vertex 99.0527 67.3 14.3801
      vertex 98.3777 67.3 16.553
    endloop
  endfacet
  facet normal 0 1 0
    outer loop
      vertex 99.0527 67.3 14.3801
      vertex 99.417 67.3 15.7747
      vertex 103.586 67.3 15.0396
    endloop
  endfacet
  facet normal 0 1 -0
    outer loop
      vertex 70.7244 67.3 39.0137
      vertex 67.8156 67.3 50.9411
      vertex 72.2578 67.3 50.7083
    endloop
  endfacet
  facet normal 0 1 0
    outer loop
      vertex 67.8156 67.3 50.9411
      vertex 67.3569 67.3 39.2642
      vertex 63.6747 67.3 50.8025
    endloop
  endfacet
  facet normal 0 1 0
    outer loop
      vertex 70.7244 67.3 39.0137
      vertex 72.2578 67.3 50.7083
      vertex 76.4125 67.3 50.0829
    endloop
  endfacet
  facet normal 0 1 -0
    outer loop
      vertex 64.2213 67.3 39.2283
      vertex 63.6747 67.3 50.8025
      vertex 67.3569 67.3 39.2642
    endloop
  endfacet
  facet normal 0 1 0
    outer loop
      vertex 70.7244 67.3 39.0137
      vertex 76.4125 67.3 50.0829
      vertex 80.2853 67.3 49.0952
    endloop
  endfacet
  facet normal 0 1 0
    outer loop
      vertex 63.6747 67.3 50.8025
      vertex 64.2213 67.3 39.2283
      vertex 59.75 67.3 50.3544
    endloop
  endfacet
  facet normal 0 1 0
    outer loop
      vertex 87.7349 67.3 41.0297
      vertex 79.6624 67.3 36.7473
      vertex 83.8819 67.3 47.7754
    endloop
  endfacet
  facet normal 0 1 -0
    outer loop
      vertex 61.2195 67.3 38.9301
      vertex 59.75 67.3 50.3544
      vertex 64.2213 67.3 39.2283
    endloop
  endfacet
  facet normal 0 1 0
    outer loop
      vertex 87.7349 67.3 41.0297
      vertex 83.8819 67.3 47.7754
      vertex 87.2079 67.3 46.1538
    endloop
  endfacet
  facet normal 0 1 0
    outer loop
      vertex 59.75 67.3 50.3544
      vertex 61.2195 67.3 38.9301
      vertex 56.0408 67.3 49.6113
    endloop
  endfacet
  facet normal 0 1 -0
    outer loop
      vertex 87.7349 67.3 41.0297
      vertex 87.2079 67.3 46.1538
      vertex 90.2688 67.3 44.2606
    endloop
  endfacet
  facet normal 0 1 -0
    outer loop
      vertex 58.3543 67.3 38.3847
      vertex 56.0408 67.3 49.6113
      vertex 61.2195 67.3 38.9301
    endloop
  endfacet
  facet normal 0 1 -0
    outer loop
      vertex 47.5899 67.3 43.2599
      vertex 46.1979 67.3 45.7608
      vertex 48.2597 67.3 43.3781
    endloop
  endfacet
  facet normal 0 1 0
    outer loop
      vertex 88.1718 67.3 40.9526
      vertex 90.2688 67.3 44.2606
      vertex 93.0705 67.3 42.126
    endloop
  endfacet
  facet normal 0 1 0
    outer loop
      vertex 79.6624 67.3 36.7473
      vertex 87.7349 67.3 41.0297
      vertex 87.6366 67.3 40.472
    endloop
  endfacet
  facet normal -0 1 0
    outer loop
      vertex 76.8748 67.3 37.7356
      vertex 83.8819 67.3 47.7754
      vertex 79.6624 67.3 36.7473
    endloop
  endfacet
  facet normal 0 1 0
    outer loop
      vertex 56.0408 67.3 49.6113
      vertex 58.3543 67.3 38.3847
      vertex 52.5462 67.3 48.5882
    endloop
  endfacet
  facet normal 0 1 -0
    outer loop
      vertex 55.6289 67.3 37.6075
      vertex 52.5462 67.3 48.5882
      vertex 58.3543 67.3 38.3847
    endloop
  endfacet
  facet normal 0 1 0
    outer loop
      vertex 49.2655 67.3 47.2998
      vertex 48.2597 67.3 43.3781
      vertex 46.1979 67.3 45.7608
    endloop
  endfacet
  facet normal -0 1 0
    outer loop
      vertex 48.2597 67.3 43.3781
      vertex 52.5462 67.3 48.5882
      vertex 55.6289 67.3 37.6075
    endloop
  endfacet
  facet normal 0 1 0
    outer loop
      vertex 52.5462 67.3 48.5882
      vertex 48.2597 67.3 43.3781
      vertex 49.2655 67.3 47.2998
    endloop
  endfacet
  facet normal 0 1 0
    outer loop
      vertex 48.2597 67.3 43.3781
      vertex 55.6289 67.3 37.6075
      vertex 49.1667 67.3 38.2162
    endloop
  endfacet
  facet normal 0 1 -0
    outer loop
      vertex 53.0463 67.3 36.6139
      vertex 49.1667 67.3 38.2162
      vertex 55.6289 67.3 37.6075
    endloop
  endfacet
  facet normal 0 1 0
    outer loop
      vertex 49.1667 67.3 38.2162
      vertex 53.0463 67.3 36.6139
      vertex 49.3614 67.3 37.1086
    endloop
  endfacet
  facet normal 0 1 -0
    outer loop
      vertex 50.6095 67.3 35.4192
      vertex 49.3614 67.3 37.1086
      vertex 53.0463 67.3 36.6139
    endloop
  endfacet
  facet normal 0 1 0
    outer loop
      vertex 49.3614 67.3 37.1086
      vertex 50.6095 67.3 35.4192
      vertex 48.4194 67.3 36.9425
    endloop
  endfacet
  facet normal 0 1 0
    outer loop
      vertex 48.3214 67.3 34.0388
      vertex 48.4194 67.3 36.9425
      vertex 50.6095 67.3 35.4192
    endloop
  endfacet
  facet normal 0 1 0
    outer loop
      vertex 46.1979 67.3 45.7608
      vertex 47.5899 67.3 43.2599
      vertex 43.3427 67.3 43.986
    endloop
  endfacet
  facet normal 0 1 0
    outer loop
      vertex 43.1919 67.3 42.4845
      vertex 43.3427 67.3 43.986
      vertex 47.5899 67.3 43.2599
    endloop
  endfacet
  facet normal 0 1 -0
    outer loop
      vertex 43.1919 67.3 42.4845
      vertex 40.6991 67.3 41.9901
      vertex 43.3427 67.3 43.986
    endloop
  endfacet
  facet normal 0 1 0
    outer loop
      vertex 43.3513 67.3 41.579
      vertex 40.6991 67.3 41.9901
      vertex 43.1919 67.3 42.4845
    endloop
  endfacet
  facet normal 0 1 0
    outer loop
      vertex 43.3513 67.3 41.579
      vertex 38.2663 67.3 39.788
      vertex 40.6991 67.3 41.9901
    endloop
  endfacet
  facet normal 0 1 0
    outer loop
      vertex 44.2954 67.3 36.2153
      vertex 38.2663 67.3 39.788
      vertex 43.3513 67.3 41.579
    endloop
  endfacet
  facet normal 0 1 0
    outer loop
      vertex 38.2663 67.3 39.788
      vertex 44.2954 67.3 36.2153
      vertex 36.0435 67.3 37.3944
    endloop
  endfacet
  facet normal 0 1 -0
    outer loop
      vertex 44.2038 67.3 30.7822
      vertex 36.0435 67.3 37.3944
      vertex 44.2954 67.3 36.2153
    endloop
  endfacet
  facet normal 0 1 0
    outer loop
      vertex 48.4194 67.3 36.9425
      vertex 48.3214 67.3 34.0388
      vertex 44.2954 67.3 36.2153
    endloop
  endfacet
  facet normal 0 1 -0
    outer loop
      vertex 46.1852 67.3 32.488
      vertex 44.2954 67.3 36.2153
      vertex 48.3214 67.3 34.0388
    endloop
  endfacet
  facet normal 0 1 0
    outer loop
      vertex 44.2038 67.3 30.7822
      vertex 44.2954 67.3 36.2153
      vertex 46.1852 67.3 32.488
    endloop
  endfacet
  facet normal 0 1 0
    outer loop
      vertex 36.0435 67.3 37.3944
      vertex 44.2038 67.3 30.7822
      vertex 42.3803 67.3 28.9366
    endloop
  endfacet
  facet normal 0 1 0
    outer loop
      vertex 36.0435 67.3 37.3944
      vertex 42.3803 67.3 28.9366
      vertex 34.03 67.3 34.8241
    endloop
  endfacet
  facet normal 0 1 -0
    outer loop
      vertex 40.7176 67.3 26.9667
      vertex 34.03 67.3 34.8241
      vertex 42.3803 67.3 28.9366
    endloop
  endfacet
  facet normal 0 1 0
    outer loop
      vertex 34.03 67.3 34.8241
      vertex 40.7176 67.3 26.9667
      vertex 32.2251 67.3 32.0918
    endloop
  endfacet
  facet normal 0 1 -0
    outer loop
      vertex 39.2188 67.3 24.8878
      vertex 32.2251 67.3 32.0918
      vertex 40.7176 67.3 26.9667
    endloop
  endfacet
  facet normal 0 1 0
    outer loop
      vertex 32.2251 67.3 32.0918
      vertex 39.2188 67.3 24.8878
      vertex 30.6279 67.3 29.2122
    endloop
  endfacet
  facet normal 0 1 -0
    outer loop
      vertex 33.2737 67.3 23.0279
      vertex 30.6279 67.3 29.2122
      vertex 39.2188 67.3 24.8878
    endloop
  endfacet
  facet normal 0 1 0
    outer loop
      vertex 30.6279 67.3 29.2122
      vertex 33.2737 67.3 23.0279
      vertex 29.2376 67.3 26.2002
    endloop
  endfacet
  facet normal 0 1 -0
    outer loop
      vertex 33.1844 67.3 23.0121
      vertex 29.2376 67.3 26.2002
      vertex 33.2737 67.3 23.0279
    endloop
  endfacet
  facet normal 0 1 -0
    outer loop
      vertex 37.8869 67.3 22.7152
      vertex 33.2737 67.3 23.0279
      vertex 39.2188 67.3 24.8878
    endloop
  endfacet
  facet normal 0 1 -0
    outer loop
      vertex 36.725 67.3 20.4643
      vertex 33.2737 67.3 23.0279
      vertex 37.8869 67.3 22.7152
    endloop
  endfacet
  facet normal 0 1 0
    outer loop
      vertex 33.2737 67.3 23.0279
      vertex 36.725 67.3 20.4643
      vertex 33.1863 67.3 23.0015
    endloop
  endfacet
  facet normal 0 1 -0
    outer loop
      vertex 35.7359 67.3 18.1504
      vertex 33.1863 67.3 23.0015
      vertex 36.725 67.3 20.4643
    endloop
  endfacet
  facet normal 0 1 0
    outer loop
      vertex 35.7359 67.3 18.1504
      vertex 34.2938 67.3 16.744
      vertex 33.1863 67.3 23.0015
    endloop
  endfacet
  facet normal 0 1 0
    outer loop
      vertex 34.9228 67.3 15.7889
      vertex 34.0556 67.3 16.702
      vertex 34.2938 67.3 16.744
    endloop
  endfacet
  facet normal 0 1 -0
    outer loop
      vertex 34.2887 67.3 13.3951
      vertex 34.0556 67.3 16.702
      vertex 34.9228 67.3 15.7889
    endloop
  endfacet
  facet normal 0 1 -0
    outer loop
      vertex 34.9228 67.3 15.7889
      vertex 34.2938 67.3 16.744
      vertex 35.7359 67.3 18.1504
    endloop
  endfacet
  facet normal 0 -1 0
    outer loop
      vertex 101.188 60.95 6.1736
      vertex 107.432 60.95 0
      vertex 107.432 60.95 6.1736
    endloop
  endfacet
  facet normal -0 -1 0
    outer loop
      vertex 107.432 60.95 0
      vertex 101.188 60.95 6.1736
      vertex 101.188 60.95 -0.0705414
    endloop
  endfacet
  facet normal 0 -1 0
    outer loop
      vertex 26.223 60.95 -0.0705414
      vertex 32.4672 60.95 6.1736
      vertex 26.223 60.95 6.1736
    endloop
  endfacet
  facet normal 0 -1 -0
    outer loop
      vertex 32.4672 60.95 6.1736
      vertex 26.223 60.95 -0.0705414
      vertex 32.4672 60.95 -0.0705414
    endloop
  endfacet
  facet normal 0 -1 -0
    outer loop
      vertex 46.1979 60.95 45.7608
      vertex 43.712 60.95 42.1253
      vertex 48.2833 60.95 42.9313
    endloop
  endfacet
  facet normal 0 -1 -0
    outer loop
      vertex 43.3427 60.95 43.986
      vertex 43.2422 60.95 42.0424
      vertex 43.712 60.95 42.1253
    endloop
  endfacet
  facet normal 0 -1 0
    outer loop
      vertex 40.6991 60.95 41.9901
      vertex 43.2422 60.95 42.0424
      vertex 43.3427 60.95 43.986
    endloop
  endfacet
  facet normal 0 -1 0
    outer loop
      vertex 44.3009 60.95 36.028
      vertex 40.6991 60.95 41.9901
      vertex 38.2663 60.95 39.788
    endloop
  endfacet
  facet normal 0 -1 0
    outer loop
      vertex 44.3009 60.95 36.028
      vertex 38.2663 60.95 39.788
      vertex 36.0435 60.95 37.3944
    endloop
  endfacet
  facet normal 0 -1 0
    outer loop
      vertex 40.6991 60.95 41.9901
      vertex 44.3009 60.95 36.028
      vertex 43.2422 60.95 42.0424
    endloop
  endfacet
  facet normal 0 -1 0
    outer loop
      vertex 36.0435 60.95 37.3944
      vertex 44.3457 60.95 35.7733
      vertex 44.3009 60.95 36.028
    endloop
  endfacet
  facet normal 0 -1 0
    outer loop
      vertex 42.3803 60.95 28.9366
      vertex 36.0435 60.95 37.3944
      vertex 34.03 60.95 34.8241
    endloop
  endfacet
  facet normal 0 -1 0
    outer loop
      vertex 36.0435 60.95 37.3944
      vertex 42.3803 60.95 28.9366
      vertex 44.3457 60.95 35.7733
    endloop
  endfacet
  facet normal 0 -1 0
    outer loop
      vertex 44.3457 60.95 35.7733
      vertex 48.3214 60.95 34.0388
      vertex 50.6095 60.95 35.4192
    endloop
  endfacet
  facet normal 0 -1 0
    outer loop
      vertex 44.3457 60.95 35.7733
      vertex 46.1852 60.95 32.488
      vertex 48.3214 60.95 34.0388
    endloop
  endfacet
  facet normal 0 -1 0
    outer loop
      vertex 40.7176 60.95 26.9667
      vertex 34.03 60.95 34.8241
      vertex 32.2251 60.95 32.0918
    endloop
  endfacet
  facet normal 0 -1 -0
    outer loop
      vertex 44.3457 60.95 35.7733
      vertex 44.2038 60.95 30.7822
      vertex 46.1852 60.95 32.488
    endloop
  endfacet
  facet normal 0 -1 0
    outer loop
      vertex 39.2188 60.95 24.8878
      vertex 32.2251 60.95 32.0918
      vertex 30.6279 60.95 29.2122
    endloop
  endfacet
  facet normal 0 -1 0
    outer loop
      vertex 44.3457 60.95 35.7733
      vertex 42.3803 60.95 28.9366
      vertex 44.2038 60.95 30.7822
    endloop
  endfacet
  facet normal 0 -1 0
    outer loop
      vertex 34.03 60.95 34.8241
      vertex 40.7176 60.95 26.9667
      vertex 42.3803 60.95 28.9366
    endloop
  endfacet
  facet normal 0 -1 0
    outer loop
      vertex 33.3188 60.95 22.5849
      vertex 30.6279 60.95 29.2122
      vertex 29.2376 60.95 26.2002
    endloop
  endfacet
  facet normal 0 -1 0
    outer loop
      vertex 32.2251 60.95 32.0918
      vertex 39.2188 60.95 24.8878
      vertex 40.7176 60.95 26.9667
    endloop
  endfacet
  facet normal 0 -1 0
    outer loop
      vertex 29.8996 60.95 21.982
      vertex 29.2376 60.95 26.2002
      vertex 28.0536 60.95 23.0706
    endloop
  endfacet
  facet normal 0 -1 0
    outer loop
      vertex 30.6279 60.95 29.2122
      vertex 33.3188 60.95 22.5849
      vertex 39.2188 60.95 24.8878
    endloop
  endfacet
  facet normal 0 -1 0
    outer loop
      vertex 39.2188 60.95 24.8878
      vertex 33.3188 60.95 22.5849
      vertex 37.8869 60.95 22.7152
    endloop
  endfacet
  facet normal 0 -1 0
    outer loop
      vertex 29.2376 60.95 26.2002
      vertex 29.8996 60.95 21.982
      vertex 33.3188 60.95 22.5849
    endloop
  endfacet
  facet normal 0 -1 0
    outer loop
      vertex 28.0536 60.95 23.0706
      vertex 29.1494 60.95 21.8498
      vertex 29.8996 60.95 21.982
    endloop
  endfacet
  facet normal 0 -1 0
    outer loop
      vertex 27.0751 60.95 19.838
      vertex 29.1494 60.95 21.8498
      vertex 28.0536 60.95 23.0706
    endloop
  endfacet
  facet normal 0 -1 0
    outer loop
      vertex 30.1137 60.95 16.4014
      vertex 27.0751 60.95 19.838
      vertex 26.3012 60.95 16.5172
    endloop
  endfacet
  facet normal 0 -1 0
    outer loop
      vertex 27.0751 60.95 19.838
      vertex 30.1137 60.95 16.4014
      vertex 29.1494 60.95 21.8498
    endloop
  endfacet
  facet normal 0 -1 0
    outer loop
      vertex 26.3012 60.95 16.5172
      vertex 30.2588 60.95 15.5817
      vertex 30.1137 60.95 16.4014
    endloop
  endfacet
  facet normal 0 -1 0
    outer loop
      vertex 25.7312 60.95 13.123
      vertex 30.2588 60.95 15.5817
      vertex 26.3012 60.95 16.5172
    endloop
  endfacet
  facet normal 0 -1 0
    outer loop
      vertex 33.8366 60.95 10.9844
      vertex 30.2588 60.95 15.5817
      vertex 25.7312 60.95 13.123
    endloop
  endfacet
  facet normal 0 -1 0
    outer loop
      vertex 30.2588 60.95 15.5817
      vertex 33.8366 60.95 10.9844
      vertex 34.2887 60.95 13.3951
    endloop
  endfacet
  facet normal 0 -1 0
    outer loop
      vertex 25.3644 60.95 9.67026
      vertex 33.8366 60.95 10.9844
      vertex 25.7312 60.95 13.123
    endloop
  endfacet
  facet normal 0 -1 0
    outer loop
      vertex 25.3644 60.95 9.67026
      vertex 33.5694 60.95 8.57214
      vertex 33.8366 60.95 10.9844
    endloop
  endfacet
  facet normal 0 -1 0
    outer loop
      vertex 26.223 60.95 6.1736
      vertex 25.3644 60.95 9.67026
      vertex 25.2 60.95 6.1736
    endloop
  endfacet
  facet normal 0 -1 0
    outer loop
      vertex 32.4672 60.95 6.1736
      vertex 25.3644 60.95 9.67026
      vertex 26.223 60.95 6.1736
    endloop
  endfacet
  facet normal 0 -1 0
    outer loop
      vertex 25.3644 60.95 9.67026
      vertex 32.4672 60.95 6.1736
      vertex 33.5694 60.95 8.57214
    endloop
  endfacet
  facet normal 0 -1 0
    outer loop
      vertex 33.5694 60.95 8.57214
      vertex 32.4672 60.95 6.1736
      vertex 33.4903 60.95 6.1736
    endloop
  endfacet
  facet normal 0 -1 0
    outer loop
      vertex 67.3569 60.95 39.2642
      vertex 67.8156 60.95 50.9411
      vertex 63.6747 60.95 50.8025
    endloop
  endfacet
  facet normal 0 -1 0
    outer loop
      vertex 64.2213 60.95 39.2283
      vertex 63.6747 60.95 50.8025
      vertex 59.75 60.95 50.3544
    endloop
  endfacet
  facet normal 0 -1 0
    outer loop
      vertex 70.7244 60.95 39.0137
      vertex 67.8156 60.95 50.9411
      vertex 67.3569 60.95 39.2642
    endloop
  endfacet
  facet normal 0 -1 0
    outer loop
      vertex 61.2195 60.95 38.9301
      vertex 59.75 60.95 50.3544
      vertex 56.0408 60.95 49.6113
    endloop
  endfacet
  facet normal 0 -1 0
    outer loop
      vertex 67.8156 60.95 50.9411
      vertex 70.7244 60.95 39.0137
      vertex 72.2578 60.95 50.7083
    endloop
  endfacet
  facet normal 0 -1 0
    outer loop
      vertex 58.3543 60.95 38.3847
      vertex 56.0408 60.95 49.6113
      vertex 52.5462 60.95 48.5882
    endloop
  endfacet
  facet normal 0 -1 0
    outer loop
      vertex 73.8963 60.95 38.4977
      vertex 72.2578 60.95 50.7083
      vertex 70.7244 60.95 39.0137
    endloop
  endfacet
  facet normal 0 -1 0
    outer loop
      vertex 48.2833 60.95 42.9313
      vertex 52.5462 60.95 48.5882
      vertex 49.2655 60.95 47.2998
    endloop
  endfacet
  facet normal 0 -1 0
    outer loop
      vertex 72.2578 60.95 50.7083
      vertex 73.8963 60.95 38.4977
      vertex 76.4125 60.95 50.0829
    endloop
  endfacet
  facet normal 0 -1 0
    outer loop
      vertex 48.2833 60.95 42.9313
      vertex 49.2655 60.95 47.2998
      vertex 46.1979 60.95 45.7608
    endloop
  endfacet
  facet normal 0 -1 -0
    outer loop
      vertex 76.4125 60.95 50.0829
      vertex 73.8963 60.95 38.4977
      vertex 80.2853 60.95 49.0952
    endloop
  endfacet
  facet normal 0 -1 0
    outer loop
      vertex 43.712 60.95 42.1253
      vertex 46.1979 60.95 45.7608
      vertex 43.3427 60.95 43.986
    endloop
  endfacet
  facet normal 0 -1 0
    outer loop
      vertex 48.3841 60.95 42.3572
      vertex 52.5462 60.95 48.5882
      vertex 48.2833 60.95 42.9313
    endloop
  endfacet
  facet normal 0 -1 -0
    outer loop
      vertex 52.5462 60.95 48.5882
      vertex 48.3841 60.95 42.3572
      vertex 55.6289 60.95 37.6075
    endloop
  endfacet
  facet normal 0 -1 0
    outer loop
      vertex 76.8748 60.95 37.7356
      vertex 80.2853 60.95 49.0952
      vertex 73.8963 60.95 38.4977
    endloop
  endfacet
  facet normal 0 -1 0
    outer loop
      vertex 92.0107 60.95 40.0506
      vertex 90.2688 60.95 44.2606
      vertex 87.6964 60.95 40.8113
    endloop
  endfacet
  facet normal 0 -1 -0
    outer loop
      vertex 80.2853 60.95 49.0952
      vertex 76.8748 60.95 37.7356
      vertex 83.8819 60.95 47.7754
    endloop
  endfacet
  facet normal 0 -1 0
    outer loop
      vertex 63.6747 60.95 50.8025
      vertex 64.2213 60.95 39.2283
      vertex 67.3569 60.95 39.2642
    endloop
  endfacet
  facet normal 0 -1 0
    outer loop
      vertex 59.75 60.95 50.3544
      vertex 61.2195 60.95 38.9301
      vertex 64.2213 60.95 39.2283
    endloop
  endfacet
  facet normal 0 -1 0
    outer loop
      vertex 56.0408 60.95 49.6113
      vertex 58.3543 60.95 38.3847
      vertex 61.2195 60.95 38.9301
    endloop
  endfacet
  facet normal 0 -1 0
    outer loop
      vertex 52.5462 60.95 48.5882
      vertex 55.6289 60.95 37.6075
      vertex 58.3543 60.95 38.3847
    endloop
  endfacet
  facet normal 0 -1 0
    outer loop
      vertex 53.0463 60.95 36.6139
      vertex 48.3841 60.95 42.3572
      vertex 49.3849 60.95 36.6619
    endloop
  endfacet
  facet normal 0 -1 0
    outer loop
      vertex 48.3841 60.95 42.3572
      vertex 53.0463 60.95 36.6139
      vertex 55.6289 60.95 37.6075
    endloop
  endfacet
  facet normal 0 -1 0
    outer loop
      vertex 50.6095 60.95 35.4192
      vertex 49.3849 60.95 36.6619
      vertex 44.5415 60.95 35.8078
    endloop
  endfacet
  facet normal 0 -1 0
    outer loop
      vertex 50.6095 60.95 35.4192
      vertex 44.5415 60.95 35.8078
      vertex 44.3457 60.95 35.7733
    endloop
  endfacet
  facet normal 0 -1 0
    outer loop
      vertex 49.3849 60.95 36.6619
      vertex 50.6095 60.95 35.4192
      vertex 53.0463 60.95 36.6139
    endloop
  endfacet
  facet normal 0 -1 0
    outer loop
      vertex 90.2688 60.95 44.2606
      vertex 92.0107 60.95 40.0506
      vertex 93.0705 60.95 42.126
    endloop
  endfacet
  facet normal 0 -1 0
    outer loop
      vertex 92.734 60.95 39.923
      vertex 93.0705 60.95 42.126
      vertex 92.0107 60.95 40.0506
    endloop
  endfacet
  facet normal 0 -1 0
    outer loop
      vertex 92.734 60.95 39.923
      vertex 95.6184 60.95 39.7803
      vertex 93.0705 60.95 42.126
    endloop
  endfacet
  facet normal 0 -1 0
    outer loop
      vertex 91.6306 60.95 33.6657
      vertex 95.6184 60.95 39.7803
      vertex 92.734 60.95 39.923
    endloop
  endfacet
  facet normal 0 -1 -0
    outer loop
      vertex 95.6184 60.95 39.7803
      vertex 91.6306 60.95 33.6657
      vertex 97.9182 60.95 37.2538
    endloop
  endfacet
  facet normal 0 -1 -0
    outer loop
      vertex 97.9182 60.95 37.2538
      vertex 91.6306 60.95 33.6657
      vertex 99.9756 60.95 34.5766
    endloop
  endfacet
  facet normal 0 -1 0
    outer loop
      vertex 88.9486 60.95 30.9234
      vertex 91.6306 60.95 33.6657
      vertex 86.9021 60.95 32.6207
    endloop
  endfacet
  facet normal 0 -1 0
    outer loop
      vertex 90.8157 60.95 29.0979
      vertex 91.6306 60.95 33.6657
      vertex 88.9486 60.95 30.9234
    endloop
  endfacet
  facet normal 0 -1 0
    outer loop
      vertex 92.5056 60.95 27.1639
      vertex 91.6306 60.95 33.6657
      vertex 90.8157 60.95 29.0979
    endloop
  endfacet
  facet normal 0 -1 0
    outer loop
      vertex 91.6306 60.95 33.6657
      vertex 92.5056 60.95 27.1639
      vertex 99.9756 60.95 34.5766
    endloop
  endfacet
  facet normal 0 -1 -0
    outer loop
      vertex 99.9756 60.95 34.5766
      vertex 92.5056 60.95 27.1639
      vertex 101.796 60.95 31.7791
    endloop
  endfacet
  facet normal 0 -1 0
    outer loop
      vertex 94.0206 60.95 25.141
      vertex 101.796 60.95 31.7791
      vertex 92.5056 60.95 27.1639
    endloop
  endfacet
  facet normal 0 -1 -0
    outer loop
      vertex 101.796 60.95 31.7791
      vertex 94.0206 60.95 25.141
      vertex 103.386 60.95 28.8914
    endloop
  endfacet
  facet normal 0 -1 0
    outer loop
      vertex 95.363 60.95 23.0488
      vertex 103.386 60.95 28.8914
      vertex 94.0206 60.95 25.141
    endloop
  endfacet
  facet normal 0 -1 0
    outer loop
      vertex 103.386 60.95 28.8914
      vertex 95.363 60.95 23.0488
      vertex 100.482 60.95 21.8137
    endloop
  endfacet
  facet normal 0 -1 -0
    outer loop
      vertex 103.386 60.95 28.8914
      vertex 100.482 60.95 21.8137
      vertex 104.75 60.95 25.9438
    endloop
  endfacet
  facet normal 0 -1 0
    outer loop
      vertex 104.018 60.95 21.1901
      vertex 104.75 60.95 25.9438
      vertex 100.482 60.95 21.8137
    endloop
  endfacet
  facet normal 0 -1 0
    outer loop
      vertex 96.5351 60.95 20.907
      vertex 100.482 60.95 21.8137
      vertex 95.363 60.95 23.0488
    endloop
  endfacet
  facet normal 0 -1 0
    outer loop
      vertex 97.5392 60.95 18.7352
      vertex 100.482 60.95 21.8137
      vertex 96.5351 60.95 20.907
    endloop
  endfacet
  facet normal 0 -1 0
    outer loop
      vertex 99.5183 60.95 16.349
      vertex 97.5392 60.95 18.7352
      vertex 98.3777 60.95 16.553
    endloop
  endfacet
  facet normal 0 -1 0
    outer loop
      vertex 97.5392 60.95 18.7352
      vertex 99.5183 60.95 16.349
      vertex 100.482 60.95 21.8137
    endloop
  endfacet
  facet normal 0 -1 0
    outer loop
      vertex 98.3777 60.95 16.553
      vertex 99.3785 60.95 15.5563
      vertex 99.5183 60.95 16.349
    endloop
  endfacet
  facet normal 0 -1 -0
    outer loop
      vertex 99.3785 60.95 15.5563
      vertex 99.0527 60.95 14.3801
      vertex 103.548 60.95 14.8212
    endloop
  endfacet
  facet normal 0 -1 0
    outer loop
      vertex 99.0527 60.95 14.3801
      vertex 99.3785 60.95 15.5563
      vertex 98.3777 60.95 16.553
    endloop
  endfacet
  facet normal 0 -1 0
    outer loop
      vertex 79.6624 60.95 36.7473
      vertex 83.8819 60.95 47.7754
      vertex 76.8748 60.95 37.7356
    endloop
  endfacet
  facet normal -0 -1 0
    outer loop
      vertex 87.6964 60.95 40.8113
      vertex 83.8819 60.95 47.7754
      vertex 79.6624 60.95 36.7473
    endloop
  endfacet
  facet normal 0 -1 0
    outer loop
      vertex 87.2079 60.95 46.1538
      vertex 87.6964 60.95 40.8113
      vertex 90.2688 60.95 44.2606
    endloop
  endfacet
  facet normal 0 -1 0
    outer loop
      vertex 83.8819 60.95 47.7754
      vertex 87.6964 60.95 40.8113
      vertex 87.2079 60.95 46.1538
    endloop
  endfacet
  facet normal 0 -1 0
    outer loop
      vertex 82.2612 60.95 35.5523
      vertex 87.6964 60.95 40.8113
      vertex 79.6624 60.95 36.7473
    endloop
  endfacet
  facet normal 0 -1 0
    outer loop
      vertex 82.2612 60.95 35.5523
      vertex 86.7254 60.95 35.3044
      vertex 87.6964 60.95 40.8113
    endloop
  endfacet
  facet normal 0 -1 0
    outer loop
      vertex 84.6737 60.95 34.1702
      vertex 86.7254 60.95 35.3044
      vertex 82.2612 60.95 35.5523
    endloop
  endfacet
  facet normal 0 -1 0
    outer loop
      vertex 86.7254 60.95 35.3044
      vertex 84.6737 60.95 34.1702
      vertex 86.5931 60.95 34.554
    endloop
  endfacet
  facet normal 0 -1 0
    outer loop
      vertex 86.9021 60.95 32.6207
      vertex 86.5931 60.95 34.554
      vertex 84.6737 60.95 34.1702
    endloop
  endfacet
  facet normal 0 -1 0
    outer loop
      vertex 86.5931 60.95 34.554
      vertex 86.9021 60.95 32.6207
      vertex 91.6306 60.95 33.6657
    endloop
  endfacet
  facet normal 0 -1 0
    outer loop
      vertex 33.3188 60.95 22.5849
      vertex 36.725 60.95 20.4643
      vertex 37.8869 60.95 22.7152
    endloop
  endfacet
  facet normal 0 -1 0
    outer loop
      vertex 33.3188 60.95 22.5849
      vertex 35.7359 60.95 18.1504
      vertex 36.725 60.95 20.4643
    endloop
  endfacet
  facet normal 0 -1 0
    outer loop
      vertex 34.4281 60.95 16.3168
      vertex 35.7359 60.95 18.1504
      vertex 33.3188 60.95 22.5849
    endloop
  endfacet
  facet normal 0 -1 0
    outer loop
      vertex 34.4281 60.95 16.3168
      vertex 34.9228 60.95 15.7889
      vertex 35.7359 60.95 18.1504
    endloop
  endfacet
  facet normal 0 -1 0
    outer loop
      vertex 34.2887 60.95 13.3951
      vertex 34.4281 60.95 16.3168
      vertex 30.7704 60.95 15.6719
    endloop
  endfacet
  facet normal 0 -1 0
    outer loop
      vertex 34.2887 60.95 13.3951
      vertex 30.7704 60.95 15.6719
      vertex 30.2588 60.95 15.5817
    endloop
  endfacet
  facet normal 0 -1 -0
    outer loop
      vertex 34.4281 60.95 16.3168
      vertex 34.2887 60.95 13.3951
      vertex 34.9228 60.95 15.7889
    endloop
  endfacet
  facet normal 0 -1 -0
    outer loop
      vertex 104.75 60.95 25.9438
      vertex 104.018 60.95 21.1901
      vertex 105.894 60.95 22.9665
    endloop
  endfacet
  facet normal 0 -1 0
    outer loop
      vertex 104.651 60.95 21.0786
      vertex 105.894 60.95 22.9665
      vertex 104.018 60.95 21.1901
    endloop
  endfacet
  facet normal 0 -1 0
    outer loop
      vertex 106.823 60.95 19.9898
      vertex 104.651 60.95 21.0786
      vertex 104.488 60.95 20.1556
    endloop
  endfacet
  facet normal 0 -1 0
    outer loop
      vertex 104.651 60.95 21.0786
      vertex 106.823 60.95 19.9898
      vertex 105.894 60.95 22.9665
    endloop
  endfacet
  facet normal 0 -1 0
    outer loop
      vertex 104.488 60.95 20.1556
      vertex 107.545 60.95 17.044
      vertex 106.823 60.95 19.9898
    endloop
  endfacet
  facet normal 0 -1 0
    outer loop
      vertex 103.548 60.95 14.8212
      vertex 107.545 60.95 17.044
      vertex 104.488 60.95 20.1556
    endloop
  endfacet
  facet normal 0 -1 0
    outer loop
      vertex 103.548 60.95 14.8212
      vertex 108.063 60.95 14.1592
      vertex 107.545 60.95 17.044
    endloop
  endfacet
  facet normal 0 -1 0
    outer loop
      vertex 99.5667 60.95 12.236
      vertex 103.548 60.95 14.8212
      vertex 99.0527 60.95 14.3801
    endloop
  endfacet
  facet normal 0 -1 0
    outer loop
      vertex 99.922 60.95 10.1405
      vertex 103.548 60.95 14.8212
      vertex 99.5667 60.95 12.236
    endloop
  endfacet
  facet normal 0 -1 0
    outer loop
      vertex 103.548 60.95 14.8212
      vertex 108.383 60.95 11.3657
      vertex 108.063 60.95 14.1592
    endloop
  endfacet
  facet normal 0 -1 -0
    outer loop
      vertex 103.548 60.95 14.8212
      vertex 99.922 60.95 10.1405
      vertex 108.383 60.95 11.3657
    endloop
  endfacet
  facet normal 0 -1 0
    outer loop
      vertex 99.922 60.95 10.1405
      vertex 108.513 60.95 8.69374
      vertex 108.383 60.95 11.3657
    endloop
  endfacet
  facet normal 0 -1 0
    outer loop
      vertex 100.121 60.95 8.11317
      vertex 108.513 60.95 8.69374
      vertex 99.922 60.95 10.1405
    endloop
  endfacet
  facet normal 0 -1 0
    outer loop
      vertex 101.188 60.95 6.1736
      vertex 100.121 60.95 8.11317
      vertex 100.165 60.95 6.1736
    endloop
  endfacet
  facet normal 0 -1 0
    outer loop
      vertex 100.121 60.95 8.11317
      vertex 101.188 60.95 6.1736
      vertex 108.513 60.95 8.69374
    endloop
  endfacet
  facet normal 0 -1 0
    outer loop
      vertex 107.432 60.95 6.1736
      vertex 108.513 60.95 8.69374
      vertex 101.188 60.95 6.1736
    endloop
  endfacet
  facet normal 0 -1 0
    outer loop
      vertex 108.513 60.95 8.69374
      vertex 107.432 60.95 6.1736
      vertex 108.456 60.95 6.1736
    endloop
  endfacet
  facet normal 0 0 -1
    outer loop
      vertex 32.4672 60.95 6.1736
      vertex 33.4903 67.3 6.1736
      vertex 33.4903 60.95 6.1736
    endloop
  endfacet
  facet normal -0 0 -1
    outer loop
      vertex 33.4903 67.3 6.1736
      vertex 32.4672 60.95 6.1736
      vertex 32.4672 67.3 6.1736
    endloop
  endfacet
  facet normal 0.999457 0 -0.0329605
    outer loop
      vertex 33.5694 60.95 8.57214
      vertex 33.4903 67.3 6.1736
      vertex 33.5694 67.3 8.57214
    endloop
  endfacet
  facet normal 0.999457 0 -0.0329605
    outer loop
      vertex 33.4903 67.3 6.1736
      vertex 33.5694 60.95 8.57214
      vertex 33.4903 60.95 6.1736
    endloop
  endfacet
  facet normal 0.993921 0 -0.110094
    outer loop
      vertex 33.8366 60.95 10.9844
      vertex 33.5694 67.3 8.57214
      vertex 33.8366 67.3 10.9844
    endloop
  endfacet
  facet normal 0.993921 0 -0.110094
    outer loop
      vertex 33.5694 67.3 8.57214
      vertex 33.8366 60.95 10.9844
      vertex 33.5694 60.95 8.57214
    endloop
  endfacet
  facet normal 0.982865 0 -0.184325
    outer loop
      vertex 34.2887 60.95 13.3951
      vertex 33.8366 67.3 10.9844
      vertex 34.2887 67.3 13.3951
    endloop
  endfacet
  facet normal 0.982865 0 -0.184325
    outer loop
      vertex 33.8366 67.3 10.9844
      vertex 34.2887 60.95 13.3951
      vertex 33.8366 60.95 10.9844
    endloop
  endfacet
  facet normal 0.966661 0 -0.256061
    outer loop
      vertex 34.9228 60.95 15.7889
      vertex 34.2887 67.3 13.3951
      vertex 34.9228 67.3 15.7889
    endloop
  endfacet
  facet normal 0.966661 0 -0.256061
    outer loop
      vertex 34.2887 67.3 13.3951
      vertex 34.9228 60.95 15.7889
      vertex 34.2887 60.95 13.3951
    endloop
  endfacet
  facet normal 0.945522 0 -0.325558
    outer loop
      vertex 35.7359 60.95 18.1504
      vertex 34.9228 67.3 15.7889
      vertex 35.7359 67.3 18.1504
    endloop
  endfacet
  facet normal 0.945522 0 -0.325558
    outer loop
      vertex 34.9228 67.3 15.7889
      vertex 35.7359 60.95 18.1504
      vertex 34.9228 60.95 15.7889
    endloop
  endfacet
  facet normal 0.919515 0 -0.393056
    outer loop
      vertex 36.725 60.95 20.4643
      vertex 35.7359 67.3 18.1504
      vertex 36.725 67.3 20.4643
    endloop
  endfacet
  facet normal 0.919515 0 -0.393056
    outer loop
      vertex 35.7359 67.3 18.1504
      vertex 36.725 60.95 20.4643
      vertex 35.7359 60.95 18.1504
    endloop
  endfacet
  facet normal 0.888597 0 -0.458688
    outer loop
      vertex 37.8869 60.95 22.7152
      vertex 36.725 67.3 20.4643
      vertex 37.8869 67.3 22.7152
    endloop
  endfacet
  facet normal 0.888597 0 -0.458688
    outer loop
      vertex 36.725 67.3 20.4643
      vertex 37.8869 60.95 22.7152
      vertex 36.725 60.95 20.4643
    endloop
  endfacet
  facet normal 0.852548 0 -0.522649
    outer loop
      vertex 39.2188 60.95 24.8878
      vertex 37.8869 67.3 22.7152
      vertex 39.2188 67.3 24.8878
    endloop
  endfacet
  facet normal 0.852548 0 -0.522649
    outer loop
      vertex 37.8869 67.3 22.7152
      vertex 39.2188 60.95 24.8878
      vertex 37.8869 60.95 22.7152
    endloop
  endfacet
  facet normal 0.811166 0 -0.584817
    outer loop
      vertex 40.7176 60.95 26.9667
      vertex 39.2188 67.3 24.8878
      vertex 40.7176 67.3 26.9667
    endloop
  endfacet
  facet normal 0.811166 0 -0.584817
    outer loop
      vertex 39.2188 67.3 24.8878
      vertex 40.7176 60.95 26.9667
      vertex 39.2188 60.95 24.8878
    endloop
  endfacet
  facet normal 0.764177 0 -0.645006
    outer loop
      vertex 42.3803 60.95 28.9366
      vertex 40.7176 67.3 26.9667
      vertex 42.3803 67.3 28.9366
    endloop
  endfacet
  facet normal 0.764177 0 -0.645006
    outer loop
      vertex 40.7176 67.3 26.9667
      vertex 42.3803 60.95 28.9366
      vertex 40.7176 60.95 26.9667
    endloop
  endfacet
  facet normal 0.711353 0 -0.702835
    outer loop
      vertex 44.2038 60.95 30.7822
      vertex 42.3803 67.3 28.9366
      vertex 44.2038 67.3 30.7822
    endloop
  endfacet
  facet normal 0.711353 0 -0.702835
    outer loop
      vertex 42.3803 67.3 28.9366
      vertex 44.2038 60.95 30.7822
      vertex 42.3803 60.95 28.9366
    endloop
  endfacet
  facet normal 0.652434 0 -0.757845
    outer loop
      vertex 44.2038 60.95 30.7822
      vertex 46.1852 67.3 32.488
      vertex 46.1852 60.95 32.488
    endloop
  endfacet
  facet normal 0.652434 0 -0.757845
    outer loop
      vertex 46.1852 67.3 32.488
      vertex 44.2038 60.95 30.7822
      vertex 44.2038 67.3 30.7822
    endloop
  endfacet
  facet normal 0.587478 0 -0.80924
    outer loop
      vertex 46.1852 60.95 32.488
      vertex 48.3214 67.3 34.0388
      vertex 48.3214 60.95 34.0388
    endloop
  endfacet
  facet normal 0.587478 0 -0.80924
    outer loop
      vertex 48.3214 67.3 34.0388
      vertex 46.1852 60.95 32.488
      vertex 46.1852 67.3 32.488
    endloop
  endfacet
  facet normal 0.516569 0 -0.856246
    outer loop
      vertex 48.3214 60.95 34.0388
      vertex 50.6095 67.3 35.4192
      vertex 50.6095 60.95 35.4192
    endloop
  endfacet
  facet normal 0.516569 0 -0.856246
    outer loop
      vertex 50.6095 67.3 35.4192
      vertex 48.3214 60.95 34.0388
      vertex 48.3214 67.3 34.0388
    endloop
  endfacet
  facet normal 0.440214 0 -0.897893
    outer loop
      vertex 50.6095 60.95 35.4192
      vertex 53.0463 67.3 36.6139
      vertex 53.0463 60.95 36.6139
    endloop
  endfacet
  facet normal 0.440214 0 -0.897893
    outer loop
      vertex 53.0463 67.3 36.6139
      vertex 50.6095 60.95 35.4192
      vertex 50.6095 67.3 35.4192
    endloop
  endfacet
  facet normal 0.359071 0 -0.93331
    outer loop
      vertex 53.0463 60.95 36.6139
      vertex 55.6289 67.3 37.6075
      vertex 55.6289 60.95 37.6075
    endloop
  endfacet
  facet normal 0.359071 0 -0.93331
    outer loop
      vertex 55.6289 67.3 37.6075
      vertex 53.0463 60.95 36.6139
      vertex 53.0463 67.3 36.6139
    endloop
  endfacet
  facet normal 0.274236 0 -0.961662
    outer loop
      vertex 55.6289 60.95 37.6075
      vertex 58.3543 67.3 38.3847
      vertex 58.3543 60.95 38.3847
    endloop
  endfacet
  facet normal 0.274236 0 -0.961662
    outer loop
      vertex 58.3543 67.3 38.3847
      vertex 55.6289 60.95 37.6075
      vertex 55.6289 67.3 37.6075
    endloop
  endfacet
  facet normal 0.186996 0 -0.982361
    outer loop
      vertex 58.3543 60.95 38.3847
      vertex 61.2195 67.3 38.9301
      vertex 61.2195 60.95 38.9301
    endloop
  endfacet
  facet normal 0.186996 0 -0.982361
    outer loop
      vertex 61.2195 67.3 38.9301
      vertex 58.3543 60.95 38.3847
      vertex 58.3543 67.3 38.3847
    endloop
  endfacet
  facet normal 0.0988538 0 -0.995102
    outer loop
      vertex 61.2195 60.95 38.9301
      vertex 64.2213 67.3 39.2283
      vertex 64.2213 60.95 39.2283
    endloop
  endfacet
  facet normal 0.0988538 0 -0.995102
    outer loop
      vertex 64.2213 67.3 39.2283
      vertex 61.2195 60.95 38.9301
      vertex 61.2195 67.3 38.9301
    endloop
  endfacet
  facet normal 0.0114484 0 -0.999934
    outer loop
      vertex 64.2213 60.95 39.2283
      vertex 67.3569 67.3 39.2642
      vertex 67.3569 60.95 39.2642
    endloop
  endfacet
  facet normal 0.0114484 0 -0.999934
    outer loop
      vertex 67.3569 67.3 39.2642
      vertex 64.2213 60.95 39.2283
      vertex 64.2213 67.3 39.2283
    endloop
  endfacet
  facet normal -0.0741826 0 -0.997245
    outer loop
      vertex 67.3569 60.95 39.2642
      vertex 70.7244 67.3 39.0137
      vertex 70.7244 60.95 39.0137
    endloop
  endfacet
  facet normal -0.0741826 0 -0.997245
    outer loop
      vertex 70.7244 67.3 39.0137
      vertex 67.3569 60.95 39.2642
      vertex 67.3569 67.3 39.2642
    endloop
  endfacet
  facet normal -0.160568 0 -0.987025
    outer loop
      vertex 70.7244 60.95 39.0137
      vertex 73.8963 67.3 38.4977
      vertex 73.8963 60.95 38.4977
    endloop
  endfacet
  facet normal -0.160568 0 -0.987025
    outer loop
      vertex 73.8963 67.3 38.4977
      vertex 70.7244 60.95 39.0137
      vertex 70.7244 67.3 39.0137
    endloop
  endfacet
  facet normal -0.247882 0 -0.96879
    outer loop
      vertex 73.8963 60.95 38.4977
      vertex 76.8748 67.3 37.7356
      vertex 76.8748 60.95 37.7356
    endloop
  endfacet
  facet normal -0.247882 0 -0.96879
    outer loop
      vertex 76.8748 67.3 37.7356
      vertex 73.8963 60.95 38.4977
      vertex 73.8963 67.3 38.4977
    endloop
  endfacet
  facet normal -0.334155 0 -0.942518
    outer loop
      vertex 76.8748 60.95 37.7356
      vertex 79.6624 67.3 36.7473
      vertex 79.6624 60.95 36.7473
    endloop
  endfacet
  facet normal -0.334155 0 -0.942518
    outer loop
      vertex 79.6624 67.3 36.7473
      vertex 76.8748 60.95 37.7356
      vertex 76.8748 67.3 37.7356
    endloop
  endfacet
  facet normal -0.417776 0 -0.90855
    outer loop
      vertex 79.6624 60.95 36.7473
      vertex 82.2612 67.3 35.5523
      vertex 82.2612 60.95 35.5523
    endloop
  endfacet
  facet normal -0.417776 0 -0.90855
    outer loop
      vertex 82.2612 67.3 35.5523
      vertex 79.6624 60.95 36.7473
      vertex 79.6624 67.3 36.7473
    endloop
  endfacet
  facet normal -0.497095 0 -0.867696
    outer loop
      vertex 82.2612 60.95 35.5523
      vertex 84.6737 67.3 34.1702
      vertex 84.6737 60.95 34.1702
    endloop
  endfacet
  facet normal -0.497095 0 -0.867696
    outer loop
      vertex 84.6737 67.3 34.1702
      vertex 82.2612 60.95 35.5523
      vertex 82.2612 67.3 35.5523
    endloop
  endfacet
  facet normal -0.570893 0 -0.821025
    outer loop
      vertex 84.6737 60.95 34.1702
      vertex 86.9021 67.3 32.6207
      vertex 86.9021 60.95 32.6207
    endloop
  endfacet
  facet normal -0.570893 0 -0.821025
    outer loop
      vertex 86.9021 67.3 32.6207
      vertex 84.6737 60.95 34.1702
      vertex 84.6737 67.3 34.1702
    endloop
  endfacet
  facet normal -0.638381 0 -0.769721
    outer loop
      vertex 86.9021 60.95 32.6207
      vertex 88.9486 67.3 30.9234
      vertex 88.9486 60.95 30.9234
    endloop
  endfacet
  facet normal -0.638381 0 -0.769721
    outer loop
      vertex 88.9486 67.3 30.9234
      vertex 86.9021 60.95 32.6207
      vertex 86.9021 67.3 32.6207
    endloop
  endfacet
  facet normal -0.699096 0 -0.715028
    outer loop
      vertex 88.9486 60.95 30.9234
      vertex 90.8157 67.3 29.0979
      vertex 90.8157 60.95 29.0979
    endloop
  endfacet
  facet normal -0.699096 0 -0.715028
    outer loop
      vertex 90.8157 67.3 29.0979
      vertex 88.9486 60.95 30.9234
      vertex 88.9486 67.3 30.9234
    endloop
  endfacet
  facet normal -0.75303 0 -0.657986
    outer loop
      vertex 92.5056 60.95 27.1639
      vertex 90.8157 67.3 29.0979
      vertex 92.5056 67.3 27.1639
    endloop
  endfacet
  facet normal -0.75303 -0 -0.657986
    outer loop
      vertex 90.8157 67.3 29.0979
      vertex 92.5056 60.95 27.1639
      vertex 90.8157 60.95 29.0979
    endloop
  endfacet
  facet normal -0.800413 0 -0.599449
    outer loop
      vertex 94.0206 60.95 25.141
      vertex 92.5056 67.3 27.1639
      vertex 94.0206 67.3 25.141
    endloop
  endfacet
  facet normal -0.800413 -0 -0.599449
    outer loop
      vertex 92.5056 67.3 27.1639
      vertex 94.0206 60.95 25.141
      vertex 92.5056 60.95 27.1639
    endloop
  endfacet
  facet normal -0.841651 0 -0.540021
    outer loop
      vertex 95.363 60.95 23.0488
      vertex 94.0206 67.3 25.141
      vertex 95.363 67.3 23.0488
    endloop
  endfacet
  facet normal -0.841651 -0 -0.540021
    outer loop
      vertex 94.0206 67.3 25.141
      vertex 95.363 60.95 23.0488
      vertex 94.0206 60.95 25.141
    endloop
  endfacet
  facet normal -0.877233 0 -0.480066
    outer loop
      vertex 96.5351 60.95 20.907
      vertex 95.363 67.3 23.0488
      vertex 96.5351 67.3 20.907
    endloop
  endfacet
  facet normal -0.877233 -0 -0.480066
    outer loop
      vertex 95.363 67.3 23.0488
      vertex 96.5351 60.95 20.907
      vertex 95.363 60.95 23.0488
    endloop
  endfacet
  facet normal -0.907684 0 -0.419654
    outer loop
      vertex 97.5392 60.95 18.7352
      vertex 96.5351 67.3 20.907
      vertex 97.5392 67.3 18.7352
    endloop
  endfacet
  facet normal -0.907684 -0 -0.419654
    outer loop
      vertex 96.5351 67.3 20.907
      vertex 97.5392 60.95 18.7352
      vertex 96.5351 60.95 20.907
    endloop
  endfacet
  facet normal -0.933461 0 -0.358678
    outer loop
      vertex 98.3777 60.95 16.553
      vertex 97.5392 67.3 18.7352
      vertex 98.3777 67.3 16.553
    endloop
  endfacet
  facet normal -0.933461 -0 -0.358678
    outer loop
      vertex 97.5392 67.3 18.7352
      vertex 98.3777 60.95 16.553
      vertex 97.5392 60.95 18.7352
    endloop
  endfacet
  facet normal -0.954983 0 -0.29666
    outer loop
      vertex 99.0527 60.95 14.3801
      vertex 98.3777 67.3 16.553
      vertex 99.0527 67.3 14.3801
    endloop
  endfacet
  facet normal -0.954983 -0 -0.29666
    outer loop
      vertex 98.3777 67.3 16.553
      vertex 99.0527 60.95 14.3801
      vertex 98.3777 60.95 16.553
    endloop
  endfacet
  facet normal -0.972447 0 -0.233122
    outer loop
      vertex 99.5667 60.95 12.236
      vertex 99.0527 67.3 14.3801
      vertex 99.5667 67.3 12.236
    endloop
  endfacet
  facet normal -0.972447 -0 -0.233122
    outer loop
      vertex 99.0527 67.3 14.3801
      vertex 99.5667 60.95 12.236
      vertex 99.0527 60.95 14.3801
    endloop
  endfacet
  facet normal -0.985928 0 -0.167168
    outer loop
      vertex 99.922 60.95 10.1405
      vertex 99.5667 67.3 12.236
      vertex 99.922 67.3 10.1405
    endloop
  endfacet
  facet normal -0.985928 -0 -0.167168
    outer loop
      vertex 99.5667 67.3 12.236
      vertex 99.922 60.95 10.1405
      vertex 99.5667 60.95 12.236
    endloop
  endfacet
  facet normal -0.995217 0 -0.0976892
    outer loop
      vertex 100.121 60.95 8.11317
      vertex 99.922 67.3 10.1405
      vertex 100.121 67.3 8.11317
    endloop
  endfacet
  facet normal -0.995217 -0 -0.0976892
    outer loop
      vertex 99.922 67.3 10.1405
      vertex 100.121 60.95 8.11317
      vertex 99.922 60.95 10.1405
    endloop
  endfacet
  facet normal -0.999743 0 -0.0226796
    outer loop
      vertex 100.165 60.95 6.1736
      vertex 100.121 67.3 8.11317
      vertex 100.165 67.3 6.1736
    endloop
  endfacet
  facet normal -0.999743 -0 -0.0226796
    outer loop
      vertex 100.121 67.3 8.11317
      vertex 100.165 60.95 6.1736
      vertex 100.121 60.95 8.11317
    endloop
  endfacet
  facet normal 0 0 -1
    outer loop
      vertex 100.165 60.95 6.1736
      vertex 101.188 67.3 6.1736
      vertex 101.188 60.95 6.1736
    endloop
  endfacet
  facet normal -0 0 -1
    outer loop
      vertex 101.188 67.3 6.1736
      vertex 100.165 60.95 6.1736
      vertex 100.165 67.3 6.1736
    endloop
  endfacet
  facet normal -1 0 0
    outer loop
      vertex 101.188 60.95 -0.0705414
      vertex 101.188 67.3 6.1736
      vertex 101.188 67.3 -0.0705414
    endloop
  endfacet
  facet normal -1 -0 0
    outer loop
      vertex 101.188 67.3 6.1736
      vertex 101.188 60.95 -0.0705414
      vertex 101.188 60.95 6.1736
    endloop
  endfacet
  facet normal 0.0112967 0 -0.999936
    outer loop
      vertex 101.188 60.95 -0.0705414
      vertex 107.432 67.3 0
      vertex 107.432 60.95 0
    endloop
  endfacet
  facet normal 0.0112967 0 -0.999936
    outer loop
      vertex 107.432 67.3 0
      vertex 101.188 60.95 -0.0705414
      vertex 101.188 67.3 -0.0705414
    endloop
  endfacet
  facet normal 1 -0 0
    outer loop
      vertex 107.432 60.95 6.1736
      vertex 107.432 67.3 0
      vertex 107.432 67.3 6.1736
    endloop
  endfacet
  facet normal 1 0 0
    outer loop
      vertex 107.432 67.3 0
      vertex 107.432 60.95 6.1736
      vertex 107.432 60.95 0
    endloop
  endfacet
  facet normal 0 0 -1
    outer loop
      vertex 107.432 60.95 6.1736
      vertex 108.456 67.3 6.1736
      vertex 108.456 60.95 6.1736
    endloop
  endfacet
  facet normal -0 0 -1
    outer loop
      vertex 108.456 67.3 6.1736
      vertex 107.432 60.95 6.1736
      vertex 107.432 67.3 6.1736
    endloop
  endfacet
  facet normal 0.999744 0 -0.022612
    outer loop
      vertex 108.513 60.95 8.69374
      vertex 108.456 67.3 6.1736
      vertex 108.513 67.3 8.69374
    endloop
  endfacet
  facet normal 0.999744 0 -0.022612
    outer loop
      vertex 108.456 67.3 6.1736
      vertex 108.513 60.95 8.69374
      vertex 108.456 60.95 6.1736
    endloop
  endfacet
  facet normal 0.998819 -0 0.0485959
    outer loop
      vertex 108.383 60.95 11.3657
      vertex 108.513 67.3 8.69374
      vertex 108.383 67.3 11.3657
    endloop
  endfacet
  facet normal 0.998819 0 0.0485959
    outer loop
      vertex 108.513 67.3 8.69374
      vertex 108.383 60.95 11.3657
      vertex 108.513 60.95 8.69374
    endloop
  endfacet
  facet normal 0.993503 -0 0.113807
    outer loop
      vertex 108.063 60.95 14.1592
      vertex 108.383 67.3 11.3657
      vertex 108.063 67.3 14.1592
    endloop
  endfacet
  facet normal 0.993503 0 0.113807
    outer loop
      vertex 108.383 67.3 11.3657
      vertex 108.063 60.95 14.1592
      vertex 108.383 60.95 11.3657
    endloop
  endfacet
  facet normal 0.984258 -0 0.176735
    outer loop
      vertex 107.545 60.95 17.044
      vertex 108.063 67.3 14.1592
      vertex 107.545 67.3 17.044
    endloop
  endfacet
  facet normal 0.984258 0 0.176735
    outer loop
      vertex 108.063 67.3 14.1592
      vertex 107.545 60.95 17.044
      vertex 108.063 60.95 14.1592
    endloop
  endfacet
  facet normal 0.971253 -0 0.238049
    outer loop
      vertex 106.823 60.95 19.9898
      vertex 107.545 67.3 17.044
      vertex 106.823 67.3 19.9898
    endloop
  endfacet
  facet normal 0.971253 0 0.238049
    outer loop
      vertex 107.545 67.3 17.044
      vertex 106.823 60.95 19.9898
      vertex 107.545 60.95 17.044
    endloop
  endfacet
  facet normal 0.954591 -0 0.297919
    outer loop
      vertex 105.894 60.95 22.9665
      vertex 106.823 67.3 19.9898
      vertex 105.894 67.3 22.9665
    endloop
  endfacet
  facet normal 0.954591 0 0.297919
    outer loop
      vertex 106.823 67.3 19.9898
      vertex 105.894 60.95 22.9665
      vertex 106.823 60.95 19.9898
    endloop
  endfacet
  facet normal 0.933463 -0 0.358674
    outer loop
      vertex 104.75 60.95 25.9438
      vertex 105.894 67.3 22.9665
      vertex 104.75 67.3 25.9438
    endloop
  endfacet
  facet normal 0.933463 0 0.358674
    outer loop
      vertex 105.894 67.3 22.9665
      vertex 104.75 60.95 25.9438
      vertex 105.894 60.95 22.9665
    endloop
  endfacet
  facet normal 0.907541 -0 0.419964
    outer loop
      vertex 103.386 60.95 28.8914
      vertex 104.75 67.3 25.9438
      vertex 103.386 67.3 28.8914
    endloop
  endfacet
  facet normal 0.907541 0 0.419964
    outer loop
      vertex 104.75 67.3 25.9438
      vertex 103.386 60.95 28.8914
      vertex 104.75 60.95 25.9438
    endloop
  endfacet
  facet normal 0.87599 -0 0.48233
    outer loop
      vertex 101.796 60.95 31.7791
      vertex 103.386 67.3 28.8914
      vertex 101.796 67.3 31.7791
    endloop
  endfacet
  facet normal 0.87599 0 0.48233
    outer loop
      vertex 103.386 67.3 28.8914
      vertex 101.796 60.95 31.7791
      vertex 103.386 60.95 28.8914
    endloop
  endfacet
  facet normal 0.838166 -0 0.545415
    outer loop
      vertex 99.9756 60.95 34.5766
      vertex 101.796 67.3 31.7791
      vertex 99.9756 67.3 34.5766
    endloop
  endfacet
  facet normal 0.838166 0 0.545415
    outer loop
      vertex 101.796 67.3 31.7791
      vertex 99.9756 60.95 34.5766
      vertex 101.796 60.95 31.7791
    endloop
  endfacet
  facet normal 0.792908 -0 0.609341
    outer loop
      vertex 97.9182 60.95 37.2538
      vertex 99.9756 67.3 34.5766
      vertex 97.9182 67.3 37.2538
    endloop
  endfacet
  facet normal 0.792908 0 0.609341
    outer loop
      vertex 99.9756 67.3 34.5766
      vertex 97.9182 60.95 37.2538
      vertex 99.9756 60.95 34.5766
    endloop
  endfacet
  facet normal 0.739506 -0 0.673151
    outer loop
      vertex 95.6184 60.95 39.7803
      vertex 97.9182 67.3 37.2538
      vertex 95.6184 67.3 39.7803
    endloop
  endfacet
  facet normal 0.739506 0 0.673151
    outer loop
      vertex 97.9182 67.3 37.2538
      vertex 95.6184 60.95 39.7803
      vertex 97.9182 60.95 37.2538
    endloop
  endfacet
  facet normal 0.677312 0 0.735696
    outer loop
      vertex 93.0705 67.3 42.126
      vertex 95.6184 60.95 39.7803
      vertex 95.6184 67.3 39.7803
    endloop
  endfacet
  facet normal 0.677312 0 0.735696
    outer loop
      vertex 95.6184 60.95 39.7803
      vertex 93.0705 67.3 42.126
      vertex 93.0705 60.95 42.126
    endloop
  endfacet
  facet normal 0.606038 0 0.795436
    outer loop
      vertex 90.2688 67.3 44.2606
      vertex 93.0705 60.95 42.126
      vertex 93.0705 67.3 42.126
    endloop
  endfacet
  facet normal 0.606038 0 0.795436
    outer loop
      vertex 93.0705 60.95 42.126
      vertex 90.2688 67.3 44.2606
      vertex 90.2688 60.95 44.2606
    endloop
  endfacet
  facet normal 0.526025 0 0.850469
    outer loop
      vertex 87.2079 67.3 46.1538
      vertex 90.2688 60.95 44.2606
      vertex 90.2688 67.3 44.2606
    endloop
  endfacet
  facet normal 0.526025 0 0.850469
    outer loop
      vertex 90.2688 60.95 44.2606
      vertex 87.2079 67.3 46.1538
      vertex 87.2079 60.95 46.1538
    endloop
  endfacet
  facet normal 0.43824 0 0.898858
    outer loop
      vertex 83.8819 67.3 47.7754
      vertex 87.2079 60.95 46.1538
      vertex 87.2079 67.3 46.1538
    endloop
  endfacet
  facet normal 0.43824 0 0.898858
    outer loop
      vertex 87.2079 60.95 46.1538
      vertex 83.8819 67.3 47.7754
      vertex 83.8819 60.95 47.7754
    endloop
  endfacet
  facet normal 0.344495 0 0.938788
    outer loop
      vertex 80.2853 67.3 49.0952
      vertex 83.8819 60.95 47.7754
      vertex 83.8819 67.3 47.7754
    endloop
  endfacet
  facet normal 0.344495 0 0.938788
    outer loop
      vertex 83.8819 60.95 47.7754
      vertex 80.2853 67.3 49.0952
      vertex 80.2853 60.95 49.0952
    endloop
  endfacet
  facet normal 0.247125 0 0.968984
    outer loop
      vertex 76.4125 67.3 50.0829
      vertex 80.2853 60.95 49.0952
      vertex 80.2853 67.3 49.0952
    endloop
  endfacet
  facet normal 0.247125 0 0.968984
    outer loop
      vertex 80.2853 60.95 49.0952
      vertex 76.4125 67.3 50.0829
      vertex 76.4125 60.95 50.0829
    endloop
  endfacet
  facet normal 0.148851 0 0.98886
    outer loop
      vertex 72.2578 67.3 50.7083
      vertex 76.4125 60.95 50.0829
      vertex 76.4125 67.3 50.0829
    endloop
  endfacet
  facet normal 0.148851 0 0.98886
    outer loop
      vertex 76.4125 60.95 50.0829
      vertex 72.2578 67.3 50.7083
      vertex 72.2578 60.95 50.7083
    endloop
  endfacet
  facet normal 0.0523346 0 0.99863
    outer loop
      vertex 67.8156 67.3 50.9411
      vertex 72.2578 60.95 50.7083
      vertex 72.2578 67.3 50.7083
    endloop
  endfacet
  facet normal 0.0523346 0 0.99863
    outer loop
      vertex 72.2578 60.95 50.7083
      vertex 67.8156 67.3 50.9411
      vertex 67.8156 60.95 50.9411
    endloop
  endfacet
  facet normal -0.0334523 0 0.99944
    outer loop
      vertex 63.6747 67.3 50.8025
      vertex 67.8156 60.95 50.9411
      vertex 67.8156 67.3 50.9411
    endloop
  endfacet
  facet normal -0.0334523 0 0.99944
    outer loop
      vertex 67.8156 60.95 50.9411
      vertex 63.6747 67.3 50.8025
      vertex 63.6747 60.95 50.8025
    endloop
  endfacet
  facet normal -0.113437 0 0.993545
    outer loop
      vertex 59.75 67.3 50.3544
      vertex 63.6747 60.95 50.8025
      vertex 63.6747 67.3 50.8025
    endloop
  endfacet
  facet normal -0.113437 0 0.993545
    outer loop
      vertex 63.6747 60.95 50.8025
      vertex 59.75 67.3 50.3544
      vertex 59.75 60.95 50.3544
    endloop
  endfacet
  facet normal -0.196436 0 0.980517
    outer loop
      vertex 56.0408 67.3 49.6113
      vertex 59.75 60.95 50.3544
      vertex 59.75 67.3 50.3544
    endloop
  endfacet
  facet normal -0.196436 0 0.980517
    outer loop
      vertex 59.75 60.95 50.3544
      vertex 56.0408 67.3 49.6113
      vertex 56.0408 60.95 49.6113
    endloop
  endfacet
  facet normal -0.280972 0 0.959716
    outer loop
      vertex 52.5462 67.3 48.5882
      vertex 56.0408 60.95 49.6113
      vertex 56.0408 67.3 49.6113
    endloop
  endfacet
  facet normal -0.280972 0 0.959716
    outer loop
      vertex 56.0408 60.95 49.6113
      vertex 52.5462 67.3 48.5882
      vertex 52.5462 60.95 48.5882
    endloop
  endfacet
  facet normal -0.365543 0 0.930795
    outer loop
      vertex 49.2655 67.3 47.2998
      vertex 52.5462 60.95 48.5882
      vertex 52.5462 67.3 48.5882
    endloop
  endfacet
  facet normal -0.365543 0 0.930795
    outer loop
      vertex 52.5462 60.95 48.5882
      vertex 49.2655 67.3 47.2998
      vertex 49.2655 60.95 47.2998
    endloop
  endfacet
  facet normal -0.448425 0 0.89382
    outer loop
      vertex 46.1979 67.3 45.7608
      vertex 49.2655 60.95 47.2998
      vertex 49.2655 67.3 47.2998
    endloop
  endfacet
  facet normal -0.448425 0 0.89382
    outer loop
      vertex 49.2655 60.95 47.2998
      vertex 46.1979 67.3 45.7608
      vertex 46.1979 60.95 45.7608
    endloop
  endfacet
  facet normal -0.527923 0 0.849293
    outer loop
      vertex 43.3427 67.3 43.986
      vertex 46.1979 60.95 45.7608
      vertex 46.1979 67.3 45.7608
    endloop
  endfacet
  facet normal -0.527923 0 0.849293
    outer loop
      vertex 46.1979 60.95 45.7608
      vertex 43.3427 67.3 43.986
      vertex 43.3427 60.95 43.986
    endloop
  endfacet
  facet normal -0.602547 0 0.798083
    outer loop
      vertex 40.6991 67.3 41.9901
      vertex 43.3427 60.95 43.986
      vertex 43.3427 67.3 43.986
    endloop
  endfacet
  facet normal -0.602547 0 0.798083
    outer loop
      vertex 43.3427 60.95 43.986
      vertex 40.6991 67.3 41.9901
      vertex 40.6991 60.95 41.9901
    endloop
  endfacet
  facet normal -0.67108 0 0.741385
    outer loop
      vertex 38.2663 67.3 39.788
      vertex 40.6991 60.95 41.9901
      vertex 40.6991 67.3 41.9901
    endloop
  endfacet
  facet normal -0.67108 0 0.741385
    outer loop
      vertex 40.6991 60.95 41.9901
      vertex 38.2663 67.3 39.788
      vertex 38.2663 60.95 39.788
    endloop
  endfacet
  facet normal -0.732767 0 0.680479
    outer loop
      vertex 36.0435 60.95 37.3944
      vertex 38.2663 67.3 39.788
      vertex 36.0435 67.3 37.3944
    endloop
  endfacet
  facet normal -0.732767 0 0.680479
    outer loop
      vertex 38.2663 67.3 39.788
      vertex 36.0435 60.95 37.3944
      vertex 38.2663 60.95 39.788
    endloop
  endfacet
  facet normal -0.787213 0 0.616681
    outer loop
      vertex 34.03 60.95 34.8241
      vertex 36.0435 67.3 37.3944
      vertex 34.03 67.3 34.8241
    endloop
  endfacet
  facet normal -0.787213 0 0.616681
    outer loop
      vertex 36.0435 67.3 37.3944
      vertex 34.03 60.95 34.8241
      vertex 36.0435 60.95 37.3944
    endloop
  endfacet
  facet normal -0.834387 0 0.551179
    outer loop
      vertex 32.2251 60.95 32.0918
      vertex 34.03 67.3 34.8241
      vertex 32.2251 67.3 32.0918
    endloop
  endfacet
  facet normal -0.834387 0 0.551179
    outer loop
      vertex 34.03 67.3 34.8241
      vertex 32.2251 60.95 32.0918
      vertex 34.03 60.95 34.8241
    endloop
  endfacet
  facet normal -0.874489 0 0.485045
    outer loop
      vertex 30.6279 60.95 29.2122
      vertex 32.2251 67.3 32.0918
      vertex 30.6279 67.3 29.2122
    endloop
  endfacet
  facet normal -0.874489 0 0.485045
    outer loop
      vertex 32.2251 67.3 32.0918
      vertex 30.6279 60.95 29.2122
      vertex 32.2251 60.95 32.0918
    endloop
  endfacet
  facet normal -0.907943 0 0.419094
    outer loop
      vertex 29.2376 60.95 26.2002
      vertex 30.6279 67.3 29.2122
      vertex 29.2376 67.3 26.2002
    endloop
  endfacet
  facet normal -0.907943 0 0.419094
    outer loop
      vertex 30.6279 67.3 29.2122
      vertex 29.2376 60.95 26.2002
      vertex 30.6279 60.95 29.2122
    endloop
  endfacet
  facet normal -0.935303 0 0.353847
    outer loop
      vertex 28.0536 60.95 23.0706
      vertex 29.2376 67.3 26.2002
      vertex 28.0536 67.3 23.0706
    endloop
  endfacet
  facet normal -0.935303 0 0.353847
    outer loop
      vertex 29.2376 67.3 26.2002
      vertex 28.0536 60.95 23.0706
      vertex 29.2376 60.95 26.2002
    endloop
  endfacet
  facet normal -0.957113 0 0.289716
    outer loop
      vertex 27.0751 60.95 19.838
      vertex 28.0536 67.3 23.0706
      vertex 27.0751 67.3 19.838
    endloop
  endfacet
  facet normal -0.957113 0 0.289716
    outer loop
      vertex 28.0536 67.3 23.0706
      vertex 27.0751 60.95 19.838
      vertex 28.0536 60.95 23.0706
    endloop
  endfacet
  facet normal -0.973903 0 0.226964
    outer loop
      vertex 26.3012 60.95 16.5172
      vertex 27.0751 67.3 19.838
      vertex 26.3012 67.3 16.5172
    endloop
  endfacet
  facet normal -0.973903 0 0.226964
    outer loop
      vertex 27.0751 67.3 19.838
      vertex 26.3012 60.95 16.5172
      vertex 27.0751 60.95 19.838
    endloop
  endfacet
  facet normal -0.986191 0 0.165614
    outer loop
      vertex 25.7312 60.95 13.123
      vertex 26.3012 67.3 16.5172
      vertex 25.7312 67.3 13.123
    endloop
  endfacet
  facet normal -0.986191 0 0.165614
    outer loop
      vertex 26.3012 67.3 16.5172
      vertex 25.7312 60.95 13.123
      vertex 26.3012 60.95 16.5172
    endloop
  endfacet
  facet normal -0.994404 0 0.10564
    outer loop
      vertex 25.3644 60.95 9.67026
      vertex 25.7312 67.3 13.123
      vertex 25.3644 67.3 9.67026
    endloop
  endfacet
  facet normal -0.994404 0 0.10564
    outer loop
      vertex 25.7312 67.3 13.123
      vertex 25.3644 60.95 9.67026
      vertex 25.7312 60.95 13.123
    endloop
  endfacet
  facet normal -0.998897 0 0.0469644
    outer loop
      vertex 25.2 60.95 6.1736
      vertex 25.3644 67.3 9.67026
      vertex 25.2 67.3 6.1736
    endloop
  endfacet
  facet normal -0.998897 0 0.0469644
    outer loop
      vertex 25.3644 67.3 9.67026
      vertex 25.2 60.95 6.1736
      vertex 25.3644 60.95 9.67026
    endloop
  endfacet
  facet normal 0 0 -1
    outer loop
      vertex 25.2 60.95 6.1736
      vertex 26.223 67.3 6.1736
      vertex 26.223 60.95 6.1736
    endloop
  endfacet
  facet normal -0 0 -1
    outer loop
      vertex 26.223 67.3 6.1736
      vertex 25.2 60.95 6.1736
      vertex 25.2 67.3 6.1736
    endloop
  endfacet
  facet normal -1 0 0
    outer loop
      vertex 26.223 60.95 -0.0705414
      vertex 26.223 67.3 6.1736
      vertex 26.223 67.3 -0.0705414
    endloop
  endfacet
  facet normal -1 -0 0
    outer loop
      vertex 26.223 67.3 6.1736
      vertex 26.223 60.95 -0.0705414
      vertex 26.223 60.95 6.1736
    endloop
  endfacet
  facet normal 0 0 -1
    outer loop
      vertex 26.223 60.95 -0.0705414
      vertex 32.4672 67.3 -0.0705414
      vertex 32.4672 60.95 -0.0705414
    endloop
  endfacet
  facet normal -0 0 -1
    outer loop
      vertex 32.4672 67.3 -0.0705414
      vertex 26.223 60.95 -0.0705414
      vertex 26.223 67.3 -0.0705414
    endloop
  endfacet
  facet normal 1 -0 0
    outer loop
      vertex 32.4672 60.95 6.1736
      vertex 32.4672 67.3 -0.0705414
      vertex 32.4672 67.3 6.1736
    endloop
  endfacet
  facet normal 1 0 0
    outer loop
      vertex 32.4672 67.3 -0.0705414
      vertex 32.4672 60.95 6.1736
      vertex 32.4672 60.95 -0.0705414
    endloop
  endfacet
  facet normal 0.173533 -0.0349027 0.984209
    outer loop
      vertex 86.6316 67.3 34.7723
      vertex 91.6306 60.95 33.6657
      vertex 91.6691 67.3 33.8841
    endloop
  endfacet
  facet normal 0.173552 -0.0348873 0.984206
    outer loop
      vertex 91.6306 60.95 33.6657
      vertex 86.6316 67.3 34.7723
      vertex 86.5931 60.95 34.554
    endloop
  endfacet
  facet normal -0.173625 0.0349027 -0.984193
    outer loop
      vertex 92.0107 60.95 40.0506
      vertex 92.7725 67.3 40.1414
      vertex 92.734 60.95 39.923
    endloop
  endfacet
  facet normal -0.173537 0.0348924 -0.984209
    outer loop
      vertex 92.7725 67.3 40.1414
      vertex 92.0107 60.95 40.0506
      vertex 88.1718 67.3 40.9526
    endloop
  endfacet
  facet normal -0.173536 0.0348926 -0.984209
    outer loop
      vertex 87.6964 60.95 40.8113
      vertex 88.1718 67.3 40.9526
      vertex 92.0107 60.95 40.0506
    endloop
  endfacet
  facet normal -0.173679 0.0349027 -0.984184
    outer loop
      vertex 88.1718 67.3 40.9526
      vertex 87.6964 60.95 40.8113
      vertex 87.7349 67.3 41.0297
    endloop
  endfacet
  facet normal 0.984808 -3.50027e-06 -0.173646
    outer loop
      vertex 86.7254 60.95 35.3044
      vertex 86.6316 67.3 34.7723
      vertex 87.6366 67.3 40.472
    endloop
  endfacet
  facet normal 0.984811 -1.92414e-06 -0.173628
    outer loop
      vertex 86.6316 67.3 34.7723
      vertex 86.7254 60.95 35.3044
      vertex 86.5931 60.95 34.554
    endloop
  endfacet
  facet normal 0.984819 -7.5918e-07 -0.173584
    outer loop
      vertex 87.6964 60.95 40.8113
      vertex 87.6366 67.3 40.472
      vertex 87.7349 67.3 41.0297
    endloop
  endfacet
  facet normal 0.984808 -4.15903e-06 -0.173646
    outer loop
      vertex 87.6366 67.3 40.472
      vertex 87.6964 60.95 40.8113
      vertex 86.7254 60.95 35.3044
    endloop
  endfacet
  facet normal -0.984806 -1.8963e-06 0.173659
    outer loop
      vertex 92.734 60.95 39.923
      vertex 91.6691 67.3 33.8841
      vertex 91.6306 60.95 33.6657
    endloop
  endfacet
  facet normal -0.984806 -1.8963e-06 0.173659
    outer loop
      vertex 91.6691 67.3 33.8841
      vertex 92.734 60.95 39.923
      vertex 92.7725 67.3 40.1414
    endloop
  endfacet
  facet normal 0.173541 -0.0348891 0.984208
    outer loop
      vertex 99.417 67.3 15.7747
      vertex 103.548 60.95 14.8212
      vertex 103.586 67.3 15.0396
    endloop
  endfacet
  facet normal 0.173521 -0.0349027 0.984212
    outer loop
      vertex 103.548 60.95 14.8212
      vertex 99.417 67.3 15.7747
      vertex 99.3785 60.95 15.5563
    endloop
  endfacet
  facet normal -0.173369 0.0348736 -0.984239
    outer loop
      vertex 104.018 60.95 21.1901
      vertex 104.689 67.3 21.2969
      vertex 104.651 60.95 21.0786
    endloop
  endfacet
  facet normal -0.173551 0.0348923 -0.984207
    outer loop
      vertex 104.689 67.3 21.2969
      vertex 104.018 60.95 21.1901
      vertex 100.628 67.3 22.013
    endloop
  endfacet
  facet normal -0.173572 0.0348808 -0.984203
    outer loop
      vertex 100.482 60.95 21.8137
      vertex 100.628 67.3 22.013
      vertex 104.018 60.95 21.1901
    endloop
  endfacet
  facet normal -0.17316 0.0348736 -0.984276
    outer loop
      vertex 100.628 67.3 22.013
      vertex 100.482 60.95 21.8137
      vertex 100.52 67.3 22.032
    endloop
  endfacet
  facet normal 0.984807 5.3463e-06 -0.17365
    outer loop
      vertex 99.5183 60.95 16.349
      vertex 99.417 67.3 15.7747
      vertex 100.491 67.3 21.8656
    endloop
  endfacet
  facet normal 0.984802 2.61576e-06 -0.173679
    outer loop
      vertex 99.417 67.3 15.7747
      vertex 99.5183 60.95 16.349
      vertex 99.3785 60.95 15.5563
    endloop
  endfacet
  facet normal 0.985151 6.99257e-06 -0.171691
    outer loop
      vertex 100.482 60.95 21.8137
      vertex 100.491 67.3 21.8656
      vertex 100.52 67.3 22.032
    endloop
  endfacet
  facet normal 0.984804 2.36611e-05 -0.17367
    outer loop
      vertex 100.491 67.3 21.8656
      vertex 100.482 60.95 21.8137
      vertex 99.5183 60.95 16.349
    endloop
  endfacet
  facet normal -0.984556 -0.000129534 0.175072
    outer loop
      vertex 103.548 60.95 14.8212
      vertex 103.645 67.3 15.3714
      vertex 103.586 67.3 15.0396
    endloop
  endfacet
  facet normal -0.984827 7.23354e-06 0.173541
    outer loop
      vertex 103.645 67.3 15.3714
      vertex 103.548 60.95 14.8212
      vertex 104.488 60.95 20.1556
    endloop
  endfacet
  facet normal -0.984831 -1.28695e-05 0.173515
    outer loop
      vertex 104.488 60.95 20.1556
      vertex 104.689 67.3 21.2969
      vertex 103.645 67.3 15.3714
    endloop
  endfacet
  facet normal -0.984762 -8.55044e-05 0.173907
    outer loop
      vertex 104.689 67.3 21.2969
      vertex 104.488 60.95 20.1556
      vertex 104.651 60.95 21.0786
    endloop
  endfacet
  facet normal -0.173232 -0.069758 0.982408
    outer loop
      vertex 44.2954 67.3 36.2153
      vertex 44.5415 60.95 35.8078
      vertex 48.4194 67.3 36.9425
    endloop
  endfacet
  facet normal -0.173104 -0.0697545 0.98243
    outer loop
      vertex 44.5415 60.95 35.8078
      vertex 44.2954 67.3 36.2153
      vertex 44.3457 60.95 35.7733
    endloop
  endfacet
  facet normal -0.173225 -0.0697501 0.982409
    outer loop
      vertex 48.4194 67.3 36.9425
      vertex 49.3849 60.95 36.6619
      vertex 49.3614 67.3 37.1086
    endloop
  endfacet
  facet normal -0.173241 -0.0697523 0.982406
    outer loop
      vertex 49.3849 60.95 36.6619
      vertex 48.4194 67.3 36.9425
      vertex 44.5415 60.95 35.8078
    endloop
  endfacet
  facet normal 0.17335 0.0697689 -0.982386
    outer loop
      vertex 43.1919 67.3 42.4845
      vertex 43.712 60.95 42.1253
      vertex 43.2422 60.95 42.0424
    endloop
  endfacet
  facet normal 0.173207 0.0697586 -0.982412
    outer loop
      vertex 43.712 60.95 42.1253
      vertex 43.1919 67.3 42.4845
      vertex 47.5899 67.3 43.2599
    endloop
  endfacet
  facet normal 0.173362 0.069767 -0.982384
    outer loop
      vertex 48.2833 60.95 42.9313
      vertex 47.5899 67.3 43.2599
      vertex 48.2597 67.3 43.3781
    endloop
  endfacet
  facet normal 0.173216 0.0697525 -0.982411
    outer loop
      vertex 47.5899 67.3 43.2599
      vertex 48.2833 60.95 42.9313
      vertex 43.712 60.95 42.1253
    endloop
  endfacet
  facet normal 0.984851 -0.00426012 0.17335
    outer loop
      vertex 44.3009 60.95 36.028
      vertex 44.2954 67.3 36.2153
      vertex 43.3513 67.3 41.579
    endloop
  endfacet
  facet normal 0.984872 -0.00425663 0.173232
    outer loop
      vertex 44.2954 67.3 36.2153
      vertex 44.3009 60.95 36.028
      vertex 44.3457 60.95 35.7733
    endloop
  endfacet
  facet normal 0.984848 -0.004269 0.173368
    outer loop
      vertex 43.2422 60.95 42.0424
      vertex 43.3513 67.3 41.579
      vertex 43.1919 67.3 42.4845
    endloop
  endfacet
  facet normal 0.984849 -0.00426957 0.173361
    outer loop
      vertex 43.3513 67.3 41.579
      vertex 43.2422 60.95 42.0424
      vertex 44.3009 60.95 36.028
    endloop
  endfacet
  facet normal -0.984863 0.00853393 -0.173125
    outer loop
      vertex 49.3849 60.95 36.6619
      vertex 49.1667 67.3 38.2162
      vertex 49.3614 67.3 37.1086
    endloop
  endfacet
  facet normal -0.984873 0.00851917 -0.173066
    outer loop
      vertex 49.1667 67.3 38.2162
      vertex 49.3849 60.95 36.6619
      vertex 48.3841 60.95 42.3572
    endloop
  endfacet
  facet normal -0.984876 0.00852776 -0.173053
    outer loop
      vertex 48.3841 60.95 42.3572
      vertex 48.2597 67.3 43.3781
      vertex 49.1667 67.3 38.2162
    endloop
  endfacet
  facet normal -0.984898 0.00850716 -0.172928
    outer loop
      vertex 48.2597 67.3 43.3781
      vertex 48.3841 60.95 42.3572
      vertex 48.2833 60.95 42.9313
    endloop
  endfacet
  facet normal -0.173221 -0.0697557 0.98241
    outer loop
      vertex 34.0556 67.3 16.702
      vertex 34.4281 60.95 16.3168
      vertex 34.2938 67.3 16.744
    endloop
  endfacet
  facet normal -0.173212 -0.0697553 0.982411
    outer loop
      vertex 34.4281 60.95 16.3168
      vertex 34.0556 67.3 16.702
      vertex 30.7704 60.95 15.6719
    endloop
  endfacet
  facet normal -0.173207 -0.0697582 0.982412
    outer loop
      vertex 30.1244 67.3 16.0089
      vertex 30.7704 60.95 15.6719
      vertex 34.0556 67.3 16.702
    endloop
  endfacet
  facet normal -0.173209 -0.0697583 0.982412
    outer loop
      vertex 30.7704 60.95 15.6719
      vertex 30.1244 67.3 16.0089
      vertex 30.2588 60.95 15.5817
    endloop
  endfacet
  facet normal 0.173226 0.0697672 -0.982408
    outer loop
      vertex 33.3188 60.95 22.5849
      vertex 29.8996 60.95 21.982
      vertex 33.1844 67.2992 23.0121
    endloop
  endfacet
  facet normal 0.176247 0.0686613 -0.981948
    outer loop
      vertex 27.8694 67.2641 22.0724
      vertex 27.866 67.3 22.0743
      vertex 27.8699 67.3 22.075
    endloop
  endfacet
  facet normal 0.174226 0 -0.984706
    outer loop
      vertex 33.1844 67.2992 23.0121
      vertex 33.1844 67.3 23.0121
      vertex 33.2737 67.3 23.0279
    endloop
  endfacet
  facet normal 0.175377 0.0685874 -0.982109
    outer loop
      vertex 27.8694 67.2641 22.0724
      vertex 27.8632 67.3 22.0738
      vertex 27.866 67.3 22.0743
    endloop
  endfacet
  facet normal 0.131915 0.0613642 -0.98936
    outer loop
      vertex 27.8694 67.2641 22.0724
      vertex 27.8617 67.3 22.0736
      vertex 27.8632 67.3 22.0738
    endloop
  endfacet
  facet normal 0.173256 0.0716219 -0.982269
    outer loop
      vertex 29.0158 67.2641 22.2745
      vertex 27.8699 67.3 22.075
      vertex 29.0157 67.3 22.2771
    endloop
  endfacet
  facet normal 0.173203 0.0687425 -0.982484
    outer loop
      vertex 27.8699 67.3 22.075
      vertex 29.0158 67.2641 22.2745
      vertex 27.8694 67.2641 22.0724
    endloop
  endfacet
  facet normal 0.173123 0.0697433 -0.982428
    outer loop
      vertex 29.0158 67.2641 22.2745
      vertex 29.8996 60.95 21.982
      vertex 29.1494 60.95 21.8498
    endloop
  endfacet
  facet normal 0.173241 0.0697589 -0.982406
    outer loop
      vertex 29.8996 60.95 21.982
      vertex 29.0158 67.2641 22.2745
      vertex 33.1844 67.2992 23.0121
    endloop
  endfacet
  facet normal 0.174235 0 -0.984704
    outer loop
      vertex 29.0158 67.2641 22.2745
      vertex 33.1844 67.3 23.0121
      vertex 33.1844 67.2992 23.0121
    endloop
  endfacet
  facet normal 0.17319 0.0716225 -0.982281
    outer loop
      vertex 33.1844 67.3 23.0121
      vertex 29.0158 67.2641 22.2745
      vertex 29.0157 67.3 22.2771
    endloop
  endfacet
  facet normal -0.984655 -0.00911263 -0.174272
    outer loop
      vertex 33.3188 60.95 22.5849
      vertex 33.1863 67.3 23.0015
      vertex 34.2938 67.3 16.744
    endloop
  endfacet
  facet normal -0.984658 -0.00910166 -0.17426
    outer loop
      vertex 33.3188 60.95 22.5849
      vertex 34.2938 67.3 16.744
      vertex 34.4281 60.95 16.3168
    endloop
  endfacet
  facet normal -0.984156 -0.00891808 -0.177078
    outer loop
      vertex 33.1863 67.3 23.0015
      vertex 33.3188 60.95 22.5849
      vertex 33.1844 67.2992 23.0121
    endloop
  endfacet
  facet normal -0.0215658 0.997215 0.0713959
    outer loop
      vertex 33.1863 67.3 23.0015
      vertex 33.1844 67.2992 23.0121
      vertex 33.2737 67.3 23.0279
    endloop
  endfacet
  facet normal 0.96235 0.200266 0.183783
    outer loop
      vertex 27.9586 67.3 21.5662
      vertex 27.8617 67.3 22.0736
      vertex 27.8694 67.2641 22.0724
    endloop
  endfacet
  facet normal -0.0121 0.99757 0.068616
    outer loop
      vertex 27.9586 67.3 21.5662
      vertex 27.8694 67.2641 22.0724
      vertex 28.0516 67.3 21.5826
    endloop
  endfacet
  facet normal -0.0120947 0.99757 0.0686146
    outer loop
      vertex 28.0516 67.3 21.5826
      vertex 29.0158 67.2641 22.2745
      vertex 29.1051 67.3 21.7683
    endloop
  endfacet
  facet normal -0.0120966 0.99757 0.0686173
    outer loop
      vertex 29.0158 67.2641 22.2745
      vertex 28.0516 67.3 21.5826
      vertex 27.8694 67.2641 22.0724
    endloop
  endfacet
  facet normal 0.984643 0.00904264 0.174345
    outer loop
      vertex 30.1137 60.95 16.4014
      vertex 29.1051 67.3 21.7683
      vertex 29.0158 67.2641 22.2745
    endloop
  endfacet
  facet normal 0.984657 0.0091123 0.174265
    outer loop
      vertex 29.1051 67.3 21.7683
      vertex 30.1137 60.95 16.4014
      vertex 30.1244 67.3 16.0089
    endloop
  endfacet
  facet normal 0.984651 0.00911442 0.174299
    outer loop
      vertex 30.1244 67.3 16.0089
      vertex 30.1137 60.95 16.4014
      vertex 30.2588 60.95 15.5817
    endloop
  endfacet
  facet normal 0.984655 0.00911241 0.174272
    outer loop
      vertex 30.1137 60.95 16.4014
      vertex 29.0158 67.2641 22.2745
      vertex 29.1494 60.95 21.8498
    endloop
  endfacet
endsolid OpenSCAD_Model
