solid OpenSCAD_Model
  facet normal 0 -1 0
    outer loop
      vertex 207 132.7 96.7993
      vertex 220.103 132.7 129.797
      vertex 199.518 132.7 129.65
    endloop
  endfacet
  facet normal 0 -1 0
    outer loop
      vertex 200.65 132.7 96.7993
      vertex 199.518 132.7 129.65
      vertex 178.946 132.7 127.763
    endloop
  endfacet
  facet normal 0 -1 -0
    outer loop
      vertex 220.103 132.7 129.797
      vertex 207 132.7 96.7993
      vertex 238.701 132.7 128.115
    endloop
  endfacet
  facet normal 0 -1 0
    outer loop
      vertex 200.65 132.7 96.7993
      vertex 178.946 132.7 127.763
      vertex 160.384 132.7 124.463
    endloop
  endfacet
  facet normal 0 -1 -0
    outer loop
      vertex 238.701 132.7 128.115
      vertex 207 132.7 96.7993
      vertex 255.415 132.7 124.8
    endloop
  endfacet
  facet normal 0 -1 0
    outer loop
      vertex 173.315 132.7 54.8752
      vertex 160.384 132.7 124.463
      vertex 143.728 132.7 119.914
    endloop
  endfacet
  facet normal 0 -1 0
    outer loop
      vertex 167.569 132.7 51.7301
      vertex 143.728 132.7 119.914
      vertex 128.876 132.7 114.28
    endloop
  endfacet
  facet normal 0 -1 0
    outer loop
      vertex 199.518 132.7 129.65
      vertex 200.65 132.7 96.7993
      vertex 207 132.7 96.7993
    endloop
  endfacet
  facet normal 0 -1 0
    outer loop
      vertex 162.221 132.7 48.2491
      vertex 128.876 132.7 114.28
      vertex 115.723 132.7 107.722
    endloop
  endfacet
  facet normal 0 -1 0
    outer loop
      vertex 229.991 132.7 59.1185
      vertex 255.415 132.7 124.8
      vertex 207 132.7 96.7993
    endloop
  endfacet
  facet normal 0 -1 0
    outer loop
      vertex 157.27 132.7 44.514
      vertex 115.723 132.7 107.722
      vertex 104.168 132.7 100.406
    endloop
  endfacet
  facet normal 0 -1 0
    outer loop
      vertex 236.5 132.7 56.7625
      vertex 255.415 132.7 124.8
      vertex 229.991 132.7 59.1185
    endloop
  endfacet
  facet normal 0 -1 0
    outer loop
      vertex 242.603 132.7 53.9524
      vertex 270.344 132.7 120.05
      vertex 236.5 132.7 56.7625
    endloop
  endfacet
  facet normal 0 -1 0
    outer loop
      vertex 148.559 132.7 36.6096
      vertex 104.168 132.7 100.406
      vertex 94.1055 132.7 92.4926
    endloop
  endfacet
  facet normal 0 -1 0
    outer loop
      vertex 144.8 132.7 32.6041
      vertex 94.1055 132.7 92.4926
      vertex 85.4337 132.7 84.1465
    endloop
  endfacet
  facet normal 0 -1 0
    outer loop
      vertex 141.436 132.7 28.6723
      vertex 85.4337 132.7 84.1465
      vertex 78.0488 132.7 75.5303
    endloop
  endfacet
  facet normal 0 -1 0
    outer loop
      vertex 138.47 132.7 24.8962
      vertex 78.0488 132.7 75.5303
      vertex 71.8478 132.7 66.8073
    endloop
  endfacet
  facet normal 0 -1 0
    outer loop
      vertex 143.728 132.7 119.914
      vertex 167.569 132.7 51.7301
      vertex 173.315 132.7 54.8752
    endloop
  endfacet
  facet normal 0 -1 -0
    outer loop
      vertex 200.65 132.7 96.7993
      vertex 200.282 132.7 62.457
      vertex 200.65 132.7 62.4682
    endloop
  endfacet
  facet normal 0 -1 0
    outer loop
      vertex 200.65 132.7 96.7993
      vertex 192.943 132.7 61.4752
      vertex 200.282 132.7 62.457
    endloop
  endfacet
  facet normal 0 -1 0
    outer loop
      vertex 200.65 132.7 96.7993
      vertex 186.002 132.7 59.8297
      vertex 192.943 132.7 61.4752
    endloop
  endfacet
  facet normal 0 -1 0
    outer loop
      vertex 135.899 132.7 21.3578
      vertex 71.8478 132.7 66.8073
      vertex 66.7273 132.7 58.1407
    endloop
  endfacet
  facet normal 0 -1 0
    outer loop
      vertex 200.65 132.7 96.7993
      vertex 179.46 132.7 57.6023
      vertex 186.002 132.7 59.8297
    endloop
  endfacet
  facet normal 0 -1 0
    outer loop
      vertex 160.384 132.7 124.463
      vertex 179.46 132.7 57.6023
      vertex 200.65 132.7 96.7993
    endloop
  endfacet
  facet normal 0 -1 0
    outer loop
      vertex 160.384 132.7 124.463
      vertex 173.315 132.7 54.8752
      vertex 179.46 132.7 57.6023
    endloop
  endfacet
  facet normal 0 -1 0
    outer loop
      vertex 131.946 132.7 15.3215
      vertex 66.7273 132.7 58.1407
      vertex 62.5841 132.7 49.6936
    endloop
  endfacet
  facet normal 0 -1 0
    outer loop
      vertex 128.876 132.7 114.28
      vertex 162.221 132.7 48.2491
      vertex 167.569 132.7 51.7301
    endloop
  endfacet
  facet normal 0 -1 0
    outer loop
      vertex 115.723 132.7 107.722
      vertex 157.27 132.7 44.514
      vertex 162.221 132.7 48.2491
    endloop
  endfacet
  facet normal 0 -1 0
    outer loop
      vertex 130.563 132.7 12.9876
      vertex 62.5841 132.7 49.6936
      vertex 59.315 132.7 41.6292
    endloop
  endfacet
  facet normal 0 -1 0
    outer loop
      vertex 104.168 132.7 100.406
      vertex 152.716 132.7 40.6069
      vertex 157.27 132.7 44.514
    endloop
  endfacet
  facet normal 0 -1 0
    outer loop
      vertex 104.168 132.7 100.406
      vertex 148.559 132.7 36.6096
      vertex 152.716 132.7 40.6069
    endloop
  endfacet
  facet normal 0 -1 0
    outer loop
      vertex 128.786 132.7 9.70584
      vertex 59.315 132.7 41.6292
      vertex 56.8168 132.7 34.1107
    endloop
  endfacet
  facet normal 0 -1 0
    outer loop
      vertex 94.1055 132.7 92.4926
      vertex 144.8 132.7 32.6041
      vertex 148.559 132.7 36.6096
    endloop
  endfacet
  facet normal 0 -1 0
    outer loop
      vertex 85.4337 132.7 84.1465
      vertex 141.436 132.7 28.6723
      vertex 144.8 132.7 32.6041
    endloop
  endfacet
  facet normal 0 -1 0
    outer loop
      vertex 128.786 132.7 9.70584
      vertex 56.8168 132.7 34.1107
      vertex 54.9861 132.7 27.3012
    endloop
  endfacet
  facet normal 0 -1 0
    outer loop
      vertex 78.0488 132.7 75.5303
      vertex 138.47 132.7 24.8962
      vertex 141.436 132.7 28.6723
    endloop
  endfacet
  facet normal 0 -1 0
    outer loop
      vertex 128.786 132.7 9.70584
      vertex 54.9861 132.7 27.3012
      vertex 53.7198 132.7 21.3639
    endloop
  endfacet
  facet normal 0 -1 0
    outer loop
      vertex 71.8478 132.7 66.8073
      vertex 135.899 132.7 21.3578
      vertex 138.47 132.7 24.8962
    endloop
  endfacet
  facet normal 0 -1 0
    outer loop
      vertex 66.7273 132.7 58.1407
      vertex 133.725 132.7 18.1389
      vertex 135.899 132.7 21.3578
    endloop
  endfacet
  facet normal 0 -1 0
    outer loop
      vertex 128.786 132.7 9.70584
      vertex 53.7198 132.7 21.3639
      vertex 52.9146 132.7 16.4619
    endloop
  endfacet
  facet normal 0 -1 0
    outer loop
      vertex 66.7273 132.7 58.1407
      vertex 131.946 132.7 15.3215
      vertex 133.725 132.7 18.1389
    endloop
  endfacet
  facet normal 0 -1 0
    outer loop
      vertex 62.5841 132.7 49.6936
      vertex 130.563 132.7 12.9876
      vertex 131.946 132.7 15.3215
    endloop
  endfacet
  facet normal 0 -1 0
    outer loop
      vertex 128.786 132.7 9.70584
      vertex 52.9146 132.7 16.4619
      vertex 52.4673 132.7 12.7585
    endloop
  endfacet
  facet normal 0 -1 0
    outer loop
      vertex 59.315 132.7 41.6292
      vertex 129.576 132.7 11.219
      vertex 130.563 132.7 12.9876
    endloop
  endfacet
  facet normal 0 -1 0
    outer loop
      vertex 128.786 132.7 9.70584
      vertex 52.4673 132.7 12.7585
      vertex 52.2746 132.7 10.4168
    endloop
  endfacet
  facet normal 0 -1 0
    outer loop
      vertex 59.315 132.7 41.6292
      vertex 128.984 132.7 10.0978
      vertex 129.576 132.7 11.219
    endloop
  endfacet
  facet normal 0 -1 0
    outer loop
      vertex 59.315 132.7 41.6292
      vertex 128.786 132.7 9.70584
      vertex 128.984 132.7 10.0978
    endloop
  endfacet
  facet normal -0 -1 0
    outer loop
      vertex 128.786 132.7 9.70584
      vertex 52.2746 132.7 10.4168
      vertex 52.2333 132.7 9.60001
    endloop
  endfacet
  facet normal 0 -1 -0
    outer loop
      vertex 270.344 132.7 120.05
      vertex 242.603 132.7 53.9524
      vertex 283.588 132.7 114.062
    endloop
  endfacet
  facet normal 0 -1 0
    outer loop
      vertex 248.303 132.7 50.7655
      vertex 283.588 132.7 114.062
      vertex 242.603 132.7 53.9524
    endloop
  endfacet
  facet normal 0 -1 -0
    outer loop
      vertex 283.588 132.7 114.062
      vertex 248.303 132.7 50.7655
      vertex 295.249 132.7 107.033
    endloop
  endfacet
  facet normal 0 -1 -0
    outer loop
      vertex 295.249 132.7 107.033
      vertex 253.601 132.7 47.2788
      vertex 305.428 132.7 99.1596
    endloop
  endfacet
  facet normal 0 -1 0
    outer loop
      vertex 258.497 132.7 43.5691
      vertex 305.428 132.7 99.1596
      vertex 253.601 132.7 47.2788
    endloop
  endfacet
  facet normal 0 -1 0
    outer loop
      vertex 215.752 132.7 62.1609
      vertex 207 132.7 96.7993
      vertex 208.02 132.7 62.6931
    endloop
  endfacet
  facet normal -0 -1 0
    outer loop
      vertex 208.02 132.7 62.6931
      vertex 207 132.7 96.7993
      vertex 207 132.7 62.6619
    endloop
  endfacet
  facet normal 0 -1 0
    outer loop
      vertex 223.076 132.7 60.9437
      vertex 207 132.7 96.7993
      vertex 215.752 132.7 62.1609
    endloop
  endfacet
  facet normal 0 -1 0
    outer loop
      vertex 229.991 132.7 59.1185
      vertex 207 132.7 96.7993
      vertex 223.076 132.7 60.9437
    endloop
  endfacet
  facet normal 0 -1 -0
    outer loop
      vertex 255.415 132.7 124.8
      vertex 236.5 132.7 56.7625
      vertex 270.344 132.7 120.05
    endloop
  endfacet
  facet normal 0 -1 0
    outer loop
      vertex 253.601 132.7 47.2788
      vertex 295.249 132.7 107.033
      vertex 248.303 132.7 50.7655
    endloop
  endfacet
  facet normal 0 -1 0
    outer loop
      vertex 262.994 132.7 39.7136
      vertex 305.428 132.7 99.1596
      vertex 258.497 132.7 43.5691
    endloop
  endfacet
  facet normal 0 -1 -0
    outer loop
      vertex 305.428 132.7 99.1596
      vertex 262.994 132.7 39.7136
      vertex 314.223 132.7 90.6387
    endloop
  endfacet
  facet normal 0 -1 0
    outer loop
      vertex 267.093 132.7 35.7894
      vertex 314.223 132.7 90.6387
      vertex 262.994 132.7 39.7136
    endloop
  endfacet
  facet normal 0 -1 -0
    outer loop
      vertex 314.223 132.7 90.6387
      vertex 267.093 132.7 35.7894
      vertex 321.737 132.7 81.6675
    endloop
  endfacet
  facet normal 0 -1 0
    outer loop
      vertex 270.794 132.7 31.8733
      vertex 321.737 132.7 81.6675
      vertex 267.093 132.7 35.7894
    endloop
  endfacet
  facet normal 0 -1 -0
    outer loop
      vertex 321.737 132.7 81.6675
      vertex 270.794 132.7 31.8733
      vertex 328.07 132.7 72.443
    endloop
  endfacet
  facet normal 0 -1 0
    outer loop
      vertex 274.101 132.7 28.0424
      vertex 328.07 132.7 72.443
      vertex 270.794 132.7 31.8733
    endloop
  endfacet
  facet normal 0 -1 -0
    outer loop
      vertex 328.07 132.7 72.443
      vertex 274.101 132.7 28.0424
      vertex 333.323 132.7 63.1621
    endloop
  endfacet
  facet normal 0 -1 0
    outer loop
      vertex 277.013 132.7 24.3737
      vertex 333.323 132.7 63.1621
      vertex 274.101 132.7 28.0424
    endloop
  endfacet
  facet normal 0 -1 -0
    outer loop
      vertex 333.323 132.7 63.1621
      vertex 277.013 132.7 24.3737
      vertex 337.595 132.7 54.0218
    endloop
  endfacet
  facet normal 0 -1 0
    outer loop
      vertex 279.532 132.7 20.9444
      vertex 337.595 132.7 54.0218
      vertex 277.013 132.7 24.3737
    endloop
  endfacet
  facet normal 0 -1 0
    outer loop
      vertex 281.66 132.7 17.8313
      vertex 337.595 132.7 54.0218
      vertex 279.532 132.7 20.9444
    endloop
  endfacet
  facet normal 0 -1 -0
    outer loop
      vertex 337.595 132.7 54.0218
      vertex 281.66 132.7 17.8313
      vertex 340.988 132.7 45.2191
    endloop
  endfacet
  facet normal 0 -1 0
    outer loop
      vertex 283.398 132.7 15.1115
      vertex 340.988 132.7 45.2191
      vertex 281.66 132.7 17.8313
    endloop
  endfacet
  facet normal 0 -1 -0
    outer loop
      vertex 340.988 132.7 45.2191
      vertex 283.398 132.7 15.1115
      vertex 343.602 132.7 36.951
    endloop
  endfacet
  facet normal 0 -1 0
    outer loop
      vertex 284.748 132.7 12.8621
      vertex 343.602 132.7 36.951
      vertex 283.398 132.7 15.1115
    endloop
  endfacet
  facet normal 0 -1 0
    outer loop
      vertex 285.71 132.7 11.16
      vertex 343.602 132.7 36.951
      vertex 284.748 132.7 12.8621
    endloop
  endfacet
  facet normal 0 -1 -0
    outer loop
      vertex 343.602 132.7 36.951
      vertex 285.71 132.7 11.16
      vertex 345.538 132.7 29.4146
    endloop
  endfacet
  facet normal 0 -1 0
    outer loop
      vertex 286.286 132.7 10.0822
      vertex 345.538 132.7 29.4146
      vertex 285.71 132.7 11.16
    endloop
  endfacet
  facet normal 0 -1 0
    outer loop
      vertex 286.478 132.7 9.70584
      vertex 345.538 132.7 29.4146
      vertex 286.286 132.7 10.0822
    endloop
  endfacet
  facet normal 0 -1 -0
    outer loop
      vertex 345.538 132.7 29.4146
      vertex 286.478 132.7 9.70584
      vertex 346.897 132.7 22.8066
    endloop
  endfacet
  facet normal 0 -1 -0
    outer loop
      vertex 346.897 132.7 22.8066
      vertex 286.478 132.7 9.70584
      vertex 347.778 132.7 17.3242
    endloop
  endfacet
  facet normal 0 -1 -0
    outer loop
      vertex 347.778 132.7 17.3242
      vertex 286.478 132.7 9.70584
      vertex 348.283 132.7 13.1643
    endloop
  endfacet
  facet normal 0 -1 -0
    outer loop
      vertex 348.283 132.7 13.1643
      vertex 286.478 132.7 9.70584
      vertex 348.513 132.7 10.5239
    endloop
  endfacet
  facet normal 0 -1 -0
    outer loop
      vertex 348.513 132.7 10.5239
      vertex 286.478 132.7 9.70584
      vertex 348.567 132.7 9.60001
    endloop
  endfacet
  facet normal 0 1 0
    outer loop
      vertex 207 139.05 99.8465
      vertex 215.752 139.05 62.1609
      vertex 208.02 139.05 62.6931
    endloop
  endfacet
  facet normal 0 1 0
    outer loop
      vertex 328.07 139.05 72.443
      vertex 223.076 139.05 60.9437
      vertex 215.752 139.05 62.1609
    endloop
  endfacet
  facet normal 0 1 0
    outer loop
      vertex 328.07 139.05 72.443
      vertex 229.991 139.05 59.1185
      vertex 223.076 139.05 60.9437
    endloop
  endfacet
  facet normal 0 1 0
    outer loop
      vertex 328.07 139.05 72.443
      vertex 236.5 139.05 56.7625
      vertex 229.991 139.05 59.1185
    endloop
  endfacet
  facet normal 0 1 0
    outer loop
      vertex 277.013 139.05 24.3737
      vertex 333.323 139.05 63.1621
      vertex 337.595 139.05 54.0218
    endloop
  endfacet
  facet normal 0 1 0
    outer loop
      vertex 328.07 139.05 72.443
      vertex 242.603 139.05 53.9524
      vertex 236.5 139.05 56.7625
    endloop
  endfacet
  facet normal 0 1 0
    outer loop
      vertex 328.07 139.05 72.443
      vertex 248.303 139.05 50.7655
      vertex 242.603 139.05 53.9524
    endloop
  endfacet
  facet normal 0 1 0
    outer loop
      vertex 328.07 139.05 72.443
      vertex 253.601 139.05 47.2788
      vertex 248.303 139.05 50.7655
    endloop
  endfacet
  facet normal 0 1 0
    outer loop
      vertex 281.66 139.05 17.8313
      vertex 337.595 139.05 54.0218
      vertex 340.988 139.05 45.2191
    endloop
  endfacet
  facet normal 0 1 0
    outer loop
      vertex 328.07 139.05 72.443
      vertex 258.497 139.05 43.5691
      vertex 253.601 139.05 47.2788
    endloop
  endfacet
  facet normal 0 1 0
    outer loop
      vertex 328.07 139.05 72.443
      vertex 262.994 139.05 39.7136
      vertex 258.497 139.05 43.5691
    endloop
  endfacet
  facet normal 0 1 0
    outer loop
      vertex 283.398 139.05 15.1115
      vertex 340.988 139.05 45.2191
      vertex 343.602 139.05 36.951
    endloop
  endfacet
  facet normal 0 1 0
    outer loop
      vertex 328.07 139.05 72.443
      vertex 267.093 139.05 35.7894
      vertex 262.994 139.05 39.7136
    endloop
  endfacet
  facet normal 0 1 0
    outer loop
      vertex 328.07 139.05 72.443
      vertex 270.794 139.05 31.8733
      vertex 267.093 139.05 35.7894
    endloop
  endfacet
  facet normal 0 1 0
    outer loop
      vertex 285.71 139.05 11.16
      vertex 343.602 139.05 36.951
      vertex 345.538 139.05 29.4146
    endloop
  endfacet
  facet normal 0 1 0
    outer loop
      vertex 328.07 139.05 72.443
      vertex 274.101 139.05 28.0424
      vertex 270.794 139.05 31.8733
    endloop
  endfacet
  facet normal 0 1 0
    outer loop
      vertex 333.323 139.05 63.1621
      vertex 277.013 139.05 24.3737
      vertex 274.101 139.05 28.0424
    endloop
  endfacet
  facet normal 0 1 0
    outer loop
      vertex 286.478 139.05 9.70584
      vertex 345.538 139.05 29.4146
      vertex 346.897 139.05 22.8066
    endloop
  endfacet
  facet normal 0 1 0
    outer loop
      vertex 337.595 139.05 54.0218
      vertex 279.532 139.05 20.9444
      vertex 277.013 139.05 24.3737
    endloop
  endfacet
  facet normal 0 1 0
    outer loop
      vertex 337.595 139.05 54.0218
      vertex 281.66 139.05 17.8313
      vertex 279.532 139.05 20.9444
    endloop
  endfacet
  facet normal 0 1 0
    outer loop
      vertex 286.478 139.05 9.70584
      vertex 346.897 139.05 22.8066
      vertex 347.778 139.05 17.3242
    endloop
  endfacet
  facet normal 0 1 0
    outer loop
      vertex 340.988 139.05 45.2191
      vertex 283.398 139.05 15.1115
      vertex 281.66 139.05 17.8313
    endloop
  endfacet
  facet normal 0 1 0
    outer loop
      vertex 286.478 139.05 9.70584
      vertex 347.778 139.05 17.3242
      vertex 348.283 139.05 13.1643
    endloop
  endfacet
  facet normal 0 1 0
    outer loop
      vertex 343.602 139.05 36.951
      vertex 284.748 139.05 12.8621
      vertex 283.398 139.05 15.1115
    endloop
  endfacet
  facet normal 0 1 0
    outer loop
      vertex 343.602 139.05 36.951
      vertex 285.71 139.05 11.16
      vertex 284.748 139.05 12.8621
    endloop
  endfacet
  facet normal 0 1 0
    outer loop
      vertex 286.478 139.05 9.70584
      vertex 348.283 139.05 13.1643
      vertex 348.513 139.05 10.5239
    endloop
  endfacet
  facet normal 0 1 0
    outer loop
      vertex 345.538 139.05 29.4146
      vertex 286.286 139.05 10.0822
      vertex 285.71 139.05 11.16
    endloop
  endfacet
  facet normal 0 1 0
    outer loop
      vertex 345.538 139.05 29.4146
      vertex 286.478 139.05 9.70584
      vertex 286.286 139.05 10.0822
    endloop
  endfacet
  facet normal -0 1 0
    outer loop
      vertex 286.478 139.05 9.70584
      vertex 348.513 139.05 10.5239
      vertex 348.567 139.05 9.60001
    endloop
  endfacet
  facet normal 0 1 0
    outer loop
      vertex 207 139.05 99.8465
      vertex 220.103 139.05 129.797
      vertex 238.701 139.05 128.115
    endloop
  endfacet
  facet normal 0 1 0
    outer loop
      vertex 220.103 139.05 129.797
      vertex 207 139.05 99.8465
      vertex 199.518 139.05 129.65
    endloop
  endfacet
  facet normal 0 1 0
    outer loop
      vertex 207 139.05 99.8465
      vertex 238.701 139.05 128.115
      vertex 255.415 139.05 124.8
    endloop
  endfacet
  facet normal 0 1 -0
    outer loop
      vertex 200.65 139.05 99.8465
      vertex 199.518 139.05 129.65
      vertex 207 139.05 99.8465
    endloop
  endfacet
  facet normal 0 1 0
    outer loop
      vertex 215.752 139.05 62.1609
      vertex 255.415 139.05 124.8
      vertex 270.344 139.05 120.05
    endloop
  endfacet
  facet normal 0 1 0
    outer loop
      vertex 199.518 139.05 129.65
      vertex 200.65 139.05 99.8465
      vertex 178.946 139.05 127.763
    endloop
  endfacet
  facet normal 0 1 0
    outer loop
      vertex 178.946 139.05 127.763
      vertex 200.65 139.05 99.8465
      vertex 160.384 139.05 124.463
    endloop
  endfacet
  facet normal 0 1 0
    outer loop
      vertex 215.752 139.05 62.1609
      vertex 270.344 139.05 120.05
      vertex 283.588 139.05 114.062
    endloop
  endfacet
  facet normal 0 1 -0
    outer loop
      vertex 179.46 139.05 57.6023
      vertex 160.384 139.05 124.463
      vertex 200.65 139.05 99.8465
    endloop
  endfacet
  facet normal 0 1 0
    outer loop
      vertex 215.752 139.05 62.1609
      vertex 283.588 139.05 114.062
      vertex 295.249 139.05 107.033
    endloop
  endfacet
  facet normal 0 1 0
    outer loop
      vertex 160.384 139.05 124.463
      vertex 173.315 139.05 54.8752
      vertex 143.728 139.05 119.914
    endloop
  endfacet
  facet normal 0 1 -0
    outer loop
      vertex 173.315 139.05 54.8752
      vertex 160.384 139.05 124.463
      vertex 179.46 139.05 57.6023
    endloop
  endfacet
  facet normal 0 1 0
    outer loop
      vertex 215.752 139.05 62.1609
      vertex 295.249 139.05 107.033
      vertex 305.428 139.05 99.1596
    endloop
  endfacet
  facet normal 0 1 0
    outer loop
      vertex 215.752 139.05 62.1609
      vertex 305.428 139.05 99.1596
      vertex 314.223 139.05 90.6387
    endloop
  endfacet
  facet normal 0 1 0
    outer loop
      vertex 215.752 139.05 62.1609
      vertex 314.223 139.05 90.6387
      vertex 321.737 139.05 81.6675
    endloop
  endfacet
  facet normal 0 1 0
    outer loop
      vertex 215.752 139.05 62.1609
      vertex 321.737 139.05 81.6675
      vertex 328.07 139.05 72.443
    endloop
  endfacet
  facet normal 0 1 0
    outer loop
      vertex 274.101 139.05 28.0424
      vertex 328.07 139.05 72.443
      vertex 333.323 139.05 63.1621
    endloop
  endfacet
  facet normal 0 1 -0
    outer loop
      vertex 215.752 139.05 62.1609
      vertex 207 139.05 99.8465
      vertex 255.415 139.05 124.8
    endloop
  endfacet
  facet normal 0 1 0
    outer loop
      vertex 207 139.05 99.8465
      vertex 208.02 139.05 62.6931
      vertex 207 139.05 62.6619
    endloop
  endfacet
  facet normal 0 1 0
    outer loop
      vertex 143.728 139.05 119.914
      vertex 167.569 139.05 51.7301
      vertex 128.876 139.05 114.28
    endloop
  endfacet
  facet normal 0 1 -0
    outer loop
      vertex 162.221 139.05 48.2491
      vertex 128.876 139.05 114.28
      vertex 167.569 139.05 51.7301
    endloop
  endfacet
  facet normal 0 1 0
    outer loop
      vertex 128.876 139.05 114.28
      vertex 162.221 139.05 48.2491
      vertex 115.723 139.05 107.722
    endloop
  endfacet
  facet normal 0 1 0
    outer loop
      vertex 115.723 139.05 107.722
      vertex 157.27 139.05 44.514
      vertex 104.168 139.05 100.406
    endloop
  endfacet
  facet normal 0 1 -0
    outer loop
      vertex 152.716 139.05 40.6069
      vertex 104.168 139.05 100.406
      vertex 157.27 139.05 44.514
    endloop
  endfacet
  facet normal 0 1 0
    outer loop
      vertex 200.282 139.05 62.457
      vertex 200.65 139.05 99.8465
      vertex 200.65 139.05 62.4682
    endloop
  endfacet
  facet normal 0 1 0
    outer loop
      vertex 192.943 139.05 61.4752
      vertex 200.65 139.05 99.8465
      vertex 200.282 139.05 62.457
    endloop
  endfacet
  facet normal 0 1 0
    outer loop
      vertex 186.002 139.05 59.8297
      vertex 200.65 139.05 99.8465
      vertex 192.943 139.05 61.4752
    endloop
  endfacet
  facet normal 0 1 0
    outer loop
      vertex 179.46 139.05 57.6023
      vertex 200.65 139.05 99.8465
      vertex 186.002 139.05 59.8297
    endloop
  endfacet
  facet normal 0 1 -0
    outer loop
      vertex 167.569 139.05 51.7301
      vertex 143.728 139.05 119.914
      vertex 173.315 139.05 54.8752
    endloop
  endfacet
  facet normal 0 1 -0
    outer loop
      vertex 157.27 139.05 44.514
      vertex 115.723 139.05 107.722
      vertex 162.221 139.05 48.2491
    endloop
  endfacet
  facet normal 0 1 -0
    outer loop
      vertex 148.559 139.05 36.6096
      vertex 104.168 139.05 100.406
      vertex 152.716 139.05 40.6069
    endloop
  endfacet
  facet normal 0 1 0
    outer loop
      vertex 104.168 139.05 100.406
      vertex 148.559 139.05 36.6096
      vertex 94.1055 139.05 92.4926
    endloop
  endfacet
  facet normal 0 1 -0
    outer loop
      vertex 144.8 139.05 32.6041
      vertex 94.1055 139.05 92.4926
      vertex 148.559 139.05 36.6096
    endloop
  endfacet
  facet normal 0 1 0
    outer loop
      vertex 94.1055 139.05 92.4926
      vertex 144.8 139.05 32.6041
      vertex 85.4337 139.05 84.1465
    endloop
  endfacet
  facet normal 0 1 -0
    outer loop
      vertex 141.436 139.05 28.6723
      vertex 85.4337 139.05 84.1465
      vertex 144.8 139.05 32.6041
    endloop
  endfacet
  facet normal 0 1 0
    outer loop
      vertex 85.4337 139.05 84.1465
      vertex 141.436 139.05 28.6723
      vertex 78.0488 139.05 75.5303
    endloop
  endfacet
  facet normal 0 1 -0
    outer loop
      vertex 138.47 139.05 24.8962
      vertex 78.0488 139.05 75.5303
      vertex 141.436 139.05 28.6723
    endloop
  endfacet
  facet normal 0 1 0
    outer loop
      vertex 78.0488 139.05 75.5303
      vertex 138.47 139.05 24.8962
      vertex 71.8478 139.05 66.8073
    endloop
  endfacet
  facet normal 0 1 -0
    outer loop
      vertex 135.899 139.05 21.3578
      vertex 71.8478 139.05 66.8073
      vertex 138.47 139.05 24.8962
    endloop
  endfacet
  facet normal 0 1 0
    outer loop
      vertex 71.8478 139.05 66.8073
      vertex 135.899 139.05 21.3578
      vertex 66.7273 139.05 58.1407
    endloop
  endfacet
  facet normal 0 1 -0
    outer loop
      vertex 133.725 139.05 18.1389
      vertex 66.7273 139.05 58.1407
      vertex 135.899 139.05 21.3578
    endloop
  endfacet
  facet normal 0 1 -0
    outer loop
      vertex 131.946 139.05 15.3215
      vertex 66.7273 139.05 58.1407
      vertex 133.725 139.05 18.1389
    endloop
  endfacet
  facet normal 0 1 0
    outer loop
      vertex 66.7273 139.05 58.1407
      vertex 131.946 139.05 15.3215
      vertex 62.5841 139.05 49.6936
    endloop
  endfacet
  facet normal 0 1 -0
    outer loop
      vertex 130.563 139.05 12.9876
      vertex 62.5841 139.05 49.6936
      vertex 131.946 139.05 15.3215
    endloop
  endfacet
  facet normal 0 1 0
    outer loop
      vertex 62.5841 139.05 49.6936
      vertex 130.563 139.05 12.9876
      vertex 59.315 139.05 41.6292
    endloop
  endfacet
  facet normal 0 1 -0
    outer loop
      vertex 129.576 139.05 11.219
      vertex 59.315 139.05 41.6292
      vertex 130.563 139.05 12.9876
    endloop
  endfacet
  facet normal 0 1 -0
    outer loop
      vertex 128.984 139.05 10.0978
      vertex 59.315 139.05 41.6292
      vertex 129.576 139.05 11.219
    endloop
  endfacet
  facet normal 0 1 -0
    outer loop
      vertex 128.786 139.05 9.70584
      vertex 59.315 139.05 41.6292
      vertex 128.984 139.05 10.0978
    endloop
  endfacet
  facet normal 0 1 0
    outer loop
      vertex 59.315 139.05 41.6292
      vertex 128.786 139.05 9.70584
      vertex 56.8168 139.05 34.1107
    endloop
  endfacet
  facet normal 0 1 0
    outer loop
      vertex 56.8168 139.05 34.1107
      vertex 128.786 139.05 9.70584
      vertex 54.9861 139.05 27.3012
    endloop
  endfacet
  facet normal 0 1 0
    outer loop
      vertex 54.9861 139.05 27.3012
      vertex 128.786 139.05 9.70584
      vertex 53.7198 139.05 21.3639
    endloop
  endfacet
  facet normal 0 1 0
    outer loop
      vertex 53.7198 139.05 21.3639
      vertex 128.786 139.05 9.70584
      vertex 52.9146 139.05 16.4619
    endloop
  endfacet
  facet normal 0 1 0
    outer loop
      vertex 52.9146 139.05 16.4619
      vertex 128.786 139.05 9.70584
      vertex 52.4673 139.05 12.7585
    endloop
  endfacet
  facet normal 0 1 0
    outer loop
      vertex 52.4673 139.05 12.7585
      vertex 128.786 139.05 9.70584
      vertex 52.2746 139.05 10.4168
    endloop
  endfacet
  facet normal 0 1 0
    outer loop
      vertex 52.2746 139.05 10.4168
      vertex 128.786 139.05 9.70584
      vertex 52.2333 139.05 9.60001
    endloop
  endfacet
  facet normal 0.194547 0 0.980893
    outer loop
      vertex 238.701 139.05 128.115
      vertex 255.415 132.7 124.8
      vertex 255.415 139.05 124.8
    endloop
  endfacet
  facet normal 0.194547 0 0.980893
    outer loop
      vertex 255.415 132.7 124.8
      vertex 238.701 139.05 128.115
      vertex 238.701 132.7 128.115
    endloop
  endfacet
  facet normal 0.303196 0 0.952928
    outer loop
      vertex 255.415 139.05 124.8
      vertex 270.344 132.7 120.05
      vertex 270.344 139.05 120.05
    endloop
  endfacet
  facet normal 0.303196 0 0.952928
    outer loop
      vertex 270.344 132.7 120.05
      vertex 255.415 139.05 124.8
      vertex 255.415 132.7 124.8
    endloop
  endfacet
  facet normal 0.411977 0 0.911194
    outer loop
      vertex 270.344 139.05 120.05
      vertex 283.588 132.7 114.062
      vertex 283.588 139.05 114.062
    endloop
  endfacet
  facet normal 0.411977 0 0.911194
    outer loop
      vertex 283.588 132.7 114.062
      vertex 270.344 139.05 120.05
      vertex 270.344 132.7 120.05
    endloop
  endfacet
  facet normal 0.516244 0 0.856441
    outer loop
      vertex 283.588 139.05 114.062
      vertex 295.249 132.7 107.033
      vertex 295.249 139.05 107.033
    endloop
  endfacet
  facet normal 0.516244 0 0.856441
    outer loop
      vertex 295.249 132.7 107.033
      vertex 283.588 139.05 114.062
      vertex 283.588 132.7 114.062
    endloop
  endfacet
  facet normal 0.611827 0 0.790991
    outer loop
      vertex 295.249 139.05 107.033
      vertex 305.428 132.7 99.1596
      vertex 305.428 139.05 99.1596
    endloop
  endfacet
  facet normal 0.611827 0 0.790991
    outer loop
      vertex 305.428 132.7 99.1596
      vertex 295.249 139.05 107.033
      vertex 295.249 132.7 107.033
    endloop
  endfacet
  facet normal 0.695827 0 0.71821
    outer loop
      vertex 305.428 139.05 99.1596
      vertex 314.223 132.7 90.6387
      vertex 314.223 139.05 90.6387
    endloop
  endfacet
  facet normal 0.695827 0 0.71821
    outer loop
      vertex 314.223 132.7 90.6387
      vertex 305.428 139.05 99.1596
      vertex 305.428 132.7 99.1596
    endloop
  endfacet
  facet normal 0.766622 -0 0.642099
    outer loop
      vertex 314.223 132.7 90.6387
      vertex 321.737 139.05 81.6675
      vertex 314.223 139.05 90.6387
    endloop
  endfacet
  facet normal 0.766622 0 0.642099
    outer loop
      vertex 321.737 139.05 81.6675
      vertex 314.223 132.7 90.6387
      vertex 321.737 132.7 81.6675
    endloop
  endfacet
  facet normal 0.824411 -0 0.565992
    outer loop
      vertex 321.737 132.7 81.6675
      vertex 328.07 139.05 72.443
      vertex 321.737 139.05 81.6675
    endloop
  endfacet
  facet normal 0.824411 0 0.565992
    outer loop
      vertex 328.07 139.05 72.443
      vertex 321.737 132.7 81.6675
      vertex 328.07 132.7 72.443
    endloop
  endfacet
  facet normal 0.870271 -0 0.492574
    outer loop
      vertex 328.07 132.7 72.443
      vertex 333.323 139.05 63.1621
      vertex 328.07 139.05 72.443
    endloop
  endfacet
  facet normal 0.870271 0 0.492574
    outer loop
      vertex 333.323 139.05 63.1621
      vertex 328.07 132.7 72.443
      vertex 333.323 132.7 63.1621
    endloop
  endfacet
  facet normal 0.905935 -0 0.423417
    outer loop
      vertex 333.323 132.7 63.1621
      vertex 337.595 139.05 54.0218
      vertex 333.323 139.05 63.1621
    endloop
  endfacet
  facet normal 0.905935 0 0.423417
    outer loop
      vertex 337.595 139.05 54.0218
      vertex 333.323 132.7 63.1621
      vertex 337.595 132.7 54.0218
    endloop
  endfacet
  facet normal 0.933084 -0 0.359657
    outer loop
      vertex 337.595 132.7 54.0218
      vertex 340.988 139.05 45.2191
      vertex 337.595 139.05 54.0218
    endloop
  endfacet
  facet normal 0.933084 0 0.359657
    outer loop
      vertex 340.988 139.05 45.2191
      vertex 337.595 132.7 54.0218
      vertex 340.988 132.7 45.2191
    endloop
  endfacet
  facet normal 0.953483 -0 0.301448
    outer loop
      vertex 340.988 132.7 45.2191
      vertex 343.602 139.05 36.951
      vertex 340.988 139.05 45.2191
    endloop
  endfacet
  facet normal 0.953483 0 0.301448
    outer loop
      vertex 343.602 139.05 36.951
      vertex 340.988 132.7 45.2191
      vertex 343.602 132.7 36.951
    endloop
  endfacet
  facet normal 0.968553 -0 0.248808
    outer loop
      vertex 343.602 132.7 36.951
      vertex 345.538 139.05 29.4146
      vertex 343.602 139.05 36.951
    endloop
  endfacet
  facet normal 0.968553 0 0.248808
    outer loop
      vertex 345.538 139.05 29.4146
      vertex 343.602 132.7 36.951
      vertex 345.538 132.7 29.4146
    endloop
  endfacet
  facet normal 0.9795 -0 0.201444
    outer loop
      vertex 345.538 132.7 29.4146
      vertex 346.897 139.05 22.8066
      vertex 345.538 139.05 29.4146
    endloop
  endfacet
  facet normal 0.9795 0 0.201444
    outer loop
      vertex 346.897 139.05 22.8066
      vertex 345.538 132.7 29.4146
      vertex 346.897 132.7 22.8066
    endloop
  endfacet
  facet normal 0.987333 -0 0.158661
    outer loop
      vertex 346.897 132.7 22.8066
      vertex 347.778 139.05 17.3242
      vertex 346.897 139.05 22.8066
    endloop
  endfacet
  facet normal 0.987333 0 0.158661
    outer loop
      vertex 347.778 139.05 17.3242
      vertex 346.897 132.7 22.8066
      vertex 347.778 132.7 17.3242
    endloop
  endfacet
  facet normal 0.992712 -0 0.120512
    outer loop
      vertex 347.778 132.7 17.3242
      vertex 348.283 139.05 13.1643
      vertex 347.778 139.05 17.3242
    endloop
  endfacet
  facet normal 0.992712 0 0.120512
    outer loop
      vertex 348.283 139.05 13.1643
      vertex 347.778 132.7 17.3242
      vertex 348.283 132.7 13.1643
    endloop
  endfacet
  facet normal 0.996228 -0 0.0867794
    outer loop
      vertex 348.283 132.7 13.1643
      vertex 348.513 139.05 10.5239
      vertex 348.283 139.05 13.1643
    endloop
  endfacet
  facet normal 0.996228 0 0.0867794
    outer loop
      vertex 348.513 139.05 10.5239
      vertex 348.283 132.7 13.1643
      vertex 348.513 132.7 10.5239
    endloop
  endfacet
  facet normal 0.998296 -0 0.0583489
    outer loop
      vertex 348.513 132.7 10.5239
      vertex 348.567 139.05 9.60001
      vertex 348.513 139.05 10.5239
    endloop
  endfacet
  facet normal 0.998296 0 0.0583489
    outer loop
      vertex 348.567 139.05 9.60001
      vertex 348.513 132.7 10.5239
      vertex 348.567 132.7 9.60001
    endloop
  endfacet
  facet normal -0.00170449 0 -0.999999
    outer loop
      vertex 286.478 132.7 9.70584
      vertex 348.567 139.05 9.60001
      vertex 348.567 132.7 9.60001
    endloop
  endfacet
  facet normal -0.00170449 0 -0.999999
    outer loop
      vertex 348.567 139.05 9.60001
      vertex 286.478 132.7 9.70584
      vertex 286.478 139.05 9.70584
    endloop
  endfacet
  facet normal -0.890781 0 -0.454432
    outer loop
      vertex 286.478 132.7 9.70584
      vertex 286.286 139.05 10.0822
      vertex 286.478 139.05 9.70584
    endloop
  endfacet
  facet normal -0.890781 -0 -0.454432
    outer loop
      vertex 286.286 139.05 10.0822
      vertex 286.478 132.7 9.70584
      vertex 286.286 132.7 10.0822
    endloop
  endfacet
  facet normal -0.881954 0 -0.471336
    outer loop
      vertex 286.286 132.7 10.0822
      vertex 285.71 139.05 11.16
      vertex 286.286 139.05 10.0822
    endloop
  endfacet
  facet normal -0.881954 -0 -0.471336
    outer loop
      vertex 285.71 139.05 11.16
      vertex 286.286 132.7 10.0822
      vertex 285.71 132.7 11.16
    endloop
  endfacet
  facet normal -0.870575 0 -0.492035
    outer loop
      vertex 285.71 132.7 11.16
      vertex 284.748 139.05 12.8621
      vertex 285.71 139.05 11.16
    endloop
  endfacet
  facet normal -0.870575 -0 -0.492035
    outer loop
      vertex 284.748 139.05 12.8621
      vertex 285.71 132.7 11.16
      vertex 284.748 132.7 12.8621
    endloop
  endfacet
  facet normal -0.857432 0 -0.514597
    outer loop
      vertex 284.748 132.7 12.8621
      vertex 283.398 139.05 15.1115
      vertex 284.748 139.05 12.8621
    endloop
  endfacet
  facet normal -0.857432 -0 -0.514597
    outer loop
      vertex 283.398 139.05 15.1115
      vertex 284.748 132.7 12.8621
      vertex 283.398 132.7 15.1115
    endloop
  endfacet
  facet normal -0.842647 0 -0.538466
    outer loop
      vertex 283.398 132.7 15.1115
      vertex 281.66 139.05 17.8313
      vertex 283.398 139.05 15.1115
    endloop
  endfacet
  facet normal -0.842647 -0 -0.538466
    outer loop
      vertex 281.66 139.05 17.8313
      vertex 283.398 132.7 15.1115
      vertex 281.66 132.7 17.8313
    endloop
  endfacet
  facet normal -0.825556 0 -0.56432
    outer loop
      vertex 281.66 132.7 17.8313
      vertex 279.532 139.05 20.9444
      vertex 281.66 139.05 17.8313
    endloop
  endfacet
  facet normal -0.825556 -0 -0.56432
    outer loop
      vertex 279.532 139.05 20.9444
      vertex 281.66 132.7 17.8313
      vertex 279.532 132.7 20.9444
    endloop
  endfacet
  facet normal -0.805936 0 -0.592002
    outer loop
      vertex 279.532 132.7 20.9444
      vertex 277.013 139.05 24.3737
      vertex 279.532 139.05 20.9444
    endloop
  endfacet
  facet normal -0.805936 -0 -0.592002
    outer loop
      vertex 277.013 139.05 24.3737
      vertex 279.532 132.7 20.9444
      vertex 277.013 132.7 24.3737
    endloop
  endfacet
  facet normal -0.783254 0 -0.621702
    outer loop
      vertex 277.013 132.7 24.3737
      vertex 274.101 139.05 28.0424
      vertex 277.013 139.05 24.3737
    endloop
  endfacet
  facet normal -0.783254 -0 -0.621702
    outer loop
      vertex 274.101 139.05 28.0424
      vertex 277.013 132.7 24.3737
      vertex 274.101 132.7 28.0424
    endloop
  endfacet
  facet normal -0.75697 0 -0.65345
    outer loop
      vertex 274.101 132.7 28.0424
      vertex 270.794 139.05 31.8733
      vertex 274.101 139.05 28.0424
    endloop
  endfacet
  facet normal -0.75697 -0 -0.65345
    outer loop
      vertex 270.794 139.05 31.8733
      vertex 274.101 132.7 28.0424
      vertex 270.794 132.7 31.8733
    endloop
  endfacet
  facet normal -0.726785 0 -0.686865
    outer loop
      vertex 270.794 132.7 31.8733
      vertex 267.093 139.05 35.7894
      vertex 270.794 139.05 31.8733
    endloop
  endfacet
  facet normal -0.726785 -0 -0.686865
    outer loop
      vertex 267.093 139.05 35.7894
      vertex 270.794 132.7 31.8733
      vertex 267.093 132.7 35.7894
    endloop
  endfacet
  facet normal -0.691537 0 -0.722341
    outer loop
      vertex 262.994 132.7 39.7136
      vertex 267.093 139.05 35.7894
      vertex 267.093 132.7 35.7894
    endloop
  endfacet
  facet normal -0.691537 0 -0.722341
    outer loop
      vertex 267.093 139.05 35.7894
      vertex 262.994 132.7 39.7136
      vertex 262.994 139.05 39.7136
    endloop
  endfacet
  facet normal -0.650882 0 -0.759179
    outer loop
      vertex 258.497 132.7 43.5691
      vertex 262.994 139.05 39.7136
      vertex 262.994 132.7 39.7136
    endloop
  endfacet
  facet normal -0.650882 0 -0.759179
    outer loop
      vertex 262.994 139.05 39.7136
      vertex 258.497 132.7 43.5691
      vertex 258.497 139.05 43.5691
    endloop
  endfacet
  facet normal -0.603921 0 -0.797044
    outer loop
      vertex 253.601 132.7 47.2788
      vertex 258.497 139.05 43.5691
      vertex 258.497 132.7 43.5691
    endloop
  endfacet
  facet normal -0.603921 0 -0.797044
    outer loop
      vertex 258.497 139.05 43.5691
      vertex 253.601 132.7 47.2788
      vertex 253.601 139.05 47.2788
    endloop
  endfacet
  facet normal -0.549746 0 -0.835332
    outer loop
      vertex 248.303 132.7 50.7655
      vertex 253.601 139.05 47.2788
      vertex 253.601 132.7 47.2788
    endloop
  endfacet
  facet normal -0.549746 0 -0.835332
    outer loop
      vertex 253.601 139.05 47.2788
      vertex 248.303 132.7 50.7655
      vertex 248.303 139.05 50.7655
    endloop
  endfacet
  facet normal -0.488009 0 -0.872839
    outer loop
      vertex 242.603 132.7 53.9524
      vertex 248.303 139.05 50.7655
      vertex 248.303 132.7 50.7655
    endloop
  endfacet
  facet normal -0.488009 0 -0.872839
    outer loop
      vertex 248.303 139.05 50.7655
      vertex 242.603 132.7 53.9524
      vertex 242.603 139.05 53.9524
    endloop
  endfacet
  facet normal -0.41824 0 -0.908337
    outer loop
      vertex 236.5 132.7 56.7625
      vertex 242.603 139.05 53.9524
      vertex 242.603 132.7 53.9524
    endloop
  endfacet
  facet normal -0.41824 0 -0.908337
    outer loop
      vertex 242.603 139.05 53.9524
      vertex 236.5 132.7 56.7625
      vertex 236.5 139.05 56.7625
    endloop
  endfacet
  facet normal -0.340351 0 -0.940299
    outer loop
      vertex 229.991 132.7 59.1185
      vertex 236.5 139.05 56.7625
      vertex 236.5 132.7 56.7625
    endloop
  endfacet
  facet normal -0.340351 0 -0.940299
    outer loop
      vertex 236.5 139.05 56.7625
      vertex 229.991 132.7 59.1185
      vertex 229.991 139.05 59.1185
    endloop
  endfacet
  facet normal -0.255208 0 -0.966886
    outer loop
      vertex 223.076 132.7 60.9437
      vertex 229.991 139.05 59.1185
      vertex 229.991 132.7 59.1185
    endloop
  endfacet
  facet normal -0.255208 0 -0.966886
    outer loop
      vertex 229.991 139.05 59.1185
      vertex 223.076 132.7 60.9437
      vertex 223.076 139.05 60.9437
    endloop
  endfacet
  facet normal -0.163945 0 -0.98647
    outer loop
      vertex 215.752 132.7 62.1609
      vertex 223.076 139.05 60.9437
      vertex 223.076 132.7 60.9437
    endloop
  endfacet
  facet normal -0.163945 0 -0.98647
    outer loop
      vertex 223.076 139.05 60.9437
      vertex 215.752 132.7 62.1609
      vertex 215.752 139.05 62.1609
    endloop
  endfacet
  facet normal -0.0686684 0 -0.99764
    outer loop
      vertex 208.02 132.7 62.6931
      vertex 215.752 139.05 62.1609
      vertex 215.752 132.7 62.1609
    endloop
  endfacet
  facet normal -0.0686684 0 -0.99764
    outer loop
      vertex 215.752 139.05 62.1609
      vertex 208.02 132.7 62.6931
      vertex 208.02 139.05 62.6931
    endloop
  endfacet
  facet normal 0.0305739 0 -0.999533
    outer loop
      vertex 207 132.7 62.6619
      vertex 208.02 139.05 62.6931
      vertex 208.02 132.7 62.6931
    endloop
  endfacet
  facet normal 0.0305739 0 -0.999533
    outer loop
      vertex 208.02 139.05 62.6931
      vertex 207 132.7 62.6619
      vertex 207 139.05 62.6619
    endloop
  endfacet
  facet normal 0.0304207 0 -0.999537
    outer loop
      vertex 200.282 132.7 62.457
      vertex 200.65 139.05 62.4682
      vertex 200.65 132.7 62.4682
    endloop
  endfacet
  facet normal 0.0304207 0 -0.999537
    outer loop
      vertex 200.65 139.05 62.4682
      vertex 200.282 132.7 62.457
      vertex 200.282 139.05 62.457
    endloop
  endfacet
  facet normal 0.132597 0 -0.99117
    outer loop
      vertex 192.943 132.7 61.4752
      vertex 200.282 139.05 62.457
      vertex 200.282 132.7 62.457
    endloop
  endfacet
  facet normal 0.132597 0 -0.99117
    outer loop
      vertex 200.282 139.05 62.457
      vertex 192.943 132.7 61.4752
      vertex 192.943 139.05 61.4752
    endloop
  endfacet
  facet normal 0.230676 0 -0.973031
    outer loop
      vertex 186.002 132.7 59.8297
      vertex 192.943 139.05 61.4752
      vertex 192.943 132.7 61.4752
    endloop
  endfacet
  facet normal 0.230676 0 -0.973031
    outer loop
      vertex 192.943 139.05 61.4752
      vertex 186.002 132.7 59.8297
      vertex 186.002 139.05 59.8297
    endloop
  endfacet
  facet normal 0.322307 0 -0.946635
    outer loop
      vertex 179.46 132.7 57.6023
      vertex 186.002 139.05 59.8297
      vertex 186.002 132.7 59.8297
    endloop
  endfacet
  facet normal 0.322307 0 -0.946635
    outer loop
      vertex 186.002 139.05 59.8297
      vertex 179.46 132.7 57.6023
      vertex 179.46 139.05 57.6023
    endloop
  endfacet
  facet normal 0.40564 0 -0.914033
    outer loop
      vertex 173.315 132.7 54.8752
      vertex 179.46 139.05 57.6023
      vertex 179.46 132.7 57.6023
    endloop
  endfacet
  facet normal 0.40564 0 -0.914033
    outer loop
      vertex 179.46 139.05 57.6023
      vertex 173.315 132.7 54.8752
      vertex 173.315 139.05 54.8752
    endloop
  endfacet
  facet normal 0.480136 0 -0.877194
    outer loop
      vertex 167.569 132.7 51.7301
      vertex 173.315 139.05 54.8752
      vertex 173.315 132.7 54.8752
    endloop
  endfacet
  facet normal 0.480136 0 -0.877194
    outer loop
      vertex 173.315 139.05 54.8752
      vertex 167.569 132.7 51.7301
      vertex 167.569 139.05 51.7301
    endloop
  endfacet
  facet normal 0.545517 0 -0.8381
    outer loop
      vertex 162.221 132.7 48.2491
      vertex 167.569 139.05 51.7301
      vertex 167.569 132.7 51.7301
    endloop
  endfacet
  facet normal 0.545517 0 -0.8381
    outer loop
      vertex 167.569 139.05 51.7301
      vertex 162.221 132.7 48.2491
      vertex 162.221 139.05 48.2491
    endloop
  endfacet
  facet normal 0.602252 0 -0.798306
    outer loop
      vertex 157.27 132.7 44.514
      vertex 162.221 139.05 48.2491
      vertex 162.221 132.7 48.2491
    endloop
  endfacet
  facet normal 0.602252 0 -0.798306
    outer loop
      vertex 162.221 139.05 48.2491
      vertex 157.27 132.7 44.514
      vertex 157.27 139.05 44.514
    endloop
  endfacet
  facet normal 0.651144 0 -0.758954
    outer loop
      vertex 152.716 132.7 40.6069
      vertex 157.27 139.05 44.514
      vertex 157.27 132.7 44.514
    endloop
  endfacet
  facet normal 0.651144 0 -0.758954
    outer loop
      vertex 157.27 139.05 44.514
      vertex 152.716 132.7 40.6069
      vertex 152.716 139.05 40.6069
    endloop
  endfacet
  facet normal 0.693125 0 -0.720817
    outer loop
      vertex 148.559 132.7 36.6096
      vertex 152.716 139.05 40.6069
      vertex 152.716 132.7 40.6069
    endloop
  endfacet
  facet normal 0.693125 0 -0.720817
    outer loop
      vertex 152.716 139.05 40.6069
      vertex 148.559 132.7 36.6096
      vertex 148.559 139.05 36.6096
    endloop
  endfacet
  facet normal 0.729188 0 -0.684313
    outer loop
      vertex 148.559 132.7 36.6096
      vertex 144.8 139.05 32.6041
      vertex 148.559 139.05 36.6096
    endloop
  endfacet
  facet normal 0.729188 0 -0.684313
    outer loop
      vertex 144.8 139.05 32.6041
      vertex 148.559 132.7 36.6096
      vertex 144.8 132.7 32.6041
    endloop
  endfacet
  facet normal 0.75984 0 -0.65011
    outer loop
      vertex 144.8 132.7 32.6041
      vertex 141.436 139.05 28.6723
      vertex 144.8 139.05 32.6041
    endloop
  endfacet
  facet normal 0.75984 0 -0.65011
    outer loop
      vertex 141.436 139.05 28.6723
      vertex 144.8 132.7 32.6041
      vertex 141.436 132.7 28.6723
    endloop
  endfacet
  facet normal 0.786413 0 -0.617701
    outer loop
      vertex 141.436 132.7 28.6723
      vertex 138.47 139.05 24.8962
      vertex 141.436 139.05 28.6723
    endloop
  endfacet
  facet normal 0.786413 0 -0.617701
    outer loop
      vertex 138.47 139.05 24.8962
      vertex 141.436 132.7 28.6723
      vertex 138.47 132.7 24.8962
    endloop
  endfacet
  facet normal 0.808995 0 -0.587815
    outer loop
      vertex 138.47 132.7 24.8962
      vertex 135.899 139.05 21.3578
      vertex 138.47 139.05 24.8962
    endloop
  endfacet
  facet normal 0.808995 0 -0.587815
    outer loop
      vertex 135.899 139.05 21.3578
      vertex 138.47 132.7 24.8962
      vertex 135.899 132.7 21.3578
    endloop
  endfacet
  facet normal 0.8287 0 -0.559693
    outer loop
      vertex 135.899 132.7 21.3578
      vertex 133.725 139.05 18.1389
      vertex 135.899 139.05 21.3578
    endloop
  endfacet
  facet normal 0.8287 0 -0.559693
    outer loop
      vertex 133.725 139.05 18.1389
      vertex 135.899 132.7 21.3578
      vertex 133.725 132.7 18.1389
    endloop
  endfacet
  facet normal 0.845545 0 -0.533905
    outer loop
      vertex 133.725 132.7 18.1389
      vertex 131.946 139.05 15.3215
      vertex 133.725 139.05 18.1389
    endloop
  endfacet
  facet normal 0.845545 0 -0.533905
    outer loop
      vertex 131.946 139.05 15.3215
      vertex 133.725 132.7 18.1389
      vertex 131.946 132.7 15.3215
    endloop
  endfacet
  facet normal 0.8603 0 -0.509788
    outer loop
      vertex 131.946 132.7 15.3215
      vertex 130.563 139.05 12.9876
      vertex 131.946 139.05 15.3215
    endloop
  endfacet
  facet normal 0.8603 0 -0.509788
    outer loop
      vertex 130.563 139.05 12.9876
      vertex 131.946 132.7 15.3215
      vertex 130.563 132.7 12.9876
    endloop
  endfacet
  facet normal 0.873224 0 -0.487319
    outer loop
      vertex 130.563 132.7 12.9876
      vertex 129.576 139.05 11.219
      vertex 130.563 139.05 12.9876
    endloop
  endfacet
  facet normal 0.873224 0 -0.487319
    outer loop
      vertex 129.576 139.05 11.219
      vertex 130.563 132.7 12.9876
      vertex 129.576 132.7 11.219
    endloop
  endfacet
  facet normal 0.884302 0 -0.466916
    outer loop
      vertex 129.576 132.7 11.219
      vertex 128.984 139.05 10.0978
      vertex 129.576 139.05 11.219
    endloop
  endfacet
  facet normal 0.884302 0 -0.466916
    outer loop
      vertex 128.984 139.05 10.0978
      vertex 129.576 132.7 11.219
      vertex 128.984 132.7 10.0978
    endloop
  endfacet
  facet normal 0.89258 0 -0.45089
    outer loop
      vertex 128.984 132.7 10.0978
      vertex 128.786 139.05 9.70584
      vertex 128.984 139.05 10.0978
    endloop
  endfacet
  facet normal 0.89258 0 -0.45089
    outer loop
      vertex 128.786 139.05 9.70584
      vertex 128.984 132.7 10.0978
      vertex 128.786 132.7 9.70584
    endloop
  endfacet
  facet normal 0.00138245 0 -0.999999
    outer loop
      vertex 52.2333 132.7 9.60001
      vertex 128.786 139.05 9.70584
      vertex 128.786 132.7 9.70584
    endloop
  endfacet
  facet normal 0.00138245 0 -0.999999
    outer loop
      vertex 128.786 139.05 9.70584
      vertex 52.2333 132.7 9.60001
      vertex 52.2333 139.05 9.60001
    endloop
  endfacet
  facet normal -0.998724 0 0.0504993
    outer loop
      vertex 52.2333 132.7 9.60001
      vertex 52.2746 139.05 10.4168
      vertex 52.2333 139.05 9.60001
    endloop
  endfacet
  facet normal -0.998724 0 0.0504993
    outer loop
      vertex 52.2746 139.05 10.4168
      vertex 52.2333 132.7 9.60001
      vertex 52.2746 132.7 10.4168
    endloop
  endfacet
  facet normal -0.996631 0 0.0820134
    outer loop
      vertex 52.2746 132.7 10.4168
      vertex 52.4673 139.05 12.7585
      vertex 52.2746 139.05 10.4168
    endloop
  endfacet
  facet normal -0.996631 0 0.0820134
    outer loop
      vertex 52.4673 139.05 12.7585
      vertex 52.2746 132.7 10.4168
      vertex 52.4673 132.7 12.7585
    endloop
  endfacet
  facet normal -0.992785 0 0.119909
    outer loop
      vertex 52.4673 132.7 12.7585
      vertex 52.9146 139.05 16.4619
      vertex 52.4673 139.05 12.7585
    endloop
  endfacet
  facet normal -0.992785 0 0.119909
    outer loop
      vertex 52.9146 139.05 16.4619
      vertex 52.4673 132.7 12.7585
      vertex 52.9146 132.7 16.4619
    endloop
  endfacet
  facet normal -0.986776 0 0.162087
    outer loop
      vertex 52.9146 132.7 16.4619
      vertex 53.7198 139.05 21.3639
      vertex 52.9146 139.05 16.4619
    endloop
  endfacet
  facet normal -0.986776 0 0.162087
    outer loop
      vertex 53.7198 139.05 21.3639
      vertex 52.9146 132.7 16.4619
      vertex 53.7198 132.7 21.3639
    endloop
  endfacet
  facet normal -0.978004 0 0.208587
    outer loop
      vertex 53.7198 132.7 21.3639
      vertex 54.9861 139.05 27.3012
      vertex 53.7198 139.05 21.3639
    endloop
  endfacet
  facet normal -0.978004 0 0.208587
    outer loop
      vertex 54.9861 139.05 27.3012
      vertex 53.7198 132.7 21.3639
      vertex 54.9861 132.7 27.3012
    endloop
  endfacet
  facet normal -0.965709 0 0.259626
    outer loop
      vertex 54.9861 132.7 27.3012
      vertex 56.8168 139.05 34.1107
      vertex 54.9861 139.05 27.3012
    endloop
  endfacet
  facet normal -0.965709 0 0.259626
    outer loop
      vertex 56.8168 139.05 34.1107
      vertex 54.9861 132.7 27.3012
      vertex 56.8168 132.7 34.1107
    endloop
  endfacet
  facet normal -0.948985 0 0.315323
    outer loop
      vertex 56.8168 132.7 34.1107
      vertex 59.315 139.05 41.6292
      vertex 56.8168 139.05 34.1107
    endloop
  endfacet
  facet normal -0.948985 0 0.315323
    outer loop
      vertex 59.315 139.05 41.6292
      vertex 56.8168 132.7 34.1107
      vertex 59.315 132.7 41.6292
    endloop
  endfacet
  facet normal -0.926749 0 0.37568
    outer loop
      vertex 59.315 132.7 41.6292
      vertex 62.5841 139.05 49.6936
      vertex 59.315 139.05 41.6292
    endloop
  endfacet
  facet normal -0.926749 0 0.37568
    outer loop
      vertex 62.5841 139.05 49.6936
      vertex 59.315 132.7 41.6292
      vertex 62.5841 132.7 49.6936
    endloop
  endfacet
  facet normal -0.897817 0 0.440368
    outer loop
      vertex 62.5841 132.7 49.6936
      vertex 66.7273 139.05 58.1407
      vertex 62.5841 139.05 49.6936
    endloop
  endfacet
  facet normal -0.897817 0 0.440368
    outer loop
      vertex 66.7273 139.05 58.1407
      vertex 62.5841 132.7 49.6936
      vertex 66.7273 132.7 58.1407
    endloop
  endfacet
  facet normal -0.860956 0 0.50868
    outer loop
      vertex 66.7273 132.7 58.1407
      vertex 71.8478 139.05 66.8073
      vertex 66.7273 139.05 58.1407
    endloop
  endfacet
  facet normal -0.860956 0 0.50868
    outer loop
      vertex 71.8478 139.05 66.8073
      vertex 66.7273 132.7 58.1407
      vertex 71.8478 132.7 66.8073
    endloop
  endfacet
  facet normal -0.815045 0 0.579398
    outer loop
      vertex 71.8478 132.7 66.8073
      vertex 78.0488 139.05 75.5303
      vertex 71.8478 139.05 66.8073
    endloop
  endfacet
  facet normal -0.815045 0 0.579398
    outer loop
      vertex 78.0488 139.05 75.5303
      vertex 71.8478 132.7 66.8073
      vertex 78.0488 132.7 75.5303
    endloop
  endfacet
  facet normal -0.759275 0 0.65077
    outer loop
      vertex 78.0488 132.7 75.5303
      vertex 85.4337 139.05 84.1465
      vertex 78.0488 139.05 75.5303
    endloop
  endfacet
  facet normal -0.759275 0 0.65077
    outer loop
      vertex 85.4337 139.05 84.1465
      vertex 78.0488 132.7 75.5303
      vertex 85.4337 132.7 84.1465
    endloop
  endfacet
  facet normal -0.693447 0 0.720508
    outer loop
      vertex 85.4337 139.05 84.1465
      vertex 94.1055 132.7 92.4926
      vertex 94.1055 139.05 92.4926
    endloop
  endfacet
  facet normal -0.693447 0 0.720508
    outer loop
      vertex 94.1055 132.7 92.4926
      vertex 85.4337 139.05 84.1465
      vertex 85.4337 132.7 84.1465
    endloop
  endfacet
  facet normal -0.618167 0 0.786047
    outer loop
      vertex 94.1055 139.05 92.4926
      vertex 104.168 132.7 100.406
      vertex 104.168 139.05 100.406
    endloop
  endfacet
  facet normal -0.618167 0 0.786047
    outer loop
      vertex 104.168 132.7 100.406
      vertex 94.1055 139.05 92.4926
      vertex 94.1055 132.7 92.4926
    endloop
  endfacet
  facet normal -0.534939 0 0.844891
    outer loop
      vertex 104.168 139.05 100.406
      vertex 115.723 132.7 107.722
      vertex 115.723 139.05 107.722
    endloop
  endfacet
  facet normal -0.534939 0 0.844891
    outer loop
      vertex 115.723 132.7 107.722
      vertex 104.168 139.05 100.406
      vertex 104.168 132.7 100.406
    endloop
  endfacet
  facet normal -0.446206 0 0.89493
    outer loop
      vertex 115.723 139.05 107.722
      vertex 128.876 132.7 114.28
      vertex 128.876 139.05 114.28
    endloop
  endfacet
  facet normal -0.446206 0 0.89493
    outer loop
      vertex 128.876 132.7 114.28
      vertex 115.723 139.05 107.722
      vertex 115.723 132.7 107.722
    endloop
  endfacet
  facet normal -0.354681 0 0.934987
    outer loop
      vertex 128.876 139.05 114.28
      vertex 143.728 132.7 119.914
      vertex 143.728 139.05 119.914
    endloop
  endfacet
  facet normal -0.354681 0 0.934987
    outer loop
      vertex 143.728 132.7 119.914
      vertex 128.876 139.05 114.28
      vertex 128.876 132.7 114.28
    endloop
  endfacet
  facet normal -0.263465 0 0.964669
    outer loop
      vertex 143.728 139.05 119.914
      vertex 160.384 132.7 124.463
      vertex 160.384 139.05 124.463
    endloop
  endfacet
  facet normal -0.263465 0 0.964669
    outer loop
      vertex 160.384 132.7 124.463
      vertex 143.728 139.05 119.914
      vertex 143.728 132.7 119.914
    endloop
  endfacet
  facet normal -0.175038 0 0.984562
    outer loop
      vertex 160.384 139.05 124.463
      vertex 178.946 132.7 127.763
      vertex 178.946 139.05 127.763
    endloop
  endfacet
  facet normal -0.175038 0 0.984562
    outer loop
      vertex 178.946 132.7 127.763
      vertex 160.384 139.05 124.463
      vertex 160.384 132.7 124.463
    endloop
  endfacet
  facet normal -0.0913432 0 0.995819
    outer loop
      vertex 178.946 139.05 127.763
      vertex 199.518 132.7 129.65
      vertex 199.518 139.05 129.65
    endloop
  endfacet
  facet normal -0.0913432 0 0.995819
    outer loop
      vertex 199.518 132.7 129.65
      vertex 178.946 139.05 127.763
      vertex 178.946 132.7 127.763
    endloop
  endfacet
  facet normal -0.00714094 0 0.999975
    outer loop
      vertex 199.518 139.05 129.65
      vertex 220.103 132.7 129.797
      vertex 220.103 139.05 129.797
    endloop
  endfacet
  facet normal -0.00714094 0 0.999975
    outer loop
      vertex 220.103 132.7 129.797
      vertex 199.518 139.05 129.65
      vertex 199.518 132.7 129.65
    endloop
  endfacet
  facet normal 0.0900722 0 0.995935
    outer loop
      vertex 220.103 139.05 129.797
      vertex 238.701 132.7 128.115
      vertex 238.701 139.05 128.115
    endloop
  endfacet
  facet normal 0.0900722 0 0.995935
    outer loop
      vertex 238.701 132.7 128.115
      vertex 220.103 139.05 129.797
      vertex 220.103 132.7 129.797
    endloop
  endfacet
  facet normal -1 0 0
    outer loop
      vertex 207 139.05 62.6619
      vertex 207 134.371 97.6911
      vertex 207 139.05 99.8465
    endloop
  endfacet
  facet normal -1 0 0
    outer loop
      vertex 207 132.7 96.7993
      vertex 207 139.05 62.6619
      vertex 207 132.7 62.6619
    endloop
  endfacet
  facet normal -1 0 0
    outer loop
      vertex 207 139.05 62.6619
      vertex 207 132.7 96.7993
      vertex 207 134.371 97.6911
    endloop
  endfacet
  facet normal 1 -0 0
    outer loop
      vertex 200.65 134.371 97.6911
      vertex 200.65 139.05 62.4682
      vertex 200.65 139.05 99.8465
    endloop
  endfacet
  facet normal 1 -0 0
    outer loop
      vertex 200.65 132.7 96.7993
      vertex 200.65 139.05 62.4682
      vertex 200.65 134.371 97.6911
    endloop
  endfacet
  facet normal 1 0 0
    outer loop
      vertex 200.65 139.05 62.4682
      vertex 200.65 132.7 96.7993
      vertex 200.65 132.7 62.4682
    endloop
  endfacet
  facet normal 0 0.470835 -0.882221
    outer loop
      vertex 200.65 132.7 96.7993
      vertex 207 134.371 97.6911
      vertex 207 132.7 96.7993
    endloop
  endfacet
  facet normal 0 0.470835 -0.882221
    outer loop
      vertex 207 134.371 97.6911
      vertex 200.65 132.7 96.7993
      vertex 200.65 134.371 97.6911
    endloop
  endfacet
  facet normal 0 0.418396 -0.908265
    outer loop
      vertex 200.65 134.371 97.6911
      vertex 207 139.05 99.8465
      vertex 207 134.371 97.6911
    endloop
  endfacet
  facet normal 0 0.418396 -0.908265
    outer loop
      vertex 207 139.05 99.8465
      vertex 200.65 134.371 97.6911
      vertex 200.65 139.05 99.8465
    endloop
  endfacet
endsolid OpenSCAD_Model
