solid OpenSCAD_Model
  facet normal 0 -1 0
    outer loop
      vertex 200.65 177.15 115.85
      vertex 205.099 177.15 145.859
      vertex 180.828 177.15 144.852
    endloop
  endfacet
  facet normal 0 -1 0
    outer loop
      vertex 178.496 177.15 91.5218
      vertex 180.828 177.15 144.852
      vertex 158.775 177.15 141.971
    endloop
  endfacet
  facet normal 0 -1 -0
    outer loop
      vertex 205.099 177.15 145.859
      vertex 200.65 177.15 115.85
      vertex 207 177.15 115.85
    endloop
  endfacet
  facet normal 0 -1 0
    outer loop
      vertex 168.546 177.15 88.5436
      vertex 158.775 177.15 141.971
      vertex 138.836 177.15 137.424
    endloop
  endfacet
  facet normal 0 -1 0
    outer loop
      vertex 205.099 177.15 145.859
      vertex 207 177.15 115.85
      vertex 229.295 177.15 144.852
    endloop
  endfacet
  facet normal 0 -1 0
    outer loop
      vertex 151.011 177.15 80.0653
      vertex 138.836 177.15 137.424
      vertex 120.905 177.15 131.418
    endloop
  endfacet
  facet normal 0 -1 0
    outer loop
      vertex 225.644 177.15 92.2591
      vertex 229.295 177.15 144.852
      vertex 207 177.15 115.85
    endloop
  endfacet
  facet normal 0 -1 0
    outer loop
      vertex 143.37 177.15 74.8207
      vertex 120.905 177.15 131.418
      vertex 104.877 177.15 124.163
    endloop
  endfacet
  facet normal 0 -1 -0
    outer loop
      vertex 229.295 177.15 144.852
      vertex 225.644 177.15 92.2591
      vertex 251.129 177.15 141.971
    endloop
  endfacet
  facet normal 0 -1 0
    outer loop
      vertex 136.444 177.15 69.0761
      vertex 104.877 177.15 124.163
      vertex 90.6461 177.15 115.867
    endloop
  endfacet
  facet normal 0 -1 0
    outer loop
      vertex 246.609 177.15 85.8472
      vertex 251.129 177.15 141.971
      vertex 236.581 177.15 89.53
    endloop
  endfacet
  facet normal 0 -1 -0
    outer loop
      vertex 251.129 177.15 141.971
      vertex 246.609 177.15 85.8472
      vertex 270.724 177.15 137.424
    endloop
  endfacet
  facet normal 0 -1 0
    outer loop
      vertex 130.205 177.15 62.9592
      vertex 90.6461 177.15 115.867
      vertex 78.1074 177.15 106.737
    endloop
  endfacet
  facet normal 0 -1 0
    outer loop
      vertex 124.624 177.15 56.5977
      vertex 78.1074 177.15 106.737
      vertex 67.1554 177.15 96.9825
    endloop
  endfacet
  facet normal 0 -1 0
    outer loop
      vertex 138.836 177.15 137.424
      vertex 159.394 177.15 84.6821
      vertex 168.546 177.15 88.5436
    endloop
  endfacet
  facet normal 0 -1 -0
    outer loop
      vertex 200.65 177.15 115.85
      vertex 189.272 177.15 93.4892
      vertex 200.65 177.15 94.3002
    endloop
  endfacet
  facet normal 0 -1 0
    outer loop
      vertex 200.65 177.15 115.85
      vertex 178.496 177.15 91.5218
      vertex 189.272 177.15 93.4892
    endloop
  endfacet
  facet normal 0 -1 -0
    outer loop
      vertex 180.828 177.15 144.852
      vertex 178.496 177.15 91.5218
      vertex 200.65 177.15 115.85
    endloop
  endfacet
  facet normal 0 -1 0
    outer loop
      vertex 119.674 177.15 50.1194
      vertex 67.1554 177.15 96.9825
      vertex 57.6849 177.15 86.8115
    endloop
  endfacet
  facet normal 0 -1 0
    outer loop
      vertex 158.775 177.15 141.971
      vertex 168.546 177.15 88.5436
      vertex 178.496 177.15 91.5218
    endloop
  endfacet
  facet normal 0 -1 0
    outer loop
      vertex 138.836 177.15 137.424
      vertex 151.011 177.15 80.0653
      vertex 159.394 177.15 84.6821
    endloop
  endfacet
  facet normal 0 -1 0
    outer loop
      vertex 115.328 177.15 43.6519
      vertex 57.6849 177.15 86.8115
      vertex 49.5906 177.15 76.4322
    endloop
  endfacet
  facet normal 0 -1 0
    outer loop
      vertex 120.905 177.15 131.418
      vertex 143.37 177.15 74.8207
      vertex 151.011 177.15 80.0653
    endloop
  endfacet
  facet normal 0 -1 0
    outer loop
      vertex 104.877 177.15 124.163
      vertex 136.444 177.15 69.0761
      vertex 143.37 177.15 74.8207
    endloop
  endfacet
  facet normal 0 -1 0
    outer loop
      vertex 108.334 177.15 31.2604
      vertex 49.5906 177.15 76.4322
      vertex 42.767 177.15 66.0529
    endloop
  endfacet
  facet normal 0 -1 0
    outer loop
      vertex 90.6461 177.15 115.867
      vertex 130.205 177.15 62.9592
      vertex 136.444 177.15 69.0761
    endloop
  endfacet
  facet normal 0 -1 0
    outer loop
      vertex 78.1074 177.15 106.737
      vertex 124.624 177.15 56.5977
      vertex 130.205 177.15 62.9592
    endloop
  endfacet
  facet normal 0 -1 0
    outer loop
      vertex 105.63 177.15 25.5917
      vertex 42.767 177.15 66.0529
      vertex 37.1089 177.15 55.8819
    endloop
  endfacet
  facet normal 0 -1 0
    outer loop
      vertex 67.1554 177.15 96.9825
      vertex 119.674 177.15 50.1194
      vertex 124.624 177.15 56.5977
    endloop
  endfacet
  facet normal 0 -1 0
    outer loop
      vertex 103.419 177.15 20.4447
      vertex 37.1089 177.15 55.8819
      vertex 32.5109 177.15 46.1275
    endloop
  endfacet
  facet normal 0 -1 0
    outer loop
      vertex 57.6849 177.15 86.8115
      vertex 115.328 177.15 43.6519
      vertex 119.674 177.15 50.1194
    endloop
  endfacet
  facet normal 0 -1 0
    outer loop
      vertex 49.5906 177.15 76.4322
      vertex 111.557 177.15 37.323
      vertex 115.328 177.15 43.6519
    endloop
  endfacet
  facet normal 0 -1 0
    outer loop
      vertex 101.672 177.15 15.9472
      vertex 32.5109 177.15 46.1275
      vertex 28.8678 177.15 36.9979
    endloop
  endfacet
  facet normal 0 -1 0
    outer loop
      vertex 49.5906 177.15 76.4322
      vertex 108.334 177.15 31.2604
      vertex 111.557 177.15 37.323
    endloop
  endfacet
  facet normal 0 -1 0
    outer loop
      vertex 99.4601 177.15 9.41125
      vertex 28.8678 177.15 36.9979
      vertex 26.0741 177.15 28.7014
    endloop
  endfacet
  facet normal 0 -1 0
    outer loop
      vertex 42.767 177.15 66.0529
      vertex 105.63 177.15 25.5917
      vertex 108.334 177.15 31.2604
    endloop
  endfacet
  facet normal 0 -1 0
    outer loop
      vertex 98.7722 177.15 7.00557
      vertex 26.0741 177.15 28.7014
      vertex 24.0245 177.15 21.4463
    endloop
  endfacet
  facet normal 0 -1 0
    outer loop
      vertex 37.1089 177.15 55.8819
      vertex 103.419 177.15 20.4447
      vertex 105.63 177.15 25.5917
    endloop
  endfacet
  facet normal 0 -1 0
    outer loop
      vertex 32.5109 177.15 46.1275
      vertex 101.672 177.15 15.9472
      vertex 103.419 177.15 20.4447
    endloop
  endfacet
  facet normal 0 -1 0
    outer loop
      vertex 98.7722 177.15 7.00557
      vertex 24.0245 177.15 21.4463
      vertex 22.6138 177.15 15.4409
    endloop
  endfacet
  facet normal 0 -1 0
    outer loop
      vertex 28.8678 177.15 36.9979
      vertex 100.362 177.15 12.2268
      vertex 101.672 177.15 15.9472
    endloop
  endfacet
  facet normal 0 -1 0
    outer loop
      vertex 98.7722 177.15 7.00557
      vertex 22.6138 177.15 15.4409
      vertex 21.7365 177.15 10.8935
    endloop
  endfacet
  facet normal 0 -1 0
    outer loop
      vertex 28.8678 177.15 36.9979
      vertex 99.4601 177.15 9.41125
      vertex 100.362 177.15 12.2268
    endloop
  endfacet
  facet normal 0 -1 0
    outer loop
      vertex 98.7722 177.15 7.00557
      vertex 21.7365 177.15 10.8935
      vertex 21.2874 177.15 8.01225
    endloop
  endfacet
  facet normal 0 -1 0
    outer loop
      vertex 26.0741 177.15 28.7014
      vertex 98.9396 177.15 7.62828
      vertex 99.4601 177.15 9.41125
    endloop
  endfacet
  facet normal 0 -1 0
    outer loop
      vertex 98.7722 177.15 7.00557
      vertex 21.2874 177.15 8.01225
      vertex 21.1611 177.15 7.00557
    endloop
  endfacet
  facet normal 0 -1 0
    outer loop
      vertex 26.0741 177.15 28.7014
      vertex 98.7722 177.15 7.00557
      vertex 98.9396 177.15 7.62828
    endloop
  endfacet
  facet normal 0 -1 0
    outer loop
      vertex 255.761 177.15 81.3452
      vertex 270.724 177.15 137.424
      vertex 246.609 177.15 85.8472
    endloop
  endfacet
  facet normal 0 -1 -0
    outer loop
      vertex 270.724 177.15 137.424
      vertex 255.761 177.15 81.3452
      vertex 288.2 177.15 131.418
    endloop
  endfacet
  facet normal 0 -1 -0
    outer loop
      vertex 288.2 177.15 131.418
      vertex 264.073 177.15 76.1586
      vertex 303.679 177.15 124.163
    endloop
  endfacet
  facet normal 0 -1 0
    outer loop
      vertex 213.762 177.15 93.8999
      vertex 207 177.15 115.85
      vertex 207 177.15 94.1198
    endloop
  endfacet
  facet normal 0 -1 0
    outer loop
      vertex 225.644 177.15 92.2591
      vertex 207 177.15 115.85
      vertex 213.762 177.15 93.8999
    endloop
  endfacet
  facet normal 0 -1 0
    outer loop
      vertex 251.129 177.15 141.971
      vertex 225.644 177.15 92.2591
      vertex 236.581 177.15 89.53
    endloop
  endfacet
  facet normal 0 -1 0
    outer loop
      vertex 264.073 177.15 76.1586
      vertex 288.2 177.15 131.418
      vertex 255.761 177.15 81.3452
    endloop
  endfacet
  facet normal 0 -1 0
    outer loop
      vertex 271.578 177.15 70.422
      vertex 303.679 177.15 124.163
      vertex 264.073 177.15 76.1586
    endloop
  endfacet
  facet normal 0 -1 -0
    outer loop
      vertex 303.679 177.15 124.163
      vertex 271.578 177.15 70.422
      vertex 317.282 177.15 115.867
    endloop
  endfacet
  facet normal 0 -1 0
    outer loop
      vertex 278.312 177.15 64.2699
      vertex 317.282 177.15 115.867
      vertex 271.578 177.15 70.422
    endloop
  endfacet
  facet normal 0 -1 -0
    outer loop
      vertex 317.282 177.15 115.867
      vertex 278.312 177.15 64.2699
      vertex 329.13 177.15 106.737
    endloop
  endfacet
  facet normal 0 -1 0
    outer loop
      vertex 284.309 177.15 57.8367
      vertex 329.13 177.15 106.737
      vertex 278.312 177.15 64.2699
    endloop
  endfacet
  facet normal 0 -1 -0
    outer loop
      vertex 329.13 177.15 106.737
      vertex 284.309 177.15 57.8367
      vertex 339.343 177.15 96.9825
    endloop
  endfacet
  facet normal 0 -1 0
    outer loop
      vertex 289.603 177.15 51.2571
      vertex 339.343 177.15 96.9825
      vertex 284.309 177.15 57.8367
    endloop
  endfacet
  facet normal 0 -1 -0
    outer loop
      vertex 339.343 177.15 96.9825
      vertex 289.603 177.15 51.2571
      vertex 348.043 177.15 86.8115
    endloop
  endfacet
  facet normal 0 -1 0
    outer loop
      vertex 294.229 177.15 44.6656
      vertex 348.043 177.15 86.8115
      vertex 289.603 177.15 51.2571
    endloop
  endfacet
  facet normal 0 -1 -0
    outer loop
      vertex 348.043 177.15 86.8115
      vertex 294.229 177.15 44.6656
      vertex 355.352 177.15 76.4322
    endloop
  endfacet
  facet normal 0 -1 0
    outer loop
      vertex 298.221 177.15 38.1968
      vertex 355.352 177.15 76.4322
      vertex 294.229 177.15 44.6656
    endloop
  endfacet
  facet normal 0 -1 -0
    outer loop
      vertex 355.352 177.15 76.4322
      vertex 298.221 177.15 38.1968
      vertex 361.39 177.15 66.0529
    endloop
  endfacet
  facet normal 0 -1 0
    outer loop
      vertex 301.615 177.15 31.9851
      vertex 361.39 177.15 66.0529
      vertex 298.221 177.15 38.1968
    endloop
  endfacet
  facet normal 0 -1 -0
    outer loop
      vertex 361.39 177.15 66.0529
      vertex 301.615 177.15 31.9851
      vertex 366.278 177.15 55.8819
    endloop
  endfacet
  facet normal 0 -1 0
    outer loop
      vertex 304.444 177.15 26.1651
      vertex 366.278 177.15 55.8819
      vertex 301.615 177.15 31.9851
    endloop
  endfacet
  facet normal 0 -1 -0
    outer loop
      vertex 366.278 177.15 55.8819
      vertex 304.444 177.15 26.1651
      vertex 370.137 177.15 46.1275
    endloop
  endfacet
  facet normal 0 -1 0
    outer loop
      vertex 306.743 177.15 20.8714
      vertex 370.137 177.15 46.1275
      vertex 304.444 177.15 26.1651
    endloop
  endfacet
  facet normal 0 -1 -0
    outer loop
      vertex 370.137 177.15 46.1275
      vertex 306.743 177.15 20.8714
      vertex 373.089 177.15 36.9979
    endloop
  endfacet
  facet normal 0 -1 0
    outer loop
      vertex 308.547 177.15 16.2385
      vertex 373.089 177.15 36.9979
      vertex 306.743 177.15 20.8714
    endloop
  endfacet
  facet normal 0 -1 0
    outer loop
      vertex 309.889 177.15 12.4009
      vertex 373.089 177.15 36.9979
      vertex 308.547 177.15 16.2385
    endloop
  endfacet
  facet normal 0 -1 -0
    outer loop
      vertex 373.089 177.15 36.9979
      vertex 309.889 177.15 12.4009
      vertex 375.255 177.15 28.7014
    endloop
  endfacet
  facet normal 0 -1 0
    outer loop
      vertex 310.806 177.15 9.49318
      vertex 375.255 177.15 28.7014
      vertex 309.889 177.15 12.4009
    endloop
  endfacet
  facet normal 0 -1 -0
    outer loop
      vertex 375.255 177.15 28.7014
      vertex 310.806 177.15 9.49318
      vertex 376.755 177.15 21.4463
    endloop
  endfacet
  facet normal 0 -1 0
    outer loop
      vertex 311.33 177.15 7.64989
      vertex 376.755 177.15 21.4463
      vertex 310.806 177.15 9.49318
    endloop
  endfacet
  facet normal 0 -1 0
    outer loop
      vertex 311.497 177.15 7.00557
      vertex 376.755 177.15 21.4463
      vertex 311.33 177.15 7.64989
    endloop
  endfacet
  facet normal 0 -1 -0
    outer loop
      vertex 376.755 177.15 21.4463
      vertex 311.497 177.15 7.00557
      vertex 377.711 177.15 15.4409
    endloop
  endfacet
  facet normal 0 -1 -0
    outer loop
      vertex 377.711 177.15 15.4409
      vertex 311.497 177.15 7.00557
      vertex 378.244 177.15 10.8935
    endloop
  endfacet
  facet normal 0 -1 -0
    outer loop
      vertex 378.244 177.15 10.8935
      vertex 311.497 177.15 7.00557
      vertex 378.475 177.15 8.01225
    endloop
  endfacet
  facet normal 0 -1 -0
    outer loop
      vertex 378.475 177.15 8.01225
      vertex 311.497 177.15 7.00557
      vertex 378.525 177.15 7.00557
    endloop
  endfacet
  facet normal 0 1 -0
    outer loop
      vertex 207 183.5 117.91
      vertex 205.099 183.5 145.859
      vertex 229.295 183.5 144.852
    endloop
  endfacet
  facet normal 0 1 0
    outer loop
      vertex 225.644 183.5 92.2591
      vertex 229.295 183.5 144.852
      vertex 251.129 183.5 141.971
    endloop
  endfacet
  facet normal 0 1 0
    outer loop
      vertex 200.65 183.5 117.91
      vertex 205.099 183.5 145.859
      vertex 207 183.5 117.91
    endloop
  endfacet
  facet normal 0 1 0
    outer loop
      vertex 246.609 183.5 85.8472
      vertex 251.129 183.5 141.971
      vertex 270.724 183.5 137.424
    endloop
  endfacet
  facet normal 0 1 0
    outer loop
      vertex 205.099 183.5 145.859
      vertex 200.65 183.5 117.91
      vertex 180.828 183.5 144.852
    endloop
  endfacet
  facet normal 0 1 0
    outer loop
      vertex 255.761 183.5 81.3452
      vertex 270.724 183.5 137.424
      vertex 288.2 183.5 131.418
    endloop
  endfacet
  facet normal 0 1 0
    outer loop
      vertex 180.828 183.5 144.852
      vertex 200.65 183.5 117.91
      vertex 158.775 183.5 141.971
    endloop
  endfacet
  facet normal 0 1 0
    outer loop
      vertex 264.073 183.5 76.1586
      vertex 288.2 183.5 131.418
      vertex 303.679 183.5 124.163
    endloop
  endfacet
  facet normal 0 1 -0
    outer loop
      vertex 178.496 183.5 91.5218
      vertex 158.775 183.5 141.971
      vertex 200.65 183.5 117.91
    endloop
  endfacet
  facet normal 0 1 -0
    outer loop
      vertex 168.546 183.5 88.5436
      vertex 158.775 183.5 141.971
      vertex 178.496 183.5 91.5218
    endloop
  endfacet
  facet normal 0 1 0
    outer loop
      vertex 271.578 183.5 70.422
      vertex 303.679 183.5 124.163
      vertex 317.282 183.5 115.867
    endloop
  endfacet
  facet normal 0 1 0
    outer loop
      vertex 278.312 183.5 64.2699
      vertex 317.282 183.5 115.867
      vertex 329.13 183.5 106.737
    endloop
  endfacet
  facet normal 0 1 0
    outer loop
      vertex 284.309 183.5 57.8367
      vertex 329.13 183.5 106.737
      vertex 339.343 183.5 96.9825
    endloop
  endfacet
  facet normal 0 1 0
    outer loop
      vertex 251.129 183.5 141.971
      vertex 246.609 183.5 85.8472
      vertex 236.581 183.5 89.53
    endloop
  endfacet
  facet normal 0 1 0
    outer loop
      vertex 207 183.5 117.91
      vertex 213.762 183.5 93.8999
      vertex 207 183.5 94.1198
    endloop
  endfacet
  facet normal 0 1 0
    outer loop
      vertex 207 183.5 117.91
      vertex 225.644 183.5 92.2591
      vertex 213.762 183.5 93.8999
    endloop
  endfacet
  facet normal 0 1 0
    outer loop
      vertex 229.295 183.5 144.852
      vertex 225.644 183.5 92.2591
      vertex 207 183.5 117.91
    endloop
  endfacet
  facet normal 0 1 0
    outer loop
      vertex 289.603 183.5 51.2571
      vertex 339.343 183.5 96.9825
      vertex 348.043 183.5 86.8115
    endloop
  endfacet
  facet normal -0 1 0
    outer loop
      vertex 225.644 183.5 92.2591
      vertex 251.129 183.5 141.971
      vertex 236.581 183.5 89.53
    endloop
  endfacet
  facet normal 0 1 0
    outer loop
      vertex 270.724 183.5 137.424
      vertex 255.761 183.5 81.3452
      vertex 246.609 183.5 85.8472
    endloop
  endfacet
  facet normal 0 1 0
    outer loop
      vertex 294.229 183.5 44.6656
      vertex 348.043 183.5 86.8115
      vertex 355.352 183.5 76.4322
    endloop
  endfacet
  facet normal 0 1 0
    outer loop
      vertex 288.2 183.5 131.418
      vertex 264.073 183.5 76.1586
      vertex 255.761 183.5 81.3452
    endloop
  endfacet
  facet normal 0 1 0
    outer loop
      vertex 303.679 183.5 124.163
      vertex 271.578 183.5 70.422
      vertex 264.073 183.5 76.1586
    endloop
  endfacet
  facet normal 0 1 0
    outer loop
      vertex 298.221 183.5 38.1968
      vertex 355.352 183.5 76.4322
      vertex 361.39 183.5 66.0529
    endloop
  endfacet
  facet normal 0 1 0
    outer loop
      vertex 317.282 183.5 115.867
      vertex 278.312 183.5 64.2699
      vertex 271.578 183.5 70.422
    endloop
  endfacet
  facet normal 0 1 0
    outer loop
      vertex 329.13 183.5 106.737
      vertex 284.309 183.5 57.8367
      vertex 278.312 183.5 64.2699
    endloop
  endfacet
  facet normal 0 1 0
    outer loop
      vertex 301.615 183.5 31.9851
      vertex 361.39 183.5 66.0529
      vertex 366.278 183.5 55.8819
    endloop
  endfacet
  facet normal 0 1 0
    outer loop
      vertex 339.343 183.5 96.9825
      vertex 289.603 183.5 51.2571
      vertex 284.309 183.5 57.8367
    endloop
  endfacet
  facet normal 0 1 0
    outer loop
      vertex 304.444 183.5 26.1651
      vertex 366.278 183.5 55.8819
      vertex 370.137 183.5 46.1275
    endloop
  endfacet
  facet normal 0 1 0
    outer loop
      vertex 348.043 183.5 86.8115
      vertex 294.229 183.5 44.6656
      vertex 289.603 183.5 51.2571
    endloop
  endfacet
  facet normal 0 1 0
    outer loop
      vertex 355.352 183.5 76.4322
      vertex 298.221 183.5 38.1968
      vertex 294.229 183.5 44.6656
    endloop
  endfacet
  facet normal 0 1 0
    outer loop
      vertex 306.743 183.5 20.8714
      vertex 370.137 183.5 46.1275
      vertex 373.089 183.5 36.9979
    endloop
  endfacet
  facet normal 0 1 0
    outer loop
      vertex 361.39 183.5 66.0529
      vertex 301.615 183.5 31.9851
      vertex 298.221 183.5 38.1968
    endloop
  endfacet
  facet normal 0 1 0
    outer loop
      vertex 309.889 183.5 12.4009
      vertex 373.089 183.5 36.9979
      vertex 375.255 183.5 28.7014
    endloop
  endfacet
  facet normal 0 1 0
    outer loop
      vertex 366.278 183.5 55.8819
      vertex 304.444 183.5 26.1651
      vertex 301.615 183.5 31.9851
    endloop
  endfacet
  facet normal 0 1 0
    outer loop
      vertex 310.806 183.5 9.49318
      vertex 375.255 183.5 28.7014
      vertex 376.755 183.5 21.4463
    endloop
  endfacet
  facet normal 0 1 0
    outer loop
      vertex 370.137 183.5 46.1275
      vertex 306.743 183.5 20.8714
      vertex 304.444 183.5 26.1651
    endloop
  endfacet
  facet normal 0 1 0
    outer loop
      vertex 373.089 183.5 36.9979
      vertex 308.547 183.5 16.2385
      vertex 306.743 183.5 20.8714
    endloop
  endfacet
  facet normal 0 1 0
    outer loop
      vertex 311.497 183.5 7.00557
      vertex 376.755 183.5 21.4463
      vertex 377.711 183.5 15.4409
    endloop
  endfacet
  facet normal 0 1 0
    outer loop
      vertex 373.089 183.5 36.9979
      vertex 309.889 183.5 12.4009
      vertex 308.547 183.5 16.2385
    endloop
  endfacet
  facet normal 0 1 0
    outer loop
      vertex 311.497 183.5 7.00557
      vertex 377.711 183.5 15.4409
      vertex 378.244 183.5 10.8935
    endloop
  endfacet
  facet normal 0 1 0
    outer loop
      vertex 375.255 183.5 28.7014
      vertex 310.806 183.5 9.49318
      vertex 309.889 183.5 12.4009
    endloop
  endfacet
  facet normal 0 1 0
    outer loop
      vertex 311.497 183.5 7.00557
      vertex 378.244 183.5 10.8935
      vertex 378.475 183.5 8.01225
    endloop
  endfacet
  facet normal 0 1 0
    outer loop
      vertex 376.755 183.5 21.4463
      vertex 311.33 183.5 7.64989
      vertex 310.806 183.5 9.49318
    endloop
  endfacet
  facet normal 0 1 0
    outer loop
      vertex 311.497 183.5 7.00557
      vertex 378.475 183.5 8.01225
      vertex 378.525 183.5 7.00557
    endloop
  endfacet
  facet normal 0 1 0
    outer loop
      vertex 376.755 183.5 21.4463
      vertex 311.497 183.5 7.00557
      vertex 311.33 183.5 7.64989
    endloop
  endfacet
  facet normal 0 1 -0
    outer loop
      vertex 159.394 183.5 84.6821
      vertex 138.836 183.5 137.424
      vertex 168.546 183.5 88.5436
    endloop
  endfacet
  facet normal 0 1 -0
    outer loop
      vertex 151.011 183.5 80.0653
      vertex 138.836 183.5 137.424
      vertex 159.394 183.5 84.6821
    endloop
  endfacet
  facet normal 0 1 0
    outer loop
      vertex 138.836 183.5 137.424
      vertex 151.011 183.5 80.0653
      vertex 120.905 183.5 131.418
    endloop
  endfacet
  facet normal 0 1 -0
    outer loop
      vertex 143.37 183.5 74.8207
      vertex 120.905 183.5 131.418
      vertex 151.011 183.5 80.0653
    endloop
  endfacet
  facet normal 0 1 0
    outer loop
      vertex 189.272 183.5 93.4892
      vertex 200.65 183.5 117.91
      vertex 200.65 183.5 94.3002
    endloop
  endfacet
  facet normal 0 1 0
    outer loop
      vertex 178.496 183.5 91.5218
      vertex 200.65 183.5 117.91
      vertex 189.272 183.5 93.4892
    endloop
  endfacet
  facet normal 0 1 0
    outer loop
      vertex 158.775 183.5 141.971
      vertex 168.546 183.5 88.5436
      vertex 138.836 183.5 137.424
    endloop
  endfacet
  facet normal 0 1 0
    outer loop
      vertex 120.905 183.5 131.418
      vertex 143.37 183.5 74.8207
      vertex 104.877 183.5 124.163
    endloop
  endfacet
  facet normal 0 1 -0
    outer loop
      vertex 136.444 183.5 69.0761
      vertex 104.877 183.5 124.163
      vertex 143.37 183.5 74.8207
    endloop
  endfacet
  facet normal 0 1 0
    outer loop
      vertex 104.877 183.5 124.163
      vertex 136.444 183.5 69.0761
      vertex 90.6461 183.5 115.867
    endloop
  endfacet
  facet normal 0 1 -0
    outer loop
      vertex 130.205 183.5 62.9592
      vertex 90.6461 183.5 115.867
      vertex 136.444 183.5 69.0761
    endloop
  endfacet
  facet normal 0 1 0
    outer loop
      vertex 90.6461 183.5 115.867
      vertex 130.205 183.5 62.9592
      vertex 78.1074 183.5 106.737
    endloop
  endfacet
  facet normal 0 1 -0
    outer loop
      vertex 124.624 183.5 56.5977
      vertex 78.1074 183.5 106.737
      vertex 130.205 183.5 62.9592
    endloop
  endfacet
  facet normal 0 1 0
    outer loop
      vertex 78.1074 183.5 106.737
      vertex 124.624 183.5 56.5977
      vertex 67.1554 183.5 96.9825
    endloop
  endfacet
  facet normal 0 1 -0
    outer loop
      vertex 119.674 183.5 50.1194
      vertex 67.1554 183.5 96.9825
      vertex 124.624 183.5 56.5977
    endloop
  endfacet
  facet normal 0 1 0
    outer loop
      vertex 67.1554 183.5 96.9825
      vertex 119.674 183.5 50.1194
      vertex 57.6849 183.5 86.8115
    endloop
  endfacet
  facet normal 0 1 -0
    outer loop
      vertex 115.328 183.5 43.6519
      vertex 57.6849 183.5 86.8115
      vertex 119.674 183.5 50.1194
    endloop
  endfacet
  facet normal 0 1 0
    outer loop
      vertex 57.6849 183.5 86.8115
      vertex 115.328 183.5 43.6519
      vertex 49.5906 183.5 76.4322
    endloop
  endfacet
  facet normal 0 1 -0
    outer loop
      vertex 111.557 183.5 37.323
      vertex 49.5906 183.5 76.4322
      vertex 115.328 183.5 43.6519
    endloop
  endfacet
  facet normal 0 1 -0
    outer loop
      vertex 108.334 183.5 31.2604
      vertex 49.5906 183.5 76.4322
      vertex 111.557 183.5 37.323
    endloop
  endfacet
  facet normal 0 1 0
    outer loop
      vertex 49.5906 183.5 76.4322
      vertex 108.334 183.5 31.2604
      vertex 42.767 183.5 66.0529
    endloop
  endfacet
  facet normal 0 1 -0
    outer loop
      vertex 105.63 183.5 25.5917
      vertex 42.767 183.5 66.0529
      vertex 108.334 183.5 31.2604
    endloop
  endfacet
  facet normal 0 1 0
    outer loop
      vertex 42.767 183.5 66.0529
      vertex 105.63 183.5 25.5917
      vertex 37.1089 183.5 55.8819
    endloop
  endfacet
  facet normal 0 1 -0
    outer loop
      vertex 103.419 183.5 20.4447
      vertex 37.1089 183.5 55.8819
      vertex 105.63 183.5 25.5917
    endloop
  endfacet
  facet normal 0 1 0
    outer loop
      vertex 37.1089 183.5 55.8819
      vertex 103.419 183.5 20.4447
      vertex 32.5109 183.5 46.1275
    endloop
  endfacet
  facet normal 0 1 -0
    outer loop
      vertex 101.672 183.5 15.9472
      vertex 32.5109 183.5 46.1275
      vertex 103.419 183.5 20.4447
    endloop
  endfacet
  facet normal 0 1 0
    outer loop
      vertex 32.5109 183.5 46.1275
      vertex 101.672 183.5 15.9472
      vertex 28.8678 183.5 36.9979
    endloop
  endfacet
  facet normal 0 1 -0
    outer loop
      vertex 100.362 183.5 12.2268
      vertex 28.8678 183.5 36.9979
      vertex 101.672 183.5 15.9472
    endloop
  endfacet
  facet normal 0 1 -0
    outer loop
      vertex 99.4601 183.5 9.41125
      vertex 28.8678 183.5 36.9979
      vertex 100.362 183.5 12.2268
    endloop
  endfacet
  facet normal 0 1 0
    outer loop
      vertex 28.8678 183.5 36.9979
      vertex 99.4601 183.5 9.41125
      vertex 26.0741 183.5 28.7014
    endloop
  endfacet
  facet normal 0 1 -0
    outer loop
      vertex 98.9396 183.5 7.62828
      vertex 26.0741 183.5 28.7014
      vertex 99.4601 183.5 9.41125
    endloop
  endfacet
  facet normal 0 1 -0
    outer loop
      vertex 98.7722 183.5 7.00557
      vertex 26.0741 183.5 28.7014
      vertex 98.9396 183.5 7.62828
    endloop
  endfacet
  facet normal 0 1 0
    outer loop
      vertex 26.0741 183.5 28.7014
      vertex 98.7722 183.5 7.00557
      vertex 24.0245 183.5 21.4463
    endloop
  endfacet
  facet normal 0 1 0
    outer loop
      vertex 24.0245 183.5 21.4463
      vertex 98.7722 183.5 7.00557
      vertex 22.6138 183.5 15.4409
    endloop
  endfacet
  facet normal 0 1 0
    outer loop
      vertex 22.6138 183.5 15.4409
      vertex 98.7722 183.5 7.00557
      vertex 21.7365 183.5 10.8935
    endloop
  endfacet
  facet normal 0 1 0
    outer loop
      vertex 21.7365 183.5 10.8935
      vertex 98.7722 183.5 7.00557
      vertex 21.2874 183.5 8.01225
    endloop
  endfacet
  facet normal 0 1 0
    outer loop
      vertex 21.2874 183.5 8.01225
      vertex 98.7722 183.5 7.00557
      vertex 21.1611 183.5 7.00557
    endloop
  endfacet
  facet normal 0.130816 0 0.991407
    outer loop
      vertex 229.295 183.5 144.852
      vertex 251.129 177.15 141.971
      vertex 251.129 183.5 141.971
    endloop
  endfacet
  facet normal 0.130816 0 0.991407
    outer loop
      vertex 251.129 177.15 141.971
      vertex 229.295 183.5 144.852
      vertex 229.295 177.15 144.852
    endloop
  endfacet
  facet normal 0.226043 0 0.974117
    outer loop
      vertex 251.129 183.5 141.971
      vertex 270.724 177.15 137.424
      vertex 270.724 183.5 137.424
    endloop
  endfacet
  facet normal 0.226043 0 0.974117
    outer loop
      vertex 270.724 177.15 137.424
      vertex 251.129 183.5 141.971
      vertex 251.129 177.15 141.971
    endloop
  endfacet
  facet normal 0.325013 0 0.945709
    outer loop
      vertex 270.724 183.5 137.424
      vertex 288.2 177.15 131.418
      vertex 288.2 183.5 131.418
    endloop
  endfacet
  facet normal 0.325013 0 0.945709
    outer loop
      vertex 288.2 177.15 131.418
      vertex 270.724 183.5 137.424
      vertex 270.724 177.15 137.424
    endloop
  endfacet
  facet normal 0.424396 0 0.905476
    outer loop
      vertex 288.2 183.5 131.418
      vertex 303.679 177.15 124.163
      vertex 303.679 183.5 124.163
    endloop
  endfacet
  facet normal 0.424396 0 0.905476
    outer loop
      vertex 303.679 177.15 124.163
      vertex 288.2 183.5 131.418
      vertex 288.2 177.15 131.418
    endloop
  endfacet
  facet normal 0.520675 0 0.853755
    outer loop
      vertex 303.679 183.5 124.163
      vertex 317.282 177.15 115.867
      vertex 317.282 183.5 115.867
    endloop
  endfacet
  facet normal 0.520675 0 0.853755
    outer loop
      vertex 317.282 177.15 115.867
      vertex 303.679 183.5 124.163
      vertex 303.679 177.15 124.163
    endloop
  endfacet
  facet normal 0.610389 0 0.792102
    outer loop
      vertex 317.282 183.5 115.867
      vertex 329.13 177.15 106.737
      vertex 329.13 183.5 106.737
    endloop
  endfacet
  facet normal 0.610389 0 0.792102
    outer loop
      vertex 329.13 177.15 106.737
      vertex 317.282 183.5 115.867
      vertex 317.282 177.15 115.867
    endloop
  endfacet
  facet normal 0.690688 0 0.723153
    outer loop
      vertex 329.13 183.5 106.737
      vertex 339.343 177.15 96.9825
      vertex 339.343 183.5 96.9825
    endloop
  endfacet
  facet normal 0.690688 0 0.723153
    outer loop
      vertex 339.343 177.15 96.9825
      vertex 329.13 183.5 106.737
      vertex 329.13 177.15 106.737
    endloop
  endfacet
  facet normal 0.759921 -0 0.650016
    outer loop
      vertex 339.343 177.15 96.9825
      vertex 348.043 183.5 86.8115
      vertex 339.343 183.5 96.9825
    endloop
  endfacet
  facet normal 0.759921 0 0.650016
    outer loop
      vertex 348.043 183.5 86.8115
      vertex 339.343 177.15 96.9825
      vertex 348.043 177.15 86.8115
    endloop
  endfacet
  facet normal 0.817619 -0 0.575759
    outer loop
      vertex 348.043 177.15 86.8115
      vertex 355.352 183.5 76.4322
      vertex 348.043 183.5 86.8115
    endloop
  endfacet
  facet normal 0.817619 0 0.575759
    outer loop
      vertex 355.352 183.5 76.4322
      vertex 348.043 177.15 86.8115
      vertex 355.352 177.15 76.4322
    endloop
  endfacet
  facet normal 0.86438 -0 0.50284
    outer loop
      vertex 355.352 177.15 76.4322
      vertex 361.39 183.5 66.0529
      vertex 355.352 183.5 76.4322
    endloop
  endfacet
  facet normal 0.86438 0 0.50284
    outer loop
      vertex 361.39 183.5 66.0529
      vertex 355.352 177.15 76.4322
      vertex 361.39 177.15 66.0529
    endloop
  endfacet
  facet normal 0.901318 -0 0.433157
    outer loop
      vertex 361.39 177.15 66.0529
      vertex 366.278 183.5 55.8819
      vertex 361.39 183.5 66.0529
    endloop
  endfacet
  facet normal 0.901318 0 0.433157
    outer loop
      vertex 366.278 183.5 55.8819
      vertex 361.39 177.15 66.0529
      vertex 366.278 177.15 55.8819
    endloop
  endfacet
  facet normal 0.929876 -0 0.367874
    outer loop
      vertex 366.278 177.15 55.8819
      vertex 370.137 183.5 46.1275
      vertex 366.278 183.5 55.8819
    endloop
  endfacet
  facet normal 0.929876 0 0.367874
    outer loop
      vertex 370.137 183.5 46.1275
      vertex 366.278 177.15 55.8819
      vertex 370.137 177.15 46.1275
    endloop
  endfacet
  facet normal 0.951496 -0 0.30766
    outer loop
      vertex 370.137 177.15 46.1275
      vertex 373.089 183.5 36.9979
      vertex 370.137 183.5 46.1275
    endloop
  endfacet
  facet normal 0.951496 0 0.30766
    outer loop
      vertex 373.089 183.5 36.9979
      vertex 370.137 177.15 46.1275
      vertex 373.089 177.15 36.9979
    endloop
  endfacet
  facet normal 0.967569 -0 0.252607
    outer loop
      vertex 373.089 177.15 36.9979
      vertex 375.255 183.5 28.7014
      vertex 373.089 183.5 36.9979
    endloop
  endfacet
  facet normal 0.967569 0 0.252607
    outer loop
      vertex 375.255 183.5 28.7014
      vertex 373.089 177.15 36.9979
      vertex 375.255 177.15 28.7014
    endloop
  endfacet
  facet normal 0.979289 -0 0.202469
    outer loop
      vertex 375.255 177.15 28.7014
      vertex 376.755 183.5 21.4463
      vertex 375.255 183.5 28.7014
    endloop
  endfacet
  facet normal 0.979289 0 0.202469
    outer loop
      vertex 376.755 183.5 21.4463
      vertex 375.255 177.15 28.7014
      vertex 376.755 177.15 21.4463
    endloop
  endfacet
  facet normal 0.987565 -0 0.157211
    outer loop
      vertex 376.755 177.15 21.4463
      vertex 377.711 183.5 15.4409
      vertex 376.755 183.5 21.4463
    endloop
  endfacet
  facet normal 0.987565 0 0.157211
    outer loop
      vertex 377.711 183.5 15.4409
      vertex 376.755 177.15 21.4463
      vertex 377.711 177.15 15.4409
    endloop
  endfacet
  facet normal 0.993201 -0 0.116413
    outer loop
      vertex 377.711 177.15 15.4409
      vertex 378.244 183.5 10.8935
      vertex 377.711 183.5 15.4409
    endloop
  endfacet
  facet normal 0.993201 0 0.116413
    outer loop
      vertex 378.244 183.5 10.8935
      vertex 377.711 177.15 15.4409
      vertex 378.244 177.15 10.8935
    endloop
  endfacet
  facet normal 0.996802 -0 0.0799171
    outer loop
      vertex 378.244 177.15 10.8935
      vertex 378.475 183.5 8.01225
      vertex 378.244 183.5 10.8935
    endloop
  endfacet
  facet normal 0.996802 0 0.0799171
    outer loop
      vertex 378.475 183.5 8.01225
      vertex 378.244 177.15 10.8935
      vertex 378.475 177.15 8.01225
    endloop
  endfacet
  facet normal 0.998769 -0 0.0496071
    outer loop
      vertex 378.475 177.15 8.01225
      vertex 378.525 183.5 7.00557
      vertex 378.475 183.5 8.01225
    endloop
  endfacet
  facet normal 0.998769 0 0.0496071
    outer loop
      vertex 378.525 183.5 7.00557
      vertex 378.475 177.15 8.01225
      vertex 378.525 177.15 7.00557
    endloop
  endfacet
  facet normal 0 0 -1
    outer loop
      vertex 311.497 177.15 7.00557
      vertex 378.525 183.5 7.00557
      vertex 378.525 177.15 7.00557
    endloop
  endfacet
  facet normal -0 0 -1
    outer loop
      vertex 378.525 183.5 7.00557
      vertex 311.497 177.15 7.00557
      vertex 311.497 183.5 7.00557
    endloop
  endfacet
  facet normal -0.968014 0 -0.250898
    outer loop
      vertex 311.497 177.15 7.00557
      vertex 311.33 183.5 7.64989
      vertex 311.497 183.5 7.00557
    endloop
  endfacet
  facet normal -0.968014 -0 -0.250898
    outer loop
      vertex 311.33 183.5 7.64989
      vertex 311.497 177.15 7.00557
      vertex 311.33 177.15 7.64989
    endloop
  endfacet
  facet normal -0.961889 0 -0.27344
    outer loop
      vertex 311.33 177.15 7.64989
      vertex 310.806 183.5 9.49318
      vertex 311.33 183.5 7.64989
    endloop
  endfacet
  facet normal -0.961889 -0 -0.27344
    outer loop
      vertex 310.806 183.5 9.49318
      vertex 311.33 177.15 7.64989
      vertex 310.806 177.15 9.49318
    endloop
  endfacet
  facet normal -0.953698 0 -0.300765
    outer loop
      vertex 310.806 177.15 9.49318
      vertex 309.889 183.5 12.4009
      vertex 310.806 183.5 9.49318
    endloop
  endfacet
  facet normal -0.953698 -0 -0.300765
    outer loop
      vertex 309.889 183.5 12.4009
      vertex 310.806 177.15 9.49318
      vertex 309.889 177.15 12.4009
    endloop
  endfacet
  facet normal -0.943947 0 -0.330096
    outer loop
      vertex 309.889 177.15 12.4009
      vertex 308.547 183.5 16.2385
      vertex 309.889 183.5 12.4009
    endloop
  endfacet
  facet normal -0.943947 -0 -0.330096
    outer loop
      vertex 308.547 183.5 16.2385
      vertex 309.889 177.15 12.4009
      vertex 308.547 177.15 16.2385
    endloop
  endfacet
  facet normal -0.931847 0 -0.362851
    outer loop
      vertex 308.547 177.15 16.2385
      vertex 306.743 183.5 20.8714
      vertex 308.547 183.5 16.2385
    endloop
  endfacet
  facet normal -0.931847 -0 -0.362851
    outer loop
      vertex 306.743 183.5 20.8714
      vertex 308.547 177.15 16.2385
      vertex 306.743 177.15 20.8714
    endloop
  endfacet
  facet normal -0.917235 0 -0.398346
    outer loop
      vertex 306.743 177.15 20.8714
      vertex 304.444 183.5 26.1651
      vertex 306.743 183.5 20.8714
    endloop
  endfacet
  facet normal -0.917235 -0 -0.398346
    outer loop
      vertex 304.444 183.5 26.1651
      vertex 306.743 177.15 20.8714
      vertex 304.444 177.15 26.1651
    endloop
  endfacet
  facet normal -0.899378 0 -0.437172
    outer loop
      vertex 304.444 177.15 26.1651
      vertex 301.615 183.5 31.9851
      vertex 304.444 183.5 26.1651
    endloop
  endfacet
  facet normal -0.899378 -0 -0.437172
    outer loop
      vertex 301.615 183.5 31.9851
      vertex 304.444 177.15 26.1651
      vertex 301.615 177.15 31.9851
    endloop
  endfacet
  facet normal -0.877551 0 -0.479484
    outer loop
      vertex 301.615 177.15 31.9851
      vertex 298.221 183.5 38.1968
      vertex 301.615 183.5 31.9851
    endloop
  endfacet
  facet normal -0.877551 -0 -0.479484
    outer loop
      vertex 298.221 183.5 38.1968
      vertex 301.615 177.15 31.9851
      vertex 298.221 177.15 38.1968
    endloop
  endfacet
  facet normal -0.851 0 -0.525166
    outer loop
      vertex 298.221 177.15 38.1968
      vertex 294.229 183.5 44.6656
      vertex 298.221 183.5 38.1968
    endloop
  endfacet
  facet normal -0.851 -0 -0.525166
    outer loop
      vertex 294.229 183.5 44.6656
      vertex 298.221 177.15 38.1968
      vertex 294.229 177.15 44.6656
    endloop
  endfacet
  facet normal -0.818534 0 -0.574458
    outer loop
      vertex 294.229 177.15 44.6656
      vertex 289.603 183.5 51.2571
      vertex 294.229 183.5 44.6656
    endloop
  endfacet
  facet normal -0.818534 -0 -0.574458
    outer loop
      vertex 289.603 183.5 51.2571
      vertex 294.229 177.15 44.6656
      vertex 289.603 177.15 51.2571
    endloop
  endfacet
  facet normal -0.779114 0 -0.626882
    outer loop
      vertex 289.603 177.15 51.2571
      vertex 284.309 183.5 57.8367
      vertex 289.603 183.5 51.2571
    endloop
  endfacet
  facet normal -0.779114 -0 -0.626882
    outer loop
      vertex 284.309 183.5 57.8367
      vertex 289.603 177.15 51.2571
      vertex 284.309 177.15 57.8367
    endloop
  endfacet
  facet normal -0.73147 0 -0.681873
    outer loop
      vertex 284.309 177.15 57.8367
      vertex 278.312 183.5 64.2699
      vertex 284.309 183.5 57.8367
    endloop
  endfacet
  facet normal -0.73147 -0 -0.681873
    outer loop
      vertex 278.312 183.5 64.2699
      vertex 284.309 177.15 57.8367
      vertex 278.312 177.15 64.2699
    endloop
  endfacet
  facet normal -0.674488 0 -0.738285
    outer loop
      vertex 271.578 177.15 70.422
      vertex 278.312 183.5 64.2699
      vertex 278.312 177.15 64.2699
    endloop
  endfacet
  facet normal -0.674488 0 -0.738285
    outer loop
      vertex 278.312 183.5 64.2699
      vertex 271.578 177.15 70.422
      vertex 271.578 183.5 70.422
    endloop
  endfacet
  facet normal -0.607282 0 -0.794486
    outer loop
      vertex 264.073 177.15 76.1586
      vertex 271.578 183.5 70.422
      vertex 271.578 177.15 70.422
    endloop
  endfacet
  facet normal -0.607282 0 -0.794486
    outer loop
      vertex 271.578 183.5 70.422
      vertex 264.073 177.15 76.1586
      vertex 264.073 183.5 76.1586
    endloop
  endfacet
  facet normal -0.529382 0 -0.848383
    outer loop
      vertex 255.761 177.15 81.3452
      vertex 264.073 183.5 76.1586
      vertex 264.073 177.15 76.1586
    endloop
  endfacet
  facet normal -0.529382 0 -0.848383
    outer loop
      vertex 264.073 183.5 76.1586
      vertex 255.761 177.15 81.3452
      vertex 255.761 183.5 81.3452
    endloop
  endfacet
  facet normal -0.4414 0 -0.89731
    outer loop
      vertex 246.609 177.15 85.8472
      vertex 255.761 183.5 81.3452
      vertex 255.761 177.15 81.3452
    endloop
  endfacet
  facet normal -0.4414 0 -0.89731
    outer loop
      vertex 255.761 183.5 81.3452
      vertex 246.609 177.15 85.8472
      vertex 246.609 183.5 85.8472
    endloop
  endfacet
  facet normal -0.344739 0 -0.938699
    outer loop
      vertex 236.581 177.15 89.53
      vertex 246.609 183.5 85.8472
      vertex 246.609 177.15 85.8472
    endloop
  endfacet
  facet normal -0.344739 0 -0.938699
    outer loop
      vertex 246.609 183.5 85.8472
      vertex 236.581 177.15 89.53
      vertex 236.581 183.5 89.53
    endloop
  endfacet
  facet normal -0.242106 0 -0.97025
    outer loop
      vertex 225.644 177.15 92.2591
      vertex 236.581 183.5 89.53
      vertex 236.581 177.15 89.53
    endloop
  endfacet
  facet normal -0.242106 0 -0.97025
    outer loop
      vertex 236.581 183.5 89.53
      vertex 225.644 177.15 92.2591
      vertex 225.644 183.5 92.2591
    endloop
  endfacet
  facet normal -0.136793 0 -0.9906
    outer loop
      vertex 213.762 177.15 93.8999
      vertex 225.644 183.5 92.2591
      vertex 225.644 177.15 92.2591
    endloop
  endfacet
  facet normal -0.136793 0 -0.9906
    outer loop
      vertex 225.644 183.5 92.2591
      vertex 213.762 177.15 93.8999
      vertex 213.762 183.5 93.8999
    endloop
  endfacet
  facet normal -0.0325028 0 -0.999472
    outer loop
      vertex 207 177.15 94.1198
      vertex 213.762 183.5 93.8999
      vertex 213.762 177.15 93.8999
    endloop
  endfacet
  facet normal -0.0325028 0 -0.999472
    outer loop
      vertex 213.762 183.5 93.8999
      vertex 207 177.15 94.1198
      vertex 207 183.5 94.1198
    endloop
  endfacet
  facet normal 0.0710975 0 -0.997469
    outer loop
      vertex 189.272 177.15 93.4892
      vertex 200.65 183.5 94.3002
      vertex 200.65 177.15 94.3002
    endloop
  endfacet
  facet normal 0.0710975 0 -0.997469
    outer loop
      vertex 200.65 183.5 94.3002
      vertex 189.272 177.15 93.4892
      vertex 189.272 183.5 93.4892
    endloop
  endfacet
  facet normal 0.179604 0 -0.983739
    outer loop
      vertex 178.496 177.15 91.5218
      vertex 189.272 183.5 93.4892
      vertex 189.272 177.15 93.4892
    endloop
  endfacet
  facet normal 0.179604 0 -0.983739
    outer loop
      vertex 189.272 183.5 93.4892
      vertex 178.496 177.15 91.5218
      vertex 178.496 183.5 91.5218
    endloop
  endfacet
  facet normal 0.286747 0 -0.958006
    outer loop
      vertex 168.546 177.15 88.5436
      vertex 178.496 183.5 91.5218
      vertex 178.496 177.15 91.5218
    endloop
  endfacet
  facet normal 0.286747 0 -0.958006
    outer loop
      vertex 178.496 183.5 91.5218
      vertex 168.546 177.15 88.5436
      vertex 168.546 183.5 88.5436
    endloop
  endfacet
  facet normal 0.388743 0 -0.921346
    outer loop
      vertex 159.394 177.15 84.6821
      vertex 168.546 183.5 88.5436
      vertex 168.546 177.15 88.5436
    endloop
  endfacet
  facet normal 0.388743 0 -0.921346
    outer loop
      vertex 168.546 183.5 88.5436
      vertex 159.394 177.15 84.6821
      vertex 159.394 183.5 84.6821
    endloop
  endfacet
  facet normal 0.482412 0 -0.875944
    outer loop
      vertex 151.011 177.15 80.0653
      vertex 159.394 183.5 84.6821
      vertex 159.394 177.15 84.6821
    endloop
  endfacet
  facet normal 0.482412 0 -0.875944
    outer loop
      vertex 159.394 183.5 84.6821
      vertex 151.011 177.15 80.0653
      vertex 151.011 183.5 80.0653
    endloop
  endfacet
  facet normal 0.565899 0 -0.824474
    outer loop
      vertex 143.37 177.15 74.8207
      vertex 151.011 183.5 80.0653
      vertex 151.011 177.15 80.0653
    endloop
  endfacet
  facet normal 0.565899 0 -0.824474
    outer loop
      vertex 151.011 183.5 80.0653
      vertex 143.37 177.15 74.8207
      vertex 143.37 183.5 74.8207
    endloop
  endfacet
  facet normal 0.638407 0 -0.769699
    outer loop
      vertex 136.444 177.15 69.0761
      vertex 143.37 183.5 74.8207
      vertex 143.37 177.15 74.8207
    endloop
  endfacet
  facet normal 0.638407 0 -0.769699
    outer loop
      vertex 143.37 183.5 74.8207
      vertex 136.444 177.15 69.0761
      vertex 136.444 183.5 69.0761
    endloop
  endfacet
  facet normal 0.700085 0 -0.714059
    outer loop
      vertex 130.205 177.15 62.9592
      vertex 136.444 183.5 69.0761
      vertex 136.444 177.15 69.0761
    endloop
  endfacet
  facet normal 0.700085 0 -0.714059
    outer loop
      vertex 136.444 183.5 69.0761
      vertex 130.205 177.15 62.9592
      vertex 130.205 183.5 62.9592
    endloop
  endfacet
  facet normal 0.751716 0 -0.659487
    outer loop
      vertex 130.205 177.15 62.9592
      vertex 124.624 183.5 56.5977
      vertex 130.205 183.5 62.9592
    endloop
  endfacet
  facet normal 0.751716 0 -0.659487
    outer loop
      vertex 124.624 183.5 56.5977
      vertex 130.205 177.15 62.9592
      vertex 124.624 177.15 56.5977
    endloop
  endfacet
  facet normal 0.794594 0 -0.607141
    outer loop
      vertex 124.624 177.15 56.5977
      vertex 119.674 183.5 50.1194
      vertex 124.624 183.5 56.5977
    endloop
  endfacet
  facet normal 0.794594 0 -0.607141
    outer loop
      vertex 119.674 183.5 50.1194
      vertex 124.624 177.15 56.5977
      vertex 119.674 177.15 50.1194
    endloop
  endfacet
  facet normal 0.830011 0 -0.557747
    outer loop
      vertex 119.674 177.15 50.1194
      vertex 115.328 183.5 43.6519
      vertex 119.674 183.5 50.1194
    endloop
  endfacet
  facet normal 0.830011 0 -0.557747
    outer loop
      vertex 115.328 183.5 43.6519
      vertex 119.674 177.15 50.1194
      vertex 115.328 177.15 43.6519
    endloop
  endfacet
  facet normal 0.859066 0 -0.511864
    outer loop
      vertex 115.328 177.15 43.6519
      vertex 111.557 183.5 37.323
      vertex 115.328 183.5 43.6519
    endloop
  endfacet
  facet normal 0.859066 0 -0.511864
    outer loop
      vertex 111.557 183.5 37.323
      vertex 115.328 177.15 43.6519
      vertex 111.557 177.15 37.323
    endloop
  endfacet
  facet normal 0.88298 0 -0.46941
    outer loop
      vertex 111.557 177.15 37.323
      vertex 108.334 183.5 31.2604
      vertex 111.557 183.5 37.323
    endloop
  endfacet
  facet normal 0.88298 0 -0.46941
    outer loop
      vertex 108.334 183.5 31.2604
      vertex 111.557 177.15 37.323
      vertex 108.334 177.15 31.2604
    endloop
  endfacet
  facet normal 0.902575 0 -0.430533
    outer loop
      vertex 108.334 177.15 31.2604
      vertex 105.63 183.5 25.5917
      vertex 108.334 183.5 31.2604
    endloop
  endfacet
  facet normal 0.902575 0 -0.430533
    outer loop
      vertex 105.63 183.5 25.5917
      vertex 108.334 177.15 31.2604
      vertex 105.63 177.15 25.5917
    endloop
  endfacet
  facet normal 0.918812 0 -0.394695
    outer loop
      vertex 105.63 177.15 25.5917
      vertex 103.419 183.5 20.4447
      vertex 105.63 183.5 25.5917
    endloop
  endfacet
  facet normal 0.918812 0 -0.394695
    outer loop
      vertex 103.419 183.5 20.4447
      vertex 105.63 177.15 25.5917
      vertex 103.419 177.15 20.4447
    endloop
  endfacet
  facet normal 0.932147 0 -0.362081
    outer loop
      vertex 103.419 177.15 20.4447
      vertex 101.672 183.5 15.9472
      vertex 103.419 183.5 20.4447
    endloop
  endfacet
  facet normal 0.932147 0 -0.362081
    outer loop
      vertex 101.672 183.5 15.9472
      vertex 103.419 177.15 20.4447
      vertex 101.672 177.15 15.9472
    endloop
  endfacet
  facet normal 0.943235 0 -0.332125
    outer loop
      vertex 101.672 177.15 15.9472
      vertex 100.362 183.5 12.2268
      vertex 101.672 183.5 15.9472
    endloop
  endfacet
  facet normal 0.943235 0 -0.332125
    outer loop
      vertex 100.362 183.5 12.2268
      vertex 101.672 177.15 15.9472
      vertex 100.362 177.15 12.2268
    endloop
  endfacet
  facet normal 0.952333 0 -0.305059
    outer loop
      vertex 100.362 177.15 12.2268
      vertex 99.4601 183.5 9.41125
      vertex 100.362 183.5 12.2268
    endloop
  endfacet
  facet normal 0.952333 0 -0.305059
    outer loop
      vertex 99.4601 183.5 9.41125
      vertex 100.362 177.15 12.2268
      vertex 99.4601 177.15 9.41125
    endloop
  endfacet
  facet normal 0.959932 0 -0.280232
    outer loop
      vertex 99.4601 177.15 9.41125
      vertex 98.9396 183.5 7.62828
      vertex 99.4601 183.5 9.41125
    endloop
  endfacet
  facet normal 0.959932 0 -0.280232
    outer loop
      vertex 98.9396 183.5 7.62828
      vertex 99.4601 177.15 9.41125
      vertex 98.9396 177.15 7.62828
    endloop
  endfacet
  facet normal 0.965714 0 -0.259608
    outer loop
      vertex 98.9396 177.15 7.62828
      vertex 98.7722 183.5 7.00557
      vertex 98.9396 183.5 7.62828
    endloop
  endfacet
  facet normal 0.965714 0 -0.259608
    outer loop
      vertex 98.7722 183.5 7.00557
      vertex 98.9396 177.15 7.62828
      vertex 98.7722 177.15 7.00557
    endloop
  endfacet
  facet normal 0 0 -1
    outer loop
      vertex 21.1611 177.15 7.00557
      vertex 98.7722 183.5 7.00557
      vertex 98.7722 177.15 7.00557
    endloop
  endfacet
  facet normal -0 0 -1
    outer loop
      vertex 98.7722 183.5 7.00557
      vertex 21.1611 177.15 7.00557
      vertex 21.1611 183.5 7.00557
    endloop
  endfacet
  facet normal -0.992221 0 0.124486
    outer loop
      vertex 21.1611 177.15 7.00557
      vertex 21.2874 183.5 8.01225
      vertex 21.1611 183.5 7.00557
    endloop
  endfacet
  facet normal -0.992221 0 0.124486
    outer loop
      vertex 21.2874 183.5 8.01225
      vertex 21.1611 177.15 7.00557
      vertex 21.2874 177.15 8.01225
    endloop
  endfacet
  facet normal -0.988069 0 0.15401
    outer loop
      vertex 21.2874 177.15 8.01225
      vertex 21.7365 183.5 10.8935
      vertex 21.2874 183.5 8.01225
    endloop
  endfacet
  facet normal -0.988069 0 0.15401
    outer loop
      vertex 21.7365 183.5 10.8935
      vertex 21.2874 177.15 8.01225
      vertex 21.7365 177.15 10.8935
    endloop
  endfacet
  facet normal -0.981894 0 0.18943
    outer loop
      vertex 21.7365 177.15 10.8935
      vertex 22.6138 183.5 15.4409
      vertex 21.7365 183.5 10.8935
    endloop
  endfacet
  facet normal -0.981894 0 0.18943
    outer loop
      vertex 22.6138 183.5 15.4409
      vertex 21.7365 177.15 10.8935
      vertex 22.6138 177.15 15.4409
    endloop
  endfacet
  facet normal -0.973502 0 0.228681
    outer loop
      vertex 22.6138 177.15 15.4409
      vertex 24.0245 183.5 21.4463
      vertex 22.6138 183.5 15.4409
    endloop
  endfacet
  facet normal -0.973502 0 0.228681
    outer loop
      vertex 24.0245 183.5 21.4463
      vertex 22.6138 177.15 15.4409
      vertex 24.0245 177.15 21.4463
    endloop
  endfacet
  facet normal -0.962336 0 0.271864
    outer loop
      vertex 24.0245 177.15 21.4463
      vertex 26.0741 183.5 28.7014
      vertex 24.0245 183.5 21.4463
    endloop
  endfacet
  facet normal -0.962336 0 0.271864
    outer loop
      vertex 26.0741 183.5 28.7014
      vertex 24.0245 177.15 21.4463
      vertex 26.0741 177.15 28.7014
    endloop
  endfacet
  facet normal -0.947712 0 0.319125
    outer loop
      vertex 26.0741 177.15 28.7014
      vertex 28.8678 183.5 36.9979
      vertex 26.0741 183.5 28.7014
    endloop
  endfacet
  facet normal -0.947712 0 0.319125
    outer loop
      vertex 28.8678 183.5 36.9979
      vertex 26.0741 177.15 28.7014
      vertex 28.8678 177.15 36.9979
    endloop
  endfacet
  facet normal -0.928783 0 0.370624
    outer loop
      vertex 28.8678 177.15 36.9979
      vertex 32.5109 183.5 46.1275
      vertex 28.8678 183.5 36.9979
    endloop
  endfacet
  facet normal -0.928783 0 0.370624
    outer loop
      vertex 32.5109 183.5 46.1275
      vertex 28.8678 177.15 36.9979
      vertex 32.5109 177.15 46.1275
    endloop
  endfacet
  facet normal -0.904544 0 0.426381
    outer loop
      vertex 32.5109 177.15 46.1275
      vertex 37.1089 183.5 55.8819
      vertex 32.5109 183.5 46.1275
    endloop
  endfacet
  facet normal -0.904544 0 0.426381
    outer loop
      vertex 37.1089 183.5 55.8819
      vertex 32.5109 177.15 46.1275
      vertex 37.1089 177.15 55.8819
    endloop
  endfacet
  facet normal -0.873882 0 0.486138
    outer loop
      vertex 37.1089 177.15 55.8819
      vertex 42.767 183.5 66.0529
      vertex 37.1089 183.5 55.8819
    endloop
  endfacet
  facet normal -0.873882 0 0.486138
    outer loop
      vertex 42.767 183.5 66.0529
      vertex 37.1089 177.15 55.8819
      vertex 42.767 177.15 66.0529
    endloop
  endfacet
  facet normal -0.835598 0 0.549342
    outer loop
      vertex 42.767 177.15 66.0529
      vertex 49.5906 183.5 76.4322
      vertex 42.767 183.5 66.0529
    endloop
  endfacet
  facet normal -0.835598 0 0.549342
    outer loop
      vertex 49.5906 183.5 76.4322
      vertex 42.767 177.15 66.0529
      vertex 49.5906 177.15 76.4322
    endloop
  endfacet
  facet normal -0.78856 0 0.614958
    outer loop
      vertex 49.5906 177.15 76.4322
      vertex 57.6849 183.5 86.8115
      vertex 49.5906 183.5 76.4322
    endloop
  endfacet
  facet normal -0.78856 0 0.614958
    outer loop
      vertex 57.6849 183.5 86.8115
      vertex 49.5906 177.15 76.4322
      vertex 57.6849 177.15 86.8115
    endloop
  endfacet
  facet normal -0.73186 0 0.681455
    outer loop
      vertex 57.6849 177.15 86.8115
      vertex 67.1554 183.5 96.9825
      vertex 57.6849 183.5 86.8115
    endloop
  endfacet
  facet normal -0.73186 0 0.681455
    outer loop
      vertex 67.1554 183.5 96.9825
      vertex 57.6849 177.15 86.8115
      vertex 67.1554 177.15 96.9825
    endloop
  endfacet
  facet normal -0.665102 0 0.746753
    outer loop
      vertex 67.1554 183.5 96.9825
      vertex 78.1074 177.15 106.737
      vertex 78.1074 183.5 106.737
    endloop
  endfacet
  facet normal -0.665102 0 0.746753
    outer loop
      vertex 78.1074 177.15 106.737
      vertex 67.1554 183.5 96.9825
      vertex 67.1554 177.15 96.9825
    endloop
  endfacet
  facet normal -0.588633 0 0.8084
    outer loop
      vertex 78.1074 183.5 106.737
      vertex 90.6461 177.15 115.867
      vertex 90.6461 183.5 115.867
    endloop
  endfacet
  facet normal -0.588633 0 0.8084
    outer loop
      vertex 90.6461 177.15 115.867
      vertex 78.1074 183.5 106.737
      vertex 78.1074 177.15 106.737
    endloop
  endfacet
  facet normal -0.503628 0 0.86392
    outer loop
      vertex 90.6461 183.5 115.867
      vertex 104.877 177.15 124.163
      vertex 104.877 183.5 124.163
    endloop
  endfacet
  facet normal -0.503628 0 0.86392
    outer loop
      vertex 104.877 177.15 124.163
      vertex 90.6461 183.5 115.867
      vertex 90.6461 177.15 115.867
    endloop
  endfacet
  facet normal -0.412368 0 0.911017
    outer loop
      vertex 104.877 183.5 124.163
      vertex 120.905 177.15 131.418
      vertex 120.905 183.5 131.418
    endloop
  endfacet
  facet normal -0.412368 0 0.911017
    outer loop
      vertex 120.905 177.15 131.418
      vertex 104.877 183.5 124.163
      vertex 104.877 177.15 124.163
    endloop
  endfacet
  facet normal -0.317608 0 0.948222
    outer loop
      vertex 120.905 183.5 131.418
      vertex 138.836 177.15 137.424
      vertex 138.836 183.5 137.424
    endloop
  endfacet
  facet normal -0.317608 0 0.948222
    outer loop
      vertex 138.836 177.15 137.424
      vertex 120.905 183.5 131.418
      vertex 120.905 177.15 131.418
    endloop
  endfacet
  facet normal -0.222338 0 0.97497
    outer loop
      vertex 138.836 183.5 137.424
      vertex 158.775 177.15 141.971
      vertex 158.775 183.5 141.971
    endloop
  endfacet
  facet normal -0.222338 0 0.97497
    outer loop
      vertex 158.775 177.15 141.971
      vertex 138.836 183.5 137.424
      vertex 138.836 177.15 137.424
    endloop
  endfacet
  facet normal -0.129539 0 0.991574
    outer loop
      vertex 158.775 183.5 141.971
      vertex 180.828 177.15 144.852
      vertex 180.828 183.5 144.852
    endloop
  endfacet
  facet normal -0.129539 0 0.991574
    outer loop
      vertex 180.828 177.15 144.852
      vertex 158.775 183.5 141.971
      vertex 158.775 177.15 141.971
    endloop
  endfacet
  facet normal -0.0414542 0 0.99914
    outer loop
      vertex 180.828 183.5 144.852
      vertex 205.099 177.15 145.859
      vertex 205.099 183.5 145.859
    endloop
  endfacet
  facet normal -0.0414542 0 0.99914
    outer loop
      vertex 205.099 177.15 145.859
      vertex 180.828 183.5 144.852
      vertex 180.828 177.15 144.852
    endloop
  endfacet
  facet normal 0.0415825 0 0.999135
    outer loop
      vertex 205.099 183.5 145.859
      vertex 229.295 177.15 144.852
      vertex 229.295 183.5 144.852
    endloop
  endfacet
  facet normal 0.0415825 0 0.999135
    outer loop
      vertex 229.295 177.15 144.852
      vertex 205.099 183.5 145.859
      vertex 205.099 177.15 145.859
    endloop
  endfacet
  facet normal -1 0 0
    outer loop
      vertex 207 183.5 94.1198
      vertex 207 177.445 115.965
      vertex 207 183.5 117.91
    endloop
  endfacet
  facet normal -1 0 0
    outer loop
      vertex 207 177.15 115.85
      vertex 207 183.5 94.1198
      vertex 207 177.15 94.1198
    endloop
  endfacet
  facet normal -1 0 0
    outer loop
      vertex 207 183.5 94.1198
      vertex 207 177.15 115.85
      vertex 207 177.445 115.965
    endloop
  endfacet
  facet normal 1 -0 0
    outer loop
      vertex 200.65 177.445 115.965
      vertex 200.65 183.5 94.3002
      vertex 200.65 183.5 117.91
    endloop
  endfacet
  facet normal 1 -0 0
    outer loop
      vertex 200.65 177.15 115.85
      vertex 200.65 183.5 94.3002
      vertex 200.65 177.445 115.965
    endloop
  endfacet
  facet normal 1 0 0
    outer loop
      vertex 200.65 183.5 94.3002
      vertex 200.65 177.15 115.85
      vertex 200.65 177.15 94.3002
    endloop
  endfacet
  facet normal 0 0.363208 -0.931708
    outer loop
      vertex 200.65 177.15 115.85
      vertex 207 177.445 115.965
      vertex 207 177.15 115.85
    endloop
  endfacet
  facet normal 0 0.363208 -0.931708
    outer loop
      vertex 207 177.445 115.965
      vertex 200.65 177.15 115.85
      vertex 200.65 177.445 115.965
    endloop
  endfacet
  facet normal 0 0.305831 -0.952086
    outer loop
      vertex 200.65 177.445 115.965
      vertex 207 183.5 117.91
      vertex 207 177.445 115.965
    endloop
  endfacet
  facet normal 0 0.305831 -0.952086
    outer loop
      vertex 207 183.5 117.91
      vertex 200.65 177.445 115.965
      vertex 200.65 183.5 117.91
    endloop
  endfacet
endsolid OpenSCAD_Model
