solid OpenSCAD_Model
  facet normal 0 -1 0
    outer loop
      vertex 200.65 247 133.979
      vertex 199.146 247 162.577
      vertex 169.487 247 161.449
    endloop
  endfacet
  facet normal 0 -1 0
    outer loop
      vertex 165.778 247 100.225
      vertex 169.487 247 161.449
      vertex 143.063 247 158.221
    endloop
  endfacet
  facet normal 0 -1 0
    outer loop
      vertex 207 247 133.979
      vertex 199.146 247 162.577
      vertex 200.65 247 133.979
    endloop
  endfacet
  facet normal 0 -1 0
    outer loop
      vertex 154.714 247 95.9581
      vertex 143.063 247 158.221
      vertex 119.688 247 153.125
    endloop
  endfacet
  facet normal 0 -1 0
    outer loop
      vertex 199.146 247 162.577
      vertex 207 247 133.979
      vertex 229.2 247 161.449
    endloop
  endfacet
  facet normal 0 -1 0
    outer loop
      vertex 135.695 247 84.8756
      vertex 119.688 247 153.125
      vertex 99.1762 247 146.397
    endloop
  endfacet
  facet normal 0 -1 0
    outer loop
      vertex 233.501 247 103.271
      vertex 229.2 247 161.449
      vertex 207 247 133.979
    endloop
  endfacet
  facet normal 0 -1 0
    outer loop
      vertex 127.642 247 78.3587
      vertex 99.1762 247 146.397
      vertex 81.3431 247 138.268
    endloop
  endfacet
  facet normal 0 -1 0
    outer loop
      vertex 229.2 247 161.449
      vertex 233.501 247 103.271
      vertex 255.878 247 158.221
    endloop
  endfacet
  facet normal 0 -1 0
    outer loop
      vertex 245.538 247 99.9953
      vertex 255.878 247 158.221
      vertex 233.501 247 103.271
    endloop
  endfacet
  facet normal 0 -1 0
    outer loop
      vertex 120.492 247 71.3907
      vertex 81.3431 247 138.268
      vertex 66.0032 247 128.972
    endloop
  endfacet
  facet normal 0 -1 0
    outer loop
      vertex 114.199 247 64.121
      vertex 66.0032 247 128.972
      vertex 52.9712 247 118.743
    endloop
  endfacet
  facet normal 0 -1 0
    outer loop
      vertex 108.711 247 56.6992
      vertex 52.9712 247 118.743
      vertex 42.0618 247 107.814
    endloop
  endfacet
  facet normal 0 -1 0
    outer loop
      vertex 143.063 247 158.221
      vertex 154.714 247 95.9581
      vertex 165.778 247 100.225
    endloop
  endfacet
  facet normal 0 -1 -0
    outer loop
      vertex 200.65 247 133.979
      vertex 191.26 247 105.461
      vertex 200.65 247 105.895
    endloop
  endfacet
  facet normal 0 -1 0
    outer loop
      vertex 200.65 247 133.979
      vertex 177.943 247 103.442
      vertex 191.26 247 105.461
    endloop
  endfacet
  facet normal 0 -1 0
    outer loop
      vertex 169.487 247 161.449
      vertex 177.943 247 103.442
      vertex 200.65 247 133.979
    endloop
  endfacet
  facet normal 0 -1 0
    outer loop
      vertex 108.711 247 56.6992
      vertex 42.0618 247 107.814
      vertex 33.0898 247 96.4184
    endloop
  endfacet
  facet normal 0 -1 -0
    outer loop
      vertex 169.487 247 161.449
      vertex 165.778 247 100.225
      vertex 177.943 247 103.442
    endloop
  endfacet
  facet normal 0 -1 0
    outer loop
      vertex 119.688 247 153.125
      vertex 144.703 247 90.7919
      vertex 154.714 247 95.9581
    endloop
  endfacet
  facet normal 0 -1 0
    outer loop
      vertex 119.688 247 153.125
      vertex 135.695 247 84.8756
      vertex 144.703 247 90.7919
    endloop
  endfacet
  facet normal 0 -1 0
    outer loop
      vertex 103.98 247 49.2748
      vertex 33.0898 247 96.4184
      vertex 25.8699 247 84.7892
    endloop
  endfacet
  facet normal 0 -1 0
    outer loop
      vertex 99.1762 247 146.397
      vertex 127.642 247 78.3587
      vertex 135.695 247 84.8756
    endloop
  endfacet
  facet normal 0 -1 0
    outer loop
      vertex 99.9563 247 41.9972
      vertex 25.8699 247 84.7892
      vertex 20.2169 247 73.1599
    endloop
  endfacet
  facet normal 0 -1 0
    outer loop
      vertex 81.3431 247 138.268
      vertex 120.492 247 71.3907
      vertex 127.642 247 78.3587
    endloop
  endfacet
  facet normal 0 -1 0
    outer loop
      vertex 66.0032 247 128.972
      vertex 114.199 247 64.121
      vertex 120.492 247 71.3907
    endloop
  endfacet
  facet normal 0 -1 0
    outer loop
      vertex 96.5907 247 35.016
      vertex 20.2169 247 73.1599
      vertex 15.9455 247 61.7641
    endloop
  endfacet
  facet normal 0 -1 0
    outer loop
      vertex 52.9712 247 118.743
      vertex 108.711 247 56.6992
      vertex 114.199 247 64.121
    endloop
  endfacet
  facet normal 0 -1 0
    outer loop
      vertex 93.8339 247 28.4805
      vertex 15.9455 247 61.7641
      vertex 12.8704 247 50.8349
    endloop
  endfacet
  facet normal 0 -1 0
    outer loop
      vertex 33.0898 247 96.4184
      vertex 103.98 247 49.2748
      vertex 108.711 247 56.6992
    endloop
  endfacet
  facet normal 0 -1 0
    outer loop
      vertex 25.8699 247 84.7892
      vertex 99.9563 247 41.9972
      vertex 103.98 247 49.2748
    endloop
  endfacet
  facet normal 0 -1 0
    outer loop
      vertex 91.6365 247 22.5404
      vertex 12.8704 247 50.8349
      vertex 10.8065 247 40.6059
    endloop
  endfacet
  facet normal 0 -1 0
    outer loop
      vertex 20.2169 247 73.1599
      vertex 96.5907 247 35.016
      vertex 99.9563 247 41.9972
    endloop
  endfacet
  facet normal 0 -1 0
    outer loop
      vertex 89.9492 247 17.3451
      vertex 10.8065 247 40.6059
      vertex 9.56828 247 31.3103
    endloop
  endfacet
  facet normal 0 -1 0
    outer loop
      vertex 15.9455 247 61.7641
      vertex 93.8339 247 28.4805
      vertex 96.5907 247 35.016
    endloop
  endfacet
  facet normal 0 -1 0
    outer loop
      vertex 88.7228 247 13.0441
      vertex 9.56828 247 31.3103
      vertex 8.97067 247 23.1815
    endloop
  endfacet
  facet normal 0 -1 0
    outer loop
      vertex 12.8704 247 50.8349
      vertex 91.6365 247 22.5404
      vertex 93.8339 247 28.4805
    endloop
  endfacet
  facet normal 0 -1 0
    outer loop
      vertex 10.8065 247 40.6059
      vertex 89.9492 247 17.3451
      vertex 91.6365 247 22.5404
    endloop
  endfacet
  facet normal 0 -1 0
    outer loop
      vertex 87.9078 247 9.78685
      vertex 8.97067 247 23.1815
      vertex 8.82835 247 16.4529
    endloop
  endfacet
  facet normal 0 -1 0
    outer loop
      vertex 9.56828 247 31.3103
      vertex 88.7228 247 13.0441
      vertex 89.9492 247 17.3451
    endloop
  endfacet
  facet normal 0 -1 0
    outer loop
      vertex 87.455 247 7.72289
      vertex 8.82835 247 16.4529
      vertex 8.95607 247 11.3578
    endloop
  endfacet
  facet normal 0 -1 0
    outer loop
      vertex 8.97067 247 23.1815
      vertex 87.9078 247 9.78685
      vertex 88.7228 247 13.0441
    endloop
  endfacet
  facet normal 0 -1 0
    outer loop
      vertex 87.315 247 7.00168
      vertex 8.95607 247 11.3578
      vertex 9.16855 247 8.12959
    endloop
  endfacet
  facet normal 0 -1 0
    outer loop
      vertex 8.82835 247 16.4529
      vertex 87.455 247 7.72289
      vertex 87.9078 247 9.78685
    endloop
  endfacet
  facet normal 0 -1 0
    outer loop
      vertex 87.315 247 7.00168
      vertex 9.16855 247 8.12959
      vertex 9.28055 247 7.00168
    endloop
  endfacet
  facet normal 0 -1 0
    outer loop
      vertex 8.95607 247 11.3578
      vertex 87.315 247 7.00168
      vertex 87.455 247 7.72289
    endloop
  endfacet
  facet normal 0 -1 0
    outer loop
      vertex 256.43 247 95.6872
      vertex 279.38 247 153.125
      vertex 245.538 247 99.9953
    endloop
  endfacet
  facet normal 0 -1 0
    outer loop
      vertex 266.235 247 90.4942
      vertex 279.38 247 153.125
      vertex 256.43 247 95.6872
    endloop
  endfacet
  facet normal 0 -1 -0
    outer loop
      vertex 279.38 247 153.125
      vertex 266.235 247 90.4942
      vertex 299.902 247 146.397
    endloop
  endfacet
  facet normal 0 -1 0
    outer loop
      vertex 275.007 247 84.5645
      vertex 299.902 247 146.397
      vertex 266.235 247 90.4942
    endloop
  endfacet
  facet normal 0 -1 0
    outer loop
      vertex 220.267 247 105.366
      vertex 207 247 133.979
      vertex 207 247 106.068
    endloop
  endfacet
  facet normal 0 -1 0
    outer loop
      vertex 233.501 247 103.271
      vertex 207 247 133.979
      vertex 220.267 247 105.366
    endloop
  endfacet
  facet normal 0 -1 -0
    outer loop
      vertex 255.878 247 158.221
      vertex 245.538 247 99.9953
      vertex 279.38 247 153.125
    endloop
  endfacet
  facet normal 0 -1 -0
    outer loop
      vertex 299.902 247 146.397
      vertex 275.007 247 84.5645
      vertex 317.644 247 138.268
    endloop
  endfacet
  facet normal 0 -1 0
    outer loop
      vertex 282.801 247 78.0457
      vertex 317.644 247 138.268
      vertex 275.007 247 84.5645
    endloop
  endfacet
  facet normal 0 -1 -0
    outer loop
      vertex 317.644 247 138.268
      vertex 282.801 247 78.0457
      vertex 332.804 247 128.972
    endloop
  endfacet
  facet normal 0 -1 0
    outer loop
      vertex 289.672 247 71.0859
      vertex 332.804 247 128.972
      vertex 282.801 247 78.0457
    endloop
  endfacet
  facet normal 0 -1 -0
    outer loop
      vertex 332.804 247 128.972
      vertex 289.672 247 71.0859
      vertex 345.58 247 118.743
    endloop
  endfacet
  facet normal 0 -1 0
    outer loop
      vertex 295.677 247 63.8329
      vertex 345.58 247 118.743
      vertex 289.672 247 71.0859
    endloop
  endfacet
  facet normal 0 -1 -0
    outer loop
      vertex 345.58 247 118.743
      vertex 295.677 247 63.8329
      vertex 356.17 247 107.814
    endloop
  endfacet
  facet normal 0 -1 0
    outer loop
      vertex 300.869 247 56.4347
      vertex 356.17 247 107.814
      vertex 295.677 247 63.8329
    endloop
  endfacet
  facet normal 0 -1 -0
    outer loop
      vertex 356.17 247 107.814
      vertex 300.869 247 56.4347
      vertex 364.773 247 96.4184
    endloop
  endfacet
  facet normal 0 -1 0
    outer loop
      vertex 305.305 247 49.0391
      vertex 364.773 247 96.4184
      vertex 300.869 247 56.4347
    endloop
  endfacet
  facet normal 0 -1 -0
    outer loop
      vertex 364.773 247 96.4184
      vertex 305.305 247 49.0391
      vertex 371.588 247 84.7892
    endloop
  endfacet
  facet normal 0 -1 -0
    outer loop
      vertex 371.588 247 84.7892
      vertex 305.305 247 49.0391
      vertex 376.812 247 73.1599
    endloop
  endfacet
  facet normal 0 -1 0
    outer loop
      vertex 309.039 247 41.794
      vertex 376.812 247 73.1599
      vertex 305.305 247 49.0391
    endloop
  endfacet
  facet normal 0 -1 -0
    outer loop
      vertex 376.812 247 73.1599
      vertex 309.039 247 41.794
      vertex 380.644 247 61.7641
    endloop
  endfacet
  facet normal 0 -1 0
    outer loop
      vertex 312.127 247 34.8474
      vertex 380.644 247 61.7641
      vertex 309.039 247 41.794
    endloop
  endfacet
  facet normal 0 -1 -0
    outer loop
      vertex 380.644 247 61.7641
      vertex 312.127 247 34.8474
      vertex 383.282 247 50.8349
    endloop
  endfacet
  facet normal 0 -1 0
    outer loop
      vertex 314.624 247 28.3472
      vertex 383.282 247 50.8349
      vertex 312.127 247 34.8474
    endloop
  endfacet
  facet normal 0 -1 -0
    outer loop
      vertex 383.282 247 50.8349
      vertex 314.624 247 28.3472
      vertex 384.925 247 40.6059
    endloop
  endfacet
  facet normal 0 -1 0
    outer loop
      vertex 316.585 247 22.4412
      vertex 384.925 247 40.6059
      vertex 314.624 247 28.3472
    endloop
  endfacet
  facet normal 0 -1 -0
    outer loop
      vertex 384.925 247 40.6059
      vertex 316.585 247 22.4412
      vertex 385.771 247 31.3103
    endloop
  endfacet
  facet normal 0 -1 0
    outer loop
      vertex 318.066 247 17.2774
      vertex 385.771 247 31.3103
      vertex 316.585 247 22.4412
    endloop
  endfacet
  facet normal 0 -1 -0
    outer loop
      vertex 385.771 247 31.3103
      vertex 318.066 247 17.2774
      vertex 386.018 247 23.1815
    endloop
  endfacet
  facet normal 0 -1 0
    outer loop
      vertex 319.122 247 13.0036
      vertex 386.018 247 23.1815
      vertex 318.066 247 17.2774
    endloop
  endfacet
  facet normal 0 -1 0
    outer loop
      vertex 386.018 247 23.1815
      vertex 319.122 247 13.0036
      vertex 385.866 247 16.4529
    endloop
  endfacet
  facet normal 0 -1 0
    outer loop
      vertex 319.807 247 9.76781
      vertex 385.866 247 16.4529
      vertex 319.122 247 13.0036
    endloop
  endfacet
  facet normal 0 -1 0
    outer loop
      vertex 385.866 247 16.4529
      vertex 319.807 247 9.76781
      vertex 385.511 247 11.3578
    endloop
  endfacet
  facet normal 0 -1 0
    outer loop
      vertex 320.178 247 7.71785
      vertex 385.511 247 11.3578
      vertex 319.807 247 9.76781
    endloop
  endfacet
  facet normal 0 -1 0
    outer loop
      vertex 385.511 247 11.3578
      vertex 320.178 247 7.71785
      vertex 385.152 247 8.12959
    endloop
  endfacet
  facet normal 0 -1 0
    outer loop
      vertex 320.289 247 7.00168
      vertex 385.152 247 8.12959
      vertex 320.178 247 7.71785
    endloop
  endfacet
  facet normal 0 -1 0
    outer loop
      vertex 385.152 247 8.12959
      vertex 320.289 247 7.00168
      vertex 384.989 247 7.00168
    endloop
  endfacet
  facet normal 0 1 -0
    outer loop
      vertex 207 253.35 135.16
      vertex 199.146 253.35 162.577
      vertex 229.2 253.35 161.449
    endloop
  endfacet
  facet normal 0 1 -0
    outer loop
      vertex 233.501 253.35 103.271
      vertex 229.2 253.35 161.449
      vertex 255.878 253.35 158.221
    endloop
  endfacet
  facet normal 0 1 0
    outer loop
      vertex 199.146 253.35 162.577
      vertex 207 253.35 135.16
      vertex 200.65 253.35 135.16
    endloop
  endfacet
  facet normal 0 1 0
    outer loop
      vertex 245.538 253.35 99.9953
      vertex 255.878 253.35 158.221
      vertex 279.38 253.35 153.125
    endloop
  endfacet
  facet normal 0 1 0
    outer loop
      vertex 199.146 253.35 162.577
      vertex 200.65 253.35 135.16
      vertex 169.487 253.35 161.449
    endloop
  endfacet
  facet normal 0 1 0
    outer loop
      vertex 266.235 253.35 90.4942
      vertex 279.38 253.35 153.125
      vertex 299.902 253.35 146.397
    endloop
  endfacet
  facet normal 0 1 -0
    outer loop
      vertex 177.943 253.35 103.442
      vertex 169.487 253.35 161.449
      vertex 200.65 253.35 135.16
    endloop
  endfacet
  facet normal 0 1 0
    outer loop
      vertex 275.007 253.35 84.5645
      vertex 299.902 253.35 146.397
      vertex 317.644 253.35 138.268
    endloop
  endfacet
  facet normal 0 1 0
    outer loop
      vertex 165.778 253.35 100.225
      vertex 169.487 253.35 161.449
      vertex 177.943 253.35 103.442
    endloop
  endfacet
  facet normal 0 1 -0
    outer loop
      vertex 154.714 253.35 95.9581
      vertex 143.063 253.35 158.221
      vertex 165.778 253.35 100.225
    endloop
  endfacet
  facet normal 0 1 0
    outer loop
      vertex 282.801 253.35 78.0457
      vertex 317.644 253.35 138.268
      vertex 332.804 253.35 128.972
    endloop
  endfacet
  facet normal 0 1 0
    outer loop
      vertex 289.672 253.35 71.0859
      vertex 332.804 253.35 128.972
      vertex 345.58 253.35 118.743
    endloop
  endfacet
  facet normal 0 1 0
    outer loop
      vertex 295.677 253.35 63.8329
      vertex 345.58 253.35 118.743
      vertex 356.17 253.35 107.814
    endloop
  endfacet
  facet normal 0 1 0
    outer loop
      vertex 279.38 253.35 153.125
      vertex 256.43 253.35 95.6872
      vertex 245.538 253.35 99.9953
    endloop
  endfacet
  facet normal 0 1 0
    outer loop
      vertex 207 253.35 135.16
      vertex 220.267 253.35 105.366
      vertex 207 253.35 106.068
    endloop
  endfacet
  facet normal 0 1 0
    outer loop
      vertex 207 253.35 135.16
      vertex 233.501 253.35 103.271
      vertex 220.267 253.35 105.366
    endloop
  endfacet
  facet normal 0 1 0
    outer loop
      vertex 229.2 253.35 161.449
      vertex 233.501 253.35 103.271
      vertex 207 253.35 135.16
    endloop
  endfacet
  facet normal 0 1 0
    outer loop
      vertex 300.869 253.35 56.4347
      vertex 356.17 253.35 107.814
      vertex 364.773 253.35 96.4184
    endloop
  endfacet
  facet normal 0 1 0
    outer loop
      vertex 255.878 253.35 158.221
      vertex 245.538 253.35 99.9953
      vertex 233.501 253.35 103.271
    endloop
  endfacet
  facet normal 0 1 0
    outer loop
      vertex 279.38 253.35 153.125
      vertex 266.235 253.35 90.4942
      vertex 256.43 253.35 95.6872
    endloop
  endfacet
  facet normal 0 1 0
    outer loop
      vertex 305.305 253.35 49.0391
      vertex 364.773 253.35 96.4184
      vertex 371.588 253.35 84.7892
    endloop
  endfacet
  facet normal 0 1 0
    outer loop
      vertex 299.902 253.35 146.397
      vertex 275.007 253.35 84.5645
      vertex 266.235 253.35 90.4942
    endloop
  endfacet
  facet normal 0 1 0
    outer loop
      vertex 317.644 253.35 138.268
      vertex 282.801 253.35 78.0457
      vertex 275.007 253.35 84.5645
    endloop
  endfacet
  facet normal 0 1 0
    outer loop
      vertex 305.305 253.35 49.0391
      vertex 371.588 253.35 84.7892
      vertex 376.812 253.35 73.1599
    endloop
  endfacet
  facet normal 0 1 0
    outer loop
      vertex 332.804 253.35 128.972
      vertex 289.672 253.35 71.0859
      vertex 282.801 253.35 78.0457
    endloop
  endfacet
  facet normal 0 1 0
    outer loop
      vertex 345.58 253.35 118.743
      vertex 295.677 253.35 63.8329
      vertex 289.672 253.35 71.0859
    endloop
  endfacet
  facet normal 0 1 0
    outer loop
      vertex 309.039 253.35 41.794
      vertex 376.812 253.35 73.1599
      vertex 380.644 253.35 61.7641
    endloop
  endfacet
  facet normal 0 1 0
    outer loop
      vertex 356.17 253.35 107.814
      vertex 300.869 253.35 56.4347
      vertex 295.677 253.35 63.8329
    endloop
  endfacet
  facet normal 0 1 0
    outer loop
      vertex 312.127 253.35 34.8474
      vertex 380.644 253.35 61.7641
      vertex 383.282 253.35 50.8349
    endloop
  endfacet
  facet normal 0 1 0
    outer loop
      vertex 364.773 253.35 96.4184
      vertex 305.305 253.35 49.0391
      vertex 300.869 253.35 56.4347
    endloop
  endfacet
  facet normal 0 1 0
    outer loop
      vertex 376.812 253.35 73.1599
      vertex 309.039 253.35 41.794
      vertex 305.305 253.35 49.0391
    endloop
  endfacet
  facet normal 0 1 0
    outer loop
      vertex 314.624 253.35 28.3472
      vertex 383.282 253.35 50.8349
      vertex 384.925 253.35 40.6059
    endloop
  endfacet
  facet normal 0 1 0
    outer loop
      vertex 380.644 253.35 61.7641
      vertex 312.127 253.35 34.8474
      vertex 309.039 253.35 41.794
    endloop
  endfacet
  facet normal 0 1 0
    outer loop
      vertex 316.585 253.35 22.4412
      vertex 384.925 253.35 40.6059
      vertex 385.771 253.35 31.3103
    endloop
  endfacet
  facet normal 0 1 0
    outer loop
      vertex 383.282 253.35 50.8349
      vertex 314.624 253.35 28.3472
      vertex 312.127 253.35 34.8474
    endloop
  endfacet
  facet normal 0 1 0
    outer loop
      vertex 318.066 253.35 17.2774
      vertex 385.771 253.35 31.3103
      vertex 386.018 253.35 23.1815
    endloop
  endfacet
  facet normal 0 1 0
    outer loop
      vertex 384.925 253.35 40.6059
      vertex 316.585 253.35 22.4412
      vertex 314.624 253.35 28.3472
    endloop
  endfacet
  facet normal 0 1 0
    outer loop
      vertex 385.771 253.35 31.3103
      vertex 318.066 253.35 17.2774
      vertex 316.585 253.35 22.4412
    endloop
  endfacet
  facet normal 0 1 0
    outer loop
      vertex 319.122 253.35 13.0036
      vertex 386.018 253.35 23.1815
      vertex 385.866 253.35 16.4529
    endloop
  endfacet
  facet normal 0 1 0
    outer loop
      vertex 386.018 253.35 23.1815
      vertex 319.122 253.35 13.0036
      vertex 318.066 253.35 17.2774
    endloop
  endfacet
  facet normal 0 1 0
    outer loop
      vertex 319.807 253.35 9.76781
      vertex 385.866 253.35 16.4529
      vertex 385.511 253.35 11.3578
    endloop
  endfacet
  facet normal 0 1 0
    outer loop
      vertex 385.866 253.35 16.4529
      vertex 319.807 253.35 9.76781
      vertex 319.122 253.35 13.0036
    endloop
  endfacet
  facet normal 0 1 0
    outer loop
      vertex 320.178 253.35 7.71785
      vertex 385.511 253.35 11.3578
      vertex 385.152 253.35 8.12959
    endloop
  endfacet
  facet normal 0 1 0
    outer loop
      vertex 385.511 253.35 11.3578
      vertex 320.178 253.35 7.71785
      vertex 319.807 253.35 9.76781
    endloop
  endfacet
  facet normal 0 1 -0
    outer loop
      vertex 384.989 253.35 7.00168
      vertex 320.178 253.35 7.71785
      vertex 385.152 253.35 8.12959
    endloop
  endfacet
  facet normal 0 1 0
    outer loop
      vertex 320.178 253.35 7.71785
      vertex 384.989 253.35 7.00168
      vertex 320.289 253.35 7.00168
    endloop
  endfacet
  facet normal 0 1 0
    outer loop
      vertex 143.063 253.35 158.221
      vertex 154.714 253.35 95.9581
      vertex 119.688 253.35 153.125
    endloop
  endfacet
  facet normal 0 1 -0
    outer loop
      vertex 144.703 253.35 90.7919
      vertex 119.688 253.35 153.125
      vertex 154.714 253.35 95.9581
    endloop
  endfacet
  facet normal 0 1 0
    outer loop
      vertex 119.688 253.35 153.125
      vertex 135.695 253.35 84.8756
      vertex 99.1762 253.35 146.397
    endloop
  endfacet
  facet normal 0 1 -0
    outer loop
      vertex 127.642 253.35 78.3587
      vertex 99.1762 253.35 146.397
      vertex 135.695 253.35 84.8756
    endloop
  endfacet
  facet normal 0 1 0
    outer loop
      vertex 191.26 253.35 105.461
      vertex 200.65 253.35 135.16
      vertex 200.65 253.35 105.895
    endloop
  endfacet
  facet normal 0 1 0
    outer loop
      vertex 177.943 253.35 103.442
      vertex 200.65 253.35 135.16
      vertex 191.26 253.35 105.461
    endloop
  endfacet
  facet normal 0 1 0
    outer loop
      vertex 169.487 253.35 161.449
      vertex 165.778 253.35 100.225
      vertex 143.063 253.35 158.221
    endloop
  endfacet
  facet normal 0 1 -0
    outer loop
      vertex 135.695 253.35 84.8756
      vertex 119.688 253.35 153.125
      vertex 144.703 253.35 90.7919
    endloop
  endfacet
  facet normal 0 1 0
    outer loop
      vertex 99.1762 253.35 146.397
      vertex 127.642 253.35 78.3587
      vertex 81.3431 253.35 138.268
    endloop
  endfacet
  facet normal 0 1 -0
    outer loop
      vertex 120.492 253.35 71.3907
      vertex 81.3431 253.35 138.268
      vertex 127.642 253.35 78.3587
    endloop
  endfacet
  facet normal 0 1 0
    outer loop
      vertex 81.3431 253.35 138.268
      vertex 120.492 253.35 71.3907
      vertex 66.0032 253.35 128.972
    endloop
  endfacet
  facet normal 0 1 -0
    outer loop
      vertex 114.199 253.35 64.121
      vertex 66.0032 253.35 128.972
      vertex 120.492 253.35 71.3907
    endloop
  endfacet
  facet normal 0 1 0
    outer loop
      vertex 66.0032 253.35 128.972
      vertex 114.199 253.35 64.121
      vertex 52.9712 253.35 118.743
    endloop
  endfacet
  facet normal 0 1 -0
    outer loop
      vertex 108.711 253.35 56.6992
      vertex 52.9712 253.35 118.743
      vertex 114.199 253.35 64.121
    endloop
  endfacet
  facet normal 0 1 0
    outer loop
      vertex 52.9712 253.35 118.743
      vertex 108.711 253.35 56.6992
      vertex 42.0618 253.35 107.814
    endloop
  endfacet
  facet normal 0 1 0
    outer loop
      vertex 42.0618 253.35 107.814
      vertex 108.711 253.35 56.6992
      vertex 33.0898 253.35 96.4184
    endloop
  endfacet
  facet normal 0 1 -0
    outer loop
      vertex 103.98 253.35 49.2748
      vertex 33.0898 253.35 96.4184
      vertex 108.711 253.35 56.6992
    endloop
  endfacet
  facet normal 0 1 0
    outer loop
      vertex 33.0898 253.35 96.4184
      vertex 103.98 253.35 49.2748
      vertex 25.8699 253.35 84.7892
    endloop
  endfacet
  facet normal 0 1 -0
    outer loop
      vertex 99.9563 253.35 41.9972
      vertex 25.8699 253.35 84.7892
      vertex 103.98 253.35 49.2748
    endloop
  endfacet
  facet normal 0 1 0
    outer loop
      vertex 25.8699 253.35 84.7892
      vertex 99.9563 253.35 41.9972
      vertex 20.2169 253.35 73.1599
    endloop
  endfacet
  facet normal 0 1 -0
    outer loop
      vertex 96.5907 253.35 35.016
      vertex 20.2169 253.35 73.1599
      vertex 99.9563 253.35 41.9972
    endloop
  endfacet
  facet normal 0 1 0
    outer loop
      vertex 20.2169 253.35 73.1599
      vertex 96.5907 253.35 35.016
      vertex 15.9455 253.35 61.7641
    endloop
  endfacet
  facet normal 0 1 -0
    outer loop
      vertex 93.8339 253.35 28.4805
      vertex 15.9455 253.35 61.7641
      vertex 96.5907 253.35 35.016
    endloop
  endfacet
  facet normal 0 1 0
    outer loop
      vertex 15.9455 253.35 61.7641
      vertex 93.8339 253.35 28.4805
      vertex 12.8704 253.35 50.8349
    endloop
  endfacet
  facet normal 0 1 -0
    outer loop
      vertex 91.6365 253.35 22.5404
      vertex 12.8704 253.35 50.8349
      vertex 93.8339 253.35 28.4805
    endloop
  endfacet
  facet normal 0 1 0
    outer loop
      vertex 12.8704 253.35 50.8349
      vertex 91.6365 253.35 22.5404
      vertex 10.8065 253.35 40.6059
    endloop
  endfacet
  facet normal 0 1 -0
    outer loop
      vertex 89.9492 253.35 17.3451
      vertex 10.8065 253.35 40.6059
      vertex 91.6365 253.35 22.5404
    endloop
  endfacet
  facet normal 0 1 0
    outer loop
      vertex 10.8065 253.35 40.6059
      vertex 89.9492 253.35 17.3451
      vertex 9.56828 253.35 31.3103
    endloop
  endfacet
  facet normal 0 1 -0
    outer loop
      vertex 88.7228 253.35 13.0441
      vertex 9.56828 253.35 31.3103
      vertex 89.9492 253.35 17.3451
    endloop
  endfacet
  facet normal 0 1 0
    outer loop
      vertex 9.56828 253.35 31.3103
      vertex 88.7228 253.35 13.0441
      vertex 8.97067 253.35 23.1815
    endloop
  endfacet
  facet normal 0 1 -0
    outer loop
      vertex 87.9078 253.35 9.78685
      vertex 8.97067 253.35 23.1815
      vertex 88.7228 253.35 13.0441
    endloop
  endfacet
  facet normal 0 1 0
    outer loop
      vertex 8.97067 253.35 23.1815
      vertex 87.9078 253.35 9.78685
      vertex 8.82835 253.35 16.4529
    endloop
  endfacet
  facet normal 0 1 -0
    outer loop
      vertex 87.455 253.35 7.72289
      vertex 8.82835 253.35 16.4529
      vertex 87.9078 253.35 9.78685
    endloop
  endfacet
  facet normal 0 1 0
    outer loop
      vertex 8.82835 253.35 16.4529
      vertex 87.455 253.35 7.72289
      vertex 8.95607 253.35 11.3578
    endloop
  endfacet
  facet normal 0 1 -0
    outer loop
      vertex 87.315 253.35 7.00168
      vertex 8.95607 253.35 11.3578
      vertex 87.455 253.35 7.72289
    endloop
  endfacet
  facet normal 0 1 0
    outer loop
      vertex 8.95607 253.35 11.3578
      vertex 87.315 253.35 7.00168
      vertex 9.16855 253.35 8.12959
    endloop
  endfacet
  facet normal 0 1 0
    outer loop
      vertex 9.16855 253.35 8.12959
      vertex 87.315 253.35 7.00168
      vertex 9.28055 253.35 7.00168
    endloop
  endfacet
  facet normal 0.120122 0 0.992759
    outer loop
      vertex 229.2 253.35 161.449
      vertex 255.878 247 158.221
      vertex 255.878 253.35 158.221
    endloop
  endfacet
  facet normal 0.120122 0 0.992759
    outer loop
      vertex 255.878 247 158.221
      vertex 229.2 253.35 161.449
      vertex 229.2 247 161.449
    endloop
  endfacet
  facet normal 0.211908 0 0.97729
    outer loop
      vertex 255.878 253.35 158.221
      vertex 279.38 247 153.125
      vertex 279.38 253.35 153.125
    endloop
  endfacet
  facet normal 0.211908 0 0.97729
    outer loop
      vertex 279.38 247 153.125
      vertex 255.878 253.35 158.221
      vertex 255.878 247 158.221
    endloop
  endfacet
  facet normal 0.311529 0 0.950237
    outer loop
      vertex 279.38 253.35 153.125
      vertex 299.902 247 146.397
      vertex 299.902 253.35 146.397
    endloop
  endfacet
  facet normal 0.311529 0 0.950237
    outer loop
      vertex 299.902 247 146.397
      vertex 279.38 253.35 153.125
      vertex 279.38 247 153.125
    endloop
  endfacet
  facet normal 0.416538 0 0.909118
    outer loop
      vertex 299.902 253.35 146.397
      vertex 317.644 247 138.268
      vertex 317.644 253.35 138.268
    endloop
  endfacet
  facet normal 0.416538 0 0.909118
    outer loop
      vertex 317.644 247 138.268
      vertex 299.902 253.35 146.397
      vertex 299.902 247 146.397
    endloop
  endfacet
  facet normal 0.522741 0 0.852491
    outer loop
      vertex 317.644 253.35 138.268
      vertex 332.804 247 128.972
      vertex 332.804 253.35 128.972
    endloop
  endfacet
  facet normal 0.522741 0 0.852491
    outer loop
      vertex 332.804 247 128.972
      vertex 317.644 253.35 138.268
      vertex 317.644 247 138.268
    endloop
  endfacet
  facet normal 0.625001 0 0.780624
    outer loop
      vertex 332.804 253.35 128.972
      vertex 345.58 247 118.743
      vertex 345.58 253.35 118.743
    endloop
  endfacet
  facet normal 0.625001 0 0.780624
    outer loop
      vertex 345.58 247 118.743
      vertex 332.804 253.35 128.972
      vertex 332.804 247 128.972
    endloop
  endfacet
  facet normal 0.718157 -0 0.695881
    outer loop
      vertex 345.58 247 118.743
      vertex 356.17 253.35 107.814
      vertex 345.58 253.35 118.743
    endloop
  endfacet
  facet normal 0.718157 0 0.695881
    outer loop
      vertex 356.17 253.35 107.814
      vertex 345.58 247 118.743
      vertex 356.17 247 107.814
    endloop
  endfacet
  facet normal 0.798103 -0 0.602521
    outer loop
      vertex 356.17 247 107.814
      vertex 364.773 253.35 96.4184
      vertex 356.17 253.35 107.814
    endloop
  endfacet
  facet normal 0.798103 0 0.602521
    outer loop
      vertex 364.773 253.35 96.4184
      vertex 356.17 247 107.814
      vertex 364.773 247 96.4184
    endloop
  endfacet
  facet normal 0.862766 -0 0.505603
    outer loop
      vertex 364.773 247 96.4184
      vertex 371.588 253.35 84.7892
      vertex 364.773 253.35 96.4184
    endloop
  endfacet
  facet normal 0.862766 0 0.505603
    outer loop
      vertex 371.588 253.35 84.7892
      vertex 364.773 247 96.4184
      vertex 371.588 247 84.7892
    endloop
  endfacet
  facet normal 0.912191 -0 0.409765
    outer loop
      vertex 371.588 247 84.7892
      vertex 376.812 253.35 73.1599
      vertex 371.588 253.35 84.7892
    endloop
  endfacet
  facet normal 0.912191 0 0.409765
    outer loop
      vertex 376.812 253.35 73.1599
      vertex 371.588 247 84.7892
      vertex 376.812 247 73.1599
    endloop
  endfacet
  facet normal 0.947847 -0 0.318727
    outer loop
      vertex 376.812 247 73.1599
      vertex 380.644 253.35 61.7641
      vertex 376.812 253.35 73.1599
    endloop
  endfacet
  facet normal 0.947847 0 0.318727
    outer loop
      vertex 380.644 253.35 61.7641
      vertex 376.812 247 73.1599
      vertex 380.644 247 61.7641
    endloop
  endfacet
  facet normal 0.972084 -0 0.234634
    outer loop
      vertex 380.644 247 61.7641
      vertex 383.282 253.35 50.8349
      vertex 380.644 253.35 61.7641
    endloop
  endfacet
  facet normal 0.972084 0 0.234634
    outer loop
      vertex 383.282 253.35 50.8349
      vertex 380.644 247 61.7641
      vertex 383.282 247 50.8349
    endloop
  endfacet
  facet normal 0.987345 -0 0.158589
    outer loop
      vertex 383.282 247 50.8349
      vertex 384.925 253.35 40.6059
      vertex 383.282 253.35 50.8349
    endloop
  endfacet
  facet normal 0.987345 0 0.158589
    outer loop
      vertex 384.925 253.35 40.6059
      vertex 383.282 247 50.8349
      vertex 384.925 247 40.6059
    endloop
  endfacet
  facet normal 0.995884 -0 0.0906362
    outer loop
      vertex 384.925 247 40.6059
      vertex 385.771 253.35 31.3103
      vertex 384.925 253.35 40.6059
    endloop
  endfacet
  facet normal 0.995884 0 0.0906362
    outer loop
      vertex 385.771 253.35 31.3103
      vertex 384.925 247 40.6059
      vertex 385.771 247 31.3103
    endloop
  endfacet
  facet normal 0.999539 -0 0.0303718
    outer loop
      vertex 385.771 247 31.3103
      vertex 386.018 253.35 23.1815
      vertex 385.771 253.35 31.3103
    endloop
  endfacet
  facet normal 0.999539 0 0.0303718
    outer loop
      vertex 386.018 253.35 23.1815
      vertex 385.771 247 31.3103
      vertex 386.018 247 23.1815
    endloop
  endfacet
  facet normal 0.999745 0 -0.0225844
    outer loop
      vertex 386.018 247 23.1815
      vertex 385.866 253.35 16.4529
      vertex 386.018 253.35 23.1815
    endloop
  endfacet
  facet normal 0.999745 0 -0.0225844
    outer loop
      vertex 385.866 253.35 16.4529
      vertex 386.018 247 23.1815
      vertex 385.866 247 16.4529
    endloop
  endfacet
  facet normal 0.997582 0 -0.0695063
    outer loop
      vertex 385.866 247 16.4529
      vertex 385.511 253.35 11.3578
      vertex 385.866 253.35 16.4529
    endloop
  endfacet
  facet normal 0.997582 0 -0.0695063
    outer loop
      vertex 385.511 253.35 11.3578
      vertex 385.866 247 16.4529
      vertex 385.511 247 11.3578
    endloop
  endfacet
  facet normal 0.993873 0 -0.110526
    outer loop
      vertex 385.511 247 11.3578
      vertex 385.152 253.35 8.12959
      vertex 385.511 253.35 11.3578
    endloop
  endfacet
  facet normal 0.993873 0 -0.110526
    outer loop
      vertex 385.152 253.35 8.12959
      vertex 385.511 247 11.3578
      vertex 385.152 247 8.12959
    endloop
  endfacet
  facet normal 0.989718 0 -0.143029
    outer loop
      vertex 385.152 247 8.12959
      vertex 384.989 253.35 7.00168
      vertex 385.152 253.35 8.12959
    endloop
  endfacet
  facet normal 0.989718 0 -0.143029
    outer loop
      vertex 384.989 253.35 7.00168
      vertex 385.152 247 8.12959
      vertex 384.989 247 7.00168
    endloop
  endfacet
  facet normal 0 0 -1
    outer loop
      vertex 320.289 247 7.00168
      vertex 384.989 253.35 7.00168
      vertex 384.989 247 7.00168
    endloop
  endfacet
  facet normal -0 0 -1
    outer loop
      vertex 384.989 253.35 7.00168
      vertex 320.289 247 7.00168
      vertex 320.289 253.35 7.00168
    endloop
  endfacet
  facet normal -0.988201 0 -0.153162
    outer loop
      vertex 320.289 247 7.00168
      vertex 320.178 253.35 7.71785
      vertex 320.289 253.35 7.00168
    endloop
  endfacet
  facet normal -0.988201 -0 -0.153162
    outer loop
      vertex 320.178 253.35 7.71785
      vertex 320.289 247 7.00168
      vertex 320.178 247 7.71785
    endloop
  endfacet
  facet normal -0.984015 0 -0.178086
    outer loop
      vertex 320.178 247 7.71785
      vertex 319.807 253.35 9.76781
      vertex 320.178 253.35 7.71785
    endloop
  endfacet
  facet normal -0.984015 -0 -0.178086
    outer loop
      vertex 319.807 253.35 9.76781
      vertex 320.178 247 7.71785
      vertex 319.807 247 9.76781
    endloop
  endfacet
  facet normal -0.978319 0 -0.207105
    outer loop
      vertex 319.807 247 9.76781
      vertex 319.122 253.35 13.0036
      vertex 319.807 253.35 9.76781
    endloop
  endfacet
  facet normal -0.978319 -0 -0.207105
    outer loop
      vertex 319.122 253.35 13.0036
      vertex 319.807 247 9.76781
      vertex 319.122 247 13.0036
    endloop
  endfacet
  facet normal -0.970804 0 -0.239873
    outer loop
      vertex 319.122 247 13.0036
      vertex 318.066 253.35 17.2774
      vertex 319.122 253.35 13.0036
    endloop
  endfacet
  facet normal -0.970804 -0 -0.239873
    outer loop
      vertex 318.066 253.35 17.2774
      vertex 319.122 247 13.0036
      vertex 318.066 247 17.2774
    endloop
  endfacet
  facet normal -0.961247 0 -0.27569
    outer loop
      vertex 318.066 247 17.2774
      vertex 316.585 253.35 22.4412
      vertex 318.066 253.35 17.2774
    endloop
  endfacet
  facet normal -0.961247 -0 -0.27569
    outer loop
      vertex 316.585 253.35 22.4412
      vertex 318.066 247 17.2774
      vertex 316.585 247 22.4412
    endloop
  endfacet
  facet normal -0.949052 0 -0.315119
    outer loop
      vertex 316.585 247 22.4412
      vertex 314.624 253.35 28.3472
      vertex 316.585 253.35 22.4412
    endloop
  endfacet
  facet normal -0.949052 -0 -0.315119
    outer loop
      vertex 314.624 253.35 28.3472
      vertex 316.585 247 22.4412
      vertex 314.624 247 28.3472
    endloop
  endfacet
  facet normal -0.933494 0 -0.358594
    outer loop
      vertex 314.624 247 28.3472
      vertex 312.127 253.35 34.8474
      vertex 314.624 253.35 28.3472
    endloop
  endfacet
  facet normal -0.933494 -0 -0.358594
    outer loop
      vertex 312.127 253.35 34.8474
      vertex 314.624 247 28.3472
      vertex 312.127 247 34.8474
    endloop
  endfacet
  facet normal -0.913781 0 -0.406207
    outer loop
      vertex 312.127 247 34.8474
      vertex 309.039 253.35 41.794
      vertex 312.127 253.35 34.8474
    endloop
  endfacet
  facet normal -0.913781 -0 -0.406207
    outer loop
      vertex 309.039 253.35 41.794
      vertex 312.127 247 34.8474
      vertex 309.039 247 41.794
    endloop
  endfacet
  facet normal -0.888891 0 -0.458119
    outer loop
      vertex 309.039 247 41.794
      vertex 305.305 253.35 49.0391
      vertex 309.039 253.35 41.794
    endloop
  endfacet
  facet normal -0.888891 -0 -0.458119
    outer loop
      vertex 305.305 253.35 49.0391
      vertex 309.039 247 41.794
      vertex 305.305 247 49.0391
    endloop
  endfacet
  facet normal -0.857562 0 -0.51438
    outer loop
      vertex 305.305 247 49.0391
      vertex 300.869 253.35 56.4347
      vertex 305.305 253.35 49.0391
    endloop
  endfacet
  facet normal -0.857562 -0 -0.51438
    outer loop
      vertex 300.869 253.35 56.4347
      vertex 305.305 247 49.0391
      vertex 300.869 247 56.4347
    endloop
  endfacet
  facet normal -0.818542 0 -0.574447
    outer loop
      vertex 300.869 247 56.4347
      vertex 295.677 253.35 63.8329
      vertex 300.869 253.35 56.4347
    endloop
  endfacet
  facet normal -0.818542 -0 -0.574447
    outer loop
      vertex 295.677 253.35 63.8329
      vertex 300.869 247 56.4347
      vertex 295.677 247 63.8329
    endloop
  endfacet
  facet normal -0.770263 0 -0.637726
    outer loop
      vertex 295.677 247 63.8329
      vertex 289.672 253.35 71.0859
      vertex 295.677 253.35 63.8329
    endloop
  endfacet
  facet normal -0.770263 -0 -0.637726
    outer loop
      vertex 289.672 253.35 71.0859
      vertex 295.677 247 63.8329
      vertex 289.672 247 71.0859
    endloop
  endfacet
  facet normal -0.711632 0 -0.702552
    outer loop
      vertex 289.672 247 71.0859
      vertex 282.801 253.35 78.0457
      vertex 289.672 253.35 71.0859
    endloop
  endfacet
  facet normal -0.711632 -0 -0.702552
    outer loop
      vertex 282.801 253.35 78.0457
      vertex 289.672 247 71.0859
      vertex 282.801 247 78.0457
    endloop
  endfacet
  facet normal -0.641566 0 -0.767068
    outer loop
      vertex 275.007 247 84.5645
      vertex 282.801 253.35 78.0457
      vertex 282.801 247 78.0457
    endloop
  endfacet
  facet normal -0.641566 0 -0.767068
    outer loop
      vertex 282.801 253.35 78.0457
      vertex 275.007 247 84.5645
      vertex 275.007 253.35 84.5645
    endloop
  endfacet
  facet normal -0.560031 0 -0.828472
    outer loop
      vertex 266.235 247 90.4942
      vertex 275.007 253.35 84.5645
      vertex 275.007 247 84.5645
    endloop
  endfacet
  facet normal -0.560031 0 -0.828472
    outer loop
      vertex 275.007 253.35 84.5645
      vertex 266.235 247 90.4942
      vertex 266.235 253.35 90.4942
    endloop
  endfacet
  facet normal -0.468037 0 -0.883709
    outer loop
      vertex 256.43 247 95.6872
      vertex 266.235 253.35 90.4942
      vertex 266.235 247 90.4942
    endloop
  endfacet
  facet normal -0.468037 0 -0.883709
    outer loop
      vertex 266.235 253.35 90.4942
      vertex 256.43 247 95.6872
      vertex 256.43 253.35 95.6872
    endloop
  endfacet
  facet normal -0.367804 0 -0.929903
    outer loop
      vertex 245.538 247 99.9953
      vertex 256.43 253.35 95.6872
      vertex 256.43 247 95.6872
    endloop
  endfacet
  facet normal -0.367804 0 -0.929903
    outer loop
      vertex 256.43 253.35 95.6872
      vertex 245.538 247 99.9953
      vertex 245.538 253.35 99.9953
    endloop
  endfacet
  facet normal -0.262586 0 -0.964909
    outer loop
      vertex 233.501 247 103.271
      vertex 245.538 253.35 99.9953
      vertex 245.538 247 99.9953
    endloop
  endfacet
  facet normal -0.262586 0 -0.964909
    outer loop
      vertex 245.538 253.35 99.9953
      vertex 233.501 247 103.271
      vertex 233.501 253.35 103.271
    endloop
  endfacet
  facet normal -0.156357 0 -0.987701
    outer loop
      vertex 220.267 247 105.366
      vertex 233.501 253.35 103.271
      vertex 233.501 247 103.271
    endloop
  endfacet
  facet normal -0.156357 0 -0.987701
    outer loop
      vertex 233.501 253.35 103.271
      vertex 220.267 247 105.366
      vertex 220.267 253.35 105.366
    endloop
  endfacet
  facet normal -0.0528393 0 -0.998603
    outer loop
      vertex 207 247 106.068
      vertex 220.267 253.35 105.366
      vertex 220.267 247 105.366
    endloop
  endfacet
  facet normal -0.0528393 0 -0.998603
    outer loop
      vertex 220.267 253.35 105.366
      vertex 207 247 106.068
      vertex 207 253.35 106.068
    endloop
  endfacet
  facet normal 0.0461701 0 -0.998934
    outer loop
      vertex 191.26 247 105.461
      vertex 200.65 253.35 105.895
      vertex 200.65 247 105.895
    endloop
  endfacet
  facet normal 0.0461701 0 -0.998934
    outer loop
      vertex 200.65 253.35 105.895
      vertex 191.26 247 105.461
      vertex 191.26 253.35 105.461
    endloop
  endfacet
  facet normal 0.149898 0 -0.988702
    outer loop
      vertex 177.943 247 103.442
      vertex 191.26 253.35 105.461
      vertex 191.26 247 105.461
    endloop
  endfacet
  facet normal 0.149898 0 -0.988702
    outer loop
      vertex 191.26 253.35 105.461
      vertex 177.943 247 103.442
      vertex 177.943 253.35 103.442
    endloop
  endfacet
  facet normal 0.255659 0 -0.966767
    outer loop
      vertex 165.778 247 100.225
      vertex 177.943 253.35 103.442
      vertex 177.943 247 103.442
    endloop
  endfacet
  facet normal 0.255659 0 -0.966767
    outer loop
      vertex 177.943 253.35 103.442
      vertex 165.778 247 100.225
      vertex 165.778 253.35 100.225
    endloop
  endfacet
  facet normal 0.359825 0 -0.93302
    outer loop
      vertex 154.714 247 95.9581
      vertex 165.778 253.35 100.225
      vertex 165.778 247 100.225
    endloop
  endfacet
  facet normal 0.359825 0 -0.93302
    outer loop
      vertex 165.778 253.35 100.225
      vertex 154.714 247 95.9581
      vertex 154.714 253.35 95.9581
    endloop
  endfacet
  facet normal 0.458589 0 -0.888648
    outer loop
      vertex 144.703 247 90.7919
      vertex 154.714 253.35 95.9581
      vertex 154.714 247 95.9581
    endloop
  endfacet
  facet normal 0.458589 0 -0.888648
    outer loop
      vertex 154.714 253.35 95.9581
      vertex 144.703 247 90.7919
      vertex 144.703 253.35 90.7919
    endloop
  endfacet
  facet normal 0.548968 0 -0.835844
    outer loop
      vertex 135.695 247 84.8756
      vertex 144.703 253.35 90.7919
      vertex 144.703 247 90.7919
    endloop
  endfacet
  facet normal 0.548968 0 -0.835844
    outer loop
      vertex 144.703 253.35 90.7919
      vertex 135.695 247 84.8756
      vertex 135.695 253.35 84.8756
    endloop
  endfacet
  facet normal 0.62907 0 -0.777348
    outer loop
      vertex 127.642 247 78.3587
      vertex 135.695 253.35 84.8756
      vertex 135.695 247 84.8756
    endloop
  endfacet
  facet normal 0.62907 0 -0.777348
    outer loop
      vertex 135.695 253.35 84.8756
      vertex 127.642 247 78.3587
      vertex 127.642 253.35 78.3587
    endloop
  endfacet
  facet normal 0.697933 0 -0.716163
    outer loop
      vertex 120.492 247 71.3907
      vertex 127.642 253.35 78.3587
      vertex 127.642 247 78.3587
    endloop
  endfacet
  facet normal 0.697933 0 -0.716163
    outer loop
      vertex 127.642 253.35 78.3587
      vertex 120.492 247 71.3907
      vertex 120.492 253.35 71.3907
    endloop
  endfacet
  facet normal 0.75607 0 -0.654491
    outer loop
      vertex 120.492 247 71.3907
      vertex 114.199 253.35 64.121
      vertex 120.492 253.35 71.3907
    endloop
  endfacet
  facet normal 0.75607 0 -0.654491
    outer loop
      vertex 114.199 253.35 64.121
      vertex 120.492 247 71.3907
      vertex 114.199 247 64.121
    endloop
  endfacet
  facet normal 0.804056 0 -0.594554
    outer loop
      vertex 114.199 247 64.121
      vertex 108.711 253.35 56.6992
      vertex 114.199 253.35 64.121
    endloop
  endfacet
  facet normal 0.804056 0 -0.594554
    outer loop
      vertex 108.711 253.35 56.6992
      vertex 114.199 247 64.121
      vertex 108.711 247 56.6992
    endloop
  endfacet
  facet normal 0.843333 0 -0.537391
    outer loop
      vertex 108.711 247 56.6992
      vertex 103.98 253.35 49.2748
      vertex 108.711 253.35 56.6992
    endloop
  endfacet
  facet normal 0.843333 0 -0.537391
    outer loop
      vertex 103.98 253.35 49.2748
      vertex 108.711 247 56.6992
      vertex 103.98 247 49.2748
    endloop
  endfacet
  facet normal 0.875146 0 -0.483858
    outer loop
      vertex 103.98 247 49.2748
      vertex 99.9563 253.35 41.9972
      vertex 103.98 253.35 49.2748
    endloop
  endfacet
  facet normal 0.875146 0 -0.483858
    outer loop
      vertex 99.9563 253.35 41.9972
      vertex 103.98 247 49.2748
      vertex 99.9563 247 41.9972
    endloop
  endfacet
  facet normal 0.900786 0 -0.434264
    outer loop
      vertex 99.9563 247 41.9972
      vertex 96.5907 253.35 35.016
      vertex 99.9563 253.35 41.9972
    endloop
  endfacet
  facet normal 0.900786 0 -0.434264
    outer loop
      vertex 96.5907 253.35 35.016
      vertex 99.9563 247 41.9972
      vertex 96.5907 247 35.016
    endloop
  endfacet
  facet normal 0.921383 0 -0.388657
    outer loop
      vertex 96.5907 247 35.016
      vertex 93.8339 253.35 28.4805
      vertex 96.5907 253.35 35.016
    endloop
  endfacet
  facet normal 0.921383 0 -0.388657
    outer loop
      vertex 93.8339 253.35 28.4805
      vertex 96.5907 247 35.016
      vertex 93.8339 247 28.4805
    endloop
  endfacet
  facet normal 0.937884 0 -0.346948
    outer loop
      vertex 93.8339 247 28.4805
      vertex 91.6365 253.35 22.5404
      vertex 93.8339 253.35 28.4805
    endloop
  endfacet
  facet normal 0.937884 0 -0.346948
    outer loop
      vertex 91.6365 253.35 22.5404
      vertex 93.8339 247 28.4805
      vertex 91.6365 247 22.5404
    endloop
  endfacet
  facet normal 0.951097 0 -0.308892
    outer loop
      vertex 91.6365 247 22.5404
      vertex 89.9492 253.35 17.3451
      vertex 91.6365 253.35 22.5404
    endloop
  endfacet
  facet normal 0.951097 0 -0.308892
    outer loop
      vertex 89.9492 253.35 17.3451
      vertex 91.6365 247 22.5404
      vertex 89.9492 247 17.3451
    endloop
  endfacet
  facet normal 0.961669 0 -0.274213
    outer loop
      vertex 89.9492 247 17.3451
      vertex 88.7228 253.35 13.0441
      vertex 89.9492 253.35 17.3451
    endloop
  endfacet
  facet normal 0.961669 0 -0.274213
    outer loop
      vertex 88.7228 253.35 13.0441
      vertex 89.9492 247 17.3451
      vertex 88.7228 247 13.0441
    endloop
  endfacet
  facet normal 0.970094 0 -0.242728
    outer loop
      vertex 88.7228 247 13.0441
      vertex 87.9078 253.35 9.78685
      vertex 88.7228 253.35 13.0441
    endloop
  endfacet
  facet normal 0.970094 0 -0.242728
    outer loop
      vertex 87.9078 253.35 9.78685
      vertex 88.7228 247 13.0441
      vertex 87.9078 247 9.78685
    endloop
  endfacet
  facet normal 0.976771 0 -0.214288
    outer loop
      vertex 87.9078 247 9.78685
      vertex 87.455 253.35 7.72289
      vertex 87.9078 253.35 9.78685
    endloop
  endfacet
  facet normal 0.976771 0 -0.214288
    outer loop
      vertex 87.455 253.35 7.72289
      vertex 87.9078 247 9.78685
      vertex 87.455 247 7.72289
    endloop
  endfacet
  facet normal 0.981675 0 -0.190561
    outer loop
      vertex 87.455 247 7.72289
      vertex 87.315 253.35 7.00168
      vertex 87.455 253.35 7.72289
    endloop
  endfacet
  facet normal 0.981675 0 -0.190561
    outer loop
      vertex 87.315 253.35 7.00168
      vertex 87.455 247 7.72289
      vertex 87.315 247 7.00168
    endloop
  endfacet
  facet normal 0 0 -1
    outer loop
      vertex 9.28055 247 7.00168
      vertex 87.315 253.35 7.00168
      vertex 87.315 247 7.00168
    endloop
  endfacet
  facet normal -0 0 -1
    outer loop
      vertex 87.315 253.35 7.00168
      vertex 9.28055 247 7.00168
      vertex 9.28055 253.35 7.00168
    endloop
  endfacet
  facet normal -0.995106 0 -0.0988127
    outer loop
      vertex 9.28055 247 7.00168
      vertex 9.16855 253.35 8.12959
      vertex 9.28055 253.35 7.00168
    endloop
  endfacet
  facet normal -0.995106 -0 -0.0988127
    outer loop
      vertex 9.16855 253.35 8.12959
      vertex 9.28055 247 7.00168
      vertex 9.16855 247 8.12959
    endloop
  endfacet
  facet normal -0.997841 0 -0.0656776
    outer loop
      vertex 9.16855 247 8.12959
      vertex 8.95607 253.35 11.3578
      vertex 9.16855 253.35 8.12959
    endloop
  endfacet
  facet normal -0.997841 -0 -0.0656776
    outer loop
      vertex 8.95607 253.35 11.3578
      vertex 9.16855 247 8.12959
      vertex 8.95607 247 11.3578
    endloop
  endfacet
  facet normal -0.999686 0 -0.0250593
    outer loop
      vertex 8.95607 247 11.3578
      vertex 8.82835 253.35 16.4529
      vertex 8.95607 253.35 11.3578
    endloop
  endfacet
  facet normal -0.999686 -0 -0.0250593
    outer loop
      vertex 8.82835 253.35 16.4529
      vertex 8.95607 247 11.3578
      vertex 8.82835 247 16.4529
    endloop
  endfacet
  facet normal -0.999776 0 0.0211468
    outer loop
      vertex 8.82835 247 16.4529
      vertex 8.97067 253.35 23.1815
      vertex 8.82835 253.35 16.4529
    endloop
  endfacet
  facet normal -0.999776 0 0.0211468
    outer loop
      vertex 8.97067 253.35 23.1815
      vertex 8.82835 247 16.4529
      vertex 8.97067 247 23.1815
    endloop
  endfacet
  facet normal -0.997308 0 0.0733197
    outer loop
      vertex 8.97067 247 23.1815
      vertex 9.56828 253.35 31.3103
      vertex 8.97067 253.35 23.1815
    endloop
  endfacet
  facet normal -0.997308 0 0.0733197
    outer loop
      vertex 9.56828 253.35 31.3103
      vertex 8.97067 247 23.1815
      vertex 9.56828 247 31.3103
    endloop
  endfacet
  facet normal -0.991245 0 0.132039
    outer loop
      vertex 9.56828 247 31.3103
      vertex 10.8065 253.35 40.6059
      vertex 9.56828 253.35 31.3103
    endloop
  endfacet
  facet normal -0.991245 0 0.132039
    outer loop
      vertex 10.8065 253.35 40.6059
      vertex 9.56828 247 31.3103
      vertex 10.8065 247 40.6059
    endloop
  endfacet
  facet normal -0.980246 0 0.197784
    outer loop
      vertex 10.8065 247 40.6059
      vertex 12.8704 253.35 50.8349
      vertex 10.8065 253.35 40.6059
    endloop
  endfacet
  facet normal -0.980246 0 0.197784
    outer loop
      vertex 12.8704 253.35 50.8349
      vertex 10.8065 247 40.6059
      vertex 12.8704 247 50.8349
    endloop
  endfacet
  facet normal -0.962622 0 0.270849
    outer loop
      vertex 12.8704 247 50.8349
      vertex 15.9455 253.35 61.7641
      vertex 12.8704 253.35 50.8349
    endloop
  endfacet
  facet normal -0.962622 0 0.270849
    outer loop
      vertex 15.9455 253.35 61.7641
      vertex 12.8704 247 50.8349
      vertex 15.9455 247 61.7641
    endloop
  endfacet
  facet normal -0.936384 0 0.350978
    outer loop
      vertex 15.9455 247 61.7641
      vertex 20.2169 253.35 73.1599
      vertex 15.9455 253.35 61.7641
    endloop
  endfacet
  facet normal -0.936384 0 0.350978
    outer loop
      vertex 20.2169 253.35 73.1599
      vertex 15.9455 247 61.7641
      vertex 20.2169 247 73.1599
    endloop
  endfacet
  facet normal -0.899372 0 0.437184
    outer loop
      vertex 20.2169 247 73.1599
      vertex 25.8699 253.35 84.7892
      vertex 20.2169 253.35 73.1599
    endloop
  endfacet
  facet normal -0.899372 0 0.437184
    outer loop
      vertex 25.8699 253.35 84.7892
      vertex 20.2169 247 73.1599
      vertex 25.8699 247 84.7892
    endloop
  endfacet
  facet normal -0.849582 0 0.527457
    outer loop
      vertex 25.8699 247 84.7892
      vertex 33.0898 253.35 96.4184
      vertex 25.8699 253.35 84.7892
    endloop
  endfacet
  facet normal -0.849582 0 0.527457
    outer loop
      vertex 33.0898 253.35 96.4184
      vertex 25.8699 247 84.7892
      vertex 33.0898 247 96.4184
    endloop
  endfacet
  facet normal -0.785705 0 0.618602
    outer loop
      vertex 33.0898 247 96.4184
      vertex 42.0618 253.35 107.814
      vertex 33.0898 253.35 96.4184
    endloop
  endfacet
  facet normal -0.785705 0 0.618602
    outer loop
      vertex 42.0618 253.35 107.814
      vertex 33.0898 247 96.4184
      vertex 42.0618 247 107.814
    endloop
  endfacet
  facet normal -0.707741 0 0.706472
    outer loop
      vertex 42.0618 247 107.814
      vertex 52.9712 253.35 118.743
      vertex 42.0618 253.35 107.814
    endloop
  endfacet
  facet normal -0.707741 0 0.706472
    outer loop
      vertex 52.9712 253.35 118.743
      vertex 42.0618 247 107.814
      vertex 52.9712 247 118.743
    endloop
  endfacet
  facet normal -0.617432 0 0.786624
    outer loop
      vertex 52.9712 253.35 118.743
      vertex 66.0032 247 128.972
      vertex 66.0032 253.35 128.972
    endloop
  endfacet
  facet normal -0.617432 0 0.786624
    outer loop
      vertex 66.0032 247 128.972
      vertex 52.9712 253.35 118.743
      vertex 52.9712 247 118.743
    endloop
  endfacet
  facet normal -0.518265 0 0.85522
    outer loop
      vertex 66.0032 253.35 128.972
      vertex 81.3431 247 138.268
      vertex 81.3431 253.35 138.268
    endloop
  endfacet
  facet normal -0.518265 0 0.85522
    outer loop
      vertex 81.3431 247 138.268
      vertex 66.0032 253.35 128.972
      vertex 66.0032 247 128.972
    endloop
  endfacet
  facet normal -0.414777 0 0.909923
    outer loop
      vertex 81.3431 253.35 138.268
      vertex 99.1762 247 146.397
      vertex 99.1762 253.35 146.397
    endloop
  endfacet
  facet normal -0.414777 0 0.909923
    outer loop
      vertex 99.1762 247 146.397
      vertex 81.3431 253.35 138.268
      vertex 81.3431 247 138.268
    endloop
  endfacet
  facet normal -0.311669 0 0.950191
    outer loop
      vertex 99.1762 253.35 146.397
      vertex 119.688 247 153.125
      vertex 119.688 253.35 153.125
    endloop
  endfacet
  facet normal -0.311669 0 0.950191
    outer loop
      vertex 119.688 247 153.125
      vertex 99.1762 253.35 146.397
      vertex 99.1762 247 146.397
    endloop
  endfacet
  facet normal -0.213007 0 0.977051
    outer loop
      vertex 119.688 253.35 153.125
      vertex 143.063 247 158.221
      vertex 143.063 253.35 158.221
    endloop
  endfacet
  facet normal -0.213007 0 0.977051
    outer loop
      vertex 143.063 247 158.221
      vertex 119.688 253.35 153.125
      vertex 119.688 247 153.125
    endloop
  endfacet
  facet normal -0.12126 0 0.992621
    outer loop
      vertex 143.063 253.35 158.221
      vertex 169.487 247 161.449
      vertex 169.487 253.35 161.449
    endloop
  endfacet
  facet normal -0.12126 0 0.992621
    outer loop
      vertex 169.487 247 161.449
      vertex 143.063 253.35 158.221
      vertex 143.063 247 158.221
    endloop
  endfacet
  facet normal -0.0380048 0 0.999278
    outer loop
      vertex 169.487 253.35 161.449
      vertex 199.146 247 162.577
      vertex 199.146 253.35 162.577
    endloop
  endfacet
  facet normal -0.0380048 0 0.999278
    outer loop
      vertex 199.146 247 162.577
      vertex 169.487 253.35 161.449
      vertex 169.487 247 161.449
    endloop
  endfacet
  facet normal 0.037506 0 0.999296
    outer loop
      vertex 199.146 253.35 162.577
      vertex 229.2 247 161.449
      vertex 229.2 253.35 161.449
    endloop
  endfacet
  facet normal 0.037506 0 0.999296
    outer loop
      vertex 229.2 247 161.449
      vertex 199.146 253.35 162.577
      vertex 199.146 247 162.577
    endloop
  endfacet
  facet normal -1 0 0
    outer loop
      vertex 207 247 133.979
      vertex 207 253.35 106.068
      vertex 207 247 106.068
    endloop
  endfacet
  facet normal -1 0 0
    outer loop
      vertex 207 253.35 106.068
      vertex 207 247 133.979
      vertex 207 253.35 135.16
    endloop
  endfacet
  facet normal 1 -0 0
    outer loop
      vertex 200.65 247 133.979
      vertex 200.65 253.35 105.895
      vertex 200.65 253.35 135.16
    endloop
  endfacet
  facet normal 1 0 0
    outer loop
      vertex 200.65 253.35 105.895
      vertex 200.65 247 133.979
      vertex 200.65 247 105.895
    endloop
  endfacet
  facet normal 0 0.182849 -0.983141
    outer loop
      vertex 200.65 247 133.979
      vertex 207 253.35 135.16
      vertex 207 247 133.979
    endloop
  endfacet
  facet normal 0 0.182849 -0.983141
    outer loop
      vertex 207 253.35 135.16
      vertex 200.65 247 133.979
      vertex 200.65 253.35 135.16
    endloop
  endfacet
endsolid OpenSCAD_Model
