solid OpenSCAD_Model
  facet normal 0 -1 -0
    outer loop
      vertex 200.65 126.35 70.9153
      vertex 198.192 126.35 59.4692
      vertex 206.031 126.35 59.5733
    endloop
  endfacet
  facet normal 0 -1 0
    outer loop
      vertex 73.42 126.35 67.672
      vertex 190.861 126.35 58.5988
      vertex 198.192 126.35 59.4692
    endloop
  endfacet
  facet normal 0 -1 0
    outer loop
      vertex 73.42 126.35 67.672
      vertex 184.026 126.35 57.0453
      vertex 190.861 126.35 58.5988
    endloop
  endfacet
  facet normal 0 -1 0
    outer loop
      vertex 138.329 126.35 18.75
      vertex 70.0843 126.35 62.1585
      vertex 67.0463 126.35 56.6813
    endloop
  endfacet
  facet normal 0 -1 0
    outer loop
      vertex 73.42 126.35 67.672
      vertex 177.677 126.35 54.8924
      vertex 184.026 126.35 57.0453
    endloop
  endfacet
  facet normal 0 -1 0
    outer loop
      vertex 73.42 126.35 67.672
      vertex 171.8 126.35 52.2234
      vertex 177.677 126.35 54.8924
    endloop
  endfacet
  facet normal 0 -1 0
    outer loop
      vertex 136.558 126.35 15.5103
      vertex 67.0463 126.35 56.6813
      vertex 64.2946 126.35 51.2845
    endloop
  endfacet
  facet normal 0 -1 0
    outer loop
      vertex 73.42 126.35 67.672
      vertex 166.386 126.35 49.1219
      vertex 171.8 126.35 52.2234
    endloop
  endfacet
  facet normal 0 -1 0
    outer loop
      vertex 135.134 126.35 12.6725
      vertex 64.2946 126.35 51.2845
      vertex 61.8178 126.35 46.012
    endloop
  endfacet
  facet normal 0 -1 0
    outer loop
      vertex 73.42 126.35 67.672
      vertex 161.422 126.35 45.6712
      vertex 166.386 126.35 49.1219
    endloop
  endfacet
  facet normal 0 -1 0
    outer loop
      vertex 73.42 126.35 67.672
      vertex 156.897 126.35 41.9548
      vertex 161.422 126.35 45.6712
    endloop
  endfacet
  facet normal 0 -1 0
    outer loop
      vertex 134.047 126.35 10.3201
      vertex 61.8178 126.35 46.012
      vertex 59.6045 126.35 40.908
    endloop
  endfacet
  facet normal 0 -1 0
    outer loop
      vertex 73.42 126.35 67.672
      vertex 152.8 126.35 38.0561
      vertex 156.897 126.35 41.9548
    endloop
  endfacet
  facet normal 0 -1 0
    outer loop
      vertex 133.284 126.35 8.53648
      vertex 59.6045 126.35 40.908
      vertex 57.6434 126.35 36.0166
    endloop
  endfacet
  facet normal 0 -1 0
    outer loop
      vertex 73.42 126.35 67.672
      vertex 149.119 126.35 34.0587
      vertex 152.8 126.35 38.0561
    endloop
  endfacet
  facet normal 0 -1 0
    outer loop
      vertex 132.688 126.35 7.00945
      vertex 57.6434 126.35 36.0166
      vertex 55.923 126.35 31.3818
    endloop
  endfacet
  facet normal 0 -1 0
    outer loop
      vertex 73.42 126.35 67.672
      vertex 145.843 126.35 30.0459
      vertex 149.119 126.35 34.0587
    endloop
  endfacet
  facet normal 0 -1 0
    outer loop
      vertex 132.688 126.35 7.00945
      vertex 55.923 126.35 31.3818
      vertex 54.4321 126.35 27.0478
    endloop
  endfacet
  facet normal 0 -1 0
    outer loop
      vertex 73.42 126.35 67.672
      vertex 142.96 126.35 26.1012
      vertex 145.843 126.35 30.0459
    endloop
  endfacet
  facet normal 0 -1 0
    outer loop
      vertex 132.688 126.35 7.00945
      vertex 54.4321 126.35 27.0478
      vertex 53.1591 126.35 23.0586
    endloop
  endfacet
  facet normal 0 -1 0
    outer loop
      vertex 73.42 126.35 67.672
      vertex 140.459 126.35 22.3081
      vertex 142.96 126.35 26.1012
    endloop
  endfacet
  facet normal 0 -1 0
    outer loop
      vertex 132.688 126.35 7.00945
      vertex 53.1591 126.35 23.0586
      vertex 52.0928 126.35 19.4582
    endloop
  endfacet
  facet normal 0 -1 0
    outer loop
      vertex 70.0843 126.35 62.1585
      vertex 138.329 126.35 18.75
      vertex 140.459 126.35 22.3081
    endloop
  endfacet
  facet normal 0 -1 0
    outer loop
      vertex 132.688 126.35 7.00945
      vertex 52.0928 126.35 19.4582
      vertex 51.2217 126.35 16.2908
    endloop
  endfacet
  facet normal 0 -1 0
    outer loop
      vertex 67.0463 126.35 56.6813
      vertex 136.558 126.35 15.5103
      vertex 138.329 126.35 18.75
    endloop
  endfacet
  facet normal 0 -1 0
    outer loop
      vertex 132.688 126.35 7.00945
      vertex 51.2217 126.35 16.2908
      vertex 50.5346 126.35 13.6005
    endloop
  endfacet
  facet normal 0 -1 0
    outer loop
      vertex 64.2946 126.35 51.2845
      vertex 135.134 126.35 12.6725
      vertex 136.558 126.35 15.5103
    endloop
  endfacet
  facet normal 0 -1 0
    outer loop
      vertex 132.688 126.35 7.00945
      vertex 50.5346 126.35 13.6005
      vertex 50.0199 126.35 11.4312
    endloop
  endfacet
  facet normal 0 -1 0
    outer loop
      vertex 61.8178 126.35 46.012
      vertex 134.047 126.35 10.3201
      vertex 135.134 126.35 12.6725
    endloop
  endfacet
  facet normal 0 -1 0
    outer loop
      vertex 132.688 126.35 7.00945
      vertex 50.0199 126.35 11.4312
      vertex 49.6664 126.35 9.82722
    endloop
  endfacet
  facet normal 0 -1 0
    outer loop
      vertex 132.688 126.35 7.00945
      vertex 49.6664 126.35 9.82722
      vertex 49.4626 126.35 8.83249
    endloop
  endfacet
  facet normal 0 -1 0
    outer loop
      vertex 59.6045 126.35 40.908
      vertex 133.284 126.35 8.53648
      vertex 134.047 126.35 10.3201
    endloop
  endfacet
  facet normal 0 -1 0
    outer loop
      vertex 132.688 126.35 7.00945
      vertex 49.4626 126.35 8.83249
      vertex 49.3972 126.35 8.49112
    endloop
  endfacet
  facet normal 0 -1 0
    outer loop
      vertex 57.6434 126.35 36.0166
      vertex 132.835 126.35 7.40512
      vertex 133.284 126.35 8.53648
    endloop
  endfacet
  facet normal 0 -1 0
    outer loop
      vertex 57.6434 126.35 36.0166
      vertex 132.688 126.35 7.00945
      vertex 132.835 126.35 7.40512
    endloop
  endfacet
  facet normal 0 -1 0
    outer loop
      vertex 200.65 126.35 93.4095
      vertex 198.975 126.35 127.307
      vertex 190.491 126.35 126.359
    endloop
  endfacet
  facet normal 0 -1 0
    outer loop
      vertex 200.65 126.35 93.4095
      vertex 190.491 126.35 126.359
      vertex 182.578 126.35 125.316
    endloop
  endfacet
  facet normal 0 -1 0
    outer loop
      vertex 198.975 126.35 127.307
      vertex 200.65 126.35 93.4095
      vertex 207 126.35 93.4095
    endloop
  endfacet
  facet normal 0 -1 0
    outer loop
      vertex 200.65 126.35 93.4095
      vertex 182.578 126.35 125.316
      vertex 175.195 126.35 124.176
    endloop
  endfacet
  facet normal 0 -1 0
    outer loop
      vertex 200.65 126.35 93.4095
      vertex 175.195 126.35 124.176
      vertex 168.3 126.35 122.938
    endloop
  endfacet
  facet normal 0 -1 0
    outer loop
      vertex 200.65 126.35 93.4095
      vertex 168.3 126.35 122.938
      vertex 161.851 126.35 121.602
    endloop
  endfacet
  facet normal 0 -1 0
    outer loop
      vertex 198.975 126.35 127.307
      vertex 207 126.35 93.4095
      vertex 220.05 126.35 126.748
    endloop
  endfacet
  facet normal 0 -1 0
    outer loop
      vertex 200.65 126.35 93.4095
      vertex 161.851 126.35 121.602
      vertex 155.805 126.35 120.166
    endloop
  endfacet
  facet normal 0 -1 0
    outer loop
      vertex 200.65 126.35 70.9153
      vertex 155.805 126.35 120.166
      vertex 150.12 126.35 118.631
    endloop
  endfacet
  facet normal 0 -1 0
    outer loop
      vertex 200.65 126.35 70.9153
      vertex 150.12 126.35 118.631
      vertex 144.754 126.35 116.994
    endloop
  endfacet
  facet normal 0 -1 -0
    outer loop
      vertex 220.05 126.35 126.748
      vertex 207 126.35 93.4095
      vertex 238.929 126.35 124.507
    endloop
  endfacet
  facet normal 0 -1 0
    outer loop
      vertex 200.65 126.35 70.9153
      vertex 144.754 126.35 116.994
      vertex 139.666 126.35 115.256
    endloop
  endfacet
  facet normal 0 -1 0
    outer loop
      vertex 198.192 126.35 59.4692
      vertex 139.666 126.35 115.256
      vertex 134.814 126.35 113.416
    endloop
  endfacet
  facet normal 0 -1 0
    outer loop
      vertex 198.192 126.35 59.4692
      vertex 134.814 126.35 113.416
      vertex 130.154 126.35 111.473
    endloop
  endfacet
  facet normal 0 -1 -0
    outer loop
      vertex 238.929 126.35 124.507
      vertex 207 126.35 93.4095
      vertex 255.737 126.35 120.768
    endloop
  endfacet
  facet normal 0 -1 0
    outer loop
      vertex 198.192 126.35 59.4692
      vertex 130.154 126.35 111.473
      vertex 125.645 126.35 109.425
    endloop
  endfacet
  facet normal 0 -1 0
    outer loop
      vertex 198.192 126.35 59.4692
      vertex 125.645 126.35 109.425
      vertex 121.246 126.35 107.273
    endloop
  endfacet
  facet normal 0 -1 0
    outer loop
      vertex 198.192 126.35 59.4692
      vertex 121.246 126.35 107.273
      vertex 116.913 126.35 105.015
    endloop
  endfacet
  facet normal 0 -1 0
    outer loop
      vertex 198.192 126.35 59.4692
      vertex 116.913 126.35 105.015
      vertex 112.605 126.35 102.651
    endloop
  endfacet
  facet normal 0 -1 0
    outer loop
      vertex 207 126.35 70.9153
      vertex 255.737 126.35 120.768
      vertex 207 126.35 93.4095
    endloop
  endfacet
  facet normal 0 -1 0
    outer loop
      vertex 198.192 126.35 59.4692
      vertex 112.605 126.35 102.651
      vertex 108.28 126.35 100.179
    endloop
  endfacet
  facet normal 0 -1 0
    outer loop
      vertex 198.192 126.35 59.4692
      vertex 108.28 126.35 100.179
      vertex 103.896 126.35 97.6002
    endloop
  endfacet
  facet normal 0 -1 0
    outer loop
      vertex 198.192 126.35 59.4692
      vertex 103.896 126.35 97.6002
      vertex 99.4102 126.35 94.9122
    endloop
  endfacet
  facet normal 0 -1 -0
    outer loop
      vertex 255.737 126.35 120.768
      vertex 207 126.35 70.9153
      vertex 270.598 126.35 115.717
    endloop
  endfacet
  facet normal 0 -1 -0
    outer loop
      vertex 270.598 126.35 115.717
      vertex 207 126.35 70.9153
      vertex 283.639 126.35 109.537
    endloop
  endfacet
  facet normal 0 -1 0
    outer loop
      vertex 81.0297 126.35 78.6313
      vertex 99.4102 126.35 94.9122
      vertex 94.7811 126.35 92.1146
    endloop
  endfacet
  facet normal 0 -1 0
    outer loop
      vertex 85.3266 126.35 83.989
      vertex 94.7811 126.35 92.1146
      vertex 89.9667 126.35 89.2067
    endloop
  endfacet
  facet normal 0 -1 0
    outer loop
      vertex 81.0297 126.35 78.6313
      vertex 94.7811 126.35 92.1146
      vertex 85.3266 126.35 83.989
    endloop
  endfacet
  facet normal 0 -1 0
    outer loop
      vertex 198.192 126.35 59.4692
      vertex 99.4102 126.35 94.9122
      vertex 81.0297 126.35 78.6313
    endloop
  endfacet
  facet normal 0 -1 0
    outer loop
      vertex 198.192 126.35 59.4692
      vertex 81.0297 126.35 78.6313
      vertex 77.0647 126.35 73.1776
    endloop
  endfacet
  facet normal 0 -1 0
    outer loop
      vertex 155.805 126.35 120.166
      vertex 200.65 126.35 70.9153
      vertex 200.65 126.35 93.4095
    endloop
  endfacet
  facet normal 0 -1 0
    outer loop
      vertex 206.031 126.35 59.5733
      vertex 207 126.35 70.9153
      vertex 200.65 126.35 70.9153
    endloop
  endfacet
  facet normal 0 -1 0
    outer loop
      vertex 139.666 126.35 115.256
      vertex 198.192 126.35 59.4692
      vertex 200.65 126.35 70.9153
    endloop
  endfacet
  facet normal 0 -1 0
    outer loop
      vertex 198.192 126.35 59.4692
      vertex 77.0647 126.35 73.1776
      vertex 73.42 126.35 67.672
    endloop
  endfacet
  facet normal 0 -1 0
    outer loop
      vertex 140.459 126.35 22.3081
      vertex 73.42 126.35 67.672
      vertex 70.0843 126.35 62.1585
    endloop
  endfacet
  facet normal 0 -1 -0
    outer loop
      vertex 207 126.35 70.9153
      vertex 206.031 126.35 59.5733
      vertex 213.854 126.35 58.9153
    endloop
  endfacet
  facet normal 0 -1 0
    outer loop
      vertex 207 126.35 70.9153
      vertex 213.854 126.35 58.9153
      vertex 221.141 126.35 57.6043
    endloop
  endfacet
  facet normal 0 -1 0
    outer loop
      vertex 207 126.35 70.9153
      vertex 221.141 126.35 57.6043
      vertex 227.906 126.35 55.7148
    endloop
  endfacet
  facet normal 0 -1 0
    outer loop
      vertex 234.164 126.35 53.321
      vertex 207 126.35 70.9153
      vertex 227.906 126.35 55.7148
    endloop
  endfacet
  facet normal 0 -1 0
    outer loop
      vertex 207 126.35 70.9153
      vertex 234.164 126.35 53.321
      vertex 325.904 126.35 68.1767
    endloop
  endfacet
  facet normal 0 -1 0
    outer loop
      vertex 239.93 126.35 50.497
      vertex 325.904 126.35 68.1767
      vertex 234.164 126.35 53.321
    endloop
  endfacet
  facet normal 0 -1 0
    outer loop
      vertex 245.218 126.35 47.3172
      vertex 325.904 126.35 68.1767
      vertex 239.93 126.35 50.497
    endloop
  endfacet
  facet normal 0 -1 0
    outer loop
      vertex 250.043 126.35 43.8558
      vertex 325.904 126.35 68.1767
      vertex 245.218 126.35 47.3172
    endloop
  endfacet
  facet normal 0 -1 0
    outer loop
      vertex 254.419 126.35 40.1869
      vertex 325.904 126.35 68.1767
      vertex 250.043 126.35 43.8558
    endloop
  endfacet
  facet normal 0 -1 0
    outer loop
      vertex 258.361 126.35 36.385
      vertex 325.904 126.35 68.1767
      vertex 254.419 126.35 40.1869
    endloop
  endfacet
  facet normal 0 -1 0
    outer loop
      vertex 261.884 126.35 32.5241
      vertex 325.904 126.35 68.1767
      vertex 258.361 126.35 36.385
    endloop
  endfacet
  facet normal 0 -1 0
    outer loop
      vertex 265.002 126.35 28.6786
      vertex 325.904 126.35 68.1767
      vertex 261.884 126.35 32.5241
    endloop
  endfacet
  facet normal 0 -1 0
    outer loop
      vertex 267.73 126.35 24.9227
      vertex 325.904 126.35 68.1767
      vertex 265.002 126.35 28.6786
    endloop
  endfacet
  facet normal 0 -1 -0
    outer loop
      vertex 325.904 126.35 68.1767
      vertex 267.73 126.35 24.9227
      vertex 330.644 126.35 59.1049
    endloop
  endfacet
  facet normal 0 -1 0
    outer loop
      vertex 270.082 126.35 21.3306
      vertex 330.644 126.35 59.1049
      vertex 267.73 126.35 24.9227
    endloop
  endfacet
  facet normal 0 -1 -0
    outer loop
      vertex 330.644 126.35 59.1049
      vertex 270.082 126.35 21.3306
      vertex 334.438 126.35 50.1974
    endloop
  endfacet
  facet normal 0 -1 0
    outer loop
      vertex 272.073 126.35 17.9765
      vertex 334.438 126.35 50.1974
      vertex 270.082 126.35 21.3306
    endloop
  endfacet
  facet normal 0 -1 -0
    outer loop
      vertex 334.438 126.35 50.1974
      vertex 272.073 126.35 17.9765
      vertex 337.411 126.35 41.6387
    endloop
  endfacet
  facet normal 0 -1 0
    outer loop
      vertex 273.718 126.35 14.9348
      vertex 337.411 126.35 41.6387
      vertex 272.073 126.35 17.9765
    endloop
  endfacet
  facet normal 0 -1 0
    outer loop
      vertex 275.03 126.35 12.2797
      vertex 337.411 126.35 41.6387
      vertex 273.718 126.35 14.9348
    endloop
  endfacet
  facet normal 0 -1 -0
    outer loop
      vertex 337.411 126.35 41.6387
      vertex 275.03 126.35 12.2797
      vertex 339.688 126.35 33.6137
    endloop
  endfacet
  facet normal 0 -1 0
    outer loop
      vertex 276.026 126.35 10.0853
      vertex 339.688 126.35 33.6137
      vertex 275.03 126.35 12.2797
    endloop
  endfacet
  facet normal 0 -1 -0
    outer loop
      vertex 339.688 126.35 33.6137
      vertex 276.026 126.35 10.0853
      vertex 341.394 126.35 26.3069
    endloop
  endfacet
  facet normal 0 -1 0
    outer loop
      vertex 276.719 126.35 8.42599
      vertex 341.394 126.35 26.3069
      vertex 276.026 126.35 10.0853
    endloop
  endfacet
  facet normal 0 -1 0
    outer loop
      vertex 277.125 126.35 7.37596
      vertex 341.394 126.35 26.3069
      vertex 276.719 126.35 8.42599
    endloop
  endfacet
  facet normal 0 -1 0
    outer loop
      vertex 277.256 126.35 7.00945
      vertex 341.394 126.35 26.3069
      vertex 277.125 126.35 7.37596
    endloop
  endfacet
  facet normal 0 -1 -0
    outer loop
      vertex 341.394 126.35 26.3069
      vertex 277.256 126.35 7.00945
      vertex 342.653 126.35 19.9031
    endloop
  endfacet
  facet normal 0 -1 -0
    outer loop
      vertex 342.653 126.35 19.9031
      vertex 277.256 126.35 7.00945
      vertex 343.592 126.35 14.5867
    endloop
  endfacet
  facet normal 0 -1 -0
    outer loop
      vertex 343.592 126.35 14.5867
      vertex 277.256 126.35 7.00945
      vertex 344.334 126.35 10.5426
    endloop
  endfacet
  facet normal 0 -1 -0
    outer loop
      vertex 344.334 126.35 10.5426
      vertex 277.256 126.35 7.00945
      vertex 345.005 126.35 7.95526
    endloop
  endfacet
  facet normal 0 -1 -0
    outer loop
      vertex 345.005 126.35 7.95526
      vertex 277.256 126.35 7.00945
      vertex 345.731 126.35 7.00945
    endloop
  endfacet
  facet normal 0 -1 -0
    outer loop
      vertex 283.639 126.35 109.537
      vertex 207 126.35 70.9153
      vertex 294.984 126.35 102.414
    endloop
  endfacet
  facet normal 0 -1 -0
    outer loop
      vertex 294.984 126.35 102.414
      vertex 207 126.35 70.9153
      vertex 304.758 126.35 94.5313
    endloop
  endfacet
  facet normal 0 -1 -0
    outer loop
      vertex 304.758 126.35 94.5313
      vertex 207 126.35 70.9153
      vertex 313.086 126.35 86.0746
    endloop
  endfacet
  facet normal 0 -1 -0
    outer loop
      vertex 313.086 126.35 86.0746
      vertex 207 126.35 70.9153
      vertex 320.093 126.35 77.2281
    endloop
  endfacet
  facet normal 0 -1 -0
    outer loop
      vertex 320.093 126.35 77.2281
      vertex 207 126.35 70.9153
      vertex 325.904 126.35 68.1767
    endloop
  endfacet
  facet normal 0 1 -0
    outer loop
      vertex 207 132.7 96.7993
      vertex 198.975 132.7 127.307
      vertex 220.05 132.7 126.748
    endloop
  endfacet
  facet normal 0 1 -0
    outer loop
      vertex 200.65 132.7 96.7993
      vertex 198.975 132.7 127.307
      vertex 207 132.7 96.7993
    endloop
  endfacet
  facet normal 0 1 0
    outer loop
      vertex 207 132.7 96.7993
      vertex 220.05 132.7 126.748
      vertex 238.929 132.7 124.507
    endloop
  endfacet
  facet normal 0 1 0
    outer loop
      vertex 198.975 132.7 127.307
      vertex 200.65 132.7 96.7993
      vertex 190.491 132.7 126.359
    endloop
  endfacet
  facet normal 0 1 0
    outer loop
      vertex 190.491 132.7 126.359
      vertex 200.65 132.7 96.7993
      vertex 182.578 132.7 125.316
    endloop
  endfacet
  facet normal 0 1 0
    outer loop
      vertex 175.195 132.7 124.176
      vertex 200.65 132.7 96.7993
      vertex 168.3 132.7 122.938
    endloop
  endfacet
  facet normal 0 1 0
    outer loop
      vertex 207 132.7 96.7993
      vertex 238.929 132.7 124.507
      vertex 255.737 132.7 120.768
    endloop
  endfacet
  facet normal 0 1 0
    outer loop
      vertex 182.578 132.7 125.316
      vertex 200.65 132.7 96.7993
      vertex 175.195 132.7 124.176
    endloop
  endfacet
  facet normal 0 1 0
    outer loop
      vertex 168.3 132.7 122.938
      vertex 200.65 132.7 96.7993
      vertex 161.851 132.7 121.602
    endloop
  endfacet
  facet normal 0 1 0
    outer loop
      vertex 161.851 132.7 121.602
      vertex 177.677 132.7 54.8924
      vertex 155.805 132.7 120.166
    endloop
  endfacet
  facet normal 0 1 0
    outer loop
      vertex 234.164 132.7 53.321
      vertex 255.737 132.7 120.768
      vertex 270.598 132.7 115.717
    endloop
  endfacet
  facet normal 0 1 -0
    outer loop
      vertex 177.677 132.7 54.8924
      vertex 161.851 132.7 121.602
      vertex 200.65 132.7 96.7993
    endloop
  endfacet
  facet normal 0 1 -0
    outer loop
      vertex 171.8 132.7 52.2234
      vertex 150.12 132.7 118.631
      vertex 177.677 132.7 54.8924
    endloop
  endfacet
  facet normal 0 1 0
    outer loop
      vertex 150.12 132.7 118.631
      vertex 171.8 132.7 52.2234
      vertex 144.754 132.7 116.994
    endloop
  endfacet
  facet normal 0 1 0
    outer loop
      vertex 239.93 132.7 50.497
      vertex 270.598 132.7 115.717
      vertex 283.639 132.7 109.537
    endloop
  endfacet
  facet normal 0 1 0
    outer loop
      vertex 155.805 132.7 120.166
      vertex 177.677 132.7 54.8924
      vertex 150.12 132.7 118.631
    endloop
  endfacet
  facet normal 0 1 -0
    outer loop
      vertex 166.386 132.7 49.1219
      vertex 139.666 132.7 115.256
      vertex 171.8 132.7 52.2234
    endloop
  endfacet
  facet normal 0 1 0
    outer loop
      vertex 139.666 132.7 115.256
      vertex 166.386 132.7 49.1219
      vertex 134.814 132.7 113.416
    endloop
  endfacet
  facet normal 0 1 0
    outer loop
      vertex 134.814 132.7 113.416
      vertex 166.386 132.7 49.1219
      vertex 130.154 132.7 111.473
    endloop
  endfacet
  facet normal 0 1 0
    outer loop
      vertex 250.043 132.7 43.8558
      vertex 283.639 132.7 109.537
      vertex 294.984 132.7 102.414
    endloop
  endfacet
  facet normal 0 1 0
    outer loop
      vertex 130.154 132.7 111.473
      vertex 166.386 132.7 49.1219
      vertex 125.645 132.7 109.425
    endloop
  endfacet
  facet normal 0 1 0
    outer loop
      vertex 125.645 132.7 109.425
      vertex 161.422 132.7 45.6712
      vertex 121.246 132.7 107.273
    endloop
  endfacet
  facet normal 0 1 0
    outer loop
      vertex 144.754 132.7 116.994
      vertex 171.8 132.7 52.2234
      vertex 139.666 132.7 115.256
    endloop
  endfacet
  facet normal 0 1 0
    outer loop
      vertex 254.419 132.7 40.1869
      vertex 294.984 132.7 102.414
      vertex 304.758 132.7 94.5313
    endloop
  endfacet
  facet normal 0 1 0
    outer loop
      vertex 258.361 132.7 36.385
      vertex 304.758 132.7 94.5313
      vertex 313.086 132.7 86.0746
    endloop
  endfacet
  facet normal 0 1 0
    outer loop
      vertex 261.884 132.7 32.5241
      vertex 313.086 132.7 86.0746
      vertex 320.093 132.7 77.2281
    endloop
  endfacet
  facet normal 0 1 0
    outer loop
      vertex 265.002 132.7 28.6786
      vertex 320.093 132.7 77.2281
      vertex 325.904 132.7 68.1767
    endloop
  endfacet
  facet normal 0 1 0
    outer loop
      vertex 270.598 132.7 115.717
      vertex 239.93 132.7 50.497
      vertex 234.164 132.7 53.321
    endloop
  endfacet
  facet normal 0 1 0
    outer loop
      vertex 267.73 132.7 24.9227
      vertex 325.904 132.7 68.1767
      vertex 330.644 132.7 59.1049
    endloop
  endfacet
  facet normal 0 1 0
    outer loop
      vertex 207 132.7 96.7993
      vertex 213.854 132.7 58.9153
      vertex 207 132.7 59.4918
    endloop
  endfacet
  facet normal 0 1 0
    outer loop
      vertex 207 132.7 96.7993
      vertex 221.141 132.7 57.6043
      vertex 213.854 132.7 58.9153
    endloop
  endfacet
  facet normal 0 1 0
    outer loop
      vertex 207 132.7 96.7993
      vertex 227.906 132.7 55.7148
      vertex 221.141 132.7 57.6043
    endloop
  endfacet
  facet normal 0 1 0
    outer loop
      vertex 255.737 132.7 120.768
      vertex 227.906 132.7 55.7148
      vertex 207 132.7 96.7993
    endloop
  endfacet
  facet normal 0 1 0
    outer loop
      vertex 255.737 132.7 120.768
      vertex 234.164 132.7 53.321
      vertex 227.906 132.7 55.7148
    endloop
  endfacet
  facet normal 0 1 0
    outer loop
      vertex 270.082 132.7 21.3306
      vertex 330.644 132.7 59.1049
      vertex 334.438 132.7 50.1974
    endloop
  endfacet
  facet normal 0 1 0
    outer loop
      vertex 283.639 132.7 109.537
      vertex 245.218 132.7 47.3172
      vertex 239.93 132.7 50.497
    endloop
  endfacet
  facet normal 0 1 0
    outer loop
      vertex 283.639 132.7 109.537
      vertex 250.043 132.7 43.8558
      vertex 245.218 132.7 47.3172
    endloop
  endfacet
  facet normal 0 1 0
    outer loop
      vertex 272.073 132.7 17.9765
      vertex 334.438 132.7 50.1974
      vertex 337.411 132.7 41.6387
    endloop
  endfacet
  facet normal 0 1 0
    outer loop
      vertex 294.984 132.7 102.414
      vertex 254.419 132.7 40.1869
      vertex 250.043 132.7 43.8558
    endloop
  endfacet
  facet normal 0 1 0
    outer loop
      vertex 304.758 132.7 94.5313
      vertex 258.361 132.7 36.385
      vertex 254.419 132.7 40.1869
    endloop
  endfacet
  facet normal 0 1 0
    outer loop
      vertex 275.03 132.7 12.2797
      vertex 337.411 132.7 41.6387
      vertex 339.688 132.7 33.6137
    endloop
  endfacet
  facet normal 0 1 0
    outer loop
      vertex 313.086 132.7 86.0746
      vertex 261.884 132.7 32.5241
      vertex 258.361 132.7 36.385
    endloop
  endfacet
  facet normal 0 1 0
    outer loop
      vertex 320.093 132.7 77.2281
      vertex 265.002 132.7 28.6786
      vertex 261.884 132.7 32.5241
    endloop
  endfacet
  facet normal 0 1 0
    outer loop
      vertex 276.026 132.7 10.0853
      vertex 339.688 132.7 33.6137
      vertex 341.394 132.7 26.3069
    endloop
  endfacet
  facet normal 0 1 0
    outer loop
      vertex 325.904 132.7 68.1767
      vertex 267.73 132.7 24.9227
      vertex 265.002 132.7 28.6786
    endloop
  endfacet
  facet normal 0 1 0
    outer loop
      vertex 330.644 132.7 59.1049
      vertex 270.082 132.7 21.3306
      vertex 267.73 132.7 24.9227
    endloop
  endfacet
  facet normal 0 1 0
    outer loop
      vertex 277.256 132.7 7.00945
      vertex 341.394 132.7 26.3069
      vertex 342.653 132.7 19.9031
    endloop
  endfacet
  facet normal 0 1 0
    outer loop
      vertex 334.438 132.7 50.1974
      vertex 272.073 132.7 17.9765
      vertex 270.082 132.7 21.3306
    endloop
  endfacet
  facet normal 0 1 0
    outer loop
      vertex 337.411 132.7 41.6387
      vertex 273.718 132.7 14.9348
      vertex 272.073 132.7 17.9765
    endloop
  endfacet
  facet normal 0 1 0
    outer loop
      vertex 277.256 132.7 7.00945
      vertex 342.653 132.7 19.9031
      vertex 343.592 132.7 14.5867
    endloop
  endfacet
  facet normal 0 1 0
    outer loop
      vertex 337.411 132.7 41.6387
      vertex 275.03 132.7 12.2797
      vertex 273.718 132.7 14.9348
    endloop
  endfacet
  facet normal 0 1 0
    outer loop
      vertex 277.256 132.7 7.00945
      vertex 343.592 132.7 14.5867
      vertex 344.334 132.7 10.5426
    endloop
  endfacet
  facet normal 0 1 0
    outer loop
      vertex 339.688 132.7 33.6137
      vertex 276.026 132.7 10.0853
      vertex 275.03 132.7 12.2797
    endloop
  endfacet
  facet normal 0 1 0
    outer loop
      vertex 341.394 132.7 26.3069
      vertex 276.719 132.7 8.42599
      vertex 276.026 132.7 10.0853
    endloop
  endfacet
  facet normal 0 1 0
    outer loop
      vertex 277.256 132.7 7.00945
      vertex 344.334 132.7 10.5426
      vertex 345.005 132.7 7.95526
    endloop
  endfacet
  facet normal 0 1 0
    outer loop
      vertex 341.394 132.7 26.3069
      vertex 277.125 132.7 7.37596
      vertex 276.719 132.7 8.42599
    endloop
  endfacet
  facet normal 0 1 0
    outer loop
      vertex 277.256 132.7 7.00945
      vertex 345.005 132.7 7.95526
      vertex 345.731 132.7 7.00945
    endloop
  endfacet
  facet normal 0 1 0
    outer loop
      vertex 341.394 132.7 26.3069
      vertex 277.256 132.7 7.00945
      vertex 277.125 132.7 7.37596
    endloop
  endfacet
  facet normal 0 1 0
    outer loop
      vertex 121.246 132.7 107.273
      vertex 161.422 132.7 45.6712
      vertex 116.913 132.7 105.015
    endloop
  endfacet
  facet normal 0 1 -0
    outer loop
      vertex 156.897 132.7 41.9548
      vertex 116.913 132.7 105.015
      vertex 161.422 132.7 45.6712
    endloop
  endfacet
  facet normal 0 1 0
    outer loop
      vertex 116.913 132.7 105.015
      vertex 156.897 132.7 41.9548
      vertex 112.605 132.7 102.651
    endloop
  endfacet
  facet normal 0 1 0
    outer loop
      vertex 112.605 132.7 102.651
      vertex 156.897 132.7 41.9548
      vertex 108.28 132.7 100.179
    endloop
  endfacet
  facet normal 0 1 -0
    outer loop
      vertex 152.8 132.7 38.0561
      vertex 108.28 132.7 100.179
      vertex 156.897 132.7 41.9548
    endloop
  endfacet
  facet normal 0 1 0
    outer loop
      vertex 108.28 132.7 100.179
      vertex 152.8 132.7 38.0561
      vertex 103.896 132.7 97.6002
    endloop
  endfacet
  facet normal 0 1 -0
    outer loop
      vertex 149.119 132.7 34.0587
      vertex 99.4102 132.7 94.9122
      vertex 152.8 132.7 38.0561
    endloop
  endfacet
  facet normal 0 1 0
    outer loop
      vertex 99.4102 132.7 94.9122
      vertex 149.119 132.7 34.0587
      vertex 94.7811 132.7 92.1146
    endloop
  endfacet
  facet normal -0 1 0
    outer loop
      vertex 85.3266 132.7 83.989
      vertex 94.7811 132.7 92.1146
      vertex 149.119 132.7 34.0587
    endloop
  endfacet
  facet normal 0 1 0
    outer loop
      vertex 198.192 132.7 59.4692
      vertex 200.65 132.7 96.7993
      vertex 200.65 132.7 59.5019
    endloop
  endfacet
  facet normal 0 1 0
    outer loop
      vertex 190.861 132.7 58.5988
      vertex 200.65 132.7 96.7993
      vertex 198.192 132.7 59.4692
    endloop
  endfacet
  facet normal 0 1 0
    outer loop
      vertex 184.026 132.7 57.0453
      vertex 200.65 132.7 96.7993
      vertex 190.861 132.7 58.5988
    endloop
  endfacet
  facet normal 0 1 0
    outer loop
      vertex 177.677 132.7 54.8924
      vertex 200.65 132.7 96.7993
      vertex 184.026 132.7 57.0453
    endloop
  endfacet
  facet normal 0 1 -0
    outer loop
      vertex 161.422 132.7 45.6712
      vertex 125.645 132.7 109.425
      vertex 166.386 132.7 49.1219
    endloop
  endfacet
  facet normal 0 1 0
    outer loop
      vertex 103.896 132.7 97.6002
      vertex 152.8 132.7 38.0561
      vertex 99.4102 132.7 94.9122
    endloop
  endfacet
  facet normal 0 1 0
    outer loop
      vertex 94.7811 132.7 92.1146
      vertex 85.3266 132.7 83.989
      vertex 89.9667 132.7 89.2067
    endloop
  endfacet
  facet normal 0 1 -0
    outer loop
      vertex 145.843 132.7 30.0459
      vertex 85.3266 132.7 83.989
      vertex 149.119 132.7 34.0587
    endloop
  endfacet
  facet normal 0 1 0
    outer loop
      vertex 85.3266 132.7 83.989
      vertex 145.843 132.7 30.0459
      vertex 81.0297 132.7 78.6313
    endloop
  endfacet
  facet normal 0 1 0
    outer loop
      vertex 81.0297 132.7 78.6313
      vertex 145.843 132.7 30.0459
      vertex 77.0647 132.7 73.1776
    endloop
  endfacet
  facet normal 0 1 -0
    outer loop
      vertex 142.96 132.7 26.1012
      vertex 77.0647 132.7 73.1776
      vertex 145.843 132.7 30.0459
    endloop
  endfacet
  facet normal 0 1 0
    outer loop
      vertex 77.0647 132.7 73.1776
      vertex 142.96 132.7 26.1012
      vertex 73.42 132.7 67.672
    endloop
  endfacet
  facet normal 0 1 -0
    outer loop
      vertex 140.459 132.7 22.3081
      vertex 73.42 132.7 67.672
      vertex 142.96 132.7 26.1012
    endloop
  endfacet
  facet normal 0 1 0
    outer loop
      vertex 73.42 132.7 67.672
      vertex 140.459 132.7 22.3081
      vertex 70.0843 132.7 62.1585
    endloop
  endfacet
  facet normal 0 1 -0
    outer loop
      vertex 138.329 132.7 18.75
      vertex 70.0843 132.7 62.1585
      vertex 140.459 132.7 22.3081
    endloop
  endfacet
  facet normal 0 1 0
    outer loop
      vertex 70.0843 132.7 62.1585
      vertex 138.329 132.7 18.75
      vertex 67.0463 132.7 56.6813
    endloop
  endfacet
  facet normal 0 1 -0
    outer loop
      vertex 136.558 132.7 15.5103
      vertex 67.0463 132.7 56.6813
      vertex 138.329 132.7 18.75
    endloop
  endfacet
  facet normal 0 1 0
    outer loop
      vertex 67.0463 132.7 56.6813
      vertex 136.558 132.7 15.5103
      vertex 64.2946 132.7 51.2845
    endloop
  endfacet
  facet normal 0 1 -0
    outer loop
      vertex 135.134 132.7 12.6725
      vertex 64.2946 132.7 51.2845
      vertex 136.558 132.7 15.5103
    endloop
  endfacet
  facet normal 0 1 0
    outer loop
      vertex 64.2946 132.7 51.2845
      vertex 135.134 132.7 12.6725
      vertex 61.8178 132.7 46.012
    endloop
  endfacet
  facet normal 0 1 -0
    outer loop
      vertex 134.047 132.7 10.3201
      vertex 61.8178 132.7 46.012
      vertex 135.134 132.7 12.6725
    endloop
  endfacet
  facet normal 0 1 0
    outer loop
      vertex 61.8178 132.7 46.012
      vertex 134.047 132.7 10.3201
      vertex 59.6045 132.7 40.908
    endloop
  endfacet
  facet normal 0 1 -0
    outer loop
      vertex 133.284 132.7 8.53648
      vertex 59.6045 132.7 40.908
      vertex 134.047 132.7 10.3201
    endloop
  endfacet
  facet normal 0 1 0
    outer loop
      vertex 59.6045 132.7 40.908
      vertex 133.284 132.7 8.53648
      vertex 57.6434 132.7 36.0166
    endloop
  endfacet
  facet normal 0 1 -0
    outer loop
      vertex 132.835 132.7 7.40512
      vertex 57.6434 132.7 36.0166
      vertex 133.284 132.7 8.53648
    endloop
  endfacet
  facet normal 0 1 -0
    outer loop
      vertex 132.688 132.7 7.00945
      vertex 57.6434 132.7 36.0166
      vertex 132.835 132.7 7.40512
    endloop
  endfacet
  facet normal 0 1 0
    outer loop
      vertex 57.6434 132.7 36.0166
      vertex 132.688 132.7 7.00945
      vertex 55.923 132.7 31.3818
    endloop
  endfacet
  facet normal 0 1 0
    outer loop
      vertex 55.923 132.7 31.3818
      vertex 132.688 132.7 7.00945
      vertex 54.4321 132.7 27.0478
    endloop
  endfacet
  facet normal 0 1 0
    outer loop
      vertex 54.4321 132.7 27.0478
      vertex 132.688 132.7 7.00945
      vertex 53.1591 132.7 23.0586
    endloop
  endfacet
  facet normal 0 1 0
    outer loop
      vertex 53.1591 132.7 23.0586
      vertex 132.688 132.7 7.00945
      vertex 52.0928 132.7 19.4582
    endloop
  endfacet
  facet normal 0 1 0
    outer loop
      vertex 52.0928 132.7 19.4582
      vertex 132.688 132.7 7.00945
      vertex 51.2217 132.7 16.2908
    endloop
  endfacet
  facet normal 0 1 0
    outer loop
      vertex 51.2217 132.7 16.2908
      vertex 132.688 132.7 7.00945
      vertex 50.5346 132.7 13.6005
    endloop
  endfacet
  facet normal 0 1 0
    outer loop
      vertex 50.5346 132.7 13.6005
      vertex 132.688 132.7 7.00945
      vertex 50.0199 132.7 11.4312
    endloop
  endfacet
  facet normal 0 1 0
    outer loop
      vertex 50.0199 132.7 11.4312
      vertex 132.688 132.7 7.00945
      vertex 49.6664 132.7 9.82722
    endloop
  endfacet
  facet normal 0 1 0
    outer loop
      vertex 49.6664 132.7 9.82722
      vertex 132.688 132.7 7.00945
      vertex 49.4626 132.7 8.83249
    endloop
  endfacet
  facet normal 0 1 0
    outer loop
      vertex 49.4626 132.7 8.83249
      vertex 132.688 132.7 7.00945
      vertex 49.3972 132.7 8.49112
    endloop
  endfacet
  facet normal 0.117876 0 0.993028
    outer loop
      vertex 220.05 132.7 126.748
      vertex 238.929 126.35 124.507
      vertex 238.929 132.7 124.507
    endloop
  endfacet
  facet normal 0.117876 0 0.993028
    outer loop
      vertex 238.929 126.35 124.507
      vertex 220.05 132.7 126.748
      vertex 220.05 126.35 126.748
    endloop
  endfacet
  facet normal 0.217146 0 0.976139
    outer loop
      vertex 238.929 132.7 124.507
      vertex 255.737 126.35 120.768
      vertex 255.737 132.7 120.768
    endloop
  endfacet
  facet normal 0.217146 0 0.976139
    outer loop
      vertex 255.737 126.35 120.768
      vertex 238.929 132.7 124.507
      vertex 238.929 126.35 124.507
    endloop
  endfacet
  facet normal 0.321803 0 0.946807
    outer loop
      vertex 255.737 132.7 120.768
      vertex 270.598 126.35 115.717
      vertex 270.598 132.7 115.717
    endloop
  endfacet
  facet normal 0.321803 0 0.946807
    outer loop
      vertex 270.598 126.35 115.717
      vertex 255.737 132.7 120.768
      vertex 255.737 126.35 120.768
    endloop
  endfacet
  facet normal 0.428238 0 0.903666
    outer loop
      vertex 270.598 132.7 115.717
      vertex 283.639 126.35 109.537
      vertex 283.639 132.7 109.537
    endloop
  endfacet
  facet normal 0.428238 0 0.903666
    outer loop
      vertex 283.639 126.35 109.537
      vertex 270.598 132.7 115.717
      vertex 270.598 126.35 115.717
    endloop
  endfacet
  facet normal 0.531736 0 0.84691
    outer loop
      vertex 283.639 132.7 109.537
      vertex 294.984 126.35 102.414
      vertex 294.984 132.7 102.414
    endloop
  endfacet
  facet normal 0.531736 0 0.84691
    outer loop
      vertex 294.984 126.35 102.414
      vertex 283.639 132.7 109.537
      vertex 283.639 126.35 109.537
    endloop
  endfacet
  facet normal 0.627774 0 0.778396
    outer loop
      vertex 294.984 132.7 102.414
      vertex 304.758 126.35 94.5313
      vertex 304.758 132.7 94.5313
    endloop
  endfacet
  facet normal 0.627774 0 0.778396
    outer loop
      vertex 304.758 126.35 94.5313
      vertex 294.984 132.7 102.414
      vertex 294.984 126.35 102.414
    endloop
  endfacet
  facet normal 0.712508 -0 0.701664
    outer loop
      vertex 304.758 126.35 94.5313
      vertex 313.086 132.7 86.0746
      vertex 304.758 132.7 94.5313
    endloop
  endfacet
  facet normal 0.712508 0 0.701664
    outer loop
      vertex 313.086 132.7 86.0746
      vertex 304.758 126.35 94.5313
      vertex 313.086 126.35 86.0746
    endloop
  endfacet
  facet normal 0.783894 -0 0.620895
    outer loop
      vertex 313.086 126.35 86.0746
      vertex 320.093 132.7 77.2281
      vertex 313.086 132.7 86.0746
    endloop
  endfacet
  facet normal 0.783894 0 0.620895
    outer loop
      vertex 320.093 132.7 77.2281
      vertex 313.086 126.35 86.0746
      vertex 320.093 126.35 77.2281
    endloop
  endfacet
  facet normal 0.841506 -0 0.540247
    outer loop
      vertex 320.093 126.35 77.2281
      vertex 325.904 132.7 68.1767
      vertex 320.093 132.7 77.2281
    endloop
  endfacet
  facet normal 0.841506 0 0.540247
    outer loop
      vertex 325.904 132.7 68.1767
      vertex 320.093 126.35 77.2281
      vertex 325.904 126.35 68.1767
    endloop
  endfacet
  facet normal 0.886309 -0 0.463095
    outer loop
      vertex 325.904 126.35 68.1767
      vertex 330.644 132.7 59.1049
      vertex 325.904 132.7 68.1767
    endloop
  endfacet
  facet normal 0.886309 0 0.463095
    outer loop
      vertex 330.644 132.7 59.1049
      vertex 325.904 126.35 68.1767
      vertex 330.644 126.35 59.1049
    endloop
  endfacet
  facet normal 0.920022 -0 0.391868
    outer loop
      vertex 330.644 126.35 59.1049
      vertex 334.438 132.7 50.1974
      vertex 330.644 132.7 59.1049
    endloop
  endfacet
  facet normal 0.920022 0 0.391868
    outer loop
      vertex 334.438 132.7 50.1974
      vertex 330.644 126.35 59.1049
      vertex 334.438 126.35 50.1974
    endloop
  endfacet
  facet normal 0.944632 -0 0.328133
    outer loop
      vertex 334.438 126.35 50.1974
      vertex 337.411 132.7 41.6387
      vertex 334.438 132.7 50.1974
    endloop
  endfacet
  facet normal 0.944632 0 0.328133
    outer loop
      vertex 337.411 132.7 41.6387
      vertex 334.438 126.35 50.1974
      vertex 337.411 126.35 41.6387
    endloop
  endfacet
  facet normal 0.962024 -0 0.272963
    outer loop
      vertex 337.411 126.35 41.6387
      vertex 339.688 132.7 33.6137
      vertex 337.411 132.7 41.6387
    endloop
  endfacet
  facet normal 0.962024 0 0.272963
    outer loop
      vertex 339.688 132.7 33.6137
      vertex 337.411 126.35 41.6387
      vertex 339.688 126.35 33.6137
    endloop
  endfacet
  facet normal 0.973809 -0 0.227366
    outer loop
      vertex 339.688 126.35 33.6137
      vertex 341.394 132.7 26.3069
      vertex 339.688 132.7 33.6137
    endloop
  endfacet
  facet normal 0.973809 0 0.227366
    outer loop
      vertex 341.394 132.7 26.3069
      vertex 339.688 126.35 33.6137
      vertex 341.394 126.35 26.3069
    endloop
  endfacet
  facet normal 0.981217 -0 0.192909
    outer loop
      vertex 341.394 126.35 26.3069
      vertex 342.653 132.7 19.9031
      vertex 341.394 132.7 26.3069
    endloop
  endfacet
  facet normal 0.981217 0 0.192909
    outer loop
      vertex 342.653 132.7 19.9031
      vertex 341.394 126.35 26.3069
      vertex 342.653 126.35 19.9031
    endloop
  endfacet
  facet normal 0.984758 -0 0.173931
    outer loop
      vertex 342.653 126.35 19.9031
      vertex 343.592 132.7 14.5867
      vertex 342.653 132.7 19.9031
    endloop
  endfacet
  facet normal 0.984758 0 0.173931
    outer loop
      vertex 343.592 132.7 14.5867
      vertex 342.653 126.35 19.9031
      vertex 343.592 126.35 14.5867
    endloop
  endfacet
  facet normal 0.983581 -0 0.180465
    outer loop
      vertex 343.592 126.35 14.5867
      vertex 344.334 132.7 10.5426
      vertex 343.592 132.7 14.5867
    endloop
  endfacet
  facet normal 0.983581 0 0.180465
    outer loop
      vertex 344.334 132.7 10.5426
      vertex 343.592 126.35 14.5867
      vertex 344.334 126.35 10.5426
    endloop
  endfacet
  facet normal 0.967978 -0 0.251035
    outer loop
      vertex 344.334 126.35 10.5426
      vertex 345.005 132.7 7.95526
      vertex 344.334 132.7 10.5426
    endloop
  endfacet
  facet normal 0.967978 0 0.251035
    outer loop
      vertex 345.005 132.7 7.95526
      vertex 344.334 126.35 10.5426
      vertex 345.005 126.35 7.95526
    endloop
  endfacet
  facet normal 0.79325 -0 0.608896
    outer loop
      vertex 345.005 126.35 7.95526
      vertex 345.731 132.7 7.00945
      vertex 345.005 132.7 7.95526
    endloop
  endfacet
  facet normal 0.79325 0 0.608896
    outer loop
      vertex 345.731 132.7 7.00945
      vertex 345.005 126.35 7.95526
      vertex 345.731 126.35 7.00945
    endloop
  endfacet
  facet normal 0 0 -1
    outer loop
      vertex 277.256 126.35 7.00945
      vertex 345.731 132.7 7.00945
      vertex 345.731 126.35 7.00945
    endloop
  endfacet
  facet normal -0 0 -1
    outer loop
      vertex 345.731 132.7 7.00945
      vertex 277.256 126.35 7.00945
      vertex 277.256 132.7 7.00945
    endloop
  endfacet
  facet normal -0.941658 0 -0.336572
    outer loop
      vertex 277.256 126.35 7.00945
      vertex 277.125 132.7 7.37596
      vertex 277.256 132.7 7.00945
    endloop
  endfacet
  facet normal -0.941658 -0 -0.336572
    outer loop
      vertex 277.125 132.7 7.37596
      vertex 277.256 126.35 7.00945
      vertex 277.125 126.35 7.37596
    endloop
  endfacet
  facet normal -0.932707 0 -0.360636
    outer loop
      vertex 277.125 126.35 7.37596
      vertex 276.719 132.7 8.42599
      vertex 277.125 132.7 7.37596
    endloop
  endfacet
  facet normal -0.932707 -0 -0.360636
    outer loop
      vertex 276.719 132.7 8.42599
      vertex 277.125 126.35 7.37596
      vertex 276.719 126.35 8.42599
    endloop
  endfacet
  facet normal -0.922757 0 -0.385383
    outer loop
      vertex 276.719 126.35 8.42599
      vertex 276.026 132.7 10.0853
      vertex 276.719 132.7 8.42599
    endloop
  endfacet
  facet normal -0.922757 -0 -0.385383
    outer loop
      vertex 276.026 132.7 10.0853
      vertex 276.719 126.35 8.42599
      vertex 276.026 126.35 10.0853
    endloop
  endfacet
  facet normal -0.910594 0 -0.413303
    outer loop
      vertex 276.026 126.35 10.0853
      vertex 275.03 132.7 12.2797
      vertex 276.026 132.7 10.0853
    endloop
  endfacet
  facet normal -0.910594 -0 -0.413303
    outer loop
      vertex 275.03 132.7 12.2797
      vertex 276.026 126.35 10.0853
      vertex 275.03 126.35 12.2797
    endloop
  endfacet
  facet normal -0.896518 0 -0.443008
    outer loop
      vertex 275.03 126.35 12.2797
      vertex 273.718 132.7 14.9348
      vertex 275.03 132.7 12.2797
    endloop
  endfacet
  facet normal -0.896518 -0 -0.443008
    outer loop
      vertex 273.718 132.7 14.9348
      vertex 275.03 126.35 12.2797
      vertex 273.718 126.35 14.9348
    endloop
  endfacet
  facet normal -0.879605 0 -0.475705
    outer loop
      vertex 273.718 126.35 14.9348
      vertex 272.073 132.7 17.9765
      vertex 273.718 132.7 14.9348
    endloop
  endfacet
  facet normal -0.879605 -0 -0.475705
    outer loop
      vertex 272.073 132.7 17.9765
      vertex 273.718 126.35 14.9348
      vertex 272.073 126.35 17.9765
    endloop
  endfacet
  facet normal -0.859911 0 -0.510445
    outer loop
      vertex 272.073 126.35 17.9765
      vertex 270.082 132.7 21.3306
      vertex 272.073 132.7 17.9765
    endloop
  endfacet
  facet normal -0.859911 -0 -0.510445
    outer loop
      vertex 270.082 132.7 21.3306
      vertex 272.073 126.35 17.9765
      vertex 270.082 126.35 21.3306
    endloop
  endfacet
  facet normal -0.836615 0 -0.547791
    outer loop
      vertex 270.082 126.35 21.3306
      vertex 267.73 132.7 24.9227
      vertex 270.082 132.7 21.3306
    endloop
  endfacet
  facet normal -0.836615 -0 -0.547791
    outer loop
      vertex 267.73 132.7 24.9227
      vertex 270.082 126.35 21.3306
      vertex 267.73 126.35 24.9227
    endloop
  endfacet
  facet normal -0.809101 0 -0.587669
    outer loop
      vertex 267.73 126.35 24.9227
      vertex 265.002 132.7 28.6786
      vertex 267.73 132.7 24.9227
    endloop
  endfacet
  facet normal -0.809101 -0 -0.587669
    outer loop
      vertex 265.002 132.7 28.6786
      vertex 267.73 126.35 24.9227
      vertex 265.002 126.35 28.6786
    endloop
  endfacet
  facet normal -0.776753 0 -0.629805
    outer loop
      vertex 265.002 126.35 28.6786
      vertex 261.884 132.7 32.5241
      vertex 265.002 132.7 28.6786
    endloop
  endfacet
  facet normal -0.776753 -0 -0.629805
    outer loop
      vertex 261.884 132.7 32.5241
      vertex 265.002 126.35 28.6786
      vertex 261.884 126.35 32.5241
    endloop
  endfacet
  facet normal -0.738692 0 -0.674043
    outer loop
      vertex 261.884 126.35 32.5241
      vertex 258.361 132.7 36.385
      vertex 261.884 132.7 32.5241
    endloop
  endfacet
  facet normal -0.738692 -0 -0.674043
    outer loop
      vertex 258.361 132.7 36.385
      vertex 261.884 126.35 32.5241
      vertex 258.361 126.35 36.385
    endloop
  endfacet
  facet normal -0.6942 0 -0.719782
    outer loop
      vertex 254.419 126.35 40.1869
      vertex 258.361 132.7 36.385
      vertex 258.361 126.35 36.385
    endloop
  endfacet
  facet normal -0.6942 0 -0.719782
    outer loop
      vertex 258.361 132.7 36.385
      vertex 254.419 126.35 40.1869
      vertex 254.419 132.7 40.1869
    endloop
  endfacet
  facet normal -0.642479 0 -0.766303
    outer loop
      vertex 250.043 126.35 43.8558
      vertex 254.419 132.7 40.1869
      vertex 254.419 126.35 40.1869
    endloop
  endfacet
  facet normal -0.642479 0 -0.766303
    outer loop
      vertex 254.419 132.7 40.1869
      vertex 250.043 126.35 43.8558
      vertex 250.043 132.7 43.8558
    endloop
  endfacet
  facet normal -0.582906 0 -0.812539
    outer loop
      vertex 245.218 126.35 47.3172
      vertex 250.043 132.7 43.8558
      vertex 250.043 126.35 43.8558
    endloop
  endfacet
  facet normal -0.582906 0 -0.812539
    outer loop
      vertex 250.043 132.7 43.8558
      vertex 245.218 126.35 47.3172
      vertex 245.218 132.7 47.3172
    endloop
  endfacet
  facet normal -0.51533 0 -0.856992
    outer loop
      vertex 239.93 126.35 50.497
      vertex 245.218 132.7 47.3172
      vertex 245.218 126.35 47.3172
    endloop
  endfacet
  facet normal -0.51533 0 -0.856992
    outer loop
      vertex 245.218 132.7 47.3172
      vertex 239.93 126.35 50.497
      vertex 239.93 132.7 50.497
    endloop
  endfacet
  facet normal -0.439847 0 -0.898073
    outer loop
      vertex 234.164 126.35 53.321
      vertex 239.93 132.7 50.497
      vertex 239.93 126.35 50.497
    endloop
  endfacet
  facet normal -0.439847 0 -0.898073
    outer loop
      vertex 239.93 132.7 50.497
      vertex 234.164 126.35 53.321
      vertex 234.164 132.7 53.321
    endloop
  endfacet
  facet normal -0.357272 0 -0.934
    outer loop
      vertex 227.906 126.35 55.7148
      vertex 234.164 132.7 53.321
      vertex 234.164 126.35 53.321
    endloop
  endfacet
  facet normal -0.357272 0 -0.934
    outer loop
      vertex 234.164 132.7 53.321
      vertex 227.906 126.35 55.7148
      vertex 227.906 132.7 55.7148
    endloop
  endfacet
  facet normal -0.269009 0 -0.963138
    outer loop
      vertex 221.141 126.35 57.6043
      vertex 227.906 132.7 55.7148
      vertex 227.906 126.35 55.7148
    endloop
  endfacet
  facet normal -0.269009 0 -0.963138
    outer loop
      vertex 227.906 132.7 55.7148
      vertex 221.141 126.35 57.6043
      vertex 221.141 132.7 57.6043
    endloop
  endfacet
  facet normal -0.177067 0 -0.984199
    outer loop
      vertex 213.854 126.35 58.9153
      vertex 221.141 132.7 57.6043
      vertex 221.141 126.35 57.6043
    endloop
  endfacet
  facet normal -0.177067 0 -0.984199
    outer loop
      vertex 221.141 132.7 57.6043
      vertex 213.854 126.35 58.9153
      vertex 213.854 132.7 58.9153
    endloop
  endfacet
  facet normal -0.0838155 0 -0.996481
    outer loop
      vertex 213.854 126.35 58.9153
      vertex 207 126.362 59.4918
      vertex 213.854 132.7 58.9153
    endloop
  endfacet
  facet normal -0.083815 0.000291909 -0.996481
    outer loop
      vertex 206.031 126.35 59.5733
      vertex 207 126.362 59.4918
      vertex 213.854 126.35 58.9153
    endloop
  endfacet
  facet normal -0.0838114 0 -0.996482
    outer loop
      vertex 207 126.362 59.4918
      vertex 206.031 126.35 59.5733
      vertex 206.031 126.362 59.5733
    endloop
  endfacet
  facet normal -0.0838155 0 -0.996481
    outer loop
      vertex 213.854 132.7 58.9153
      vertex 207 126.362 59.4918
      vertex 207 132.7 59.4918
    endloop
  endfacet
  facet normal 0.0132677 0 -0.999912
    outer loop
      vertex 206.031 126.35 59.5733
      vertex 200.65 126.362 59.5019
      vertex 206.031 126.362 59.5733
    endloop
  endfacet
  facet normal 0.0132784 0.00486302 -0.9999
    outer loop
      vertex 198.192 126.35 59.4692
      vertex 200.65 126.362 59.5019
      vertex 206.031 126.35 59.5733
    endloop
  endfacet
  facet normal 0.0133023 0 -0.999912
    outer loop
      vertex 198.192 126.35 59.4692
      vertex 200.65 132.7 59.5019
      vertex 200.65 126.362 59.5019
    endloop
  endfacet
  facet normal 0.0133023 0 -0.999912
    outer loop
      vertex 200.65 132.7 59.5019
      vertex 198.192 126.35 59.4692
      vertex 198.192 132.7 59.4692
    endloop
  endfacet
  facet normal 0.117901 0 -0.993025
    outer loop
      vertex 190.861 126.35 58.5988
      vertex 198.192 132.7 59.4692
      vertex 198.192 126.35 59.4692
    endloop
  endfacet
  facet normal 0.117901 0 -0.993025
    outer loop
      vertex 198.192 132.7 59.4692
      vertex 190.861 126.35 58.5988
      vertex 190.861 132.7 58.5988
    endloop
  endfacet
  facet normal 0.221633 0 -0.97513
    outer loop
      vertex 184.026 126.35 57.0453
      vertex 190.861 132.7 58.5988
      vertex 190.861 126.35 58.5988
    endloop
  endfacet
  facet normal 0.221633 0 -0.97513
    outer loop
      vertex 190.861 132.7 58.5988
      vertex 184.026 126.35 57.0453
      vertex 184.026 132.7 57.0453
    endloop
  endfacet
  facet normal 0.321132 0 -0.947034
    outer loop
      vertex 177.677 126.35 54.8924
      vertex 184.026 132.7 57.0453
      vertex 184.026 126.35 57.0453
    endloop
  endfacet
  facet normal 0.321132 0 -0.947034
    outer loop
      vertex 184.026 132.7 57.0453
      vertex 177.677 126.35 54.8924
      vertex 177.677 132.7 54.8924
    endloop
  endfacet
  facet normal 0.413499 0 -0.910504
    outer loop
      vertex 171.8 126.35 52.2234
      vertex 177.677 132.7 54.8924
      vertex 177.677 126.35 54.8924
    endloop
  endfacet
  facet normal 0.413499 0 -0.910504
    outer loop
      vertex 177.677 132.7 54.8924
      vertex 171.8 126.35 52.2234
      vertex 171.8 132.7 52.2234
    endloop
  endfacet
  facet normal 0.497079 0 -0.867705
    outer loop
      vertex 166.386 126.35 49.1219
      vertex 171.8 132.7 52.2234
      vertex 171.8 126.35 52.2234
    endloop
  endfacet
  facet normal 0.497079 0 -0.867705
    outer loop
      vertex 171.8 132.7 52.2234
      vertex 166.386 126.35 49.1219
      vertex 166.386 132.7 49.1219
    endloop
  endfacet
  facet normal 0.570784 0 -0.8211
    outer loop
      vertex 161.422 126.35 45.6712
      vertex 166.386 132.7 49.1219
      vertex 166.386 126.35 49.1219
    endloop
  endfacet
  facet normal 0.570784 0 -0.8211
    outer loop
      vertex 166.386 132.7 49.1219
      vertex 161.422 126.35 45.6712
      vertex 161.422 132.7 45.6712
    endloop
  endfacet
  facet normal 0.634682 0 -0.772774
    outer loop
      vertex 156.897 126.35 41.9548
      vertex 161.422 132.7 45.6712
      vertex 161.422 126.35 45.6712
    endloop
  endfacet
  facet normal 0.634682 0 -0.772774
    outer loop
      vertex 161.422 132.7 45.6712
      vertex 156.897 126.35 41.9548
      vertex 156.897 132.7 41.9548
    endloop
  endfacet
  facet normal 0.689358 0 -0.724421
    outer loop
      vertex 152.8 126.35 38.0561
      vertex 156.897 132.7 41.9548
      vertex 156.897 126.35 41.9548
    endloop
  endfacet
  facet normal 0.689358 0 -0.724421
    outer loop
      vertex 156.897 132.7 41.9548
      vertex 152.8 126.35 38.0561
      vertex 152.8 132.7 38.0561
    endloop
  endfacet
  facet normal 0.73562 0 -0.677395
    outer loop
      vertex 152.8 126.35 38.0561
      vertex 149.119 132.7 34.0587
      vertex 152.8 132.7 38.0561
    endloop
  endfacet
  facet normal 0.73562 0 -0.677395
    outer loop
      vertex 149.119 132.7 34.0587
      vertex 152.8 126.35 38.0561
      vertex 149.119 126.35 34.0587
    endloop
  endfacet
  facet normal 0.774638 0 -0.632405
    outer loop
      vertex 149.119 126.35 34.0587
      vertex 145.843 132.7 30.0459
      vertex 149.119 132.7 34.0587
    endloop
  endfacet
  facet normal 0.774638 0 -0.632405
    outer loop
      vertex 145.843 132.7 30.0459
      vertex 149.119 126.35 34.0587
      vertex 145.843 126.35 30.0459
    endloop
  endfacet
  facet normal 0.807358 0 -0.590061
    outer loop
      vertex 145.843 126.35 30.0459
      vertex 142.96 132.7 26.1012
      vertex 145.843 132.7 30.0459
    endloop
  endfacet
  facet normal 0.807358 0 -0.590061
    outer loop
      vertex 142.96 132.7 26.1012
      vertex 145.843 126.35 30.0459
      vertex 142.96 126.35 26.1012
    endloop
  endfacet
  facet normal 0.834857 0 -0.550467
    outer loop
      vertex 142.96 126.35 26.1012
      vertex 140.459 132.7 22.3081
      vertex 142.96 132.7 26.1012
    endloop
  endfacet
  facet normal 0.834857 0 -0.550467
    outer loop
      vertex 140.459 132.7 22.3081
      vertex 142.96 126.35 26.1012
      vertex 140.459 126.35 22.3081
    endloop
  endfacet
  facet normal 0.85801 0 -0.513634
    outer loop
      vertex 140.459 126.35 22.3081
      vertex 138.329 132.7 18.75
      vertex 140.459 132.7 22.3081
    endloop
  endfacet
  facet normal 0.85801 0 -0.513634
    outer loop
      vertex 138.329 132.7 18.75
      vertex 140.459 126.35 22.3081
      vertex 138.329 126.35 18.75
    endloop
  endfacet
  facet normal 0.877452 0 -0.479664
    outer loop
      vertex 138.329 126.35 18.75
      vertex 136.558 132.7 15.5103
      vertex 138.329 132.7 18.75
    endloop
  endfacet
  facet normal 0.877452 0 -0.479664
    outer loop
      vertex 136.558 132.7 15.5103
      vertex 138.329 126.35 18.75
      vertex 136.558 126.35 15.5103
    endloop
  endfacet
  facet normal 0.893784 0 -0.448498
    outer loop
      vertex 136.558 126.35 15.5103
      vertex 135.134 132.7 12.6725
      vertex 136.558 132.7 15.5103
    endloop
  endfacet
  facet normal 0.893784 0 -0.448498
    outer loop
      vertex 135.134 132.7 12.6725
      vertex 136.558 126.35 15.5103
      vertex 135.134 126.35 12.6725
    endloop
  endfacet
  facet normal 0.907772 0 -0.419464
    outer loop
      vertex 135.134 126.35 12.6725
      vertex 134.047 132.7 10.3201
      vertex 135.134 132.7 12.6725
    endloop
  endfacet
  facet normal 0.907772 0 -0.419464
    outer loop
      vertex 134.047 132.7 10.3201
      vertex 135.134 126.35 12.6725
      vertex 134.047 126.35 10.3201
    endloop
  endfacet
  facet normal 0.919408 0 -0.393306
    outer loop
      vertex 134.047 126.35 10.3201
      vertex 133.284 132.7 8.53648
      vertex 134.047 132.7 10.3201
    endloop
  endfacet
  facet normal 0.919408 0 -0.393306
    outer loop
      vertex 133.284 132.7 8.53648
      vertex 134.047 126.35 10.3201
      vertex 133.284 126.35 8.53648
    endloop
  endfacet
  facet normal 0.929477 0 -0.368879
    outer loop
      vertex 133.284 126.35 8.53648
      vertex 132.835 132.7 7.40512
      vertex 133.284 132.7 8.53648
    endloop
  endfacet
  facet normal 0.929477 0 -0.368879
    outer loop
      vertex 132.835 132.7 7.40512
      vertex 133.284 126.35 8.53648
      vertex 132.835 126.35 7.40512
    endloop
  endfacet
  facet normal 0.937397 0 -0.348263
    outer loop
      vertex 132.835 126.35 7.40512
      vertex 132.688 132.7 7.00945
      vertex 132.835 132.7 7.40512
    endloop
  endfacet
  facet normal 0.937397 0 -0.348263
    outer loop
      vertex 132.688 132.7 7.00945
      vertex 132.835 126.35 7.40512
      vertex 132.688 126.35 7.00945
    endloop
  endfacet
  facet normal -0.0177863 0 -0.999842
    outer loop
      vertex 49.3972 126.35 8.49112
      vertex 132.688 132.7 7.00945
      vertex 132.688 126.35 7.00945
    endloop
  endfacet
  facet normal -0.0177863 0 -0.999842
    outer loop
      vertex 132.688 132.7 7.00945
      vertex 49.3972 126.35 8.49112
      vertex 49.3972 132.7 8.49112
    endloop
  endfacet
  facet normal -0.982139 0 0.188159
    outer loop
      vertex 49.3972 126.35 8.49112
      vertex 49.4626 132.7 8.83249
      vertex 49.3972 132.7 8.49112
    endloop
  endfacet
  facet normal -0.982139 0 0.188159
    outer loop
      vertex 49.4626 132.7 8.83249
      vertex 49.3972 126.35 8.49112
      vertex 49.4626 126.35 8.83249
    endloop
  endfacet
  facet normal -0.979651 0 0.200711
    outer loop
      vertex 49.4626 126.35 8.83249
      vertex 49.6664 132.7 9.82722
      vertex 49.4626 132.7 8.83249
    endloop
  endfacet
  facet normal -0.979651 0 0.200711
    outer loop
      vertex 49.6664 132.7 9.82722
      vertex 49.4626 126.35 8.83249
      vertex 49.6664 126.35 9.82722
    endloop
  endfacet
  facet normal -0.976565 0 0.215224
    outer loop
      vertex 49.6664 126.35 9.82722
      vertex 50.0199 132.7 11.4312
      vertex 49.6664 132.7 9.82722
    endloop
  endfacet
  facet normal -0.976565 0 0.215224
    outer loop
      vertex 50.0199 132.7 11.4312
      vertex 49.6664 126.35 9.82722
      vertex 50.0199 126.35 11.4312
    endloop
  endfacet
  facet normal -0.972988 0 0.230856
    outer loop
      vertex 50.0199 126.35 11.4312
      vertex 50.5346 132.7 13.6005
      vertex 50.0199 132.7 11.4312
    endloop
  endfacet
  facet normal -0.972988 0 0.230856
    outer loop
      vertex 50.5346 132.7 13.6005
      vertex 50.0199 126.35 11.4312
      vertex 50.5346 126.35 13.6005
    endloop
  endfacet
  facet normal -0.968899 0 0.247456
    outer loop
      vertex 50.5346 126.35 13.6005
      vertex 51.2217 132.7 16.2908
      vertex 50.5346 132.7 13.6005
    endloop
  endfacet
  facet normal -0.968899 0 0.247456
    outer loop
      vertex 51.2217 132.7 16.2908
      vertex 50.5346 126.35 13.6005
      vertex 51.2217 126.35 16.2908
    endloop
  endfacet
  facet normal -0.9642 0 0.265175
    outer loop
      vertex 51.2217 126.35 16.2908
      vertex 52.0928 132.7 19.4582
      vertex 51.2217 132.7 16.2908
    endloop
  endfacet
  facet normal -0.9642 0 0.265175
    outer loop
      vertex 52.0928 132.7 19.4582
      vertex 51.2217 126.35 16.2908
      vertex 52.0928 126.35 19.4582
    endloop
  endfacet
  facet normal -0.958833 0 0.28397
    outer loop
      vertex 52.0928 126.35 19.4582
      vertex 53.1591 132.7 23.0586
      vertex 52.0928 132.7 19.4582
    endloop
  endfacet
  facet normal -0.958833 0 0.28397
    outer loop
      vertex 53.1591 132.7 23.0586
      vertex 52.0928 126.35 19.4582
      vertex 53.1591 126.35 23.0586
    endloop
  endfacet
  facet normal -0.95267 0 0.304008
    outer loop
      vertex 53.1591 126.35 23.0586
      vertex 54.4321 132.7 27.0478
      vertex 53.1591 132.7 23.0586
    endloop
  endfacet
  facet normal -0.95267 0 0.304008
    outer loop
      vertex 54.4321 132.7 27.0478
      vertex 53.1591 126.35 23.0586
      vertex 54.4321 126.35 27.0478
    endloop
  endfacet
  facet normal -0.945614 0 0.325292
    outer loop
      vertex 54.4321 126.35 27.0478
      vertex 55.923 132.7 31.3818
      vertex 54.4321 132.7 27.0478
    endloop
  endfacet
  facet normal -0.945614 0 0.325292
    outer loop
      vertex 55.923 132.7 31.3818
      vertex 54.4321 126.35 27.0478
      vertex 55.923 126.35 31.3818
    endloop
  endfacet
  facet normal -0.937498 0 0.347992
    outer loop
      vertex 55.923 126.35 31.3818
      vertex 57.6434 132.7 36.0166
      vertex 55.923 132.7 31.3818
    endloop
  endfacet
  facet normal -0.937498 0 0.347992
    outer loop
      vertex 57.6434 132.7 36.0166
      vertex 55.923 126.35 31.3818
      vertex 57.6434 126.35 36.0166
    endloop
  endfacet
  facet normal -0.928179 0 0.372133
    outer loop
      vertex 57.6434 126.35 36.0166
      vertex 59.6045 132.7 40.908
      vertex 57.6434 132.7 36.0166
    endloop
  endfacet
  facet normal -0.928179 0 0.372133
    outer loop
      vertex 59.6045 132.7 40.908
      vertex 57.6434 126.35 36.0166
      vertex 59.6045 126.35 40.908
    endloop
  endfacet
  facet normal -0.917453 0 0.397845
    outer loop
      vertex 59.6045 126.35 40.908
      vertex 61.8178 132.7 46.012
      vertex 59.6045 132.7 40.908
    endloop
  endfacet
  facet normal -0.917453 0 0.397845
    outer loop
      vertex 61.8178 132.7 46.012
      vertex 59.6045 126.35 40.908
      vertex 61.8178 126.35 46.012
    endloop
  endfacet
  facet normal -0.905108 0 0.425182
    outer loop
      vertex 61.8178 126.35 46.012
      vertex 64.2946 132.7 51.2845
      vertex 61.8178 132.7 46.012
    endloop
  endfacet
  facet normal -0.905108 0 0.425182
    outer loop
      vertex 64.2946 132.7 51.2845
      vertex 61.8178 126.35 46.012
      vertex 64.2946 126.35 51.2845
    endloop
  endfacet
  facet normal -0.89088 0 0.454239
    outer loop
      vertex 64.2946 126.35 51.2845
      vertex 67.0463 132.7 56.6813
      vertex 64.2946 132.7 51.2845
    endloop
  endfacet
  facet normal -0.89088 0 0.454239
    outer loop
      vertex 67.0463 132.7 56.6813
      vertex 64.2946 126.35 51.2845
      vertex 67.0463 126.35 56.6813
    endloop
  endfacet
  facet normal -0.874488 0 0.485046
    outer loop
      vertex 67.0463 126.35 56.6813
      vertex 70.0843 132.7 62.1585
      vertex 67.0463 132.7 56.6813
    endloop
  endfacet
  facet normal -0.874488 0 0.485046
    outer loop
      vertex 70.0843 132.7 62.1585
      vertex 67.0463 126.35 56.6813
      vertex 70.0843 126.35 62.1585
    endloop
  endfacet
  facet normal -0.855598 0 0.517642
    outer loop
      vertex 70.0843 126.35 62.1585
      vertex 73.42 132.7 67.672
      vertex 70.0843 132.7 62.1585
    endloop
  endfacet
  facet normal -0.855598 0 0.517642
    outer loop
      vertex 73.42 132.7 67.672
      vertex 70.0843 126.35 62.1585
      vertex 73.42 126.35 67.672
    endloop
  endfacet
  facet normal -0.833842 0 0.552003
    outer loop
      vertex 73.42 126.35 67.672
      vertex 77.0647 132.7 73.1776
      vertex 73.42 132.7 67.672
    endloop
  endfacet
  facet normal -0.833842 0 0.552003
    outer loop
      vertex 77.0647 132.7 73.1776
      vertex 73.42 126.35 67.672
      vertex 77.0647 126.35 73.1776
    endloop
  endfacet
  facet normal -0.80883 0 0.588043
    outer loop
      vertex 77.0647 126.35 73.1776
      vertex 81.0297 132.7 78.6313
      vertex 77.0647 132.7 73.1776
    endloop
  endfacet
  facet normal -0.80883 0 0.588043
    outer loop
      vertex 81.0297 132.7 78.6313
      vertex 77.0647 126.35 73.1776
      vertex 81.0297 126.35 78.6313
    endloop
  endfacet
  facet normal -0.780105 0 0.625648
    outer loop
      vertex 81.0297 126.35 78.6313
      vertex 85.3266 132.7 83.989
      vertex 81.0297 132.7 78.6313
    endloop
  endfacet
  facet normal -0.780105 0 0.625648
    outer loop
      vertex 85.3266 132.7 83.989
      vertex 81.0297 126.35 78.6313
      vertex 85.3266 126.35 83.989
    endloop
  endfacet
  facet normal -0.747257 0 0.664535
    outer loop
      vertex 85.3266 126.35 83.989
      vertex 89.9667 132.7 89.2067
      vertex 85.3266 132.7 83.989
    endloop
  endfacet
  facet normal -0.747257 0 0.664535
    outer loop
      vertex 89.9667 132.7 89.2067
      vertex 85.3266 126.35 83.989
      vertex 89.9667 126.35 89.2067
    endloop
  endfacet
  facet normal -0.517011 0 0.855978
    outer loop
      vertex 89.9667 132.7 89.2067
      vertex 94.7811 126.35 92.1146
      vertex 94.7811 132.7 92.1146
    endloop
  endfacet
  facet normal -0.517011 0 0.855978
    outer loop
      vertex 94.7811 126.35 92.1146
      vertex 89.9667 132.7 89.2067
      vertex 89.9667 126.35 89.2067
    endloop
  endfacet
  facet normal -0.517231 0 0.855846
    outer loop
      vertex 94.7811 132.7 92.1146
      vertex 99.4102 126.35 94.9122
      vertex 99.4102 132.7 94.9122
    endloop
  endfacet
  facet normal -0.517231 0 0.855846
    outer loop
      vertex 99.4102 126.35 94.9122
      vertex 94.7811 132.7 92.1146
      vertex 94.7811 126.35 92.1146
    endloop
  endfacet
  facet normal -0.514006 0 0.857786
    outer loop
      vertex 99.4102 132.7 94.9122
      vertex 103.896 126.35 97.6002
      vertex 103.896 132.7 97.6002
    endloop
  endfacet
  facet normal -0.514006 0 0.857786
    outer loop
      vertex 103.896 126.35 97.6002
      vertex 99.4102 132.7 94.9122
      vertex 99.4102 126.35 94.9122
    endloop
  endfacet
  facet normal -0.507017 0 0.861936
    outer loop
      vertex 103.896 132.7 97.6002
      vertex 108.28 126.35 100.179
      vertex 108.28 132.7 100.179
    endloop
  endfacet
  facet normal -0.507017 0 0.861936
    outer loop
      vertex 108.28 126.35 100.179
      vertex 103.896 132.7 97.6002
      vertex 103.896 126.35 97.6002
    endloop
  endfacet
  facet normal -0.496225 0 0.868194
    outer loop
      vertex 108.28 132.7 100.179
      vertex 112.605 126.35 102.651
      vertex 112.605 132.7 102.651
    endloop
  endfacet
  facet normal -0.496225 0 0.868194
    outer loop
      vertex 112.605 126.35 102.651
      vertex 108.28 132.7 100.179
      vertex 108.28 126.35 100.179
    endloop
  endfacet
  facet normal -0.481075 0 0.87668
    outer loop
      vertex 112.605 132.7 102.651
      vertex 116.913 126.35 105.015
      vertex 116.913 132.7 105.015
    endloop
  endfacet
  facet normal -0.481075 0 0.87668
    outer loop
      vertex 116.913 126.35 105.015
      vertex 112.605 132.7 102.651
      vertex 112.605 126.35 102.651
    endloop
  endfacet
  facet normal -0.462132 0 0.886811
    outer loop
      vertex 116.913 132.7 105.015
      vertex 121.246 126.35 107.273
      vertex 121.246 132.7 107.273
    endloop
  endfacet
  facet normal -0.462132 0 0.886811
    outer loop
      vertex 121.246 126.35 107.273
      vertex 116.913 132.7 105.015
      vertex 116.913 126.35 105.015
    endloop
  endfacet
  facet normal -0.439437 0 0.898273
    outer loop
      vertex 121.246 132.7 107.273
      vertex 125.645 126.35 109.425
      vertex 125.645 132.7 109.425
    endloop
  endfacet
  facet normal -0.439437 0 0.898273
    outer loop
      vertex 125.645 126.35 109.425
      vertex 121.246 132.7 107.273
      vertex 121.246 126.35 107.273
    endloop
  endfacet
  facet normal -0.413544 0 0.910484
    outer loop
      vertex 125.645 132.7 109.425
      vertex 130.154 126.35 111.473
      vertex 130.154 132.7 111.473
    endloop
  endfacet
  facet normal -0.413544 0 0.910484
    outer loop
      vertex 130.154 126.35 111.473
      vertex 125.645 132.7 109.425
      vertex 125.645 126.35 109.425
    endloop
  endfacet
  facet normal -0.38484 0 0.922983
    outer loop
      vertex 130.154 132.7 111.473
      vertex 134.814 126.35 113.416
      vertex 134.814 132.7 113.416
    endloop
  endfacet
  facet normal -0.38484 0 0.922983
    outer loop
      vertex 134.814 126.35 113.416
      vertex 130.154 132.7 111.473
      vertex 130.154 126.35 111.473
    endloop
  endfacet
  facet normal -0.354585 0 0.935024
    outer loop
      vertex 134.814 132.7 113.416
      vertex 139.666 126.35 115.256
      vertex 139.666 132.7 115.256
    endloop
  endfacet
  facet normal -0.354585 0 0.935024
    outer loop
      vertex 139.666 126.35 115.256
      vertex 134.814 132.7 113.416
      vertex 134.814 126.35 113.416
    endloop
  endfacet
  facet normal -0.323249 0 0.946314
    outer loop
      vertex 139.666 132.7 115.256
      vertex 144.754 126.35 116.994
      vertex 144.754 132.7 116.994
    endloop
  endfacet
  facet normal -0.323249 0 0.946314
    outer loop
      vertex 144.754 126.35 116.994
      vertex 139.666 132.7 115.256
      vertex 139.666 126.35 115.256
    endloop
  endfacet
  facet normal -0.291793 0 0.956482
    outer loop
      vertex 144.754 132.7 116.994
      vertex 150.12 126.35 118.631
      vertex 150.12 132.7 118.631
    endloop
  endfacet
  facet normal -0.291793 0 0.956482
    outer loop
      vertex 150.12 126.35 118.631
      vertex 144.754 132.7 116.994
      vertex 144.754 126.35 116.994
    endloop
  endfacet
  facet normal -0.260674 0 0.965427
    outer loop
      vertex 150.12 132.7 118.631
      vertex 155.805 126.35 120.166
      vertex 155.805 132.7 120.166
    endloop
  endfacet
  facet normal -0.260674 0 0.965427
    outer loop
      vertex 155.805 126.35 120.166
      vertex 150.12 132.7 118.631
      vertex 150.12 126.35 118.631
    endloop
  endfacet
  facet normal -0.231084 0 0.972934
    outer loop
      vertex 155.805 132.7 120.166
      vertex 161.851 126.35 121.602
      vertex 161.851 132.7 121.602
    endloop
  endfacet
  facet normal -0.231084 0 0.972934
    outer loop
      vertex 161.851 126.35 121.602
      vertex 155.805 132.7 120.166
      vertex 155.805 126.35 120.166
    endloop
  endfacet
  facet normal -0.202857 0 0.979208
    outer loop
      vertex 161.851 132.7 121.602
      vertex 168.3 126.35 122.938
      vertex 168.3 132.7 122.938
    endloop
  endfacet
  facet normal -0.202857 0 0.979208
    outer loop
      vertex 168.3 126.35 122.938
      vertex 161.851 132.7 121.602
      vertex 161.851 126.35 121.602
    endloop
  endfacet
  facet normal -0.176724 0 0.98426
    outer loop
      vertex 168.3 132.7 122.938
      vertex 175.195 126.35 124.176
      vertex 175.195 132.7 124.176
    endloop
  endfacet
  facet normal -0.176724 0 0.98426
    outer loop
      vertex 175.195 126.35 124.176
      vertex 168.3 132.7 122.938
      vertex 168.3 126.35 122.938
    endloop
  endfacet
  facet normal -0.1526 0 0.988288
    outer loop
      vertex 175.195 132.7 124.176
      vertex 182.578 126.35 125.316
      vertex 182.578 132.7 125.316
    endloop
  endfacet
  facet normal -0.1526 0 0.988288
    outer loop
      vertex 182.578 126.35 125.316
      vertex 175.195 132.7 124.176
      vertex 175.195 126.35 124.176
    endloop
  endfacet
  facet normal -0.130678 0 0.991425
    outer loop
      vertex 182.578 132.7 125.316
      vertex 190.491 126.35 126.359
      vertex 190.491 132.7 126.359
    endloop
  endfacet
  facet normal -0.130678 0 0.991425
    outer loop
      vertex 190.491 126.35 126.359
      vertex 182.578 132.7 125.316
      vertex 182.578 126.35 125.316
    endloop
  endfacet
  facet normal -0.111049 0 0.993815
    outer loop
      vertex 190.491 132.7 126.359
      vertex 198.975 126.35 127.307
      vertex 198.975 132.7 127.307
    endloop
  endfacet
  facet normal -0.111049 0 0.993815
    outer loop
      vertex 198.975 126.35 127.307
      vertex 190.491 132.7 126.359
      vertex 190.491 126.35 126.359
    endloop
  endfacet
  facet normal 0.026515 0 0.999648
    outer loop
      vertex 198.975 132.7 127.307
      vertex 220.05 126.35 126.748
      vertex 220.05 132.7 126.748
    endloop
  endfacet
  facet normal 0.026515 0 0.999648
    outer loop
      vertex 220.05 126.35 126.748
      vertex 198.975 132.7 127.307
      vertex 198.975 126.35 127.307
    endloop
  endfacet
  facet normal -1 0 0
    outer loop
      vertex 207 126.362 70.9153
      vertex 207 132.7 59.4918
      vertex 207 126.362 59.4918
    endloop
  endfacet
  facet normal -1 0 0
    outer loop
      vertex 207 132.7 59.4918
      vertex 207 126.362 70.9153
      vertex 207 132.7 96.7993
    endloop
  endfacet
  facet normal -1 0 0
    outer loop
      vertex 207 126.35 93.4095
      vertex 207 126.362 70.9153
      vertex 207 126.35 70.9153
    endloop
  endfacet
  facet normal -1 0 0
    outer loop
      vertex 207 126.362 70.9153
      vertex 207 126.35 93.4095
      vertex 207 132.7 96.7993
    endloop
  endfacet
  facet normal 1 0 0
    outer loop
      vertex 200.65 132.7 96.7993
      vertex 200.65 126.362 70.9153
      vertex 200.65 132.7 59.5019
    endloop
  endfacet
  facet normal 1 -0 0
    outer loop
      vertex 200.65 126.35 93.4095
      vertex 200.65 126.362 70.9153
      vertex 200.65 132.7 96.7993
    endloop
  endfacet
  facet normal 1 0 0
    outer loop
      vertex 200.65 126.362 70.9153
      vertex 200.65 126.35 93.4095
      vertex 200.65 126.35 70.9153
    endloop
  endfacet
  facet normal 1 0 0
    outer loop
      vertex 200.65 132.7 59.5019
      vertex 200.65 126.362 70.9153
      vertex 200.65 126.362 59.5019
    endloop
  endfacet
  facet normal 0 1 0
    outer loop
      vertex 207 126.362 70.9153
      vertex 206.031 126.362 59.5733
      vertex 200.65 126.362 70.9153
    endloop
  endfacet
  facet normal -0 1 0
    outer loop
      vertex 206.031 126.362 59.5733
      vertex 207 126.362 70.9153
      vertex 207 126.362 59.4918
    endloop
  endfacet
  facet normal 0 1 0
    outer loop
      vertex 200.65 126.362 70.9153
      vertex 206.031 126.362 59.5733
      vertex 200.65 126.362 59.5019
    endloop
  endfacet
  facet normal -0 0 1
    outer loop
      vertex 200.65 126.362 70.9153
      vertex 207 126.35 70.9153
      vertex 207 126.362 70.9153
    endloop
  endfacet
  facet normal 0 0 1
    outer loop
      vertex 207 126.35 70.9153
      vertex 200.65 126.362 70.9153
      vertex 200.65 126.35 70.9153
    endloop
  endfacet
  facet normal 0 0.470927 -0.882172
    outer loop
      vertex 200.65 126.35 93.4095
      vertex 207 132.7 96.7993
      vertex 207 126.35 93.4095
    endloop
  endfacet
  facet normal 0 0.470927 -0.882172
    outer loop
      vertex 207 132.7 96.7993
      vertex 200.65 126.35 93.4095
      vertex 200.65 132.7 96.7993
    endloop
  endfacet
endsolid OpenSCAD_Model
