solid OpenSCAD_Model
  facet normal 0 -1 0
    outer loop
      vertex 207 499.65 110.612
      vertex 209.786 499.65 155.527
      vertex 197.861 499.65 154.965
    endloop
  endfacet
  facet normal 0 -1 -0
    outer loop
      vertex 209.786 499.65 155.527
      vertex 207 499.65 110.612
      vertex 221.245 499.65 155.187
    endloop
  endfacet
  facet normal 0 -1 0
    outer loop
      vertex 200.65 499.65 110.612
      vertex 197.861 499.65 154.965
      vertex 185.849 499.65 153.584
    endloop
  endfacet
  facet normal 0 -1 -0
    outer loop
      vertex 221.245 499.65 155.187
      vertex 207 499.65 110.612
      vertex 232.243 499.65 154.015
    endloop
  endfacet
  facet normal 0 -1 0
    outer loop
      vertex 200.65 499.65 110.612
      vertex 185.849 499.65 153.584
      vertex 174.151 499.65 151.559
    endloop
  endfacet
  facet normal 0 -1 0
    outer loop
      vertex 226.44 499.65 98.6688
      vertex 232.243 499.65 154.015
      vertex 207 499.65 110.612
    endloop
  endfacet
  facet normal 0 -1 0
    outer loop
      vertex 180.557 499.65 99.2089
      vertex 174.151 499.65 151.559
      vertex 162.79 499.65 148.954
    endloop
  endfacet
  facet normal 0 -1 -0
    outer loop
      vertex 232.243 499.65 154.015
      vertex 226.44 499.65 98.6688
      vertex 242.789 499.65 152.08
    endloop
  endfacet
  facet normal 0 -1 0
    outer loop
      vertex 170.697 499.65 96.2376
      vertex 162.79 499.65 148.954
      vertex 151.791 499.65 145.835
    endloop
  endfacet
  facet normal 0 -1 0
    outer loop
      vertex 236.367 499.65 95.515
      vertex 242.789 499.65 152.08
      vertex 226.44 499.65 98.6688
    endloop
  endfacet
  facet normal 0 -1 0
    outer loop
      vertex 170.697 499.65 96.2376
      vertex 151.791 499.65 145.835
      vertex 141.177 499.65 142.267
    endloop
  endfacet
  facet normal 0 -1 0
    outer loop
      vertex 161.832 499.65 92.2578
      vertex 141.177 499.65 142.267
      vertex 130.972 499.65 138.314
    endloop
  endfacet
  facet normal 0 -1 0
    outer loop
      vertex 197.861 499.65 154.965
      vertex 200.65 499.65 110.612
      vertex 207 499.65 110.612
    endloop
  endfacet
  facet normal 0 -1 0
    outer loop
      vertex 153.909 499.65 87.4122
      vertex 130.972 499.65 138.314
      vertex 121.201 499.65 134.041
    endloop
  endfacet
  facet normal 0 -1 -0
    outer loop
      vertex 242.789 499.65 152.08
      vertex 236.367 499.65 95.515
      vertex 252.886 499.65 149.454
    endloop
  endfacet
  facet normal 0 -1 0
    outer loop
      vertex 146.876 499.65 81.8438
      vertex 121.201 499.65 134.041
      vertex 111.887 499.65 129.513
    endloop
  endfacet
  facet normal 0 -1 -0
    outer loop
      vertex 252.886 499.65 149.454
      vertex 236.367 499.65 95.515
      vertex 262.543 499.65 146.205
    endloop
  endfacet
  facet normal 0 -1 0
    outer loop
      vertex 140.681 499.65 75.6954
      vertex 111.887 499.65 129.513
      vertex 103.054 499.65 124.795
    endloop
  endfacet
  facet normal 0 -1 0
    outer loop
      vertex 245.321 499.65 91.4043
      vertex 262.543 499.65 146.205
      vertex 236.367 499.65 95.515
    endloop
  endfacet
  facet normal 0 -1 0
    outer loop
      vertex 140.681 499.65 75.6954
      vertex 103.054 499.65 124.795
      vertex 94.7262 499.65 119.952
    endloop
  endfacet
  facet normal 0 -1 -0
    outer loop
      vertex 262.543 499.65 146.205
      vertex 245.321 499.65 91.4043
      vertex 271.765 499.65 142.404
    endloop
  endfacet
  facet normal 0 -1 0
    outer loop
      vertex 135.272 499.65 69.1099
      vertex 94.7262 499.65 119.952
      vertex 86.9277 499.65 115.048
    endloop
  endfacet
  facet normal 0 -1 -0
    outer loop
      vertex 271.765 499.65 142.404
      vertex 245.321 499.65 91.4043
      vertex 280.559 499.65 138.122
    endloop
  endfacet
  facet normal 0 -1 0
    outer loop
      vertex 253.351 499.65 86.4746
      vertex 280.559 499.65 138.122
      vertex 245.321 499.65 91.4043
    endloop
  endfacet
  facet normal 0 -1 0
    outer loop
      vertex 130.595 499.65 62.2302
      vertex 86.9277 499.65 115.048
      vertex 79.6823 499.65 110.149
    endloop
  endfacet
  facet normal 0 -1 0
    outer loop
      vertex 130.595 499.65 62.2302
      vertex 79.6823 499.65 110.149
      vertex 73.0139 499.65 105.319
    endloop
  endfacet
  facet normal 0 -1 0
    outer loop
      vertex 162.79 499.65 148.954
      vertex 170.697 499.65 96.2376
      vertex 180.557 499.65 99.2089
    endloop
  endfacet
  facet normal 0 -1 -0
    outer loop
      vertex 200.65 499.65 110.612
      vertex 191.464 499.65 101.029
      vertex 200.65 499.65 101.431
    endloop
  endfacet
  facet normal 0 -1 0
    outer loop
      vertex 126.6 499.65 55.1992
      vertex 73.0139 499.65 105.319
      vertex 66.9467 499.65 100.624
    endloop
  endfacet
  facet normal 0 -1 0
    outer loop
      vertex 200.65 499.65 110.612
      vertex 180.557 499.65 99.2089
      vertex 191.464 499.65 101.029
    endloop
  endfacet
  facet normal 0 -1 0
    outer loop
      vertex 174.151 499.65 151.559
      vertex 180.557 499.65 99.2089
      vertex 200.65 499.65 110.612
    endloop
  endfacet
  facet normal 0 -1 0
    outer loop
      vertex 123.233 499.65 48.1597
      vertex 66.9467 499.65 100.624
      vertex 61.5045 499.65 96.128
    endloop
  endfacet
  facet normal 0 -1 0
    outer loop
      vertex 141.177 499.65 142.267
      vertex 161.832 499.65 92.2578
      vertex 170.697 499.65 96.2376
    endloop
  endfacet
  facet normal 0 -1 0
    outer loop
      vertex 123.233 499.65 48.1597
      vertex 61.5045 499.65 96.128
      vertex 56.7113 499.65 91.896
    endloop
  endfacet
  facet normal 0 -1 0
    outer loop
      vertex 120.442 499.65 41.2546
      vertex 56.7113 499.65 91.896
      vertex 52.5912 499.65 87.9928
    endloop
  endfacet
  facet normal 0 -1 0
    outer loop
      vertex 130.972 499.65 138.314
      vertex 153.909 499.65 87.4122
      vertex 161.832 499.65 92.2578
    endloop
  endfacet
  facet normal 0 -1 0
    outer loop
      vertex 120.442 499.65 41.2546
      vertex 52.5912 499.65 87.9928
      vertex 49.168 499.65 84.4835
    endloop
  endfacet
  facet normal 0 -1 0
    outer loop
      vertex 121.201 499.65 134.041
      vertex 146.876 499.65 81.8438
      vertex 153.909 499.65 87.4122
    endloop
  endfacet
  facet normal 0 -1 0
    outer loop
      vertex 120.442 499.65 41.2546
      vertex 49.168 499.65 84.4835
      vertex 46.4657 499.65 81.4329
    endloop
  endfacet
  facet normal 0 -1 0
    outer loop
      vertex 120.442 499.65 41.2546
      vertex 46.4657 499.65 81.4329
      vertex 44.5083 499.65 78.9058
    endloop
  endfacet
  facet normal 0 -1 0
    outer loop
      vertex 120.442 499.65 41.2546
      vertex 44.5083 499.65 78.9058
      vertex 42.7672 499.65 76.3425
    endloop
  endfacet
  facet normal 0 -1 0
    outer loop
      vertex 111.887 499.65 129.513
      vertex 140.681 499.65 75.6954
      vertex 146.876 499.65 81.8438
    endloop
  endfacet
  facet normal 0 -1 0
    outer loop
      vertex 120.442 499.65 41.2546
      vertex 42.7672 499.65 76.3425
      vertex 41.0153 499.65 73.5933
    endloop
  endfacet
  facet normal 0 -1 0
    outer loop
      vertex 118.176 499.65 34.6268
      vertex 41.0153 499.65 73.5933
      vertex 39.2689 499.65 70.6721
    endloop
  endfacet
  facet normal 0 -1 0
    outer loop
      vertex 94.7262 499.65 119.952
      vertex 135.272 499.65 69.1099
      vertex 140.681 499.65 75.6954
    endloop
  endfacet
  facet normal 0 -1 0
    outer loop
      vertex 118.176 499.65 34.6268
      vertex 39.2689 499.65 70.6721
      vertex 37.5442 499.65 67.5927
    endloop
  endfacet
  facet normal 0 -1 0
    outer loop
      vertex 118.176 499.65 34.6268
      vertex 37.5442 499.65 67.5927
      vertex 35.8576 499.65 64.3686
    endloop
  endfacet
  facet normal 0 -1 0
    outer loop
      vertex 86.9277 499.65 115.048
      vertex 130.595 499.65 62.2302
      vertex 135.272 499.65 69.1099
    endloop
  endfacet
  facet normal 0 -1 0
    outer loop
      vertex 118.176 499.65 34.6268
      vertex 35.8576 499.65 64.3686
      vertex 34.2251 499.65 61.0138
    endloop
  endfacet
  facet normal 0 -1 0
    outer loop
      vertex 116.382 499.65 28.4191
      vertex 34.2251 499.65 61.0138
      vertex 32.6632 499.65 57.5418
    endloop
  endfacet
  facet normal 0 -1 0
    outer loop
      vertex 73.0139 499.65 105.319
      vertex 126.6 499.65 55.1992
      vertex 130.595 499.65 62.2302
    endloop
  endfacet
  facet normal 0 -1 0
    outer loop
      vertex 116.382 499.65 28.4191
      vertex 32.6632 499.65 57.5418
      vertex 31.188 499.65 53.9664
    endloop
  endfacet
  facet normal 0 -1 0
    outer loop
      vertex 116.382 499.65 28.4191
      vertex 31.188 499.65 53.9664
      vertex 29.8158 499.65 50.3014
    endloop
  endfacet
  facet normal 0 -1 0
    outer loop
      vertex 66.9467 499.65 100.624
      vertex 123.233 499.65 48.1597
      vertex 126.6 499.65 55.1992
    endloop
  endfacet
  facet normal 0 -1 0
    outer loop
      vertex 115.007 499.65 22.7745
      vertex 29.8158 499.65 50.3014
      vertex 28.5628 499.65 46.5605
    endloop
  endfacet
  facet normal 0 -1 0
    outer loop
      vertex 115.007 499.65 22.7745
      vertex 28.5628 499.65 46.5605
      vertex 27.4452 499.65 42.7574
    endloop
  endfacet
  facet normal 0 -1 0
    outer loop
      vertex 56.7113 499.65 91.896
      vertex 120.442 499.65 41.2546
      vertex 123.233 499.65 48.1597
    endloop
  endfacet
  facet normal 0 -1 0
    outer loop
      vertex 115.007 499.65 22.7745
      vertex 27.4452 499.65 42.7574
      vertex 26.4794 499.65 38.9059
    endloop
  endfacet
  facet normal 0 -1 0
    outer loop
      vertex 113.999 499.65 17.8358
      vertex 26.4794 499.65 38.9059
      vertex 25.6815 499.65 35.0197
    endloop
  endfacet
  facet normal 0 -1 0
    outer loop
      vertex 41.0153 499.65 73.5933
      vertex 118.176 499.65 34.6268
      vertex 120.442 499.65 41.2546
    endloop
  endfacet
  facet normal 0 -1 0
    outer loop
      vertex 113.999 499.65 17.8358
      vertex 25.6815 499.65 35.0197
      vertex 25.0679 499.65 31.1125
    endloop
  endfacet
  facet normal 0 -1 0
    outer loop
      vertex 34.2251 499.65 61.0138
      vertex 116.382 499.65 28.4191
      vertex 118.176 499.65 34.6268
    endloop
  endfacet
  facet normal 0 -1 0
    outer loop
      vertex 113.999 499.65 17.8358
      vertex 25.0679 499.65 31.1125
      vertex 24.6546 499.65 27.198
    endloop
  endfacet
  facet normal 0 -1 0
    outer loop
      vertex 113.999 499.65 17.8358
      vertex 24.6546 499.65 27.198
      vertex 24.4581 499.65 23.29
    endloop
  endfacet
  facet normal 0 -1 0
    outer loop
      vertex 29.8158 499.65 50.3014
      vertex 115.007 499.65 22.7745
      vertex 116.382 499.65 28.4191
    endloop
  endfacet
  facet normal 0 -1 0
    outer loop
      vertex 113.306 499.65 13.7458
      vertex 24.4581 499.65 23.29
      vertex 24.4946 499.65 19.4022
    endloop
  endfacet
  facet normal 0 -1 0
    outer loop
      vertex 26.4794 499.65 38.9059
      vertex 113.999 499.65 17.8358
      vertex 115.007 499.65 22.7745
    endloop
  endfacet
  facet normal 0 -1 0
    outer loop
      vertex 113.306 499.65 13.7458
      vertex 24.4946 499.65 19.4022
      vertex 24.7802 499.65 15.5484
    endloop
  endfacet
  facet normal 0 -1 0
    outer loop
      vertex 24.4581 499.65 23.29
      vertex 113.306 499.65 13.7458
      vertex 113.999 499.65 17.8358
    endloop
  endfacet
  facet normal 0 -1 0
    outer loop
      vertex 25.3312 499.65 11.7422
      vertex 113.306 499.65 13.7458
      vertex 24.7802 499.65 15.5484
    endloop
  endfacet
  facet normal 0 -1 0
    outer loop
      vertex 26.1639 499.65 7.99751
      vertex 113.306 499.65 13.7458
      vertex 25.3312 499.65 11.7422
    endloop
  endfacet
  facet normal 0 -1 0
    outer loop
      vertex 113.306 499.65 13.7458
      vertex 26.1639 499.65 7.99751
      vertex 112.876 499.65 10.6476
    endloop
  endfacet
  facet normal 0 -1 0
    outer loop
      vertex 112.876 499.65 10.6476
      vertex 26.1639 499.65 7.99751
      vertex 112.656 499.65 8.68384
    endloop
  endfacet
  facet normal 0 -1 0
    outer loop
      vertex 112.656 499.65 8.68384
      vertex 26.1639 499.65 7.99751
      vertex 112.594 499.65 7.99751
    endloop
  endfacet
  facet normal 0 -1 0
    outer loop
      vertex 260.506 499.65 80.8636
      vertex 288.93 499.65 133.428
      vertex 253.351 499.65 86.4746
    endloop
  endfacet
  facet normal 0 -1 -0
    outer loop
      vertex 288.93 499.65 133.428
      vertex 260.506 499.65 80.8636
      vertex 296.886 499.65 128.392
    endloop
  endfacet
  facet normal 0 -1 0
    outer loop
      vertex 215.491 499.65 100.728
      vertex 207 499.65 110.612
      vertex 207 499.65 101.312
    endloop
  endfacet
  facet normal 0 -1 0
    outer loop
      vertex 226.44 499.65 98.6688
      vertex 207 499.65 110.612
      vertex 215.491 499.65 100.728
    endloop
  endfacet
  facet normal 0 -1 -0
    outer loop
      vertex 280.559 499.65 138.122
      vertex 253.351 499.65 86.4746
      vertex 288.93 499.65 133.428
    endloop
  endfacet
  facet normal 0 -1 -0
    outer loop
      vertex 296.886 499.65 128.392
      vertex 260.506 499.65 80.8636
      vertex 304.431 499.65 123.085
    endloop
  endfacet
  facet normal 0 -1 0
    outer loop
      vertex 266.835 499.65 74.7094
      vertex 304.431 499.65 123.085
      vertex 260.506 499.65 80.8636
    endloop
  endfacet
  facet normal 0 -1 -0
    outer loop
      vertex 304.431 499.65 123.085
      vertex 266.835 499.65 74.7094
      vertex 311.574 499.65 117.576
    endloop
  endfacet
  facet normal 0 -1 0
    outer loop
      vertex 272.389 499.65 68.1498
      vertex 311.574 499.65 117.576
      vertex 266.835 499.65 74.7094
    endloop
  endfacet
  facet normal 0 -1 -0
    outer loop
      vertex 311.574 499.65 117.576
      vertex 272.389 499.65 68.1498
      vertex 318.32 499.65 111.936
    endloop
  endfacet
  facet normal 0 -1 -0
    outer loop
      vertex 318.32 499.65 111.936
      vertex 272.389 499.65 68.1498
      vertex 324.675 499.65 106.235
    endloop
  endfacet
  facet normal 0 -1 0
    outer loop
      vertex 277.215 499.65 61.3226
      vertex 324.675 499.65 106.235
      vertex 272.389 499.65 68.1498
    endloop
  endfacet
  facet normal 0 -1 -0
    outer loop
      vertex 324.675 499.65 106.235
      vertex 277.215 499.65 61.3226
      vertex 330.645 499.65 100.543
    endloop
  endfacet
  facet normal 0 -1 0
    outer loop
      vertex 281.363 499.65 54.3657
      vertex 330.645 499.65 100.543
      vertex 277.215 499.65 61.3226
    endloop
  endfacet
  facet normal 0 -1 -0
    outer loop
      vertex 330.645 499.65 100.543
      vertex 281.363 499.65 54.3657
      vertex 336.238 499.65 94.9304
    endloop
  endfacet
  facet normal 0 -1 -0
    outer loop
      vertex 336.238 499.65 94.9304
      vertex 281.363 499.65 54.3657
      vertex 341.458 499.65 89.4668
    endloop
  endfacet
  facet normal 0 -1 0
    outer loop
      vertex 284.883 499.65 47.4171
      vertex 341.458 499.65 89.4668
      vertex 281.363 499.65 54.3657
    endloop
  endfacet
  facet normal 0 -1 -0
    outer loop
      vertex 341.458 499.65 89.4668
      vertex 284.883 499.65 47.4171
      vertex 346.314 499.65 84.2225
    endloop
  endfacet
  facet normal 0 -1 0
    outer loop
      vertex 287.823 499.65 40.6145
      vertex 346.314 499.65 84.2225
      vertex 284.883 499.65 47.4171
    endloop
  endfacet
  facet normal 0 -1 -0
    outer loop
      vertex 346.314 499.65 84.2225
      vertex 287.823 499.65 40.6145
      vertex 350.81 499.65 79.2677
    endloop
  endfacet
  facet normal 0 -1 -0
    outer loop
      vertex 350.81 499.65 79.2677
      vertex 287.823 499.65 40.6145
      vertex 354.953 499.65 74.6725
    endloop
  endfacet
  facet normal 0 -1 0
    outer loop
      vertex 290.233 499.65 34.0959
      vertex 354.953 499.65 74.6725
      vertex 287.823 499.65 40.6145
    endloop
  endfacet
  facet normal 0 -1 -0
    outer loop
      vertex 354.953 499.65 74.6725
      vertex 290.233 499.65 34.0959
      vertex 358.745 499.65 70.1966
    endloop
  endfacet
  facet normal 0 -1 -0
    outer loop
      vertex 358.745 499.65 70.1966
      vertex 290.233 499.65 34.0959
      vertex 362.135 499.65 65.639
    endloop
  endfacet
  facet normal 0 -1 0
    outer loop
      vertex 292.163 499.65 27.9991
      vertex 362.135 499.65 65.639
      vertex 290.233 499.65 34.0959
    endloop
  endfacet
  facet normal 0 -1 -0
    outer loop
      vertex 362.135 499.65 65.639
      vertex 292.163 499.65 27.9991
      vertex 365.145 499.65 61.0333
    endloop
  endfacet
  facet normal 0 -1 -0
    outer loop
      vertex 365.145 499.65 61.0333
      vertex 292.163 499.65 27.9991
      vertex 367.799 499.65 56.4133
    endloop
  endfacet
  facet normal 0 -1 -0
    outer loop
      vertex 367.799 499.65 56.4133
      vertex 292.163 499.65 27.9991
      vertex 370.118 499.65 51.8125
    endloop
  endfacet
  facet normal 0 -1 0
    outer loop
      vertex 293.66 499.65 22.4619
      vertex 370.118 499.65 51.8125
      vertex 292.163 499.65 27.9991
    endloop
  endfacet
  facet normal 0 -1 -0
    outer loop
      vertex 370.118 499.65 51.8125
      vertex 293.66 499.65 22.4619
      vertex 372.124 499.65 47.2646
    endloop
  endfacet
  facet normal 0 -1 -0
    outer loop
      vertex 372.124 499.65 47.2646
      vertex 293.66 499.65 22.4619
      vertex 373.841 499.65 42.8033
    endloop
  endfacet
  facet normal 0 -1 0
    outer loop
      vertex 294.775 499.65 17.6224
      vertex 373.841 499.65 42.8033
      vertex 293.66 499.65 22.4619
    endloop
  endfacet
  facet normal 0 -1 -0
    outer loop
      vertex 373.841 499.65 42.8033
      vertex 294.775 499.65 17.6224
      vertex 375.291 499.65 38.4623
    endloop
  endfacet
  facet normal 0 -1 -0
    outer loop
      vertex 375.291 499.65 38.4623
      vertex 294.775 499.65 17.6224
      vertex 376.495 499.65 34.2751
    endloop
  endfacet
  facet normal 0 -1 0
    outer loop
      vertex 295.556 499.65 13.6183
      vertex 376.495 499.65 34.2751
      vertex 294.775 499.65 17.6224
    endloop
  endfacet
  facet normal 0 -1 -0
    outer loop
      vertex 376.495 499.65 34.2751
      vertex 295.556 499.65 13.6183
      vertex 377.478 499.65 30.2754
    endloop
  endfacet
  facet normal 0 -1 -0
    outer loop
      vertex 377.478 499.65 30.2754
      vertex 295.556 499.65 13.6183
      vertex 378.26 499.65 26.497
    endloop
  endfacet
  facet normal 0 -1 0
    outer loop
      vertex 296.053 499.65 10.5876
      vertex 378.26 499.65 26.497
      vertex 295.556 499.65 13.6183
    endloop
  endfacet
  facet normal 0 -1 -0
    outer loop
      vertex 378.26 499.65 26.497
      vertex 296.053 499.65 10.5876
      vertex 378.864 499.65 22.9733
    endloop
  endfacet
  facet normal 0 -1 -0
    outer loop
      vertex 378.864 499.65 22.9733
      vertex 296.053 499.65 10.5876
      vertex 379.314 499.65 19.7382
    endloop
  endfacet
  facet normal 0 -1 0
    outer loop
      vertex 296.315 499.65 8.668
      vertex 379.314 499.65 19.7382
      vertex 296.053 499.65 10.5876
    endloop
  endfacet
  facet normal 0 -1 -0
    outer loop
      vertex 379.314 499.65 19.7382
      vertex 296.315 499.65 8.668
      vertex 379.63 499.65 16.8253
    endloop
  endfacet
  facet normal 0 -1 0
    outer loop
      vertex 296.392 499.65 7.99751
      vertex 379.63 499.65 16.8253
      vertex 296.315 499.65 8.668
    endloop
  endfacet
  facet normal 0 -1 -0
    outer loop
      vertex 379.63 499.65 16.8253
      vertex 296.392 499.65 7.99751
      vertex 379.837 499.65 14.2681
    endloop
  endfacet
  facet normal 0 -1 -0
    outer loop
      vertex 379.837 499.65 14.2681
      vertex 296.392 499.65 7.99751
      vertex 379.955 499.65 12.1004
    endloop
  endfacet
  facet normal 0 -1 -0
    outer loop
      vertex 379.955 499.65 12.1004
      vertex 296.392 499.65 7.99751
      vertex 380.009 499.65 10.3559
    endloop
  endfacet
  facet normal 0 -1 -0
    outer loop
      vertex 380.009 499.65 10.3559
      vertex 296.392 499.65 7.99751
      vertex 380.019 499.65 9.06812
    endloop
  endfacet
  facet normal 0 -1 0
    outer loop
      vertex 380.019 499.65 9.06812
      vertex 296.392 499.65 7.99751
      vertex 380.008 499.65 8.27077
    endloop
  endfacet
  facet normal 0 -1 0
    outer loop
      vertex 380.008 499.65 8.27077
      vertex 296.392 499.65 7.99751
      vertex 380 499.65 7.99751
    endloop
  endfacet
  facet normal 0 1 0
    outer loop
      vertex 207 506 108.081
      vertex 209.786 506 155.527
      vertex 221.245 506 155.187
    endloop
  endfacet
  facet normal 0 1 0
    outer loop
      vertex 207 506 108.081
      vertex 221.245 506 155.187
      vertex 232.243 506 154.015
    endloop
  endfacet
  facet normal 0 1 0
    outer loop
      vertex 209.786 506 155.527
      vertex 207 506 108.081
      vertex 197.861 506 154.965
    endloop
  endfacet
  facet normal 0 1 0
    outer loop
      vertex 226.44 506 98.6688
      vertex 232.243 506 154.015
      vertex 242.789 506 152.08
    endloop
  endfacet
  facet normal 0 1 -0
    outer loop
      vertex 200.65 506 108.081
      vertex 197.861 506 154.965
      vertex 207 506 108.081
    endloop
  endfacet
  facet normal 0 1 0
    outer loop
      vertex 236.367 506 95.515
      vertex 242.789 506 152.08
      vertex 252.886 506 149.454
    endloop
  endfacet
  facet normal 0 1 0
    outer loop
      vertex 197.861 506 154.965
      vertex 200.65 506 108.081
      vertex 185.849 506 153.584
    endloop
  endfacet
  facet normal 0 1 0
    outer loop
      vertex 236.367 506 95.515
      vertex 252.886 506 149.454
      vertex 262.543 506 146.205
    endloop
  endfacet
  facet normal 0 1 0
    outer loop
      vertex 185.849 506 153.584
      vertex 200.65 506 108.081
      vertex 174.151 506 151.559
    endloop
  endfacet
  facet normal 0 1 0
    outer loop
      vertex 245.321 506 91.4043
      vertex 262.543 506 146.205
      vertex 271.765 506 142.404
    endloop
  endfacet
  facet normal 0 1 -0
    outer loop
      vertex 180.557 506 99.2089
      vertex 174.151 506 151.559
      vertex 200.65 506 108.081
    endloop
  endfacet
  facet normal 0 1 0
    outer loop
      vertex 174.151 506 151.559
      vertex 180.557 506 99.2089
      vertex 162.79 506 148.954
    endloop
  endfacet
  facet normal 0 1 0
    outer loop
      vertex 245.321 506 91.4043
      vertex 271.765 506 142.404
      vertex 280.559 506 138.122
    endloop
  endfacet
  facet normal 0 1 -0
    outer loop
      vertex 170.697 506 96.2376
      vertex 162.79 506 148.954
      vertex 180.557 506 99.2089
    endloop
  endfacet
  facet normal 0 1 0
    outer loop
      vertex 253.351 506 86.4746
      vertex 280.559 506 138.122
      vertex 288.93 506 133.428
    endloop
  endfacet
  facet normal 0 1 0
    outer loop
      vertex 162.79 506 148.954
      vertex 170.697 506 96.2376
      vertex 151.791 506 145.835
    endloop
  endfacet
  facet normal 0 1 0
    outer loop
      vertex 260.506 506 80.8636
      vertex 288.93 506 133.428
      vertex 296.886 506 128.392
    endloop
  endfacet
  facet normal 0 1 -0
    outer loop
      vertex 161.832 506 92.2578
      vertex 141.177 506 142.267
      vertex 170.697 506 96.2376
    endloop
  endfacet
  facet normal 0 1 0
    outer loop
      vertex 260.506 506 80.8636
      vertex 296.886 506 128.392
      vertex 304.431 506 123.085
    endloop
  endfacet
  facet normal 0 1 0
    outer loop
      vertex 141.177 506 142.267
      vertex 161.832 506 92.2578
      vertex 130.972 506 138.314
    endloop
  endfacet
  facet normal 0 1 0
    outer loop
      vertex 266.835 506 74.7094
      vertex 304.431 506 123.085
      vertex 311.574 506 117.576
    endloop
  endfacet
  facet normal 0 1 0
    outer loop
      vertex 151.791 506 145.835
      vertex 170.697 506 96.2376
      vertex 141.177 506 142.267
    endloop
  endfacet
  facet normal 0 1 0
    outer loop
      vertex 272.389 506 68.1498
      vertex 311.574 506 117.576
      vertex 318.32 506 111.936
    endloop
  endfacet
  facet normal 0 1 -0
    outer loop
      vertex 153.909 506 87.4122
      vertex 130.972 506 138.314
      vertex 161.832 506 92.2578
    endloop
  endfacet
  facet normal 0 1 0
    outer loop
      vertex 130.972 506 138.314
      vertex 153.909 506 87.4122
      vertex 121.201 506 134.041
    endloop
  endfacet
  facet normal 0 1 0
    outer loop
      vertex 272.389 506 68.1498
      vertex 318.32 506 111.936
      vertex 324.675 506 106.235
    endloop
  endfacet
  facet normal 0 1 0
    outer loop
      vertex 232.243 506 154.015
      vertex 226.44 506 98.6688
      vertex 207 506 108.081
    endloop
  endfacet
  facet normal 0 1 0
    outer loop
      vertex 207 506 108.081
      vertex 215.491 506 100.728
      vertex 207 506 101.312
    endloop
  endfacet
  facet normal 0 1 0
    outer loop
      vertex 277.215 506 61.3226
      vertex 324.675 506 106.235
      vertex 330.645 506 100.543
    endloop
  endfacet
  facet normal 0 1 0
    outer loop
      vertex 207 506 108.081
      vertex 226.44 506 98.6688
      vertex 215.491 506 100.728
    endloop
  endfacet
  facet normal 0 1 0
    outer loop
      vertex 242.789 506 152.08
      vertex 236.367 506 95.515
      vertex 226.44 506 98.6688
    endloop
  endfacet
  facet normal 0 1 0
    outer loop
      vertex 281.363 506 54.3657
      vertex 330.645 506 100.543
      vertex 336.238 506 94.9304
    endloop
  endfacet
  facet normal 0 1 0
    outer loop
      vertex 262.543 506 146.205
      vertex 245.321 506 91.4043
      vertex 236.367 506 95.515
    endloop
  endfacet
  facet normal 0 1 0
    outer loop
      vertex 281.363 506 54.3657
      vertex 336.238 506 94.9304
      vertex 341.458 506 89.4668
    endloop
  endfacet
  facet normal 0 1 0
    outer loop
      vertex 280.559 506 138.122
      vertex 253.351 506 86.4746
      vertex 245.321 506 91.4043
    endloop
  endfacet
  facet normal 0 1 0
    outer loop
      vertex 284.883 506 47.4171
      vertex 341.458 506 89.4668
      vertex 346.314 506 84.2225
    endloop
  endfacet
  facet normal 0 1 0
    outer loop
      vertex 288.93 506 133.428
      vertex 260.506 506 80.8636
      vertex 253.351 506 86.4746
    endloop
  endfacet
  facet normal 0 1 0
    outer loop
      vertex 287.823 506 40.6145
      vertex 346.314 506 84.2225
      vertex 350.81 506 79.2677
    endloop
  endfacet
  facet normal 0 1 0
    outer loop
      vertex 304.431 506 123.085
      vertex 266.835 506 74.7094
      vertex 260.506 506 80.8636
    endloop
  endfacet
  facet normal 0 1 0
    outer loop
      vertex 287.823 506 40.6145
      vertex 350.81 506 79.2677
      vertex 354.953 506 74.6725
    endloop
  endfacet
  facet normal 0 1 0
    outer loop
      vertex 290.233 506 34.0959
      vertex 354.953 506 74.6725
      vertex 358.745 506 70.1966
    endloop
  endfacet
  facet normal 0 1 0
    outer loop
      vertex 311.574 506 117.576
      vertex 272.389 506 68.1498
      vertex 266.835 506 74.7094
    endloop
  endfacet
  facet normal 0 1 0
    outer loop
      vertex 290.233 506 34.0959
      vertex 358.745 506 70.1966
      vertex 362.135 506 65.639
    endloop
  endfacet
  facet normal 0 1 0
    outer loop
      vertex 324.675 506 106.235
      vertex 277.215 506 61.3226
      vertex 272.389 506 68.1498
    endloop
  endfacet
  facet normal 0 1 0
    outer loop
      vertex 292.163 506 27.9991
      vertex 362.135 506 65.639
      vertex 365.145 506 61.0333
    endloop
  endfacet
  facet normal 0 1 0
    outer loop
      vertex 292.163 506 27.9991
      vertex 365.145 506 61.0333
      vertex 367.799 506 56.4133
    endloop
  endfacet
  facet normal 0 1 0
    outer loop
      vertex 330.645 506 100.543
      vertex 281.363 506 54.3657
      vertex 277.215 506 61.3226
    endloop
  endfacet
  facet normal 0 1 0
    outer loop
      vertex 292.163 506 27.9991
      vertex 367.799 506 56.4133
      vertex 370.118 506 51.8125
    endloop
  endfacet
  facet normal 0 1 0
    outer loop
      vertex 341.458 506 89.4668
      vertex 284.883 506 47.4171
      vertex 281.363 506 54.3657
    endloop
  endfacet
  facet normal 0 1 0
    outer loop
      vertex 293.66 506 22.4619
      vertex 370.118 506 51.8125
      vertex 372.124 506 47.2646
    endloop
  endfacet
  facet normal 0 1 0
    outer loop
      vertex 293.66 506 22.4619
      vertex 372.124 506 47.2646
      vertex 373.841 506 42.8033
    endloop
  endfacet
  facet normal 0 1 0
    outer loop
      vertex 346.314 506 84.2225
      vertex 287.823 506 40.6145
      vertex 284.883 506 47.4171
    endloop
  endfacet
  facet normal 0 1 0
    outer loop
      vertex 294.775 506 17.6224
      vertex 373.841 506 42.8033
      vertex 375.291 506 38.4623
    endloop
  endfacet
  facet normal 0 1 0
    outer loop
      vertex 294.775 506 17.6224
      vertex 375.291 506 38.4623
      vertex 376.495 506 34.2751
    endloop
  endfacet
  facet normal 0 1 0
    outer loop
      vertex 354.953 506 74.6725
      vertex 290.233 506 34.0959
      vertex 287.823 506 40.6145
    endloop
  endfacet
  facet normal 0 1 0
    outer loop
      vertex 295.556 506 13.6183
      vertex 376.495 506 34.2751
      vertex 377.478 506 30.2754
    endloop
  endfacet
  facet normal 0 1 0
    outer loop
      vertex 362.135 506 65.639
      vertex 292.163 506 27.9991
      vertex 290.233 506 34.0959
    endloop
  endfacet
  facet normal 0 1 0
    outer loop
      vertex 295.556 506 13.6183
      vertex 377.478 506 30.2754
      vertex 378.26 506 26.497
    endloop
  endfacet
  facet normal 0 1 0
    outer loop
      vertex 296.053 506 10.5876
      vertex 378.26 506 26.497
      vertex 378.864 506 22.9733
    endloop
  endfacet
  facet normal 0 1 0
    outer loop
      vertex 370.118 506 51.8125
      vertex 293.66 506 22.4619
      vertex 292.163 506 27.9991
    endloop
  endfacet
  facet normal 0 1 0
    outer loop
      vertex 296.053 506 10.5876
      vertex 378.864 506 22.9733
      vertex 379.314 506 19.7382
    endloop
  endfacet
  facet normal 0 1 0
    outer loop
      vertex 373.841 506 42.8033
      vertex 294.775 506 17.6224
      vertex 293.66 506 22.4619
    endloop
  endfacet
  facet normal 0 1 0
    outer loop
      vertex 296.315 506 8.668
      vertex 379.314 506 19.7382
      vertex 379.63 506 16.8253
    endloop
  endfacet
  facet normal 0 1 0
    outer loop
      vertex 296.392 506 7.99751
      vertex 379.63 506 16.8253
      vertex 379.837 506 14.2681
    endloop
  endfacet
  facet normal 0 1 0
    outer loop
      vertex 376.495 506 34.2751
      vertex 295.556 506 13.6183
      vertex 294.775 506 17.6224
    endloop
  endfacet
  facet normal 0 1 0
    outer loop
      vertex 296.392 506 7.99751
      vertex 379.837 506 14.2681
      vertex 379.955 506 12.1004
    endloop
  endfacet
  facet normal 0 1 0
    outer loop
      vertex 378.26 506 26.497
      vertex 296.053 506 10.5876
      vertex 295.556 506 13.6183
    endloop
  endfacet
  facet normal 0 1 0
    outer loop
      vertex 296.392 506 7.99751
      vertex 379.955 506 12.1004
      vertex 380.009 506 10.3559
    endloop
  endfacet
  facet normal 0 1 0
    outer loop
      vertex 296.392 506 7.99751
      vertex 380.009 506 10.3559
      vertex 380.019 506 9.06812
    endloop
  endfacet
  facet normal 0 1 0
    outer loop
      vertex 379.314 506 19.7382
      vertex 296.315 506 8.668
      vertex 296.053 506 10.5876
    endloop
  endfacet
  facet normal 0 1 0
    outer loop
      vertex 296.392 506 7.99751
      vertex 380.019 506 9.06812
      vertex 380.008 506 8.27077
    endloop
  endfacet
  facet normal 0 1 0
    outer loop
      vertex 296.392 506 7.99751
      vertex 380.008 506 8.27077
      vertex 380 506 7.99751
    endloop
  endfacet
  facet normal 0 1 0
    outer loop
      vertex 379.63 506 16.8253
      vertex 296.392 506 7.99751
      vertex 296.315 506 8.668
    endloop
  endfacet
  facet normal 0 1 -0
    outer loop
      vertex 146.876 506 81.8438
      vertex 121.201 506 134.041
      vertex 153.909 506 87.4122
    endloop
  endfacet
  facet normal 0 1 0
    outer loop
      vertex 121.201 506 134.041
      vertex 146.876 506 81.8438
      vertex 111.887 506 129.513
    endloop
  endfacet
  facet normal 0 1 0
    outer loop
      vertex 191.464 506 101.029
      vertex 200.65 506 108.081
      vertex 200.65 506 101.431
    endloop
  endfacet
  facet normal 0 1 0
    outer loop
      vertex 180.557 506 99.2089
      vertex 200.65 506 108.081
      vertex 191.464 506 101.029
    endloop
  endfacet
  facet normal 0 1 -0
    outer loop
      vertex 140.681 506 75.6954
      vertex 111.887 506 129.513
      vertex 146.876 506 81.8438
    endloop
  endfacet
  facet normal 0 1 0
    outer loop
      vertex 111.887 506 129.513
      vertex 140.681 506 75.6954
      vertex 103.054 506 124.795
    endloop
  endfacet
  facet normal 0 1 0
    outer loop
      vertex 103.054 506 124.795
      vertex 140.681 506 75.6954
      vertex 94.7262 506 119.952
    endloop
  endfacet
  facet normal 0 1 -0
    outer loop
      vertex 135.272 506 69.1099
      vertex 94.7262 506 119.952
      vertex 140.681 506 75.6954
    endloop
  endfacet
  facet normal 0 1 0
    outer loop
      vertex 94.7262 506 119.952
      vertex 135.272 506 69.1099
      vertex 86.9277 506 115.048
    endloop
  endfacet
  facet normal 0 1 -0
    outer loop
      vertex 130.595 506 62.2302
      vertex 86.9277 506 115.048
      vertex 135.272 506 69.1099
    endloop
  endfacet
  facet normal 0 1 0
    outer loop
      vertex 86.9277 506 115.048
      vertex 130.595 506 62.2302
      vertex 79.6823 506 110.149
    endloop
  endfacet
  facet normal 0 1 0
    outer loop
      vertex 79.6823 506 110.149
      vertex 130.595 506 62.2302
      vertex 73.0139 506 105.319
    endloop
  endfacet
  facet normal 0 1 -0
    outer loop
      vertex 126.6 506 55.1992
      vertex 73.0139 506 105.319
      vertex 130.595 506 62.2302
    endloop
  endfacet
  facet normal 0 1 0
    outer loop
      vertex 73.0139 506 105.319
      vertex 126.6 506 55.1992
      vertex 66.9467 506 100.624
    endloop
  endfacet
  facet normal 0 1 -0
    outer loop
      vertex 123.233 506 48.1597
      vertex 66.9467 506 100.624
      vertex 126.6 506 55.1992
    endloop
  endfacet
  facet normal 0 1 0
    outer loop
      vertex 66.9467 506 100.624
      vertex 123.233 506 48.1597
      vertex 61.5045 506 96.128
    endloop
  endfacet
  facet normal 0 1 0
    outer loop
      vertex 61.5045 506 96.128
      vertex 123.233 506 48.1597
      vertex 56.7113 506 91.896
    endloop
  endfacet
  facet normal 0 1 -0
    outer loop
      vertex 120.442 506 41.2546
      vertex 56.7113 506 91.896
      vertex 123.233 506 48.1597
    endloop
  endfacet
  facet normal 0 1 0
    outer loop
      vertex 56.7113 506 91.896
      vertex 120.442 506 41.2546
      vertex 52.5912 506 87.9928
    endloop
  endfacet
  facet normal 0 1 0
    outer loop
      vertex 52.5912 506 87.9928
      vertex 120.442 506 41.2546
      vertex 49.168 506 84.4835
    endloop
  endfacet
  facet normal 0 1 0
    outer loop
      vertex 49.168 506 84.4835
      vertex 120.442 506 41.2546
      vertex 46.4657 506 81.4329
    endloop
  endfacet
  facet normal 0 1 0
    outer loop
      vertex 46.4657 506 81.4329
      vertex 120.442 506 41.2546
      vertex 44.5083 506 78.9058
    endloop
  endfacet
  facet normal 0 1 0
    outer loop
      vertex 44.5083 506 78.9058
      vertex 120.442 506 41.2546
      vertex 42.7672 506 76.3425
    endloop
  endfacet
  facet normal 0 1 0
    outer loop
      vertex 42.7672 506 76.3425
      vertex 120.442 506 41.2546
      vertex 41.0153 506 73.5933
    endloop
  endfacet
  facet normal 0 1 -0
    outer loop
      vertex 118.176 506 34.6268
      vertex 41.0153 506 73.5933
      vertex 120.442 506 41.2546
    endloop
  endfacet
  facet normal 0 1 0
    outer loop
      vertex 41.0153 506 73.5933
      vertex 118.176 506 34.6268
      vertex 39.2689 506 70.6721
    endloop
  endfacet
  facet normal 0 1 0
    outer loop
      vertex 39.2689 506 70.6721
      vertex 118.176 506 34.6268
      vertex 37.5442 506 67.5927
    endloop
  endfacet
  facet normal 0 1 0
    outer loop
      vertex 37.5442 506 67.5927
      vertex 118.176 506 34.6268
      vertex 35.8576 506 64.3686
    endloop
  endfacet
  facet normal 0 1 0
    outer loop
      vertex 35.8576 506 64.3686
      vertex 118.176 506 34.6268
      vertex 34.2251 506 61.0138
    endloop
  endfacet
  facet normal 0 1 -0
    outer loop
      vertex 116.382 506 28.4191
      vertex 34.2251 506 61.0138
      vertex 118.176 506 34.6268
    endloop
  endfacet
  facet normal 0 1 0
    outer loop
      vertex 34.2251 506 61.0138
      vertex 116.382 506 28.4191
      vertex 32.6632 506 57.5418
    endloop
  endfacet
  facet normal 0 1 0
    outer loop
      vertex 32.6632 506 57.5418
      vertex 116.382 506 28.4191
      vertex 31.188 506 53.9664
    endloop
  endfacet
  facet normal 0 1 0
    outer loop
      vertex 31.188 506 53.9664
      vertex 116.382 506 28.4191
      vertex 29.8158 506 50.3014
    endloop
  endfacet
  facet normal 0 1 -0
    outer loop
      vertex 115.007 506 22.7745
      vertex 29.8158 506 50.3014
      vertex 116.382 506 28.4191
    endloop
  endfacet
  facet normal 0 1 0
    outer loop
      vertex 29.8158 506 50.3014
      vertex 115.007 506 22.7745
      vertex 28.5628 506 46.5605
    endloop
  endfacet
  facet normal 0 1 0
    outer loop
      vertex 28.5628 506 46.5605
      vertex 115.007 506 22.7745
      vertex 27.4452 506 42.7574
    endloop
  endfacet
  facet normal 0 1 0
    outer loop
      vertex 27.4452 506 42.7574
      vertex 115.007 506 22.7745
      vertex 26.4794 506 38.9059
    endloop
  endfacet
  facet normal 0 1 -0
    outer loop
      vertex 113.999 506 17.8358
      vertex 26.4794 506 38.9059
      vertex 115.007 506 22.7745
    endloop
  endfacet
  facet normal 0 1 0
    outer loop
      vertex 26.4794 506 38.9059
      vertex 113.999 506 17.8358
      vertex 25.6815 506 35.0197
    endloop
  endfacet
  facet normal 0 1 0
    outer loop
      vertex 25.6815 506 35.0197
      vertex 113.999 506 17.8358
      vertex 25.0679 506 31.1125
    endloop
  endfacet
  facet normal 0 1 0
    outer loop
      vertex 25.0679 506 31.1125
      vertex 113.999 506 17.8358
      vertex 24.6546 506 27.198
    endloop
  endfacet
  facet normal 0 1 0
    outer loop
      vertex 24.6546 506 27.198
      vertex 113.999 506 17.8358
      vertex 24.4581 506 23.29
    endloop
  endfacet
  facet normal 0 1 -0
    outer loop
      vertex 113.306 506 13.7458
      vertex 24.4581 506 23.29
      vertex 113.999 506 17.8358
    endloop
  endfacet
  facet normal 0 1 0
    outer loop
      vertex 24.4581 506 23.29
      vertex 113.306 506 13.7458
      vertex 24.4946 506 19.4022
    endloop
  endfacet
  facet normal 0 1 0
    outer loop
      vertex 24.4946 506 19.4022
      vertex 113.306 506 13.7458
      vertex 24.7802 506 15.5484
    endloop
  endfacet
  facet normal 0 1 0
    outer loop
      vertex 113.306 506 13.7458
      vertex 25.3312 506 11.7422
      vertex 24.7802 506 15.5484
    endloop
  endfacet
  facet normal 0 1 0
    outer loop
      vertex 26.1639 506 7.99751
      vertex 113.306 506 13.7458
      vertex 112.876 506 10.6476
    endloop
  endfacet
  facet normal 0 1 0
    outer loop
      vertex 26.1639 506 7.99751
      vertex 112.876 506 10.6476
      vertex 112.656 506 8.68384
    endloop
  endfacet
  facet normal 0 1 0
    outer loop
      vertex 26.1639 506 7.99751
      vertex 112.656 506 8.68384
      vertex 112.594 506 7.99751
    endloop
  endfacet
  facet normal 0 1 0
    outer loop
      vertex 113.306 506 13.7458
      vertex 26.1639 506 7.99751
      vertex 25.3312 506 11.7422
    endloop
  endfacet
  facet normal 0.105965 0 0.99437
    outer loop
      vertex 221.245 506 155.187
      vertex 232.243 499.65 154.015
      vertex 232.243 506 154.015
    endloop
  endfacet
  facet normal 0.105965 0 0.99437
    outer loop
      vertex 232.243 499.65 154.015
      vertex 221.245 506 155.187
      vertex 221.245 499.65 155.187
    endloop
  endfacet
  facet normal 0.180469 0 0.983581
    outer loop
      vertex 232.243 506 154.015
      vertex 242.789 499.65 152.08
      vertex 242.789 506 152.08
    endloop
  endfacet
  facet normal 0.180469 0 0.983581
    outer loop
      vertex 242.789 499.65 152.08
      vertex 232.243 506 154.015
      vertex 232.243 499.65 154.015
    endloop
  endfacet
  facet normal 0.251704 0 0.967804
    outer loop
      vertex 242.789 506 152.08
      vertex 252.886 499.65 149.454
      vertex 252.886 506 149.454
    endloop
  endfacet
  facet normal 0.251704 0 0.967804
    outer loop
      vertex 252.886 499.65 149.454
      vertex 242.789 506 152.08
      vertex 242.789 499.65 152.08
    endloop
  endfacet
  facet normal 0.318876 0 0.947796
    outer loop
      vertex 252.886 506 149.454
      vertex 262.543 499.65 146.205
      vertex 262.543 506 146.205
    endloop
  endfacet
  facet normal 0.318876 0 0.947796
    outer loop
      vertex 262.543 499.65 146.205
      vertex 252.886 506 149.454
      vertex 252.886 499.65 149.454
    endloop
  endfacet
  facet normal 0.381067 0 0.924547
    outer loop
      vertex 262.543 506 146.205
      vertex 271.765 499.65 142.404
      vertex 271.765 506 142.404
    endloop
  endfacet
  facet normal 0.381067 0 0.924547
    outer loop
      vertex 271.765 499.65 142.404
      vertex 262.543 506 146.205
      vertex 262.543 499.65 146.205
    endloop
  endfacet
  facet normal 0.437783 0 0.899081
    outer loop
      vertex 271.765 506 142.404
      vertex 280.559 499.65 138.122
      vertex 280.559 506 138.122
    endloop
  endfacet
  facet normal 0.437783 0 0.899081
    outer loop
      vertex 280.559 499.65 138.122
      vertex 271.765 506 142.404
      vertex 271.765 499.65 142.404
    endloop
  endfacet
  facet normal 0.489098 0 0.872229
    outer loop
      vertex 280.559 506 138.122
      vertex 288.93 499.65 133.428
      vertex 288.93 506 133.428
    endloop
  endfacet
  facet normal 0.489098 0 0.872229
    outer loop
      vertex 288.93 499.65 133.428
      vertex 280.559 506 138.122
      vertex 280.559 499.65 138.122
    endloop
  endfacet
  facet normal 0.53484 0 0.844953
    outer loop
      vertex 288.93 506 133.428
      vertex 296.886 499.65 128.392
      vertex 296.886 506 128.392
    endloop
  endfacet
  facet normal 0.53484 0 0.844953
    outer loop
      vertex 296.886 499.65 128.392
      vertex 288.93 506 133.428
      vertex 288.93 499.65 133.428
    endloop
  endfacet
  facet normal 0.575316 0 0.817931
    outer loop
      vertex 296.886 506 128.392
      vertex 304.431 499.65 123.085
      vertex 304.431 506 123.085
    endloop
  endfacet
  facet normal 0.575316 0 0.817931
    outer loop
      vertex 304.431 499.65 123.085
      vertex 296.886 506 128.392
      vertex 296.886 499.65 128.392
    endloop
  endfacet
  facet normal 0.610712 0 0.791853
    outer loop
      vertex 304.431 506 123.085
      vertex 311.574 499.65 117.576
      vertex 311.574 506 117.576
    endloop
  endfacet
  facet normal 0.610712 0 0.791853
    outer loop
      vertex 311.574 499.65 117.576
      vertex 304.431 506 123.085
      vertex 304.431 499.65 123.085
    endloop
  endfacet
  facet normal 0.641414 0 0.767195
    outer loop
      vertex 311.574 506 117.576
      vertex 318.32 499.65 111.936
      vertex 318.32 506 111.936
    endloop
  endfacet
  facet normal 0.641414 0 0.767195
    outer loop
      vertex 318.32 499.65 111.936
      vertex 311.574 506 117.576
      vertex 311.574 499.65 117.576
    endloop
  endfacet
  facet normal 0.667767 0 0.744371
    outer loop
      vertex 318.32 506 111.936
      vertex 324.675 499.65 106.235
      vertex 324.675 506 106.235
    endloop
  endfacet
  facet normal 0.667767 0 0.744371
    outer loop
      vertex 324.675 499.65 106.235
      vertex 318.32 506 111.936
      vertex 318.32 499.65 111.936
    endloop
  endfacet
  facet normal 0.690055 0 0.723757
    outer loop
      vertex 324.675 506 106.235
      vertex 330.645 499.65 100.543
      vertex 330.645 506 100.543
    endloop
  endfacet
  facet normal 0.690055 0 0.723757
    outer loop
      vertex 330.645 499.65 100.543
      vertex 324.675 506 106.235
      vertex 324.675 499.65 106.235
    endloop
  endfacet
  facet normal 0.708343 -0 0.705869
    outer loop
      vertex 330.645 499.65 100.543
      vertex 336.238 506 94.9304
      vertex 330.645 506 100.543
    endloop
  endfacet
  facet normal 0.708343 0 0.705869
    outer loop
      vertex 336.238 506 94.9304
      vertex 330.645 499.65 100.543
      vertex 336.238 499.65 94.9304
    endloop
  endfacet
  facet normal 0.723042 -0 0.690804
    outer loop
      vertex 336.238 499.65 94.9304
      vertex 341.458 506 89.4668
      vertex 336.238 506 94.9304
    endloop
  endfacet
  facet normal 0.723042 0 0.690804
    outer loop
      vertex 341.458 506 89.4668
      vertex 336.238 499.65 94.9304
      vertex 341.458 499.65 89.4668
    endloop
  endfacet
  facet normal 0.733749 -0 0.679421
    outer loop
      vertex 341.458 499.65 89.4668
      vertex 346.314 506 84.2225
      vertex 341.458 506 89.4668
    endloop
  endfacet
  facet normal 0.733749 0 0.679421
    outer loop
      vertex 346.314 506 84.2225
      vertex 341.458 499.65 89.4668
      vertex 346.314 499.65 84.2225
    endloop
  endfacet
  facet normal 0.740562 -0 0.671988
    outer loop
      vertex 346.314 499.65 84.2225
      vertex 350.81 506 79.2677
      vertex 346.314 506 84.2225
    endloop
  endfacet
  facet normal 0.740562 0 0.671988
    outer loop
      vertex 350.81 506 79.2677
      vertex 346.314 499.65 84.2225
      vertex 350.81 499.65 79.2677
    endloop
  endfacet
  facet normal 0.742706 -0 0.669618
    outer loop
      vertex 350.81 499.65 79.2677
      vertex 354.953 506 74.6725
      vertex 350.81 506 79.2677
    endloop
  endfacet
  facet normal 0.742706 0 0.669618
    outer loop
      vertex 354.953 506 74.6725
      vertex 350.81 499.65 79.2677
      vertex 354.953 499.65 74.6725
    endloop
  endfacet
  facet normal 0.762991 -0 0.646409
    outer loop
      vertex 354.953 499.65 74.6725
      vertex 358.745 506 70.1966
      vertex 354.953 506 74.6725
    endloop
  endfacet
  facet normal 0.762991 0 0.646409
    outer loop
      vertex 358.745 506 70.1966
      vertex 354.953 499.65 74.6725
      vertex 358.745 499.65 70.1966
    endloop
  endfacet
  facet normal 0.802377 -0 0.596818
    outer loop
      vertex 358.745 499.65 70.1966
      vertex 362.135 506 65.639
      vertex 358.745 506 70.1966
    endloop
  endfacet
  facet normal 0.802377 0 0.596818
    outer loop
      vertex 362.135 506 65.639
      vertex 358.745 499.65 70.1966
      vertex 362.135 499.65 65.639
    endloop
  endfacet
  facet normal 0.837088 -0 0.547069
    outer loop
      vertex 362.135 499.65 65.639
      vertex 365.145 506 61.0333
      vertex 362.135 506 65.639
    endloop
  endfacet
  facet normal 0.837088 0 0.547069
    outer loop
      vertex 365.145 506 61.0333
      vertex 362.135 499.65 65.639
      vertex 365.145 499.65 61.0333
    endloop
  endfacet
  facet normal 0.867109 -0 0.498118
    outer loop
      vertex 365.145 499.65 61.0333
      vertex 367.799 506 56.4133
      vertex 365.145 506 61.0333
    endloop
  endfacet
  facet normal 0.867109 0 0.498118
    outer loop
      vertex 367.799 506 56.4133
      vertex 365.145 499.65 61.0333
      vertex 367.799 499.65 56.4133
    endloop
  endfacet
  facet normal 0.892978 -0 0.450099
    outer loop
      vertex 367.799 499.65 56.4133
      vertex 370.118 506 51.8125
      vertex 367.799 506 56.4133
    endloop
  endfacet
  facet normal 0.892978 0 0.450099
    outer loop
      vertex 370.118 506 51.8125
      vertex 367.799 499.65 56.4133
      vertex 370.118 499.65 51.8125
    endloop
  endfacet
  facet normal 0.914949 -0 0.403568
    outer loop
      vertex 370.118 499.65 51.8125
      vertex 372.124 506 47.2646
      vertex 370.118 506 51.8125
    endloop
  endfacet
  facet normal 0.914949 0 0.403568
    outer loop
      vertex 372.124 506 47.2646
      vertex 370.118 499.65 51.8125
      vertex 372.124 499.65 47.2646
    endloop
  endfacet
  facet normal 0.933267 -0 0.359182
    outer loop
      vertex 372.124 499.65 47.2646
      vertex 373.841 506 42.8033
      vertex 372.124 506 47.2646
    endloop
  endfacet
  facet normal 0.933267 0 0.359182
    outer loop
      vertex 373.841 506 42.8033
      vertex 372.124 499.65 47.2646
      vertex 373.841 499.65 42.8033
    endloop
  endfacet
  facet normal 0.948486 -0 0.316818
    outer loop
      vertex 373.841 499.65 42.8033
      vertex 375.291 506 38.4623
      vertex 373.841 506 42.8033
    endloop
  endfacet
  facet normal 0.948486 0 0.316818
    outer loop
      vertex 375.291 506 38.4623
      vertex 373.841 499.65 42.8033
      vertex 375.291 499.65 38.4623
    endloop
  endfacet
  facet normal 0.961058 -0 0.276346
    outer loop
      vertex 375.291 499.65 38.4623
      vertex 376.495 506 34.2751
      vertex 375.291 506 38.4623
    endloop
  endfacet
  facet normal 0.961058 0 0.276346
    outer loop
      vertex 376.495 506 34.2751
      vertex 375.291 499.65 38.4623
      vertex 376.495 499.65 34.2751
    endloop
  endfacet
  facet normal 0.971102 -0 0.238666
    outer loop
      vertex 376.495 499.65 34.2751
      vertex 377.478 506 30.2754
      vertex 376.495 506 34.2751
    endloop
  endfacet
  facet normal 0.971102 0 0.238666
    outer loop
      vertex 377.478 506 30.2754
      vertex 376.495 499.65 34.2751
      vertex 377.478 499.65 30.2754
    endloop
  endfacet
  facet normal 0.979247 -0 0.202671
    outer loop
      vertex 377.478 499.65 30.2754
      vertex 378.26 506 26.497
      vertex 377.478 506 30.2754
    endloop
  endfacet
  facet normal 0.979247 0 0.202671
    outer loop
      vertex 378.26 506 26.497
      vertex 377.478 499.65 30.2754
      vertex 378.26 499.65 26.497
    endloop
  endfacet
  facet normal 0.985625 -0 0.168947
    outer loop
      vertex 378.26 499.65 26.497
      vertex 378.864 506 22.9733
      vertex 378.26 506 26.497
    endloop
  endfacet
  facet normal 0.985625 0 0.168947
    outer loop
      vertex 378.864 506 22.9733
      vertex 378.26 499.65 26.497
      vertex 378.864 499.65 22.9733
    endloop
  endfacet
  facet normal 0.990464 -0 0.137773
    outer loop
      vertex 378.864 499.65 22.9733
      vertex 379.314 506 19.7382
      vertex 378.864 506 22.9733
    endloop
  endfacet
  facet normal 0.990464 0 0.137773
    outer loop
      vertex 379.314 506 19.7382
      vertex 378.864 499.65 22.9733
      vertex 379.314 499.65 19.7382
    endloop
  endfacet
  facet normal 0.994167 -0 0.10785
    outer loop
      vertex 379.314 499.65 19.7382
      vertex 379.63 506 16.8253
      vertex 379.314 506 19.7382
    endloop
  endfacet
  facet normal 0.994167 0 0.10785
    outer loop
      vertex 379.63 506 16.8253
      vertex 379.314 499.65 19.7382
      vertex 379.63 499.65 16.8253
    endloop
  endfacet
  facet normal 0.99674 -0 0.080684
    outer loop
      vertex 379.63 499.65 16.8253
      vertex 379.837 506 14.2681
      vertex 379.63 506 16.8253
    endloop
  endfacet
  facet normal 0.99674 0 0.080684
    outer loop
      vertex 379.837 506 14.2681
      vertex 379.63 499.65 16.8253
      vertex 379.837 499.65 14.2681
    endloop
  endfacet
  facet normal 0.998522 -0 0.0543551
    outer loop
      vertex 379.837 499.65 14.2681
      vertex 379.955 506 12.1004
      vertex 379.837 506 14.2681
    endloop
  endfacet
  facet normal 0.998522 0 0.0543551
    outer loop
      vertex 379.955 506 12.1004
      vertex 379.837 499.65 14.2681
      vertex 379.955 499.65 12.1004
    endloop
  endfacet
  facet normal 0.999521 -0 0.0309396
    outer loop
      vertex 379.955 499.65 12.1004
      vertex 380.009 506 10.3559
      vertex 379.955 506 12.1004
    endloop
  endfacet
  facet normal 0.999521 0 0.0309396
    outer loop
      vertex 380.009 506 10.3559
      vertex 379.955 499.65 12.1004
      vertex 380.009 499.65 10.3559
    endloop
  endfacet
  facet normal 0.99997 -0 0.00776507
    outer loop
      vertex 380.009 499.65 10.3559
      vertex 380.019 506 9.06812
      vertex 380.009 506 10.3559
    endloop
  endfacet
  facet normal 0.99997 0 0.00776507
    outer loop
      vertex 380.019 506 9.06812
      vertex 380.009 499.65 10.3559
      vertex 380.019 499.65 9.06812
    endloop
  endfacet
  facet normal 0.999905 0 -0.0137944
    outer loop
      vertex 380.019 499.65 9.06812
      vertex 380.008 506 8.27077
      vertex 380.019 506 9.06812
    endloop
  endfacet
  facet normal 0.999905 0 -0.0137944
    outer loop
      vertex 380.008 506 8.27077
      vertex 380.019 499.65 9.06812
      vertex 380.008 499.65 8.27077
    endloop
  endfacet
  facet normal 0.999572 0 -0.0292636
    outer loop
      vertex 380.008 499.65 8.27077
      vertex 380 506 7.99751
      vertex 380.008 506 8.27077
    endloop
  endfacet
  facet normal 0.999572 0 -0.0292636
    outer loop
      vertex 380 506 7.99751
      vertex 380.008 499.65 8.27077
      vertex 380 499.65 7.99751
    endloop
  endfacet
  facet normal 0 0 -1
    outer loop
      vertex 296.392 499.65 7.99751
      vertex 380 506 7.99751
      vertex 380 499.65 7.99751
    endloop
  endfacet
  facet normal -0 0 -1
    outer loop
      vertex 380 506 7.99751
      vertex 296.392 499.65 7.99751
      vertex 296.392 506 7.99751
    endloop
  endfacet
  facet normal -0.99347 0 -0.114091
    outer loop
      vertex 296.392 499.65 7.99751
      vertex 296.315 506 8.668
      vertex 296.392 506 7.99751
    endloop
  endfacet
  facet normal -0.99347 -0 -0.114091
    outer loop
      vertex 296.315 506 8.668
      vertex 296.392 499.65 7.99751
      vertex 296.315 499.65 8.668
    endloop
  endfacet
  facet normal -0.990814 0 -0.135233
    outer loop
      vertex 296.315 499.65 8.668
      vertex 296.053 506 10.5876
      vertex 296.315 506 8.668
    endloop
  endfacet
  facet normal -0.990814 -0 -0.135233
    outer loop
      vertex 296.053 506 10.5876
      vertex 296.315 499.65 8.668
      vertex 296.053 499.65 10.5876
    endloop
  endfacet
  facet normal -0.986819 0 -0.161827
    outer loop
      vertex 296.053 499.65 10.5876
      vertex 295.556 506 13.6183
      vertex 296.053 506 10.5876
    endloop
  endfacet
  facet normal -0.986819 -0 -0.161827
    outer loop
      vertex 295.556 506 13.6183
      vertex 296.053 499.65 10.5876
      vertex 295.556 499.65 13.6183
    endloop
  endfacet
  facet normal -0.981504 0 -0.191442
    outer loop
      vertex 295.556 499.65 13.6183
      vertex 294.775 506 17.6224
      vertex 295.556 506 13.6183
    endloop
  endfacet
  facet normal -0.981504 -0 -0.191442
    outer loop
      vertex 294.775 506 17.6224
      vertex 295.556 499.65 13.6183
      vertex 294.775 499.65 17.6224
    endloop
  endfacet
  facet normal -0.974471 0 -0.224514
    outer loop
      vertex 294.775 499.65 17.6224
      vertex 293.66 506 22.4619
      vertex 294.775 506 17.6224
    endloop
  endfacet
  facet normal -0.974471 -0 -0.224514
    outer loop
      vertex 293.66 506 22.4619
      vertex 294.775 499.65 17.6224
      vertex 293.66 499.65 22.4619
    endloop
  endfacet
  facet normal -0.965343 0 -0.260984
    outer loop
      vertex 293.66 499.65 22.4619
      vertex 292.163 506 27.9991
      vertex 293.66 506 22.4619
    endloop
  endfacet
  facet normal -0.965343 -0 -0.260984
    outer loop
      vertex 292.163 506 27.9991
      vertex 293.66 499.65 22.4619
      vertex 292.163 499.65 27.9991
    endloop
  endfacet
  facet normal -0.953372 0 -0.301799
    outer loop
      vertex 292.163 499.65 27.9991
      vertex 290.233 506 34.0959
      vertex 292.163 506 27.9991
    endloop
  endfacet
  facet normal -0.953372 -0 -0.301799
    outer loop
      vertex 290.233 506 34.0959
      vertex 292.163 499.65 27.9991
      vertex 290.233 499.65 34.0959
    endloop
  endfacet
  facet normal -0.93795 0 -0.346771
    outer loop
      vertex 290.233 499.65 34.0959
      vertex 287.823 506 40.6145
      vertex 290.233 506 34.0959
    endloop
  endfacet
  facet normal -0.93795 -0 -0.346771
    outer loop
      vertex 287.823 506 40.6145
      vertex 290.233 499.65 34.0959
      vertex 287.823 499.65 40.6145
    endloop
  endfacet
  facet normal -0.917939 0 -0.396722
    outer loop
      vertex 287.823 499.65 40.6145
      vertex 284.883 506 47.4171
      vertex 287.823 506 40.6145
    endloop
  endfacet
  facet normal -0.917939 -0 -0.396722
    outer loop
      vertex 284.883 506 47.4171
      vertex 287.823 499.65 40.6145
      vertex 284.883 499.65 47.4171
    endloop
  endfacet
  facet normal -0.892068 0 -0.451901
    outer loop
      vertex 284.883 499.65 47.4171
      vertex 281.363 506 54.3657
      vertex 284.883 506 47.4171
    endloop
  endfacet
  facet normal -0.892068 -0 -0.451901
    outer loop
      vertex 281.363 506 54.3657
      vertex 284.883 499.65 47.4171
      vertex 281.363 499.65 54.3657
    endloop
  endfacet
  facet normal -0.858913 0 -0.512121
    outer loop
      vertex 281.363 499.65 54.3657
      vertex 277.215 506 61.3226
      vertex 281.363 506 54.3657
    endloop
  endfacet
  facet normal -0.858913 -0 -0.512121
    outer loop
      vertex 277.215 506 61.3226
      vertex 281.363 499.65 54.3657
      vertex 277.215 499.65 61.3226
    endloop
  endfacet
  facet normal -0.816584 0 -0.577226
    outer loop
      vertex 277.215 499.65 61.3226
      vertex 272.389 506 68.1498
      vertex 277.215 506 61.3226
    endloop
  endfacet
  facet normal -0.816584 -0 -0.577226
    outer loop
      vertex 272.389 506 68.1498
      vertex 277.215 499.65 61.3226
      vertex 272.389 499.65 68.1498
    endloop
  endfacet
  facet normal -0.763181 0 -0.646184
    outer loop
      vertex 272.389 499.65 68.1498
      vertex 266.835 506 74.7094
      vertex 272.389 506 68.1498
    endloop
  endfacet
  facet normal -0.763181 -0 -0.646184
    outer loop
      vertex 266.835 506 74.7094
      vertex 272.389 499.65 68.1498
      vertex 266.835 499.65 74.7094
    endloop
  endfacet
  facet normal -0.697137 0 -0.716938
    outer loop
      vertex 260.506 499.65 80.8636
      vertex 266.835 506 74.7094
      vertex 266.835 499.65 74.7094
    endloop
  endfacet
  facet normal -0.697137 0 -0.716938
    outer loop
      vertex 266.835 506 74.7094
      vertex 260.506 499.65 80.8636
      vertex 260.506 506 80.8636
    endloop
  endfacet
  facet normal -0.617088 0 -0.786894
    outer loop
      vertex 253.351 499.65 86.4746
      vertex 260.506 506 80.8636
      vertex 260.506 499.65 80.8636
    endloop
  endfacet
  facet normal -0.617088 0 -0.786894
    outer loop
      vertex 260.506 506 80.8636
      vertex 253.351 499.65 86.4746
      vertex 253.351 506 86.4746
    endloop
  endfacet
  facet normal -0.523186 0 -0.852219
    outer loop
      vertex 245.321 499.65 91.4043
      vertex 253.351 506 86.4746
      vertex 253.351 499.65 86.4746
    endloop
  endfacet
  facet normal -0.523186 0 -0.852219
    outer loop
      vertex 253.351 506 86.4746
      vertex 245.321 499.65 91.4043
      vertex 245.321 506 91.4043
    endloop
  endfacet
  facet normal -0.417224 0 -0.908804
    outer loop
      vertex 236.367 499.65 95.515
      vertex 245.321 506 91.4043
      vertex 245.321 499.65 91.4043
    endloop
  endfacet
  facet normal -0.417224 0 -0.908804
    outer loop
      vertex 245.321 506 91.4043
      vertex 236.367 499.65 95.515
      vertex 236.367 506 95.515
    endloop
  endfacet
  facet normal -0.302786 0 -0.953059
    outer loop
      vertex 226.44 499.65 98.6688
      vertex 236.367 506 95.515
      vertex 236.367 499.65 95.515
    endloop
  endfacet
  facet normal -0.302786 0 -0.953059
    outer loop
      vertex 236.367 506 95.515
      vertex 226.44 499.65 98.6688
      vertex 226.44 506 98.6688
    endloop
  endfacet
  facet normal -0.184832 0 -0.98277
    outer loop
      vertex 215.491 499.65 100.728
      vertex 226.44 506 98.6688
      vertex 226.44 499.65 98.6688
    endloop
  endfacet
  facet normal -0.184832 0 -0.98277
    outer loop
      vertex 226.44 506 98.6688
      vertex 215.491 499.65 100.728
      vertex 215.491 506 100.728
    endloop
  endfacet
  facet normal -0.0686166 0 -0.997643
    outer loop
      vertex 207 499.65 101.312
      vertex 215.491 506 100.728
      vertex 215.491 499.65 100.728
    endloop
  endfacet
  facet normal -0.0686166 0 -0.997643
    outer loop
      vertex 215.491 506 100.728
      vertex 207 499.65 101.312
      vertex 207 506 101.312
    endloop
  endfacet
  facet normal 0.0437204 0 -0.999044
    outer loop
      vertex 191.464 499.65 101.029
      vertex 200.65 506 101.431
      vertex 200.65 499.65 101.431
    endloop
  endfacet
  facet normal 0.0437204 0 -0.999044
    outer loop
      vertex 200.65 506 101.431
      vertex 191.464 499.65 101.029
      vertex 191.464 506 101.029
    endloop
  endfacet
  facet normal 0.164598 0 -0.986361
    outer loop
      vertex 180.557 499.65 99.2089
      vertex 191.464 506 101.029
      vertex 191.464 499.65 101.029
    endloop
  endfacet
  facet normal 0.164598 0 -0.986361
    outer loop
      vertex 191.464 506 101.029
      vertex 180.557 499.65 99.2089
      vertex 180.557 506 99.2089
    endloop
  endfacet
  facet normal 0.288533 0 -0.95747
    outer loop
      vertex 170.697 499.65 96.2376
      vertex 180.557 506 99.2089
      vertex 180.557 499.65 99.2089
    endloop
  endfacet
  facet normal 0.288533 0 -0.95747
    outer loop
      vertex 180.557 506 99.2089
      vertex 170.697 499.65 96.2376
      vertex 170.697 506 96.2376
    endloop
  endfacet
  facet normal 0.409556 0 -0.912285
    outer loop
      vertex 161.832 499.65 92.2578
      vertex 170.697 506 96.2376
      vertex 170.697 499.65 96.2376
    endloop
  endfacet
  facet normal 0.409556 0 -0.912285
    outer loop
      vertex 170.697 506 96.2376
      vertex 161.832 499.65 92.2578
      vertex 161.832 506 92.2578
    endloop
  endfacet
  facet normal 0.521745 0 -0.853101
    outer loop
      vertex 153.909 499.65 87.4122
      vertex 161.832 506 92.2578
      vertex 161.832 499.65 92.2578
    endloop
  endfacet
  facet normal 0.521745 0 -0.853101
    outer loop
      vertex 161.832 506 92.2578
      vertex 153.909 499.65 87.4122
      vertex 153.909 506 87.4122
    endloop
  endfacet
  facet normal 0.620745 0 -0.784013
    outer loop
      vertex 146.876 499.65 81.8438
      vertex 153.909 506 87.4122
      vertex 153.909 499.65 87.4122
    endloop
  endfacet
  facet normal 0.620745 0 -0.784013
    outer loop
      vertex 153.909 506 87.4122
      vertex 146.876 499.65 81.8438
      vertex 146.876 506 81.8438
    endloop
  endfacet
  facet normal 0.704432 0 -0.709771
    outer loop
      vertex 140.681 499.65 75.6954
      vertex 146.876 506 81.8438
      vertex 146.876 499.65 81.8438
    endloop
  endfacet
  facet normal 0.704432 0 -0.709771
    outer loop
      vertex 146.876 506 81.8438
      vertex 140.681 499.65 75.6954
      vertex 140.681 506 75.6954
    endloop
  endfacet
  facet normal 0.772756 0 -0.634703
    outer loop
      vertex 140.681 499.65 75.6954
      vertex 135.272 506 69.1099
      vertex 140.681 506 75.6954
    endloop
  endfacet
  facet normal 0.772756 0 -0.634703
    outer loop
      vertex 135.272 506 69.1099
      vertex 140.681 499.65 75.6954
      vertex 135.272 499.65 69.1099
    endloop
  endfacet
  facet normal 0.826993 0 -0.562212
    outer loop
      vertex 135.272 499.65 69.1099
      vertex 130.595 506 62.2302
      vertex 135.272 506 69.1099
    endloop
  endfacet
  facet normal 0.826993 0 -0.562212
    outer loop
      vertex 130.595 506 62.2302
      vertex 135.272 499.65 69.1099
      vertex 130.595 499.65 62.2302
    endloop
  endfacet
  facet normal 0.869451 0 -0.49402
    outer loop
      vertex 130.595 499.65 62.2302
      vertex 126.6 506 55.1992
      vertex 130.595 506 62.2302
    endloop
  endfacet
  facet normal 0.869451 0 -0.49402
    outer loop
      vertex 126.6 506 55.1992
      vertex 130.595 499.65 62.2302
      vertex 126.6 499.65 55.1992
    endloop
  endfacet
  facet normal 0.90212 0 -0.431485
    outer loop
      vertex 126.6 499.65 55.1992
      vertex 123.233 506 48.1597
      vertex 126.6 506 55.1992
    endloop
  endfacet
  facet normal 0.90212 0 -0.431485
    outer loop
      vertex 123.233 506 48.1597
      vertex 126.6 499.65 55.1992
      vertex 123.233 499.65 48.1597
    endloop
  endfacet
  facet normal 0.92713 0 -0.37474
    outer loop
      vertex 123.233 499.65 48.1597
      vertex 120.442 506 41.2546
      vertex 123.233 506 48.1597
    endloop
  endfacet
  facet normal 0.92713 0 -0.37474
    outer loop
      vertex 120.442 506 41.2546
      vertex 123.233 499.65 48.1597
      vertex 120.442 499.65 41.2546
    endloop
  endfacet
  facet normal 0.946225 0 -0.323508
    outer loop
      vertex 120.442 499.65 41.2546
      vertex 118.176 506 34.6268
      vertex 120.442 506 41.2546
    endloop
  endfacet
  facet normal 0.946225 0 -0.323508
    outer loop
      vertex 118.176 506 34.6268
      vertex 120.442 499.65 41.2546
      vertex 118.176 499.65 34.6268
    endloop
  endfacet
  facet normal 0.960687 0 -0.277635
    outer loop
      vertex 118.176 499.65 34.6268
      vertex 116.382 506 28.4191
      vertex 118.176 506 34.6268
    endloop
  endfacet
  facet normal 0.960687 0 -0.277635
    outer loop
      vertex 116.382 506 28.4191
      vertex 118.176 499.65 34.6268
      vertex 116.382 499.65 28.4191
    endloop
  endfacet
  facet normal 0.971589 0 -0.236675
    outer loop
      vertex 116.382 499.65 28.4191
      vertex 115.007 506 22.7745
      vertex 116.382 506 28.4191
    endloop
  endfacet
  facet normal 0.971589 0 -0.236675
    outer loop
      vertex 115.007 506 22.7745
      vertex 116.382 499.65 28.4191
      vertex 115.007 499.65 22.7745
    endloop
  endfacet
  facet normal 0.9798 0 -0.199979
    outer loop
      vertex 115.007 499.65 22.7745
      vertex 113.999 506 17.8358
      vertex 115.007 506 22.7745
    endloop
  endfacet
  facet normal 0.9798 0 -0.199979
    outer loop
      vertex 113.999 506 17.8358
      vertex 115.007 499.65 22.7745
      vertex 113.999 499.65 17.8358
    endloop
  endfacet
  facet normal 0.985947 0 -0.167057
    outer loop
      vertex 113.999 499.65 17.8358
      vertex 113.306 506 13.7458
      vertex 113.999 506 17.8358
    endloop
  endfacet
  facet normal 0.985947 0 -0.167057
    outer loop
      vertex 113.306 506 13.7458
      vertex 113.999 499.65 17.8358
      vertex 113.306 499.65 13.7458
    endloop
  endfacet
  facet normal 0.990506 0 -0.137473
    outer loop
      vertex 113.306 499.65 13.7458
      vertex 112.876 506 10.6476
      vertex 113.306 506 13.7458
    endloop
  endfacet
  facet normal 0.990506 0 -0.137473
    outer loop
      vertex 112.876 506 10.6476
      vertex 113.306 499.65 13.7458
      vertex 112.876 499.65 10.6476
    endloop
  endfacet
  facet normal 0.993783 0 -0.111334
    outer loop
      vertex 112.876 499.65 10.6476
      vertex 112.656 506 8.68384
      vertex 112.876 506 10.6476
    endloop
  endfacet
  facet normal 0.993783 0 -0.111334
    outer loop
      vertex 112.656 506 8.68384
      vertex 112.876 499.65 10.6476
      vertex 112.656 499.65 8.68384
    endloop
  endfacet
  facet normal 0.995945 0 -0.0899692
    outer loop
      vertex 112.656 499.65 8.68384
      vertex 112.594 506 7.99751
      vertex 112.656 506 8.68384
    endloop
  endfacet
  facet normal 0.995945 0 -0.0899692
    outer loop
      vertex 112.594 506 7.99751
      vertex 112.656 499.65 8.68384
      vertex 112.594 499.65 7.99751
    endloop
  endfacet
  facet normal 0 0 -1
    outer loop
      vertex 26.1639 499.65 7.99751
      vertex 112.594 506 7.99751
      vertex 112.594 499.65 7.99751
    endloop
  endfacet
  facet normal -0 0 -1
    outer loop
      vertex 112.594 506 7.99751
      vertex 26.1639 499.65 7.99751
      vertex 26.1639 506 7.99751
    endloop
  endfacet
  facet normal -0.976157 0 -0.217066
    outer loop
      vertex 26.1639 499.65 7.99751
      vertex 25.3312 506 11.7422
      vertex 26.1639 506 7.99751
    endloop
  endfacet
  facet normal -0.976157 -0 -0.217066
    outer loop
      vertex 25.3312 506 11.7422
      vertex 26.1639 499.65 7.99751
      vertex 25.3312 499.65 11.7422
    endloop
  endfacet
  facet normal -0.989684 0 -0.14327
    outer loop
      vertex 25.3312 499.65 11.7422
      vertex 24.7802 506 15.5484
      vertex 25.3312 506 11.7422
    endloop
  endfacet
  facet normal -0.989684 -0 -0.14327
    outer loop
      vertex 24.7802 506 15.5484
      vertex 25.3312 499.65 11.7422
      vertex 24.7802 499.65 15.5484
    endloop
  endfacet
  facet normal -0.997265 0 -0.073906
    outer loop
      vertex 24.7802 499.65 15.5484
      vertex 24.4946 506 19.4022
      vertex 24.7802 506 15.5484
    endloop
  endfacet
  facet normal -0.997265 -0 -0.073906
    outer loop
      vertex 24.4946 506 19.4022
      vertex 24.7802 499.65 15.5484
      vertex 24.4946 499.65 19.4022
    endloop
  endfacet
  facet normal -0.999956 0 -0.00938793
    outer loop
      vertex 24.4946 499.65 19.4022
      vertex 24.4581 506 23.29
      vertex 24.4946 506 19.4022
    endloop
  endfacet
  facet normal -0.999956 -0 -0.00938793
    outer loop
      vertex 24.4581 506 23.29
      vertex 24.4946 499.65 19.4022
      vertex 24.4581 499.65 23.29
    endloop
  endfacet
  facet normal -0.998738 0 0.050218
    outer loop
      vertex 24.4581 499.65 23.29
      vertex 24.6546 506 27.198
      vertex 24.4581 506 23.29
    endloop
  endfacet
  facet normal -0.998738 0 0.050218
    outer loop
      vertex 24.6546 506 27.198
      vertex 24.4581 499.65 23.29
      vertex 24.6546 499.65 27.198
    endloop
  endfacet
  facet normal -0.994472 0 0.104998
    outer loop
      vertex 24.6546 499.65 27.198
      vertex 25.0679 506 31.1125
      vertex 24.6546 506 27.198
    endloop
  endfacet
  facet normal -0.994472 0 0.104998
    outer loop
      vertex 25.0679 506 31.1125
      vertex 24.6546 499.65 27.198
      vertex 25.0679 499.65 31.1125
    endloop
  endfacet
  facet normal -0.987892 0 0.155142
    outer loop
      vertex 25.0679 499.65 31.1125
      vertex 25.6815 506 35.0197
      vertex 25.0679 506 31.1125
    endloop
  endfacet
  facet normal -0.987892 0 0.155142
    outer loop
      vertex 25.6815 506 35.0197
      vertex 25.0679 499.65 31.1125
      vertex 25.6815 499.65 35.0197
    endloop
  endfacet
  facet normal -0.979566 0 0.201121
    outer loop
      vertex 25.6815 499.65 35.0197
      vertex 26.4794 506 38.9059
      vertex 25.6815 506 35.0197
    endloop
  endfacet
  facet normal -0.979566 0 0.201121
    outer loop
      vertex 26.4794 506 38.9059
      vertex 25.6815 499.65 35.0197
      vertex 26.4794 499.65 38.9059
    endloop
  endfacet
  facet normal -0.969969 0 0.243229
    outer loop
      vertex 26.4794 499.65 38.9059
      vertex 27.4452 506 42.7574
      vertex 26.4794 506 38.9059
    endloop
  endfacet
  facet normal -0.969969 0 0.243229
    outer loop
      vertex 27.4452 506 42.7574
      vertex 26.4794 499.65 38.9059
      vertex 27.4452 499.65 42.7574
    endloop
  endfacet
  facet normal -0.959431 0 0.281944
    outer loop
      vertex 27.4452 499.65 42.7574
      vertex 28.5628 506 46.5605
      vertex 27.4452 506 42.7574
    endloop
  endfacet
  facet normal -0.959431 0 0.281944
    outer loop
      vertex 28.5628 506 46.5605
      vertex 27.4452 499.65 42.7574
      vertex 28.5628 499.65 46.5605
    endloop
  endfacet
  facet normal -0.948224 0 0.317604
    outer loop
      vertex 28.5628 499.65 46.5605
      vertex 29.8158 506 50.3014
      vertex 28.5628 506 46.5605
    endloop
  endfacet
  facet normal -0.948224 0 0.317604
    outer loop
      vertex 29.8158 506 50.3014
      vertex 28.5628 499.65 46.5605
      vertex 29.8158 499.65 50.3014
    endloop
  endfacet
  facet normal -0.936512 0 0.350636
    outer loop
      vertex 29.8158 499.65 50.3014
      vertex 31.188 506 53.9664
      vertex 29.8158 506 50.3014
    endloop
  endfacet
  facet normal -0.936512 0 0.350636
    outer loop
      vertex 31.188 506 53.9664
      vertex 29.8158 499.65 50.3014
      vertex 31.188 499.65 53.9664
    endloop
  endfacet
  facet normal -0.924407 0 0.381408
    outer loop
      vertex 31.188 499.65 53.9664
      vertex 32.6632 506 57.5418
      vertex 31.188 506 53.9664
    endloop
  endfacet
  facet normal -0.924407 0 0.381408
    outer loop
      vertex 32.6632 506 57.5418
      vertex 31.188 499.65 53.9664
      vertex 32.6632 499.65 57.5418
    endloop
  endfacet
  facet normal -0.911971 0 0.410255
    outer loop
      vertex 32.6632 499.65 57.5418
      vertex 34.2251 506 61.0138
      vertex 32.6632 506 57.5418
    endloop
  endfacet
  facet normal -0.911971 0 0.410255
    outer loop
      vertex 34.2251 506 61.0138
      vertex 32.6632 499.65 57.5418
      vertex 34.2251 499.65 61.0138
    endloop
  endfacet
  facet normal -0.899189 0 0.43756
    outer loop
      vertex 34.2251 499.65 61.0138
      vertex 35.8576 506 64.3686
      vertex 34.2251 506 61.0138
    endloop
  endfacet
  facet normal -0.899189 0 0.43756
    outer loop
      vertex 35.8576 506 64.3686
      vertex 34.2251 499.65 61.0138
      vertex 35.8576 499.65 64.3686
    endloop
  endfacet
  facet normal -0.886082 0 0.463529
    outer loop
      vertex 35.8576 499.65 64.3686
      vertex 37.5442 506 67.5927
      vertex 35.8576 506 64.3686
    endloop
  endfacet
  facet normal -0.886082 0 0.463529
    outer loop
      vertex 37.5442 506 67.5927
      vertex 35.8576 499.65 64.3686
      vertex 37.5442 499.65 67.5927
    endloop
  endfacet
  facet normal -0.872478 0 0.488654
    outer loop
      vertex 37.5442 499.65 67.5927
      vertex 39.2689 506 70.6721
      vertex 37.5442 506 67.5927
    endloop
  endfacet
  facet normal -0.872478 0 0.488654
    outer loop
      vertex 39.2689 506 70.6721
      vertex 37.5442 499.65 67.5927
      vertex 39.2689 499.65 70.6721
    endloop
  endfacet
  facet normal -0.858311 0 0.51313
    outer loop
      vertex 39.2689 499.65 70.6721
      vertex 41.0153 506 73.5933
      vertex 39.2689 506 70.6721
    endloop
  endfacet
  facet normal -0.858311 0 0.51313
    outer loop
      vertex 41.0153 506 73.5933
      vertex 39.2689 499.65 70.6721
      vertex 41.0153 499.65 73.5933
    endloop
  endfacet
  facet normal -0.843327 0 0.537401
    outer loop
      vertex 41.0153 499.65 73.5933
      vertex 42.7672 506 76.3425
      vertex 41.0153 506 73.5933
    endloop
  endfacet
  facet normal -0.843327 0 0.537401
    outer loop
      vertex 42.7672 506 76.3425
      vertex 41.0153 499.65 73.5933
      vertex 42.7672 499.65 76.3425
    endloop
  endfacet
  facet normal -0.827218 0 0.561881
    outer loop
      vertex 42.7672 499.65 76.3425
      vertex 44.5083 506 78.9058
      vertex 42.7672 506 76.3425
    endloop
  endfacet
  facet normal -0.827218 0 0.561881
    outer loop
      vertex 44.5083 506 78.9058
      vertex 42.7672 499.65 76.3425
      vertex 44.5083 499.65 78.9058
    endloop
  endfacet
  facet normal -0.790582 0 0.612356
    outer loop
      vertex 44.5083 499.65 78.9058
      vertex 46.4657 506 81.4329
      vertex 44.5083 506 78.9058
    endloop
  endfacet
  facet normal -0.790582 0 0.612356
    outer loop
      vertex 46.4657 506 81.4329
      vertex 44.5083 499.65 78.9058
      vertex 46.4657 499.65 81.4329
    endloop
  endfacet
  facet normal -0.748547 0 0.663082
    outer loop
      vertex 46.4657 499.65 81.4329
      vertex 49.168 506 84.4835
      vertex 46.4657 506 81.4329
    endloop
  endfacet
  facet normal -0.748547 0 0.663082
    outer loop
      vertex 49.168 506 84.4835
      vertex 46.4657 499.65 81.4329
      vertex 49.168 499.65 84.4835
    endloop
  endfacet
  facet normal -0.715834 0 0.698271
    outer loop
      vertex 49.168 499.65 84.4835
      vertex 52.5912 506 87.9928
      vertex 49.168 506 84.4835
    endloop
  endfacet
  facet normal -0.715834 0 0.698271
    outer loop
      vertex 52.5912 506 87.9928
      vertex 49.168 499.65 84.4835
      vertex 52.5912 499.65 87.9928
    endloop
  endfacet
  facet normal -0.68774 0 0.725957
    outer loop
      vertex 52.5912 506 87.9928
      vertex 56.7113 499.65 91.896
      vertex 56.7113 506 91.896
    endloop
  endfacet
  facet normal -0.68774 0 0.725957
    outer loop
      vertex 56.7113 499.65 91.896
      vertex 52.5912 506 87.9928
      vertex 52.5912 499.65 87.9928
    endloop
  endfacet
  facet normal -0.66186 0 0.749628
    outer loop
      vertex 56.7113 506 91.896
      vertex 61.5045 499.65 96.128
      vertex 61.5045 506 96.128
    endloop
  endfacet
  facet normal -0.66186 0 0.749628
    outer loop
      vertex 61.5045 499.65 96.128
      vertex 56.7113 506 91.896
      vertex 56.7113 499.65 91.896
    endloop
  endfacet
  facet normal -0.636904 0 0.770943
    outer loop
      vertex 61.5045 506 96.128
      vertex 66.9467 499.65 100.624
      vertex 66.9467 506 100.624
    endloop
  endfacet
  facet normal -0.636904 0 0.770943
    outer loop
      vertex 66.9467 499.65 100.624
      vertex 61.5045 506 96.128
      vertex 61.5045 499.65 96.128
    endloop
  endfacet
  facet normal -0.611995 0 0.790862
    outer loop
      vertex 66.9467 506 100.624
      vertex 73.0139 499.65 105.319
      vertex 73.0139 506 105.319
    endloop
  endfacet
  facet normal -0.611995 0 0.790862
    outer loop
      vertex 73.0139 499.65 105.319
      vertex 66.9467 506 100.624
      vertex 66.9467 499.65 100.624
    endloop
  endfacet
  facet normal -0.586602 0 0.809875
    outer loop
      vertex 73.0139 506 105.319
      vertex 79.6823 499.65 110.149
      vertex 79.6823 506 110.149
    endloop
  endfacet
  facet normal -0.586602 0 0.809875
    outer loop
      vertex 79.6823 499.65 110.149
      vertex 73.0139 506 105.319
      vertex 73.0139 499.65 105.319
    endloop
  endfacet
  facet normal -0.560129 0 0.828405
    outer loop
      vertex 79.6823 506 110.149
      vertex 86.9277 499.65 115.048
      vertex 86.9277 506 115.048
    endloop
  endfacet
  facet normal -0.560129 0 0.828405
    outer loop
      vertex 86.9277 499.65 115.048
      vertex 79.6823 506 110.149
      vertex 79.6823 499.65 110.149
    endloop
  endfacet
  facet normal -0.532334 0 0.846535
    outer loop
      vertex 86.9277 506 115.048
      vertex 94.7262 499.65 119.952
      vertex 94.7262 506 119.952
    endloop
  endfacet
  facet normal -0.532334 0 0.846535
    outer loop
      vertex 94.7262 499.65 119.952
      vertex 86.9277 506 115.048
      vertex 86.9277 499.65 115.048
    endloop
  endfacet
  facet normal -0.502718 0 0.864451
    outer loop
      vertex 94.7262 506 119.952
      vertex 103.054 499.65 124.795
      vertex 103.054 506 124.795
    endloop
  endfacet
  facet normal -0.502718 0 0.864451
    outer loop
      vertex 103.054 499.65 124.795
      vertex 94.7262 506 119.952
      vertex 94.7262 499.65 119.952
    endloop
  endfacet
  facet normal -0.471138 0 0.88206
    outer loop
      vertex 103.054 506 124.795
      vertex 111.887 499.65 129.513
      vertex 111.887 506 129.513
    endloop
  endfacet
  facet normal -0.471138 0 0.88206
    outer loop
      vertex 111.887 499.65 129.513
      vertex 103.054 506 124.795
      vertex 103.054 499.65 124.795
    endloop
  endfacet
  facet normal -0.437221 0 0.899354
    outer loop
      vertex 111.887 506 129.513
      vertex 121.201 499.65 134.041
      vertex 121.201 506 134.041
    endloop
  endfacet
  facet normal -0.437221 0 0.899354
    outer loop
      vertex 121.201 499.65 134.041
      vertex 111.887 506 129.513
      vertex 111.887 499.65 129.513
    endloop
  endfacet
  facet normal -0.400676 0 0.91622
    outer loop
      vertex 121.201 506 134.041
      vertex 130.972 499.65 138.314
      vertex 130.972 506 138.314
    endloop
  endfacet
  facet normal -0.400676 0 0.91622
    outer loop
      vertex 130.972 499.65 138.314
      vertex 121.201 506 134.041
      vertex 121.201 499.65 134.041
    endloop
  endfacet
  facet normal -0.361207 0 0.932486
    outer loop
      vertex 130.972 506 138.314
      vertex 141.177 499.65 142.267
      vertex 141.177 506 142.267
    endloop
  endfacet
  facet normal -0.361207 0 0.932486
    outer loop
      vertex 141.177 499.65 142.267
      vertex 130.972 506 138.314
      vertex 130.972 499.65 138.314
    endloop
  endfacet
  facet normal -0.318638 0 0.947876
    outer loop
      vertex 141.177 506 142.267
      vertex 151.791 499.65 145.835
      vertex 151.791 506 145.835
    endloop
  endfacet
  facet normal -0.318638 0 0.947876
    outer loop
      vertex 151.791 499.65 145.835
      vertex 141.177 506 142.267
      vertex 141.177 499.65 142.267
    endloop
  endfacet
  facet normal -0.272814 0 0.962067
    outer loop
      vertex 151.791 506 145.835
      vertex 162.79 499.65 148.954
      vertex 162.79 506 148.954
    endloop
  endfacet
  facet normal -0.272814 0 0.962067
    outer loop
      vertex 162.79 499.65 148.954
      vertex 151.791 506 145.835
      vertex 151.791 499.65 145.835
    endloop
  endfacet
  facet normal -0.223493 0 0.974705
    outer loop
      vertex 162.79 506 148.954
      vertex 174.151 499.65 151.559
      vertex 174.151 506 151.559
    endloop
  endfacet
  facet normal -0.223493 0 0.974705
    outer loop
      vertex 174.151 499.65 151.559
      vertex 162.79 506 148.954
      vertex 162.79 499.65 148.954
    endloop
  endfacet
  facet normal -0.17057 0 0.985346
    outer loop
      vertex 174.151 506 151.559
      vertex 185.849 499.65 153.584
      vertex 185.849 506 153.584
    endloop
  endfacet
  facet normal -0.17057 0 0.985346
    outer loop
      vertex 185.849 499.65 153.584
      vertex 174.151 506 151.559
      vertex 174.151 499.65 151.559
    endloop
  endfacet
  facet normal -0.114216 0 0.993456
    outer loop
      vertex 185.849 506 153.584
      vertex 197.861 499.65 154.965
      vertex 197.861 506 154.965
    endloop
  endfacet
  facet normal -0.114216 0 0.993456
    outer loop
      vertex 197.861 499.65 154.965
      vertex 185.849 506 153.584
      vertex 185.849 499.65 153.584
    endloop
  endfacet
  facet normal -0.0470756 0 0.998891
    outer loop
      vertex 197.861 506 154.965
      vertex 209.786 499.65 155.527
      vertex 209.786 506 155.527
    endloop
  endfacet
  facet normal -0.0470756 0 0.998891
    outer loop
      vertex 209.786 499.65 155.527
      vertex 197.861 506 154.965
      vertex 197.861 499.65 154.965
    endloop
  endfacet
  facet normal 0.0296579 0 0.99956
    outer loop
      vertex 209.786 506 155.527
      vertex 221.245 499.65 155.187
      vertex 221.245 506 155.187
    endloop
  endfacet
  facet normal 0.0296579 0 0.99956
    outer loop
      vertex 221.245 499.65 155.187
      vertex 209.786 506 155.527
      vertex 209.786 499.65 155.527
    endloop
  endfacet
  facet normal -1 0 0
    outer loop
      vertex 207 506 101.312
      vertex 207 505.034 108.521
      vertex 207 506 108.081
    endloop
  endfacet
  facet normal -1 0 0
    outer loop
      vertex 207 499.65 101.312
      vertex 207 505.034 108.521
      vertex 207 506 101.312
    endloop
  endfacet
  facet normal -1 -0 0
    outer loop
      vertex 207 505.034 108.521
      vertex 207 499.65 101.312
      vertex 207 499.65 110.612
    endloop
  endfacet
  facet normal 1 0 0
    outer loop
      vertex 200.65 505.034 108.521
      vertex 200.65 506 101.431
      vertex 200.65 506 108.081
    endloop
  endfacet
  facet normal 1 0 0
    outer loop
      vertex 200.65 499.65 101.431
      vertex 200.65 505.034 108.521
      vertex 200.65 499.65 110.612
    endloop
  endfacet
  facet normal 1 0 0
    outer loop
      vertex 200.65 505.034 108.521
      vertex 200.65 499.65 101.431
      vertex 200.65 506 101.431
    endloop
  endfacet
  facet normal 0 -0.362028 -0.932167
    outer loop
      vertex 200.65 499.65 110.612
      vertex 207 505.034 108.521
      vertex 207 499.65 110.612
    endloop
  endfacet
  facet normal -0 -0.362028 -0.932167
    outer loop
      vertex 207 505.034 108.521
      vertex 200.65 499.65 110.612
      vertex 200.65 505.034 108.521
    endloop
  endfacet
  facet normal 0 -0.414513 -0.910044
    outer loop
      vertex 200.65 505.034 108.521
      vertex 207 506 108.081
      vertex 207 505.034 108.521
    endloop
  endfacet
  facet normal -0 -0.414513 -0.910044
    outer loop
      vertex 207 506 108.081
      vertex 200.65 505.034 108.521
      vertex 200.65 506 108.081
    endloop
  endfacet
endsolid OpenSCAD_Model
