solid OpenSCAD_Model
  facet normal 0 -1 -0
    outer loop
      vertex 295.233 396.35 134.129
      vertex 267.013 396.35 80.8636
      vertex 304.356 396.35 129.269
    endloop
  endfacet
  facet normal 0 -1 0
    outer loop
      vertex 275.324 396.35 74.7094
      vertex 304.356 396.35 129.269
      vertex 267.013 396.35 80.8636
    endloop
  endfacet
  facet normal 0 -1 -0
    outer loop
      vertex 304.356 396.35 129.269
      vertex 275.324 396.35 74.7094
      vertex 313.094 396.35 124.16
    endloop
  endfacet
  facet normal 0 -1 0
    outer loop
      vertex 282.993 396.35 68.1498
      vertex 313.094 396.35 124.16
      vertex 275.324 396.35 74.7094
    endloop
  endfacet
  facet normal 0 -1 -0
    outer loop
      vertex 313.094 396.35 124.16
      vertex 282.993 396.35 68.1498
      vertex 321.434 396.35 118.871
    endloop
  endfacet
  facet normal 0 -1 -0
    outer loop
      vertex 321.434 396.35 118.871
      vertex 282.993 396.35 68.1498
      vertex 329.366 396.35 113.475
    endloop
  endfacet
  facet normal 0 -1 0
    outer loop
      vertex 290.027 396.35 61.3226
      vertex 329.366 396.35 113.475
      vertex 282.993 396.35 68.1498
    endloop
  endfacet
  facet normal 0 -1 -0
    outer loop
      vertex 329.366 396.35 113.475
      vertex 290.027 396.35 61.3226
      vertex 336.875 396.35 108.042
    endloop
  endfacet
  facet normal 0 -1 0
    outer loop
      vertex 296.427 396.35 54.3657
      vertex 336.875 396.35 108.042
      vertex 290.027 396.35 61.3226
    endloop
  endfacet
  facet normal 0 -1 -0
    outer loop
      vertex 336.875 396.35 108.042
      vertex 296.427 396.35 54.3657
      vertex 343.951 396.35 102.642
    endloop
  endfacet
  facet normal 0 -1 -0
    outer loop
      vertex 343.951 396.35 102.642
      vertex 296.427 396.35 54.3657
      vertex 350.579 396.35 97.3462
    endloop
  endfacet
  facet normal 0 -1 0
    outer loop
      vertex 302.199 396.35 47.4171
      vertex 350.579 396.35 97.3462
      vertex 296.427 396.35 54.3657
    endloop
  endfacet
  facet normal 0 -1 -0
    outer loop
      vertex 350.579 396.35 97.3462
      vertex 302.199 396.35 47.4171
      vertex 356.749 396.35 92.2259
    endloop
  endfacet
  facet normal 0 -1 0
    outer loop
      vertex 307.346 396.35 40.6145
      vertex 356.749 396.35 92.2259
      vertex 302.199 396.35 47.4171
    endloop
  endfacet
  facet normal 0 -1 -0
    outer loop
      vertex 356.749 396.35 92.2259
      vertex 307.346 396.35 40.6145
      vertex 362.447 396.35 87.3515
    endloop
  endfacet
  facet normal 0 -1 0
    outer loop
      vertex 311.872 396.35 34.0959
      vertex 362.447 396.35 87.3515
      vertex 307.346 396.35 40.6145
    endloop
  endfacet
  facet normal 0 -1 -0
    outer loop
      vertex 362.447 396.35 87.3515
      vertex 311.872 396.35 34.0959
      vertex 367.662 396.35 82.7938
    endloop
  endfacet
  facet normal 0 -1 -0
    outer loop
      vertex 367.662 396.35 82.7938
      vertex 311.872 396.35 34.0959
      vertex 372.38 396.35 78.6236
    endloop
  endfacet
  facet normal 0 -1 0
    outer loop
      vertex 315.782 396.35 27.9991
      vertex 372.38 396.35 78.6236
      vertex 311.872 396.35 34.0959
    endloop
  endfacet
  facet normal 0 -1 -0
    outer loop
      vertex 372.38 396.35 78.6236
      vertex 315.782 396.35 27.9991
      vertex 376.605 396.35 74.5441
    endloop
  endfacet
  facet normal 0 -1 -0
    outer loop
      vertex 376.605 396.35 74.5441
      vertex 315.782 396.35 27.9991
      vertex 380.365 396.35 70.2424
    endloop
  endfacet
  facet normal 0 -1 -0
    outer loop
      vertex 380.365 396.35 70.2424
      vertex 315.782 396.35 27.9991
      vertex 383.687 396.35 65.7652
    endloop
  endfacet
  facet normal 0 -1 0
    outer loop
      vertex 319.08 396.35 22.4619
      vertex 383.687 396.35 65.7652
      vertex 315.782 396.35 27.9991
    endloop
  endfacet
  facet normal 0 -1 -0
    outer loop
      vertex 383.687 396.35 65.7652
      vertex 319.08 396.35 22.4619
      vertex 386.598 396.35 61.1591
    endloop
  endfacet
  facet normal 0 -1 -0
    outer loop
      vertex 386.598 396.35 61.1591
      vertex 319.08 396.35 22.4619
      vertex 389.125 396.35 56.4708
    endloop
  endfacet
  facet normal 0 -1 0
    outer loop
      vertex 321.769 396.35 17.6224
      vertex 389.125 396.35 56.4708
      vertex 319.08 396.35 22.4619
    endloop
  endfacet
  facet normal 0 -1 -0
    outer loop
      vertex 389.125 396.35 56.4708
      vertex 321.769 396.35 17.6224
      vertex 391.294 396.35 51.7469
    endloop
  endfacet
  facet normal 0 -1 -0
    outer loop
      vertex 391.294 396.35 51.7469
      vertex 321.769 396.35 17.6224
      vertex 393.133 396.35 47.0341
    endloop
  endfacet
  facet normal 0 -1 0
    outer loop
      vertex 323.853 396.35 13.6183
      vertex 393.133 396.35 47.0341
      vertex 321.769 396.35 17.6224
    endloop
  endfacet
  facet normal 0 -1 -0
    outer loop
      vertex 393.133 396.35 47.0341
      vertex 323.853 396.35 13.6183
      vertex 394.668 396.35 42.379
    endloop
  endfacet
  facet normal 0 -1 -0
    outer loop
      vertex 394.668 396.35 42.379
      vertex 323.853 396.35 13.6183
      vertex 395.926 396.35 37.8282
    endloop
  endfacet
  facet normal 0 -1 0
    outer loop
      vertex 325.337 396.35 10.5876
      vertex 395.926 396.35 37.8282
      vertex 323.853 396.35 13.6183
    endloop
  endfacet
  facet normal 0 -1 -0
    outer loop
      vertex 395.926 396.35 37.8282
      vertex 325.337 396.35 10.5876
      vertex 396.933 396.35 33.4284
    endloop
  endfacet
  facet normal 0 -1 0
    outer loop
      vertex 326.224 396.35 8.668
      vertex 396.933 396.35 33.4284
      vertex 325.337 396.35 10.5876
    endloop
  endfacet
  facet normal 0 -1 -0
    outer loop
      vertex 396.933 396.35 33.4284
      vertex 326.224 396.35 8.668
      vertex 397.718 396.35 29.2262
    endloop
  endfacet
  facet normal 0 -1 0
    outer loop
      vertex 326.519 396.35 7.99751
      vertex 397.718 396.35 29.2262
      vertex 326.224 396.35 8.668
    endloop
  endfacet
  facet normal 0 -1 -0
    outer loop
      vertex 397.718 396.35 29.2262
      vertex 326.519 396.35 7.99751
      vertex 398.306 396.35 25.2684
    endloop
  endfacet
  facet normal 0 -1 -0
    outer loop
      vertex 398.306 396.35 25.2684
      vertex 326.519 396.35 7.99751
      vertex 398.724 396.35 21.6015
    endloop
  endfacet
  facet normal 0 -1 -0
    outer loop
      vertex 398.724 396.35 21.6015
      vertex 326.519 396.35 7.99751
      vertex 399 396.35 18.2721
    endloop
  endfacet
  facet normal 0 -1 -0
    outer loop
      vertex 399 396.35 18.2721
      vertex 326.519 396.35 7.99751
      vertex 399.159 396.35 15.327
    endloop
  endfacet
  facet normal 0 -1 -0
    outer loop
      vertex 399.159 396.35 15.327
      vertex 326.519 396.35 7.99751
      vertex 399.229 396.35 12.8128
    endloop
  endfacet
  facet normal 0 -1 -0
    outer loop
      vertex 399.229 396.35 12.8128
      vertex 326.519 396.35 7.99751
      vertex 399.237 396.35 10.7761
    endloop
  endfacet
  facet normal 0 -1 0
    outer loop
      vertex 399.237 396.35 10.7761
      vertex 326.519 396.35 7.99751
      vertex 399.21 396.35 9.26352
    endloop
  endfacet
  facet normal 0 -1 0
    outer loop
      vertex 399.21 396.35 9.26352
      vertex 326.519 396.35 7.99751
      vertex 399.174 396.35 8.32179
    endloop
  endfacet
  facet normal 0 -1 0
    outer loop
      vertex 399.174 396.35 8.32179
      vertex 326.519 396.35 7.99751
      vertex 399.156 396.35 7.99751
    endloop
  endfacet
  facet normal 0 -1 0
    outer loop
      vertex 207 396.35 137.114
      vertex 209.889 396.35 155.535
      vertex 197.861 396.35 154.965
    endloop
  endfacet
  facet normal 0 -1 -0
    outer loop
      vertex 209.889 396.35 155.535
      vertex 207 396.35 137.114
      vertex 221.643 396.35 155.219
    endloop
  endfacet
  facet normal 0 -1 0
    outer loop
      vertex 200.65 396.35 137.114
      vertex 197.861 396.35 154.965
      vertex 185.708 396.35 153.503
    endloop
  endfacet
  facet normal 0 -1 -0
    outer loop
      vertex 221.643 396.35 155.219
      vertex 207 396.35 137.114
      vertex 233.112 396.35 154.087
    endloop
  endfacet
  facet normal 0 -1 0
    outer loop
      vertex 200.65 396.35 137.114
      vertex 185.708 396.35 153.503
      vertex 173.604 396.35 151.245
    endloop
  endfacet
  facet normal 0 -1 0
    outer loop
      vertex 207 396.35 117.87
      vertex 233.112 396.35 154.087
      vertex 207 396.35 137.114
    endloop
  endfacet
  facet normal 0 -1 0
    outer loop
      vertex 179.803 396.35 99.2089
      vertex 173.604 396.35 151.245
      vertex 161.603 396.35 148.273
    endloop
  endfacet
  facet normal 0 -1 -0
    outer loop
      vertex 233.112 396.35 154.087
      vertex 207 396.35 117.87
      vertex 244.283 396.35 152.21
    endloop
  endfacet
  facet normal 0 -1 0
    outer loop
      vertex 169.06 396.35 96.2376
      vertex 161.603 396.35 148.273
      vertex 149.759 396.35 144.669
    endloop
  endfacet
  facet normal 0 -1 0
    outer loop
      vertex 227.284 396.35 98.6688
      vertex 207 396.35 117.87
      vertex 215.709 396.35 100.728
    endloop
  endfacet
  facet normal 0 -1 0
    outer loop
      vertex 169.06 396.35 96.2376
      vertex 149.759 396.35 144.669
      vertex 138.123 396.35 140.514
    endloop
  endfacet
  facet normal 0 -1 0
    outer loop
      vertex 197.861 396.35 154.965
      vertex 200.65 396.35 137.114
      vertex 207 396.35 137.114
    endloop
  endfacet
  facet normal 0 -1 0
    outer loop
      vertex 207 396.35 117.87
      vertex 227.284 396.35 98.6688
      vertex 244.283 396.35 152.21
    endloop
  endfacet
  facet normal 0 -1 0
    outer loop
      vertex 169.06 396.35 96.2376
      vertex 138.123 396.35 140.514
      vertex 126.751 396.35 135.891
    endloop
  endfacet
  facet normal 0 -1 0
    outer loop
      vertex 169.06 396.35 96.2376
      vertex 126.751 396.35 135.891
      vertex 115.695 396.35 130.88
    endloop
  endfacet
  facet normal 0 -1 0
    outer loop
      vertex 169.06 396.35 96.2376
      vertex 115.695 396.35 130.88
      vertex 105.007 396.35 125.564
    endloop
  endfacet
  facet normal 0 -1 0
    outer loop
      vertex 169.06 396.35 96.2376
      vertex 105.007 396.35 125.564
      vertex 94.7429 396.35 120.024
    endloop
  endfacet
  facet normal 0 -1 0
    outer loop
      vertex 161.603 396.35 148.273
      vertex 169.06 396.35 96.2376
      vertex 179.803 396.35 99.2089
    endloop
  endfacet
  facet normal 0 -1 0
    outer loop
      vertex 173.604 396.35 151.245
      vertex 179.803 396.35 99.2089
      vertex 200.65 396.35 117.87
    endloop
  endfacet
  facet normal 0 -1 0
    outer loop
      vertex 169.06 396.35 96.2376
      vertex 94.7429 396.35 120.024
      vertex 84.9543 396.35 114.342
    endloop
  endfacet
  facet normal 0 -1 0
    outer loop
      vertex 215.709 396.35 100.728
      vertex 207 396.35 117.87
      vertex 203.47 396.35 101.554
    endloop
  endfacet
  facet normal 0 -1 0
    outer loop
      vertex 238.197 396.35 95.515
      vertex 244.283 396.35 152.21
      vertex 227.284 396.35 98.6688
    endloop
  endfacet
  facet normal 0 -1 -0
    outer loop
      vertex 244.283 396.35 152.21
      vertex 238.197 396.35 95.515
      vertex 255.143 396.35 149.659
    endloop
  endfacet
  facet normal 0 -1 -0
    outer loop
      vertex 255.143 396.35 149.659
      vertex 238.197 396.35 95.515
      vertex 265.681 396.35 146.505
    endloop
  endfacet
  facet normal 0 -1 0
    outer loop
      vertex 248.454 396.35 91.4043
      vertex 265.681 396.35 146.505
      vertex 238.197 396.35 95.515
    endloop
  endfacet
  facet normal 0 -1 -0
    outer loop
      vertex 265.681 396.35 146.505
      vertex 248.454 396.35 91.4043
      vertex 275.883 396.35 142.818
    endloop
  endfacet
  facet normal 0 -1 0
    outer loop
      vertex 173.604 396.35 151.245
      vertex 200.65 396.35 117.87
      vertex 200.65 396.35 137.114
    endloop
  endfacet
  facet normal 0 -1 0
    outer loop
      vertex 258.058 396.35 86.4746
      vertex 275.883 396.35 142.818
      vertex 248.454 396.35 91.4043
    endloop
  endfacet
  facet normal 0 -1 0
    outer loop
      vertex 119.134 396.35 62.2302
      vertex 84.9543 396.35 114.342
      vertex 75.6948 396.35 108.6
    endloop
  endfacet
  facet normal 0 -1 -0
    outer loop
      vertex 275.883 396.35 142.818
      vertex 258.058 396.35 86.4746
      vertex 285.738 396.35 138.669
    endloop
  endfacet
  facet normal 0 -1 0
    outer loop
      vertex 113.124 396.35 55.1992
      vertex 75.6948 396.35 108.6
      vertex 67.0178 396.35 102.879
    endloop
  endfacet
  facet normal 0 -1 -0
    outer loop
      vertex 285.738 396.35 138.669
      vertex 258.058 396.35 86.4746
      vertex 295.233 396.35 134.129
    endloop
  endfacet
  facet normal 0 -1 0
    outer loop
      vertex 267.013 396.35 80.8636
      vertex 295.233 396.35 134.129
      vertex 258.058 396.35 86.4746
    endloop
  endfacet
  facet normal 0 -1 0
    outer loop
      vertex 200.65 396.35 117.87
      vertex 203.47 396.35 101.554
      vertex 207 396.35 117.87
    endloop
  endfacet
  facet normal -0 -1 0
    outer loop
      vertex 203.47 396.35 101.554
      vertex 200.65 396.35 117.87
      vertex 191.269 396.35 101.029
    endloop
  endfacet
  facet normal 0 -1 0
    outer loop
      vertex 107.742 396.35 48.1597
      vertex 67.0178 396.35 102.879
      vertex 58.9765 396.35 97.2618
    endloop
  endfacet
  facet normal -0 -1 0
    outer loop
      vertex 191.269 396.35 101.029
      vertex 200.65 396.35 117.87
      vertex 179.803 396.35 99.2089
    endloop
  endfacet
  facet normal 0 -1 0
    outer loop
      vertex 84.9543 396.35 114.342
      vertex 159.029 396.35 92.2578
      vertex 169.06 396.35 96.2376
    endloop
  endfacet
  facet normal 0 -1 0
    outer loop
      vertex 107.742 396.35 48.1597
      vertex 58.9765 396.35 97.2618
      vertex 51.6243 396.35 91.8289
    endloop
  endfacet
  facet normal 0 -1 0
    outer loop
      vertex 84.9543 396.35 114.342
      vertex 149.698 396.35 87.4122
      vertex 159.029 396.35 92.2578
    endloop
  endfacet
  facet normal 0 -1 0
    outer loop
      vertex 102.977 396.35 41.2546
      vertex 51.6243 396.35 91.8289
      vertex 45.0143 396.35 86.6625
    endloop
  endfacet
  facet normal 0 -1 0
    outer loop
      vertex 98.8177 396.35 34.6268
      vertex 45.0143 396.35 86.6625
      vertex 39.2 396.35 81.8443
    endloop
  endfacet
  facet normal 0 -1 0
    outer loop
      vertex 84.9543 396.35 114.342
      vertex 141.055 396.35 81.8438
      vertex 149.698 396.35 87.4122
    endloop
  endfacet
  facet normal 0 -1 0
    outer loop
      vertex 95.251 396.35 28.4191
      vertex 39.2 396.35 81.8443
      vertex 34.2346 396.35 77.456
    endloop
  endfacet
  facet normal 0 -1 0
    outer loop
      vertex 84.9543 396.35 114.342
      vertex 133.087 396.35 75.6954
      vertex 141.055 396.35 81.8438
    endloop
  endfacet
  facet normal 0 -1 0
    outer loop
      vertex 95.251 396.35 28.4191
      vertex 34.2346 396.35 77.456
      vertex 30.1713 396.35 73.5793
    endloop
  endfacet
  facet normal 0 -1 0
    outer loop
      vertex 95.251 396.35 28.4191
      vertex 30.1713 396.35 73.5793
      vertex 27.0635 396.35 70.2959
    endloop
  endfacet
  facet normal 0 -1 0
    outer loop
      vertex 84.9543 396.35 114.342
      vertex 125.784 396.35 69.1099
      vertex 133.087 396.35 75.6954
    endloop
  endfacet
  facet normal 0 -1 0
    outer loop
      vertex 92.2656 396.35 22.7745
      vertex 27.0635 396.35 70.2959
      vertex 24.9644 396.35 67.6875
    endloop
  endfacet
  facet normal 0 -1 0
    outer loop
      vertex 92.2656 396.35 22.7745
      vertex 24.9644 396.35 67.6875
      vertex 23.2455 396.35 65.2055
    endloop
  endfacet
  facet normal 0 -1 0
    outer loop
      vertex 92.2656 396.35 22.7745
      vertex 23.2455 396.35 65.2055
      vertex 21.5573 396.35 62.6891
    endloop
  endfacet
  facet normal 0 -1 0
    outer loop
      vertex 84.9543 396.35 114.342
      vertex 119.134 396.35 62.2302
      vertex 125.784 396.35 69.1099
    endloop
  endfacet
  facet normal 0 -1 0
    outer loop
      vertex 92.2656 396.35 22.7745
      vertex 21.5573 396.35 62.6891
      vertex 19.9114 396.35 60.1353
    endloop
  endfacet
  facet normal 0 -1 0
    outer loop
      vertex 89.8496 396.35 17.8358
      vertex 19.9114 396.35 60.1353
      vertex 18.3195 396.35 57.5411
    endloop
  endfacet
  facet normal 0 -1 0
    outer loop
      vertex 75.6948 396.35 108.6
      vertex 113.124 396.35 55.1992
      vertex 119.134 396.35 62.2302
    endloop
  endfacet
  facet normal 0 -1 0
    outer loop
      vertex 89.8496 396.35 17.8358
      vertex 18.3195 396.35 57.5411
      vertex 16.7932 396.35 54.9032
    endloop
  endfacet
  facet normal 0 -1 0
    outer loop
      vertex 89.8496 396.35 17.8358
      vertex 16.7932 396.35 54.9032
      vertex 15.3442 396.35 52.2186
    endloop
  endfacet
  facet normal 0 -1 0
    outer loop
      vertex 89.8496 396.35 17.8358
      vertex 15.3442 396.35 52.2186
      vertex 13.9841 396.35 49.4842
    endloop
  endfacet
  facet normal 0 -1 0
    outer loop
      vertex 67.0178 396.35 102.879
      vertex 107.742 396.35 48.1597
      vertex 113.124 396.35 55.1992
    endloop
  endfacet
  facet normal 0 -1 0
    outer loop
      vertex 87.9911 396.35 13.7458
      vertex 13.9841 396.35 49.4842
      vertex 12.7245 396.35 46.6969
    endloop
  endfacet
  facet normal 0 -1 0
    outer loop
      vertex 87.9911 396.35 13.7458
      vertex 12.7245 396.35 46.6969
      vertex 11.5771 396.35 43.8537
    endloop
  endfacet
  facet normal 0 -1 0
    outer loop
      vertex 51.6243 396.35 91.8289
      vertex 102.977 396.35 41.2546
      vertex 107.742 396.35 48.1597
    endloop
  endfacet
  facet normal 0 -1 0
    outer loop
      vertex 87.9911 396.35 13.7458
      vertex 11.5771 396.35 43.8537
      vertex 10.5535 396.35 40.9514
    endloop
  endfacet
  facet normal 0 -1 0
    outer loop
      vertex 86.6783 396.35 10.6476
      vertex 10.5535 396.35 40.9514
      vertex 9.66534 396.35 37.9868
    endloop
  endfacet
  facet normal 0 -1 0
    outer loop
      vertex 86.6783 396.35 10.6476
      vertex 9.66534 396.35 37.9868
      vertex 8.92433 396.35 34.9571
    endloop
  endfacet
  facet normal 0 -1 0
    outer loop
      vertex 45.0143 396.35 86.6625
      vertex 98.8177 396.35 34.6268
      vertex 102.977 396.35 41.2546
    endloop
  endfacet
  facet normal 0 -1 0
    outer loop
      vertex 86.6783 396.35 10.6476
      vertex 8.92433 396.35 34.9571
      vertex 8.34207 396.35 31.8589
    endloop
  endfacet
  facet normal 0 -1 0
    outer loop
      vertex 86.6783 396.35 10.6476
      vertex 8.34207 396.35 31.8589
      vertex 7.93021 396.35 28.6893
    endloop
  endfacet
  facet normal 0 -1 0
    outer loop
      vertex 39.2 396.35 81.8443
      vertex 95.251 396.35 28.4191
      vertex 98.8177 396.35 34.6268
    endloop
  endfacet
  facet normal 0 -1 0
    outer loop
      vertex 85.8992 396.35 8.68384
      vertex 7.93021 396.35 28.6893
      vertex 7.70038 396.35 25.4451
    endloop
  endfacet
  facet normal 0 -1 0
    outer loop
      vertex 27.0635 396.35 70.2959
      vertex 92.2656 396.35 22.7745
      vertex 95.251 396.35 28.4191
    endloop
  endfacet
  facet normal 0 -1 0
    outer loop
      vertex 85.8992 396.35 8.68384
      vertex 7.70038 396.35 25.4451
      vertex 7.66422 396.35 22.1233
    endloop
  endfacet
  facet normal 0 -1 0
    outer loop
      vertex 85.8992 396.35 8.68384
      vertex 7.66422 396.35 22.1233
      vertex 7.83337 396.35 18.7207
    endloop
  endfacet
  facet normal 0 -1 0
    outer loop
      vertex 19.9114 396.35 60.1353
      vertex 89.8496 396.35 17.8358
      vertex 92.2656 396.35 22.7745
    endloop
  endfacet
  facet normal 0 -1 0
    outer loop
      vertex 85.6422 396.35 7.99751
      vertex 7.83337 396.35 18.7207
      vertex 8.21948 396.35 15.2343
    endloop
  endfacet
  facet normal 0 -1 0
    outer loop
      vertex 13.9841 396.35 49.4842
      vertex 87.9911 396.35 13.7458
      vertex 89.8496 396.35 17.8358
    endloop
  endfacet
  facet normal 0 -1 0
    outer loop
      vertex 85.6422 396.35 7.99751
      vertex 8.21948 396.35 15.2343
      vertex 8.8342 396.35 11.6609
    endloop
  endfacet
  facet normal 0 -1 0
    outer loop
      vertex 10.5535 396.35 40.9514
      vertex 86.6783 396.35 10.6476
      vertex 87.9911 396.35 13.7458
    endloop
  endfacet
  facet normal 0 -1 0
    outer loop
      vertex 7.93021 396.35 28.6893
      vertex 85.8992 396.35 8.68384
      vertex 86.6783 396.35 10.6476
    endloop
  endfacet
  facet normal 0 -1 0
    outer loop
      vertex 85.6422 396.35 7.99751
      vertex 8.8342 396.35 11.6609
      vertex 9.68916 396.35 7.99751
    endloop
  endfacet
  facet normal 0 -1 0
    outer loop
      vertex 7.83337 396.35 18.7207
      vertex 85.6422 396.35 7.99751
      vertex 85.8992 396.35 8.68384
    endloop
  endfacet
  facet normal 0 1 0
    outer loop
      vertex 258.058 402.7 86.4746
      vertex 285.738 402.7 138.669
      vertex 295.233 402.7 134.129
    endloop
  endfacet
  facet normal 0 1 0
    outer loop
      vertex 267.013 402.7 80.8636
      vertex 295.233 402.7 134.129
      vertex 304.356 402.7 129.269
    endloop
  endfacet
  facet normal 0 1 0
    outer loop
      vertex 275.324 402.7 74.7094
      vertex 304.356 402.7 129.269
      vertex 313.094 402.7 124.16
    endloop
  endfacet
  facet normal 0 1 0
    outer loop
      vertex 282.993 402.7 68.1498
      vertex 313.094 402.7 124.16
      vertex 321.434 402.7 118.871
    endloop
  endfacet
  facet normal 0 1 0
    outer loop
      vertex 282.993 402.7 68.1498
      vertex 321.434 402.7 118.871
      vertex 329.366 402.7 113.475
    endloop
  endfacet
  facet normal 0 1 0
    outer loop
      vertex 290.027 402.7 61.3226
      vertex 329.366 402.7 113.475
      vertex 336.875 402.7 108.042
    endloop
  endfacet
  facet normal 0 1 0
    outer loop
      vertex 296.427 402.7 54.3657
      vertex 336.875 402.7 108.042
      vertex 343.951 402.7 102.642
    endloop
  endfacet
  facet normal 0 1 0
    outer loop
      vertex 285.738 402.7 138.669
      vertex 248.454 402.7 91.4043
      vertex 238.197 402.7 95.515
    endloop
  endfacet
  facet normal 0 1 0
    outer loop
      vertex 207 402.7 136.287
      vertex 215.709 402.7 100.728
      vertex 207 402.7 101.316
    endloop
  endfacet
  facet normal 0 1 0
    outer loop
      vertex 207 402.7 136.287
      vertex 227.284 402.7 98.6688
      vertex 215.709 402.7 100.728
    endloop
  endfacet
  facet normal 0 1 0
    outer loop
      vertex 296.427 402.7 54.3657
      vertex 343.951 402.7 102.642
      vertex 350.579 402.7 97.3462
    endloop
  endfacet
  facet normal 0 1 0
    outer loop
      vertex 207 402.7 136.287
      vertex 238.197 402.7 95.515
      vertex 227.284 402.7 98.6688
    endloop
  endfacet
  facet normal 0 1 0
    outer loop
      vertex 302.199 402.7 47.4171
      vertex 350.579 402.7 97.3462
      vertex 356.749 402.7 92.2259
    endloop
  endfacet
  facet normal 0 1 0
    outer loop
      vertex 285.738 402.7 138.669
      vertex 238.197 402.7 95.515
      vertex 207 402.7 136.287
    endloop
  endfacet
  facet normal 0 1 0
    outer loop
      vertex 307.346 402.7 40.6145
      vertex 356.749 402.7 92.2259
      vertex 362.447 402.7 87.3515
    endloop
  endfacet
  facet normal 0 1 0
    outer loop
      vertex 285.738 402.7 138.669
      vertex 258.058 402.7 86.4746
      vertex 248.454 402.7 91.4043
    endloop
  endfacet
  facet normal 0 1 0
    outer loop
      vertex 311.872 402.7 34.0959
      vertex 362.447 402.7 87.3515
      vertex 367.662 402.7 82.7938
    endloop
  endfacet
  facet normal 0 1 0
    outer loop
      vertex 295.233 402.7 134.129
      vertex 267.013 402.7 80.8636
      vertex 258.058 402.7 86.4746
    endloop
  endfacet
  facet normal 0 1 0
    outer loop
      vertex 311.872 402.7 34.0959
      vertex 367.662 402.7 82.7938
      vertex 372.38 402.7 78.6236
    endloop
  endfacet
  facet normal 0 1 0
    outer loop
      vertex 304.356 402.7 129.269
      vertex 275.324 402.7 74.7094
      vertex 267.013 402.7 80.8636
    endloop
  endfacet
  facet normal 0 1 0
    outer loop
      vertex 315.782 402.7 27.9991
      vertex 372.38 402.7 78.6236
      vertex 376.605 402.7 74.5441
    endloop
  endfacet
  facet normal 0 1 0
    outer loop
      vertex 315.782 402.7 27.9991
      vertex 376.605 402.7 74.5441
      vertex 380.365 402.7 70.2424
    endloop
  endfacet
  facet normal 0 1 0
    outer loop
      vertex 313.094 402.7 124.16
      vertex 282.993 402.7 68.1498
      vertex 275.324 402.7 74.7094
    endloop
  endfacet
  facet normal 0 1 0
    outer loop
      vertex 315.782 402.7 27.9991
      vertex 380.365 402.7 70.2424
      vertex 383.687 402.7 65.7652
    endloop
  endfacet
  facet normal 0 1 0
    outer loop
      vertex 329.366 402.7 113.475
      vertex 290.027 402.7 61.3226
      vertex 282.993 402.7 68.1498
    endloop
  endfacet
  facet normal 0 1 0
    outer loop
      vertex 319.08 402.7 22.4619
      vertex 383.687 402.7 65.7652
      vertex 386.598 402.7 61.1591
    endloop
  endfacet
  facet normal 0 1 0
    outer loop
      vertex 319.08 402.7 22.4619
      vertex 386.598 402.7 61.1591
      vertex 389.125 402.7 56.4708
    endloop
  endfacet
  facet normal 0 1 0
    outer loop
      vertex 336.875 402.7 108.042
      vertex 296.427 402.7 54.3657
      vertex 290.027 402.7 61.3226
    endloop
  endfacet
  facet normal 0 1 0
    outer loop
      vertex 321.769 402.7 17.6224
      vertex 389.125 402.7 56.4708
      vertex 391.294 402.7 51.7469
    endloop
  endfacet
  facet normal 0 1 0
    outer loop
      vertex 350.579 402.7 97.3462
      vertex 302.199 402.7 47.4171
      vertex 296.427 402.7 54.3657
    endloop
  endfacet
  facet normal 0 1 0
    outer loop
      vertex 321.769 402.7 17.6224
      vertex 391.294 402.7 51.7469
      vertex 393.133 402.7 47.0341
    endloop
  endfacet
  facet normal 0 1 0
    outer loop
      vertex 323.853 402.7 13.6183
      vertex 393.133 402.7 47.0341
      vertex 394.668 402.7 42.379
    endloop
  endfacet
  facet normal 0 1 0
    outer loop
      vertex 356.749 402.7 92.2259
      vertex 307.346 402.7 40.6145
      vertex 302.199 402.7 47.4171
    endloop
  endfacet
  facet normal 0 1 0
    outer loop
      vertex 323.853 402.7 13.6183
      vertex 394.668 402.7 42.379
      vertex 395.926 402.7 37.8282
    endloop
  endfacet
  facet normal 0 1 0
    outer loop
      vertex 362.447 402.7 87.3515
      vertex 311.872 402.7 34.0959
      vertex 307.346 402.7 40.6145
    endloop
  endfacet
  facet normal 0 1 0
    outer loop
      vertex 325.337 402.7 10.5876
      vertex 395.926 402.7 37.8282
      vertex 396.933 402.7 33.4284
    endloop
  endfacet
  facet normal 0 1 0
    outer loop
      vertex 326.224 402.7 8.668
      vertex 396.933 402.7 33.4284
      vertex 397.718 402.7 29.2262
    endloop
  endfacet
  facet normal 0 1 0
    outer loop
      vertex 372.38 402.7 78.6236
      vertex 315.782 402.7 27.9991
      vertex 311.872 402.7 34.0959
    endloop
  endfacet
  facet normal 0 1 0
    outer loop
      vertex 326.519 402.7 7.99751
      vertex 397.718 402.7 29.2262
      vertex 398.306 402.7 25.2684
    endloop
  endfacet
  facet normal 0 1 0
    outer loop
      vertex 383.687 402.7 65.7652
      vertex 319.08 402.7 22.4619
      vertex 315.782 402.7 27.9991
    endloop
  endfacet
  facet normal 0 1 0
    outer loop
      vertex 326.519 402.7 7.99751
      vertex 398.306 402.7 25.2684
      vertex 398.724 402.7 21.6015
    endloop
  endfacet
  facet normal 0 1 0
    outer loop
      vertex 326.519 402.7 7.99751
      vertex 398.724 402.7 21.6015
      vertex 399 402.7 18.2721
    endloop
  endfacet
  facet normal 0 1 0
    outer loop
      vertex 389.125 402.7 56.4708
      vertex 321.769 402.7 17.6224
      vertex 319.08 402.7 22.4619
    endloop
  endfacet
  facet normal 0 1 0
    outer loop
      vertex 326.519 402.7 7.99751
      vertex 399 402.7 18.2721
      vertex 399.159 402.7 15.327
    endloop
  endfacet
  facet normal 0 1 0
    outer loop
      vertex 393.133 402.7 47.0341
      vertex 323.853 402.7 13.6183
      vertex 321.769 402.7 17.6224
    endloop
  endfacet
  facet normal 0 1 0
    outer loop
      vertex 326.519 402.7 7.99751
      vertex 399.159 402.7 15.327
      vertex 399.229 402.7 12.8128
    endloop
  endfacet
  facet normal 0 1 0
    outer loop
      vertex 326.519 402.7 7.99751
      vertex 399.229 402.7 12.8128
      vertex 399.237 402.7 10.7761
    endloop
  endfacet
  facet normal 0 1 0
    outer loop
      vertex 395.926 402.7 37.8282
      vertex 325.337 402.7 10.5876
      vertex 323.853 402.7 13.6183
    endloop
  endfacet
  facet normal 0 1 0
    outer loop
      vertex 326.519 402.7 7.99751
      vertex 399.237 402.7 10.7761
      vertex 399.21 402.7 9.26352
    endloop
  endfacet
  facet normal 0 1 0
    outer loop
      vertex 396.933 402.7 33.4284
      vertex 326.224 402.7 8.668
      vertex 325.337 402.7 10.5876
    endloop
  endfacet
  facet normal 0 1 0
    outer loop
      vertex 326.519 402.7 7.99751
      vertex 399.21 402.7 9.26352
      vertex 399.174 402.7 8.32179
    endloop
  endfacet
  facet normal 0 1 0
    outer loop
      vertex 326.519 402.7 7.99751
      vertex 399.174 402.7 8.32179
      vertex 399.156 402.7 7.99751
    endloop
  endfacet
  facet normal 0 1 0
    outer loop
      vertex 397.718 402.7 29.2262
      vertex 326.519 402.7 7.99751
      vertex 326.224 402.7 8.668
    endloop
  endfacet
  facet normal 0 1 0
    outer loop
      vertex 207 402.7 136.287
      vertex 209.889 402.7 155.535
      vertex 221.643 402.7 155.219
    endloop
  endfacet
  facet normal 0 1 0
    outer loop
      vertex 207 402.7 136.287
      vertex 221.643 402.7 155.219
      vertex 233.112 402.7 154.087
    endloop
  endfacet
  facet normal 0 1 0
    outer loop
      vertex 209.889 402.7 155.535
      vertex 207 402.7 136.287
      vertex 197.861 402.7 154.965
    endloop
  endfacet
  facet normal 0 1 0
    outer loop
      vertex 207 402.7 136.287
      vertex 233.112 402.7 154.087
      vertex 244.283 402.7 152.21
    endloop
  endfacet
  facet normal 0 1 -0
    outer loop
      vertex 200.65 402.7 136.287
      vertex 197.861 402.7 154.965
      vertex 207 402.7 136.287
    endloop
  endfacet
  facet normal 0 1 0
    outer loop
      vertex 207 402.7 136.287
      vertex 244.283 402.7 152.21
      vertex 255.143 402.7 149.659
    endloop
  endfacet
  facet normal 0 1 0
    outer loop
      vertex 197.861 402.7 154.965
      vertex 200.65 402.7 136.287
      vertex 185.708 402.7 153.503
    endloop
  endfacet
  facet normal 0 1 0
    outer loop
      vertex 207 402.7 136.287
      vertex 255.143 402.7 149.659
      vertex 265.681 402.7 146.505
    endloop
  endfacet
  facet normal 0 1 0
    outer loop
      vertex 185.708 402.7 153.503
      vertex 200.65 402.7 136.287
      vertex 173.604 402.7 151.245
    endloop
  endfacet
  facet normal 0 1 0
    outer loop
      vertex 207 402.7 136.287
      vertex 265.681 402.7 146.505
      vertex 275.883 402.7 142.818
    endloop
  endfacet
  facet normal 0 1 -0
    outer loop
      vertex 179.803 402.7 99.2089
      vertex 173.604 402.7 151.245
      vertex 200.65 402.7 136.287
    endloop
  endfacet
  facet normal 0 1 0
    outer loop
      vertex 207 402.7 136.287
      vertex 275.883 402.7 142.818
      vertex 285.738 402.7 138.669
    endloop
  endfacet
  facet normal 0 1 0
    outer loop
      vertex 173.604 402.7 151.245
      vertex 179.803 402.7 99.2089
      vertex 161.603 402.7 148.273
    endloop
  endfacet
  facet normal 0 1 -0
    outer loop
      vertex 169.06 402.7 96.2376
      vertex 161.603 402.7 148.273
      vertex 179.803 402.7 99.2089
    endloop
  endfacet
  facet normal 0 1 0
    outer loop
      vertex 161.603 402.7 148.273
      vertex 169.06 402.7 96.2376
      vertex 149.759 402.7 144.669
    endloop
  endfacet
  facet normal 0 1 0
    outer loop
      vertex 149.759 402.7 144.669
      vertex 159.029 402.7 92.2578
      vertex 138.123 402.7 140.514
    endloop
  endfacet
  facet normal 0 1 0
    outer loop
      vertex 138.123 402.7 140.514
      vertex 159.029 402.7 92.2578
      vertex 126.751 402.7 135.891
    endloop
  endfacet
  facet normal 0 1 -0
    outer loop
      vertex 149.698 402.7 87.4122
      vertex 126.751 402.7 135.891
      vertex 159.029 402.7 92.2578
    endloop
  endfacet
  facet normal 0 1 0
    outer loop
      vertex 126.751 402.7 135.891
      vertex 149.698 402.7 87.4122
      vertex 115.695 402.7 130.88
    endloop
  endfacet
  facet normal 0 1 0
    outer loop
      vertex 115.695 402.7 130.88
      vertex 141.055 402.7 81.8438
      vertex 105.007 402.7 125.564
    endloop
  endfacet
  facet normal 0 1 -0
    outer loop
      vertex 133.087 402.7 75.6954
      vertex 105.007 402.7 125.564
      vertex 141.055 402.7 81.8438
    endloop
  endfacet
  facet normal 0 1 0
    outer loop
      vertex 191.269 402.7 101.029
      vertex 200.65 402.7 136.287
      vertex 200.65 402.7 101.433
    endloop
  endfacet
  facet normal 0 1 0
    outer loop
      vertex 179.803 402.7 99.2089
      vertex 200.65 402.7 136.287
      vertex 191.269 402.7 101.029
    endloop
  endfacet
  facet normal 0 1 -0
    outer loop
      vertex 159.029 402.7 92.2578
      vertex 149.759 402.7 144.669
      vertex 169.06 402.7 96.2376
    endloop
  endfacet
  facet normal 0 1 -0
    outer loop
      vertex 141.055 402.7 81.8438
      vertex 115.695 402.7 130.88
      vertex 149.698 402.7 87.4122
    endloop
  endfacet
  facet normal 0 1 0
    outer loop
      vertex 105.007 402.7 125.564
      vertex 133.087 402.7 75.6954
      vertex 94.7429 402.7 120.024
    endloop
  endfacet
  facet normal 0 1 -0
    outer loop
      vertex 125.784 402.7 69.1099
      vertex 94.7429 402.7 120.024
      vertex 133.087 402.7 75.6954
    endloop
  endfacet
  facet normal 0 1 0
    outer loop
      vertex 94.7429 402.7 120.024
      vertex 125.784 402.7 69.1099
      vertex 84.9543 402.7 114.342
    endloop
  endfacet
  facet normal 0 1 -0
    outer loop
      vertex 119.134 402.7 62.2302
      vertex 84.9543 402.7 114.342
      vertex 125.784 402.7 69.1099
    endloop
  endfacet
  facet normal 0 1 0
    outer loop
      vertex 84.9543 402.7 114.342
      vertex 119.134 402.7 62.2302
      vertex 75.6948 402.7 108.6
    endloop
  endfacet
  facet normal 0 1 -0
    outer loop
      vertex 113.124 402.7 55.1992
      vertex 75.6948 402.7 108.6
      vertex 119.134 402.7 62.2302
    endloop
  endfacet
  facet normal 0 1 0
    outer loop
      vertex 75.6948 402.7 108.6
      vertex 113.124 402.7 55.1992
      vertex 67.0178 402.7 102.879
    endloop
  endfacet
  facet normal 0 1 -0
    outer loop
      vertex 107.742 402.7 48.1597
      vertex 67.0178 402.7 102.879
      vertex 113.124 402.7 55.1992
    endloop
  endfacet
  facet normal 0 1 0
    outer loop
      vertex 67.0178 402.7 102.879
      vertex 107.742 402.7 48.1597
      vertex 58.9765 402.7 97.2618
    endloop
  endfacet
  facet normal 0 1 0
    outer loop
      vertex 58.9765 402.7 97.2618
      vertex 107.742 402.7 48.1597
      vertex 51.6243 402.7 91.8289
    endloop
  endfacet
  facet normal 0 1 -0
    outer loop
      vertex 102.977 402.7 41.2546
      vertex 51.6243 402.7 91.8289
      vertex 107.742 402.7 48.1597
    endloop
  endfacet
  facet normal 0 1 0
    outer loop
      vertex 51.6243 402.7 91.8289
      vertex 102.977 402.7 41.2546
      vertex 45.0143 402.7 86.6625
    endloop
  endfacet
  facet normal 0 1 -0
    outer loop
      vertex 98.8177 402.7 34.6268
      vertex 45.0143 402.7 86.6625
      vertex 102.977 402.7 41.2546
    endloop
  endfacet
  facet normal 0 1 0
    outer loop
      vertex 45.0143 402.7 86.6625
      vertex 98.8177 402.7 34.6268
      vertex 39.2 402.7 81.8443
    endloop
  endfacet
  facet normal 0 1 -0
    outer loop
      vertex 95.251 402.7 28.4191
      vertex 39.2 402.7 81.8443
      vertex 98.8177 402.7 34.6268
    endloop
  endfacet
  facet normal 0 1 0
    outer loop
      vertex 39.2 402.7 81.8443
      vertex 95.251 402.7 28.4191
      vertex 34.2346 402.7 77.456
    endloop
  endfacet
  facet normal 0 1 0
    outer loop
      vertex 34.2346 402.7 77.456
      vertex 95.251 402.7 28.4191
      vertex 30.1713 402.7 73.5793
    endloop
  endfacet
  facet normal 0 1 0
    outer loop
      vertex 30.1713 402.7 73.5793
      vertex 95.251 402.7 28.4191
      vertex 27.0635 402.7 70.2959
    endloop
  endfacet
  facet normal 0 1 -0
    outer loop
      vertex 92.2656 402.7 22.7745
      vertex 27.0635 402.7 70.2959
      vertex 95.251 402.7 28.4191
    endloop
  endfacet
  facet normal 0 1 0
    outer loop
      vertex 27.0635 402.7 70.2959
      vertex 92.2656 402.7 22.7745
      vertex 24.9644 402.7 67.6875
    endloop
  endfacet
  facet normal 0 1 0
    outer loop
      vertex 24.9644 402.7 67.6875
      vertex 92.2656 402.7 22.7745
      vertex 23.2455 402.7 65.2055
    endloop
  endfacet
  facet normal 0 1 0
    outer loop
      vertex 23.2455 402.7 65.2055
      vertex 92.2656 402.7 22.7745
      vertex 21.5573 402.7 62.6891
    endloop
  endfacet
  facet normal 0 1 0
    outer loop
      vertex 21.5573 402.7 62.6891
      vertex 92.2656 402.7 22.7745
      vertex 19.9114 402.7 60.1353
    endloop
  endfacet
  facet normal 0 1 -0
    outer loop
      vertex 89.8496 402.7 17.8358
      vertex 19.9114 402.7 60.1353
      vertex 92.2656 402.7 22.7745
    endloop
  endfacet
  facet normal 0 1 0
    outer loop
      vertex 19.9114 402.7 60.1353
      vertex 89.8496 402.7 17.8358
      vertex 18.3195 402.7 57.5411
    endloop
  endfacet
  facet normal 0 1 0
    outer loop
      vertex 18.3195 402.7 57.5411
      vertex 89.8496 402.7 17.8358
      vertex 16.7932 402.7 54.9032
    endloop
  endfacet
  facet normal 0 1 0
    outer loop
      vertex 16.7932 402.7 54.9032
      vertex 89.8496 402.7 17.8358
      vertex 15.3442 402.7 52.2186
    endloop
  endfacet
  facet normal 0 1 0
    outer loop
      vertex 15.3442 402.7 52.2186
      vertex 89.8496 402.7 17.8358
      vertex 13.9841 402.7 49.4842
    endloop
  endfacet
  facet normal 0 1 -0
    outer loop
      vertex 87.9911 402.7 13.7458
      vertex 13.9841 402.7 49.4842
      vertex 89.8496 402.7 17.8358
    endloop
  endfacet
  facet normal 0 1 0
    outer loop
      vertex 13.9841 402.7 49.4842
      vertex 87.9911 402.7 13.7458
      vertex 12.7245 402.7 46.6969
    endloop
  endfacet
  facet normal 0 1 0
    outer loop
      vertex 12.7245 402.7 46.6969
      vertex 87.9911 402.7 13.7458
      vertex 11.5771 402.7 43.8537
    endloop
  endfacet
  facet normal 0 1 0
    outer loop
      vertex 11.5771 402.7 43.8537
      vertex 87.9911 402.7 13.7458
      vertex 10.5535 402.7 40.9514
    endloop
  endfacet
  facet normal 0 1 -0
    outer loop
      vertex 86.6783 402.7 10.6476
      vertex 10.5535 402.7 40.9514
      vertex 87.9911 402.7 13.7458
    endloop
  endfacet
  facet normal 0 1 0
    outer loop
      vertex 10.5535 402.7 40.9514
      vertex 86.6783 402.7 10.6476
      vertex 9.66534 402.7 37.9868
    endloop
  endfacet
  facet normal 0 1 0
    outer loop
      vertex 9.66534 402.7 37.9868
      vertex 86.6783 402.7 10.6476
      vertex 8.92433 402.7 34.9571
    endloop
  endfacet
  facet normal 0 1 0
    outer loop
      vertex 8.92433 402.7 34.9571
      vertex 86.6783 402.7 10.6476
      vertex 8.34207 402.7 31.8589
    endloop
  endfacet
  facet normal 0 1 0
    outer loop
      vertex 8.34207 402.7 31.8589
      vertex 86.6783 402.7 10.6476
      vertex 7.93021 402.7 28.6893
    endloop
  endfacet
  facet normal 0 1 -0
    outer loop
      vertex 85.8992 402.7 8.68384
      vertex 7.93021 402.7 28.6893
      vertex 86.6783 402.7 10.6476
    endloop
  endfacet
  facet normal 0 1 0
    outer loop
      vertex 7.93021 402.7 28.6893
      vertex 85.8992 402.7 8.68384
      vertex 7.70038 402.7 25.4451
    endloop
  endfacet
  facet normal 0 1 0
    outer loop
      vertex 7.70038 402.7 25.4451
      vertex 85.8992 402.7 8.68384
      vertex 7.66422 402.7 22.1233
    endloop
  endfacet
  facet normal 0 1 0
    outer loop
      vertex 7.66422 402.7 22.1233
      vertex 85.8992 402.7 8.68384
      vertex 7.83337 402.7 18.7207
    endloop
  endfacet
  facet normal 0 1 -0
    outer loop
      vertex 85.6422 402.7 7.99751
      vertex 7.83337 402.7 18.7207
      vertex 85.8992 402.7 8.68384
    endloop
  endfacet
  facet normal 0 1 0
    outer loop
      vertex 7.83337 402.7 18.7207
      vertex 85.6422 402.7 7.99751
      vertex 8.21948 402.7 15.2343
    endloop
  endfacet
  facet normal 0 1 0
    outer loop
      vertex 8.21948 402.7 15.2343
      vertex 85.6422 402.7 7.99751
      vertex 8.8342 402.7 11.6609
    endloop
  endfacet
  facet normal 0 1 0
    outer loop
      vertex 8.8342 402.7 11.6609
      vertex 85.6422 402.7 7.99751
      vertex 9.68916 402.7 7.99751
    endloop
  endfacet
  facet normal 0.0982236 0 0.995164
    outer loop
      vertex 221.643 402.7 155.219
      vertex 233.112 396.35 154.087
      vertex 233.112 402.7 154.087
    endloop
  endfacet
  facet normal 0.0982236 0 0.995164
    outer loop
      vertex 233.112 396.35 154.087
      vertex 221.643 402.7 155.219
      vertex 221.643 396.35 155.219
    endloop
  endfacet
  facet normal 0.165702 0 0.986176
    outer loop
      vertex 233.112 402.7 154.087
      vertex 244.283 396.35 152.21
      vertex 244.283 402.7 152.21
    endloop
  endfacet
  facet normal 0.165702 0 0.986176
    outer loop
      vertex 244.283 396.35 152.21
      vertex 233.112 402.7 154.087
      vertex 233.112 396.35 154.087
    endloop
  endfacet
  facet normal 0.228675 0 0.973503
    outer loop
      vertex 244.283 402.7 152.21
      vertex 255.143 396.35 149.659
      vertex 255.143 402.7 149.659
    endloop
  endfacet
  facet normal 0.228675 0 0.973503
    outer loop
      vertex 255.143 396.35 149.659
      vertex 244.283 402.7 152.21
      vertex 244.283 396.35 152.21
    endloop
  endfacet
  facet normal 0.286731 0 0.958011
    outer loop
      vertex 255.143 402.7 149.659
      vertex 265.681 396.35 146.505
      vertex 265.681 402.7 146.505
    endloop
  endfacet
  facet normal 0.286731 0 0.958011
    outer loop
      vertex 265.681 396.35 146.505
      vertex 255.143 402.7 149.659
      vertex 255.143 396.35 149.659
    endloop
  endfacet
  facet normal 0.339885 0 0.940467
    outer loop
      vertex 265.681 402.7 146.505
      vertex 275.883 396.35 142.818
      vertex 275.883 402.7 142.818
    endloop
  endfacet
  facet normal 0.339885 0 0.940467
    outer loop
      vertex 275.883 396.35 142.818
      vertex 265.681 402.7 146.505
      vertex 265.681 396.35 146.505
    endloop
  endfacet
  facet normal 0.388019 0 0.921651
    outer loop
      vertex 275.883 402.7 142.818
      vertex 285.738 396.35 138.669
      vertex 285.738 402.7 138.669
    endloop
  endfacet
  facet normal 0.388019 0 0.921651
    outer loop
      vertex 285.738 396.35 138.669
      vertex 275.883 402.7 142.818
      vertex 275.883 396.35 142.818
    endloop
  endfacet
  facet normal 0.431371 0 0.902174
    outer loop
      vertex 285.738 402.7 138.669
      vertex 295.233 396.35 134.129
      vertex 295.233 402.7 134.129
    endloop
  endfacet
  facet normal 0.431371 0 0.902174
    outer loop
      vertex 295.233 396.35 134.129
      vertex 285.738 402.7 138.669
      vertex 285.738 396.35 138.669
    endloop
  endfacet
  facet normal 0.470166 0 0.882578
    outer loop
      vertex 295.233 402.7 134.129
      vertex 304.356 396.35 129.269
      vertex 304.356 402.7 129.269
    endloop
  endfacet
  facet normal 0.470166 0 0.882578
    outer loop
      vertex 304.356 396.35 129.269
      vertex 295.233 402.7 134.129
      vertex 295.233 396.35 134.129
    endloop
  endfacet
  facet normal 0.504743 0 0.86327
    outer loop
      vertex 304.356 402.7 129.269
      vertex 313.094 396.35 124.16
      vertex 313.094 402.7 124.16
    endloop
  endfacet
  facet normal 0.504743 0 0.86327
    outer loop
      vertex 313.094 396.35 124.16
      vertex 304.356 402.7 129.269
      vertex 304.356 396.35 129.269
    endloop
  endfacet
  facet normal 0.535558 0 0.844499
    outer loop
      vertex 313.094 402.7 124.16
      vertex 321.434 396.35 118.871
      vertex 321.434 402.7 118.871
    endloop
  endfacet
  facet normal 0.535558 0 0.844499
    outer loop
      vertex 321.434 396.35 118.871
      vertex 313.094 402.7 124.16
      vertex 313.094 396.35 124.16
    endloop
  endfacet
  facet normal 0.56247 0 0.826818
    outer loop
      vertex 321.434 402.7 118.871
      vertex 329.366 396.35 113.475
      vertex 329.366 402.7 113.475
    endloop
  endfacet
  facet normal 0.56247 0 0.826818
    outer loop
      vertex 329.366 396.35 113.475
      vertex 321.434 402.7 118.871
      vertex 321.434 396.35 118.871
    endloop
  endfacet
  facet normal 0.586188 0 0.810175
    outer loop
      vertex 329.366 402.7 113.475
      vertex 336.875 396.35 108.042
      vertex 336.875 402.7 108.042
    endloop
  endfacet
  facet normal 0.586188 0 0.810175
    outer loop
      vertex 336.875 396.35 108.042
      vertex 329.366 402.7 113.475
      vertex 329.366 396.35 113.475
    endloop
  endfacet
  facet normal 0.606666 0 0.794957
    outer loop
      vertex 336.875 402.7 108.042
      vertex 343.951 396.35 102.642
      vertex 343.951 402.7 102.642
    endloop
  endfacet
  facet normal 0.606666 0 0.794957
    outer loop
      vertex 343.951 396.35 102.642
      vertex 336.875 402.7 108.042
      vertex 336.875 396.35 108.042
    endloop
  endfacet
  facet normal 0.624221 0 0.781248
    outer loop
      vertex 343.951 402.7 102.642
      vertex 350.579 396.35 97.3462
      vertex 350.579 402.7 97.3462
    endloop
  endfacet
  facet normal 0.624221 0 0.781248
    outer loop
      vertex 350.579 396.35 97.3462
      vertex 343.951 402.7 102.642
      vertex 343.951 396.35 102.642
    endloop
  endfacet
  facet normal 0.63861 0 0.76953
    outer loop
      vertex 350.579 402.7 97.3462
      vertex 356.749 396.35 92.2259
      vertex 356.749 402.7 92.2259
    endloop
  endfacet
  facet normal 0.63861 0 0.76953
    outer loop
      vertex 356.749 396.35 92.2259
      vertex 350.579 402.7 97.3462
      vertex 350.579 396.35 97.3462
    endloop
  endfacet
  facet normal 0.650053 0 0.759889
    outer loop
      vertex 356.749 402.7 92.2259
      vertex 362.447 396.35 87.3515
      vertex 362.447 402.7 87.3515
    endloop
  endfacet
  facet normal 0.650053 0 0.759889
    outer loop
      vertex 362.447 396.35 87.3515
      vertex 356.749 402.7 92.2259
      vertex 356.749 396.35 92.2259
    endloop
  endfacet
  facet normal 0.658061 0 0.752965
    outer loop
      vertex 362.447 402.7 87.3515
      vertex 367.662 396.35 82.7938
      vertex 367.662 402.7 82.7938
    endloop
  endfacet
  facet normal 0.658061 0 0.752965
    outer loop
      vertex 367.662 396.35 82.7938
      vertex 362.447 402.7 87.3515
      vertex 362.447 396.35 87.3515
    endloop
  endfacet
  facet normal 0.66227 0 0.749266
    outer loop
      vertex 367.662 402.7 82.7938
      vertex 372.38 396.35 78.6236
      vertex 372.38 402.7 78.6236
    endloop
  endfacet
  facet normal 0.66227 0 0.749266
    outer loop
      vertex 372.38 396.35 78.6236
      vertex 367.662 402.7 82.7938
      vertex 367.662 396.35 82.7938
    endloop
  endfacet
  facet normal 0.694611 0 0.719385
    outer loop
      vertex 372.38 402.7 78.6236
      vertex 376.605 396.35 74.5441
      vertex 376.605 402.7 74.5441
    endloop
  endfacet
  facet normal 0.694611 0 0.719385
    outer loop
      vertex 376.605 396.35 74.5441
      vertex 372.38 402.7 78.6236
      vertex 372.38 396.35 78.6236
    endloop
  endfacet
  facet normal 0.752922 -0 0.658109
    outer loop
      vertex 376.605 396.35 74.5441
      vertex 380.365 402.7 70.2424
      vertex 376.605 402.7 74.5441
    endloop
  endfacet
  facet normal 0.752922 0 0.658109
    outer loop
      vertex 380.365 402.7 70.2424
      vertex 376.605 396.35 74.5441
      vertex 380.365 396.35 70.2424
    endloop
  endfacet
  facet normal 0.80308 -0 0.595871
    outer loop
      vertex 380.365 396.35 70.2424
      vertex 383.687 402.7 65.7652
      vertex 380.365 402.7 70.2424
    endloop
  endfacet
  facet normal 0.80308 0 0.595871
    outer loop
      vertex 383.687 402.7 65.7652
      vertex 380.365 396.35 70.2424
      vertex 383.687 396.35 65.7652
    endloop
  endfacet
  facet normal 0.845333 -0 0.53424
    outer loop
      vertex 383.687 396.35 65.7652
      vertex 386.598 402.7 61.1591
      vertex 383.687 402.7 65.7652
    endloop
  endfacet
  facet normal 0.845333 0 0.53424
    outer loop
      vertex 386.598 402.7 61.1591
      vertex 383.687 396.35 65.7652
      vertex 386.598 396.35 61.1591
    endloop
  endfacet
  facet normal 0.880273 -0 0.474468
    outer loop
      vertex 386.598 396.35 61.1591
      vertex 389.125 402.7 56.4708
      vertex 386.598 402.7 61.1591
    endloop
  endfacet
  facet normal 0.880273 0 0.474468
    outer loop
      vertex 389.125 402.7 56.4708
      vertex 386.598 396.35 61.1591
      vertex 389.125 396.35 56.4708
    endloop
  endfacet
  facet normal 0.908782 -0 0.417271
    outer loop
      vertex 389.125 396.35 56.4708
      vertex 391.294 402.7 51.7469
      vertex 389.125 402.7 56.4708
    endloop
  endfacet
  facet normal 0.908782 0 0.417271
    outer loop
      vertex 391.294 402.7 51.7469
      vertex 389.125 396.35 56.4708
      vertex 391.294 396.35 51.7469
    endloop
  endfacet
  facet normal 0.931587 -0 0.363518
    outer loop
      vertex 391.294 396.35 51.7469
      vertex 393.133 402.7 47.0341
      vertex 391.294 402.7 51.7469
    endloop
  endfacet
  facet normal 0.931587 0 0.363518
    outer loop
      vertex 393.133 402.7 47.0341
      vertex 391.294 396.35 51.7469
      vertex 393.133 396.35 47.0341
    endloop
  endfacet
  facet normal 0.9497 -0 0.31316
    outer loop
      vertex 393.133 396.35 47.0341
      vertex 394.668 402.7 42.379
      vertex 393.133 402.7 47.0341
    endloop
  endfacet
  facet normal 0.9497 0 0.31316
    outer loop
      vertex 394.668 402.7 42.379
      vertex 393.133 396.35 47.0341
      vertex 394.668 396.35 42.379
    endloop
  endfacet
  facet normal 0.963851 -0 0.266442
    outer loop
      vertex 394.668 396.35 42.379
      vertex 395.926 402.7 37.8282
      vertex 394.668 402.7 42.379
    endloop
  endfacet
  facet normal 0.963851 0 0.266442
    outer loop
      vertex 395.926 402.7 37.8282
      vertex 394.668 396.35 42.379
      vertex 395.926 396.35 37.8282
    endloop
  endfacet
  facet normal 0.974794 -0 0.223105
    outer loop
      vertex 395.926 396.35 37.8282
      vertex 396.933 402.7 33.4284
      vertex 395.926 402.7 37.8282
    endloop
  endfacet
  facet normal 0.974794 0 0.223105
    outer loop
      vertex 396.933 402.7 33.4284
      vertex 395.926 396.35 37.8282
      vertex 396.933 396.35 33.4284
    endloop
  endfacet
  facet normal 0.982995 -0 0.18363
    outer loop
      vertex 396.933 396.35 33.4284
      vertex 397.718 402.7 29.2262
      vertex 396.933 402.7 33.4284
    endloop
  endfacet
  facet normal 0.982995 0 0.18363
    outer loop
      vertex 397.718 402.7 29.2262
      vertex 396.933 396.35 33.4284
      vertex 397.718 396.35 29.2262
    endloop
  endfacet
  facet normal 0.989143 -0 0.146954
    outer loop
      vertex 397.718 396.35 29.2262
      vertex 398.306 402.7 25.2684
      vertex 397.718 402.7 29.2262
    endloop
  endfacet
  facet normal 0.989143 0 0.146954
    outer loop
      vertex 398.306 402.7 25.2684
      vertex 397.718 396.35 29.2262
      vertex 398.306 396.35 25.2684
    endloop
  endfacet
  facet normal 0.993565 -0 0.113259
    outer loop
      vertex 398.306 396.35 25.2684
      vertex 398.724 402.7 21.6015
      vertex 398.306 402.7 25.2684
    endloop
  endfacet
  facet normal 0.993565 0 0.113259
    outer loop
      vertex 398.724 402.7 21.6015
      vertex 398.306 396.35 25.2684
      vertex 398.724 396.35 21.6015
    endloop
  endfacet
  facet normal 0.996582 -0 0.0826144
    outer loop
      vertex 398.724 396.35 21.6015
      vertex 399 402.7 18.2721
      vertex 398.724 402.7 21.6015
    endloop
  endfacet
  facet normal 0.996582 0 0.0826144
    outer loop
      vertex 399 402.7 18.2721
      vertex 398.724 396.35 21.6015
      vertex 399 396.35 18.2721
    endloop
  endfacet
  facet normal 0.998546 -0 0.0539095
    outer loop
      vertex 399 396.35 18.2721
      vertex 399.159 402.7 15.327
      vertex 399 402.7 18.2721
    endloop
  endfacet
  facet normal 0.998546 0 0.0539095
    outer loop
      vertex 399.159 402.7 15.327
      vertex 399 396.35 18.2721
      vertex 399.159 396.35 15.327
    endloop
  endfacet
  facet normal 0.999613 -0 0.0278311
    outer loop
      vertex 399.159 396.35 15.327
      vertex 399.229 402.7 12.8128
      vertex 399.159 402.7 15.327
    endloop
  endfacet
  facet normal 0.999613 0 0.0278311
    outer loop
      vertex 399.229 402.7 12.8128
      vertex 399.159 396.35 15.327
      vertex 399.229 396.35 12.8128
    endloop
  endfacet
  facet normal 0.999992 -0 0.00392789
    outer loop
      vertex 399.229 396.35 12.8128
      vertex 399.237 402.7 10.7761
      vertex 399.229 402.7 12.8128
    endloop
  endfacet
  facet normal 0.999992 0 0.00392789
    outer loop
      vertex 399.237 402.7 10.7761
      vertex 399.229 396.35 12.8128
      vertex 399.237 396.35 10.7761
    endloop
  endfacet
  facet normal 0.999841 0 -0.0178475
    outer loop
      vertex 399.237 396.35 10.7761
      vertex 399.21 402.7 9.26352
      vertex 399.237 402.7 10.7761
    endloop
  endfacet
  facet normal 0.999841 0 -0.0178475
    outer loop
      vertex 399.21 402.7 9.26352
      vertex 399.237 396.35 10.7761
      vertex 399.21 396.35 9.26352
    endloop
  endfacet
  facet normal 0.99927 0 -0.0381996
    outer loop
      vertex 399.21 396.35 9.26352
      vertex 399.174 402.7 8.32179
      vertex 399.21 402.7 9.26352
    endloop
  endfacet
  facet normal 0.99927 0 -0.0381996
    outer loop
      vertex 399.174 402.7 8.32179
      vertex 399.21 396.35 9.26352
      vertex 399.174 396.35 8.32179
    endloop
  endfacet
  facet normal 0.998463 0 -0.0554223
    outer loop
      vertex 399.174 396.35 8.32179
      vertex 399.156 402.7 7.99751
      vertex 399.174 402.7 8.32179
    endloop
  endfacet
  facet normal 0.998463 0 -0.0554223
    outer loop
      vertex 399.156 402.7 7.99751
      vertex 399.174 396.35 8.32179
      vertex 399.156 396.35 7.99751
    endloop
  endfacet
  facet normal 0 0 -1
    outer loop
      vertex 326.519 396.35 7.99751
      vertex 399.156 402.7 7.99751
      vertex 399.156 396.35 7.99751
    endloop
  endfacet
  facet normal -0 0 -1
    outer loop
      vertex 399.156 402.7 7.99751
      vertex 326.519 396.35 7.99751
      vertex 326.519 402.7 7.99751
    endloop
  endfacet
  facet normal -0.915323 0 -0.402721
    outer loop
      vertex 326.519 396.35 7.99751
      vertex 326.224 402.7 8.668
      vertex 326.519 402.7 7.99751
    endloop
  endfacet
  facet normal -0.915323 -0 -0.402721
    outer loop
      vertex 326.224 402.7 8.668
      vertex 326.519 396.35 7.99751
      vertex 326.224 396.35 8.668
    endloop
  endfacet
  facet normal -0.907774 0 -0.41946
    outer loop
      vertex 326.224 396.35 8.668
      vertex 325.337 402.7 10.5876
      vertex 326.224 402.7 8.668
    endloop
  endfacet
  facet normal -0.907774 -0 -0.41946
    outer loop
      vertex 325.337 402.7 10.5876
      vertex 326.224 396.35 8.668
      vertex 325.337 396.35 10.5876
    endloop
  endfacet
  facet normal -0.898112 0 -0.439766
    outer loop
      vertex 325.337 396.35 10.5876
      vertex 323.853 402.7 13.6183
      vertex 325.337 402.7 10.5876
    endloop
  endfacet
  facet normal -0.898112 -0 -0.439766
    outer loop
      vertex 323.853 402.7 13.6183
      vertex 325.337 396.35 10.5876
      vertex 323.853 396.35 13.6183
    endloop
  endfacet
  facet normal -0.887047 0 -0.461678
    outer loop
      vertex 323.853 396.35 13.6183
      vertex 321.769 402.7 17.6224
      vertex 323.853 402.7 13.6183
    endloop
  endfacet
  facet normal -0.887047 -0 -0.461678
    outer loop
      vertex 321.769 402.7 17.6224
      vertex 323.853 396.35 13.6183
      vertex 321.769 396.35 17.6224
    endloop
  endfacet
  facet normal -0.874127 0 -0.485697
    outer loop
      vertex 321.769 396.35 17.6224
      vertex 319.08 402.7 22.4619
      vertex 321.769 402.7 17.6224
    endloop
  endfacet
  facet normal -0.874127 -0 -0.485697
    outer loop
      vertex 319.08 402.7 22.4619
      vertex 321.769 396.35 17.6224
      vertex 319.08 396.35 22.4619
    endloop
  endfacet
  facet normal -0.859153 0 -0.511718
    outer loop
      vertex 319.08 396.35 22.4619
      vertex 315.782 402.7 27.9991
      vertex 319.08 402.7 22.4619
    endloop
  endfacet
  facet normal -0.859153 -0 -0.511718
    outer loop
      vertex 315.782 402.7 27.9991
      vertex 319.08 396.35 22.4619
      vertex 315.782 396.35 27.9991
    endloop
  endfacet
  facet normal -0.841767 0 -0.539842
    outer loop
      vertex 315.782 396.35 27.9991
      vertex 311.872 402.7 34.0959
      vertex 315.782 402.7 27.9991
    endloop
  endfacet
  facet normal -0.841767 -0 -0.539842
    outer loop
      vertex 311.872 402.7 34.0959
      vertex 315.782 396.35 27.9991
      vertex 311.872 396.35 34.0959
    endloop
  endfacet
  facet normal -0.821418 0 -0.570327
    outer loop
      vertex 311.872 396.35 34.0959
      vertex 307.346 402.7 40.6145
      vertex 311.872 402.7 34.0959
    endloop
  endfacet
  facet normal -0.821418 -0 -0.570327
    outer loop
      vertex 307.346 402.7 40.6145
      vertex 311.872 396.35 34.0959
      vertex 307.346 396.35 40.6145
    endloop
  endfacet
  facet normal -0.797458 0 -0.603375
    outer loop
      vertex 307.346 396.35 40.6145
      vertex 302.199 402.7 47.4171
      vertex 307.346 402.7 40.6145
    endloop
  endfacet
  facet normal -0.797458 -0 -0.603375
    outer loop
      vertex 302.199 402.7 47.4171
      vertex 307.346 396.35 40.6145
      vertex 302.199 396.35 47.4171
    endloop
  endfacet
  facet normal -0.769228 0 -0.638975
    outer loop
      vertex 302.199 396.35 47.4171
      vertex 296.427 402.7 54.3657
      vertex 302.199 402.7 47.4171
    endloop
  endfacet
  facet normal -0.769228 -0 -0.638975
    outer loop
      vertex 296.427 402.7 54.3657
      vertex 302.199 396.35 47.4171
      vertex 296.427 396.35 54.3657
    endloop
  endfacet
  facet normal -0.735949 0 -0.677037
    outer loop
      vertex 296.427 396.35 54.3657
      vertex 290.027 402.7 61.3226
      vertex 296.427 402.7 54.3657
    endloop
  endfacet
  facet normal -0.735949 -0 -0.677037
    outer loop
      vertex 290.027 402.7 61.3226
      vertex 296.427 396.35 54.3657
      vertex 290.027 396.35 61.3226
    endloop
  endfacet
  facet normal -0.69648 0 -0.717576
    outer loop
      vertex 282.993 396.35 68.1498
      vertex 290.027 402.7 61.3226
      vertex 290.027 396.35 61.3226
    endloop
  endfacet
  facet normal -0.69648 0 -0.717576
    outer loop
      vertex 290.027 402.7 61.3226
      vertex 282.993 396.35 68.1498
      vertex 282.993 402.7 68.1498
    endloop
  endfacet
  facet normal -0.650001 0 -0.759933
    outer loop
      vertex 275.324 396.35 74.7094
      vertex 282.993 402.7 68.1498
      vertex 282.993 396.35 68.1498
    endloop
  endfacet
  facet normal -0.650001 0 -0.759933
    outer loop
      vertex 282.993 402.7 68.1498
      vertex 275.324 396.35 74.7094
      vertex 275.324 402.7 74.7094
    endloop
  endfacet
  facet normal -0.595097 0 -0.803654
    outer loop
      vertex 267.013 396.35 80.8636
      vertex 275.324 402.7 74.7094
      vertex 275.324 396.35 74.7094
    endloop
  endfacet
  facet normal -0.595097 0 -0.803654
    outer loop
      vertex 275.324 402.7 74.7094
      vertex 267.013 396.35 80.8636
      vertex 267.013 402.7 80.8636
    endloop
  endfacet
  facet normal -0.53096 0 -0.847397
    outer loop
      vertex 258.058 396.35 86.4746
      vertex 267.013 402.7 80.8636
      vertex 267.013 396.35 80.8636
    endloop
  endfacet
  facet normal -0.53096 0 -0.847397
    outer loop
      vertex 267.013 402.7 80.8636
      vertex 258.058 396.35 86.4746
      vertex 258.058 402.7 86.4746
    endloop
  endfacet
  facet normal -0.456652 0 -0.889645
    outer loop
      vertex 248.454 396.35 91.4043
      vertex 258.058 402.7 86.4746
      vertex 258.058 396.35 86.4746
    endloop
  endfacet
  facet normal -0.456652 0 -0.889645
    outer loop
      vertex 258.058 402.7 86.4746
      vertex 248.454 396.35 91.4043
      vertex 248.454 402.7 91.4043
    endloop
  endfacet
  facet normal -0.372007 0 -0.92823
    outer loop
      vertex 238.197 396.35 95.515
      vertex 248.454 402.7 91.4043
      vertex 248.454 396.35 91.4043
    endloop
  endfacet
  facet normal -0.372007 0 -0.92823
    outer loop
      vertex 248.454 402.7 91.4043
      vertex 238.197 396.35 95.515
      vertex 238.197 402.7 95.515
    endloop
  endfacet
  facet normal -0.277634 0 -0.960687
    outer loop
      vertex 227.284 396.35 98.6688
      vertex 238.197 402.7 95.515
      vertex 238.197 396.35 95.515
    endloop
  endfacet
  facet normal -0.277634 0 -0.960687
    outer loop
      vertex 238.197 402.7 95.515
      vertex 227.284 396.35 98.6688
      vertex 227.284 402.7 98.6688
    endloop
  endfacet
  facet normal -0.175151 0 -0.984542
    outer loop
      vertex 215.709 396.35 100.728
      vertex 227.284 402.7 98.6688
      vertex 227.284 396.35 98.6688
    endloop
  endfacet
  facet normal -0.175151 0 -0.984542
    outer loop
      vertex 227.284 402.7 98.6688
      vertex 215.709 396.35 100.728
      vertex 215.709 402.7 100.728
    endloop
  endfacet
  facet normal -0.067363 0 -0.997729
    outer loop
      vertex 215.709 396.35 100.728
      vertex 207 396.379 101.316
      vertex 215.709 402.7 100.728
    endloop
  endfacet
  facet normal -0.0673338 0.00814617 -0.997697
    outer loop
      vertex 203.47 396.35 101.554
      vertex 207 396.379 101.316
      vertex 215.709 396.35 100.728
    endloop
  endfacet
  facet normal -0.0672694 0 -0.997735
    outer loop
      vertex 207 396.379 101.316
      vertex 203.47 396.35 101.554
      vertex 203.47 396.379 101.554
    endloop
  endfacet
  facet normal -0.067363 0 -0.997729
    outer loop
      vertex 215.709 402.7 100.728
      vertex 207 396.379 101.316
      vertex 207 402.7 101.316
    endloop
  endfacet
  facet normal 0.0428684 0 -0.999081
    outer loop
      vertex 203.47 396.35 101.554
      vertex 200.65 396.379 101.433
      vertex 203.47 396.379 101.554
    endloop
  endfacet
  facet normal 0.0429865 0.011799 -0.999006
    outer loop
      vertex 191.269 396.35 101.029
      vertex 200.65 396.379 101.433
      vertex 203.47 396.35 101.554
    endloop
  endfacet
  facet normal 0.0430259 0 -0.999074
    outer loop
      vertex 191.269 396.35 101.029
      vertex 200.65 402.7 101.433
      vertex 200.65 396.379 101.433
    endloop
  endfacet
  facet normal 0.0430259 0 -0.999074
    outer loop
      vertex 200.65 402.7 101.433
      vertex 191.269 396.35 101.029
      vertex 191.269 402.7 101.029
    endloop
  endfacet
  facet normal 0.156776 0 -0.987634
    outer loop
      vertex 179.803 396.35 99.2089
      vertex 191.269 402.7 101.029
      vertex 191.269 396.35 101.029
    endloop
  endfacet
  facet normal 0.156776 0 -0.987634
    outer loop
      vertex 191.269 402.7 101.029
      vertex 179.803 396.35 99.2089
      vertex 179.803 402.7 99.2089
    endloop
  endfacet
  facet normal 0.266572 0 -0.963815
    outer loop
      vertex 169.06 396.35 96.2376
      vertex 179.803 402.7 99.2089
      vertex 179.803 396.35 99.2089
    endloop
  endfacet
  facet normal 0.266572 0 -0.963815
    outer loop
      vertex 179.803 402.7 99.2089
      vertex 169.06 396.35 96.2376
      vertex 169.06 402.7 96.2376
    endloop
  endfacet
  facet normal 0.368785 0 -0.929515
    outer loop
      vertex 159.029 396.35 92.2578
      vertex 169.06 402.7 96.2376
      vertex 169.06 396.35 96.2376
    endloop
  endfacet
  facet normal 0.368785 0 -0.929515
    outer loop
      vertex 169.06 402.7 96.2376
      vertex 159.029 396.35 92.2578
      vertex 159.029 402.7 92.2578
    endloop
  endfacet
  facet normal 0.460865 0 -0.88747
    outer loop
      vertex 149.698 396.35 87.4122
      vertex 159.029 402.7 92.2578
      vertex 159.029 396.35 92.2578
    endloop
  endfacet
  facet normal 0.460865 0 -0.88747
    outer loop
      vertex 159.029 402.7 92.2578
      vertex 149.698 396.35 87.4122
      vertex 149.698 402.7 87.4122
    endloop
  endfacet
  facet normal 0.541596 0 -0.840639
    outer loop
      vertex 141.055 396.35 81.8438
      vertex 149.698 402.7 87.4122
      vertex 149.698 396.35 87.4122
    endloop
  endfacet
  facet normal 0.541596 0 -0.840639
    outer loop
      vertex 149.698 402.7 87.4122
      vertex 141.055 396.35 81.8438
      vertex 141.055 402.7 81.8438
    endloop
  endfacet
  facet normal 0.610907 0 -0.791703
    outer loop
      vertex 133.087 396.35 75.6954
      vertex 141.055 402.7 81.8438
      vertex 141.055 396.35 81.8438
    endloop
  endfacet
  facet normal 0.610907 0 -0.791703
    outer loop
      vertex 141.055 402.7 81.8438
      vertex 133.087 396.35 75.6954
      vertex 133.087 402.7 75.6954
    endloop
  endfacet
  facet normal 0.669684 0 -0.742647
    outer loop
      vertex 125.784 396.35 69.1099
      vertex 133.087 402.7 75.6954
      vertex 133.087 396.35 75.6954
    endloop
  endfacet
  facet normal 0.669684 0 -0.742647
    outer loop
      vertex 133.087 402.7 75.6954
      vertex 125.784 396.35 69.1099
      vertex 125.784 402.7 69.1099
    endloop
  endfacet
  facet normal 0.719008 0 -0.695002
    outer loop
      vertex 125.784 396.35 69.1099
      vertex 119.134 402.7 62.2302
      vertex 125.784 402.7 69.1099
    endloop
  endfacet
  facet normal 0.719008 0 -0.695002
    outer loop
      vertex 119.134 402.7 62.2302
      vertex 125.784 396.35 69.1099
      vertex 119.134 396.35 62.2302
    endloop
  endfacet
  facet normal 0.760141 0 -0.649758
    outer loop
      vertex 119.134 396.35 62.2302
      vertex 113.124 402.7 55.1992
      vertex 119.134 402.7 62.2302
    endloop
  endfacet
  facet normal 0.760141 0 -0.649758
    outer loop
      vertex 113.124 402.7 55.1992
      vertex 119.134 396.35 62.2302
      vertex 113.124 396.35 55.1992
    endloop
  endfacet
  facet normal 0.79442 0 -0.607368
    outer loop
      vertex 113.124 396.35 55.1992
      vertex 107.742 402.7 48.1597
      vertex 113.124 402.7 55.1992
    endloop
  endfacet
  facet normal 0.79442 0 -0.607368
    outer loop
      vertex 107.742 402.7 48.1597
      vertex 113.124 396.35 55.1992
      vertex 107.742 396.35 48.1597
    endloop
  endfacet
  facet normal 0.823053 0 -0.567964
    outer loop
      vertex 107.742 396.35 48.1597
      vertex 102.977 402.7 41.2546
      vertex 107.742 402.7 48.1597
    endloop
  endfacet
  facet normal 0.823053 0 -0.567964
    outer loop
      vertex 102.977 402.7 41.2546
      vertex 107.742 396.35 48.1597
      vertex 102.977 396.35 41.2546
    endloop
  endfacet
  facet normal 0.847025 0 -0.531553
    outer loop
      vertex 102.977 396.35 41.2546
      vertex 98.8177 402.7 34.6268
      vertex 102.977 402.7 41.2546
    endloop
  endfacet
  facet normal 0.847025 0 -0.531553
    outer loop
      vertex 98.8177 402.7 34.6268
      vertex 102.977 396.35 41.2546
      vertex 98.8177 396.35 34.6268
    endloop
  endfacet
  facet normal 0.867071 0 -0.498185
    outer loop
      vertex 98.8177 396.35 34.6268
      vertex 95.251 402.7 28.4191
      vertex 98.8177 402.7 34.6268
    endloop
  endfacet
  facet normal 0.867071 0 -0.498185
    outer loop
      vertex 95.251 402.7 28.4191
      vertex 98.8177 396.35 34.6268
      vertex 95.251 396.35 28.4191
    endloop
  endfacet
  facet normal 0.883977 0 -0.467531
    outer loop
      vertex 95.251 396.35 28.4191
      vertex 92.2656 402.7 22.7745
      vertex 95.251 402.7 28.4191
    endloop
  endfacet
  facet normal 0.883977 0 -0.467531
    outer loop
      vertex 92.2656 402.7 22.7745
      vertex 95.251 396.35 28.4191
      vertex 92.2656 396.35 22.7745
    endloop
  endfacet
  facet normal 0.898275 0 -0.439434
    outer loop
      vertex 92.2656 396.35 22.7745
      vertex 89.8496 402.7 17.8358
      vertex 92.2656 402.7 22.7745
    endloop
  endfacet
  facet normal 0.898275 0 -0.439434
    outer loop
      vertex 89.8496 402.7 17.8358
      vertex 92.2656 396.35 22.7745
      vertex 89.8496 396.35 17.8358
    endloop
  endfacet
  facet normal 0.910416 0 -0.413694
    outer loop
      vertex 89.8496 396.35 17.8358
      vertex 87.9911 402.7 13.7458
      vertex 89.8496 402.7 17.8358
    endloop
  endfacet
  facet normal 0.910416 0 -0.413694
    outer loop
      vertex 87.9911 402.7 13.7458
      vertex 89.8496 396.35 17.8358
      vertex 87.9911 396.35 13.7458
    endloop
  endfacet
  facet normal 0.920751 0 -0.39015
    outer loop
      vertex 87.9911 396.35 13.7458
      vertex 86.6783 402.7 10.6476
      vertex 87.9911 402.7 13.7458
    endloop
  endfacet
  facet normal 0.920751 0 -0.39015
    outer loop
      vertex 86.6783 402.7 10.6476
      vertex 87.9911 396.35 13.7458
      vertex 86.6783 396.35 10.6476
    endloop
  endfacet
  facet normal 0.929518 0 -0.368776
    outer loop
      vertex 86.6783 396.35 10.6476
      vertex 85.8992 402.7 8.68384
      vertex 86.6783 402.7 10.6476
    endloop
  endfacet
  facet normal 0.929518 0 -0.368776
    outer loop
      vertex 85.8992 402.7 8.68384
      vertex 86.6783 396.35 10.6476
      vertex 85.8992 396.35 8.68384
    endloop
  endfacet
  facet normal 0.936497 0 -0.350676
    outer loop
      vertex 85.8992 396.35 8.68384
      vertex 85.6422 402.7 7.99751
      vertex 85.8992 402.7 8.68384
    endloop
  endfacet
  facet normal 0.936497 0 -0.350676
    outer loop
      vertex 85.6422 402.7 7.99751
      vertex 85.8992 396.35 8.68384
      vertex 85.6422 396.35 7.99751
    endloop
  endfacet
  facet normal 0 0 -1
    outer loop
      vertex 9.68916 396.35 7.99751
      vertex 85.6422 402.7 7.99751
      vertex 85.6422 396.35 7.99751
    endloop
  endfacet
  facet normal -0 0 -1
    outer loop
      vertex 85.6422 402.7 7.99751
      vertex 9.68916 396.35 7.99751
      vertex 9.68916 402.7 7.99751
    endloop
  endfacet
  facet normal -0.973831 0 -0.227272
    outer loop
      vertex 9.68916 396.35 7.99751
      vertex 8.8342 402.7 11.6609
      vertex 9.68916 402.7 7.99751
    endloop
  endfacet
  facet normal -0.973831 -0 -0.227272
    outer loop
      vertex 8.8342 402.7 11.6609
      vertex 9.68916 396.35 7.99751
      vertex 8.8342 396.35 11.6609
    endloop
  endfacet
  facet normal -0.985524 0 -0.169536
    outer loop
      vertex 8.8342 396.35 11.6609
      vertex 8.21948 402.7 15.2343
      vertex 8.8342 402.7 11.6609
    endloop
  endfacet
  facet normal -0.985524 -0 -0.169536
    outer loop
      vertex 8.21948 402.7 15.2343
      vertex 8.8342 396.35 11.6609
      vertex 8.21948 396.35 15.2343
    endloop
  endfacet
  facet normal -0.993923 0 -0.110075
    outer loop
      vertex 8.21948 396.35 15.2343
      vertex 7.83337 402.7 18.7207
      vertex 8.21948 402.7 15.2343
    endloop
  endfacet
  facet normal -0.993923 -0 -0.110075
    outer loop
      vertex 7.83337 402.7 18.7207
      vertex 8.21948 396.35 15.2343
      vertex 7.83337 396.35 18.7207
    endloop
  endfacet
  facet normal -0.998767 0 -0.0496507
    outer loop
      vertex 7.83337 396.35 18.7207
      vertex 7.66422 402.7 22.1233
      vertex 7.83337 402.7 18.7207
    endloop
  endfacet
  facet normal -0.998767 -0 -0.0496507
    outer loop
      vertex 7.66422 402.7 22.1233
      vertex 7.83337 396.35 18.7207
      vertex 7.66422 396.35 22.1233
    endloop
  endfacet
  facet normal -0.999941 0 0.010885
    outer loop
      vertex 7.66422 396.35 22.1233
      vertex 7.70038 402.7 25.4451
      vertex 7.66422 402.7 22.1233
    endloop
  endfacet
  facet normal -0.999941 0 0.010885
    outer loop
      vertex 7.70038 402.7 25.4451
      vertex 7.66422 396.35 22.1233
      vertex 7.70038 396.35 25.4451
    endloop
  endfacet
  facet normal -0.9975 0 0.0706662
    outer loop
      vertex 7.70038 396.35 25.4451
      vertex 7.93021 402.7 28.6893
      vertex 7.70038 402.7 25.4451
    endloop
  endfacet
  facet normal -0.9975 0 0.0706662
    outer loop
      vertex 7.93021 402.7 28.6893
      vertex 7.70038 396.35 25.4451
      vertex 7.93021 396.35 28.6893
    endloop
  endfacet
  facet normal -0.991663 0 0.128857
    outer loop
      vertex 7.93021 396.35 28.6893
      vertex 8.34207 402.7 31.8589
      vertex 7.93021 402.7 28.6893
    endloop
  endfacet
  facet normal -0.991663 0 0.128857
    outer loop
      vertex 8.34207 402.7 31.8589
      vertex 7.93021 396.35 28.6893
      vertex 8.34207 396.35 31.8589
    endloop
  endfacet
  facet normal -0.982795 0 0.184701
    outer loop
      vertex 8.34207 396.35 31.8589
      vertex 8.92433 402.7 34.9571
      vertex 8.34207 402.7 31.8589
    endloop
  endfacet
  facet normal -0.982795 0 0.184701
    outer loop
      vertex 8.92433 402.7 34.9571
      vertex 8.34207 396.35 31.8589
      vertex 8.92433 396.35 34.9571
    endloop
  endfacet
  facet normal -0.971368 0 0.237579
    outer loop
      vertex 8.92433 396.35 34.9571
      vertex 9.66534 402.7 37.9868
      vertex 8.92433 402.7 34.9571
    endloop
  endfacet
  facet normal -0.971368 0 0.237579
    outer loop
      vertex 9.66534 402.7 37.9868
      vertex 8.92433 396.35 34.9571
      vertex 9.66534 396.35 37.9868
    endloop
  endfacet
  facet normal -0.957935 0 0.286986
    outer loop
      vertex 9.66534 396.35 37.9868
      vertex 10.5535 402.7 40.9514
      vertex 9.66534 402.7 37.9868
    endloop
  endfacet
  facet normal -0.957935 0 0.286986
    outer loop
      vertex 10.5535 402.7 40.9514
      vertex 9.66534 396.35 37.9868
      vertex 10.5535 396.35 40.9514
    endloop
  endfacet
  facet normal -0.943066 0 0.332606
    outer loop
      vertex 10.5535 396.35 40.9514
      vertex 11.5771 402.7 43.8537
      vertex 10.5535 402.7 40.9514
    endloop
  endfacet
  facet normal -0.943066 0 0.332606
    outer loop
      vertex 11.5771 402.7 43.8537
      vertex 10.5535 396.35 40.9514
      vertex 11.5771 396.35 43.8537
    endloop
  endfacet
  facet normal -0.927334 0 0.374234
    outer loop
      vertex 11.5771 396.35 43.8537
      vertex 12.7245 402.7 46.6969
      vertex 11.5771 402.7 43.8537
    endloop
  endfacet
  facet normal -0.927334 0 0.374234
    outer loop
      vertex 12.7245 402.7 46.6969
      vertex 11.5771 396.35 43.8537
      vertex 12.7245 396.35 46.6969
    endloop
  endfacet
  facet normal -0.91127 0 0.411809
    outer loop
      vertex 12.7245 396.35 46.6969
      vertex 13.9841 402.7 49.4842
      vertex 12.7245 402.7 46.6969
    endloop
  endfacet
  facet normal -0.91127 0 0.411809
    outer loop
      vertex 13.9841 402.7 49.4842
      vertex 12.7245 396.35 46.6969
      vertex 13.9841 396.35 49.4842
    endloop
  endfacet
  facet normal -0.895355 0 0.445353
    outer loop
      vertex 13.9841 396.35 49.4842
      vertex 15.3442 402.7 52.2186
      vertex 13.9841 402.7 49.4842
    endloop
  endfacet
  facet normal -0.895355 0 0.445353
    outer loop
      vertex 15.3442 402.7 52.2186
      vertex 13.9841 396.35 49.4842
      vertex 15.3442 396.35 52.2186
    endloop
  endfacet
  facet normal -0.879999 0 0.474975
    outer loop
      vertex 15.3442 396.35 52.2186
      vertex 16.7932 402.7 54.9032
      vertex 15.3442 402.7 52.2186
    endloop
  endfacet
  facet normal -0.879999 0 0.474975
    outer loop
      vertex 16.7932 402.7 54.9032
      vertex 15.3442 396.35 52.2186
      vertex 16.7932 396.35 54.9032
    endloop
  endfacet
  facet normal -0.865555 0 0.500814
    outer loop
      vertex 16.7932 396.35 54.9032
      vertex 18.3195 402.7 57.5411
      vertex 16.7932 402.7 54.9032
    endloop
  endfacet
  facet normal -0.865555 0 0.500814
    outer loop
      vertex 18.3195 402.7 57.5411
      vertex 16.7932 396.35 54.9032
      vertex 18.3195 396.35 57.5411
    endloop
  endfacet
  facet normal -0.852322 0 0.523017
    outer loop
      vertex 18.3195 396.35 57.5411
      vertex 19.9114 402.7 60.1353
      vertex 18.3195 402.7 57.5411
    endloop
  endfacet
  facet normal -0.852322 0 0.523017
    outer loop
      vertex 19.9114 402.7 60.1353
      vertex 18.3195 396.35 57.5411
      vertex 19.9114 396.35 60.1353
    endloop
  endfacet
  facet normal -0.840553 0 0.541729
    outer loop
      vertex 19.9114 396.35 60.1353
      vertex 21.5573 402.7 62.6891
      vertex 19.9114 402.7 60.1353
    endloop
  endfacet
  facet normal -0.840553 0 0.541729
    outer loop
      vertex 21.5573 402.7 62.6891
      vertex 19.9114 396.35 60.1353
      vertex 21.5573 396.35 62.6891
    endloop
  endfacet
  facet normal -0.830432 0 0.55712
    outer loop
      vertex 21.5573 396.35 62.6891
      vertex 23.2455 402.7 65.2055
      vertex 21.5573 402.7 62.6891
    endloop
  endfacet
  facet normal -0.830432 0 0.55712
    outer loop
      vertex 23.2455 402.7 65.2055
      vertex 21.5573 396.35 62.6891
      vertex 23.2455 396.35 65.2055
    endloop
  endfacet
  facet normal -0.8221 0 0.569343
    outer loop
      vertex 23.2455 396.35 65.2055
      vertex 24.9644 402.7 67.6875
      vertex 23.2455 402.7 65.2055
    endloop
  endfacet
  facet normal -0.8221 0 0.569343
    outer loop
      vertex 24.9644 402.7 67.6875
      vertex 23.2455 396.35 65.2055
      vertex 24.9644 396.35 67.6875
    endloop
  endfacet
  facet normal -0.779062 0 0.626947
    outer loop
      vertex 24.9644 396.35 67.6875
      vertex 27.0635 402.7 70.2959
      vertex 24.9644 402.7 67.6875
    endloop
  endfacet
  facet normal -0.779062 0 0.626947
    outer loop
      vertex 27.0635 402.7 70.2959
      vertex 24.9644 396.35 67.6875
      vertex 27.0635 396.35 70.2959
    endloop
  endfacet
  facet normal -0.726261 0 0.687419
    outer loop
      vertex 27.0635 396.35 70.2959
      vertex 30.1713 402.7 73.5793
      vertex 27.0635 402.7 70.2959
    endloop
  endfacet
  facet normal -0.726261 0 0.687419
    outer loop
      vertex 30.1713 402.7 73.5793
      vertex 27.0635 396.35 70.2959
      vertex 30.1713 396.35 73.5793
    endloop
  endfacet
  facet normal -0.690298 0 0.723525
    outer loop
      vertex 30.1713 402.7 73.5793
      vertex 34.2346 396.35 77.456
      vertex 34.2346 402.7 77.456
    endloop
  endfacet
  facet normal -0.690298 0 0.723525
    outer loop
      vertex 34.2346 396.35 77.456
      vertex 30.1713 402.7 73.5793
      vertex 30.1713 396.35 73.5793
    endloop
  endfacet
  facet normal -0.662221 0 0.749309
    outer loop
      vertex 34.2346 402.7 77.456
      vertex 39.2 396.35 81.8443
      vertex 39.2 402.7 81.8443
    endloop
  endfacet
  facet normal -0.662221 0 0.749309
    outer loop
      vertex 39.2 396.35 81.8443
      vertex 34.2346 402.7 77.456
      vertex 34.2346 396.35 77.456
    endloop
  endfacet
  facet normal -0.638068 0 0.76998
    outer loop
      vertex 39.2 402.7 81.8443
      vertex 45.0143 396.35 86.6625
      vertex 45.0143 402.7 86.6625
    endloop
  endfacet
  facet normal -0.638068 0 0.76998
    outer loop
      vertex 45.0143 396.35 86.6625
      vertex 39.2 402.7 81.8443
      vertex 39.2 396.35 81.8443
    endloop
  endfacet
  facet normal -0.615817 0 0.787889
    outer loop
      vertex 45.0143 402.7 86.6625
      vertex 51.6243 396.35 91.8289
      vertex 51.6243 402.7 91.8289
    endloop
  endfacet
  facet normal -0.615817 0 0.787889
    outer loop
      vertex 51.6243 396.35 91.8289
      vertex 45.0143 402.7 86.6625
      vertex 45.0143 396.35 86.6625
    endloop
  endfacet
  facet normal -0.594297 0 0.804246
    outer loop
      vertex 51.6243 402.7 91.8289
      vertex 58.9765 396.35 97.2618
      vertex 58.9765 402.7 97.2618
    endloop
  endfacet
  facet normal -0.594297 0 0.804246
    outer loop
      vertex 58.9765 396.35 97.2618
      vertex 51.6243 402.7 91.8289
      vertex 51.6243 396.35 91.8289
    endloop
  endfacet
  facet normal -0.572661 0 0.819792
    outer loop
      vertex 58.9765 402.7 97.2618
      vertex 67.0178 396.35 102.879
      vertex 67.0178 402.7 102.879
    endloop
  endfacet
  facet normal -0.572661 0 0.819792
    outer loop
      vertex 67.0178 396.35 102.879
      vertex 58.9765 402.7 97.2618
      vertex 58.9765 396.35 97.2618
    endloop
  endfacet
  facet normal -0.550452 0 0.834867
    outer loop
      vertex 67.0178 402.7 102.879
      vertex 75.6948 396.35 108.6
      vertex 75.6948 402.7 108.6
    endloop
  endfacet
  facet normal -0.550452 0 0.834867
    outer loop
      vertex 75.6948 396.35 108.6
      vertex 67.0178 402.7 102.879
      vertex 67.0178 396.35 102.879
    endloop
  endfacet
  facet normal -0.527013 0 0.849857
    outer loop
      vertex 75.6948 402.7 108.6
      vertex 84.9543 396.35 114.342
      vertex 84.9543 402.7 114.342
    endloop
  endfacet
  facet normal -0.527013 0 0.849857
    outer loop
      vertex 84.9543 396.35 114.342
      vertex 75.6948 402.7 108.6
      vertex 75.6948 396.35 108.6
    endloop
  endfacet
  facet normal -0.502023 0 0.864854
    outer loop
      vertex 84.9543 402.7 114.342
      vertex 94.7429 396.35 120.024
      vertex 94.7429 402.7 120.024
    endloop
  endfacet
  facet normal -0.502023 0 0.864854
    outer loop
      vertex 94.7429 396.35 120.024
      vertex 84.9543 402.7 114.342
      vertex 84.9543 396.35 114.342
    endloop
  endfacet
  facet normal -0.474975 0 0.879999
    outer loop
      vertex 94.7429 402.7 120.024
      vertex 105.007 396.35 125.564
      vertex 105.007 402.7 125.564
    endloop
  endfacet
  facet normal -0.474975 0 0.879999
    outer loop
      vertex 105.007 396.35 125.564
      vertex 94.7429 402.7 120.024
      vertex 94.7429 396.35 120.024
    endloop
  endfacet
  facet normal -0.445336 0 0.895363
    outer loop
      vertex 105.007 402.7 125.564
      vertex 115.695 396.35 130.88
      vertex 115.695 402.7 130.88
    endloop
  endfacet
  facet normal -0.445336 0 0.895363
    outer loop
      vertex 115.695 396.35 130.88
      vertex 105.007 402.7 125.564
      vertex 105.007 396.35 125.564
    endloop
  endfacet
  facet normal -0.412816 0 0.910815
    outer loop
      vertex 115.695 402.7 130.88
      vertex 126.751 396.35 135.891
      vertex 126.751 402.7 135.891
    endloop
  endfacet
  facet normal -0.412816 0 0.910815
    outer loop
      vertex 126.751 396.35 135.891
      vertex 115.695 402.7 130.88
      vertex 115.695 396.35 130.88
    endloop
  endfacet
  facet normal -0.376596 0 0.926378
    outer loop
      vertex 126.751 402.7 135.891
      vertex 138.123 396.35 140.514
      vertex 138.123 402.7 140.514
    endloop
  endfacet
  facet normal -0.376596 0 0.926378
    outer loop
      vertex 138.123 396.35 140.514
      vertex 126.751 402.7 135.891
      vertex 126.751 396.35 135.891
    endloop
  endfacet
  facet normal -0.336285 0 0.94176
    outer loop
      vertex 138.123 402.7 140.514
      vertex 149.759 396.35 144.669
      vertex 149.759 402.7 144.669
    endloop
  endfacet
  facet normal -0.336285 0 0.94176
    outer loop
      vertex 149.759 396.35 144.669
      vertex 138.123 402.7 140.514
      vertex 138.123 396.35 140.514
    endloop
  endfacet
  facet normal -0.29111 0 0.95669
    outer loop
      vertex 149.759 402.7 144.669
      vertex 161.603 396.35 148.273
      vertex 161.603 402.7 148.273
    endloop
  endfacet
  facet normal -0.29111 0 0.95669
    outer loop
      vertex 161.603 396.35 148.273
      vertex 149.759 402.7 144.669
      vertex 149.759 396.35 144.669
    endloop
  endfacet
  facet normal -0.240384 0 0.970678
    outer loop
      vertex 161.603 402.7 148.273
      vertex 173.604 396.35 151.245
      vertex 173.604 402.7 151.245
    endloop
  endfacet
  facet normal -0.240384 0 0.970678
    outer loop
      vertex 173.604 396.35 151.245
      vertex 161.603 402.7 148.273
      vertex 161.603 396.35 148.273
    endloop
  endfacet
  facet normal -0.183386 0 0.983041
    outer loop
      vertex 173.604 402.7 151.245
      vertex 185.708 396.35 153.503
      vertex 185.708 402.7 153.503
    endloop
  endfacet
  facet normal -0.183386 0 0.983041
    outer loop
      vertex 185.708 396.35 153.503
      vertex 173.604 402.7 151.245
      vertex 173.604 396.35 151.245
    endloop
  endfacet
  facet normal -0.119438 0 0.992842
    outer loop
      vertex 185.708 402.7 153.503
      vertex 197.861 396.35 154.965
      vertex 197.861 402.7 154.965
    endloop
  endfacet
  facet normal -0.119438 0 0.992842
    outer loop
      vertex 197.861 396.35 154.965
      vertex 185.708 402.7 153.503
      vertex 185.708 396.35 153.503
    endloop
  endfacet
  facet normal -0.0473363 0 0.998879
    outer loop
      vertex 197.861 402.7 154.965
      vertex 209.889 396.35 155.535
      vertex 209.889 402.7 155.535
    endloop
  endfacet
  facet normal -0.0473363 0 0.998879
    outer loop
      vertex 209.889 396.35 155.535
      vertex 197.861 402.7 154.965
      vertex 197.861 396.35 154.965
    endloop
  endfacet
  facet normal 0.0268748 0 0.999639
    outer loop
      vertex 209.889 402.7 155.535
      vertex 221.643 396.35 155.219
      vertex 221.643 402.7 155.219
    endloop
  endfacet
  facet normal 0.0268748 0 0.999639
    outer loop
      vertex 221.643 396.35 155.219
      vertex 209.889 402.7 155.535
      vertex 209.889 396.35 155.535
    endloop
  endfacet
  facet normal -1 0 0
    outer loop
      vertex 207 396.379 117.87
      vertex 207 402.7 101.316
      vertex 207 396.379 101.316
    endloop
  endfacet
  facet normal -1 0 0
    outer loop
      vertex 207 402.7 101.316
      vertex 207 396.379 117.87
      vertex 207 402.7 136.287
    endloop
  endfacet
  facet normal -1 0 0
    outer loop
      vertex 207 396.35 137.114
      vertex 207 396.379 117.87
      vertex 207 396.35 117.87
    endloop
  endfacet
  facet normal -1 0 0
    outer loop
      vertex 207 396.379 117.87
      vertex 207 396.35 137.114
      vertex 207 402.7 136.287
    endloop
  endfacet
  facet normal 1 0 0
    outer loop
      vertex 200.65 402.7 136.287
      vertex 200.65 396.379 117.87
      vertex 200.65 402.7 101.433
    endloop
  endfacet
  facet normal 1 0 0
    outer loop
      vertex 200.65 396.35 137.114
      vertex 200.65 396.379 117.87
      vertex 200.65 402.7 136.287
    endloop
  endfacet
  facet normal 1 0 0
    outer loop
      vertex 200.65 396.379 117.87
      vertex 200.65 396.35 137.114
      vertex 200.65 396.35 117.87
    endloop
  endfacet
  facet normal 1 0 0
    outer loop
      vertex 200.65 402.7 101.433
      vertex 200.65 396.379 117.87
      vertex 200.65 396.379 101.433
    endloop
  endfacet
  facet normal 0 -0.129146 -0.991626
    outer loop
      vertex 200.65 396.35 137.114
      vertex 207 402.7 136.287
      vertex 207 396.35 137.114
    endloop
  endfacet
  facet normal -0 -0.129146 -0.991626
    outer loop
      vertex 207 402.7 136.287
      vertex 200.65 396.35 137.114
      vertex 200.65 402.7 136.287
    endloop
  endfacet
  facet normal 0 1 0
    outer loop
      vertex 207 396.379 117.87
      vertex 203.47 396.379 101.554
      vertex 200.65 396.379 117.87
    endloop
  endfacet
  facet normal -0 1 0
    outer loop
      vertex 203.47 396.379 101.554
      vertex 207 396.379 117.87
      vertex 207 396.379 101.316
    endloop
  endfacet
  facet normal 0 1 0
    outer loop
      vertex 200.65 396.379 117.87
      vertex 203.47 396.379 101.554
      vertex 200.65 396.379 101.433
    endloop
  endfacet
  facet normal -0 0 1
    outer loop
      vertex 200.65 396.379 117.87
      vertex 207 396.35 117.87
      vertex 207 396.379 117.87
    endloop
  endfacet
  facet normal 0 0 1
    outer loop
      vertex 207 396.35 117.87
      vertex 200.65 396.379 117.87
      vertex 200.65 396.35 117.87
    endloop
  endfacet
endsolid OpenSCAD_Model
