solid OpenSCAD_Model
  facet normal 0 -1 0
    outer loop
      vertex 135.016 457.5 75.6954
      vertex 105.007 457.5 125.564
      vertex 94.7429 457.5 120.024
    endloop
  endfacet
  facet normal 0 -1 0
    outer loop
      vertex 128.193 457.5 69.1099
      vertex 94.7429 457.5 120.024
      vertex 84.9543 457.5 114.342
    endloop
  endfacet
  facet normal 0 -1 0
    outer loop
      vertex 122.044 457.5 62.2302
      vertex 84.9543 457.5 114.342
      vertex 75.6948 457.5 108.6
    endloop
  endfacet
  facet normal 0 -1 0
    outer loop
      vertex 116.546 457.5 55.1992
      vertex 75.6948 457.5 108.6
      vertex 67.0178 457.5 102.879
    endloop
  endfacet
  facet normal 0 -1 0
    outer loop
      vertex 105.007 457.5 125.564
      vertex 159.741 457.5 92.2578
      vertex 169.476 457.5 96.2376
    endloop
  endfacet
  facet normal 0 -1 -0
    outer loop
      vertex 200.65 457.5 124.962
      vertex 191.318 457.5 101.029
      vertex 200.65 457.5 101.432
    endloop
  endfacet
  facet normal 0 -1 0
    outer loop
      vertex 200.65 457.5 124.962
      vertex 179.994 457.5 99.2089
      vertex 191.318 457.5 101.029
    endloop
  endfacet
  facet normal 0 -1 0
    outer loop
      vertex 111.676 457.5 48.1597
      vertex 67.0178 457.5 102.879
      vertex 58.9765 457.5 97.2618
    endloop
  endfacet
  facet normal 0 -1 0
    outer loop
      vertex 200.65 457.5 124.962
      vertex 169.476 457.5 96.2376
      vertex 179.994 457.5 99.2089
    endloop
  endfacet
  facet normal 0 -1 0
    outer loop
      vertex 105.007 457.5 125.564
      vertex 169.476 457.5 96.2376
      vertex 200.65 457.5 124.962
    endloop
  endfacet
  facet normal 0 -1 0
    outer loop
      vertex 111.676 457.5 48.1597
      vertex 58.9765 457.5 97.2618
      vertex 51.6243 457.5 91.8289
    endloop
  endfacet
  facet normal 0 -1 0
    outer loop
      vertex 105.007 457.5 125.564
      vertex 150.767 457.5 87.4122
      vertex 159.741 457.5 92.2578
    endloop
  endfacet
  facet normal 0 -1 0
    outer loop
      vertex 107.412 457.5 41.2546
      vertex 51.6243 457.5 91.8289
      vertex 45.0143 457.5 86.6625
    endloop
  endfacet
  facet normal 0 -1 0
    outer loop
      vertex 103.733 457.5 34.6268
      vertex 45.0143 457.5 86.6625
      vertex 39.2 457.5 81.8443
    endloop
  endfacet
  facet normal 0 -1 0
    outer loop
      vertex 105.007 457.5 125.564
      vertex 142.533 457.5 81.8438
      vertex 150.767 457.5 87.4122
    endloop
  endfacet
  facet normal 0 -1 0
    outer loop
      vertex 100.617 457.5 28.4191
      vertex 39.2 457.5 81.8443
      vertex 34.2346 457.5 77.456
    endloop
  endfacet
  facet normal 0 -1 0
    outer loop
      vertex 105.007 457.5 125.564
      vertex 135.016 457.5 75.6954
      vertex 142.533 457.5 81.8438
    endloop
  endfacet
  facet normal 0 -1 0
    outer loop
      vertex 100.617 457.5 28.4191
      vertex 34.2346 457.5 77.456
      vertex 30.1713 457.5 73.5793
    endloop
  endfacet
  facet normal 0 -1 0
    outer loop
      vertex 98.0401 457.5 22.7745
      vertex 30.1713 457.5 73.5793
      vertex 27.0635 457.5 70.2959
    endloop
  endfacet
  facet normal 0 -1 0
    outer loop
      vertex 94.7429 457.5 120.024
      vertex 128.193 457.5 69.1099
      vertex 135.016 457.5 75.6954
    endloop
  endfacet
  facet normal 0 -1 0
    outer loop
      vertex 98.0401 457.5 22.7745
      vertex 27.0635 457.5 70.2959
      vertex 24.9644 457.5 67.6875
    endloop
  endfacet
  facet normal 0 -1 0
    outer loop
      vertex 98.0401 457.5 22.7745
      vertex 24.9644 457.5 67.6875
      vertex 23.2455 457.5 65.2055
    endloop
  endfacet
  facet normal 0 -1 0
    outer loop
      vertex 98.0401 457.5 22.7745
      vertex 23.2455 457.5 65.2055
      vertex 21.5573 457.5 62.6891
    endloop
  endfacet
  facet normal 0 -1 0
    outer loop
      vertex 84.9543 457.5 114.342
      vertex 122.044 457.5 62.2302
      vertex 128.193 457.5 69.1099
    endloop
  endfacet
  facet normal 0 -1 0
    outer loop
      vertex 98.0401 457.5 22.7745
      vertex 21.5573 457.5 62.6891
      vertex 19.9114 457.5 60.1353
    endloop
  endfacet
  facet normal 0 -1 0
    outer loop
      vertex 95.9817 457.5 17.8358
      vertex 19.9114 457.5 60.1353
      vertex 18.3195 457.5 57.5411
    endloop
  endfacet
  facet normal 0 -1 0
    outer loop
      vertex 75.6948 457.5 108.6
      vertex 116.546 457.5 55.1992
      vertex 122.044 457.5 62.2302
    endloop
  endfacet
  facet normal 0 -1 0
    outer loop
      vertex 95.9817 457.5 17.8358
      vertex 18.3195 457.5 57.5411
      vertex 16.7932 457.5 54.9032
    endloop
  endfacet
  facet normal 0 -1 0
    outer loop
      vertex 95.9817 457.5 17.8358
      vertex 16.7932 457.5 54.9032
      vertex 15.3442 457.5 52.2186
    endloop
  endfacet
  facet normal 0 -1 0
    outer loop
      vertex 95.9817 457.5 17.8358
      vertex 15.3442 457.5 52.2186
      vertex 13.9841 457.5 49.4842
    endloop
  endfacet
  facet normal 0 -1 0
    outer loop
      vertex 67.0178 457.5 102.879
      vertex 111.676 457.5 48.1597
      vertex 116.546 457.5 55.1992
    endloop
  endfacet
  facet normal 0 -1 0
    outer loop
      vertex 94.4192 457.5 13.7458
      vertex 13.9841 457.5 49.4842
      vertex 12.7245 457.5 46.6969
    endloop
  endfacet
  facet normal 0 -1 0
    outer loop
      vertex 94.4192 457.5 13.7458
      vertex 12.7245 457.5 46.6969
      vertex 11.5771 457.5 43.8537
    endloop
  endfacet
  facet normal 0 -1 0
    outer loop
      vertex 51.6243 457.5 91.8289
      vertex 107.412 457.5 41.2546
      vertex 111.676 457.5 48.1597
    endloop
  endfacet
  facet normal 0 -1 0
    outer loop
      vertex 94.4192 457.5 13.7458
      vertex 11.5771 457.5 43.8537
      vertex 10.5535 457.5 40.9514
    endloop
  endfacet
  facet normal 0 -1 0
    outer loop
      vertex 94.4192 457.5 13.7458
      vertex 10.5535 457.5 40.9514
      vertex 9.66534 457.5 37.9868
    endloop
  endfacet
  facet normal 0 -1 0
    outer loop
      vertex 93.3305 457.5 10.6476
      vertex 9.66534 457.5 37.9868
      vertex 8.92433 457.5 34.9571
    endloop
  endfacet
  facet normal 0 -1 0
    outer loop
      vertex 45.0143 457.5 86.6625
      vertex 103.733 457.5 34.6268
      vertex 107.412 457.5 41.2546
    endloop
  endfacet
  facet normal 0 -1 0
    outer loop
      vertex 93.3305 457.5 10.6476
      vertex 8.92433 457.5 34.9571
      vertex 8.34207 457.5 31.8589
    endloop
  endfacet
  facet normal 0 -1 0
    outer loop
      vertex 93.3305 457.5 10.6476
      vertex 8.34207 457.5 31.8589
      vertex 7.93021 457.5 28.6893
    endloop
  endfacet
  facet normal 0 -1 0
    outer loop
      vertex 39.2 457.5 81.8443
      vertex 100.617 457.5 28.4191
      vertex 103.733 457.5 34.6268
    endloop
  endfacet
  facet normal 0 -1 0
    outer loop
      vertex 93.3305 457.5 10.6476
      vertex 7.93021 457.5 28.6893
      vertex 7.70038 457.5 25.4451
    endloop
  endfacet
  facet normal 0 -1 0
    outer loop
      vertex 30.1713 457.5 73.5793
      vertex 98.0401 457.5 22.7745
      vertex 100.617 457.5 28.4191
    endloop
  endfacet
  facet normal 0 -1 0
    outer loop
      vertex 93.3305 457.5 10.6476
      vertex 7.70038 457.5 25.4451
      vertex 7.66422 457.5 22.1233
    endloop
  endfacet
  facet normal 0 -1 0
    outer loop
      vertex 92.6935 457.5 8.68384
      vertex 7.66422 457.5 22.1233
      vertex 7.83337 457.5 18.7207
    endloop
  endfacet
  facet normal 0 -1 0
    outer loop
      vertex 19.9114 457.5 60.1353
      vertex 95.9817 457.5 17.8358
      vertex 98.0401 457.5 22.7745
    endloop
  endfacet
  facet normal 0 -1 0
    outer loop
      vertex 92.6935 457.5 8.68384
      vertex 7.83337 457.5 18.7207
      vertex 8.21948 457.5 15.2343
    endloop
  endfacet
  facet normal 0 -1 0
    outer loop
      vertex 13.9841 457.5 49.4842
      vertex 94.4192 457.5 13.7458
      vertex 95.9817 457.5 17.8358
    endloop
  endfacet
  facet normal 0 -1 0
    outer loop
      vertex 92.6935 457.5 8.68384
      vertex 8.21948 457.5 15.2343
      vertex 8.8342 457.5 11.6609
    endloop
  endfacet
  facet normal 0 -1 0
    outer loop
      vertex 9.66534 457.5 37.9868
      vertex 93.3305 457.5 10.6476
      vertex 94.4192 457.5 13.7458
    endloop
  endfacet
  facet normal 0 -1 0
    outer loop
      vertex 7.66422 457.5 22.1233
      vertex 92.6935 457.5 8.68384
      vertex 93.3305 457.5 10.6476
    endloop
  endfacet
  facet normal 0 -1 0
    outer loop
      vertex 92.4861 457.5 7.99751
      vertex 8.8342 457.5 11.6609
      vertex 9.68916 457.5 7.99751
    endloop
  endfacet
  facet normal 0 -1 0
    outer loop
      vertex 8.8342 457.5 11.6609
      vertex 92.4861 457.5 7.99751
      vertex 92.6935 457.5 8.68384
    endloop
  endfacet
  facet normal 0 -1 0
    outer loop
      vertex 207 457.5 124.962
      vertex 209.889 457.5 155.535
      vertex 197.861 457.5 154.965
    endloop
  endfacet
  facet normal 0 -1 -0
    outer loop
      vertex 209.889 457.5 155.535
      vertex 207 457.5 124.962
      vertex 221.643 457.5 155.219
    endloop
  endfacet
  facet normal 0 -1 0
    outer loop
      vertex 200.65 457.5 124.962
      vertex 197.861 457.5 154.965
      vertex 185.708 457.5 153.503
    endloop
  endfacet
  facet normal 0 -1 -0
    outer loop
      vertex 221.643 457.5 155.219
      vertex 207 457.5 124.962
      vertex 233.112 457.5 154.087
    endloop
  endfacet
  facet normal 0 -1 0
    outer loop
      vertex 200.65 457.5 124.962
      vertex 185.708 457.5 153.503
      vertex 173.604 457.5 151.245
    endloop
  endfacet
  facet normal 0 -1 -0
    outer loop
      vertex 233.112 457.5 154.087
      vertex 207 457.5 124.962
      vertex 244.283 457.5 152.21
    endloop
  endfacet
  facet normal 0 -1 0
    outer loop
      vertex 200.65 457.5 124.962
      vertex 173.604 457.5 151.245
      vertex 161.603 457.5 148.273
    endloop
  endfacet
  facet normal 0 -1 0
    outer loop
      vertex 227.013 457.5 98.6688
      vertex 244.283 457.5 152.21
      vertex 207 457.5 124.962
    endloop
  endfacet
  facet normal 0 -1 0
    outer loop
      vertex 200.65 457.5 124.962
      vertex 161.603 457.5 148.273
      vertex 149.759 457.5 144.669
    endloop
  endfacet
  facet normal 0 -1 0
    outer loop
      vertex 237.61 457.5 95.515
      vertex 244.283 457.5 152.21
      vertex 227.013 457.5 98.6688
    endloop
  endfacet
  facet normal 0 -1 0
    outer loop
      vertex 200.65 457.5 124.962
      vertex 149.759 457.5 144.669
      vertex 138.123 457.5 140.514
    endloop
  endfacet
  facet normal 0 -1 -0
    outer loop
      vertex 244.283 457.5 152.21
      vertex 237.61 457.5 95.515
      vertex 255.143 457.5 149.659
    endloop
  endfacet
  facet normal 0 -1 0
    outer loop
      vertex 200.65 457.5 124.962
      vertex 138.123 457.5 140.514
      vertex 126.751 457.5 135.891
    endloop
  endfacet
  facet normal 0 -1 0
    outer loop
      vertex 247.449 457.5 91.4043
      vertex 265.681 457.5 146.505
      vertex 237.61 457.5 95.515
    endloop
  endfacet
  facet normal 0 -1 0
    outer loop
      vertex 200.65 457.5 124.962
      vertex 126.751 457.5 135.891
      vertex 115.695 457.5 130.88
    endloop
  endfacet
  facet normal 0 -1 0
    outer loop
      vertex 197.861 457.5 154.965
      vertex 200.65 457.5 124.962
      vertex 207 457.5 124.962
    endloop
  endfacet
  facet normal 0 -1 0
    outer loop
      vertex 200.65 457.5 124.962
      vertex 115.695 457.5 130.88
      vertex 105.007 457.5 125.564
    endloop
  endfacet
  facet normal 0 -1 -0
    outer loop
      vertex 265.681 457.5 146.505
      vertex 247.449 457.5 91.4043
      vertex 275.883 457.5 142.818
    endloop
  endfacet
  facet normal 0 -1 0
    outer loop
      vertex 256.548 457.5 86.4746
      vertex 275.883 457.5 142.818
      vertex 247.449 457.5 91.4043
    endloop
  endfacet
  facet normal 0 -1 -0
    outer loop
      vertex 275.883 457.5 142.818
      vertex 256.548 457.5 86.4746
      vertex 285.738 457.5 138.669
    endloop
  endfacet
  facet normal 0 -1 -0
    outer loop
      vertex 285.738 457.5 138.669
      vertex 256.548 457.5 86.4746
      vertex 295.233 457.5 134.129
    endloop
  endfacet
  facet normal 0 -1 0
    outer loop
      vertex 264.925 457.5 80.8636
      vertex 295.233 457.5 134.129
      vertex 256.548 457.5 86.4746
    endloop
  endfacet
  facet normal 0 -1 0
    outer loop
      vertex 272.6 457.5 74.7094
      vertex 304.356 457.5 129.269
      vertex 264.925 457.5 80.8636
    endloop
  endfacet
  facet normal 0 -1 -0
    outer loop
      vertex 304.356 457.5 129.269
      vertex 272.6 457.5 74.7094
      vertex 313.094 457.5 124.16
    endloop
  endfacet
  facet normal 0 -1 0
    outer loop
      vertex 215.639 457.5 100.728
      vertex 207 457.5 124.962
      vertex 207 457.5 101.314
    endloop
  endfacet
  facet normal 0 -1 0
    outer loop
      vertex 227.013 457.5 98.6688
      vertex 207 457.5 124.962
      vertex 215.639 457.5 100.728
    endloop
  endfacet
  facet normal 0 -1 -0
    outer loop
      vertex 255.143 457.5 149.659
      vertex 237.61 457.5 95.515
      vertex 265.681 457.5 146.505
    endloop
  endfacet
  facet normal 0 -1 -0
    outer loop
      vertex 295.233 457.5 134.129
      vertex 264.925 457.5 80.8636
      vertex 304.356 457.5 129.269
    endloop
  endfacet
  facet normal 0 -1 0
    outer loop
      vertex 279.591 457.5 68.1498
      vertex 313.094 457.5 124.16
      vertex 272.6 457.5 74.7094
    endloop
  endfacet
  facet normal 0 -1 -0
    outer loop
      vertex 313.094 457.5 124.16
      vertex 279.591 457.5 68.1498
      vertex 321.434 457.5 118.871
    endloop
  endfacet
  facet normal 0 -1 -0
    outer loop
      vertex 321.434 457.5 118.871
      vertex 279.591 457.5 68.1498
      vertex 329.366 457.5 113.475
    endloop
  endfacet
  facet normal 0 -1 0
    outer loop
      vertex 285.916 457.5 61.3226
      vertex 329.366 457.5 113.475
      vertex 279.591 457.5 68.1498
    endloop
  endfacet
  facet normal 0 -1 -0
    outer loop
      vertex 329.366 457.5 113.475
      vertex 285.916 457.5 61.3226
      vertex 336.875 457.5 108.042
    endloop
  endfacet
  facet normal 0 -1 0
    outer loop
      vertex 291.594 457.5 54.3657
      vertex 336.875 457.5 108.042
      vertex 285.916 457.5 61.3226
    endloop
  endfacet
  facet normal 0 -1 -0
    outer loop
      vertex 336.875 457.5 108.042
      vertex 291.594 457.5 54.3657
      vertex 343.951 457.5 102.642
    endloop
  endfacet
  facet normal 0 -1 0
    outer loop
      vertex 296.643 457.5 47.4171
      vertex 343.951 457.5 102.642
      vertex 291.594 457.5 54.3657
    endloop
  endfacet
  facet normal 0 -1 -0
    outer loop
      vertex 343.951 457.5 102.642
      vertex 296.643 457.5 47.4171
      vertex 350.579 457.5 97.3462
    endloop
  endfacet
  facet normal 0 -1 -0
    outer loop
      vertex 350.579 457.5 97.3462
      vertex 296.643 457.5 47.4171
      vertex 356.749 457.5 92.2259
    endloop
  endfacet
  facet normal 0 -1 0
    outer loop
      vertex 301.082 457.5 40.6145
      vertex 356.749 457.5 92.2259
      vertex 296.643 457.5 47.4171
    endloop
  endfacet
  facet normal 0 -1 -0
    outer loop
      vertex 356.749 457.5 92.2259
      vertex 301.082 457.5 40.6145
      vertex 362.447 457.5 87.3515
    endloop
  endfacet
  facet normal 0 -1 0
    outer loop
      vertex 304.93 457.5 34.0959
      vertex 362.447 457.5 87.3515
      vertex 301.082 457.5 40.6145
    endloop
  endfacet
  facet normal 0 -1 -0
    outer loop
      vertex 362.447 457.5 87.3515
      vertex 304.93 457.5 34.0959
      vertex 367.662 457.5 82.7938
    endloop
  endfacet
  facet normal 0 -1 0
    outer loop
      vertex 308.204 457.5 27.9991
      vertex 367.662 457.5 82.7938
      vertex 304.93 457.5 34.0959
    endloop
  endfacet
  facet normal 0 -1 -0
    outer loop
      vertex 367.662 457.5 82.7938
      vertex 308.204 457.5 27.9991
      vertex 372.38 457.5 78.6236
    endloop
  endfacet
  facet normal 0 -1 -0
    outer loop
      vertex 372.38 457.5 78.6236
      vertex 308.204 457.5 27.9991
      vertex 376.605 457.5 74.5441
    endloop
  endfacet
  facet normal 0 -1 -0
    outer loop
      vertex 376.605 457.5 74.5441
      vertex 308.204 457.5 27.9991
      vertex 380.365 457.5 70.2424
    endloop
  endfacet
  facet normal 0 -1 0
    outer loop
      vertex 310.924 457.5 22.4619
      vertex 380.365 457.5 70.2424
      vertex 308.204 457.5 27.9991
    endloop
  endfacet
  facet normal 0 -1 -0
    outer loop
      vertex 380.365 457.5 70.2424
      vertex 310.924 457.5 22.4619
      vertex 383.687 457.5 65.7652
    endloop
  endfacet
  facet normal 0 -1 -0
    outer loop
      vertex 383.687 457.5 65.7652
      vertex 310.924 457.5 22.4619
      vertex 386.598 457.5 61.1591
    endloop
  endfacet
  facet normal 0 -1 -0
    outer loop
      vertex 386.598 457.5 61.1591
      vertex 310.924 457.5 22.4619
      vertex 389.125 457.5 56.4708
    endloop
  endfacet
  facet normal 0 -1 0
    outer loop
      vertex 313.108 457.5 17.6224
      vertex 389.125 457.5 56.4708
      vertex 310.924 457.5 22.4619
    endloop
  endfacet
  facet normal 0 -1 -0
    outer loop
      vertex 389.125 457.5 56.4708
      vertex 313.108 457.5 17.6224
      vertex 391.294 457.5 51.7469
    endloop
  endfacet
  facet normal 0 -1 -0
    outer loop
      vertex 391.294 457.5 51.7469
      vertex 313.108 457.5 17.6224
      vertex 393.133 457.5 47.0341
    endloop
  endfacet
  facet normal 0 -1 0
    outer loop
      vertex 314.774 457.5 13.6183
      vertex 393.133 457.5 47.0341
      vertex 313.108 457.5 17.6224
    endloop
  endfacet
  facet normal 0 -1 -0
    outer loop
      vertex 393.133 457.5 47.0341
      vertex 314.774 457.5 13.6183
      vertex 394.668 457.5 42.379
    endloop
  endfacet
  facet normal 0 -1 -0
    outer loop
      vertex 394.668 457.5 42.379
      vertex 314.774 457.5 13.6183
      vertex 395.926 457.5 37.8282
    endloop
  endfacet
  facet normal 0 -1 0
    outer loop
      vertex 315.941 457.5 10.5876
      vertex 395.926 457.5 37.8282
      vertex 314.774 457.5 13.6183
    endloop
  endfacet
  facet normal 0 -1 -0
    outer loop
      vertex 395.926 457.5 37.8282
      vertex 315.941 457.5 10.5876
      vertex 396.933 457.5 33.4284
    endloop
  endfacet
  facet normal 0 -1 -0
    outer loop
      vertex 396.933 457.5 33.4284
      vertex 315.941 457.5 10.5876
      vertex 397.718 457.5 29.2262
    endloop
  endfacet
  facet normal 0 -1 0
    outer loop
      vertex 316.628 457.5 8.668
      vertex 397.718 457.5 29.2262
      vertex 315.941 457.5 10.5876
    endloop
  endfacet
  facet normal 0 -1 0
    outer loop
      vertex 316.853 457.5 7.99751
      vertex 397.718 457.5 29.2262
      vertex 316.628 457.5 8.668
    endloop
  endfacet
  facet normal 0 -1 -0
    outer loop
      vertex 397.718 457.5 29.2262
      vertex 316.853 457.5 7.99751
      vertex 398.306 457.5 25.2684
    endloop
  endfacet
  facet normal 0 -1 -0
    outer loop
      vertex 398.306 457.5 25.2684
      vertex 316.853 457.5 7.99751
      vertex 398.724 457.5 21.6015
    endloop
  endfacet
  facet normal 0 -1 -0
    outer loop
      vertex 398.724 457.5 21.6015
      vertex 316.853 457.5 7.99751
      vertex 399 457.5 18.2721
    endloop
  endfacet
  facet normal 0 -1 -0
    outer loop
      vertex 399 457.5 18.2721
      vertex 316.853 457.5 7.99751
      vertex 399.159 457.5 15.327
    endloop
  endfacet
  facet normal 0 -1 -0
    outer loop
      vertex 399.159 457.5 15.327
      vertex 316.853 457.5 7.99751
      vertex 399.229 457.5 12.8128
    endloop
  endfacet
  facet normal 0 -1 -0
    outer loop
      vertex 399.229 457.5 12.8128
      vertex 316.853 457.5 7.99751
      vertex 399.237 457.5 10.7761
    endloop
  endfacet
  facet normal 0 -1 0
    outer loop
      vertex 399.237 457.5 10.7761
      vertex 316.853 457.5 7.99751
      vertex 399.21 457.5 9.26352
    endloop
  endfacet
  facet normal 0 -1 0
    outer loop
      vertex 399.21 457.5 9.26352
      vertex 316.853 457.5 7.99751
      vertex 399.174 457.5 8.32179
    endloop
  endfacet
  facet normal 0 -1 0
    outer loop
      vertex 399.174 457.5 8.32179
      vertex 316.853 457.5 7.99751
      vertex 399.156 457.5 7.99751
    endloop
  endfacet
  facet normal 0 1 0
    outer loop
      vertex 279.591 463.85 68.1498
      vertex 313.094 463.85 124.16
      vertex 321.434 463.85 118.871
    endloop
  endfacet
  facet normal 0 1 0
    outer loop
      vertex 279.591 463.85 68.1498
      vertex 321.434 463.85 118.871
      vertex 329.366 463.85 113.475
    endloop
  endfacet
  facet normal 0 1 0
    outer loop
      vertex 285.916 463.85 61.3226
      vertex 329.366 463.85 113.475
      vertex 336.875 463.85 108.042
    endloop
  endfacet
  facet normal 0 1 0
    outer loop
      vertex 291.594 463.85 54.3657
      vertex 336.875 463.85 108.042
      vertex 343.951 463.85 102.642
    endloop
  endfacet
  facet normal 0 1 0
    outer loop
      vertex 313.094 463.85 124.16
      vertex 247.449 463.85 91.4043
      vertex 237.61 463.85 95.515
    endloop
  endfacet
  facet normal 0 1 0
    outer loop
      vertex 207 463.85 123.172
      vertex 215.639 463.85 100.728
      vertex 207 463.85 101.314
    endloop
  endfacet
  facet normal 0 1 0
    outer loop
      vertex 207 463.85 123.172
      vertex 227.013 463.85 98.6688
      vertex 215.639 463.85 100.728
    endloop
  endfacet
  facet normal 0 1 0
    outer loop
      vertex 296.643 463.85 47.4171
      vertex 343.951 463.85 102.642
      vertex 350.579 463.85 97.3462
    endloop
  endfacet
  facet normal 0 1 0
    outer loop
      vertex 207 463.85 123.172
      vertex 237.61 463.85 95.515
      vertex 227.013 463.85 98.6688
    endloop
  endfacet
  facet normal 0 1 0
    outer loop
      vertex 296.643 463.85 47.4171
      vertex 350.579 463.85 97.3462
      vertex 356.749 463.85 92.2259
    endloop
  endfacet
  facet normal 0 1 0
    outer loop
      vertex 313.094 463.85 124.16
      vertex 237.61 463.85 95.515
      vertex 207 463.85 123.172
    endloop
  endfacet
  facet normal 0 1 0
    outer loop
      vertex 301.082 463.85 40.6145
      vertex 356.749 463.85 92.2259
      vertex 362.447 463.85 87.3515
    endloop
  endfacet
  facet normal 0 1 0
    outer loop
      vertex 313.094 463.85 124.16
      vertex 256.548 463.85 86.4746
      vertex 247.449 463.85 91.4043
    endloop
  endfacet
  facet normal 0 1 0
    outer loop
      vertex 304.93 463.85 34.0959
      vertex 362.447 463.85 87.3515
      vertex 367.662 463.85 82.7938
    endloop
  endfacet
  facet normal 0 1 0
    outer loop
      vertex 313.094 463.85 124.16
      vertex 264.925 463.85 80.8636
      vertex 256.548 463.85 86.4746
    endloop
  endfacet
  facet normal 0 1 0
    outer loop
      vertex 308.204 463.85 27.9991
      vertex 367.662 463.85 82.7938
      vertex 372.38 463.85 78.6236
    endloop
  endfacet
  facet normal 0 1 0
    outer loop
      vertex 313.094 463.85 124.16
      vertex 272.6 463.85 74.7094
      vertex 264.925 463.85 80.8636
    endloop
  endfacet
  facet normal 0 1 0
    outer loop
      vertex 308.204 463.85 27.9991
      vertex 372.38 463.85 78.6236
      vertex 376.605 463.85 74.5441
    endloop
  endfacet
  facet normal 0 1 0
    outer loop
      vertex 308.204 463.85 27.9991
      vertex 376.605 463.85 74.5441
      vertex 380.365 463.85 70.2424
    endloop
  endfacet
  facet normal 0 1 0
    outer loop
      vertex 313.094 463.85 124.16
      vertex 279.591 463.85 68.1498
      vertex 272.6 463.85 74.7094
    endloop
  endfacet
  facet normal 0 1 0
    outer loop
      vertex 310.924 463.85 22.4619
      vertex 380.365 463.85 70.2424
      vertex 383.687 463.85 65.7652
    endloop
  endfacet
  facet normal 0 1 0
    outer loop
      vertex 329.366 463.85 113.475
      vertex 285.916 463.85 61.3226
      vertex 279.591 463.85 68.1498
    endloop
  endfacet
  facet normal 0 1 0
    outer loop
      vertex 310.924 463.85 22.4619
      vertex 383.687 463.85 65.7652
      vertex 386.598 463.85 61.1591
    endloop
  endfacet
  facet normal 0 1 0
    outer loop
      vertex 310.924 463.85 22.4619
      vertex 386.598 463.85 61.1591
      vertex 389.125 463.85 56.4708
    endloop
  endfacet
  facet normal 0 1 0
    outer loop
      vertex 336.875 463.85 108.042
      vertex 291.594 463.85 54.3657
      vertex 285.916 463.85 61.3226
    endloop
  endfacet
  facet normal 0 1 0
    outer loop
      vertex 313.108 463.85 17.6224
      vertex 389.125 463.85 56.4708
      vertex 391.294 463.85 51.7469
    endloop
  endfacet
  facet normal 0 1 0
    outer loop
      vertex 343.951 463.85 102.642
      vertex 296.643 463.85 47.4171
      vertex 291.594 463.85 54.3657
    endloop
  endfacet
  facet normal 0 1 0
    outer loop
      vertex 313.108 463.85 17.6224
      vertex 391.294 463.85 51.7469
      vertex 393.133 463.85 47.0341
    endloop
  endfacet
  facet normal 0 1 0
    outer loop
      vertex 314.774 463.85 13.6183
      vertex 393.133 463.85 47.0341
      vertex 394.668 463.85 42.379
    endloop
  endfacet
  facet normal 0 1 0
    outer loop
      vertex 356.749 463.85 92.2259
      vertex 301.082 463.85 40.6145
      vertex 296.643 463.85 47.4171
    endloop
  endfacet
  facet normal 0 1 0
    outer loop
      vertex 314.774 463.85 13.6183
      vertex 394.668 463.85 42.379
      vertex 395.926 463.85 37.8282
    endloop
  endfacet
  facet normal 0 1 0
    outer loop
      vertex 362.447 463.85 87.3515
      vertex 304.93 463.85 34.0959
      vertex 301.082 463.85 40.6145
    endloop
  endfacet
  facet normal 0 1 0
    outer loop
      vertex 315.941 463.85 10.5876
      vertex 395.926 463.85 37.8282
      vertex 396.933 463.85 33.4284
    endloop
  endfacet
  facet normal 0 1 0
    outer loop
      vertex 315.941 463.85 10.5876
      vertex 396.933 463.85 33.4284
      vertex 397.718 463.85 29.2262
    endloop
  endfacet
  facet normal 0 1 0
    outer loop
      vertex 367.662 463.85 82.7938
      vertex 308.204 463.85 27.9991
      vertex 304.93 463.85 34.0959
    endloop
  endfacet
  facet normal 0 1 0
    outer loop
      vertex 316.853 463.85 7.99751
      vertex 397.718 463.85 29.2262
      vertex 398.306 463.85 25.2684
    endloop
  endfacet
  facet normal 0 1 0
    outer loop
      vertex 380.365 463.85 70.2424
      vertex 310.924 463.85 22.4619
      vertex 308.204 463.85 27.9991
    endloop
  endfacet
  facet normal 0 1 0
    outer loop
      vertex 316.853 463.85 7.99751
      vertex 398.306 463.85 25.2684
      vertex 398.724 463.85 21.6015
    endloop
  endfacet
  facet normal 0 1 0
    outer loop
      vertex 316.853 463.85 7.99751
      vertex 398.724 463.85 21.6015
      vertex 399 463.85 18.2721
    endloop
  endfacet
  facet normal 0 1 0
    outer loop
      vertex 389.125 463.85 56.4708
      vertex 313.108 463.85 17.6224
      vertex 310.924 463.85 22.4619
    endloop
  endfacet
  facet normal 0 1 0
    outer loop
      vertex 316.853 463.85 7.99751
      vertex 399 463.85 18.2721
      vertex 399.159 463.85 15.327
    endloop
  endfacet
  facet normal 0 1 0
    outer loop
      vertex 393.133 463.85 47.0341
      vertex 314.774 463.85 13.6183
      vertex 313.108 463.85 17.6224
    endloop
  endfacet
  facet normal 0 1 0
    outer loop
      vertex 316.853 463.85 7.99751
      vertex 399.159 463.85 15.327
      vertex 399.229 463.85 12.8128
    endloop
  endfacet
  facet normal 0 1 0
    outer loop
      vertex 316.853 463.85 7.99751
      vertex 399.229 463.85 12.8128
      vertex 399.237 463.85 10.7761
    endloop
  endfacet
  facet normal 0 1 0
    outer loop
      vertex 395.926 463.85 37.8282
      vertex 315.941 463.85 10.5876
      vertex 314.774 463.85 13.6183
    endloop
  endfacet
  facet normal 0 1 0
    outer loop
      vertex 316.853 463.85 7.99751
      vertex 399.237 463.85 10.7761
      vertex 399.21 463.85 9.26352
    endloop
  endfacet
  facet normal 0 1 0
    outer loop
      vertex 397.718 463.85 29.2262
      vertex 316.628 463.85 8.668
      vertex 315.941 463.85 10.5876
    endloop
  endfacet
  facet normal 0 1 0
    outer loop
      vertex 316.853 463.85 7.99751
      vertex 399.21 463.85 9.26352
      vertex 399.174 463.85 8.32179
    endloop
  endfacet
  facet normal 0 1 0
    outer loop
      vertex 316.853 463.85 7.99751
      vertex 399.174 463.85 8.32179
      vertex 399.156 463.85 7.99751
    endloop
  endfacet
  facet normal 0 1 0
    outer loop
      vertex 397.718 463.85 29.2262
      vertex 316.853 463.85 7.99751
      vertex 316.628 463.85 8.668
    endloop
  endfacet
  facet normal 0 1 0
    outer loop
      vertex 207 463.85 123.172
      vertex 209.889 463.85 155.535
      vertex 221.643 463.85 155.219
    endloop
  endfacet
  facet normal 0 1 0
    outer loop
      vertex 207 463.85 123.172
      vertex 221.643 463.85 155.219
      vertex 233.112 463.85 154.087
    endloop
  endfacet
  facet normal 0 1 0
    outer loop
      vertex 209.889 463.85 155.535
      vertex 207 463.85 123.172
      vertex 197.861 463.85 154.965
    endloop
  endfacet
  facet normal 0 1 0
    outer loop
      vertex 207 463.85 123.172
      vertex 233.112 463.85 154.087
      vertex 244.283 463.85 152.21
    endloop
  endfacet
  facet normal 0 1 -0
    outer loop
      vertex 200.65 463.85 123.172
      vertex 197.861 463.85 154.965
      vertex 207 463.85 123.172
    endloop
  endfacet
  facet normal 0 1 0
    outer loop
      vertex 207 463.85 123.172
      vertex 244.283 463.85 152.21
      vertex 255.143 463.85 149.659
    endloop
  endfacet
  facet normal 0 1 0
    outer loop
      vertex 197.861 463.85 154.965
      vertex 200.65 463.85 123.172
      vertex 185.708 463.85 153.503
    endloop
  endfacet
  facet normal 0 1 0
    outer loop
      vertex 207 463.85 123.172
      vertex 255.143 463.85 149.659
      vertex 265.681 463.85 146.505
    endloop
  endfacet
  facet normal 0 1 0
    outer loop
      vertex 185.708 463.85 153.503
      vertex 200.65 463.85 123.172
      vertex 173.604 463.85 151.245
    endloop
  endfacet
  facet normal 0 1 0
    outer loop
      vertex 207 463.85 123.172
      vertex 265.681 463.85 146.505
      vertex 275.883 463.85 142.818
    endloop
  endfacet
  facet normal 0 1 -0
    outer loop
      vertex 179.994 463.85 99.2089
      vertex 173.604 463.85 151.245
      vertex 200.65 463.85 123.172
    endloop
  endfacet
  facet normal 0 1 0
    outer loop
      vertex 207 463.85 123.172
      vertex 275.883 463.85 142.818
      vertex 285.738 463.85 138.669
    endloop
  endfacet
  facet normal 0 1 0
    outer loop
      vertex 173.604 463.85 151.245
      vertex 179.994 463.85 99.2089
      vertex 161.603 463.85 148.273
    endloop
  endfacet
  facet normal 0 1 0
    outer loop
      vertex 207 463.85 123.172
      vertex 285.738 463.85 138.669
      vertex 295.233 463.85 134.129
    endloop
  endfacet
  facet normal 0 1 -0
    outer loop
      vertex 169.476 463.85 96.2376
      vertex 161.603 463.85 148.273
      vertex 179.994 463.85 99.2089
    endloop
  endfacet
  facet normal 0 1 0
    outer loop
      vertex 207 463.85 123.172
      vertex 295.233 463.85 134.129
      vertex 304.356 463.85 129.269
    endloop
  endfacet
  facet normal 0 1 0
    outer loop
      vertex 161.603 463.85 148.273
      vertex 169.476 463.85 96.2376
      vertex 149.759 463.85 144.669
    endloop
  endfacet
  facet normal 0 1 0
    outer loop
      vertex 207 463.85 123.172
      vertex 304.356 463.85 129.269
      vertex 313.094 463.85 124.16
    endloop
  endfacet
  facet normal 0 1 0
    outer loop
      vertex 149.759 463.85 144.669
      vertex 159.741 463.85 92.2578
      vertex 138.123 463.85 140.514
    endloop
  endfacet
  facet normal 0 1 0
    outer loop
      vertex 138.123 463.85 140.514
      vertex 159.741 463.85 92.2578
      vertex 126.751 463.85 135.891
    endloop
  endfacet
  facet normal 0 1 -0
    outer loop
      vertex 150.767 463.85 87.4122
      vertex 126.751 463.85 135.891
      vertex 159.741 463.85 92.2578
    endloop
  endfacet
  facet normal 0 1 0
    outer loop
      vertex 126.751 463.85 135.891
      vertex 150.767 463.85 87.4122
      vertex 115.695 463.85 130.88
    endloop
  endfacet
  facet normal 0 1 -0
    outer loop
      vertex 142.533 463.85 81.8438
      vertex 115.695 463.85 130.88
      vertex 150.767 463.85 87.4122
    endloop
  endfacet
  facet normal 0 1 -0
    outer loop
      vertex 135.016 463.85 75.6954
      vertex 105.007 463.85 125.564
      vertex 142.533 463.85 81.8438
    endloop
  endfacet
  facet normal 0 1 0
    outer loop
      vertex 191.318 463.85 101.029
      vertex 200.65 463.85 123.172
      vertex 200.65 463.85 101.432
    endloop
  endfacet
  facet normal 0 1 0
    outer loop
      vertex 179.994 463.85 99.2089
      vertex 200.65 463.85 123.172
      vertex 191.318 463.85 101.029
    endloop
  endfacet
  facet normal 0 1 -0
    outer loop
      vertex 159.741 463.85 92.2578
      vertex 149.759 463.85 144.669
      vertex 169.476 463.85 96.2376
    endloop
  endfacet
  facet normal 0 1 0
    outer loop
      vertex 115.695 463.85 130.88
      vertex 142.533 463.85 81.8438
      vertex 105.007 463.85 125.564
    endloop
  endfacet
  facet normal 0 1 0
    outer loop
      vertex 105.007 463.85 125.564
      vertex 135.016 463.85 75.6954
      vertex 94.7429 463.85 120.024
    endloop
  endfacet
  facet normal 0 1 -0
    outer loop
      vertex 128.193 463.85 69.1099
      vertex 94.7429 463.85 120.024
      vertex 135.016 463.85 75.6954
    endloop
  endfacet
  facet normal 0 1 0
    outer loop
      vertex 94.7429 463.85 120.024
      vertex 128.193 463.85 69.1099
      vertex 84.9543 463.85 114.342
    endloop
  endfacet
  facet normal 0 1 -0
    outer loop
      vertex 122.044 463.85 62.2302
      vertex 84.9543 463.85 114.342
      vertex 128.193 463.85 69.1099
    endloop
  endfacet
  facet normal 0 1 0
    outer loop
      vertex 84.9543 463.85 114.342
      vertex 122.044 463.85 62.2302
      vertex 75.6948 463.85 108.6
    endloop
  endfacet
  facet normal 0 1 -0
    outer loop
      vertex 116.546 463.85 55.1992
      vertex 75.6948 463.85 108.6
      vertex 122.044 463.85 62.2302
    endloop
  endfacet
  facet normal 0 1 0
    outer loop
      vertex 75.6948 463.85 108.6
      vertex 116.546 463.85 55.1992
      vertex 67.0178 463.85 102.879
    endloop
  endfacet
  facet normal 0 1 -0
    outer loop
      vertex 111.676 463.85 48.1597
      vertex 67.0178 463.85 102.879
      vertex 116.546 463.85 55.1992
    endloop
  endfacet
  facet normal 0 1 0
    outer loop
      vertex 67.0178 463.85 102.879
      vertex 111.676 463.85 48.1597
      vertex 58.9765 463.85 97.2618
    endloop
  endfacet
  facet normal 0 1 0
    outer loop
      vertex 58.9765 463.85 97.2618
      vertex 111.676 463.85 48.1597
      vertex 51.6243 463.85 91.8289
    endloop
  endfacet
  facet normal 0 1 -0
    outer loop
      vertex 107.412 463.85 41.2546
      vertex 51.6243 463.85 91.8289
      vertex 111.676 463.85 48.1597
    endloop
  endfacet
  facet normal 0 1 0
    outer loop
      vertex 51.6243 463.85 91.8289
      vertex 107.412 463.85 41.2546
      vertex 45.0143 463.85 86.6625
    endloop
  endfacet
  facet normal 0 1 -0
    outer loop
      vertex 103.733 463.85 34.6268
      vertex 45.0143 463.85 86.6625
      vertex 107.412 463.85 41.2546
    endloop
  endfacet
  facet normal 0 1 0
    outer loop
      vertex 45.0143 463.85 86.6625
      vertex 103.733 463.85 34.6268
      vertex 39.2 463.85 81.8443
    endloop
  endfacet
  facet normal 0 1 -0
    outer loop
      vertex 100.617 463.85 28.4191
      vertex 39.2 463.85 81.8443
      vertex 103.733 463.85 34.6268
    endloop
  endfacet
  facet normal 0 1 0
    outer loop
      vertex 39.2 463.85 81.8443
      vertex 100.617 463.85 28.4191
      vertex 34.2346 463.85 77.456
    endloop
  endfacet
  facet normal 0 1 0
    outer loop
      vertex 34.2346 463.85 77.456
      vertex 100.617 463.85 28.4191
      vertex 30.1713 463.85 73.5793
    endloop
  endfacet
  facet normal 0 1 -0
    outer loop
      vertex 98.0401 463.85 22.7745
      vertex 30.1713 463.85 73.5793
      vertex 100.617 463.85 28.4191
    endloop
  endfacet
  facet normal 0 1 0
    outer loop
      vertex 30.1713 463.85 73.5793
      vertex 98.0401 463.85 22.7745
      vertex 27.0635 463.85 70.2959
    endloop
  endfacet
  facet normal 0 1 0
    outer loop
      vertex 27.0635 463.85 70.2959
      vertex 98.0401 463.85 22.7745
      vertex 24.9644 463.85 67.6875
    endloop
  endfacet
  facet normal 0 1 0
    outer loop
      vertex 24.9644 463.85 67.6875
      vertex 98.0401 463.85 22.7745
      vertex 23.2455 463.85 65.2055
    endloop
  endfacet
  facet normal 0 1 0
    outer loop
      vertex 23.2455 463.85 65.2055
      vertex 98.0401 463.85 22.7745
      vertex 21.5573 463.85 62.6891
    endloop
  endfacet
  facet normal 0 1 0
    outer loop
      vertex 21.5573 463.85 62.6891
      vertex 98.0401 463.85 22.7745
      vertex 19.9114 463.85 60.1353
    endloop
  endfacet
  facet normal 0 1 -0
    outer loop
      vertex 95.9817 463.85 17.8358
      vertex 19.9114 463.85 60.1353
      vertex 98.0401 463.85 22.7745
    endloop
  endfacet
  facet normal 0 1 0
    outer loop
      vertex 19.9114 463.85 60.1353
      vertex 95.9817 463.85 17.8358
      vertex 18.3195 463.85 57.5411
    endloop
  endfacet
  facet normal 0 1 0
    outer loop
      vertex 18.3195 463.85 57.5411
      vertex 95.9817 463.85 17.8358
      vertex 16.7932 463.85 54.9032
    endloop
  endfacet
  facet normal 0 1 0
    outer loop
      vertex 16.7932 463.85 54.9032
      vertex 95.9817 463.85 17.8358
      vertex 15.3442 463.85 52.2186
    endloop
  endfacet
  facet normal 0 1 0
    outer loop
      vertex 15.3442 463.85 52.2186
      vertex 95.9817 463.85 17.8358
      vertex 13.9841 463.85 49.4842
    endloop
  endfacet
  facet normal 0 1 -0
    outer loop
      vertex 94.4192 463.85 13.7458
      vertex 13.9841 463.85 49.4842
      vertex 95.9817 463.85 17.8358
    endloop
  endfacet
  facet normal 0 1 0
    outer loop
      vertex 13.9841 463.85 49.4842
      vertex 94.4192 463.85 13.7458
      vertex 12.7245 463.85 46.6969
    endloop
  endfacet
  facet normal 0 1 0
    outer loop
      vertex 12.7245 463.85 46.6969
      vertex 94.4192 463.85 13.7458
      vertex 11.5771 463.85 43.8537
    endloop
  endfacet
  facet normal 0 1 0
    outer loop
      vertex 11.5771 463.85 43.8537
      vertex 94.4192 463.85 13.7458
      vertex 10.5535 463.85 40.9514
    endloop
  endfacet
  facet normal 0 1 0
    outer loop
      vertex 10.5535 463.85 40.9514
      vertex 94.4192 463.85 13.7458
      vertex 9.66534 463.85 37.9868
    endloop
  endfacet
  facet normal 0 1 -0
    outer loop
      vertex 93.3305 463.85 10.6476
      vertex 9.66534 463.85 37.9868
      vertex 94.4192 463.85 13.7458
    endloop
  endfacet
  facet normal 0 1 0
    outer loop
      vertex 9.66534 463.85 37.9868
      vertex 93.3305 463.85 10.6476
      vertex 8.92433 463.85 34.9571
    endloop
  endfacet
  facet normal 0 1 0
    outer loop
      vertex 8.92433 463.85 34.9571
      vertex 93.3305 463.85 10.6476
      vertex 8.34207 463.85 31.8589
    endloop
  endfacet
  facet normal 0 1 0
    outer loop
      vertex 8.34207 463.85 31.8589
      vertex 93.3305 463.85 10.6476
      vertex 7.93021 463.85 28.6893
    endloop
  endfacet
  facet normal 0 1 0
    outer loop
      vertex 7.93021 463.85 28.6893
      vertex 93.3305 463.85 10.6476
      vertex 7.70038 463.85 25.4451
    endloop
  endfacet
  facet normal 0 1 0
    outer loop
      vertex 7.70038 463.85 25.4451
      vertex 93.3305 463.85 10.6476
      vertex 7.66422 463.85 22.1233
    endloop
  endfacet
  facet normal 0 1 -0
    outer loop
      vertex 92.6935 463.85 8.68384
      vertex 7.66422 463.85 22.1233
      vertex 93.3305 463.85 10.6476
    endloop
  endfacet
  facet normal 0 1 0
    outer loop
      vertex 7.66422 463.85 22.1233
      vertex 92.6935 463.85 8.68384
      vertex 7.83337 463.85 18.7207
    endloop
  endfacet
  facet normal 0 1 0
    outer loop
      vertex 7.83337 463.85 18.7207
      vertex 92.6935 463.85 8.68384
      vertex 8.21948 463.85 15.2343
    endloop
  endfacet
  facet normal 0 1 0
    outer loop
      vertex 8.21948 463.85 15.2343
      vertex 92.6935 463.85 8.68384
      vertex 8.8342 463.85 11.6609
    endloop
  endfacet
  facet normal 0 1 -0
    outer loop
      vertex 92.4861 463.85 7.99751
      vertex 8.8342 463.85 11.6609
      vertex 92.6935 463.85 8.68384
    endloop
  endfacet
  facet normal 0 1 0
    outer loop
      vertex 8.8342 463.85 11.6609
      vertex 92.4861 463.85 7.99751
      vertex 9.68916 463.85 7.99751
    endloop
  endfacet
  facet normal 0.0982236 0 0.995164
    outer loop
      vertex 221.643 463.85 155.219
      vertex 233.112 457.5 154.087
      vertex 233.112 463.85 154.087
    endloop
  endfacet
  facet normal 0.0982236 0 0.995164
    outer loop
      vertex 233.112 457.5 154.087
      vertex 221.643 463.85 155.219
      vertex 221.643 457.5 155.219
    endloop
  endfacet
  facet normal 0.165702 0 0.986176
    outer loop
      vertex 233.112 463.85 154.087
      vertex 244.283 457.5 152.21
      vertex 244.283 463.85 152.21
    endloop
  endfacet
  facet normal 0.165702 0 0.986176
    outer loop
      vertex 244.283 457.5 152.21
      vertex 233.112 463.85 154.087
      vertex 233.112 457.5 154.087
    endloop
  endfacet
  facet normal 0.228675 0 0.973503
    outer loop
      vertex 244.283 463.85 152.21
      vertex 255.143 457.5 149.659
      vertex 255.143 463.85 149.659
    endloop
  endfacet
  facet normal 0.228675 0 0.973503
    outer loop
      vertex 255.143 457.5 149.659
      vertex 244.283 463.85 152.21
      vertex 244.283 457.5 152.21
    endloop
  endfacet
  facet normal 0.286731 0 0.958011
    outer loop
      vertex 255.143 463.85 149.659
      vertex 265.681 457.5 146.505
      vertex 265.681 463.85 146.505
    endloop
  endfacet
  facet normal 0.286731 0 0.958011
    outer loop
      vertex 265.681 457.5 146.505
      vertex 255.143 463.85 149.659
      vertex 255.143 457.5 149.659
    endloop
  endfacet
  facet normal 0.339885 0 0.940467
    outer loop
      vertex 265.681 463.85 146.505
      vertex 275.883 457.5 142.818
      vertex 275.883 463.85 142.818
    endloop
  endfacet
  facet normal 0.339885 0 0.940467
    outer loop
      vertex 275.883 457.5 142.818
      vertex 265.681 463.85 146.505
      vertex 265.681 457.5 146.505
    endloop
  endfacet
  facet normal 0.388019 0 0.921651
    outer loop
      vertex 275.883 463.85 142.818
      vertex 285.738 457.5 138.669
      vertex 285.738 463.85 138.669
    endloop
  endfacet
  facet normal 0.388019 0 0.921651
    outer loop
      vertex 285.738 457.5 138.669
      vertex 275.883 463.85 142.818
      vertex 275.883 457.5 142.818
    endloop
  endfacet
  facet normal 0.431371 0 0.902174
    outer loop
      vertex 285.738 463.85 138.669
      vertex 295.233 457.5 134.129
      vertex 295.233 463.85 134.129
    endloop
  endfacet
  facet normal 0.431371 0 0.902174
    outer loop
      vertex 295.233 457.5 134.129
      vertex 285.738 463.85 138.669
      vertex 285.738 457.5 138.669
    endloop
  endfacet
  facet normal 0.470166 0 0.882578
    outer loop
      vertex 295.233 463.85 134.129
      vertex 304.356 457.5 129.269
      vertex 304.356 463.85 129.269
    endloop
  endfacet
  facet normal 0.470166 0 0.882578
    outer loop
      vertex 304.356 457.5 129.269
      vertex 295.233 463.85 134.129
      vertex 295.233 457.5 134.129
    endloop
  endfacet
  facet normal 0.504743 0 0.86327
    outer loop
      vertex 304.356 463.85 129.269
      vertex 313.094 457.5 124.16
      vertex 313.094 463.85 124.16
    endloop
  endfacet
  facet normal 0.504743 0 0.86327
    outer loop
      vertex 313.094 457.5 124.16
      vertex 304.356 463.85 129.269
      vertex 304.356 457.5 129.269
    endloop
  endfacet
  facet normal 0.535558 0 0.844499
    outer loop
      vertex 313.094 463.85 124.16
      vertex 321.434 457.5 118.871
      vertex 321.434 463.85 118.871
    endloop
  endfacet
  facet normal 0.535558 0 0.844499
    outer loop
      vertex 321.434 457.5 118.871
      vertex 313.094 463.85 124.16
      vertex 313.094 457.5 124.16
    endloop
  endfacet
  facet normal 0.56247 0 0.826818
    outer loop
      vertex 321.434 463.85 118.871
      vertex 329.366 457.5 113.475
      vertex 329.366 463.85 113.475
    endloop
  endfacet
  facet normal 0.56247 0 0.826818
    outer loop
      vertex 329.366 457.5 113.475
      vertex 321.434 463.85 118.871
      vertex 321.434 457.5 118.871
    endloop
  endfacet
  facet normal 0.586188 0 0.810175
    outer loop
      vertex 329.366 463.85 113.475
      vertex 336.875 457.5 108.042
      vertex 336.875 463.85 108.042
    endloop
  endfacet
  facet normal 0.586188 0 0.810175
    outer loop
      vertex 336.875 457.5 108.042
      vertex 329.366 463.85 113.475
      vertex 329.366 457.5 113.475
    endloop
  endfacet
  facet normal 0.606666 0 0.794957
    outer loop
      vertex 336.875 463.85 108.042
      vertex 343.951 457.5 102.642
      vertex 343.951 463.85 102.642
    endloop
  endfacet
  facet normal 0.606666 0 0.794957
    outer loop
      vertex 343.951 457.5 102.642
      vertex 336.875 463.85 108.042
      vertex 336.875 457.5 108.042
    endloop
  endfacet
  facet normal 0.624221 0 0.781248
    outer loop
      vertex 343.951 463.85 102.642
      vertex 350.579 457.5 97.3462
      vertex 350.579 463.85 97.3462
    endloop
  endfacet
  facet normal 0.624221 0 0.781248
    outer loop
      vertex 350.579 457.5 97.3462
      vertex 343.951 463.85 102.642
      vertex 343.951 457.5 102.642
    endloop
  endfacet
  facet normal 0.63861 0 0.76953
    outer loop
      vertex 350.579 463.85 97.3462
      vertex 356.749 457.5 92.2259
      vertex 356.749 463.85 92.2259
    endloop
  endfacet
  facet normal 0.63861 0 0.76953
    outer loop
      vertex 356.749 457.5 92.2259
      vertex 350.579 463.85 97.3462
      vertex 350.579 457.5 97.3462
    endloop
  endfacet
  facet normal 0.650053 0 0.759889
    outer loop
      vertex 356.749 463.85 92.2259
      vertex 362.447 457.5 87.3515
      vertex 362.447 463.85 87.3515
    endloop
  endfacet
  facet normal 0.650053 0 0.759889
    outer loop
      vertex 362.447 457.5 87.3515
      vertex 356.749 463.85 92.2259
      vertex 356.749 457.5 92.2259
    endloop
  endfacet
  facet normal 0.658061 0 0.752965
    outer loop
      vertex 362.447 463.85 87.3515
      vertex 367.662 457.5 82.7938
      vertex 367.662 463.85 82.7938
    endloop
  endfacet
  facet normal 0.658061 0 0.752965
    outer loop
      vertex 367.662 457.5 82.7938
      vertex 362.447 463.85 87.3515
      vertex 362.447 457.5 87.3515
    endloop
  endfacet
  facet normal 0.66227 0 0.749266
    outer loop
      vertex 367.662 463.85 82.7938
      vertex 372.38 457.5 78.6236
      vertex 372.38 463.85 78.6236
    endloop
  endfacet
  facet normal 0.66227 0 0.749266
    outer loop
      vertex 372.38 457.5 78.6236
      vertex 367.662 463.85 82.7938
      vertex 367.662 457.5 82.7938
    endloop
  endfacet
  facet normal 0.694611 0 0.719385
    outer loop
      vertex 372.38 463.85 78.6236
      vertex 376.605 457.5 74.5441
      vertex 376.605 463.85 74.5441
    endloop
  endfacet
  facet normal 0.694611 0 0.719385
    outer loop
      vertex 376.605 457.5 74.5441
      vertex 372.38 463.85 78.6236
      vertex 372.38 457.5 78.6236
    endloop
  endfacet
  facet normal 0.752922 -0 0.658109
    outer loop
      vertex 376.605 457.5 74.5441
      vertex 380.365 463.85 70.2424
      vertex 376.605 463.85 74.5441
    endloop
  endfacet
  facet normal 0.752922 0 0.658109
    outer loop
      vertex 380.365 463.85 70.2424
      vertex 376.605 457.5 74.5441
      vertex 380.365 457.5 70.2424
    endloop
  endfacet
  facet normal 0.80308 -0 0.595871
    outer loop
      vertex 380.365 457.5 70.2424
      vertex 383.687 463.85 65.7652
      vertex 380.365 463.85 70.2424
    endloop
  endfacet
  facet normal 0.80308 0 0.595871
    outer loop
      vertex 383.687 463.85 65.7652
      vertex 380.365 457.5 70.2424
      vertex 383.687 457.5 65.7652
    endloop
  endfacet
  facet normal 0.845333 -0 0.53424
    outer loop
      vertex 383.687 457.5 65.7652
      vertex 386.598 463.85 61.1591
      vertex 383.687 463.85 65.7652
    endloop
  endfacet
  facet normal 0.845333 0 0.53424
    outer loop
      vertex 386.598 463.85 61.1591
      vertex 383.687 457.5 65.7652
      vertex 386.598 457.5 61.1591
    endloop
  endfacet
  facet normal 0.880273 -0 0.474468
    outer loop
      vertex 386.598 457.5 61.1591
      vertex 389.125 463.85 56.4708
      vertex 386.598 463.85 61.1591
    endloop
  endfacet
  facet normal 0.880273 0 0.474468
    outer loop
      vertex 389.125 463.85 56.4708
      vertex 386.598 457.5 61.1591
      vertex 389.125 457.5 56.4708
    endloop
  endfacet
  facet normal 0.908782 -0 0.417271
    outer loop
      vertex 389.125 457.5 56.4708
      vertex 391.294 463.85 51.7469
      vertex 389.125 463.85 56.4708
    endloop
  endfacet
  facet normal 0.908782 0 0.417271
    outer loop
      vertex 391.294 463.85 51.7469
      vertex 389.125 457.5 56.4708
      vertex 391.294 457.5 51.7469
    endloop
  endfacet
  facet normal 0.931587 -0 0.363518
    outer loop
      vertex 391.294 457.5 51.7469
      vertex 393.133 463.85 47.0341
      vertex 391.294 463.85 51.7469
    endloop
  endfacet
  facet normal 0.931587 0 0.363518
    outer loop
      vertex 393.133 463.85 47.0341
      vertex 391.294 457.5 51.7469
      vertex 393.133 457.5 47.0341
    endloop
  endfacet
  facet normal 0.9497 -0 0.31316
    outer loop
      vertex 393.133 457.5 47.0341
      vertex 394.668 463.85 42.379
      vertex 393.133 463.85 47.0341
    endloop
  endfacet
  facet normal 0.9497 0 0.31316
    outer loop
      vertex 394.668 463.85 42.379
      vertex 393.133 457.5 47.0341
      vertex 394.668 457.5 42.379
    endloop
  endfacet
  facet normal 0.963851 -0 0.266442
    outer loop
      vertex 394.668 457.5 42.379
      vertex 395.926 463.85 37.8282
      vertex 394.668 463.85 42.379
    endloop
  endfacet
  facet normal 0.963851 0 0.266442
    outer loop
      vertex 395.926 463.85 37.8282
      vertex 394.668 457.5 42.379
      vertex 395.926 457.5 37.8282
    endloop
  endfacet
  facet normal 0.974794 -0 0.223105
    outer loop
      vertex 395.926 457.5 37.8282
      vertex 396.933 463.85 33.4284
      vertex 395.926 463.85 37.8282
    endloop
  endfacet
  facet normal 0.974794 0 0.223105
    outer loop
      vertex 396.933 463.85 33.4284
      vertex 395.926 457.5 37.8282
      vertex 396.933 457.5 33.4284
    endloop
  endfacet
  facet normal 0.982995 -0 0.18363
    outer loop
      vertex 396.933 457.5 33.4284
      vertex 397.718 463.85 29.2262
      vertex 396.933 463.85 33.4284
    endloop
  endfacet
  facet normal 0.982995 0 0.18363
    outer loop
      vertex 397.718 463.85 29.2262
      vertex 396.933 457.5 33.4284
      vertex 397.718 457.5 29.2262
    endloop
  endfacet
  facet normal 0.989143 -0 0.146954
    outer loop
      vertex 397.718 457.5 29.2262
      vertex 398.306 463.85 25.2684
      vertex 397.718 463.85 29.2262
    endloop
  endfacet
  facet normal 0.989143 0 0.146954
    outer loop
      vertex 398.306 463.85 25.2684
      vertex 397.718 457.5 29.2262
      vertex 398.306 457.5 25.2684
    endloop
  endfacet
  facet normal 0.993565 -0 0.113259
    outer loop
      vertex 398.306 457.5 25.2684
      vertex 398.724 463.85 21.6015
      vertex 398.306 463.85 25.2684
    endloop
  endfacet
  facet normal 0.993565 0 0.113259
    outer loop
      vertex 398.724 463.85 21.6015
      vertex 398.306 457.5 25.2684
      vertex 398.724 457.5 21.6015
    endloop
  endfacet
  facet normal 0.996582 -0 0.0826144
    outer loop
      vertex 398.724 457.5 21.6015
      vertex 399 463.85 18.2721
      vertex 398.724 463.85 21.6015
    endloop
  endfacet
  facet normal 0.996582 0 0.0826144
    outer loop
      vertex 399 463.85 18.2721
      vertex 398.724 457.5 21.6015
      vertex 399 457.5 18.2721
    endloop
  endfacet
  facet normal 0.998546 -0 0.0539095
    outer loop
      vertex 399 457.5 18.2721
      vertex 399.159 463.85 15.327
      vertex 399 463.85 18.2721
    endloop
  endfacet
  facet normal 0.998546 0 0.0539095
    outer loop
      vertex 399.159 463.85 15.327
      vertex 399 457.5 18.2721
      vertex 399.159 457.5 15.327
    endloop
  endfacet
  facet normal 0.999613 -0 0.0278311
    outer loop
      vertex 399.159 457.5 15.327
      vertex 399.229 463.85 12.8128
      vertex 399.159 463.85 15.327
    endloop
  endfacet
  facet normal 0.999613 0 0.0278311
    outer loop
      vertex 399.229 463.85 12.8128
      vertex 399.159 457.5 15.327
      vertex 399.229 457.5 12.8128
    endloop
  endfacet
  facet normal 0.999992 -0 0.00392789
    outer loop
      vertex 399.229 457.5 12.8128
      vertex 399.237 463.85 10.7761
      vertex 399.229 463.85 12.8128
    endloop
  endfacet
  facet normal 0.999992 0 0.00392789
    outer loop
      vertex 399.237 463.85 10.7761
      vertex 399.229 457.5 12.8128
      vertex 399.237 457.5 10.7761
    endloop
  endfacet
  facet normal 0.999841 0 -0.0178475
    outer loop
      vertex 399.237 457.5 10.7761
      vertex 399.21 463.85 9.26352
      vertex 399.237 463.85 10.7761
    endloop
  endfacet
  facet normal 0.999841 0 -0.0178475
    outer loop
      vertex 399.21 463.85 9.26352
      vertex 399.237 457.5 10.7761
      vertex 399.21 457.5 9.26352
    endloop
  endfacet
  facet normal 0.99927 0 -0.0381996
    outer loop
      vertex 399.21 457.5 9.26352
      vertex 399.174 463.85 8.32179
      vertex 399.21 463.85 9.26352
    endloop
  endfacet
  facet normal 0.99927 0 -0.0381996
    outer loop
      vertex 399.174 463.85 8.32179
      vertex 399.21 457.5 9.26352
      vertex 399.174 457.5 8.32179
    endloop
  endfacet
  facet normal 0.998463 0 -0.0554223
    outer loop
      vertex 399.174 457.5 8.32179
      vertex 399.156 463.85 7.99751
      vertex 399.174 463.85 8.32179
    endloop
  endfacet
  facet normal 0.998463 0 -0.0554223
    outer loop
      vertex 399.156 463.85 7.99751
      vertex 399.174 457.5 8.32179
      vertex 399.156 457.5 7.99751
    endloop
  endfacet
  facet normal 0 0 -1
    outer loop
      vertex 316.853 457.5 7.99751
      vertex 399.156 463.85 7.99751
      vertex 399.156 457.5 7.99751
    endloop
  endfacet
  facet normal -0 0 -1
    outer loop
      vertex 399.156 463.85 7.99751
      vertex 316.853 457.5 7.99751
      vertex 316.853 463.85 7.99751
    endloop
  endfacet
  facet normal -0.948044 0 -0.31814
    outer loop
      vertex 316.853 457.5 7.99751
      vertex 316.628 463.85 8.668
      vertex 316.853 463.85 7.99751
    endloop
  endfacet
  facet normal -0.948044 -0 -0.31814
    outer loop
      vertex 316.628 463.85 8.668
      vertex 316.853 457.5 7.99751
      vertex 316.628 457.5 8.668
    endloop
  endfacet
  facet normal -0.94152 0 -0.336958
    outer loop
      vertex 316.628 457.5 8.668
      vertex 315.941 463.85 10.5876
      vertex 316.628 463.85 8.668
    endloop
  endfacet
  facet normal -0.94152 -0 -0.336958
    outer loop
      vertex 315.941 463.85 10.5876
      vertex 316.628 457.5 8.668
      vertex 315.941 457.5 10.5876
    endloop
  endfacet
  facet normal -0.933207 0 -0.35934
    outer loop
      vertex 315.941 457.5 10.5876
      vertex 314.774 463.85 13.6183
      vertex 315.941 463.85 10.5876
    endloop
  endfacet
  facet normal -0.933207 -0 -0.35934
    outer loop
      vertex 314.774 463.85 13.6183
      vertex 315.941 457.5 10.5876
      vertex 314.774 457.5 13.6183
    endloop
  endfacet
  facet normal -0.923271 0 -0.384149
    outer loop
      vertex 314.774 457.5 13.6183
      vertex 313.108 463.85 17.6224
      vertex 314.774 463.85 13.6183
    endloop
  endfacet
  facet normal -0.923271 -0 -0.384149
    outer loop
      vertex 313.108 463.85 17.6224
      vertex 314.774 457.5 13.6183
      vertex 313.108 457.5 17.6224
    endloop
  endfacet
  facet normal -0.911482 0 -0.411339
    outer loop
      vertex 313.108 457.5 17.6224
      vertex 310.924 463.85 22.4619
      vertex 313.108 463.85 17.6224
    endloop
  endfacet
  facet normal -0.911482 -0 -0.411339
    outer loop
      vertex 310.924 463.85 22.4619
      vertex 313.108 457.5 17.6224
      vertex 310.924 457.5 22.4619
    endloop
  endfacet
  facet normal -0.897556 0 -0.4409
    outer loop
      vertex 310.924 457.5 22.4619
      vertex 308.204 463.85 27.9991
      vertex 310.924 463.85 22.4619
    endloop
  endfacet
  facet normal -0.897556 -0 -0.4409
    outer loop
      vertex 308.204 463.85 27.9991
      vertex 310.924 457.5 22.4619
      vertex 308.204 457.5 27.9991
    endloop
  endfacet
  facet normal -0.881007 0 -0.473103
    outer loop
      vertex 308.204 457.5 27.9991
      vertex 304.93 463.85 34.0959
      vertex 308.204 463.85 27.9991
    endloop
  endfacet
  facet normal -0.881007 -0 -0.473103
    outer loop
      vertex 304.93 463.85 34.0959
      vertex 308.204 457.5 27.9991
      vertex 304.93 457.5 34.0959
    endloop
  endfacet
  facet normal -0.861152 0 -0.508347
    outer loop
      vertex 304.93 457.5 34.0959
      vertex 301.082 463.85 40.6145
      vertex 304.93 463.85 34.0959
    endloop
  endfacet
  facet normal -0.861152 -0 -0.508347
    outer loop
      vertex 301.082 463.85 40.6145
      vertex 304.93 457.5 34.0959
      vertex 301.082 457.5 40.6145
    endloop
  endfacet
  facet normal -0.837469 0 -0.546486
    outer loop
      vertex 301.082 457.5 40.6145
      vertex 296.643 463.85 47.4171
      vertex 301.082 463.85 40.6145
    endloop
  endfacet
  facet normal -0.837469 -0 -0.546486
    outer loop
      vertex 296.643 463.85 47.4171
      vertex 301.082 457.5 40.6145
      vertex 296.643 457.5 47.4171
    endloop
  endfacet
  facet normal -0.808987 0 -0.587827
    outer loop
      vertex 296.643 457.5 47.4171
      vertex 291.594 463.85 54.3657
      vertex 296.643 463.85 47.4171
    endloop
  endfacet
  facet normal -0.808987 -0 -0.587827
    outer loop
      vertex 291.594 463.85 54.3657
      vertex 296.643 457.5 47.4171
      vertex 291.594 457.5 54.3657
    endloop
  endfacet
  facet normal -0.774721 0 -0.632303
    outer loop
      vertex 291.594 457.5 54.3657
      vertex 285.916 463.85 61.3226
      vertex 291.594 463.85 54.3657
    endloop
  endfacet
  facet normal -0.774721 -0 -0.632303
    outer loop
      vertex 285.916 463.85 61.3226
      vertex 291.594 457.5 54.3657
      vertex 285.916 457.5 61.3226
    endloop
  endfacet
  facet normal -0.733572 0 -0.679612
    outer loop
      vertex 285.916 457.5 61.3226
      vertex 279.591 463.85 68.1498
      vertex 285.916 463.85 61.3226
    endloop
  endfacet
  facet normal -0.733572 -0 -0.679612
    outer loop
      vertex 279.591 463.85 68.1498
      vertex 285.916 457.5 61.3226
      vertex 279.591 457.5 68.1498
    endloop
  endfacet
  facet normal -0.684248 0 -0.729249
    outer loop
      vertex 272.6 457.5 74.7094
      vertex 279.591 463.85 68.1498
      vertex 279.591 457.5 68.1498
    endloop
  endfacet
  facet normal -0.684248 0 -0.729249
    outer loop
      vertex 279.591 463.85 68.1498
      vertex 272.6 457.5 74.7094
      vertex 272.6 463.85 74.7094
    endloop
  endfacet
  facet normal -0.625575 0 -0.780164
    outer loop
      vertex 264.925 457.5 80.8636
      vertex 272.6 463.85 74.7094
      vertex 272.6 457.5 74.7094
    endloop
  endfacet
  facet normal -0.625575 0 -0.780164
    outer loop
      vertex 272.6 463.85 74.7094
      vertex 264.925 457.5 80.8636
      vertex 264.925 463.85 80.8636
    endloop
  endfacet
  facet normal -0.556507 0 -0.830843
    outer loop
      vertex 256.548 457.5 86.4746
      vertex 264.925 463.85 80.8636
      vertex 264.925 457.5 80.8636
    endloop
  endfacet
  facet normal -0.556507 0 -0.830843
    outer loop
      vertex 264.925 463.85 80.8636
      vertex 256.548 457.5 86.4746
      vertex 256.548 463.85 86.4746
    endloop
  endfacet
  facet normal -0.476363 0 -0.879248
    outer loop
      vertex 247.449 457.5 91.4043
      vertex 256.548 463.85 86.4746
      vertex 256.548 457.5 86.4746
    endloop
  endfacet
  facet normal -0.476363 0 -0.879248
    outer loop
      vertex 256.548 463.85 86.4746
      vertex 247.449 457.5 91.4043
      vertex 247.449 463.85 91.4043
    endloop
  endfacet
  facet normal -0.385504 0 -0.922706
    outer loop
      vertex 237.61 457.5 95.515
      vertex 247.449 463.85 91.4043
      vertex 247.449 457.5 91.4043
    endloop
  endfacet
  facet normal -0.385504 0 -0.922706
    outer loop
      vertex 247.449 463.85 91.4043
      vertex 237.61 457.5 95.515
      vertex 237.61 463.85 95.515
    endloop
  endfacet
  facet normal -0.285248 0 -0.958454
    outer loop
      vertex 227.013 457.5 98.6688
      vertex 237.61 463.85 95.515
      vertex 237.61 457.5 95.515
    endloop
  endfacet
  facet normal -0.285248 0 -0.958454
    outer loop
      vertex 237.61 463.85 95.515
      vertex 227.013 457.5 98.6688
      vertex 227.013 463.85 98.6688
    endloop
  endfacet
  facet normal -0.178148 0 -0.984004
    outer loop
      vertex 215.639 457.5 100.728
      vertex 227.013 463.85 98.6688
      vertex 227.013 457.5 98.6688
    endloop
  endfacet
  facet normal -0.178148 0 -0.984004
    outer loop
      vertex 227.013 463.85 98.6688
      vertex 215.639 457.5 100.728
      vertex 215.639 463.85 100.728
    endloop
  endfacet
  facet normal -0.0676764 0 -0.997707
    outer loop
      vertex 207 457.5 101.314
      vertex 215.639 463.85 100.728
      vertex 215.639 457.5 100.728
    endloop
  endfacet
  facet normal -0.0676764 0 -0.997707
    outer loop
      vertex 215.639 463.85 100.728
      vertex 207 457.5 101.314
      vertex 207 463.85 101.314
    endloop
  endfacet
  facet normal 0.0431445 0 -0.999069
    outer loop
      vertex 191.318 457.5 101.029
      vertex 200.65 463.85 101.432
      vertex 200.65 457.5 101.432
    endloop
  endfacet
  facet normal 0.0431445 0 -0.999069
    outer loop
      vertex 200.65 463.85 101.432
      vertex 191.318 457.5 101.029
      vertex 191.318 463.85 101.029
    endloop
  endfacet
  facet normal 0.158693 0 -0.987328
    outer loop
      vertex 179.994 457.5 99.2089
      vertex 191.318 463.85 101.029
      vertex 191.318 457.5 101.029
    endloop
  endfacet
  facet normal 0.158693 0 -0.987328
    outer loop
      vertex 191.318 463.85 101.029
      vertex 179.994 457.5 99.2089
      vertex 179.994 463.85 99.2089
    endloop
  endfacet
  facet normal 0.271857 0 -0.962338
    outer loop
      vertex 169.476 457.5 96.2376
      vertex 179.994 463.85 99.2089
      vertex 179.994 457.5 99.2089
    endloop
  endfacet
  facet normal 0.271857 0 -0.962338
    outer loop
      vertex 179.994 463.85 99.2089
      vertex 169.476 457.5 96.2376
      vertex 169.476 463.85 96.2376
    endloop
  endfacet
  facet normal 0.378413 0 -0.925637
    outer loop
      vertex 159.741 457.5 92.2578
      vertex 169.476 463.85 96.2376
      vertex 169.476 457.5 96.2376
    endloop
  endfacet
  facet normal 0.378413 0 -0.925637
    outer loop
      vertex 169.476 463.85 96.2376
      vertex 159.741 457.5 92.2578
      vertex 159.741 463.85 92.2578
    endloop
  endfacet
  facet normal 0.475122 0 -0.87992
    outer loop
      vertex 150.767 457.5 87.4122
      vertex 159.741 463.85 92.2578
      vertex 159.741 457.5 92.2578
    endloop
  endfacet
  facet normal 0.475122 0 -0.87992
    outer loop
      vertex 159.741 463.85 92.2578
      vertex 150.767 457.5 87.4122
      vertex 150.767 463.85 87.4122
    endloop
  endfacet
  facet normal 0.560195 0 -0.828361
    outer loop
      vertex 142.533 457.5 81.8438
      vertex 150.767 463.85 87.4122
      vertex 150.767 457.5 87.4122
    endloop
  endfacet
  facet normal 0.560195 0 -0.828361
    outer loop
      vertex 150.767 463.85 87.4122
      vertex 142.533 457.5 81.8438
      vertex 142.533 463.85 81.8438
    endloop
  endfacet
  facet normal 0.633122 0 -0.774052
    outer loop
      vertex 135.016 457.5 75.6954
      vertex 142.533 463.85 81.8438
      vertex 142.533 457.5 81.8438
    endloop
  endfacet
  facet normal 0.633122 0 -0.774052
    outer loop
      vertex 142.533 463.85 81.8438
      vertex 135.016 457.5 75.6954
      vertex 135.016 463.85 75.6954
    endloop
  endfacet
  facet normal 0.694473 0 -0.719519
    outer loop
      vertex 128.193 457.5 69.1099
      vertex 135.016 463.85 75.6954
      vertex 135.016 457.5 75.6954
    endloop
  endfacet
  facet normal 0.694473 0 -0.719519
    outer loop
      vertex 135.016 463.85 75.6954
      vertex 128.193 457.5 69.1099
      vertex 128.193 463.85 69.1099
    endloop
  endfacet
  facet normal 0.745592 0 -0.666402
    outer loop
      vertex 128.193 457.5 69.1099
      vertex 122.044 463.85 62.2302
      vertex 128.193 463.85 69.1099
    endloop
  endfacet
  facet normal 0.745592 0 -0.666402
    outer loop
      vertex 122.044 463.85 62.2302
      vertex 128.193 457.5 69.1099
      vertex 122.044 457.5 62.2302
    endloop
  endfacet
  facet normal 0.787751 0 -0.615994
    outer loop
      vertex 122.044 457.5 62.2302
      vertex 116.546 463.85 55.1992
      vertex 122.044 463.85 62.2302
    endloop
  endfacet
  facet normal 0.787751 0 -0.615994
    outer loop
      vertex 116.546 463.85 55.1992
      vertex 122.044 457.5 62.2302
      vertex 116.546 457.5 55.1992
    endloop
  endfacet
  facet normal 0.822384 0 -0.568934
    outer loop
      vertex 116.546 457.5 55.1992
      vertex 111.676 463.85 48.1597
      vertex 116.546 463.85 55.1992
    endloop
  endfacet
  facet normal 0.822384 0 -0.568934
    outer loop
      vertex 111.676 463.85 48.1597
      vertex 116.546 457.5 55.1992
      vertex 111.676 457.5 48.1597
    endloop
  endfacet
  facet normal 0.850848 0 -0.525411
    outer loop
      vertex 111.676 457.5 48.1597
      vertex 107.412 463.85 41.2546
      vertex 111.676 463.85 48.1597
    endloop
  endfacet
  facet normal 0.850848 0 -0.525411
    outer loop
      vertex 107.412 463.85 41.2546
      vertex 111.676 457.5 48.1597
      vertex 107.412 457.5 41.2546
    endloop
  endfacet
  facet normal 0.874331 0 -0.485329
    outer loop
      vertex 107.412 457.5 41.2546
      vertex 103.733 463.85 34.6268
      vertex 107.412 463.85 41.2546
    endloop
  endfacet
  facet normal 0.874331 0 -0.485329
    outer loop
      vertex 103.733 463.85 34.6268
      vertex 107.412 457.5 41.2546
      vertex 103.733 457.5 34.6268
    endloop
  endfacet
  facet normal 0.893726 0 -0.448612
    outer loop
      vertex 103.733 457.5 34.6268
      vertex 100.617 463.85 28.4191
      vertex 103.733 463.85 34.6268
    endloop
  endfacet
  facet normal 0.893726 0 -0.448612
    outer loop
      vertex 100.617 463.85 28.4191
      vertex 103.733 457.5 34.6268
      vertex 100.617 457.5 28.4191
    endloop
  endfacet
  facet normal 0.909687 0 -0.415295
    outer loop
      vertex 100.617 457.5 28.4191
      vertex 98.0401 463.85 22.7745
      vertex 100.617 463.85 28.4191
    endloop
  endfacet
  facet normal 0.909687 0 -0.415295
    outer loop
      vertex 98.0401 463.85 22.7745
      vertex 100.617 457.5 28.4191
      vertex 98.0401 457.5 22.7745
    endloop
  endfacet
  facet normal 0.923037 0 -0.384712
    outer loop
      vertex 98.0401 457.5 22.7745
      vertex 95.9817 463.85 17.8358
      vertex 98.0401 463.85 22.7745
    endloop
  endfacet
  facet normal 0.923037 0 -0.384712
    outer loop
      vertex 95.9817 463.85 17.8358
      vertex 98.0401 457.5 22.7745
      vertex 95.9817 457.5 17.8358
    endloop
  endfacet
  facet normal 0.934153 0 -0.356874
    outer loop
      vertex 95.9817 457.5 17.8358
      vertex 94.4192 463.85 13.7458
      vertex 95.9817 463.85 17.8358
    endloop
  endfacet
  facet normal 0.934153 0 -0.356874
    outer loop
      vertex 94.4192 463.85 13.7458
      vertex 95.9817 457.5 17.8358
      vertex 94.4192 457.5 13.7458
    endloop
  endfacet
  facet normal 0.943446 0 -0.331525
    outer loop
      vertex 94.4192 457.5 13.7458
      vertex 93.3305 463.85 10.6476
      vertex 94.4192 463.85 13.7458
    endloop
  endfacet
  facet normal 0.943446 0 -0.331525
    outer loop
      vertex 93.3305 463.85 10.6476
      vertex 94.4192 457.5 13.7458
      vertex 93.3305 457.5 10.6476
    endloop
  endfacet
  facet normal 0.951208 0 -0.308551
    outer loop
      vertex 93.3305 457.5 10.6476
      vertex 92.6935 463.85 8.68384
      vertex 93.3305 463.85 10.6476
    endloop
  endfacet
  facet normal 0.951208 0 -0.308551
    outer loop
      vertex 92.6935 463.85 8.68384
      vertex 93.3305 457.5 10.6476
      vertex 92.6935 457.5 8.68384
    endloop
  endfacet
  facet normal 0.957248 0 -0.289268
    outer loop
      vertex 92.6935 457.5 8.68384
      vertex 92.4861 463.85 7.99751
      vertex 92.6935 463.85 8.68384
    endloop
  endfacet
  facet normal 0.957248 0 -0.289268
    outer loop
      vertex 92.4861 463.85 7.99751
      vertex 92.6935 457.5 8.68384
      vertex 92.4861 457.5 7.99751
    endloop
  endfacet
  facet normal 0 0 -1
    outer loop
      vertex 9.68916 457.5 7.99751
      vertex 92.4861 463.85 7.99751
      vertex 92.4861 457.5 7.99751
    endloop
  endfacet
  facet normal -0 0 -1
    outer loop
      vertex 92.4861 463.85 7.99751
      vertex 9.68916 457.5 7.99751
      vertex 9.68916 463.85 7.99751
    endloop
  endfacet
  facet normal -0.973831 0 -0.227272
    outer loop
      vertex 9.68916 457.5 7.99751
      vertex 8.8342 463.85 11.6609
      vertex 9.68916 463.85 7.99751
    endloop
  endfacet
  facet normal -0.973831 -0 -0.227272
    outer loop
      vertex 8.8342 463.85 11.6609
      vertex 9.68916 457.5 7.99751
      vertex 8.8342 457.5 11.6609
    endloop
  endfacet
  facet normal -0.985524 0 -0.169536
    outer loop
      vertex 8.8342 457.5 11.6609
      vertex 8.21948 463.85 15.2343
      vertex 8.8342 463.85 11.6609
    endloop
  endfacet
  facet normal -0.985524 -0 -0.169536
    outer loop
      vertex 8.21948 463.85 15.2343
      vertex 8.8342 457.5 11.6609
      vertex 8.21948 457.5 15.2343
    endloop
  endfacet
  facet normal -0.993923 0 -0.110075
    outer loop
      vertex 8.21948 457.5 15.2343
      vertex 7.83337 463.85 18.7207
      vertex 8.21948 463.85 15.2343
    endloop
  endfacet
  facet normal -0.993923 -0 -0.110075
    outer loop
      vertex 7.83337 463.85 18.7207
      vertex 8.21948 457.5 15.2343
      vertex 7.83337 457.5 18.7207
    endloop
  endfacet
  facet normal -0.998767 0 -0.0496507
    outer loop
      vertex 7.83337 457.5 18.7207
      vertex 7.66422 463.85 22.1233
      vertex 7.83337 463.85 18.7207
    endloop
  endfacet
  facet normal -0.998767 -0 -0.0496507
    outer loop
      vertex 7.66422 463.85 22.1233
      vertex 7.83337 457.5 18.7207
      vertex 7.66422 457.5 22.1233
    endloop
  endfacet
  facet normal -0.999941 0 0.010885
    outer loop
      vertex 7.66422 457.5 22.1233
      vertex 7.70038 463.85 25.4451
      vertex 7.66422 463.85 22.1233
    endloop
  endfacet
  facet normal -0.999941 0 0.010885
    outer loop
      vertex 7.70038 463.85 25.4451
      vertex 7.66422 457.5 22.1233
      vertex 7.70038 457.5 25.4451
    endloop
  endfacet
  facet normal -0.9975 0 0.0706662
    outer loop
      vertex 7.70038 457.5 25.4451
      vertex 7.93021 463.85 28.6893
      vertex 7.70038 463.85 25.4451
    endloop
  endfacet
  facet normal -0.9975 0 0.0706662
    outer loop
      vertex 7.93021 463.85 28.6893
      vertex 7.70038 457.5 25.4451
      vertex 7.93021 457.5 28.6893
    endloop
  endfacet
  facet normal -0.991663 0 0.128857
    outer loop
      vertex 7.93021 457.5 28.6893
      vertex 8.34207 463.85 31.8589
      vertex 7.93021 463.85 28.6893
    endloop
  endfacet
  facet normal -0.991663 0 0.128857
    outer loop
      vertex 8.34207 463.85 31.8589
      vertex 7.93021 457.5 28.6893
      vertex 8.34207 457.5 31.8589
    endloop
  endfacet
  facet normal -0.982795 0 0.184701
    outer loop
      vertex 8.34207 457.5 31.8589
      vertex 8.92433 463.85 34.9571
      vertex 8.34207 463.85 31.8589
    endloop
  endfacet
  facet normal -0.982795 0 0.184701
    outer loop
      vertex 8.92433 463.85 34.9571
      vertex 8.34207 457.5 31.8589
      vertex 8.92433 457.5 34.9571
    endloop
  endfacet
  facet normal -0.971368 0 0.237579
    outer loop
      vertex 8.92433 457.5 34.9571
      vertex 9.66534 463.85 37.9868
      vertex 8.92433 463.85 34.9571
    endloop
  endfacet
  facet normal -0.971368 0 0.237579
    outer loop
      vertex 9.66534 463.85 37.9868
      vertex 8.92433 457.5 34.9571
      vertex 9.66534 457.5 37.9868
    endloop
  endfacet
  facet normal -0.957935 0 0.286986
    outer loop
      vertex 9.66534 457.5 37.9868
      vertex 10.5535 463.85 40.9514
      vertex 9.66534 463.85 37.9868
    endloop
  endfacet
  facet normal -0.957935 0 0.286986
    outer loop
      vertex 10.5535 463.85 40.9514
      vertex 9.66534 457.5 37.9868
      vertex 10.5535 457.5 40.9514
    endloop
  endfacet
  facet normal -0.943066 0 0.332606
    outer loop
      vertex 10.5535 457.5 40.9514
      vertex 11.5771 463.85 43.8537
      vertex 10.5535 463.85 40.9514
    endloop
  endfacet
  facet normal -0.943066 0 0.332606
    outer loop
      vertex 11.5771 463.85 43.8537
      vertex 10.5535 457.5 40.9514
      vertex 11.5771 457.5 43.8537
    endloop
  endfacet
  facet normal -0.927334 0 0.374234
    outer loop
      vertex 11.5771 457.5 43.8537
      vertex 12.7245 463.85 46.6969
      vertex 11.5771 463.85 43.8537
    endloop
  endfacet
  facet normal -0.927334 0 0.374234
    outer loop
      vertex 12.7245 463.85 46.6969
      vertex 11.5771 457.5 43.8537
      vertex 12.7245 457.5 46.6969
    endloop
  endfacet
  facet normal -0.91127 0 0.411809
    outer loop
      vertex 12.7245 457.5 46.6969
      vertex 13.9841 463.85 49.4842
      vertex 12.7245 463.85 46.6969
    endloop
  endfacet
  facet normal -0.91127 0 0.411809
    outer loop
      vertex 13.9841 463.85 49.4842
      vertex 12.7245 457.5 46.6969
      vertex 13.9841 457.5 49.4842
    endloop
  endfacet
  facet normal -0.895355 0 0.445353
    outer loop
      vertex 13.9841 457.5 49.4842
      vertex 15.3442 463.85 52.2186
      vertex 13.9841 463.85 49.4842
    endloop
  endfacet
  facet normal -0.895355 0 0.445353
    outer loop
      vertex 15.3442 463.85 52.2186
      vertex 13.9841 457.5 49.4842
      vertex 15.3442 457.5 52.2186
    endloop
  endfacet
  facet normal -0.879999 0 0.474975
    outer loop
      vertex 15.3442 457.5 52.2186
      vertex 16.7932 463.85 54.9032
      vertex 15.3442 463.85 52.2186
    endloop
  endfacet
  facet normal -0.879999 0 0.474975
    outer loop
      vertex 16.7932 463.85 54.9032
      vertex 15.3442 457.5 52.2186
      vertex 16.7932 457.5 54.9032
    endloop
  endfacet
  facet normal -0.865555 0 0.500814
    outer loop
      vertex 16.7932 457.5 54.9032
      vertex 18.3195 463.85 57.5411
      vertex 16.7932 463.85 54.9032
    endloop
  endfacet
  facet normal -0.865555 0 0.500814
    outer loop
      vertex 18.3195 463.85 57.5411
      vertex 16.7932 457.5 54.9032
      vertex 18.3195 457.5 57.5411
    endloop
  endfacet
  facet normal -0.852322 0 0.523017
    outer loop
      vertex 18.3195 457.5 57.5411
      vertex 19.9114 463.85 60.1353
      vertex 18.3195 463.85 57.5411
    endloop
  endfacet
  facet normal -0.852322 0 0.523017
    outer loop
      vertex 19.9114 463.85 60.1353
      vertex 18.3195 457.5 57.5411
      vertex 19.9114 457.5 60.1353
    endloop
  endfacet
  facet normal -0.840553 0 0.541729
    outer loop
      vertex 19.9114 457.5 60.1353
      vertex 21.5573 463.85 62.6891
      vertex 19.9114 463.85 60.1353
    endloop
  endfacet
  facet normal -0.840553 0 0.541729
    outer loop
      vertex 21.5573 463.85 62.6891
      vertex 19.9114 457.5 60.1353
      vertex 21.5573 457.5 62.6891
    endloop
  endfacet
  facet normal -0.830432 0 0.55712
    outer loop
      vertex 21.5573 457.5 62.6891
      vertex 23.2455 463.85 65.2055
      vertex 21.5573 463.85 62.6891
    endloop
  endfacet
  facet normal -0.830432 0 0.55712
    outer loop
      vertex 23.2455 463.85 65.2055
      vertex 21.5573 457.5 62.6891
      vertex 23.2455 457.5 65.2055
    endloop
  endfacet
  facet normal -0.8221 0 0.569343
    outer loop
      vertex 23.2455 457.5 65.2055
      vertex 24.9644 463.85 67.6875
      vertex 23.2455 463.85 65.2055
    endloop
  endfacet
  facet normal -0.8221 0 0.569343
    outer loop
      vertex 24.9644 463.85 67.6875
      vertex 23.2455 457.5 65.2055
      vertex 24.9644 457.5 67.6875
    endloop
  endfacet
  facet normal -0.779062 0 0.626947
    outer loop
      vertex 24.9644 457.5 67.6875
      vertex 27.0635 463.85 70.2959
      vertex 24.9644 463.85 67.6875
    endloop
  endfacet
  facet normal -0.779062 0 0.626947
    outer loop
      vertex 27.0635 463.85 70.2959
      vertex 24.9644 457.5 67.6875
      vertex 27.0635 457.5 70.2959
    endloop
  endfacet
  facet normal -0.726261 0 0.687419
    outer loop
      vertex 27.0635 457.5 70.2959
      vertex 30.1713 463.85 73.5793
      vertex 27.0635 463.85 70.2959
    endloop
  endfacet
  facet normal -0.726261 0 0.687419
    outer loop
      vertex 30.1713 463.85 73.5793
      vertex 27.0635 457.5 70.2959
      vertex 30.1713 457.5 73.5793
    endloop
  endfacet
  facet normal -0.690298 0 0.723525
    outer loop
      vertex 30.1713 463.85 73.5793
      vertex 34.2346 457.5 77.456
      vertex 34.2346 463.85 77.456
    endloop
  endfacet
  facet normal -0.690298 0 0.723525
    outer loop
      vertex 34.2346 457.5 77.456
      vertex 30.1713 463.85 73.5793
      vertex 30.1713 457.5 73.5793
    endloop
  endfacet
  facet normal -0.662221 0 0.749309
    outer loop
      vertex 34.2346 463.85 77.456
      vertex 39.2 457.5 81.8443
      vertex 39.2 463.85 81.8443
    endloop
  endfacet
  facet normal -0.662221 0 0.749309
    outer loop
      vertex 39.2 457.5 81.8443
      vertex 34.2346 463.85 77.456
      vertex 34.2346 457.5 77.456
    endloop
  endfacet
  facet normal -0.638068 0 0.76998
    outer loop
      vertex 39.2 463.85 81.8443
      vertex 45.0143 457.5 86.6625
      vertex 45.0143 463.85 86.6625
    endloop
  endfacet
  facet normal -0.638068 0 0.76998
    outer loop
      vertex 45.0143 457.5 86.6625
      vertex 39.2 463.85 81.8443
      vertex 39.2 457.5 81.8443
    endloop
  endfacet
  facet normal -0.615817 0 0.787889
    outer loop
      vertex 45.0143 463.85 86.6625
      vertex 51.6243 457.5 91.8289
      vertex 51.6243 463.85 91.8289
    endloop
  endfacet
  facet normal -0.615817 0 0.787889
    outer loop
      vertex 51.6243 457.5 91.8289
      vertex 45.0143 463.85 86.6625
      vertex 45.0143 457.5 86.6625
    endloop
  endfacet
  facet normal -0.594297 0 0.804246
    outer loop
      vertex 51.6243 463.85 91.8289
      vertex 58.9765 457.5 97.2618
      vertex 58.9765 463.85 97.2618
    endloop
  endfacet
  facet normal -0.594297 0 0.804246
    outer loop
      vertex 58.9765 457.5 97.2618
      vertex 51.6243 463.85 91.8289
      vertex 51.6243 457.5 91.8289
    endloop
  endfacet
  facet normal -0.572661 0 0.819792
    outer loop
      vertex 58.9765 463.85 97.2618
      vertex 67.0178 457.5 102.879
      vertex 67.0178 463.85 102.879
    endloop
  endfacet
  facet normal -0.572661 0 0.819792
    outer loop
      vertex 67.0178 457.5 102.879
      vertex 58.9765 463.85 97.2618
      vertex 58.9765 457.5 97.2618
    endloop
  endfacet
  facet normal -0.550452 0 0.834867
    outer loop
      vertex 67.0178 463.85 102.879
      vertex 75.6948 457.5 108.6
      vertex 75.6948 463.85 108.6
    endloop
  endfacet
  facet normal -0.550452 0 0.834867
    outer loop
      vertex 75.6948 457.5 108.6
      vertex 67.0178 463.85 102.879
      vertex 67.0178 457.5 102.879
    endloop
  endfacet
  facet normal -0.527013 0 0.849857
    outer loop
      vertex 75.6948 463.85 108.6
      vertex 84.9543 457.5 114.342
      vertex 84.9543 463.85 114.342
    endloop
  endfacet
  facet normal -0.527013 0 0.849857
    outer loop
      vertex 84.9543 457.5 114.342
      vertex 75.6948 463.85 108.6
      vertex 75.6948 457.5 108.6
    endloop
  endfacet
  facet normal -0.502023 0 0.864854
    outer loop
      vertex 84.9543 463.85 114.342
      vertex 94.7429 457.5 120.024
      vertex 94.7429 463.85 120.024
    endloop
  endfacet
  facet normal -0.502023 0 0.864854
    outer loop
      vertex 94.7429 457.5 120.024
      vertex 84.9543 463.85 114.342
      vertex 84.9543 457.5 114.342
    endloop
  endfacet
  facet normal -0.474975 0 0.879999
    outer loop
      vertex 94.7429 463.85 120.024
      vertex 105.007 457.5 125.564
      vertex 105.007 463.85 125.564
    endloop
  endfacet
  facet normal -0.474975 0 0.879999
    outer loop
      vertex 105.007 457.5 125.564
      vertex 94.7429 463.85 120.024
      vertex 94.7429 457.5 120.024
    endloop
  endfacet
  facet normal -0.445336 0 0.895363
    outer loop
      vertex 105.007 463.85 125.564
      vertex 115.695 457.5 130.88
      vertex 115.695 463.85 130.88
    endloop
  endfacet
  facet normal -0.445336 0 0.895363
    outer loop
      vertex 115.695 457.5 130.88
      vertex 105.007 463.85 125.564
      vertex 105.007 457.5 125.564
    endloop
  endfacet
  facet normal -0.412816 0 0.910815
    outer loop
      vertex 115.695 463.85 130.88
      vertex 126.751 457.5 135.891
      vertex 126.751 463.85 135.891
    endloop
  endfacet
  facet normal -0.412816 0 0.910815
    outer loop
      vertex 126.751 457.5 135.891
      vertex 115.695 463.85 130.88
      vertex 115.695 457.5 130.88
    endloop
  endfacet
  facet normal -0.376596 0 0.926378
    outer loop
      vertex 126.751 463.85 135.891
      vertex 138.123 457.5 140.514
      vertex 138.123 463.85 140.514
    endloop
  endfacet
  facet normal -0.376596 0 0.926378
    outer loop
      vertex 138.123 457.5 140.514
      vertex 126.751 463.85 135.891
      vertex 126.751 457.5 135.891
    endloop
  endfacet
  facet normal -0.336285 0 0.94176
    outer loop
      vertex 138.123 463.85 140.514
      vertex 149.759 457.5 144.669
      vertex 149.759 463.85 144.669
    endloop
  endfacet
  facet normal -0.336285 0 0.94176
    outer loop
      vertex 149.759 457.5 144.669
      vertex 138.123 463.85 140.514
      vertex 138.123 457.5 140.514
    endloop
  endfacet
  facet normal -0.29111 0 0.95669
    outer loop
      vertex 149.759 463.85 144.669
      vertex 161.603 457.5 148.273
      vertex 161.603 463.85 148.273
    endloop
  endfacet
  facet normal -0.29111 0 0.95669
    outer loop
      vertex 161.603 457.5 148.273
      vertex 149.759 463.85 144.669
      vertex 149.759 457.5 144.669
    endloop
  endfacet
  facet normal -0.240384 0 0.970678
    outer loop
      vertex 161.603 463.85 148.273
      vertex 173.604 457.5 151.245
      vertex 173.604 463.85 151.245
    endloop
  endfacet
  facet normal -0.240384 0 0.970678
    outer loop
      vertex 173.604 457.5 151.245
      vertex 161.603 463.85 148.273
      vertex 161.603 457.5 148.273
    endloop
  endfacet
  facet normal -0.183386 0 0.983041
    outer loop
      vertex 173.604 463.85 151.245
      vertex 185.708 457.5 153.503
      vertex 185.708 463.85 153.503
    endloop
  endfacet
  facet normal -0.183386 0 0.983041
    outer loop
      vertex 185.708 457.5 153.503
      vertex 173.604 463.85 151.245
      vertex 173.604 457.5 151.245
    endloop
  endfacet
  facet normal -0.119438 0 0.992842
    outer loop
      vertex 185.708 463.85 153.503
      vertex 197.861 457.5 154.965
      vertex 197.861 463.85 154.965
    endloop
  endfacet
  facet normal -0.119438 0 0.992842
    outer loop
      vertex 197.861 457.5 154.965
      vertex 185.708 463.85 153.503
      vertex 185.708 457.5 153.503
    endloop
  endfacet
  facet normal -0.0473363 0 0.998879
    outer loop
      vertex 197.861 463.85 154.965
      vertex 209.889 457.5 155.535
      vertex 209.889 463.85 155.535
    endloop
  endfacet
  facet normal -0.0473363 0 0.998879
    outer loop
      vertex 209.889 457.5 155.535
      vertex 197.861 463.85 154.965
      vertex 197.861 457.5 154.965
    endloop
  endfacet
  facet normal 0.0268748 0 0.999639
    outer loop
      vertex 209.889 463.85 155.535
      vertex 221.643 457.5 155.219
      vertex 221.643 463.85 155.219
    endloop
  endfacet
  facet normal 0.0268748 0 0.999639
    outer loop
      vertex 221.643 457.5 155.219
      vertex 209.889 463.85 155.535
      vertex 209.889 457.5 155.535
    endloop
  endfacet
  facet normal -1 0 0
    outer loop
      vertex 207 457.5 101.314
      vertex 207 463.85 123.172
      vertex 207 463.85 101.314
    endloop
  endfacet
  facet normal -1 -0 0
    outer loop
      vertex 207 463.85 123.172
      vertex 207 457.5 101.314
      vertex 207 461.36 123.973
    endloop
  endfacet
  facet normal -1 -0 0
    outer loop
      vertex 207 461.36 123.973
      vertex 207 457.5 101.314
      vertex 207 457.5 124.962
    endloop
  endfacet
  facet normal 1 0 0
    outer loop
      vertex 200.65 457.5 101.432
      vertex 200.65 463.85 123.172
      vertex 200.65 461.36 123.973
    endloop
  endfacet
  facet normal 1 0 0
    outer loop
      vertex 200.65 457.5 101.432
      vertex 200.65 461.36 123.973
      vertex 200.65 457.5 124.962
    endloop
  endfacet
  facet normal 1 0 0
    outer loop
      vertex 200.65 463.85 123.172
      vertex 200.65 457.5 101.432
      vertex 200.65 463.85 101.432
    endloop
  endfacet
  facet normal 0 -0.2482 -0.968709
    outer loop
      vertex 200.65 457.5 124.962
      vertex 207 461.36 123.973
      vertex 207 457.5 124.962
    endloop
  endfacet
  facet normal -0 -0.2482 -0.968709
    outer loop
      vertex 207 461.36 123.973
      vertex 200.65 457.5 124.962
      vertex 200.65 461.36 123.973
    endloop
  endfacet
  facet normal 0 -0.306232 -0.951957
    outer loop
      vertex 200.65 461.36 123.973
      vertex 207 463.85 123.172
      vertex 207 461.36 123.973
    endloop
  endfacet
  facet normal -0 -0.306232 -0.951957
    outer loop
      vertex 207 463.85 123.172
      vertex 200.65 461.36 123.973
      vertex 200.65 463.85 123.172
    endloop
  endfacet
endsolid OpenSCAD_Model
