<?xml version="1.0" encoding="utf-8"?>
<!-- Generator: Adobe Illustrator 24.0.1, SVG Export Plug-In . SVG Version: 6.00 Build 0)  -->
<svg version="1.1" id="main" xmlns="http://www.w3.org/2000/svg" xmlns:xlink="http://www.w3.org/1999/xlink" x="0px" y="0px"
	 viewBox="0 0 277.4 130.6" style="enable-background:new 0 0 277.4 130.6;" xml:space="preserve">
<style type="text/css">
	.st0{fill:none;stroke:#000000;stroke-width:7.400000e-02;stroke-miterlimit:10;}
</style>
<g id="frame" transform="translate(2380.0, 1079.0) scale(1, -1)">
	<path id="SVG_Exporter" class="st0" d="M-2178,1045.5c-3.5,2.8-7,5.5-10.4,8.3c-3.6,2.4-7.2,4.7-10.7,7.1c-3.6,2-7.3,3.9-10.9,5.9
		c-3.7,1.6-7.3,3.1-11,4.7c-3.7,1-7.4,2.1-11.1,3.1c-3.8,0.7-7.5,1.3-11.3,2c-3.9,0.8-7.8,1.6-11.7,2.4c-3.7-1.3-7.4-2.6-11-4
		c-3.6-2.7-7.2-5.4-10.8-8.1c-4.5-0.6-8.9-1.3-13.4-1.9c-0.1,0-0.1,0-0.2,0c-3.7-2.2-7.4-4.5-11.1-6.7c-3.1-3.4-6.2-6.8-9.3-10.2
		c-4-2.4-8-4.8-12-7.2c-3.5-3.9-6.9-7.8-10.4-11.7c-1.7-2.7-3.3-5.3-5-8c-1.3-2-2.5-3.9-3.8-5.9c-3.7-2.9-7.4-5.7-11.1-8.6
		c-0.1-0.1-0.3-0.2-0.4-0.3c-2.9-2.7-5.8-5.3-8.7-8c-0.7-2.8-1.4-5.5-2.1-8.3c-0.1-0.3-0.2-0.6-0.2-0.9c-0.5-0.6-1.1-1.2-1.6-1.8
		c-1.1-1.2-2.1-2.4-3.2-3.6c-1.4-1.7-2.9-3.4-4.3-5.2c-1.4-1.7-2.8-3.4-4.2-5.2c-0.4-2.3-0.8-4.5-1.3-6.8c-0.2-2.6-0.4-5.2-0.6-7.9
		c-0.1-2.5-0.2-5-0.3-7.5c0-1,0-2-0.1-3c28,0.4,55.9,0.8,83.9,1.3c0.9,5.6,1.7,11.1,2.6,16.7c2.6,4.8,5.1,9.6,7.7,14.5
		c4,3.8,8,7.7,12,11.5c5,2.5,10.1,4.9,15.1,7.4c5.6,0.8,11.2,1.7,16.8,2.5c5.6-0.8,11.2-1.7,16.8-2.5c5-2.5,10.1-4.9,15.1-7.4
		c4-3.8,8-7.6,12-11.5c2.6-4.8,5.1-9.6,7.7-14.5c0.8-5.6,1.7-11.1,2.5-16.7c0.4,0,0.7,0,1.1,0c2,0,3.9-0.1,5.9-0.1
		c26-0.1,52.1-0.1,78.1-0.2c-0.1,1.4-0.3,2.7-0.4,4.1c-0.3,2.2-0.5,4.3-0.8,6.5c-0.5,2.5-1.1,5-1.6,7.5c-0.9,2.4-1.8,4.8-2.6,7.2
		c-0.9,1.2-1.9,2.4-2.8,3.6c-0.6,0.8-1.2,1.5-1.8,2.3c-1.1,2.4-2.2,4.8-3.3,7.2c-2,2-4.1,4-6.1,6c-1.7,2.8-3.4,5.6-5.2,8.4
		c-2.6,2.5-5.3,5.1-7.9,7.6c-0.1,0.1-0.3,0.3-0.4,0.4c-2.8,3.2-5.5,6.5-8.3,9.7c-3.6,2.7-7.3,5.5-10.9,8.2c-0.2,0.2-0.5,0.3-0.7,0.5
		c-4,2.6-8.1,5.2-12.1,7.8c-3,2.6-6,5.1-8.9,7.7C-2177,1044.6-2177.5,1045.1-2178,1045.5"/>
</g>
</svg>
