<?xml version="1.0" encoding="utf-8"?>
<!-- Generator: Adobe Illustrator 24.0.1, SVG Export Plug-In . SVG Version: 6.00 Build 0)  -->
<svg version="1.1" id="main" xmlns="http://www.w3.org/2000/svg" xmlns:xlink="http://www.w3.org/1999/xlink" x="0px" y="0px"
	 viewBox="0 0 134.4 76.1" style="enable-background:new 0 0 134.4 76.1;" xml:space="preserve">
<style type="text/css">
	.st0{fill:none;stroke:#000000;stroke-width:7.400000e-02;stroke-miterlimit:10;}
</style>
<g id="frame" transform="translate(2401.0, 1079.0) scale(1, -1)">
	<path id="SVG_Exporter" class="st0" d="M-2317.8,1062.1c-1.4,0.8-2.7,1.6-4.1,2.4c-0.1,0.1-0.3,0.2-0.4,0.4
		c-1.1,0.9-2.1,1.9-3.2,2.8c-1.3,1.2-2.6,2.5-3.9,3.7c-1.4,1.2-2.9,2.5-4.3,3.7c-1.6,0.9-3.3,1.8-4.9,2.7c0,0,0,0,0,0
		c-1.7,0.4-3.5,0.8-5.2,1.2c-1.7-0.1-3.4-0.1-5.2-0.2c-0.1,0-0.1,0-0.2,0c-1.6-0.4-3.2-0.8-4.7-1.1c-1.5-0.7-3-1.3-4.5-2
		c-1.4-0.9-2.7-1.8-4.1-2.6c-1.2-1.1-2.4-2.1-3.6-3.2c-1-1.2-2-2.5-3-3.7c-0.5-0.7-0.9-1.4-1.4-2.1c-0.4-0.6-0.8-1.2-1.2-1.9
		c-1-1.2-2-2.4-3-3.6c-1.3-1.1-2.5-2.1-3.8-3.2c-1.4-1.1-2.8-2.1-4.3-3.2c-1.4-1.2-2.7-2.5-4.1-3.7c-0.7-0.8-1.3-1.6-2-2.4
		c-0.5-0.6-1.1-1.3-1.6-1.9c-0.9-1.7-1.9-3.4-2.8-5.1c-0.9-1.8-1.7-3.7-2.6-5.5c-0.7-1.7-1.4-3.4-2.1-5.2c-0.4-1.9-0.8-3.9-1.3-5.8
		c-0.4-2.7-0.8-5.5-1.2-8.2c-0.1-3-0.3-6.1-0.4-9.1c0-0.7,0.1-1.4,0.1-2.1c44.7,0,89.5,0,134.2,0c0,0.7,0,1.4,0,2.1
		c-0.6,3-1.1,5.9-1.7,8.9c-1,2.8-2,5.6-2.9,8.3c-0.4,2.4-0.8,4.9-1.2,7.3c-0.6,2.3-1.3,4.6-1.9,6.9c-1,2.1-2,4.3-3,6.4
		c-1.4,1.8-2.8,3.6-4.2,5.4c-2.1,1.1-4.2,2.3-6.3,3.4c-0.6,0.3-1.2,0.6-1.9,0.8c-1.5,0.8-3.1,1.5-4.6,2.3c-1.9,1.2-3.8,2.4-5.8,3.6
		c-1.7,1.1-3.3,2.2-5,3.3c-2.2,0.1-4.4,0.2-6.7,0.3c-0.5,0-0.9,0-1.4,0C-2314.7,1062-2316.2,1062-2317.8,1062.1"/>
</g>
</svg>
