<?xml version="1.0" encoding="utf-8"?>
<!-- Generator: Adobe Illustrator 24.0.1, SVG Export Plug-In . SVG Version: 6.00 Build 0)  -->
<svg version="1.1" id="main" xmlns="http://www.w3.org/2000/svg" xmlns:xlink="http://www.w3.org/1999/xlink" x="0px" y="0px"
	 viewBox="0 0 193.4 96.6" style="enable-background:new 0 0 193.4 96.6;" xml:space="preserve">
<style type="text/css">
	.st0{fill:none;stroke:#000000;stroke-width:7.400000e-02;stroke-miterlimit:10;}
</style>
<g id="frame" transform="translate(2401.0, 1079.0) scale(1, -1)">
	<path id="SVG_Exporter" class="st0" d="M-2400,986.5c0-1.3,0-2.7,0-4c16.4,0.4,32.8,0.8,49.2,1.3c0.6,4.5,1.3,9,1.9,13.5
		c2.1,3.8,4.2,7.7,6.2,11.5c3.3,2.8,6.7,5.6,10,8.4c3.9,2.2,7.9,4.3,11.8,6.5c4.4,0.8,8.9,1.6,13.3,2.4c4.5-0.7,9-1.4,13.5-2
		c3.9-2.2,7.7-4.4,11.6-6.7c2.9-3.3,5.9-6.6,8.8-9.9c2.4-3.5,4.8-6.9,7.3-10.4c0.7-4.4,1.5-8.8,2.2-13.2c18.8-0.4,37.7-0.8,56.5-1.3
		c0,1,0,1.9,0,2.9c-0.7,3.2-1.4,6.4-2.1,9.6c-0.7,2-1.4,4-2.1,6c-0.3,0.7-0.5,1.4-0.8,2.2c-0.6,2.6-1.1,5.1-1.7,7.7
		c-0.4,1.5-0.8,3-1.3,4.5c-0.3,1.1-0.6,2.1-0.9,3.2c-0.8,2.5-1.6,5.1-2.3,7.6c-1.1,2.4-2.2,4.8-3.3,7.1c-1.3,2.3-2.6,4.7-3.9,7
		c-1.8,2-3.7,4-5.5,6c-2.1,1.8-4.1,3.6-6.2,5.4c-2.1,1.9-4.1,3.8-6.2,5.6c-2.5,1-4.9,1.9-7.4,2.9c-2.4,1.1-4.8,2.2-7.1,3.4
		c-2.5,1.2-5,2.3-7.5,3.5c-2.6,1.4-5.1,2.8-7.7,4.2c-2.7,1.7-5.3,3.4-8,5.1c-3,0.7-6.1,1.5-9.1,2.2c-3,0.1-6,0.3-9,0.4
		c-1.9-0.2-3.9-0.3-5.8-0.5c-0.9-0.1-1.9-0.2-2.8-0.3c-2.8-0.5-5.5-1.1-8.3-1.6c-2.7-0.7-5.3-1.5-8-2.2c-2.5-0.9-5.1-1.9-7.6-2.8
		c-2.4-1.1-4.9-2.2-7.3-3.3c-2.3-1.2-4.6-2.5-7-3.7c-2.5-0.9-5-1.7-7.5-2.6c-2.5-0.8-5-1.6-7.5-2.4c-1.5-1.2-3-2.5-4.6-3.7
		c-0.4-0.4-0.9-0.7-1.3-1.1c-1.7-2.1-3.3-4.1-5-6.2c-2.2-1.7-4.5-3.3-6.7-5c-1.2-0.9-2.5-1.9-3.7-2.8c-1.3-0.9-2.5-1.8-3.8-2.7
		c-2.1-1.9-4.2-3.9-6.2-5.8c-1.5-2.2-3-4.4-4.5-6.6c-0.8-2.5-1.7-5.1-2.5-7.6c-0.3-2.3-0.7-4.5-1-6.8c0.4-2.2,0.8-4.5,1.2-6.7
		c0-2.9,0-5.8,0-8.6C-2399.8,992.7-2399.9,989.6-2400,986.5"/>
</g>
</svg>
