<?xml version="1.0" encoding="utf-8"?>
<!-- Generator: Adobe Illustrator 24.0.1, SVG Export Plug-In . SVG Version: 6.00 Build 0)  -->
<svg version="1.1" id="main" xmlns="http://www.w3.org/2000/svg" xmlns:xlink="http://www.w3.org/1999/xlink" x="0px" y="0px"
	 viewBox="0 0 99.2 43.1" style="enable-background:new 0 0 99.2 43.1;" xml:space="preserve">
<style type="text/css">
	.st0{fill:none;stroke:#000000;stroke-width:7.400000e-02;stroke-miterlimit:10;}
</style>
<g id="frame" transform="translate(2109.0, 1079.0) scale(1, -1)">
	<path id="SVG_Exporter" class="st0" d="M-2109,1037.6c0.2,3.4,0.3,6.8,0.5,10.2c0.2,1.8,0.4,3.6,0.6,5.4c0.2,1.3,0.3,2.6,0.5,3.8
		c0.6,2.1,1.2,4.2,1.8,6.3c1.1,1.3,2.2,2.7,3.3,4c0.3,0.3,0.6,0.7,0.9,1c1.5,1,2.9,1.9,4.4,2.9c1.6,1,3.3,2.1,4.9,3.1c0,0,0,0,0,0
		c1.5,0.8,3.1,1.6,4.6,2.3c1.5,0.5,2.9,1,4.4,1.5c1.4,0.2,2.8,0.5,4.2,0.7c1.4,0,2.8,0,4.2,0c1.4-0.1,2.8-0.3,4.3-0.4
		c1.5-0.3,2.9-0.6,4.4-0.8c1.5-0.3,3.1-0.6,4.6-1c1.6-0.3,3.2-0.6,4.9-0.9c1.7-0.2,3.5-0.4,5.2-0.6c1.8-0.1,3.7-0.1,5.5-0.2
		c0.9,0.1,1.7,0.1,2.6,0.2c1.1,0,2.2,0,3.2,0.1c2.1,0.2,4.2,0.5,6.3,0.7c2.2,0.1,4.3,0.3,6.5,0.4c2.1-0.4,4.2-0.7,6.3-1.1
		c0.5-0.2,0.9-0.4,1.4-0.6c1.7-1.5,3.3-3,5-4.4c0.3-0.5,0.6-1,1-1.5c0.8-2.6,1.6-5.2,2.4-7.8c0.5-3.7,0.9-7.3,1.4-11
		c0-3.9,0.1-7.8,0.1-11.7c-0.1-0.8-0.1-1.5-0.2-2.3c-33,0-66,0-99,0C-2109,1036.5-2109,1037.1-2109,1037.6"/>
</g>
</svg>
