<?xml version="1.0" encoding="utf-8"?>
<!-- Generator: Adobe Illustrator 24.0.1, SVG Export Plug-In . SVG Version: 6.00 Build 0)  -->
<svg version="1.1" id="main" xmlns="http://www.w3.org/2000/svg" xmlns:xlink="http://www.w3.org/1999/xlink" x="0px" y="0px"
	 viewBox="0 0 278.5 127.6" style="enable-background:new 0 0 278.5 127.6;" xml:space="preserve">
<style type="text/css">
	.st0{fill:none;stroke:#000000;stroke-width:7.400000e-02;stroke-miterlimit:10;}
</style>
<g id="frame" transform="translate(2401.0, 1079.0) scale(1, -1)">
	<path id="SVG_Exporter" class="st0" d="M-2384.5,1001.6c2.9,2.4,5.8,4.8,8.6,7.2c3.4,2.8,6.7,5.7,10.1,8.5c2.2,3.3,4.4,6.5,6.6,9.8
		c0.6,0.9,1.3,1.9,1.9,2.8c3.2,3.7,6.4,7.3,9.6,11c3.7,1.7,7.3,3.3,11,5c0.5,0.3,1.1,0.5,1.6,0.8c3.6,3,7.1,6.1,10.7,9.1
		c3.4,3.2,6.8,6.4,10.2,9.6c2.2,0.8,4.5,1.5,6.7,2.3c2.3,0.7,4.6,1.3,7,2c3.9,2.7,7.9,5.4,11.8,8.1c4.1,0.4,8.2,0.7,12.3,1.1
		c4.2-1.1,8.5-2.3,12.7-3.4c4.1-0.5,8.1-1,12.2-1.5c0.6-0.2,1.3-0.3,1.9-0.5c3.4-0.9,6.8-1.7,10.2-2.6c4-1.4,8.1-2.8,12.1-4.1
		c4-1.9,8-3.8,11.9-5.7c2.3-1.4,4.6-2.8,6.9-4.3c1.5-1,3.1-1.9,4.6-2.9c3.7-2.7,7.5-5.3,11.2-8c3.7-2.8,7.4-5.7,11.2-8.5
		c0.8-0.8,1.6-1.6,2.5-2.4c2.6-2.5,5.2-5.1,7.8-7.6c2.8-2.9,5.5-5.9,8.3-8.8c2.7-2.2,5.5-4.3,8.2-6.5c2.5-2.7,4.9-5.4,7.4-8.1
		c1.5-3.4,3-6.9,4.5-10.3c2-1.6,3.9-3.3,5.9-4.9c1.3-2.2,2.6-4.3,3.9-6.5c1.6-1.8,3.1-3.7,4.7-5.5c0-0.1,0.1-0.2,0.1-0.3
		c0.9-2.3,1.8-4.7,2.7-7c0.6-2.5,1.3-5.1,1.9-7.6c0.3-2.1,0.6-4.2,0.9-6.3c-12-0.5-23.9-0.9-35.9-1.4c-0.3,4.4-0.7,8.8-1,13.2
		c-1.3,7.2-2.5,14.4-3.8,21.7c-2.1,5-4.2,10-6.2,15.1c-2.8,4.6-5.7,9.3-8.5,13.9c-3.5,4.1-7.1,8.3-10.6,12.4
		c-4.1,3.5-8.3,7.1-12.4,10.6c-4.6,2.8-9.3,5.7-13.9,8.5c-5,2.1-10,4.2-15.1,6.2c-5.3,1.3-10.6,2.5-15.8,3.8
		c-5.4,0.4-10.8,0.9-16.2,1.3c-5.4-0.4-10.8-0.9-16.2-1.3c-5.3-1.3-10.6-2.5-15.8-3.8c-5-2.1-10-4.2-15.1-6.2
		c-4.6-2.8-9.3-5.7-13.9-8.5c-4.1-3.5-8.3-7.1-12.4-10.6c-3.5-4.1-7.1-8.3-10.6-12.4c-2.8-4.6-5.7-9.3-8.5-13.9
		c-2.1-5-4.2-10-6.2-15.1c-1.3-7.2-2.5-14.4-3.8-21.7c-0.4-5.2-0.8-10.4-1.2-15.6c-11.7-0.2-23.4-0.4-35.2-0.6c0,1,0,2,0,3
		c0.1,2.5,0.1,5,0.2,7.5c0.2,2.6,0.4,5.2,0.5,7.7c0.4,2.2,0.7,4.3,1.1,6.5c1.2,1.7,2.4,3.3,3.6,5c1.4,1.7,2.7,3.4,4.1,5.1
		c1.6,1.9,3.1,3.7,4.7,5.6C-2386,995.1-2385.2,998.3-2384.5,1001.6"/>
</g>
</svg>
