<?xml version="1.0" encoding="utf-8"?>
<!-- Generator: Adobe Illustrator 24.0.1, SVG Export Plug-In . SVG Version: 6.00 Build 0)  -->
<svg version="1.1" id="main" xmlns="http://www.w3.org/2000/svg" xmlns:xlink="http://www.w3.org/1999/xlink" x="0px" y="0px"
	 viewBox="0 0 236 118.3" style="enable-background:new 0 0 236 118.3;" xml:space="preserve">
<style type="text/css">
	.st0{fill:none;stroke:#000000;stroke-width:7.400000e-02;stroke-miterlimit:10;}
</style>
<g id="frame" transform="translate(2401.0, 1079.0) scale(1, -1)">
	<path id="SVG_Exporter" class="st0" d="M-2393.7,994.8c-1.1-1.9-2.2-3.9-3.4-5.8c-0.7-2-1.4-3.9-2.1-5.9c-0.5-2.8-1-5.7-1.4-8.5
		c-0.1-3.1-0.3-6.2-0.4-9.3c0.1-1.5,0.1-3,0.2-4.5c17.6,0.4,35.2,0.8,52.8,1.3c1,7.1,2,14.3,3,21.4c3.3,6.3,6.7,12.5,10,18.8
		c5.2,5,10.4,9.9,15.6,14.9c6.5,3.2,13.1,6.4,19.6,9.6c7.3,1.1,14.5,2.2,21.8,3.3c7.2-1.1,14.5-2.2,21.7-3.4
		c6.4-3.5,12.8-7.1,19.2-10.6c5.3-4.6,10.7-9.2,16-13.7c3.3-6.2,6.7-12.5,10-18.7c0.9-7.1,1.9-14.3,2.8-21.4
		c14.4-0.4,28.8-0.9,43.3-1.3c0,2,0,4,0,5.9c-0.5,3.2-0.9,6.5-1.4,9.7c-0.5,2.7-1,5.4-1.5,8.1c-0.3,2.5-0.6,5-0.9,7.5
		c-0.4,2.7-0.8,5.4-1.2,8.1c0,0.2-0.1,0.3-0.1,0.5c-0.7,2.5-1.5,5-2.2,7.6c-1.6,2.3-3.2,4.5-4.8,6.8c-1.7,2.2-3.4,4.4-5,6.7
		c-2.1,2.1-4.2,4.2-6.3,6.3c-2.7,2.2-5.4,4.4-8.1,6.6c-2.8,2.2-5.5,4.3-8.3,6.5c-2.8,2.2-5.6,4.4-8.4,6.6c-2.8,2.3-5.6,4.5-8.4,6.8
		c-2.8,2.4-5.6,4.8-8.5,7.2c-2.8,2.7-5.7,5.3-8.5,8c-3.1,2.4-6.2,4.9-9.4,7.3c-3.7,0.7-7.3,1.5-11,2.2c-3.7-0.4-7.3-0.7-11-1.1
		c-3.5-0.7-7.1-1.5-10.6-2.2c-0.8-0.2-1.7-0.5-2.5-0.7c-2.6-0.7-5.2-1.5-7.8-2.2c-3.4-0.9-6.9-1.8-10.3-2.7c-3.5-0.7-7-1.4-10.5-2.1
		c-3.1-1.7-6.1-3.4-9.2-5.1c-2.7-2.4-5.4-4.9-8.1-7.3c-2.8-2-5.7-4-8.5-6c-2.9-1.8-5.8-3.6-8.6-5.4c-3.3-1.1-6.5-2.1-9.8-3.2
		c-2.6-2.1-5.1-4.2-7.7-6.2c-2.3-2.5-4.6-5.1-6.9-7.6c-3.5-1.6-7-3.1-10.4-4.7c-2.6-1.8-5.2-3.6-7.8-5.4c-0.9-3.8-1.8-7.5-2.7-11.3
		C-2392.1,1002-2392.9,998.4-2393.7,994.8"/>
</g>
</svg>
