<?xml version="1.0" encoding="utf-8"?>
<!-- Generator: Adobe Illustrator 24.0.1, SVG Export Plug-In . SVG Version: 6.00 Build 0)  -->
<svg version="1.1" id="main" xmlns="http://www.w3.org/2000/svg" xmlns:xlink="http://www.w3.org/1999/xlink" x="0px" y="0px"
	 viewBox="0 0 44.7 28.8" style="enable-background:new 0 0 44.7 28.8;" xml:space="preserve">
<style type="text/css">
	.st0{fill:none;stroke:#000000;stroke-width:7.400000e-02;stroke-miterlimit:10;}
</style>
<g id="frame" transform="translate(2401.0, 1079.0) scale(1, -1)">
	<path id="SVG_Exporter" class="st0" d="M-2394.5,1068.5c-1.2-2.8-2.4-5.6-3.7-8.4c-0.2-0.8-0.5-1.7-0.7-2.5
		c-0.7-2.4-1.4-4.9-2.1-7.3c14.9,0,29.8,0,44.6,0c0,0.7,0,1.3,0,2c-0.1,0.5-0.1,0.9-0.2,1.4c-0.3,2.4-0.6,4.8-0.9,7.2
		c-0.7,2.6-1.4,5.2-2,7.8c-0.1,0.2-0.2,0.5-0.3,0.7c-0.9,1.7-1.8,3.4-2.7,5.1c-0.1,0.1-0.2,0.1-0.2,0.2c-1,0.5-1.9,1.1-2.9,1.6
		c-0.9,0.4-1.8,0.8-2.7,1.3c-0.9,0.3-1.7,0.6-2.6,0.9c-0.4,0.1-0.8,0.2-1.2,0.3c-0.4,0.1-0.9,0.1-1.3,0.2c-0.8,0-1.7,0.1-2.5,0.1
		c-0.8,0-1.7,0-2.5,0c-0.8-0.1-1.7-0.1-2.5-0.2c-0.5-0.1-1-0.2-1.5-0.3c-0.3-0.1-0.7-0.2-1-0.3c-0.9-0.3-1.7-0.7-2.6-1
		c-0.9-0.5-1.8-1-2.7-1.4c-0.7-0.5-1.4-1-2.1-1.5c-0.2-0.3-0.4-0.5-0.6-0.8c-1-1.6-1.9-3.2-2.9-4.7
		C-2394.4,1068.7-2394.4,1068.6-2394.5,1068.5"/>
</g>
</svg>
