<?xml version="1.0" encoding="utf-8"?>
<!-- Generator: Adobe Illustrator 24.0.1, SVG Export Plug-In . SVG Version: 6.00 Build 0)  -->
<svg version="1.1" id="main" xmlns="http://www.w3.org/2000/svg" xmlns:xlink="http://www.w3.org/1999/xlink" x="0px" y="0px"
	 viewBox="0 0 149.7 84.5" style="enable-background:new 0 0 149.7 84.5;" xml:space="preserve">
<style type="text/css">
	.st0{fill:none;stroke:#000000;stroke-width:7.400000e-02;stroke-miterlimit:10;}
</style>
<g id="frame" transform="translate(2401.0, 1079.0) scale(1, -1)">
	<path id="SVG_Exporter" class="st0" d="M-2386.4,1043.9c-1.4-1.6-2.9-3.2-4.3-4.8c-1-1.9-2.1-3.9-3.1-5.8c-0.7-2.2-1.4-4.4-2.1-6.6
		c-0.5-2.1-1.1-4.3-1.6-6.4c-0.5-1.9-1.1-3.9-1.6-5.8c-0.5-2.8-0.9-5.5-1.4-8.3c-0.1-3-0.3-6.1-0.4-9.1c0-0.8,0.1-1.7,0.1-2.5
		c49.8,0,99.7,0,149.5,0c0,0.7,0,1.4-0.1,2.1c-0.4,2.9-0.9,5.8-1.3,8.7c-0.8,2.7-1.5,5.4-2.3,8.1c0,2.4,0.1,4.8,0.1,7.2
		c0,0,0,0,0,0.1c-0.2,2.3-0.4,4.7-0.6,7c-0.6,2.3-1.1,4.6-1.7,6.9c-0.8,2.2-1.5,4.4-2.3,6.6c-1.2,2-2.4,4.1-3.5,6.1
		c-1.5,1.8-3,3.6-4.5,5.3c-2.3,0.9-4.5,1.8-6.8,2.7c-1.7,0.5-3.3,1.1-5,1.6c-0.6,0.2-1.3,0.4-1.9,0.6c-2.1,0.9-4.1,1.8-6.2,2.7
		c-1.9,1-3.9,1.9-5.8,2.9c-2.2,0.7-4.3,1.3-6.5,2c-1.8,1.4-3.5,2.8-5.3,4.2c-1.8,1.5-3.6,2.9-5.3,4.4c-1.6,0.8-3.2,1.5-4.8,2.3
		c-0.5,0.2-1,0.4-1.5,0.6c-2.3,0.6-4.5,1.2-6.8,1.8c-2.3,0.1-4.5,0.2-6.8,0.4c-2.2-0.4-4.4-0.7-6.5-1.1c-1.5-0.5-3-0.9-4.5-1.4
		c-0.6-0.2-1.1-0.4-1.7-0.5c-1.9-0.9-3.8-1.7-5.7-2.6c-1.8-1-3.5-2.1-5.3-3.1c-1.6-1.2-3.2-2.4-4.8-3.7c-1.4-1.4-2.8-2.8-4.2-4.3
		c-0.9-1.2-1.8-2.4-2.6-3.6c-0.3-0.4-0.6-0.8-0.9-1.2c-1.3-1.4-2.5-2.8-3.8-4.2c-1.8-1-3.5-1.9-5.3-2.9c-0.7-0.4-1.5-0.7-2.2-1.1
		c-1.2-0.6-2.4-1.2-3.5-1.8C-2383,1046.4-2384.7,1045.1-2386.4,1043.9"/>
</g>
</svg>
