<?xml version="1.0" encoding="utf-8"?>
<!-- Generator: Adobe Illustrator 24.0.1, SVG Export Plug-In . SVG Version: 6.00 Build 0)  -->
<svg version="1.1" id="main" xmlns="http://www.w3.org/2000/svg" xmlns:xlink="http://www.w3.org/1999/xlink" x="0px" y="0px"
	 viewBox="0 0 248.9 131.1" style="enable-background:new 0 0 248.9 131.1;" xml:space="preserve">
<style type="text/css">
	.st0{fill:none;stroke:#000000;stroke-width:7.400000e-02;stroke-miterlimit:10;}
</style>
<g id="frame" transform="translate(2287.0, 1079.0) scale(1, -1)">
	<path id="SVG_Exporter" class="st0" d="M-2286.9,947.9c31.9,0.4,63.7,0.8,95.6,1.3c0.4,2.9,0.9,5.8,1.3,8.8
		c1.3,2.4,2.6,4.9,3.9,7.3c2,1.9,4,3.9,6,5.8c2.5,1.2,5.1,2.5,7.6,3.7c2.8,0.4,5.6,0.9,8.4,1.3c2.8-0.4,5.6-0.9,8.4-1.3
		c2.5-1.2,5.1-2.5,7.6-3.7c2-1.9,4-3.9,6-5.8c1.3-2.4,2.6-4.9,3.9-7.3c0.4-2.9,0.9-5.8,1.3-8.8c22.4-0.3,44.8-0.6,67.3-0.9
		c2.7,0,5.4-0.1,8.1-0.1c7.7-0.1,15.5-0.2,23.2-0.3c-0.8,3.2-1.6,6.4-2.3,9.6c-0.7,1.6-1.3,3.2-2,4.7c-0.7,1.6-1.5,3.2-2.2,4.8
		c-1.5,2.3-3,4.6-4.5,6.9c-0.6,1.2-1.2,2.5-1.8,3.7c-0.5,1.2-1.1,2.4-1.6,3.7c-0.6,3.1-1.3,6.2-1.9,9.3c-1.4,3.5-2.8,6.9-4.2,10.4
		c-1.2,1-2.5,2-3.7,3c-2.6,1.5-5.3,3.1-7.9,4.6c-0.3,0.2-0.6,0.5-0.9,0.7c-2.5,3.1-5,6.3-7.4,9.4c-2.7,3.1-5.4,6.2-8,9.3
		c-2.7,2.9-5.5,5.7-8.2,8.6c-2.8,2.5-5.6,5.1-8.4,7.6c-2.9,2.1-5.7,4.3-8.6,6.4c-2.9,1.9-5.7,3.8-8.6,5.7c-2.9,1.7-5.8,3.3-8.8,5
		c-3,1.4-6,2.9-9,4.3c-3.1,1.2-6.2,2.3-9.3,3.5c-3.2,0.9-6.4,1.7-9.5,2.6c-0.1,0.1-0.3,0.1-0.4,0.2c-3.2,1.5-6.4,2.9-9.6,4.4
		c-3.5,0.9-7,1.7-10.5,2.6c-3.5-0.8-7.1-1.6-10.6-2.4c-3-3-6-5.9-9.1-8.9c-0.9-1.1-1.7-2.3-2.6-3.4c-1.8-2.3-3.5-4.6-5.3-6.9
		c-2.9-2.6-5.9-5.1-8.8-7.7c-3.2-1.6-6.4-3.2-9.6-4.7c-3.4-0.9-6.8-1.8-10.2-2.7c-2.9-2.5-5.8-5-8.6-7.6c-2-3.9-4.1-7.8-6.1-11.6
		c-2.4-3.7-4.8-7.4-7.2-11.1c-2.4-3.3-4.9-6.6-7.3-9.8c-0.5-0.7-0.9-1.5-1.4-2.2c-1.6-2.5-3.1-4.9-4.7-7.4c-2.4-2-4.9-4-7.3-6.1
		c-0.8-1.3-1.6-2.5-2.4-3.8c-0.5-0.9-1.1-1.7-1.6-2.6c-1.3-2-2.7-4.1-4-6.1c-0.5-2.4-1.1-4.7-1.6-7.1c-0.2-2.6-0.5-5.1-0.7-7.7
		c0-2.4-0.1-4.9-0.1-7.3C-2286.9,950.5-2286.9,949.2-2286.9,947.9"/>
</g>
</svg>
