<?xml version="1.0" encoding="utf-8"?>
<!-- Generator: Adobe Illustrator 24.0.1, SVG Export Plug-In . SVG Version: 6.00 Build 0)  -->
<svg version="1.1" id="main" xmlns="http://www.w3.org/2000/svg" xmlns:xlink="http://www.w3.org/1999/xlink" x="0px" y="0px"
	 viewBox="0 0 243.6 128.1" style="enable-background:new 0 0 243.6 128.1;" xml:space="preserve">
<style type="text/css">
	.st0{fill:none;stroke:#000000;stroke-width:7.400000e-02;stroke-miterlimit:10;}
</style>
<g id="frame" transform="translate(2401.0, 1079.0) scale(1, -1)">
	<path id="SVG_Exporter" class="st0" d="M-2292,1069.4c-3.7-1.3-7.3-2.6-11-3.9c-3.5-1.5-7.1-2.9-10.6-4.4
		c-3.4-1.7-6.7-3.5-10.1-5.2c-3.1-2-6.2-4-9.3-6c-0.9-0.7-1.9-1.3-2.8-2c-2-1.4-3.9-2.8-5.9-4.2c-2.9-1.7-5.9-3.4-8.8-5.1
		c-2.8-2-5.6-4-8.3-6c-2.9-1.7-5.9-3.5-8.8-5.2c-2.2-2.7-4.4-5.4-6.6-8.1c-2.7-2.5-5.3-4.9-8-7.4c-3-1.6-5.9-3.2-8.9-4.8
		c-1.6-3.4-3.2-6.7-4.8-10.1c-0.9-3.1-1.7-6.3-2.6-9.4c-0.1-2.4-0.3-4.9-0.4-7.3c-0.3-2.1-0.6-4.3-0.9-6.4c-0.3-2.9-0.6-5.7-0.9-8.6
		c0-3.1-0.1-6.3-0.1-9.4c0.1-1.7,0.1-3.4,0.2-5.1c16.2,0.4,32.4,0.8,48.6,1.3c1.1,7.6,2.1,15.3,3.2,22.9c3.6,6.7,7.1,13.4,10.7,20.1
		c5.6,5.3,11.1,10.6,16.7,15.9c7,3.4,14,6.8,21,10.2c7.8,1.2,15.5,2.4,23.3,3.5c7.8-1.2,15.5-2.3,23.3-3.5c7-3.4,14-6.8,21-10.2
		c5.6-5.3,11.1-10.6,16.7-15.9c3.6-6.7,7.1-13.4,10.7-20.1c1-7.6,2-15.3,3-22.9c15.1-0.4,30.1-0.9,45.2-1.3c0,1.3,0,2.5,0,3.8
		c0,0.4,0,0.9,0,1.3c-0.6,3.5-1.2,6.9-1.7,10.4c-0.7,3.1-1.3,6.3-2,9.4c-0.1,1-0.3,2-0.4,3.1c-0.2,1.3-0.4,2.6-0.6,4
		c-0.4,2.4-0.9,4.8-1.3,7.2c-0.7,2.9-1.4,5.8-2,8.7c-1.3,2.6-2.6,5.3-4,7.9c-1.7,2.4-3.4,4.8-5.1,7.1c-2.4,2.6-4.8,5.2-7.2,7.9
		c-2.8,2.6-5.7,5.3-8.5,7.9c-3,2.6-5.9,5.1-8.9,7.7c-3,2.6-6,5.2-9,7.8c-3,2.8-6,5.6-9,8.4c-2.8,3.3-5.5,6.6-8.3,9.9
		c-2.8,3.4-5.7,6.9-8.5,10.3c-3.8,1.7-7.6,3.5-11.4,5.2c-4-0.2-8.1-0.3-12.1-0.5c-3.9-0.8-7.9-1.6-11.8-2.5c-3.8-1-7.7-2.1-11.5-3.1
		C-2284.5,1071.7-2288.3,1070.6-2292,1069.4"/>
</g>
</svg>
