<?xml version="1.0" encoding="utf-8"?>
<!-- Generator: Adobe Illustrator 24.0.1, SVG Export Plug-In . SVG Version: 6.00 Build 0)  -->
<svg version="1.1" id="main" xmlns="http://www.w3.org/2000/svg" xmlns:xlink="http://www.w3.org/1999/xlink" x="0px" y="0px"
	 viewBox="0 0 240.4 124.8" style="enable-background:new 0 0 240.4 124.8;" xml:space="preserve">
<style type="text/css">
	.st0{fill:none;stroke:#000000;stroke-width:7.400000e-02;stroke-miterlimit:10;}
</style>
<g id="frame" transform="translate(2401.0, 1079.0) scale(1, -1)">
	<path id="SVG_Exporter" class="st0" d="M-2400.7,968.4c-0.1-3.1-0.2-6.2-0.3-9.4c0.1-1.6,0.1-3.2,0.2-4.8
		c17.1,0.4,34.2,0.8,51.3,1.3c1,7.4,2.1,14.9,3.1,22.3c3.5,6.5,6.9,13,10.4,19.5c5.4,5.2,10.8,10.3,16.2,15.5
		c6.8,3.3,13.6,6.6,20.5,10c7.6,1.1,15.1,2.3,22.7,3.4c7.6-1.1,15.1-2.3,22.7-3.4c6.8-3.5,13.5-7,20.3-10.4c5.5-5,10.9-10,16.4-15
		c3.5-6.5,6.9-13,10.4-19.5c1-7.4,1.9-14.9,2.9-22.3c14.4-0.4,28.8-0.9,43.2-1.3c0,2,0,3.9,0,5.9c-0.4,3.3-0.9,6.7-1.3,10
		c-0.5,2.9-1.1,5.9-1.6,8.8c-0.3,2.4-0.6,4.7-0.8,7.1c-0.4,2.5-0.8,5.1-1.1,7.6c-0.7,2.8-1.3,5.6-2,8.3c-1.4,2.5-2.7,5-4.1,7.5
		c-1.5,2.4-3.1,4.8-4.6,7.2c-2.2,2.4-4.3,4.8-6.5,7.2c-2.9,2.3-5.8,4.6-8.7,7c-3,2.2-6,4.5-9,6.7c-3,2.3-6,4.6-9,6.9
		c-2.9,2.5-5.8,5.1-8.8,7.6c-2.7,3-5.5,5.9-8.2,8.9c-2.6,3.5-5.2,7.1-7.8,10.6c-3.5,2.3-7,4.6-10.5,6.9c-4,0.1-7.9,0.2-11.9,0.3
		c-3.9-0.7-7.7-1.5-11.6-2.2c-3.7-1-7.5-2-11.2-3c-3.6-1.1-7.2-2.3-10.9-3.4c-3.5-1.3-7-2.5-10.6-3.8c-2.7-1-5.3-2-8-3
		c-0.8-0.3-1.6-0.6-2.4-0.9c-3.2-1.8-6.4-3.5-9.6-5.3c-3-2.1-5.9-4.2-8.9-6.3c-2.9-2.1-5.7-4.2-8.6-6.3c-2.8-2.1-5.6-4.1-8.4-6.2
		c-3.2-1.3-6.3-2.5-9.5-3.8c-2.9-1.7-5.7-3.3-8.6-5c-2.3-2.5-4.5-5-6.8-7.4c-2.9-2-5.8-4-8.7-6c-2.7-1.9-5.3-3.8-8-5.7
		c-0.9-1.5-1.8-2.9-2.7-4.4c-1.1-1.7-2.2-3.4-3.3-5c-0.6-3.8-1.2-7.6-1.8-11.4c-0.6-2.3-1.2-4.6-1.9-6.9c-0.6-2-1.1-4.1-1.7-6.1
		C-2399.9,974.1-2400.3,971.3-2400.7,968.4"/>
</g>
</svg>
