<?xml version="1.0" encoding="utf-8"?>
<!-- Generator: Adobe Illustrator 24.0.1, SVG Export Plug-In . SVG Version: 6.00 Build 0)  -->
<svg version="1.1" id="main" xmlns="http://www.w3.org/2000/svg" xmlns:xlink="http://www.w3.org/1999/xlink" x="0px" y="0px"
	 viewBox="0 0 166.1 89.2" style="enable-background:new 0 0 166.1 89.2;" xml:space="preserve">
<style type="text/css">
	.st0{fill:none;stroke:#000000;stroke-width:7.400000e-02;stroke-miterlimit:10;}
</style>
<g id="frame" transform="translate(2401.0, 1079.0) scale(1, -1)">
	<path id="SVG_Exporter" class="st0" d="M-2400.6,989.9c55.2,0,110.4,0,165.6,0.1c-0.8,3.3-1.5,6.6-2.2,9.9c-1,2.8-2,5.7-2.9,8.5
		c0.5,2.5,0.9,5.1,1.4,7.6c-0.1,2.5-0.3,5-0.4,7.6c0,0.3-0.1,0.7-0.1,1c-0.2,2.2-0.5,4.3-0.7,6.5c-0.9,2.3-1.9,4.5-2.8,6.8
		c-1.3,2.1-2.6,4.3-3.9,6.4c-1.6,1.9-3.1,3.8-4.7,5.7c-1.7,1.8-3.4,3.6-5.1,5.4c-2.1,1.3-4.2,2.7-6.2,4c-0.9,0.1-1.8,0.2-2.7,0.3
		c-1.6,0.1-3.2,0.3-4.8,0.4c-2.3,0.5-4.7,1-7,1.4c-2.3,0.9-4.6,1.8-6.9,2.7c-2.4,1-4.7,2-7.1,3c-2,2-4.1,4-6.1,6
		c-2.4,1.3-4.9,2.6-7.3,3.9c-2.6,0.6-5.1,1.2-7.7,1.9c-2.5,0-5,0-7.6,0c-2.4-0.4-4.8-0.8-7.3-1.2c-2.3-0.7-4.6-1.3-6.9-2
		c-2.2-0.9-4.4-1.8-6.6-2.7c-2.1-1.1-4.1-2.1-6.2-3.2c-1.9-1.3-3.8-2.5-5.7-3.8c-1.2-1-2.4-2-3.7-2.9c-0.5-0.4-1-0.9-1.6-1.3
		c-1.6-1.5-3.2-3-4.8-4.5c-1.5-1.6-3-3.1-4.5-4.7c-2-1-3.9-2.1-5.9-3.1c-2.2-1-4.4-2-6.6-3.1c-1.5-1.1-3.1-2.2-4.6-3.3
		c-0.4-0.3-0.9-0.6-1.3-1c-1.7-1.8-3.4-3.5-5-5.3c-1.3-2.1-2.6-4.3-3.9-6.4c-1-2.3-2.1-4.7-3.1-7c-1.2-2.1-2.3-4.2-3.5-6.3
		c0.3-1.7,0.6-3.4,0.8-5.1c0.1-0.6,0.2-1.2,0.3-1.8c-0.2-2.8-0.4-5.6-0.6-8.5c-0.1-3.1-0.2-6.1-0.3-9.2
		C-2400.7,991.8-2400.7,990.8-2400.6,989.9"/>
</g>
</svg>
