<?xml version="1.0" encoding="utf-8"?>
<!-- Generator: Adobe Illustrator 24.0.1, SVG Export Plug-In . SVG Version: 6.00 Build 0)  -->
<svg version="1.1" id="main" xmlns="http://www.w3.org/2000/svg" xmlns:xlink="http://www.w3.org/1999/xlink" x="0px" y="0px"
	 viewBox="0 0 261.5 129.1" style="enable-background:new 0 0 261.5 129.1;" xml:space="preserve">
<style type="text/css">
	.st0{fill:none;stroke:#000000;stroke-width:7.400000e-02;stroke-miterlimit:10;}
</style>
<g id="frame" transform="translate(2401.0, 1079.0) scale(1, -1)">
	<path id="SVG_Exporter" class="st0" d="M-2285.1,1077.6c-4-1-8.1-2-12.1-3c-3.6-2.4-7.1-4.7-10.7-7.1c-3.3-2.4-6.7-4.9-10-7.3
		c-0.5-0.3-0.9-0.6-1.4-0.9c-2.8-1.9-5.6-3.7-8.3-5.6c-3.1-2.1-6.2-4.1-9.3-6.2c-2.6-2.8-5.1-5.6-7.7-8.3c-2.3-3.1-4.6-6.2-6.9-9.4
		c-2.8-2.5-5.6-5-8.4-7.5c-3.4-1.8-6.7-3.6-10.1-5.4c-2.2-2-4.4-4.1-6.6-6.1c-0.5-0.5-1-0.9-1.5-1.4c-2.5-1.7-5-3.4-7.5-5.1
		c-1.2-4.1-2.5-8.2-3.7-12.3c-2.1-2.7-4.2-5.4-6.3-8.1c-1.1-1.9-2.2-3.7-3.3-5.6c-0.5-1.9-0.9-3.8-1.4-5.8c-0.2-2.8-0.4-5.7-0.6-8.5
		c0.1-3.1,0.2-6.3,0.3-9.4c0.1-1.5,0.2-3,0.3-4.5c19,0.4,38,0.9,57.1,1.3c1.1,7.8,2.3,15.5,3.4,23.3c3.6,6.8,7.3,13.6,10.9,20.4
		c5.6,5.4,11.3,10.8,16.9,16.2c7.1,3.5,14.2,6.9,21.4,10.4c7.9,1.2,15.8,2.4,23.7,3.6c7.9-1.2,15.8-2.4,23.7-3.6
		c7.1-3.5,14.2-6.9,21.4-10.4c5.6-5.4,11.3-10.8,16.9-16.2c3.6-6.8,7.3-13.6,10.9-20.4c1.1-7.8,2.2-15.5,3.3-23.3
		c17.1,0.1,34.3,0.2,51.4,0.3c-0.1,1.6-0.1,3.2-0.2,4.8c-0.2,1.9-0.4,3.7-0.6,5.6c-0.1,0.8-0.2,1.6-0.2,2.4c-0.5,2.8-1,5.5-1.5,8.3
		c-0.4,2.6-0.8,5.2-1.3,7.8c-0.7,2.8-1.3,5.5-2,8.3c-0.9,3.2-1.9,6.3-2.8,9.5c-1.5,3-2.9,6-4.4,9c-1.1,2.1-2.3,4.2-3.4,6.3
		c-0.5,0.9-1,1.9-1.5,2.8c-2,3.1-3.9,6.3-5.9,9.4c-2.9,2.3-5.8,4.6-8.8,6.9c-3.2,2.2-6.4,4.4-9.7,6.6c-0.8,0.5-1.5,1.1-2.3,1.6
		c-2.6,1.9-5.1,3.7-7.7,5.6c-3.4,2.5-6.8,5-10.2,7.5c-3.5,2.4-7,4.8-10.5,7.2c-3.8,1.7-7.6,3.3-11.5,5c-4,1.1-8,2.1-12,3.2
		c-3.9,1.8-7.8,3.7-11.8,5.5c-4.1,1.3-8.1,2.7-12.2,4c-4.2,0-8.4,0.1-12.7,0.1C-2276.7,1078.5-2280.9,1078.1-2285.1,1077.6"/>
</g>
</svg>
