<?xml version="1.0" encoding="utf-8"?>
<!-- Generator: Adobe Illustrator 24.0.1, SVG Export Plug-In . SVG Version: 6.00 Build 0)  -->
<svg version="1.1" id="main" xmlns="http://www.w3.org/2000/svg" xmlns:xlink="http://www.w3.org/1999/xlink" x="0px" y="0px"
	 viewBox="0 0 272.4 127.4" style="enable-background:new 0 0 272.4 127.4;" xml:space="preserve">
<style type="text/css">
	.st0{fill:none;stroke:#000000;stroke-width:7.400000e-02;stroke-miterlimit:10;}
</style>
<g id="frame" transform="translate(2401.0, 1079.0) scale(1, -1)">
	<path id="SVG_Exporter" class="st0" d="M-2170.9,1039.4c-3.5,2.6-7,5.2-10.5,7.8c-3.6,2.5-7.3,5-10.9,7.5
		c-3.8,2.2-7.6,4.4-11.4,6.6c-4,1.8-8,3.5-12,5.3c-0.1,0-0.2,0-0.3,0.1c-4.1,1.1-8.3,2.1-12.4,3.2c-4.2,1.7-8.3,3.3-12.5,5
		c-4.2,1.4-8.3,2.8-12.5,4.1c-4.4-1.1-8.8-2.2-13.3-3.4c-4.5-0.5-8.9-0.9-13.4-1.4c-4.8,1.3-9.7,2.5-14.5,3.8
		c-4.1-1.9-8.2-3.8-12.3-5.7c-3.4-3.5-6.8-6.9-10.1-10.4c-3.4-2.5-6.9-5.1-10.3-7.6c-3.5-2.2-6.9-4.5-10.4-6.7
		c-3.2-2.3-6.4-4.6-9.7-7c-2.8-2.8-5.6-5.6-8.4-8.4c-2.8-2.8-5.5-5.5-8.3-8.3c-3.5-2.2-7-4.3-10.5-6.5c-2.4-3-4.7-5.9-7.1-8.9
		c-1.9-2.8-3.8-5.5-5.8-8.3c-1.3-3.2-2.6-6.4-3.9-9.6c-1.7-2.3-3.3-4.6-5-6.9c-1-1.9-2-3.7-3.1-5.6c-0.4-2-0.8-4.1-1.1-6.1
		c-0.2-2.7-0.3-5.4-0.5-8.2c0-3,0-6-0.1-9c0-1.1,0-2.1,0.1-3.2c21.5,0.4,43.1,0.9,64.6,1.3c1.1,7.2,2.2,14.5,3.3,21.7
		c3.4,6.3,6.8,12.7,10.1,19c5.3,5,10.5,10.1,15.8,15.1c6.6,3.2,13.3,6.5,19.9,9.7c7.4,1.1,14.7,2.2,22.1,3.3
		c7.4-1.1,14.7-2.2,22.1-3.3c6.6-3.2,13.3-6.5,19.9-9.7c5.3-5,10.5-10.1,15.8-15.1c3.4-6.3,6.8-12.7,10.1-19
		c1.1-7.2,2.2-14.5,3.3-21.7c21.7,0.8,43.5,1.7,65.2,2.5c-0.4,2.4-0.8,4.8-1.2,7.3c-0.8,2.8-1.5,5.5-2.3,8.3
		c-0.9,2.6-1.8,5.2-2.7,7.8c-0.5,2.6-1.1,5.2-1.6,7.8c-0.7,2.8-1.5,5.7-2.2,8.5c-1,3.4-2,6.9-3,10.3c-1.5,3.4-2.9,6.8-4.4,10.2
		c-2.4,2.7-4.8,5.3-7.2,8c-1.4,1.4-2.8,2.9-4.1,4.3c-1.1,1.1-2.2,2.3-3.3,3.4C-2164.1,1034.1-2167.5,1036.8-2170.9,1039.4"/>
</g>
</svg>
