<?xml version="1.0" encoding="utf-8"?>
<!-- Generator: Adobe Illustrator 24.0.1, SVG Export Plug-In . SVG Version: 6.00 Build 0)  -->
<svg version="1.1" id="main" xmlns="http://www.w3.org/2000/svg" xmlns:xlink="http://www.w3.org/1999/xlink" x="0px" y="0px"
	 viewBox="0 0 200.9 98.2" style="enable-background:new 0 0 200.9 98.2;" xml:space="preserve">
<style type="text/css">
	.st0{fill:none;stroke:#000000;stroke-width:7.400000e-02;stroke-miterlimit:10;}
</style>
<g id="frame" transform="translate(2401.0, 1079.0) scale(1, -1)">
	<path id="SVG_Exporter" class="st0" d="M-2300.8,1066.9c-4.2-0.3-8.3-0.7-12.5-1c-4.1-1-8.1-1.9-12.2-2.9
		c-3.9-1.6-7.7-3.2-11.6-4.8c-3.6-2.2-7.1-4.4-10.7-6.5c-3.2-2.7-6.4-5.4-9.5-8.1c-2.7-3.2-5.4-6.4-8.1-9.5
		c-2.2-3.6-4.4-7.1-6.5-10.7c-1.6-3.9-3.2-7.7-4.8-11.6c-1-6.1-1.9-12.2-2.9-18.4c-0.3-4-0.6-8-0.9-11.9c-6.5-0.2-13.1-0.4-19.6-0.5
		c0,1.5,0,2.9,0,4.4c0.1,3.1,0.2,6.2,0.3,9.3c0.1,2.9,0.2,5.8,0.3,8.6c-0.4,2.2-0.7,4.5-1.1,6.7c-0.1,2.3-0.1,4.7-0.2,7
		c0.7,2.7,1.5,5.4,2.2,8.1c1.4,2.4,2.8,4.7,4.2,7.1c1.8,2.3,3.7,4.5,5.5,6.8c2.2,2.3,4.3,4.5,6.5,6.8c3.7,0.9,7.4,1.9,11.1,2.8
		c1.9,2.1,3.9,4.3,5.8,6.4c2.3,1.5,4.5,3.1,6.8,4.6c2.7,0.8,5.4,1.6,8.2,2.5c2.5,1.2,5.1,2.3,7.6,3.5c2.4,1.4,4.9,2.8,7.3,4.1
		c2,0.9,4,1.7,6,2.6c0.6,0.3,1.2,0.5,1.8,0.8c2.7,0.9,5.4,1.8,8.1,2.7c2.8,0.7,5.5,1.4,8.3,2.1c2.8,0.4,5.7,0.8,8.5,1.2
		c2.9,0,5.8,0,8.7-0.1c2.9-0.6,5.9-1.2,8.8-1.9c3-1.5,5.9-2.9,8.9-4.4c2.8-1.9,5.7-3.8,8.5-5.7c2.9-1,5.8-1.9,8.7-2.9
		c2.8-0.8,5.5-1.7,8.3-2.5c2.5-1,5.1-2,7.6-2.9c2.4-1.3,4.8-2.6,7.3-4c2.2-1.7,4.5-3.4,6.7-5.2c2.1-1.9,4.3-3.7,6.4-5.6
		c2.1-1.6,4.2-3.3,6.3-4.9c1.5-2.3,2.9-4.6,4.4-6.9c1.2-2.3,2.4-4.7,3.6-7c0.8-2.5,1.5-5.1,2.3-7.6c0.6-2.6,1.2-5.2,1.7-7.8
		c0.1-0.7,0.1-1.5,0.2-2.2c0.2-1.8,0.4-3.7,0.6-5.5c0.7-2.6,1.5-5.2,2.2-7.8c0.6-3.1,1.2-6.2,1.8-9.3c0-1.3,0-2.7,0-4
		c-7,0.2-13.9,0.4-20.9,0.6c-0.3,4-0.6,8-0.9,11.9c-1,6.1-1.9,12.2-2.9,18.4c-1.6,3.9-3.2,7.7-4.8,11.6c-2.2,3.6-4.4,7.1-6.5,10.7
		c-2.7,3.2-5.4,6.4-8.1,9.5c-3.2,2.7-6.4,5.4-9.5,8.1c-3.6,2.2-7.1,4.4-10.7,6.5c-3.9,1.6-7.7,3.2-11.6,4.8c-4.1,1-8.1,1.9-12.2,2.9
		C-2292.5,1066.2-2296.7,1066.6-2300.8,1066.9"/>
</g>
</svg>
