<?xml version="1.0" encoding="utf-8"?>
<!-- Generator: Adobe Illustrator 24.0.1, SVG Export Plug-In . SVG Version: 6.00 Build 0)  -->
<svg version="1.1" id="main" xmlns="http://www.w3.org/2000/svg" xmlns:xlink="http://www.w3.org/1999/xlink" x="0px" y="0px"
	 viewBox="0 0 91.1 52.8" style="enable-background:new 0 0 91.1 52.8;" xml:space="preserve">
<style type="text/css">
	.st0{fill:none;stroke:#000000;stroke-width:7.400000e-02;stroke-miterlimit:10;}
</style>
<g id="frame" transform="translate(2401.0, 1079.0) scale(1, -1)">
	<path id="SVG_Exporter" class="st0" d="M-2401,1026.3c30.3,0.1,60.6,0.2,90.9,0.2c0,1.2,0.1,2.3,0.1,3.5c-0.1,2.6-0.1,5.3-0.2,7.9
		c-0.3,2.6-0.7,5.2-1,7.9c-0.7,2.3-1.4,4.6-2,6.9c-1.6,1.7-3.1,3.3-4.7,5c-0.1,0.1-0.2,0.2-0.2,0.2c-2.1,1.3-4.2,2.5-6.4,3.8
		c-0.6,0.3-1.1,0.6-1.7,0.9c-1.6,0.8-3.2,1.6-4.8,2.4c-1.2,0.9-2.5,1.9-3.7,2.8c-0.1,0.1-0.3,0.2-0.4,0.3c-0.8,1-1.6,1.9-2.4,2.9
		c-0.7,0.6-1.4,1.2-2.1,1.8c-0.6,0.3-1.2,0.7-1.8,1c-0.5,0.3-1,0.5-1.5,0.8c-0.5,0.2-1,0.4-1.5,0.7c-0.5,0.2-1,0.4-1.5,0.6
		c-0.5,0.2-1,0.4-1.6,0.6c-0.5,0.2-1.1,0.4-1.6,0.6c-0.6,0.2-1.1,0.4-1.7,0.5c-0.6,0.2-1.1,0.3-1.7,0.5c-0.6,0.1-1.1,0.3-1.7,0.4
		c-0.5,0.1-1.1,0.2-1.6,0.3c-0.5,0.1-1.1,0.1-1.6,0.2c-0.5,0-1,0-1.5,0.1c-0.5,0-1-0.1-1.5-0.1c-0.5-0.1-0.9-0.2-1.4-0.2
		c-0.4-0.1-0.9-0.3-1.3-0.4c-0.4-0.2-0.8-0.4-1.2-0.6c-0.4-0.3-0.8-0.6-1.3-1c-0.5-0.5-1-1-1.5-1.5c-0.5-0.8-1.1-1.6-1.6-2.4
		c-0.6-1.1-1.1-2.2-1.7-3.4c-0.3-0.4-0.6-0.8-1-1.2c-0.7-1-1.5-1.9-2.2-2.9c-2.3-1.6-4.5-3.3-6.8-4.9c0,0-0.1,0-0.1-0.1
		c-2.7-1.7-5.3-3.4-8-5.2c-0.2-0.1-0.3-0.3-0.5-0.4c-1.6-1.5-3.2-2.9-4.8-4.4c-0.8-1.4-1.7-2.8-2.5-4.3c-0.3-0.5-0.6-1.1-0.8-1.6
		c-0.9-2.8-1.7-5.5-2.6-8.3c-0.5-3.1-0.9-6.2-1.4-9.3C-2400.9,1026.7-2400.9,1026.5-2401,1026.3"/>
</g>
</svg>
