<?xml version="1.0" encoding="utf-8"?>
<!-- Generator: Adobe Illustrator 24.0.1, SVG Export Plug-In . SVG Version: 6.00 Build 0)  -->
<svg version="1.1" id="main" xmlns="http://www.w3.org/2000/svg" xmlns:xlink="http://www.w3.org/1999/xlink" x="0px" y="0px"
	 viewBox="0 0 186 93.3" style="enable-background:new 0 0 186 93.3;" xml:space="preserve">
<style type="text/css">
	.st0{fill:none;stroke:#000000;stroke-width:7.400000e-02;stroke-miterlimit:10;}
</style>
<g id="frame" transform="translate(2401.0, 1079.0) scale(1, -1)">
	<path id="SVG_Exporter" class="st0" d="M-2398.3,985.8c20.1,0.4,40.3,0.8,60.4,1.3c0.4,2.9,0.8,5.8,1.2,8.8
		c1.3,2.4,2.6,4.9,3.9,7.3c2,1.9,4.1,3.9,6.1,5.8c2.6,1.2,5.1,2.5,7.7,3.7c2.8,0.4,5.7,0.9,8.5,1.3c2.8-0.4,5.7-0.9,8.5-1.3
		c2.6-1.2,5.1-2.5,7.7-3.7c2-1.9,4.1-3.9,6.1-5.8c1.3-2.4,2.6-4.9,3.9-7.3c0.4-2.9,0.8-5.8,1.2-8.8c22.7-0.4,45.4-0.8,68.1-1.2
		c-0.2,0.9-0.4,1.7-0.7,2.6c-0.8,2.7-1.6,5.5-2.3,8.2c-1.5,2.8-2.9,5.6-4.4,8.5c-0.2,2.7-0.4,5.3-0.7,8c-0.5,2.6-1.1,5.2-1.6,7.8
		c-0.5,2.6-1.1,5.2-1.6,7.8c-1,2.4-2,4.8-3,7.2c-1.2,2.3-2.4,4.7-3.6,7c-1.8,1.8-3.7,3.7-5.5,5.5c-1.9,1.8-3.8,3.5-5.8,5.3
		c-2.2,1.5-4.3,2.9-6.5,4.4c-2.4,0.7-4.8,1.5-7.2,2.2c-2.3,1.1-4.6,2.1-6.9,3.2c-2.3,1.3-4.5,2.7-6.8,4c-2.4,1.2-4.8,2.5-7.3,3.7
		c-2.4,1.8-4.9,3.5-7.3,5.3c-2.9,0.7-5.8,1.4-8.8,2.1c-2.9,0.2-5.7,0.4-8.6,0.6c-2.8-0.2-5.5-0.4-8.3-0.5c-2.6-0.5-5.3-0.9-7.9-1.4
		c-2.5-0.7-5-1.4-7.5-2.1c-2.4-0.9-4.8-1.8-7.2-2.7c-0.3-0.2-0.7-0.3-1-0.5c-1.9-0.9-3.8-1.9-5.8-2.8c-2.1-1.2-4.3-2.4-6.4-3.7
		c-2.2-1-4.4-2-6.6-3c-2.2-0.9-4.4-1.9-6.6-2.8c-1.8-1.6-3.5-3.1-5.3-4.7c-1.8-1.6-3.6-3.2-5.3-4.8c-2.2-1.4-4.4-2.7-6.6-4.1
		c-2-1.9-4-3.8-6-5.7c-1.9-1.9-3.8-3.8-5.7-5.6c-1.5-2.2-2.9-4.3-4.4-6.5c-1-2.4-2.1-4.8-3.1-7.3c-0.1-0.1-0.1-0.2-0.2-0.3
		c-1-2.1-2-4.1-3-6.2c-0.2-2.3-0.4-4.5-0.6-6.8c0.5-1.5,1-3.1,1.4-4.6c0.5-1.4,1-2.8,1.4-4.3c-0.1-3.1-0.2-6.2-0.3-9.2
		C-2398.3,988.1-2398.3,986.9-2398.3,985.8"/>
</g>
</svg>
