<?xml version="1.0" encoding="utf-8"?>
<!-- Generator: Adobe Illustrator 24.0.1, SVG Export Plug-In . SVG Version: 6.00 Build 0)  -->
<svg version="1.1" id="main" xmlns="http://www.w3.org/2000/svg" xmlns:xlink="http://www.w3.org/1999/xlink" x="0px" y="0px"
	 viewBox="0 0 256.8 126.8" style="enable-background:new 0 0 256.8 126.8;" xml:space="preserve">
<style type="text/css">
	.st0{fill:none;stroke:#000000;stroke-width:7.400000e-02;stroke-miterlimit:10;}
</style>
<g id="frame" transform="translate(2401.0, 1079.0) scale(1, -1)">
	<path id="SVG_Exporter" class="st0" d="M-2287.2,1077.7c-4-1-7.9-2-11.9-3c-3.5-2.3-7-4.7-10.5-7c-3.3-2.4-6.6-4.8-9.9-7.2
		c-0.5-0.3-0.9-0.6-1.4-0.9c-2.7-1.8-5.5-3.7-8.2-5.5c-3.1-2-6.1-4.1-9.2-6.1c-2.5-2.7-5.1-5.5-7.6-8.2c-2.3-3.1-4.5-6.1-6.8-9.2
		c-2.8-2.4-5.5-4.9-8.3-7.3c-3.3-1.8-6.6-3.5-9.9-5.3c-2.1-2-4.3-4-6.4-6c-0.5-0.5-1-0.9-1.5-1.4c-2.4-1.7-4.9-3.3-7.3-5
		c-1.2-4-2.4-8-3.7-12c-2-2.7-4.1-5.3-6.1-8c-1.1-1.8-2.2-3.7-3.3-5.5c-0.4-1.9-0.9-3.8-1.3-5.7c-0.2-2.8-0.4-5.6-0.6-8.4
		c0.1-3.1,0.2-6.2,0.3-9.3c0.1-1.5,0.2-3,0.3-4.5c18.7,0.4,37.4,0.8,56.1,1.3c1.1,7.6,2.2,15.2,3.3,22.9c3.6,6.7,7.1,13.4,10.7,20
		c5.5,5.3,11.1,10.6,16.6,15.9c7,3.4,14,6.8,21,10.2c7.7,1.2,15.5,2.3,23.2,3.5c7.7-1.2,15.5-2.3,23.2-3.5c7-3.4,14-6.8,21-10.2
		c5.5-5.3,11.1-10.6,16.6-15.9c3.6-6.7,7.1-13.4,10.7-20c1.1-7.6,2.1-15.2,3.2-22.9c16.8,0.1,33.6,0.2,50.5,0.3
		c-0.1,1.6-0.1,3.2-0.2,4.7c-0.2,1.8-0.4,3.6-0.6,5.5c-0.1,0.8-0.2,1.6-0.2,2.3c-0.5,2.7-1,5.4-1.5,8.2c-0.4,2.6-0.8,5.1-1.2,7.7
		c-0.7,2.7-1.3,5.4-2,8.1c-0.9,3.1-1.9,6.2-2.8,9.3c-1.4,2.9-2.9,5.9-4.3,8.8c-1.1,2.1-2.3,4.2-3.4,6.2c-0.5,0.9-1,1.8-1.5,2.7
		c-1.9,3.1-3.9,6.2-5.8,9.2c-2.9,2.3-5.7,4.5-8.6,6.8c-3.2,2.2-6.3,4.3-9.5,6.5c-0.8,0.5-1.5,1.1-2.3,1.6c-2.5,1.8-5,3.6-7.5,5.5
		c-3.3,2.5-6.6,4.9-10,7.4c-3.5,2.3-6.9,4.7-10.4,7c-3.8,1.6-7.5,3.3-11.3,4.9c-3.9,1-7.8,2.1-11.8,3.1c-3.8,1.8-7.7,3.6-11.5,5.4
		c-4,1.3-8,2.6-12,3.9c-4.1,0-8.3,0.1-12.4,0.1C-2278.9,1078.5-2283,1078.1-2287.2,1077.7"/>
</g>
</svg>
