<?xml version="1.0" encoding="utf-8"?>
<!-- Generator: Adobe Illustrator 24.0.1, SVG Export Plug-In . SVG Version: 6.00 Build 0)  -->
<svg version="1.1" id="main" xmlns="http://www.w3.org/2000/svg" xmlns:xlink="http://www.w3.org/1999/xlink" x="0px" y="0px"
	 viewBox="0 0 253.1 124.5" style="enable-background:new 0 0 253.1 124.5;" xml:space="preserve">
<style type="text/css">
	.st0{fill:none;stroke:#000000;stroke-width:7.400000e-02;stroke-miterlimit:10;}
</style>
<g id="frame" transform="translate(2401.0, 1079.0) scale(1, -1)">
	<path id="SVG_Exporter" class="st0" d="M-2150.8,978c-0.5,2.5-1.1,5-1.6,7.5c-0.7,2.6-1.4,5.2-2.1,7.8c-0.9,3-1.8,5.9-2.7,8.9
		c-1.4,2.7-2.8,5.5-4.3,8.2c-1.7,2.9-3.4,5.8-5,8.7c-2.4,3.1-4.7,6.1-7.1,9.2c-2.7,2.7-5.5,5.4-8.2,8.1c-2.9,2.7-5.8,5.4-8.7,8.1
		c-3,2.8-6,5.6-9,8.4c-3,2.9-6.1,5.8-9.1,8.8c-3.3,2.6-6.6,5.2-9.9,7.8c-3.8,1.5-7.6,2.9-11.4,4.4c-4,0.7-7.9,1.3-11.9,2
		c-4,0.4-8,0.7-11.9,1.1c-3.9,0.6-7.9,1.2-11.8,1.8c-4,0-7.9,0-11.9,0.1c-3.9-0.9-7.8-1.8-11.8-2.7c-3.7-1.6-7.5-3.1-11.2-4.7
		c-3.6-1.7-7.1-3.5-10.7-5.2c-0.7-0.4-1.4-0.8-2-1.2c-2.7-1.5-5.4-3-8.1-4.5c-3.1-2.1-6.2-4.3-9.3-6.4c-3.3-1.1-6.6-2.2-9.8-3.2
		c-3.1-1.6-6.1-3.3-9.2-4.9c-2.2-3-4.4-6.1-6.6-9.1c-2.5-2.8-5-5.6-7.4-8.3c-2.7-2.8-5.5-5.5-8.2-8.3c-3-2.9-6-5.7-9-8.6
		c-1.5-1-3-1.9-4.5-2.9c-1.1-0.7-2.2-1.3-3.3-2c-1.5-3.2-3-6.4-4.5-9.5c-1.2-2.9-2.5-5.7-3.7-8.6c-0.7-1.9-1.5-3.9-2.2-5.8
		c-0.4-1.9-0.7-3.9-1.1-5.8c-0.2-2.8-0.4-5.6-0.6-8.4c0.1-3.1,0.2-6.2,0.3-9.3c0.1-1.6,0.2-3.3,0.3-4.9c17.4,0.4,34.9,0.8,52.3,1.3
		c1.1,7.7,2.2,15.4,3.3,23.1c3.6,6.8,7.2,13.5,10.8,20.3c5.6,5.4,11.2,10.7,16.8,16.1c7.1,3.4,14.1,6.9,21.2,10.3
		c7.8,1.2,15.7,2.4,23.5,3.6c7.8-1.2,15.7-2.4,23.5-3.6c7.1-3.4,14.1-6.9,21.2-10.3c5.6-5.4,11.2-10.7,16.8-16.1
		c3.6-6.8,7.2-13.5,10.8-20.3c1.1-7.7,2.1-15.4,3.2-23.1c16.4-0.3,32.7-0.5,49.1-0.8c0,1.8,0,3.6-0.1,5.5c-0.3,3-0.7,6-1,8.9
		C-2149.6,972.3-2150.2,975.1-2150.8,978"/>
</g>
</svg>
