<?xml version="1.0" encoding="utf-8"?>
<!-- Generator: Adobe Illustrator 24.0.1, SVG Export Plug-In . SVG Version: 6.00 Build 0)  -->
<svg version="1.1" id="main" xmlns="http://www.w3.org/2000/svg" xmlns:xlink="http://www.w3.org/1999/xlink" x="0px" y="0px"
	 viewBox="0 0 274.8 127.2" style="enable-background:new 0 0 274.8 127.2;" xml:space="preserve">
<style type="text/css">
	.st0{fill:none;stroke:#000000;stroke-width:7.400000e-02;stroke-miterlimit:10;}
</style>
<g id="frame" transform="translate(2401.0, 1079.0) scale(1, -1)">
	<path id="SVG_Exporter" class="st0" d="M-2384.3,1004.5c3,1.8,5.9,3.6,8.9,5.4c0.3,0.2,0.5,0.3,0.8,0.5c2.6,4.4,5.2,8.7,7.9,13.1
		c2.6,3.8,5.2,7.7,7.7,11.5c3.2,2.7,6.5,5.5,9.7,8.2c3.9,1.2,7.8,2.4,11.7,3.6c1.3,0.7,2.6,1.4,3.9,2.1c2.5,1.3,4.9,2.6,7.4,3.9
		c3.2,3.3,6.4,6.7,9.6,10c3.7,3.4,7.4,6.8,11.1,10.2c4.2,2,8.5,4,12.7,6.1c4.8-1.2,9.5-2.4,14.3-3.5c4.6-0.5,9.2-1,13.8-1.6
		c4.3,0.2,8.6,0.3,12.9,0.5c2.1-0.7,4.1-1.4,6.2-2.2c2.1-0.7,4.2-1.5,6.3-2.2c4.2-1,8.5-2,12.7-3c4.2-1.3,8.3-2.6,12.5-3.9
		c3.7-1.7,7.3-3.4,11-5.1c0.3-0.1,0.6-0.3,0.9-0.4c3.7-2.5,7.3-5,11-7.5c3.5-2.8,7.1-5.6,10.6-8.4c3.4-3,6.9-5.9,10.3-8.9
		c2.6-2.8,5.3-5.6,7.9-8.3c2.5-2.6,4.9-5.1,7.4-7.7c2.3-2.8,4.7-5.6,7-8.4c1.7-3.5,3.3-7,5-10.5c1.3-2.4,2.7-4.8,4-7.2
		c0.9-2.4,1.8-4.7,2.7-7.1c1.3-2,2.7-4,4-6c0.9-2.5,1.8-4.9,2.7-7.4c0.7-2.6,1.4-5.3,2.1-7.9c0.4-2.5,0.8-4.9,1.2-7.4
		c-11.3-0.3-22.7-0.5-34-0.8c-0.4,4.7-0.7,9.3-1.1,14c-1.3,7.2-2.5,14.4-3.8,21.7c-2.1,5-4.2,10-6.2,15.1c-2.8,4.6-5.7,9.3-8.5,13.9
		c-3.5,4.1-7.1,8.3-10.6,12.4c-4.1,3.5-8.3,7.1-12.4,10.6c-4.6,2.8-9.3,5.7-13.9,8.5c-5,2.1-10,4.2-15.1,6.2
		c-5.3,1.3-10.6,2.5-15.8,3.8c-5.4,0.4-10.8,0.9-16.2,1.3c-5.4-0.4-10.8-0.9-16.2-1.3c-5.3-1.3-10.6-2.5-15.8-3.8
		c-5-2.1-10-4.2-15.1-6.2c-4.6-2.8-9.3-5.7-13.9-8.5c-4.1-3.5-8.3-7.1-12.4-10.6c-3.5-4.1-7.1-8.3-10.6-12.4
		c-2.8-4.6-5.7-9.3-8.5-13.9c-2.1-5-4.2-10-6.2-15.1c-1.3-7.2-2.5-14.4-3.8-21.7c-0.4-5.2-0.8-10.4-1.2-15.6
		c-11.1-0.2-22.2-0.4-33.3-0.6c0,1,0,1.9,0,2.9c0.1,2.8,0.1,5.6,0.2,8.3c0.2,2.6,0.3,5.2,0.5,7.8c0.3,2.1,0.7,4.1,1,6.2
		c1,1.8,2,3.5,3.1,5.3c1.4,1.9,2.8,3.8,4.2,5.8c1.7,2.2,3.3,4.4,5,6.6C-2386.1,998-2385.2,1001.2-2384.3,1004.5"/>
</g>
</svg>
