<?xml version="1.0" encoding="utf-8"?>
<!-- Generator: Adobe Illustrator 24.0.1, SVG Export Plug-In . SVG Version: 6.00 Build 0)  -->
<svg version="1.1" id="main" xmlns="http://www.w3.org/2000/svg" xmlns:xlink="http://www.w3.org/1999/xlink" x="0px" y="0px"
	 viewBox="0 0 71.1 35.6" style="enable-background:new 0 0 71.1 35.6;" xml:space="preserve">
<style type="text/css">
	.st0{fill:none;stroke:#000000;stroke-width:7.400000e-02;stroke-miterlimit:10;}
</style>
<g id="frame" transform="translate(2109.0, 1079.0) scale(1, -1)">
	<path id="SVG_Exporter" class="st0" d="M-2092,1079c1.7,0,3.4-0.1,5.2-0.1c1.8-0.4,3.6-0.7,5.4-1.1c0.2-0.1,0.5-0.1,0.7-0.2
		c1.7-0.6,3.3-1.2,5-1.8c2-0.8,3.9-1.6,5.9-2.5c2-0.8,3.9-1.7,5.9-2.5c0.1-0.1,0.2-0.2,0.4-0.3c2.2-1.4,4.4-2.9,6.6-4.3
		c1.2-0.6,2.3-1.2,3.5-1.8c1.2-1.1,2.4-2.1,3.6-3.2c2.5-2.1,5.1-4.1,7.6-6.2c0,0,0,0,0.1-0.1c1.4-3.8,2.9-7.7,4.3-11.5
		c-23.6,0-47.3,0-70.9,0c0,0.7,0,1.4-0.1,2c0.3,3.7,0.5,7.4,0.8,11.1c0.3,1.8,0.7,3.6,1,5.4c0.3,1.6,0.7,3.3,1,4.9
		c1.1,2.3,2.2,4.6,3.3,7c0.3,0.2,0.5,0.4,0.8,0.7c1.7,1,3.4,2,5.1,3c1.6,0.5,3.3,0.9,4.9,1.4C-2092.1,1078.9-2092,1079-2092,1079"/>
</g>
</svg>
