<?xml version="1.0" encoding="utf-8"?>
<!-- Generator: Adobe Illustrator 24.0.1, SVG Export Plug-In . SVG Version: 6.00 Build 0)  -->
<svg version="1.1" id="main" xmlns="http://www.w3.org/2000/svg" xmlns:xlink="http://www.w3.org/1999/xlink" x="0px" y="0px"
	 viewBox="0 0 189.1 107.8" style="enable-background:new 0 0 189.1 107.8;" xml:space="preserve">
<style type="text/css">
	.st0{fill:none;stroke:#000000;stroke-width:7.400000e-02;stroke-miterlimit:10;}
</style>
<g id="frame" transform="translate(2109.0, 1079.0) scale(1, -1)">
	<path id="SVG_Exporter" class="st0" d="M-2108.8,973.2c0-0.6,0.1-1.3,0.1-1.9c62.3,0,124.7,0,187,0c0.1,0.9,0.2,1.7,0.3,2.6
		c0.2,3.7,0.4,7.4,0.6,11.2c0.1,3.7,0.2,7.4,0.3,11c0.2,3.1,0.3,6.3,0.5,9.4c-0.2,3.4-0.3,6.8-0.5,10.2c-0.9,3.9-1.9,7.8-2.8,11.7
		c-1.4,3.2-2.9,6.4-4.3,9.6c0,0.1-0.1,0.1-0.1,0.2c-1.9,2.5-3.8,5-5.7,7.5c-2.5,1.7-5.1,3.5-7.6,5.2c-2.7,1.3-5.4,2.5-8.1,3.8
		c-2.4,1.4-4.7,2.7-7.1,4.1c-1.9,1.5-3.9,3.1-5.8,4.6c-1.7,1.4-3.5,2.8-5.2,4.2c-1.3,0.9-2.6,1.8-3.9,2.7c-0.3,0.2-0.7,0.4-1,0.6
		c-1.7,0.7-3.3,1.4-5,2.1c-1.8,0.5-3.5,0.9-5.3,1.4c-1,0.2-1.9,0.4-2.9,0.6c-1,0.2-2,0.4-2.9,0.6c-2.2,0.4-4.5,0.8-6.7,1.3
		c-2.5,0.5-5.1,1-7.6,1.5c-2.7,0.4-5.4,0.8-8.2,1.3c-2.8,0.2-5.7,0.5-8.5,0.7c-1.3,0-2.7-0.1-4-0.1c-1.5-0.1-3.1-0.3-4.6-0.4
		c-2.8-1-5.7-2.1-8.5-3.1c-0.9-0.6-1.8-1.2-2.6-1.8c-1.7-2-3.5-4-5.2-6c-2.4-1.6-4.8-3.3-7.2-4.9c-0.3-0.2-0.6-0.4-0.9-0.6
		c-0.5,0.2-1,0.3-1.4,0.5c-2.6,0.5-5.2,1.1-7.8,1.6c-2.9-0.8-5.9-1.5-8.8-2.3c-1.9-3.2-3.8-6.4-5.7-9.6c-1.1-3.4-2.1-6.8-3.2-10.2
		c-0.2-0.5-0.3-1.1-0.5-1.6c-0.9-3.4-1.7-6.9-2.6-10.3c-0.3-0.9-0.7-1.7-1-2.6c-0.8-2-1.6-4-2.5-6c-2.2-2.6-4.4-5.1-6.6-7.7
		c0-0.1-0.1-0.1-0.1-0.2c-2-2.6-4.1-5.3-6.1-7.9c-0.6-0.9-1.3-1.9-1.9-2.8c-0.9-1.4-1.9-2.7-2.8-4.1c-1.2-2.4-2.3-4.9-3.5-7.3
		c-0.6-3-1.3-6-1.9-9C-2108.9,979.5-2108.8,976.3-2108.8,973.2"/>
</g>
</svg>
