<?xml version="1.0" encoding="utf-8"?>
<!-- Generator: Adobe Illustrator 24.0.1, SVG Export Plug-In . SVG Version: 6.00 Build 0)  -->
<svg version="1.1" id="main" xmlns="http://www.w3.org/2000/svg" xmlns:xlink="http://www.w3.org/1999/xlink" x="0px" y="0px"
	 viewBox="0 0 247.7 126.7" style="enable-background:new 0 0 247.7 126.7;" xml:space="preserve">
<style type="text/css">
	.st0{fill:none;stroke:#000000;stroke-width:7.400000e-02;stroke-miterlimit:10;}
</style>
<g id="frame" transform="translate(2401.0, 1079.0) scale(1, -1)">
	<path id="SVG_Exporter" class="st0" d="M-2233.4,1076.5c-4,0.8-7.9,1.7-11.9,2.5c-4-0.1-8-0.2-12.1-0.4c-4-0.6-7.9-1.1-11.9-1.7
		c-3.9-0.8-7.8-1.5-11.7-2.3c-3.8-1-7.6-2.1-11.4-3.1c-3.7-1.3-7.4-2.5-11.1-3.8c-3.6-1.5-7.2-3-10.8-4.4c-3.4-1.8-6.8-3.7-10.2-5.5
		c-3.1-2.1-6.2-4.2-9.3-6.3c-3.1-1.6-6.2-3.2-9.4-4.7c-3.2-1-6.4-2-9.6-3c-2.3-2.9-4.6-5.7-6.9-8.6c-2.1-1.9-4.3-3.8-6.4-5.8
		c-0.5-0.5-1.1-0.9-1.6-1.4c-2.3-3-4.6-5.9-6.9-8.9c-3.2-2.6-6.4-5.3-9.5-7.9c-2.5-1.4-4.9-2.7-7.4-4.1c-0.4-0.2-0.8-0.5-1.2-0.7
		c-1.1-3.4-2.1-6.9-3.2-10.3c-1.1-2.6-2.3-5.1-3.4-7.7c-0.2-2.2-0.3-4.4-0.5-6.6c-0.1-2.1-0.2-4.3-0.4-6.4c-0.2-2.8-0.4-5.7-0.7-8.5
		c0-3.1,0.1-6.2,0.1-9.4c0.1-1.7,0.1-3.4,0.2-5.1c16.1,0.4,32.3,0.8,48.4,1.3c1.1,7.7,2.2,15.4,3.3,23.1c3.6,6.8,7.2,13.5,10.8,20.3
		c5.6,5.4,11.2,10.7,16.8,16.1c7.1,3.4,14.1,6.9,21.2,10.3c7.8,1.2,15.7,2.4,23.5,3.6c7.8-1.2,15.7-2.4,23.5-3.6
		c7.1-3.4,14.1-6.9,21.2-10.3c5.6-5.4,11.2-10.7,16.8-16.1c3.6-6.8,7.2-13.5,10.8-20.3c1-7.7,2.1-15.4,3.1-23.1
		c15.9-0.4,31.9-0.8,47.8-1.2c0,1.3,0,2.6,0,3.9c-0.6,3.7-1.1,7.5-1.7,11.2c-0.7,3.1-1.4,6.2-2.1,9.3c-0.5,2.4-1,4.8-1.5,7.3
		c-0.7,2.5-1.3,5.1-2,7.6c-0.9,2.9-1.7,5.7-2.6,8.6c-1.5,2.6-2.9,5.2-4.4,7.8c-1.8,2.4-3.5,4.8-5.3,7.2c-2.4,3-4.9,6.1-7.3,9.1
		c-2.7,2.9-5.3,5.9-8,8.8c-2.8,2.9-5.6,5.8-8.4,8.8c-2.9,3-5.7,6-8.6,9c-2.9,3.1-5.8,6.2-8.7,9.4c-3,3.1-6.1,6.2-9.1,9.3
		C-2226.4,1071.8-2229.9,1074.2-2233.4,1076.5"/>
</g>
</svg>
