<?xml version="1.0" encoding="utf-8"?>
<!-- Generator: Adobe Illustrator 24.0.1, SVG Export Plug-In . SVG Version: 6.00 Build 0)  -->
<svg version="1.1" id="main" xmlns="http://www.w3.org/2000/svg" xmlns:xlink="http://www.w3.org/1999/xlink" x="0px" y="0px"
	 viewBox="0 0 265.9 128.7" style="enable-background:new 0 0 265.9 128.7;" xml:space="preserve">
<style type="text/css">
	.st0{fill:none;stroke:#000000;stroke-width:7.400000e-02;stroke-miterlimit:10;}
</style>
<g id="frame" transform="translate(2401.0, 1079.0) scale(1, -1)">
	<path id="SVG_Exporter" class="st0" d="M-2400.8,954.1c0.1-1.3,0.1-2.6,0.2-3.8c20,0.4,40.1,0.9,60.1,1.3
		c1.1,7.6,2.2,15.1,3.4,22.7c3.5,6.6,7.1,13.2,10.6,19.9c5.5,5.3,11,10.5,16.5,15.8c6.9,3.4,13.9,6.7,20.8,10.1
		c7.7,1.2,15.4,2.3,23,3.5c7.7-1.2,15.4-2.3,23-3.5c6.9-3.4,13.9-6.7,20.8-10.1c5.5-5.3,11-10.5,16.5-15.8
		c3.5-6.6,7.1-13.2,10.6-19.9c1.1-7.6,2.2-15.1,3.3-22.7c19,1,37.9,2.1,56.9,3.1c-0.3,2.5-0.7,5-1,7.5c-0.7,2.9-1.3,5.9-2,8.8
		c-0.6,2.8-1.2,5.5-1.9,8.3c-0.4,2.9-0.9,5.7-1.3,8.6c-0.7,3.1-1.4,6.2-2.1,9.3c-1.2,3.3-2.5,6.6-3.7,9.9c-1.4,3.3-2.9,6.6-4.3,9.9
		c-1.9,3.2-3.8,6.3-5.7,9.5c-3,2.2-6,4.4-9,6.7c-3.5,2.1-6.9,4.2-10.4,6.3c-3.6,2.2-7.1,4.4-10.7,6.5c-0.9,0.5-1.8,1.1-2.7,1.6
		c-2.7,1.7-5.5,3.3-8.2,5c-3.7,2.1-7.5,4.2-11.2,6.4c-3.9,1.8-7.8,3.6-11.7,5.3c-4,1.3-8.1,2.6-12.1,3.9c-3.9,2.4-7.9,4.8-11.8,7.2
		c-4.1,1.1-8.2,2.3-12.3,3.4c-4.3-1.1-8.7-2.1-13-3.2c-4.3-0.1-8.6-0.3-12.9-0.4c-4.3,0-8.6-0.1-13-0.1c-3.7-2.2-7.5-4.4-11.2-6.6
		c-3.4-2.9-6.7-5.8-10.1-8.6c-3.4-2.3-6.8-4.6-10.2-6.9c-3.1-2.6-6.1-5.2-9.2-7.9c-2.5-3.2-5-6.4-7.5-9.5c-2.4-3.2-4.8-6.4-7.2-9.6
		c-3-2.2-6.1-4.5-9.1-6.7c-3.7-0.7-7.5-1.4-11.2-2.1c-2.8-2.1-5.6-4.2-8.4-6.3c-1.5-2.9-3-5.9-4.6-8.8c-1.8-3.5-3.6-7-5.3-10.4
		c-1.6-2.2-3.2-4.4-4.8-6.6c-0.4-0.5-0.8-1.1-1.2-1.6c-1-1.9-2.1-3.8-3.1-5.7c-0.4-1.9-0.8-3.9-1.3-5.8c-0.2-2.8-0.4-5.6-0.5-8.4
		C-2400.9,960.4-2400.8,957.3-2400.8,954.1"/>
</g>
</svg>
