<?xml version="1.0" encoding="utf-8"?>
<!-- Generator: Adobe Illustrator 24.0.1, SVG Export Plug-In . SVG Version: 6.00 Build 0)  -->
<svg version="1.1" id="main" xmlns="http://www.w3.org/2000/svg" xmlns:xlink="http://www.w3.org/1999/xlink" x="0px" y="0px"
	 viewBox="0 0 212 102.3" style="enable-background:new 0 0 212 102.3;" xml:space="preserve">
<style type="text/css">
	.st0{fill:none;stroke:#000000;stroke-width:7.400000e-02;stroke-miterlimit:10;}
</style>
<g id="frame" transform="translate(2401.0, 1079.0) scale(1, -1)">
	<path id="SVG_Exporter" class="st0" d="M-2401,981.4c0-1.5,0-3.1,0.1-4.6c15.2,0.4,30.4,0.8,45.6,1.3c0.8,6.2,1.7,12.4,2.5,18.7
		c2.9,5.4,5.8,10.8,8.7,16.2c4.5,4.2,9.1,8.4,13.6,12.6c5.6,2.8,11.3,5.6,16.9,8.4c6.3,1,12.5,2,18.8,3.1c6.3-0.9,12.6-1.9,18.8-2.8
		c5.6-2.9,11.1-5.8,16.7-8.7c4.5-4.3,9-8.6,13.5-12.8c3-5.3,6-10.6,9-15.9c0.8-6.2,1.7-12.4,2.5-18.6c15.1-0.4,30.1-0.9,45.2-1.3
		c0,1.6,0,3.2,0,4.8c-0.7,3.1-1.4,6.1-2,9.2c-0.8,2.6-1.5,5.2-2.3,7.8c-0.2,2.6-0.4,5.2-0.7,7.8c-0.6,2.6-1.1,5.3-1.7,7.9
		c-0.9,2.5-1.8,5-2.7,7.6c-0.9,1.7-1.9,3.4-2.8,5.1c-0.3,0.6-0.7,1.2-1,1.8c-1.5,2.2-2.9,4.5-4.4,6.7c-2.2,1.8-4.3,3.5-6.5,5.3
		c-2.3,2-4.5,3.9-6.8,5.9c-2.4,1.7-4.8,3.3-7.3,5c-2.6,1.3-5.1,2.7-7.7,4c-2.7,1.2-5.5,2.4-8.2,3.6c-2.9,1.2-5.8,2.4-8.7,3.6
		c-2.9,1.3-5.9,2.6-8.8,4c-3,1.7-6.1,3.3-9.1,5c-3.1,1.6-6.1,3.2-9.2,4.7c-3,0.8-6.1,1.5-9.1,2.3c-3,0.1-6,0.1-9,0.2
		c-0.2,0-0.3,0-0.5-0.1c-2.8-0.4-5.6-0.7-8.4-1.1c-3-0.5-6-1-9-1.5c-3.1-0.5-6.1-0.9-9.2-1.4c-2.7-1.3-5.5-2.6-8.2-4
		c-2.4-2-4.8-4-7.2-6c-2.5-1.7-5.1-3.4-7.6-5c-2.9-1-5.8-2-8.7-3c-2.6-1.5-5.3-3-7.9-4.4c-0.7-0.6-1.3-1.2-2-1.8
		c-1.7-1.5-3.3-3.1-5-4.6c-1.5-0.4-2.9-0.7-4.4-1.1c-2.6-0.7-5.1-1.4-7.7-2c-2.2-2.3-4.4-4.6-6.6-6.8c-1.7-2.4-3.5-4.8-5.2-7.2
		c-1.2-2.5-2.4-5.1-3.6-7.6c-0.4-2.2-0.7-4.4-1.1-6.6c-0.1-0.7-0.3-1.4-0.4-2.1c0.1-2.3,0.2-4.6,0.4-6.8c-0.1-2.1-0.2-4.2-0.4-6.3
		c-0.3-2.8-0.7-5.7-1-8.5C-2400.7,987.6-2400.8,984.5-2401,981.4"/>
</g>
</svg>
