<?xml version="1.0" encoding="utf-8"?>
<!-- Generator: Adobe Illustrator 24.0.1, SVG Export Plug-In . SVG Version: 6.00 Build 0)  -->
<svg version="1.1" id="main" xmlns="http://www.w3.org/2000/svg" xmlns:xlink="http://www.w3.org/1999/xlink" x="0px" y="0px"
	 viewBox="0 0 226.2 109.5" style="enable-background:new 0 0 226.2 109.5;" xml:space="preserve">
<style type="text/css">
	.st0{fill:none;stroke:#000000;stroke-width:7.400000e-02;stroke-miterlimit:10;}
</style>
<g id="frame" transform="translate(2401.0, 1079.0) scale(1, -1)">
	<path id="SVG_Exporter" class="st0" d="M-2390.6,1022.2c-1.2-2.8-2.4-5.6-3.6-8.4c-0.2-3.4-0.3-6.9-0.5-10.3
		c-0.8-1.9-1.6-3.8-2.4-5.6c-0.6-2-1.3-3.9-1.9-5.9c-0.5-2.8-0.9-5.7-1.4-8.5c-0.2-3.1-0.3-6.2-0.5-9.4c0-1.5,0.1-3,0.1-4.5
		c16.5,0.4,32.9,0.8,49.4,1.3c0.9,6.8,1.8,13.5,2.8,20.3c3.1,5.9,6.3,11.8,9.4,17.7c4.9,4.7,9.8,9.3,14.7,14c6.2,3,12.3,6,18.5,9
		c6.8,1,13.7,2.1,20.5,3.1c6.8-1.1,13.7-2.1,20.5-3.2c6-3.4,12-6.8,18-10.2c5.1-4.3,10.1-8.5,15.2-12.8c3.2-5.9,6.3-11.8,9.5-17.6
		c0.9-6.8,1.8-13.5,2.7-20.3c15-0.4,30-0.9,45-1.3c0,1.8,0,3.6,0,5.4c-0.5,2.8-1.1,5.6-1.6,8.4c-0.1,0.4-0.1,0.7-0.2,1.1
		c-0.7,2.7-1.4,5.3-2.1,8c-0.1,0.6-0.2,1.2-0.3,1.8c-0.4,1.9-0.7,3.9-1.1,5.8c-0.6,2.7-1.1,5.3-1.7,8c-0.9,2.6-1.8,5.1-2.7,7.7
		c-1.5,2.2-3.1,4.4-4.6,6.6c-1.6,2.2-3.3,4.4-4.9,6.5c-2.1,2.1-4.2,4.2-6.3,6.3c-2.3,2.1-4.7,4.2-7,6.3c-2.5,1.9-5,3.8-7.5,5.8
		c-2.6,1.8-5.3,3.5-7.9,5.3c-2.8,1.7-5.7,3.4-8.5,5.1c-2.9,1.7-5.8,3.4-8.8,5.2c-3,1.9-6,3.7-8.9,5.6c-3.1,1.9-6.2,3.8-9.3,5.7
		c-3.3,1.3-6.6,2.7-9.9,4c-3.3,0.3-6.7,0.7-10,1c-3.3-0.3-6.5-0.6-9.8-0.9c-3.2-0.7-6.4-1.3-9.6-2c-3.3-0.5-6.5-1-9.8-1.5
		c-3.4-0.3-6.8-0.6-10.1-0.9c-2.9-1.6-5.8-3.1-8.7-4.7c-2-2.1-3.9-4.1-5.9-6.2c-0.5-0.5-1-1-1.4-1.5c-2.7-1.9-5.4-3.9-8-5.8
		c-3-1.3-6-2.6-9-4c-3.1-1.2-6.3-2.3-9.4-3.5c-2.4-2.3-4.8-4.6-7.1-6.9c-3-1.9-6-3.9-9-5.8c-2.8-2-5.6-4-8.4-6
		C-2386.7,1026.9-2388.6,1024.5-2390.6,1022.2"/>
</g>
</svg>
