<?xml version="1.0" encoding="utf-8"?>
<!-- Generator: Adobe Illustrator 24.0.1, SVG Export Plug-In . SVG Version: 6.00 Build 0)  -->
<svg version="1.1" id="main" xmlns="http://www.w3.org/2000/svg" xmlns:xlink="http://www.w3.org/1999/xlink" x="0px" y="0px"
	 viewBox="0 0 211 114.3" style="enable-background:new 0 0 211 114.3;" xml:space="preserve">
<style type="text/css">
	.st0{fill:none;stroke:#000000;stroke-width:7.400000e-02;stroke-miterlimit:10;}
</style>
<g id="frame" transform="translate(2172.0, 1079.0) scale(1, -1)">
	<path id="SVG_Exporter" class="st0" d="M-2115.5,1064.6c-2.7-2.1-5.4-4.3-8.2-6.4c-2.1-3.3-4.1-6.6-6.2-10
		c-1.6-3.9-3.1-7.8-4.7-11.6c-1.4-2.7-2.9-5.3-4.3-8c-0.3-0.6-0.7-1.2-1-1.8c-1.7-3.3-3.5-6.5-5.2-9.8c-1.3-1.4-2.6-2.8-3.9-4.2
		c-1.5-1.5-3-3.1-4.5-4.6c-1.6-2.1-3.2-4.2-4.8-6.3c-0.6-0.8-1.1-1.5-1.7-2.3c-1.9-2.4-3.8-4.9-5.7-7.3c-0.9-1.5-1.7-3.1-2.6-4.6
		c-0.5-1-1-2-1.5-3c-0.7-3.1-1.3-6.1-2-9.2c0-3.5-0.1-7-0.1-10.5c70.3-0.1,140.6-0.2,210.9-0.2c0,0.3,0,0.7,0,1
		c-0.1,1.7-0.3,3.3-0.4,5c-0.1,2.1-0.3,4.2-0.4,6.3c-0.3,3.5-0.7,7.1-1,10.6c-0.2,2.9-0.4,5.8-0.6,8.8c-0.3,3.4-0.6,6.8-0.9,10.2
		c-0.5,4-1,7.9-1.6,11.9c0,0.2-0.1,0.4-0.1,0.6c-0.6,3.4-1.2,6.9-1.8,10.3c-0.8,3.5-1.5,6.9-2.3,10.4c-2.7,2.3-5.4,4.6-8.1,7
		c-3.5,0.7-7.1,1.3-10.6,2c-0.2,0-0.3,0-0.5,0.1c-3.2,0.4-6.5,0.9-9.7,1.3c-2.8,1.2-5.5,2.4-8.3,3.6c-2.1,1.6-4.2,3.2-6.3,4.8
		c-0.3,0.3-0.6,0.5-0.9,0.8c-1.4,1.5-2.9,3.1-4.3,4.6c-1.9,1.5-3.7,3.1-5.6,4.6c-1.7,0.9-3.4,1.9-5.2,2.8c-0.4,0.3-0.9,0.5-1.3,0.8
		c-2.4,0.9-4.9,1.8-7.3,2.7c-2.7,0.6-5.3,1.3-8,1.9c-2.8,0.5-5.6,0.9-8.4,1.4c-2.9,0.2-5.8,0.5-8.7,0.7c-2.9-0.1-5.9-0.1-8.8-0.2
		c-2.9-0.3-5.9-0.5-8.8-0.8c-1.1-0.2-2.2-0.5-3.3-0.7c-1.8-0.4-3.6-0.8-5.4-1.2c-2.9-1.1-5.8-2.1-8.6-3.2c-2.8-1.4-5.7-2.8-8.5-4.2
		c-1.6-0.8-3.3-1.6-4.9-2.3C-2113,1065.8-2114.2,1065.2-2115.5,1064.6"/>
</g>
</svg>
