<?xml version="1.0" encoding="utf-8"?>
<!-- Generator: Adobe Illustrator 24.0.1, SVG Export Plug-In . SVG Version: 6.00 Build 0)  -->
<svg version="1.1" id="main" xmlns="http://www.w3.org/2000/svg" xmlns:xlink="http://www.w3.org/1999/xlink" x="0px" y="0px"
	 viewBox="0 0 36.4 23.4" style="enable-background:new 0 0 36.4 23.4;" xml:space="preserve">
<style type="text/css">
	.st0{fill:none;stroke:#000000;stroke-width:7.400000e-02;stroke-miterlimit:10;}
</style>
<g id="frame" transform="translate(2401.0, 1079.0) scale(1, -1)">
	<path id="SVG_Exporter" class="st0" d="M-2364.6,1055.6c0,0.5,0,1.1,0,1.6c0,0.4-0.1,0.8-0.1,1.1c-0.2,1.9-0.5,3.9-0.7,5.8
		c-0.6,2.1-1.1,4.2-1.7,6.4c-0.1,0.2-0.2,0.4-0.3,0.6c-0.7,1.4-1.5,2.8-2.2,4.2c-0.1,0-0.1,0.1-0.2,0.1c-0.8,0.4-1.6,0.9-2.3,1.3
		c-0.7,0.3-1.5,0.7-2.2,1c-0.7,0.2-1.4,0.5-2.1,0.7c-0.3,0.1-0.7,0.2-1,0.2c-0.4,0-0.7,0.1-1.1,0.1c-0.7,0-1.4,0.1-2,0.1
		c-0.7,0-1.3,0-2,0c-0.7-0.1-1.3-0.1-2-0.2c-0.4-0.1-0.8-0.1-1.2-0.2c-0.3-0.1-0.6-0.1-0.8-0.2c-0.7-0.3-1.4-0.5-2.1-0.8
		c-0.7-0.4-1.4-0.8-2.2-1.2c-0.6-0.4-1.2-0.8-1.7-1.2c-0.2-0.2-0.3-0.4-0.5-0.7c-0.8-1.3-1.6-2.6-2.3-3.9c0-0.1-0.1-0.1-0.1-0.2
		c-1-2.3-2-4.5-3-6.8c-0.2-0.7-0.4-1.4-0.6-2.1c-0.6-2-1.2-4-1.7-5.9C-2388.8,1055.6-2376.7,1055.6-2364.6,1055.6"/>
</g>
</svg>
