<?xml version="1.0" encoding="utf-8"?>
<!-- Generator: Adobe Illustrator 24.0.1, SVG Export Plug-In . SVG Version: 6.00 Build 0)  -->
<svg version="1.1" id="main" xmlns="http://www.w3.org/2000/svg" xmlns:xlink="http://www.w3.org/1999/xlink" x="0px" y="0px"
	 viewBox="0 0 262.3 131.4" style="enable-background:new 0 0 262.3 131.4;" xml:space="preserve">
<style type="text/css">
	.st0{fill:none;stroke:#000000;stroke-width:7.400000e-02;stroke-miterlimit:10;}
</style>
<g id="frame" transform="translate(2330.0, 1079.0) scale(1, -1)">
	<path id="SVG_Exporter" class="st0" d="M-2173.6,983.8c3.3-3.1,6.5-6.2,9.8-9.3c2.1-3.9,4.2-7.8,6.3-11.8c0.7-4.6,1.4-9.2,2.1-13.7
		c10.2-0.2,20.4-0.3,30.6-0.5c2.3,0,4.6-0.1,7-0.1c16.7-0.1,33.5-0.3,50.2-0.4c0,0.1,0,0.1,0,0.2c-0.5,3.4-0.9,6.9-1.4,10.3
		c-0.7,2.8-1.4,5.6-2.2,8.4c-1,2.4-1.9,4.7-2.9,7.1c-0.3,0.5-0.6,1-0.9,1.5c-1,1.6-2,3.3-3,4.9c-1.1,2.5-2.3,4.9-3.4,7.4
		c-1.3,2.8-2.6,5.5-4,8.3c-2.6,2.6-5.1,5.2-7.7,7.7c0,0-0.1,0.1-0.1,0.1c-2.4,3.4-4.9,6.8-7.3,10.3c-2.5,1.6-4.9,3.2-7.4,4.8
		c-1.9,0.7-3.9,1.4-5.8,2.1c-2.6,2.4-5.2,4.9-7.9,7.3c-0.6,0.7-1.3,1.4-1.9,2.2c-3,3.2-5.9,6.3-8.9,9.5c-3.2,2.6-6.4,5.3-9.6,7.9
		c-3.2,2.3-6.5,4.7-9.7,7c-3.2,2.1-6.5,4.1-9.7,6.2c-3.3,1.8-6.6,3.5-9.9,5.3c-3.3,1.4-6.7,2.8-10.1,4.2c-0.1,0-0.1,0-0.2,0
		c-3.3,0.9-6.7,1.8-10,2.7c-3.6,1.2-7.1,2.4-10.7,3.6c-3.6,0.7-7.3,1.5-10.9,2.2c-3.7-0.9-7.3-1.9-11-2.8c-3.3-2.8-6.6-5.6-9.9-8.4
		c-3.4-2.4-6.7-4.8-10.1-7.2c-3.4-2-6.8-3.9-10.3-5.9c-3.3-2-6.6-4.1-9.9-6.1c-3.7-1.8-7.3-3.5-11-5.3c-3.5-3-7.1-6-10.6-9.1
		c-2.6-4.7-5.2-9.5-7.8-14.2c-2.5-4-5-8-7.5-12c-1.3-1.8-2.6-3.7-4-5.5c-1.1-1.5-2.3-3-3.4-4.5c-1.7-2.8-3.4-5.6-5-8.4
		c-2-1.7-4.1-3.4-6.1-5.1c-1.3-1.9-2.7-3.8-4-5.7c-0.2-0.2-0.3-0.5-0.5-0.7c-1.2-1.7-2.3-3.4-3.5-5.1c-0.5-2.3-0.9-4.6-1.4-6.9
		c-0.2-2.5-0.4-5-0.7-7.6c-0.1-2.4-0.2-4.7-0.2-7.1c0-1.2-0.1-2.5-0.1-3.7c28.7,0.4,57.5,0.8,86.2,1.2c0.7,4.6,1.4,9.2,2.1,13.7
		c2.1,3.9,4.2,7.8,6.3,11.8c3.3,3.1,6.5,6.2,9.8,9.3c4.1,2,8.2,4,12.3,6c4.6,0.7,9.1,1.4,13.7,2.1c4.6-0.7,9.1-1.4,13.7-2.1
		C-2181.8,987.8-2177.7,985.8-2173.6,983.8"/>
</g>
</svg>
