<?xml version="1.0" encoding="utf-8"?>
<!-- Generator: Adobe Illustrator 24.0.1, SVG Export Plug-In . SVG Version: 6.00 Build 0)  -->
<svg version="1.1" id="main" xmlns="http://www.w3.org/2000/svg" xmlns:xlink="http://www.w3.org/1999/xlink" x="0px" y="0px"
	 viewBox="0 0 234.9 123.7" style="enable-background:new 0 0 234.9 123.7;" xml:space="preserve">
<style type="text/css">
	.st0{fill:none;stroke:#000000;stroke-width:7.400000e-02;stroke-miterlimit:10;}
</style>
<g id="frame" transform="translate(2243.0, 1079.0) scale(1, -1)">
	<path id="SVG_Exporter" class="st0" d="M-2242.8,955.4c78.2,0,156.4,0,234.6,0c-1.2,3.1-2.3,6.2-3.5,9.3c-1.2,2.1-2.4,4.2-3.6,6.3
		c-0.8,1.4-1.6,2.8-2.3,4.1c-1.6,2.5-3.2,4.9-4.8,7.4c-0.3,0.9-0.5,1.8-0.8,2.7c-0.6,2.1-1.3,4.2-1.9,6.2c-1.4,3.7-2.9,7.5-4.3,11.2
		c0,0.1-0.1,0.2-0.1,0.3c-1.2,3.8-2.3,7.5-3.5,11.3c-0.7,3.7-1.5,7.4-2.2,11.1c-2.1,3.1-4.2,6.3-6.4,9.4c-1.6,0.9-3.3,1.8-4.9,2.7
		c-1.6,0.8-3.2,1.5-4.8,2.3c-3.3,1.3-6.6,2.5-9.9,3.8c-2.9,1.6-5.8,3.2-8.6,4.9c-2.4,2-4.8,3.9-7.2,5.9c-2,1.6-3.9,3.3-5.9,4.9
		c-0.3,0.3-0.7,0.5-1,0.8c-2.4,1.7-4.9,3.3-7.3,5c-2.6,1.4-5.3,2.7-7.9,4.1c-2.8,1-5.6,2-8.4,3c-1.8,0.5-3.6,0.9-5.3,1.4
		c-1.1,0.3-2.3,0.6-3.4,0.9c-3.1,1-6.1,2-9.2,3c-3.2,0.5-6.3,1.1-9.5,1.6c-3.1-0.8-6.3-1.6-9.4-2.5c-2.3-1.4-4.6-2.9-6.9-4.3
		c-0.6-0.3-1.2-0.7-1.8-1c-2.8-1.8-5.6-3.6-8.4-5.4c-2.9-1.8-5.7-3.5-8.6-5.3c-2.9-1.7-5.7-3.5-8.6-5.2c-1.7-0.8-3.3-1.7-5-2.5
		c-1.2-0.6-2.5-1.2-3.7-1.9c-2.8-2-5.5-4-8.3-6c-2.1-3.2-4.2-6.4-6.3-9.6c-1.9-3.6-3.8-7.3-5.7-10.9c-0.4-0.6-0.9-1.1-1.3-1.7
		c-2-2.6-4-5.2-6-7.8c-1.9-3.6-3.8-7.2-5.6-10.8c-0.7-0.6-1.4-1.2-2-1.8c-2.2-2-4.4-3.9-6.7-5.9c-1.5-2.2-3-4.4-4.5-6.6
		c-0.2-0.3-0.4-0.7-0.7-1c-1.6-2.2-3.1-4.4-4.7-6.6c-0.9-2.4-1.7-4.9-2.6-7.3c-0.4-2.8-0.7-5.6-1.1-8.4c0-2.6,0-5.2,0-7.9
		C-2242.9,957.5-2242.9,956.5-2242.8,955.4"/>
</g>
</svg>
