<?xml version="1.0" encoding="utf-8"?>
<!-- Generator: Adobe Illustrator 24.0.1, SVG Export Plug-In . SVG Version: 6.00 Build 0)  -->
<svg version="1.1" id="main" xmlns="http://www.w3.org/2000/svg" xmlns:xlink="http://www.w3.org/1999/xlink" x="0px" y="0px"
	 viewBox="0 0 74.5 38.1" style="enable-background:new 0 0 74.5 38.1;" xml:space="preserve">
<style type="text/css">
	.st0{fill:none;stroke:#000000;stroke-width:7.400000e-02;stroke-miterlimit:10;}
</style>
<g id="frame" transform="translate(2401.0, 1079.0) scale(1, -1)">
	<path id="SVG_Exporter" class="st0" d="M-2396.3,1055.8c-0.8-1.7-1.5-3.5-2.3-5.2c-0.8-3.2-1.6-6.4-2.4-9.7c24.8,0,49.6,0,74.4,0
		c0,0.9,0,1.8,0,2.7c-0.2,2.9-0.4,5.7-0.6,8.6c-0.5,2.7-1,5.5-1.5,8.2c0,0,0,0,0,0c-1,2-2,4.1-3,6.1c-1.9,1.5-3.8,2.9-5.8,4.4
		c-0.5,0.2-1.1,0.5-1.6,0.7c-2.1,0.8-4.2,1.7-6.3,2.5c-0.2,0.1-0.4,0.1-0.6,0.2c-1.3,0.5-2.6,1-3.9,1.4c-0.9,0.3-1.7,0.5-2.6,0.8
		c-0.1,0-0.2,0-0.3,0.1c-0.6,0.3-1.2,0.5-1.8,0.8c-0.6,0.2-1.2,0.4-1.8,0.6c-0.6,0.2-1.2,0.3-1.7,0.5c-0.6,0.1-1.1,0.2-1.7,0.3
		c-0.5,0-1.1,0.1-1.6,0.1c-0.5,0-1.1,0-1.6,0c-0.5,0-1-0.1-1.6-0.1c-0.5-0.1-1.1-0.2-1.6-0.3c-0.5-0.1-1.1-0.3-1.6-0.4
		c-0.6-0.2-1.1-0.4-1.7-0.6c-0.6-0.3-1.2-0.6-1.8-0.8c0,0,0,0-0.1,0c-0.6-0.2-1.2-0.4-1.9-0.5c-0.7-0.3-1.4-0.5-2.2-0.8
		c-1.2-0.5-2.4-1.1-3.6-1.6c-0.1-0.1-0.2-0.1-0.3-0.2c-2.3-1.2-4.6-2.4-6.9-3.7c-0.3-0.2-0.6-0.3-0.8-0.5c-1.6-1.5-3.2-3-4.8-4.5
		c-1.1-2-2.3-3.9-3.4-5.9C-2395.3,1058-2395.8,1056.9-2396.3,1055.8"/>
</g>
</svg>
