<?xml version="1.0" encoding="utf-8"?>
<!-- Generator: Adobe Illustrator 24.0.1, SVG Export Plug-In . SVG Version: 6.00 Build 0)  -->
<svg version="1.1" id="main" xmlns="http://www.w3.org/2000/svg" xmlns:xlink="http://www.w3.org/1999/xlink" x="0px" y="0px"
	 viewBox="0 0 123.2 59" style="enable-background:new 0 0 123.2 59;" xml:space="preserve">
<style type="text/css">
	.st0{fill:none;stroke:#000000;stroke-width:7.400000e-02;stroke-miterlimit:10;}
</style>
<g id="frame" transform="translate(2109.0, 1079.0) scale(1, -1)">
	<path id="SVG_Exporter" class="st0" d="M-2065.4,1074.2c0.4,0.1,0.9,0.2,1.3,0.3c1.3,0.1,2.6,0.2,3.9,0.3c1.3-0.2,2.6-0.3,4-0.5
		c1.3-0.4,2.6-0.7,3.9-1.1c1.3-0.5,2.6-0.9,3.9-1.4c1.2-0.3,2.4-0.7,3.7-1c0.1,0,0.2-0.1,0.3-0.1c1.3-0.1,2.7-0.3,4-0.4
		c1.3,0.1,2.7,0.3,4,0.4c0.5,0.2,1.1,0.4,1.6,0.5c0.8,0.2,1.7,0.4,2.5,0.6c1.5,0.6,2.9,1.1,4.4,1.7c0.4,0.2,0.9,0.4,1.3,0.6
		c1.2,0.4,2.5,0.8,3.7,1.2c1.9,0.6,3.7,1.2,5.6,1.8c0.1,0,0.3,0.1,0.4,0.1c2.1,0.4,4.1,0.7,6.2,1.1c2.2,0.2,4.5,0.4,6.7,0.6
		c0.5,0,1,0,1.6,0c1.6-0.3,3.2-0.6,4.7-0.9c1.9-1.3,3.9-2.5,5.8-3.8c0.2-0.3,0.4-0.6,0.6-0.9c1.3-3.2,2.5-6.4,3.8-9.6
		c0.5-3.1,1-6.2,1.5-9.3c0.1-3,0.2-6,0.3-9.1c0-0.2,0-0.3,0-0.5c0-3.5,0-7.1,0-10.6c-0.1-1.4-0.2-2.8-0.2-4.2
		c-0.1-2.4-0.3-4.8-0.4-7.3c-0.1-0.9-0.2-1.9-0.4-2.8c-40.7,0-81.4,0-122.2,0c0,0.4,0,0.8,0,1.2c0.5,3.2,0.9,6.4,1.4,9.6
		c0,0.3,0.1,0.6,0.1,0.9c0.7,3.1,1.5,6.3,2.2,9.4c0.8,2.1,1.5,4.1,2.3,6.2c0.9,1.3,1.9,2.5,2.8,3.8c0.3,0.4,0.6,0.8,0.9,1.3
		c1.7,1.3,3.4,2.7,5.2,4c0.6,0.4,1.1,0.8,1.7,1.2c1.3,0.8,2.7,1.7,4,2.5c1.1,0.6,2.2,1.3,3.3,1.9c0.7,0.7,1.4,1.4,2.1,2
		c0.7,0.7,1.4,1.4,2.2,2c0.9,1.1,1.7,2.1,2.6,3.2c0.1,0.1,0.1,0.1,0.2,0.2c1.2,0.7,2.3,1.3,3.5,2c0.3,0.1,0.6,0.3,0.9,0.4
		c0.8,0.3,1.6,0.5,2.4,0.8c1.2,0.3,2.3,0.6,3.5,0.9C-2067,1073.9-2066.2,1074-2065.4,1074.2"/>
</g>
</svg>
