<?xml version="1.0" encoding="utf-8"?>
<!-- Generator: Adobe Illustrator 24.0.3, SVG Export Plug-In . SVG Version: 6.00 Build 0)  -->
<svg version="1.1" id="Layer_1" xmlns="http://www.w3.org/2000/svg" xmlns:xlink="http://www.w3.org/1999/xlink" x="0px" y="0px"
	 viewBox="0 0 569.8 235.3" style="enable-background:new 0 0 569.8 235.3;" xml:space="preserve">
<style type="text/css">
	.st0{fill:none;stroke:#000000;stroke-width:7.400000e-02;stroke-miterlimit:11.3386;}
</style>
<title>OpenSCAD Model</title>
<path class="st0" d="M2.5,20.1l2.2,13.1l2.9,13.5l3.6,13.8l4.4,14l5.4,14l6.5,14l7.6,13.8L44,130l10.3,13.2L66.1,156l13.4,12.2
	l15.1,11.5l16.9,10.7l18.8,9.8l20.8,8.8l23,7.7l25.2,6.5l27.6,5.1l30,3.7l32.6,2.2l7.2-0.1v-35h18v34.9l7.4-0.1l30.1-3.4l27.7-6.2
	l25.4-8.6l23.2-10.7l21-12.5l19-13.9l17-15l15.2-15.8l13.4-16.2l11.7-16.2l10.1-16l8.6-15.3l7.1-14.4l5.8-13.1l4.5-11.5l3.4-9.5
	l2.3-7.2l1.3-4.6l0.4-1.6l-16.9-0.8V1.8h-28.3v18.9l-19.8-0.6l-1.8,7.6l-2.8,7.8l-3.7,7.9l-4.7,8l-5.6,8l-6.5,7.9L472,75l-8.2,7.7
	l-9,7.4l-9.9,7.1l-10.7,6.8l-11.5,6.4l-12.2,5.9l-13,5.4l-13.7,4.8l-14.5,4.2l-15.2,3.5l-15.9,2.7l-16.6,1.9l-17.2,1l-15.6-1.1
	l-15-2.1l-14.5-3.1l-13.9-3.9l-13.2-4.7l-12.6-5.4l-11.9-6l-11.3-6.5l-10.6-6.9l-9.9-7.3l-9.2-7.6l-8.4-7.7l-7.7-7.8l-6.9-7.8
	l-6.1-7.7l-5.3-7.6l-4.5-7.3l-3.7-6.9l-2.8-6.5l-2-6H94.7V1.8H66.4v18.3H47.7V1.8H19.4v18.3H2.5z"/>
</svg>
