<?xml version="1.0" encoding="utf-8"?>
<!-- Generator: Adobe Illustrator 24.0.3, SVG Export Plug-In . SVG Version: 6.00 Build 0)  -->
<svg version="1.1" id="Layer_1" xmlns="http://www.w3.org/2000/svg" xmlns:xlink="http://www.w3.org/1999/xlink" x="0px" y="0px"
	 viewBox="0 0 904.3 385.5" style="enable-background:new 0 0 904.3 385.5;" xml:space="preserve">
<style type="text/css">
	.st0{fill:none;stroke:#000000;stroke-width:7.400000e-02;stroke-miterlimit:11.3386;}
</style>
<title>OpenSCAD Model</title>
<path class="st0" d="M1.5,19.8l0.8,11.9l3.2,14.8l5.6,17.4l8,19.5l10.4,21.3l12.9,22.7l15.3,23.7l17.7,24.4l20.1,24.7l22.5,24.6
	l24.9,24.1l27.3,23.3l29.8,22l32.2,20.4l34.6,18.5l37,16.1l39.5,13.4l41.9,10.3l44.4,6.9l22.9,1.5v-50.8h18v51.9l5.9,0.4l48.8-1.7
	l45.2-6.8l41.7-11.3l38.3-15.3l35.1-18.7l31.9-21.6l28.9-23.8l26-25.6l23.2-26.8l20.6-27.4l18-27.4l15.6-26.9l13.3-25.8l11.2-24.2
	l9.1-22l7.2-19.3l5.4-16l3.7-12.1l2.1-7.7l0.7-2.7h-12.8v-18h-28.3v18h-17.2v-18h-28.3v18h-14.4L798,35.7l-4.9,16.4l-6.4,16.7
	l-7.9,16.9l-9.4,17l-10.8,16.9l-12.3,16.7l-13.7,16.3l-15.2,15.8l-16.6,15.2l-18,14.5l-19.5,13.6l-20.9,12.5l-22.3,11.3l-23.7,10
	l-25.1,8.6l-26.5,7l-27.9,5.3l-29.2,3.4l-30.6,1.4l-31.9-1.1l-30-3.9l-28.2-6.4l-26.4-8.6l-24.7-10.6L293,228.3l-21.3-13.8l-19.6-15
	l-18-16l-16.4-16.7l-14.9-17.1l-13.3-17.3l-11.8-17.2l-10.4-16.8l-9-16.2L150.8,67l-6.2-14.2l-4.9-12.7L136,29l-2.4-9.2h-21.5v-18
	H83.8v18H55.6v-18H27.3v18H1.5z"/>
</svg>
