<?xml version="1.0" encoding="utf-8"?>
<!-- Generator: Adobe Illustrator 24.0.3, SVG Export Plug-In . SVG Version: 6.00 Build 0)  -->
<svg version="1.1" id="Layer_1" xmlns="http://www.w3.org/2000/svg" xmlns:xlink="http://www.w3.org/1999/xlink" x="0px" y="0px"
	 viewBox="0 0 972.3 402.5" style="enable-background:new 0 0 972.3 402.5;" xml:space="preserve">
<style type="text/css">
	.st0{fill:none;stroke:#000000;stroke-width:7.400000e-02;stroke-miterlimit:11.3386;}
</style>
<title>OpenSCAD Model</title>
<path class="st0" d="M2.5,19.9l1.2,2.7l3.5,7.8l5.8,12.3L21.1,59l10.6,19.7l13,22.5l15.5,24.8l18,26.5l20.5,27.7l23,28.3l25.5,28.3
	l28.1,27.8l30.7,26.7l33.4,25.1l36,22.9l38.7,20.1l41.4,16.8l44.2,12.9l47,8.4l45.5,3.1v-69.3h18v69l35.8-1.5l46.5-7.4l43.5-12.1
	l40.5-16.2l37.6-19.7l34.8-22.7l32-25l29.3-26.8l26.6-28l24-28.6l21.4-28.7l18.9-28.1l16.5-27l14.1-25.3l11.8-23L953,60l7.3-16.7
	l5.1-12.6l3-8l1-2.8h-26.1V1.5h-28.3v18.4h-26.2V1.5h-28.3v18.4h-19.9l-0.6,1.8l-1.8,5.3l-3.1,8.3l-4.5,11l-5.9,13.3l-7.5,15.2
	l-9.1,16.7l-10.8,17.8L784.9,128l-14.4,19l-16.3,19L736,184.4l-20.4,17.8l-22.5,16.6l-24.8,15.1l-27.1,13.2l-29.4,10.8l-31.9,8.2
	l-34.5,5.1l-37.1,1.6l-41-2.1l-37.7-5.4l-34.5-8.4l-31.5-11L335,232.6l-25.8-15.1l-23.1-16.6L265.5,183l-18.2-18.5l-15.9-18.8
	l-13.8-18.8l-11.8-18.4L196,90.8l-8.1-16.5l-6.5-15L176.3,46l-3.7-10.9l-2.5-8.2l-1.4-5.2l-0.4-1.8h-36.8V1.5h-28.3v18.4H59V1.5
	H30.7v18.4H2.5z"/>
</svg>
