<?xml version="1.0" encoding="utf-8"?>
<!-- Generator: Adobe Illustrator 24.0.3, SVG Export Plug-In . SVG Version: 6.00 Build 0)  -->
<svg version="1.1" id="Layer_1" xmlns="http://www.w3.org/2000/svg" xmlns:xlink="http://www.w3.org/1999/xlink" x="0px" y="0px"
	 viewBox="0 0 671.8 275" style="enable-background:new 0 0 671.8 275;" xml:space="preserve">
<style type="text/css">
	.st0{fill:none;stroke:#000000;stroke-width:7.400000e-02;stroke-miterlimit:11.3386;}
</style>
<title>OpenSCAD Model</title>
<path class="st0" d="M0.6,19.8l0.6,1.8l1.9,5.3l3.3,8.3l4.7,11l6.2,13.3L25,74.6l9.4,16.7l11.1,17.9l12.8,18.6l14.7,19l16.6,19
	l18.6,18.7l20.6,17.9l22.7,16.8l24.9,15.3l27.2,13.4l29.5,11.1l31.9,8.4l34.4,5.4l17.3,0.9v-73.4h18v74.4l1.6,0.1l36.9-1.7l34.4-5.2
	l31.9-8.2l29.5-11l27.2-13.3l24.9-15.2l22.7-16.8l20.6-17.9l18.6-18.7l16.6-19.1l14.7-19.1l12.8-18.7l11.1-18l9.4-16.8l7.7-15.3
	l6.2-13.4l4.7-11.1l3.3-8.4l1.9-5.3l0.6-1.9h-28.9v-18h-28.3v18h-34.7v-18h-28.3v18h-19l-0.3,1l-1.1,2.8l-1.8,4.4l-2.7,5.8l-3.5,7
	l-4.5,8l-5.5,8.7l-6.5,9.3l-7.6,9.7l-8.7,9.9l-9.9,9.9l-11.1,9.6l-12.4,9.2l-13.8,8.5l-15.1,7.7l-16.6,6.6l-18.1,5.4l-19.6,3.9
	l-21.2,2.3l-22.9,0.4l-21.6-1.5l-20.2-3.1l-18.8-4.6l-17.5-5.8l-16.2-6.9l-14.9-7.8l-13.7-8.6l-12.4-9.1L183,92.9l-10.1-9.6l-9-9.6
	l-7.9-9.3l-6.9-8.9l-5.8-8.4l-4.9-7.6l-3.9-6.6l-3-5.5l-2.1-4.1l-1.2-2.6l-0.4-0.9H104v-18H75.7v18H54.9v-18H26.6v18H0.6z"/>
</svg>
