<?xml version="1.0" encoding="utf-8"?>
<!-- Generator: Adobe Illustrator 24.0.3, SVG Export Plug-In . SVG Version: 6.00 Build 0)  -->
<svg version="1.1" id="Layer_1" xmlns="http://www.w3.org/2000/svg" xmlns:xlink="http://www.w3.org/1999/xlink" x="0px" y="0px"
	 viewBox="0 0 1757.5 402.5" style="enable-background:new 0 0 1757.5 402.5;" xml:space="preserve">
<style type="text/css">
	.st0{fill:none;stroke:#000000;stroke-width:7.400000e-02;stroke-miterlimit:11.3386;}
</style>
<title>OpenSCAD Model</title>
<path class="st0" d="M2.3,20l2.1,2.9l6.3,8.4l10.6,13.2l14.9,17.4l19.4,21l24,23.9l28.6,26.2l33.4,27.9l38.2,29l43.1,29.4l48.1,29.2
	l53.2,28.4l58.4,26.9l63.7,24.9l69.1,22.2l74.5,18.9l80.1,14.9l85.7,10.3l91.5,5.1l97.3-0.7l84.3-5.8l79.1-10.3l74.1-14.2l69.1-17.7
	l64.3-20.7l59.5-23.1l54.8-25l50.2-26.4l45.7-27.3l41.3-27.6l36.9-27.5l32.7-26.8l28.5-25.6l24.4-23.8l20.4-21.6l16.5-18.8
	l12.7-15.6l9-11.8l5.3-7.4l1.8-2.6h-43.9V2h-28.3v18h-42.5V2h-28.3v18H1561l-0.8,1.9l-2.7,5.4l-4.9,8.5l-7.3,11.3l-10,13.6
	l-12.9,15.6l-16.1,17.2l-19.6,18.4l-23.4,19.2l-13.7,9.8l0,63.7h-18l0-51.3l-27.5,17l-36.4,19.3l-41.2,18.5l-46.4,17.4l-51.8,15.9
	l-57.5,14l-63.4,11.7l-40.5,5.2l0,61.8h-18l0-59.5l-11.1,1.4l-76.1,5.9l-82.9,2.5l-84.2-1.3l-77.6-5l-32.8-3.8l0,59.5h-18v-61.6
	l-20.4-2.4l-65.1-11.2l-59.2-13.7l-53.6-15.7l-48.3-17.4l-43.1-18.6l-38.3-19.5l-33.6-19.9l-3.1-2.1v49.3h-18v-61.6l-8.2-5.6
	l-25.1-19.6l-21.2-18.8l-17.6-17.6l-14.2-16l-11.1-14l-8.2-11.6l-5.5-8.8l-3.1-5.6l-1-1.9h-36.3V2h-28.3v18H61V2H32.7v18H2.3z"/>
</svg>
