solid OpenSCAD_Model
  facet normal -0.790135 -0.612932 0
    outer loop
      vertex -98.2404 -81.2716 0
      vertex -103.15 -74.9426 5
      vertex -103.15 -74.9426 0
    endloop
  endfacet
  facet normal -0.790135 -0.612932 0
    outer loop
      vertex -103.15 -74.9426 5
      vertex -98.2404 -81.2716 0
      vertex -98.2404 -81.2716 5
    endloop
  endfacet
  facet normal -0.612932 -0.790135 0
    outer loop
      vertex -81.2716 -98.2404 0
      vertex -74.9426 -103.15 5
      vertex -81.2716 -98.2404 5
    endloop
  endfacet
  facet normal -0.612932 -0.790135 -0
    outer loop
      vertex -74.9426 -103.15 5
      vertex -81.2716 -98.2404 0
      vertex -74.9426 -103.15 0
    endloop
  endfacet
  facet normal -0.827089 -0.562071 0
    outer loop
      vertex -103.15 -74.9426 0
      vertex -107.652 -68.3179 5
      vertex -107.652 -68.3179 0
    endloop
  endfacet
  facet normal -0.827089 -0.562071 0
    outer loop
      vertex -107.652 -68.3179 5
      vertex -103.15 -74.9426 0
      vertex -103.15 -74.9426 5
    endloop
  endfacet
  facet normal -0.707107 -0.707107 0
    outer loop
      vertex -87.2798 -92.9435 0
      vertex -92.9435 -87.2798 5
      vertex -92.9435 -87.2798 0
    endloop
  endfacet
  facet normal -0.707107 -0.707107 0
    outer loop
      vertex -92.9435 -87.2798 5
      vertex -87.2798 -92.9435 0
      vertex -87.2798 -92.9435 5
    endloop
  endfacet
  facet normal -0.891098 -0.453811 0
    outer loop
      vertex -111.729 -61.4236 0
      vertex -112.454 -60 5
      vertex -112.454 -60 0
    endloop
  endfacet
  facet normal -0.891098 -0.453811 0
    outer loop
      vertex -112.454 -60 5
      vertex -111.729 -61.4236 0
      vertex -111.729 -61.4236 5
    endloop
  endfacet
  facet normal -0.509016 -0.860757 0
    outer loop
      vertex -68.3179 -107.652 0
      vertex -61.4236 -111.729 5
      vertex -68.3179 -107.652 5
    endloop
  endfacet
  facet normal -0.509016 -0.860757 -0
    outer loop
      vertex -61.4236 -111.729 5
      vertex -68.3179 -107.652 0
      vertex -61.4236 -111.729 0
    endloop
  endfacet
  facet normal -0.562071 -0.827089 0
    outer loop
      vertex -74.9426 -103.15 0
      vertex -68.3179 -107.652 5
      vertex -74.9426 -103.15 5
    endloop
  endfacet
  facet normal -0.562071 -0.827089 -0
    outer loop
      vertex -68.3179 -107.652 5
      vertex -74.9426 -103.15 0
      vertex -68.3179 -107.652 0
    endloop
  endfacet
  facet normal -0.453811 -0.891098 0
    outer loop
      vertex -61.4236 -111.729 0
      vertex -60 -112.454 5
      vertex -61.4236 -111.729 5
    endloop
  endfacet
  facet normal -0.453811 -0.891098 -0
    outer loop
      vertex -60 -112.454 5
      vertex -61.4236 -111.729 0
      vertex -60 -112.454 0
    endloop
  endfacet
  facet normal -0.750114 -0.661309 0
    outer loop
      vertex -92.9435 -87.2798 0
      vertex -98.2404 -81.2716 5
      vertex -98.2404 -81.2716 0
    endloop
  endfacet
  facet normal -0.750114 -0.661309 0
    outer loop
      vertex -98.2404 -81.2716 5
      vertex -92.9435 -87.2798 0
      vertex -92.9435 -87.2798 5
    endloop
  endfacet
  facet normal 0 0 1
    outer loop
      vertex -61.4236 -111.729 5
      vertex -60 -109.65 5
      vertex -60.2192 -109.538 5
    endloop
  endfacet
  facet normal 0 0 1
    outer loop
      vertex -60 -109.65 5
      vertex -61.4236 -111.729 5
      vertex -60 -112.454 5
    endloop
  endfacet
  facet normal 0 0 1
    outer loop
      vertex -66.9783 -105.541 5
      vertex -61.4236 -111.729 5
      vertex -60.2192 -109.538 5
    endloop
  endfacet
  facet normal 0 0 1
    outer loop
      vertex -66.9783 -105.541 5
      vertex -68.3179 -107.652 5
      vertex -61.4236 -111.729 5
    endloop
  endfacet
  facet normal 0 0 1
    outer loop
      vertex -73.4732 -101.127 5
      vertex -68.3179 -107.652 5
      vertex -66.9783 -105.541 5
    endloop
  endfacet
  facet normal 0 0 1
    outer loop
      vertex -73.4732 -101.127 5
      vertex -74.9426 -103.15 5
      vertex -68.3179 -107.652 5
    endloop
  endfacet
  facet normal 0 0 1
    outer loop
      vertex -79.678 -96.3142 5
      vertex -74.9426 -103.15 5
      vertex -73.4732 -101.127 5
    endloop
  endfacet
  facet normal 0 0 1
    outer loop
      vertex -79.678 -96.3142 5
      vertex -81.2716 -98.2404 5
      vertex -74.9426 -103.15 5
    endloop
  endfacet
  facet normal 0 0 1
    outer loop
      vertex -85.5684 -91.1211 5
      vertex -81.2716 -98.2404 5
      vertex -79.678 -96.3142 5
    endloop
  endfacet
  facet normal 0 0 1
    outer loop
      vertex -85.5684 -91.1211 5
      vertex -87.2798 -92.9435 5
      vertex -81.2716 -98.2404 5
    endloop
  endfacet
  facet normal 0 0 1
    outer loop
      vertex -91.1211 -85.5684 5
      vertex -87.2798 -92.9435 5
      vertex -85.5684 -91.1211 5
    endloop
  endfacet
  facet normal 0 0 1
    outer loop
      vertex -91.1211 -85.5684 5
      vertex -92.9435 -87.2798 5
      vertex -87.2798 -92.9435 5
    endloop
  endfacet
  facet normal 0 0 1
    outer loop
      vertex -96.3142 -79.678 5
      vertex -92.9435 -87.2798 5
      vertex -91.1211 -85.5684 5
    endloop
  endfacet
  facet normal 0 0 1
    outer loop
      vertex -96.3142 -79.678 5
      vertex -98.2404 -81.2716 5
      vertex -92.9435 -87.2798 5
    endloop
  endfacet
  facet normal 0 0 1
    outer loop
      vertex -101.127 -73.4732 5
      vertex -98.2404 -81.2716 5
      vertex -96.3142 -79.678 5
    endloop
  endfacet
  facet normal 0 0 1
    outer loop
      vertex -101.127 -73.4732 5
      vertex -103.15 -74.9426 5
      vertex -98.2404 -81.2716 5
    endloop
  endfacet
  facet normal 0 0 1
    outer loop
      vertex -105.541 -66.9783 5
      vertex -103.15 -74.9426 5
      vertex -101.127 -73.4732 5
    endloop
  endfacet
  facet normal 0 0 1
    outer loop
      vertex -105.541 -66.9783 5
      vertex -107.652 -68.3179 5
      vertex -103.15 -74.9426 5
    endloop
  endfacet
  facet normal 0 0 1
    outer loop
      vertex -109.538 -60.2192 5
      vertex -107.652 -68.3179 5
      vertex -105.541 -66.9783 5
    endloop
  endfacet
  facet normal 0 0 1
    outer loop
      vertex -111.729 -61.4236 5
      vertex -109.538 -60.2192 5
      vertex -109.65 -60 5
    endloop
  endfacet
  facet normal 0 0 1
    outer loop
      vertex -109.538 -60.2192 5
      vertex -111.729 -61.4236 5
      vertex -107.652 -68.3179 5
    endloop
  endfacet
  facet normal 0 -0 1
    outer loop
      vertex -111.729 -61.4236 5
      vertex -109.65 -60 5
      vertex -112.454 -60 5
    endloop
  endfacet
  facet normal -0.661309 -0.750114 0
    outer loop
      vertex -87.2798 -92.9435 0
      vertex -81.2716 -98.2404 5
      vertex -87.2798 -92.9435 5
    endloop
  endfacet
  facet normal -0.661309 -0.750114 -0
    outer loop
      vertex -81.2716 -98.2404 5
      vertex -87.2798 -92.9435 0
      vertex -81.2716 -98.2404 0
    endloop
  endfacet
  facet normal -0.860757 -0.509016 0
    outer loop
      vertex -107.652 -68.3179 0
      vertex -111.729 -61.4236 5
      vertex -111.729 -61.4236 0
    endloop
  endfacet
  facet normal -0.860757 -0.509016 0
    outer loop
      vertex -111.729 -61.4236 5
      vertex -107.652 -68.3179 0
      vertex -107.652 -68.3179 5
    endloop
  endfacet
  facet normal 0 0 -1
    outer loop
      vertex -61.4236 -111.729 0
      vertex -60 -103.862 0
      vertex -60 -112.454 0
    endloop
  endfacet
  facet normal 0 0 -1
    outer loop
      vertex -68.3179 -107.652 0
      vertex -60 -103.862 0
      vertex -61.4236 -111.729 0
    endloop
  endfacet
  facet normal -0 0 -1
    outer loop
      vertex -60 -103.862 0
      vertex -68.3179 -107.652 0
      vertex -64.2992 -101.319 0
    endloop
  endfacet
  facet normal 0 0 -1
    outer loop
      vertex -68.3179 -107.652 0
      vertex -70.5342 -97.082 0
      vertex -64.2992 -101.319 0
    endloop
  endfacet
  facet normal 0 0 -1
    outer loop
      vertex -74.9426 -103.15 0
      vertex -70.5342 -97.082 0
      vertex -68.3179 -107.652 0
    endloop
  endfacet
  facet normal 0 0 -1
    outer loop
      vertex -74.9426 -103.15 0
      vertex -76.4909 -92.4616 0
      vertex -70.5342 -97.082 0
    endloop
  endfacet
  facet normal 0 0 -1
    outer loop
      vertex -81.2716 -98.2404 0
      vertex -76.4909 -92.4616 0
      vertex -74.9426 -103.15 0
    endloop
  endfacet
  facet normal 0 0 -1
    outer loop
      vertex -81.2716 -98.2404 0
      vertex -82.1457 -87.4762 0
      vertex -76.4909 -92.4616 0
    endloop
  endfacet
  facet normal 0 0 -1
    outer loop
      vertex -87.2798 -92.9435 0
      vertex -82.1457 -87.4762 0
      vertex -81.2716 -98.2404 0
    endloop
  endfacet
  facet normal 0 0 -1
    outer loop
      vertex -87.2798 -92.9435 0
      vertex -87.4762 -82.1457 0
      vertex -82.1457 -87.4762 0
    endloop
  endfacet
  facet normal 0 0 -1
    outer loop
      vertex -92.9435 -87.2798 0
      vertex -87.4762 -82.1457 0
      vertex -87.2798 -92.9435 0
    endloop
  endfacet
  facet normal -0 0 -1
    outer loop
      vertex -87.4762 -82.1457 0
      vertex -92.9435 -87.2798 0
      vertex -92.4616 -76.4909 0
    endloop
  endfacet
  facet normal 0 0 -1
    outer loop
      vertex -98.2404 -81.2716 0
      vertex -92.4616 -76.4909 0
      vertex -92.9435 -87.2798 0
    endloop
  endfacet
  facet normal -0 0 -1
    outer loop
      vertex -92.4616 -76.4909 0
      vertex -98.2404 -81.2716 0
      vertex -97.082 -70.5342 0
    endloop
  endfacet
  facet normal 0 0 -1
    outer loop
      vertex -103.15 -74.9426 0
      vertex -97.082 -70.5342 0
      vertex -98.2404 -81.2716 0
    endloop
  endfacet
  facet normal -0 0 -1
    outer loop
      vertex -97.082 -70.5342 0
      vertex -103.15 -74.9426 0
      vertex -101.319 -64.2992 0
    endloop
  endfacet
  facet normal 0 0 -1
    outer loop
      vertex -107.652 -68.3179 0
      vertex -101.319 -64.2992 0
      vertex -103.15 -74.9426 0
    endloop
  endfacet
  facet normal -0 0 -1
    outer loop
      vertex -101.319 -64.2992 0
      vertex -107.652 -68.3179 0
      vertex -103.862 -60 0
    endloop
  endfacet
  facet normal 0 0 -1
    outer loop
      vertex -111.729 -61.4236 0
      vertex -103.862 -60 0
      vertex -107.652 -68.3179 0
    endloop
  endfacet
  facet normal -0 0 -1
    outer loop
      vertex -103.862 -60 0
      vertex -111.729 -61.4236 0
      vertex -112.454 -60 0
    endloop
  endfacet
  facet normal 0.661313 0.75011 -0
    outer loop
      vertex -79.678 -96.3142 1
      vertex -85.5684 -91.1211 5
      vertex -79.678 -96.3142 5
    endloop
  endfacet
  facet normal 0.661313 0.75011 0
    outer loop
      vertex -85.5684 -91.1211 5
      vertex -79.678 -96.3142 1
      vertex -85.5684 -91.1211 1
    endloop
  endfacet
  facet normal 0.612896 0.790163 -0
    outer loop
      vertex -73.4732 -101.127 1
      vertex -79.678 -96.3142 5
      vertex -73.4732 -101.127 5
    endloop
  endfacet
  facet normal 0.612896 0.790163 0
    outer loop
      vertex -79.678 -96.3142 5
      vertex -73.4732 -101.127 1
      vertex -79.678 -96.3142 1
    endloop
  endfacet
  facet normal 0.86076 0.509011 0
    outer loop
      vertex -105.541 -66.9783 5
      vertex -109.538 -60.2192 1
      vertex -109.538 -60.2192 5
    endloop
  endfacet
  facet normal 0.86076 0.509011 0
    outer loop
      vertex -109.538 -60.2192 1
      vertex -105.541 -66.9783 5
      vertex -105.541 -66.9783 1
    endloop
  endfacet
  facet normal 0 0 1
    outer loop
      vertex -60 -103.862 1
      vertex -60.2192 -109.538 1
      vertex -60 -109.65 1
    endloop
  endfacet
  facet normal 0 0 1
    outer loop
      vertex -66.9783 -105.541 1
      vertex -60 -103.862 1
      vertex -64.2992 -101.319 1
    endloop
  endfacet
  facet normal 0 0 1
    outer loop
      vertex -60 -103.862 1
      vertex -66.9783 -105.541 1
      vertex -60.2192 -109.538 1
    endloop
  endfacet
  facet normal 0 0 1
    outer loop
      vertex -70.5342 -97.082 1
      vertex -66.9783 -105.541 1
      vertex -64.2992 -101.319 1
    endloop
  endfacet
  facet normal 0 0 1
    outer loop
      vertex -70.5342 -97.082 1
      vertex -73.4732 -101.127 1
      vertex -66.9783 -105.541 1
    endloop
  endfacet
  facet normal 0 0 1
    outer loop
      vertex -76.4909 -92.4616 1
      vertex -73.4732 -101.127 1
      vertex -70.5342 -97.082 1
    endloop
  endfacet
  facet normal 0 0 1
    outer loop
      vertex -76.4909 -92.4616 1
      vertex -79.678 -96.3142 1
      vertex -73.4732 -101.127 1
    endloop
  endfacet
  facet normal 0 0 1
    outer loop
      vertex -82.1457 -87.4762 1
      vertex -79.678 -96.3142 1
      vertex -76.4909 -92.4616 1
    endloop
  endfacet
  facet normal 0 0 1
    outer loop
      vertex -82.1457 -87.4762 1
      vertex -85.5684 -91.1211 1
      vertex -79.678 -96.3142 1
    endloop
  endfacet
  facet normal 0 0 1
    outer loop
      vertex -87.4762 -82.1457 1
      vertex -85.5684 -91.1211 1
      vertex -82.1457 -87.4762 1
    endloop
  endfacet
  facet normal 0 0 1
    outer loop
      vertex -87.4762 -82.1457 1
      vertex -91.1211 -85.5684 1
      vertex -85.5684 -91.1211 1
    endloop
  endfacet
  facet normal 0 0 1
    outer loop
      vertex -92.4616 -76.4909 1
      vertex -91.1211 -85.5684 1
      vertex -87.4762 -82.1457 1
    endloop
  endfacet
  facet normal 0 0 1
    outer loop
      vertex -92.4616 -76.4909 1
      vertex -96.3142 -79.678 1
      vertex -91.1211 -85.5684 1
    endloop
  endfacet
  facet normal 0 0 1
    outer loop
      vertex -97.082 -70.5342 1
      vertex -96.3142 -79.678 1
      vertex -92.4616 -76.4909 1
    endloop
  endfacet
  facet normal 0 0 1
    outer loop
      vertex -97.082 -70.5342 1
      vertex -101.127 -73.4732 1
      vertex -96.3142 -79.678 1
    endloop
  endfacet
  facet normal 0 0 1
    outer loop
      vertex -101.319 -64.2992 1
      vertex -101.127 -73.4732 1
      vertex -97.082 -70.5342 1
    endloop
  endfacet
  facet normal 0 0 1
    outer loop
      vertex -105.541 -66.9783 1
      vertex -101.319 -64.2992 1
      vertex -103.862 -60 1
    endloop
  endfacet
  facet normal 0 0 1
    outer loop
      vertex -101.319 -64.2992 1
      vertex -105.541 -66.9783 1
      vertex -101.127 -73.4732 1
    endloop
  endfacet
  facet normal 0 0 1
    outer loop
      vertex -103.862 -60 1
      vertex -109.538 -60.2192 1
      vertex -105.541 -66.9783 1
    endloop
  endfacet
  facet normal 0 -0 1
    outer loop
      vertex -109.538 -60.2192 1
      vertex -103.862 -60 1
      vertex -109.65 -60 1
    endloop
  endfacet
  facet normal 0.707107 0.707107 0
    outer loop
      vertex -85.5684 -91.1211 5
      vertex -91.1211 -85.5684 1
      vertex -91.1211 -85.5684 5
    endloop
  endfacet
  facet normal 0.707107 0.707107 0
    outer loop
      vertex -91.1211 -85.5684 1
      vertex -85.5684 -91.1211 5
      vertex -85.5684 -91.1211 1
    endloop
  endfacet
  facet normal 0.790163 0.612896 0
    outer loop
      vertex -96.3142 -79.678 5
      vertex -101.127 -73.4732 1
      vertex -101.127 -73.4732 5
    endloop
  endfacet
  facet normal 0.790163 0.612896 0
    outer loop
      vertex -101.127 -73.4732 1
      vertex -96.3142 -79.678 5
      vertex -96.3142 -79.678 1
    endloop
  endfacet
  facet normal 0.454997 0.890493 -0
    outer loop
      vertex -60 -109.65 1
      vertex -60.2192 -109.538 5
      vertex -60 -109.65 5
    endloop
  endfacet
  facet normal 0.454997 0.890493 0
    outer loop
      vertex -60.2192 -109.538 5
      vertex -60 -109.65 1
      vertex -60.2192 -109.538 1
    endloop
  endfacet
  facet normal 0.509011 0.86076 -0
    outer loop
      vertex -60.2192 -109.538 1
      vertex -66.9783 -105.541 5
      vertex -60.2192 -109.538 5
    endloop
  endfacet
  facet normal 0.509011 0.86076 0
    outer loop
      vertex -66.9783 -105.541 5
      vertex -60.2192 -109.538 1
      vertex -66.9783 -105.541 1
    endloop
  endfacet
  facet normal 0.827076 0.56209 0
    outer loop
      vertex -101.127 -73.4732 5
      vertex -105.541 -66.9783 1
      vertex -105.541 -66.9783 5
    endloop
  endfacet
  facet normal 0.827076 0.56209 0
    outer loop
      vertex -105.541 -66.9783 1
      vertex -101.127 -73.4732 5
      vertex -101.127 -73.4732 1
    endloop
  endfacet
  facet normal 0.75011 0.661313 0
    outer loop
      vertex -91.1211 -85.5684 5
      vertex -96.3142 -79.678 1
      vertex -96.3142 -79.678 5
    endloop
  endfacet
  facet normal 0.75011 0.661313 0
    outer loop
      vertex -96.3142 -79.678 1
      vertex -91.1211 -85.5684 5
      vertex -91.1211 -85.5684 1
    endloop
  endfacet
  facet normal 0.890493 0.454997 0
    outer loop
      vertex -109.538 -60.2192 5
      vertex -109.65 -60 1
      vertex -109.65 -60 5
    endloop
  endfacet
  facet normal 0.890493 0.454997 0
    outer loop
      vertex -109.65 -60 1
      vertex -109.538 -60.2192 5
      vertex -109.538 -60.2192 1
    endloop
  endfacet
  facet normal 0.56209 0.827076 -0
    outer loop
      vertex -66.9783 -105.541 1
      vertex -73.4732 -101.127 5
      vertex -66.9783 -105.541 5
    endloop
  endfacet
  facet normal 0.56209 0.827076 0
    outer loop
      vertex -73.4732 -101.127 5
      vertex -66.9783 -105.541 1
      vertex -73.4732 -101.127 1
    endloop
  endfacet
  facet normal 0.860702 0.50911 0
    outer loop
      vertex -101.319 -64.2992 1
      vertex -103.862 -60 0
      vertex -103.862 -60 1
    endloop
  endfacet
  facet normal 0.860702 0.50911 0
    outer loop
      vertex -103.862 -60 0
      vertex -101.319 -64.2992 1
      vertex -101.319 -64.2992 0
    endloop
  endfacet
  facet normal 0.6129 0.790161 -0
    outer loop
      vertex -70.5342 -97.082 0
      vertex -76.4909 -92.4616 1
      vertex -70.5342 -97.082 1
    endloop
  endfacet
  facet normal 0.6129 0.790161 0
    outer loop
      vertex -76.4909 -92.4616 1
      vertex -70.5342 -97.082 0
      vertex -76.4909 -92.4616 0
    endloop
  endfacet
  facet normal 0.827099 0.562056 0
    outer loop
      vertex -97.082 -70.5342 1
      vertex -101.319 -64.2992 0
      vertex -101.319 -64.2992 1
    endloop
  endfacet
  facet normal 0.827099 0.562056 0
    outer loop
      vertex -101.319 -64.2992 0
      vertex -97.082 -70.5342 1
      vertex -97.082 -70.5342 0
    endloop
  endfacet
  facet normal 0.707107 0.707107 0
    outer loop
      vertex -82.1457 -87.4762 1
      vertex -87.4762 -82.1457 0
      vertex -87.4762 -82.1457 1
    endloop
  endfacet
  facet normal 0.707107 0.707107 0
    outer loop
      vertex -87.4762 -82.1457 0
      vertex -82.1457 -87.4762 1
      vertex -82.1457 -87.4762 0
    endloop
  endfacet
  facet normal 0.562056 0.827099 -0
    outer loop
      vertex -64.2992 -101.319 0
      vertex -70.5342 -97.082 1
      vertex -64.2992 -101.319 1
    endloop
  endfacet
  facet normal 0.562056 0.827099 0
    outer loop
      vertex -70.5342 -97.082 1
      vertex -64.2992 -101.319 0
      vertex -70.5342 -97.082 0
    endloop
  endfacet
  facet normal 0.790161 0.6129 0
    outer loop
      vertex -92.4616 -76.4909 1
      vertex -97.082 -70.5342 0
      vertex -97.082 -70.5342 1
    endloop
  endfacet
  facet normal 0.790161 0.6129 0
    outer loop
      vertex -97.082 -70.5342 0
      vertex -92.4616 -76.4909 1
      vertex -92.4616 -76.4909 0
    endloop
  endfacet
  facet normal 0.661314 0.75011 -0
    outer loop
      vertex -76.4909 -92.4616 0
      vertex -82.1457 -87.4762 1
      vertex -76.4909 -92.4616 1
    endloop
  endfacet
  facet normal 0.661314 0.75011 0
    outer loop
      vertex -82.1457 -87.4762 1
      vertex -76.4909 -92.4616 0
      vertex -82.1457 -87.4762 0
    endloop
  endfacet
  facet normal 0.75011 0.661314 0
    outer loop
      vertex -87.4762 -82.1457 1
      vertex -92.4616 -76.4909 0
      vertex -92.4616 -76.4909 1
    endloop
  endfacet
  facet normal 0.75011 0.661314 0
    outer loop
      vertex -92.4616 -76.4909 0
      vertex -87.4762 -82.1457 1
      vertex -87.4762 -82.1457 0
    endloop
  endfacet
  facet normal 0.50911 0.860702 -0
    outer loop
      vertex -60 -103.862 0
      vertex -64.2992 -101.319 1
      vertex -60 -103.862 1
    endloop
  endfacet
  facet normal 0.50911 0.860702 0
    outer loop
      vertex -64.2992 -101.319 1
      vertex -60 -103.862 0
      vertex -64.2992 -101.319 0
    endloop
  endfacet
  facet normal 0 1 0
    outer loop
      vertex -103.862 -60 1
      vertex -103.862 -60 0
      vertex -109.65 -60 1
    endloop
  endfacet
  facet normal 0 1 -0
    outer loop
      vertex -109.65 -60 1
      vertex -112.454 -60 5
      vertex -109.65 -60 5
    endloop
  endfacet
  facet normal 0 1 0
    outer loop
      vertex -109.65 -60 1
      vertex -112.454 -60 0
      vertex -112.454 -60 5
    endloop
  endfacet
  facet normal 0 1 0
    outer loop
      vertex -112.454 -60 0
      vertex -109.65 -60 1
      vertex -103.862 -60 0
    endloop
  endfacet
  facet normal 1 0 0
    outer loop
      vertex -60 -109.65 5
      vertex -60 -112.454 5
      vertex -60 -109.65 1
    endloop
  endfacet
  facet normal 1 -0 0
    outer loop
      vertex -60 -109.65 1
      vertex -60 -103.862 0
      vertex -60 -103.862 1
    endloop
  endfacet
  facet normal 1 0 0
    outer loop
      vertex -60 -109.65 1
      vertex -60 -112.454 0
      vertex -60 -103.862 0
    endloop
  endfacet
  facet normal 1 0 0
    outer loop
      vertex -60 -112.454 0
      vertex -60 -109.65 1
      vertex -60 -112.454 5
    endloop
  endfacet
endsolid OpenSCAD_Model
