solid OpenSCAD_Model
  facet normal 0.951054 0.309024 0
    outer loop
      vertex 12.4714 2.65087 2
      vertex 11.6477 5.18589 0
      vertex 11.6477 5.18589 2
    endloop
  endfacet
  facet normal 0.951054 0.309024 0
    outer loop
      vertex 11.6477 5.18589 0
      vertex 12.4714 2.65087 2
      vertex 12.4714 2.65087 0
    endloop
  endfacet
  facet normal 0.994523 0.104522 0
    outer loop
      vertex 12.75 0 2
      vertex 12.4714 2.65087 0
      vertex 12.4714 2.65087 2
    endloop
  endfacet
  facet normal 0.994523 0.104522 0
    outer loop
      vertex 12.4714 2.65087 0
      vertex 12.75 0 2
      vertex 12.75 0 0
    endloop
  endfacet
  facet normal -0.406754 -0.913538 0
    outer loop
      vertex -6.375 -11.0418 0
      vertex -3.93997 -12.126 2
      vertex -6.375 -11.0418 2
    endloop
  endfacet
  facet normal -0.406754 -0.913538 -0
    outer loop
      vertex -3.93997 -12.126 2
      vertex -6.375 -11.0418 0
      vertex -3.93997 -12.126 0
    endloop
  endfacet
  facet normal 0.866032 -0.499989 0
    outer loop
      vertex 10.315 -7.49426 2
      vertex 11.6477 -5.18589 0
      vertex 11.6477 -5.18589 2
    endloop
  endfacet
  facet normal 0.866032 -0.499989 0
    outer loop
      vertex 11.6477 -5.18589 0
      vertex 10.315 -7.49426 2
      vertex 10.315 -7.49426 0
    endloop
  endfacet
  facet normal -0.587779 0.809021 0
    outer loop
      vertex -6.375 11.0418 0
      vertex -8.53141 9.4751 2
      vertex -6.375 11.0418 2
    endloop
  endfacet
  facet normal -0.587779 0.809021 0
    outer loop
      vertex -8.53141 9.4751 2
      vertex -6.375 11.0418 0
      vertex -8.53141 9.4751 0
    endloop
  endfacet
  facet normal -0.743139 0.669138 0
    outer loop
      vertex -10.315 7.49426 0
      vertex -8.53141 9.4751 2
      vertex -8.53141 9.4751 0
    endloop
  endfacet
  facet normal -0.743139 0.669138 0
    outer loop
      vertex -8.53141 9.4751 2
      vertex -10.315 7.49426 0
      vertex -10.315 7.49426 2
    endloop
  endfacet
  facet normal -0.207917 -0.978146 0
    outer loop
      vertex -3.93997 -12.126 0
      vertex -1.33274 -12.6802 2
      vertex -3.93997 -12.126 2
    endloop
  endfacet
  facet normal -0.207917 -0.978146 -0
    outer loop
      vertex -1.33274 -12.6802 2
      vertex -3.93997 -12.126 0
      vertex -1.33274 -12.6802 0
    endloop
  endfacet
  facet normal 0.951054 -0.309024 0
    outer loop
      vertex 11.6477 -5.18589 2
      vertex 12.4714 -2.65087 0
      vertex 12.4714 -2.65087 2
    endloop
  endfacet
  facet normal 0.951054 -0.309024 0
    outer loop
      vertex 12.4714 -2.65087 0
      vertex 11.6477 -5.18589 2
      vertex 11.6477 -5.18589 0
    endloop
  endfacet
  facet normal 0.406754 -0.913538 0
    outer loop
      vertex 3.93997 -12.126 0
      vertex 6.375 -11.0418 2
      vertex 3.93997 -12.126 2
    endloop
  endfacet
  facet normal 0.406754 -0.913538 0
    outer loop
      vertex 6.375 -11.0418 2
      vertex 3.93997 -12.126 0
      vertex 6.375 -11.0418 0
    endloop
  endfacet
  facet normal -0.743139 -0.669138 0
    outer loop
      vertex -8.53141 -9.4751 0
      vertex -10.315 -7.49426 2
      vertex -10.315 -7.49426 0
    endloop
  endfacet
  facet normal -0.743139 -0.669138 0
    outer loop
      vertex -10.315 -7.49426 2
      vertex -8.53141 -9.4751 0
      vertex -8.53141 -9.4751 2
    endloop
  endfacet
  facet normal -0.866032 0.499989 0
    outer loop
      vertex -11.6477 5.18589 0
      vertex -10.315 7.49426 2
      vertex -10.315 7.49426 0
    endloop
  endfacet
  facet normal -0.866032 0.499989 0
    outer loop
      vertex -10.315 7.49426 2
      vertex -11.6477 5.18589 0
      vertex -11.6477 5.18589 2
    endloop
  endfacet
  facet normal -0.866032 -0.499989 0
    outer loop
      vertex -10.315 -7.49426 0
      vertex -11.6477 -5.18589 2
      vertex -11.6477 -5.18589 0
    endloop
  endfacet
  facet normal -0.866032 -0.499989 0
    outer loop
      vertex -11.6477 -5.18589 2
      vertex -10.315 -7.49426 0
      vertex -10.315 -7.49426 2
    endloop
  endfacet
  facet normal -0.951054 -0.309024 0
    outer loop
      vertex -11.6477 -5.18589 0
      vertex -12.4714 -2.65087 2
      vertex -12.4714 -2.65087 0
    endloop
  endfacet
  facet normal -0.951054 -0.309024 0
    outer loop
      vertex -12.4714 -2.65087 2
      vertex -11.6477 -5.18589 0
      vertex -11.6477 -5.18589 2
    endloop
  endfacet
  facet normal 0.587779 0.809021 -0
    outer loop
      vertex 8.53141 9.4751 0
      vertex 6.375 11.0418 2
      vertex 8.53141 9.4751 2
    endloop
  endfacet
  facet normal 0.587779 0.809021 0
    outer loop
      vertex 6.375 11.0418 2
      vertex 8.53141 9.4751 0
      vertex 6.375 11.0418 0
    endloop
  endfacet
  facet normal -0.587779 -0.809021 0
    outer loop
      vertex -8.53141 -9.4751 0
      vertex -6.375 -11.0418 2
      vertex -8.53141 -9.4751 2
    endloop
  endfacet
  facet normal -0.587779 -0.809021 -0
    outer loop
      vertex -6.375 -11.0418 2
      vertex -8.53141 -9.4751 0
      vertex -6.375 -11.0418 0
    endloop
  endfacet
  facet normal 0 -1 0
    outer loop
      vertex -1.33274 -12.6802 0
      vertex 1.33274 -12.6802 2
      vertex -1.33274 -12.6802 2
    endloop
  endfacet
  facet normal 0 -1 -0
    outer loop
      vertex 1.33274 -12.6802 2
      vertex -1.33274 -12.6802 0
      vertex 1.33274 -12.6802 0
    endloop
  endfacet
  facet normal 0.207917 0.978146 -0
    outer loop
      vertex 3.93997 12.126 0
      vertex 1.33274 12.6802 2
      vertex 3.93997 12.126 2
    endloop
  endfacet
  facet normal 0.207917 0.978146 0
    outer loop
      vertex 1.33274 12.6802 2
      vertex 3.93997 12.126 0
      vertex 1.33274 12.6802 0
    endloop
  endfacet
  facet normal 0 1 -0
    outer loop
      vertex 1.33274 12.6802 0
      vertex -1.33274 12.6802 2
      vertex 1.33274 12.6802 2
    endloop
  endfacet
  facet normal 0 1 0
    outer loop
      vertex -1.33274 12.6802 2
      vertex 1.33274 12.6802 0
      vertex -1.33274 12.6802 0
    endloop
  endfacet
  facet normal 0.406754 0.913538 -0
    outer loop
      vertex 6.375 11.0418 0
      vertex 3.93997 12.126 2
      vertex 6.375 11.0418 2
    endloop
  endfacet
  facet normal 0.406754 0.913538 0
    outer loop
      vertex 3.93997 12.126 2
      vertex 6.375 11.0418 0
      vertex 3.93997 12.126 0
    endloop
  endfacet
  facet normal 0.587779 -0.809021 0
    outer loop
      vertex 6.375 -11.0418 0
      vertex 8.53141 -9.4751 2
      vertex 6.375 -11.0418 2
    endloop
  endfacet
  facet normal 0.587779 -0.809021 0
    outer loop
      vertex 8.53141 -9.4751 2
      vertex 6.375 -11.0418 0
      vertex 8.53141 -9.4751 0
    endloop
  endfacet
  facet normal 0.207917 -0.978146 0
    outer loop
      vertex 1.33274 -12.6802 0
      vertex 3.93997 -12.126 2
      vertex 1.33274 -12.6802 2
    endloop
  endfacet
  facet normal 0.207917 -0.978146 0
    outer loop
      vertex 3.93997 -12.126 2
      vertex 1.33274 -12.6802 0
      vertex 3.93997 -12.126 0
    endloop
  endfacet
  facet normal -0.994523 -0.104522 0
    outer loop
      vertex -12.4714 -2.65087 0
      vertex -12.75 0 2
      vertex -12.75 0 0
    endloop
  endfacet
  facet normal -0.994523 -0.104522 0
    outer loop
      vertex -12.75 0 2
      vertex -12.4714 -2.65087 0
      vertex -12.4714 -2.65087 2
    endloop
  endfacet
  facet normal 0.743139 -0.669138 0
    outer loop
      vertex 8.53141 -9.4751 2
      vertex 10.315 -7.49426 0
      vertex 10.315 -7.49426 2
    endloop
  endfacet
  facet normal 0.743139 -0.669138 0
    outer loop
      vertex 10.315 -7.49426 0
      vertex 8.53141 -9.4751 2
      vertex 8.53141 -9.4751 0
    endloop
  endfacet
  facet normal 0.743139 0.669138 0
    outer loop
      vertex 10.315 7.49426 2
      vertex 8.53141 9.4751 0
      vertex 8.53141 9.4751 2
    endloop
  endfacet
  facet normal 0.743139 0.669138 0
    outer loop
      vertex 8.53141 9.4751 0
      vertex 10.315 7.49426 2
      vertex 10.315 7.49426 0
    endloop
  endfacet
  facet normal -0.406754 0.913538 0
    outer loop
      vertex -3.93997 12.126 0
      vertex -6.375 11.0418 2
      vertex -3.93997 12.126 2
    endloop
  endfacet
  facet normal -0.406754 0.913538 0
    outer loop
      vertex -6.375 11.0418 2
      vertex -3.93997 12.126 0
      vertex -6.375 11.0418 0
    endloop
  endfacet
  facet normal -0.994523 0.104522 0
    outer loop
      vertex -12.75 0 0
      vertex -12.4714 2.65087 2
      vertex -12.4714 2.65087 0
    endloop
  endfacet
  facet normal -0.994523 0.104522 0
    outer loop
      vertex -12.4714 2.65087 2
      vertex -12.75 0 0
      vertex -12.75 0 2
    endloop
  endfacet
  facet normal 0.994523 -0.104522 0
    outer loop
      vertex 12.4714 -2.65087 2
      vertex 12.75 0 0
      vertex 12.75 0 2
    endloop
  endfacet
  facet normal 0.994523 -0.104522 0
    outer loop
      vertex 12.75 0 0
      vertex 12.4714 -2.65087 2
      vertex 12.4714 -2.65087 0
    endloop
  endfacet
  facet normal -0.951054 0.309024 0
    outer loop
      vertex -12.4714 2.65087 0
      vertex -11.6477 5.18589 2
      vertex -11.6477 5.18589 0
    endloop
  endfacet
  facet normal -0.951054 0.309024 0
    outer loop
      vertex -11.6477 5.18589 2
      vertex -12.4714 2.65087 0
      vertex -12.4714 2.65087 2
    endloop
  endfacet
  facet normal 0 0 1
    outer loop
      vertex 12.25 0 2
      vertex 12.75 0 2
      vertex 12.4714 2.65087 2
    endloop
  endfacet
  facet normal 0 0 1
    outer loop
      vertex 12.75 0 2
      vertex 12.25 0 2
      vertex 12.4714 -2.65087 2
    endloop
  endfacet
  facet normal 0 0 1
    outer loop
      vertex 12.4714 2.65087 2
      vertex 11.9823 2.54692 2
      vertex 12.25 0 2
    endloop
  endfacet
  facet normal 0 0 1
    outer loop
      vertex 11.6477 5.18589 2
      vertex 11.9823 2.54692 2
      vertex 12.4714 2.65087 2
    endloop
  endfacet
  facet normal 0 0 1
    outer loop
      vertex 11.6477 5.18589 2
      vertex 11.1909 4.98252 2
      vertex 11.9823 2.54692 2
    endloop
  endfacet
  facet normal 0 0 1
    outer loop
      vertex 10.315 7.49426 2
      vertex 11.1909 4.98252 2
      vertex 11.6477 5.18589 2
    endloop
  endfacet
  facet normal 0 0 1
    outer loop
      vertex 10.315 7.49426 2
      vertex 9.91046 7.20037 2
      vertex 11.1909 4.98252 2
    endloop
  endfacet
  facet normal 0 0 1
    outer loop
      vertex 8.53141 9.4751 2
      vertex 9.91046 7.20037 2
      vertex 10.315 7.49426 2
    endloop
  endfacet
  facet normal 0 0 1
    outer loop
      vertex 8.53141 9.4751 2
      vertex 8.19685 9.10352 2
      vertex 9.91046 7.20037 2
    endloop
  endfacet
  facet normal 0 0 1
    outer loop
      vertex 6.375 11.0418 2
      vertex 8.19685 9.10352 2
      vertex 8.53141 9.4751 2
    endloop
  endfacet
  facet normal 0 0 1
    outer loop
      vertex 6.375 11.0418 2
      vertex 6.125 10.6088 2
      vertex 8.19685 9.10352 2
    endloop
  endfacet
  facet normal 0 0 1
    outer loop
      vertex 3.93997 12.126 2
      vertex 6.125 10.6088 2
      vertex 6.375 11.0418 2
    endloop
  endfacet
  facet normal 0 0 1
    outer loop
      vertex 3.93997 12.126 2
      vertex 3.78546 11.6504 2
      vertex 6.125 10.6088 2
    endloop
  endfacet
  facet normal 0 0 1
    outer loop
      vertex 1.33274 12.6802 2
      vertex 3.78546 11.6504 2
      vertex 3.93997 12.126 2
    endloop
  endfacet
  facet normal 0 0 1
    outer loop
      vertex 1.33274 12.6802 2
      vertex 1.28047 12.1829 2
      vertex 3.78546 11.6504 2
    endloop
  endfacet
  facet normal 0 0 1
    outer loop
      vertex 1.33274 12.6802 2
      vertex -1.28047 12.1829 2
      vertex 1.28047 12.1829 2
    endloop
  endfacet
  facet normal -0 0 1
    outer loop
      vertex -1.33274 12.6802 2
      vertex -1.28047 12.1829 2
      vertex 1.33274 12.6802 2
    endloop
  endfacet
  facet normal 0 0 1
    outer loop
      vertex -1.33274 12.6802 2
      vertex -3.78546 11.6504 2
      vertex -1.28047 12.1829 2
    endloop
  endfacet
  facet normal -0 0 1
    outer loop
      vertex -3.93997 12.126 2
      vertex -3.78546 11.6504 2
      vertex -1.33274 12.6802 2
    endloop
  endfacet
  facet normal 0 0 1
    outer loop
      vertex -3.93997 12.126 2
      vertex -6.125 10.6088 2
      vertex -3.78546 11.6504 2
    endloop
  endfacet
  facet normal -0 0 1
    outer loop
      vertex -6.375 11.0418 2
      vertex -6.125 10.6088 2
      vertex -3.93997 12.126 2
    endloop
  endfacet
  facet normal 0 0 1
    outer loop
      vertex -6.375 11.0418 2
      vertex -8.19685 9.10352 2
      vertex -6.125 10.6088 2
    endloop
  endfacet
  facet normal -0 0 1
    outer loop
      vertex -8.53141 9.4751 2
      vertex -8.19685 9.10352 2
      vertex -6.375 11.0418 2
    endloop
  endfacet
  facet normal 0 0 1
    outer loop
      vertex -8.53141 9.4751 2
      vertex -9.91046 7.20037 2
      vertex -8.19685 9.10352 2
    endloop
  endfacet
  facet normal -0 0 1
    outer loop
      vertex -10.315 7.49426 2
      vertex -9.91046 7.20037 2
      vertex -8.53141 9.4751 2
    endloop
  endfacet
  facet normal 0 0 1
    outer loop
      vertex -10.315 7.49426 2
      vertex -11.1909 4.98252 2
      vertex -9.91046 7.20037 2
    endloop
  endfacet
  facet normal -0 0 1
    outer loop
      vertex -11.6477 5.18589 2
      vertex -11.1909 4.98252 2
      vertex -10.315 7.49426 2
    endloop
  endfacet
  facet normal 0 0 1
    outer loop
      vertex -11.6477 5.18589 2
      vertex -11.9823 2.54692 2
      vertex -11.1909 4.98252 2
    endloop
  endfacet
  facet normal 0 0 1
    outer loop
      vertex -11.9823 2.54692 2
      vertex -12.4714 2.65087 2
      vertex -12.25 0 2
    endloop
  endfacet
  facet normal -0 0 1
    outer loop
      vertex -12.4714 2.65087 2
      vertex -11.9823 2.54692 2
      vertex -11.6477 5.18589 2
    endloop
  endfacet
  facet normal -0 0 1
    outer loop
      vertex 11.9823 -2.54692 2
      vertex 12.4714 -2.65087 2
      vertex 12.25 0 2
    endloop
  endfacet
  facet normal 0 0 1
    outer loop
      vertex 11.9823 -2.54692 2
      vertex 11.6477 -5.18589 2
      vertex 12.4714 -2.65087 2
    endloop
  endfacet
  facet normal -0 0 1
    outer loop
      vertex 11.1909 -4.98252 2
      vertex 11.6477 -5.18589 2
      vertex 11.9823 -2.54692 2
    endloop
  endfacet
  facet normal 0 0 1
    outer loop
      vertex 11.1909 -4.98252 2
      vertex 10.315 -7.49426 2
      vertex 11.6477 -5.18589 2
    endloop
  endfacet
  facet normal -0 0 1
    outer loop
      vertex 9.91046 -7.20037 2
      vertex 10.315 -7.49426 2
      vertex 11.1909 -4.98252 2
    endloop
  endfacet
  facet normal 0 0 1
    outer loop
      vertex 9.91046 -7.20037 2
      vertex 8.53141 -9.4751 2
      vertex 10.315 -7.49426 2
    endloop
  endfacet
  facet normal -0 0 1
    outer loop
      vertex 8.19685 -9.10352 2
      vertex 8.53141 -9.4751 2
      vertex 9.91046 -7.20037 2
    endloop
  endfacet
  facet normal 0 0 1
    outer loop
      vertex 8.19685 -9.10352 2
      vertex 6.375 -11.0418 2
      vertex 8.53141 -9.4751 2
    endloop
  endfacet
  facet normal -0 0 1
    outer loop
      vertex 6.125 -10.6088 2
      vertex 6.375 -11.0418 2
      vertex 8.19685 -9.10352 2
    endloop
  endfacet
  facet normal 0 0 1
    outer loop
      vertex 6.125 -10.6088 2
      vertex 3.93997 -12.126 2
      vertex 6.375 -11.0418 2
    endloop
  endfacet
  facet normal -0 0 1
    outer loop
      vertex 3.78546 -11.6504 2
      vertex 3.93997 -12.126 2
      vertex 6.125 -10.6088 2
    endloop
  endfacet
  facet normal 0 0 1
    outer loop
      vertex 3.78546 -11.6504 2
      vertex 1.33274 -12.6802 2
      vertex 3.93997 -12.126 2
    endloop
  endfacet
  facet normal -0 0 1
    outer loop
      vertex 1.28047 -12.1829 2
      vertex 1.33274 -12.6802 2
      vertex 3.78546 -11.6504 2
    endloop
  endfacet
  facet normal -0 0 1
    outer loop
      vertex -1.28047 -12.1829 2
      vertex 1.33274 -12.6802 2
      vertex 1.28047 -12.1829 2
    endloop
  endfacet
  facet normal 0 0 1
    outer loop
      vertex -1.28047 -12.1829 2
      vertex -1.33274 -12.6802 2
      vertex 1.33274 -12.6802 2
    endloop
  endfacet
  facet normal 0 0 1
    outer loop
      vertex -3.78546 -11.6504 2
      vertex -1.33274 -12.6802 2
      vertex -1.28047 -12.1829 2
    endloop
  endfacet
  facet normal 0 0 1
    outer loop
      vertex -3.78546 -11.6504 2
      vertex -3.93997 -12.126 2
      vertex -1.33274 -12.6802 2
    endloop
  endfacet
  facet normal 0 0 1
    outer loop
      vertex -6.125 -10.6088 2
      vertex -3.93997 -12.126 2
      vertex -3.78546 -11.6504 2
    endloop
  endfacet
  facet normal 0 0 1
    outer loop
      vertex -6.125 -10.6088 2
      vertex -6.375 -11.0418 2
      vertex -3.93997 -12.126 2
    endloop
  endfacet
  facet normal 0 0 1
    outer loop
      vertex -8.19685 -9.10352 2
      vertex -6.375 -11.0418 2
      vertex -6.125 -10.6088 2
    endloop
  endfacet
  facet normal 0 0 1
    outer loop
      vertex -8.19685 -9.10352 2
      vertex -8.53141 -9.4751 2
      vertex -6.375 -11.0418 2
    endloop
  endfacet
  facet normal 0 0 1
    outer loop
      vertex -9.91046 -7.20037 2
      vertex -8.53141 -9.4751 2
      vertex -8.19685 -9.10352 2
    endloop
  endfacet
  facet normal 0 0 1
    outer loop
      vertex -9.91046 -7.20037 2
      vertex -10.315 -7.49426 2
      vertex -8.53141 -9.4751 2
    endloop
  endfacet
  facet normal 0 0 1
    outer loop
      vertex -11.1909 -4.98252 2
      vertex -10.315 -7.49426 2
      vertex -9.91046 -7.20037 2
    endloop
  endfacet
  facet normal 0 0 1
    outer loop
      vertex -11.1909 -4.98252 2
      vertex -11.6477 -5.18589 2
      vertex -10.315 -7.49426 2
    endloop
  endfacet
  facet normal 0 0 1
    outer loop
      vertex -11.9823 -2.54692 2
      vertex -11.6477 -5.18589 2
      vertex -11.1909 -4.98252 2
    endloop
  endfacet
  facet normal 0 0 1
    outer loop
      vertex -11.9823 -2.54692 2
      vertex -12.4714 -2.65087 2
      vertex -11.6477 -5.18589 2
    endloop
  endfacet
  facet normal 0 0 1
    outer loop
      vertex -12.25 0 2
      vertex -12.4714 -2.65087 2
      vertex -11.9823 -2.54692 2
    endloop
  endfacet
  facet normal 0 0 1
    outer loop
      vertex -12.75 0 2
      vertex -12.25 0 2
      vertex -12.4714 2.65087 2
    endloop
  endfacet
  facet normal 0 0 1
    outer loop
      vertex -12.25 0 2
      vertex -12.75 0 2
      vertex -12.4714 -2.65087 2
    endloop
  endfacet
  facet normal 0 0 -1
    outer loop
      vertex 11.25 0 0
      vertex 12.75 0 0
      vertex 12.4714 -2.65087 0
    endloop
  endfacet
  facet normal 0 0 -1
    outer loop
      vertex 11.0042 -2.33901 0
      vertex 12.4714 -2.65087 0
      vertex 11.6477 -5.18589 0
    endloop
  endfacet
  facet normal 0 0 -1
    outer loop
      vertex 12.75 0 0
      vertex 11.25 0 0
      vertex 12.4714 2.65087 0
    endloop
  endfacet
  facet normal 0 0 -1
    outer loop
      vertex 11.0042 2.33901 0
      vertex 12.4714 2.65087 0
      vertex 11.25 0 0
    endloop
  endfacet
  facet normal 0 0 -1
    outer loop
      vertex 12.4714 -2.65087 0
      vertex 11.0042 -2.33901 0
      vertex 11.25 0 0
    endloop
  endfacet
  facet normal 0 0 -1
    outer loop
      vertex 10.2774 -4.57579 0
      vertex 11.6477 -5.18589 0
      vertex 10.315 -7.49426 0
    endloop
  endfacet
  facet normal 0 0 -1
    outer loop
      vertex 11.6477 -5.18589 0
      vertex 10.2774 -4.57579 0
      vertex 11.0042 -2.33901 0
    endloop
  endfacet
  facet normal 0 0 -1
    outer loop
      vertex 10.315 -7.49426 0
      vertex 9.10144 -6.61258 0
      vertex 10.2774 -4.57579 0
    endloop
  endfacet
  facet normal 0 0 -1
    outer loop
      vertex 8.53141 -9.4751 0
      vertex 9.10144 -6.61258 0
      vertex 10.315 -7.49426 0
    endloop
  endfacet
  facet normal 0 0 -1
    outer loop
      vertex 8.53141 -9.4751 0
      vertex 7.52772 -8.36038 0
      vertex 9.10144 -6.61258 0
    endloop
  endfacet
  facet normal 0 0 -1
    outer loop
      vertex 6.375 -11.0418 0
      vertex 7.52772 -8.36038 0
      vertex 8.53141 -9.4751 0
    endloop
  endfacet
  facet normal 0 0 -1
    outer loop
      vertex 6.375 -11.0418 0
      vertex 5.625 -9.74279 0
      vertex 7.52772 -8.36038 0
    endloop
  endfacet
  facet normal 0 0 -1
    outer loop
      vertex 3.93997 -12.126 0
      vertex 5.625 -9.74279 0
      vertex 6.375 -11.0418 0
    endloop
  endfacet
  facet normal 0 0 -1
    outer loop
      vertex 3.93997 -12.126 0
      vertex 3.47644 -10.6994 0
      vertex 5.625 -9.74279 0
    endloop
  endfacet
  facet normal 0 0 -1
    outer loop
      vertex 1.33274 -12.6802 0
      vertex 3.47644 -10.6994 0
      vertex 3.93997 -12.126 0
    endloop
  endfacet
  facet normal 0 0 -1
    outer loop
      vertex 1.33274 -12.6802 0
      vertex 1.17594 -11.1884 0
      vertex 3.47644 -10.6994 0
    endloop
  endfacet
  facet normal 0 0 -1
    outer loop
      vertex 1.33274 -12.6802 0
      vertex -1.17594 -11.1884 0
      vertex 1.17594 -11.1884 0
    endloop
  endfacet
  facet normal 0 0 -1
    outer loop
      vertex -1.33274 -12.6802 0
      vertex -1.17594 -11.1884 0
      vertex 1.33274 -12.6802 0
    endloop
  endfacet
  facet normal 0 0 -1
    outer loop
      vertex -1.33274 -12.6802 0
      vertex -3.47644 -10.6994 0
      vertex -1.17594 -11.1884 0
    endloop
  endfacet
  facet normal 0 0 -1
    outer loop
      vertex -3.93997 -12.126 0
      vertex -3.47644 -10.6994 0
      vertex -1.33274 -12.6802 0
    endloop
  endfacet
  facet normal 0 0 -1
    outer loop
      vertex -3.93997 -12.126 0
      vertex -5.625 -9.74279 0
      vertex -3.47644 -10.6994 0
    endloop
  endfacet
  facet normal 0 0 -1
    outer loop
      vertex -6.375 -11.0418 0
      vertex -5.625 -9.74279 0
      vertex -3.93997 -12.126 0
    endloop
  endfacet
  facet normal 0 0 -1
    outer loop
      vertex -6.375 -11.0418 0
      vertex -7.52772 -8.36038 0
      vertex -5.625 -9.74279 0
    endloop
  endfacet
  facet normal 0 0 -1
    outer loop
      vertex -8.53141 -9.4751 0
      vertex -7.52772 -8.36038 0
      vertex -6.375 -11.0418 0
    endloop
  endfacet
  facet normal 0 0 -1
    outer loop
      vertex -8.53141 -9.4751 0
      vertex -9.10144 -6.61258 0
      vertex -7.52772 -8.36038 0
    endloop
  endfacet
  facet normal 0 0 -1
    outer loop
      vertex -10.315 -7.49426 0
      vertex -9.10144 -6.61258 0
      vertex -8.53141 -9.4751 0
    endloop
  endfacet
  facet normal -0 0 -1
    outer loop
      vertex -9.10144 -6.61258 0
      vertex -10.315 -7.49426 0
      vertex -10.2774 -4.57579 0
    endloop
  endfacet
  facet normal 0 0 -1
    outer loop
      vertex -11.6477 -5.18589 0
      vertex -10.2774 -4.57579 0
      vertex -10.315 -7.49426 0
    endloop
  endfacet
  facet normal 0 0 -1
    outer loop
      vertex -12.4714 -2.65087 0
      vertex -11.0042 -2.33901 0
      vertex -11.6477 -5.18589 0
    endloop
  endfacet
  facet normal -0 0 -1
    outer loop
      vertex -10.2774 -4.57579 0
      vertex -11.6477 -5.18589 0
      vertex -11.0042 -2.33901 0
    endloop
  endfacet
  facet normal -0 0 -1
    outer loop
      vertex 12.4714 2.65087 0
      vertex 11.0042 2.33901 0
      vertex 11.6477 5.18589 0
    endloop
  endfacet
  facet normal 0 0 -1
    outer loop
      vertex 10.2774 4.57579 0
      vertex 11.6477 5.18589 0
      vertex 11.0042 2.33901 0
    endloop
  endfacet
  facet normal -0 0 -1
    outer loop
      vertex 11.6477 5.18589 0
      vertex 10.2774 4.57579 0
      vertex 10.315 7.49426 0
    endloop
  endfacet
  facet normal 0 0 -1
    outer loop
      vertex 9.10144 6.61258 0
      vertex 10.315 7.49426 0
      vertex 10.2774 4.57579 0
    endloop
  endfacet
  facet normal 0 0 -1
    outer loop
      vertex 9.10144 6.61258 0
      vertex 8.53141 9.4751 0
      vertex 10.315 7.49426 0
    endloop
  endfacet
  facet normal 0 0 -1
    outer loop
      vertex 7.52772 8.36038 0
      vertex 8.53141 9.4751 0
      vertex 9.10144 6.61258 0
    endloop
  endfacet
  facet normal 0 0 -1
    outer loop
      vertex 7.52772 8.36038 0
      vertex 6.375 11.0418 0
      vertex 8.53141 9.4751 0
    endloop
  endfacet
  facet normal 0 0 -1
    outer loop
      vertex 5.625 9.74279 0
      vertex 6.375 11.0418 0
      vertex 7.52772 8.36038 0
    endloop
  endfacet
  facet normal 0 0 -1
    outer loop
      vertex 5.625 9.74279 0
      vertex 3.93997 12.126 0
      vertex 6.375 11.0418 0
    endloop
  endfacet
  facet normal 0 0 -1
    outer loop
      vertex 3.47644 10.6994 0
      vertex 3.93997 12.126 0
      vertex 5.625 9.74279 0
    endloop
  endfacet
  facet normal 0 0 -1
    outer loop
      vertex 3.47644 10.6994 0
      vertex 1.33274 12.6802 0
      vertex 3.93997 12.126 0
    endloop
  endfacet
  facet normal 0 0 -1
    outer loop
      vertex 1.17594 11.1884 0
      vertex 1.33274 12.6802 0
      vertex 3.47644 10.6994 0
    endloop
  endfacet
  facet normal 0 0 -1
    outer loop
      vertex -1.17594 11.1884 0
      vertex 1.33274 12.6802 0
      vertex 1.17594 11.1884 0
    endloop
  endfacet
  facet normal 0 0 -1
    outer loop
      vertex -1.17594 11.1884 0
      vertex -1.33274 12.6802 0
      vertex 1.33274 12.6802 0
    endloop
  endfacet
  facet normal 0 0 -1
    outer loop
      vertex -3.47644 10.6994 0
      vertex -1.33274 12.6802 0
      vertex -1.17594 11.1884 0
    endloop
  endfacet
  facet normal 0 0 -1
    outer loop
      vertex -3.47644 10.6994 0
      vertex -3.93997 12.126 0
      vertex -1.33274 12.6802 0
    endloop
  endfacet
  facet normal 0 0 -1
    outer loop
      vertex -5.625 9.74279 0
      vertex -3.93997 12.126 0
      vertex -3.47644 10.6994 0
    endloop
  endfacet
  facet normal 0 0 -1
    outer loop
      vertex -5.625 9.74279 0
      vertex -6.375 11.0418 0
      vertex -3.93997 12.126 0
    endloop
  endfacet
  facet normal 0 0 -1
    outer loop
      vertex -7.52772 8.36038 0
      vertex -6.375 11.0418 0
      vertex -5.625 9.74279 0
    endloop
  endfacet
  facet normal 0 0 -1
    outer loop
      vertex -7.52772 8.36038 0
      vertex -8.53141 9.4751 0
      vertex -6.375 11.0418 0
    endloop
  endfacet
  facet normal 0 0 -1
    outer loop
      vertex -9.10144 6.61258 0
      vertex -8.53141 9.4751 0
      vertex -7.52772 8.36038 0
    endloop
  endfacet
  facet normal 0 0 -1
    outer loop
      vertex -10.315 7.49426 0
      vertex -9.10144 6.61258 0
      vertex -10.2774 4.57579 0
    endloop
  endfacet
  facet normal 0 0 -1
    outer loop
      vertex -9.10144 6.61258 0
      vertex -10.315 7.49426 0
      vertex -8.53141 9.4751 0
    endloop
  endfacet
  facet normal 0 0 -1
    outer loop
      vertex -11.6477 5.18589 0
      vertex -10.2774 4.57579 0
      vertex -11.0042 2.33901 0
    endloop
  endfacet
  facet normal 0 0 -1
    outer loop
      vertex -10.2774 4.57579 0
      vertex -11.6477 5.18589 0
      vertex -10.315 7.49426 0
    endloop
  endfacet
  facet normal 0 0 -1
    outer loop
      vertex -12.4714 2.65087 0
      vertex -11.0042 2.33901 0
      vertex -11.25 0 0
    endloop
  endfacet
  facet normal -0 0 -1
    outer loop
      vertex -11.0042 -2.33901 0
      vertex -12.4714 -2.65087 0
      vertex -11.25 0 0
    endloop
  endfacet
  facet normal 0 0 -1
    outer loop
      vertex -12.75 0 0
      vertex -11.25 0 0
      vertex -12.4714 -2.65087 0
    endloop
  endfacet
  facet normal 0 0 -1
    outer loop
      vertex -11.0042 2.33901 0
      vertex -12.4714 2.65087 0
      vertex -11.6477 5.18589 0
    endloop
  endfacet
  facet normal 0 0 -1
    outer loop
      vertex -11.25 0 0
      vertex -12.75 0 0
      vertex -12.4714 2.65087 0
    endloop
  endfacet
  facet normal -0.207917 0.978146 0
    outer loop
      vertex -1.33274 12.6802 0
      vertex -3.93997 12.126 2
      vertex -1.33274 12.6802 2
    endloop
  endfacet
  facet normal -0.207917 0.978146 0
    outer loop
      vertex -3.93997 12.126 2
      vertex -1.33274 12.6802 0
      vertex -3.93997 12.126 0
    endloop
  endfacet
  facet normal 0.866032 0.499989 0
    outer loop
      vertex 11.6477 5.18589 2
      vertex 10.315 7.49426 0
      vertex 10.315 7.49426 2
    endloop
  endfacet
  facet normal 0.866032 0.499989 0
    outer loop
      vertex 10.315 7.49426 0
      vertex 11.6477 5.18589 2
      vertex 11.6477 5.18589 0
    endloop
  endfacet
  facet normal -0.951054 -0.309026 0
    outer loop
      vertex 11.9823 2.54692 1
      vertex 11.1909 4.98252 2
      vertex 11.1909 4.98252 1
    endloop
  endfacet
  facet normal -0.951054 -0.309026 0
    outer loop
      vertex 11.1909 4.98252 2
      vertex 11.9823 2.54692 1
      vertex 11.9823 2.54692 2
    endloop
  endfacet
  facet normal -0.994522 -0.104532 0
    outer loop
      vertex 12.25 0 1
      vertex 11.9823 2.54692 2
      vertex 11.9823 2.54692 1
    endloop
  endfacet
  facet normal -0.994522 -0.104532 0
    outer loop
      vertex 11.9823 2.54692 2
      vertex 12.25 0 1
      vertex 12.25 0 2
    endloop
  endfacet
  facet normal -0.20793 -0.978144 0
    outer loop
      vertex 1.28047 12.1829 1
      vertex 3.78546 11.6504 2
      vertex 1.28047 12.1829 2
    endloop
  endfacet
  facet normal -0.20793 -0.978144 -0
    outer loop
      vertex 3.78546 11.6504 2
      vertex 1.28047 12.1829 1
      vertex 3.78546 11.6504 1
    endloop
  endfacet
  facet normal 0.951054 -0.309026 0
    outer loop
      vertex -11.9823 2.54692 2
      vertex -11.1909 4.98252 1
      vertex -11.1909 4.98252 2
    endloop
  endfacet
  facet normal 0.951054 -0.309026 0
    outer loop
      vertex -11.1909 4.98252 1
      vertex -11.9823 2.54692 2
      vertex -11.9823 2.54692 1
    endloop
  endfacet
  facet normal 0.743144 0.669132 0
    outer loop
      vertex -8.19685 -9.10352 2
      vertex -9.91046 -7.20037 1
      vertex -9.91046 -7.20037 2
    endloop
  endfacet
  facet normal 0.743144 0.669132 0
    outer loop
      vertex -9.91046 -7.20037 1
      vertex -8.19685 -9.10352 2
      vertex -8.19685 -9.10352 1
    endloop
  endfacet
  facet normal 0.866032 0.499989 0
    outer loop
      vertex -9.91046 -7.20037 2
      vertex -11.1909 -4.98252 1
      vertex -11.1909 -4.98252 2
    endloop
  endfacet
  facet normal 0.866032 0.499989 0
    outer loop
      vertex -11.1909 -4.98252 1
      vertex -9.91046 -7.20037 2
      vertex -9.91046 -7.20037 1
    endloop
  endfacet
  facet normal 0.951054 0.309026 0
    outer loop
      vertex -11.1909 -4.98252 2
      vertex -11.9823 -2.54692 1
      vertex -11.9823 -2.54692 2
    endloop
  endfacet
  facet normal 0.951054 0.309026 0
    outer loop
      vertex -11.9823 -2.54692 1
      vertex -11.1909 -4.98252 2
      vertex -11.1909 -4.98252 1
    endloop
  endfacet
  facet normal 0.866032 -0.499989 0
    outer loop
      vertex -11.1909 4.98252 2
      vertex -9.91046 7.20037 1
      vertex -9.91046 7.20037 2
    endloop
  endfacet
  facet normal 0.866032 -0.499989 0
    outer loop
      vertex -9.91046 7.20037 1
      vertex -11.1909 4.98252 2
      vertex -11.1909 4.98252 1
    endloop
  endfacet
  facet normal -0.951054 0.309026 0
    outer loop
      vertex 11.1909 -4.98252 1
      vertex 11.9823 -2.54692 2
      vertex 11.9823 -2.54692 1
    endloop
  endfacet
  facet normal -0.951054 0.309026 0
    outer loop
      vertex 11.9823 -2.54692 2
      vertex 11.1909 -4.98252 1
      vertex 11.1909 -4.98252 2
    endloop
  endfacet
  facet normal 0.994522 0.104532 0
    outer loop
      vertex -11.9823 -2.54692 2
      vertex -12.25 0 1
      vertex -12.25 0 2
    endloop
  endfacet
  facet normal 0.994522 0.104532 0
    outer loop
      vertex -12.25 0 1
      vertex -11.9823 -2.54692 2
      vertex -11.9823 -2.54692 1
    endloop
  endfacet
  facet normal 0.406727 -0.91355 0
    outer loop
      vertex -6.125 10.6088 1
      vertex -3.78546 11.6504 2
      vertex -6.125 10.6088 2
    endloop
  endfacet
  facet normal 0.406727 -0.91355 0
    outer loop
      vertex -3.78546 11.6504 2
      vertex -6.125 10.6088 1
      vertex -3.78546 11.6504 1
    endloop
  endfacet
  facet normal 0.20793 -0.978144 0
    outer loop
      vertex -3.78546 11.6504 1
      vertex -1.28047 12.1829 2
      vertex -3.78546 11.6504 2
    endloop
  endfacet
  facet normal 0.20793 -0.978144 0
    outer loop
      vertex -1.28047 12.1829 2
      vertex -3.78546 11.6504 1
      vertex -1.28047 12.1829 1
    endloop
  endfacet
  facet normal -0.406727 0.91355 0
    outer loop
      vertex 6.125 -10.6088 1
      vertex 3.78546 -11.6504 2
      vertex 6.125 -10.6088 2
    endloop
  endfacet
  facet normal -0.406727 0.91355 0
    outer loop
      vertex 3.78546 -11.6504 2
      vertex 6.125 -10.6088 1
      vertex 3.78546 -11.6504 1
    endloop
  endfacet
  facet normal -0.20793 0.978144 0
    outer loop
      vertex 3.78546 -11.6504 1
      vertex 1.28047 -12.1829 2
      vertex 3.78546 -11.6504 2
    endloop
  endfacet
  facet normal -0.20793 0.978144 0
    outer loop
      vertex 1.28047 -12.1829 2
      vertex 3.78546 -11.6504 1
      vertex 1.28047 -12.1829 1
    endloop
  endfacet
  facet normal 0.406727 0.91355 -0
    outer loop
      vertex -3.78546 -11.6504 1
      vertex -6.125 -10.6088 2
      vertex -3.78546 -11.6504 2
    endloop
  endfacet
  facet normal 0.406727 0.91355 0
    outer loop
      vertex -6.125 -10.6088 2
      vertex -3.78546 -11.6504 1
      vertex -6.125 -10.6088 1
    endloop
  endfacet
  facet normal 0 0 1
    outer loop
      vertex 11.25 0 1
      vertex 12.25 0 1
      vertex 11.9823 2.54692 1
    endloop
  endfacet
  facet normal 0 0 1
    outer loop
      vertex 12.25 0 1
      vertex 11.25 0 1
      vertex 11.9823 -2.54692 1
    endloop
  endfacet
  facet normal 0 0 1
    outer loop
      vertex 11.0042 2.33901 1
      vertex 11.9823 2.54692 1
      vertex 11.1909 4.98252 1
    endloop
  endfacet
  facet normal 0 0 1
    outer loop
      vertex 11.9823 2.54692 1
      vertex 11.0042 2.33901 1
      vertex 11.25 0 1
    endloop
  endfacet
  facet normal 0 0 1
    outer loop
      vertex 11.1909 4.98252 1
      vertex 10.2774 4.57579 1
      vertex 11.0042 2.33901 1
    endloop
  endfacet
  facet normal 0 0 1
    outer loop
      vertex 9.91046 7.20037 1
      vertex 10.2774 4.57579 1
      vertex 11.1909 4.98252 1
    endloop
  endfacet
  facet normal 0 0 1
    outer loop
      vertex 9.91046 7.20037 1
      vertex 9.10144 6.61258 1
      vertex 10.2774 4.57579 1
    endloop
  endfacet
  facet normal 0 0 1
    outer loop
      vertex 8.19685 9.10352 1
      vertex 9.10144 6.61258 1
      vertex 9.91046 7.20037 1
    endloop
  endfacet
  facet normal 0 0 1
    outer loop
      vertex 8.19685 9.10352 1
      vertex 7.52772 8.36038 1
      vertex 9.10144 6.61258 1
    endloop
  endfacet
  facet normal 0 0 1
    outer loop
      vertex 6.125 10.6088 1
      vertex 7.52772 8.36038 1
      vertex 8.19685 9.10352 1
    endloop
  endfacet
  facet normal 0 0 1
    outer loop
      vertex 6.125 10.6088 1
      vertex 5.625 9.74279 1
      vertex 7.52772 8.36038 1
    endloop
  endfacet
  facet normal 0 0 1
    outer loop
      vertex 3.78546 11.6504 1
      vertex 5.625 9.74279 1
      vertex 6.125 10.6088 1
    endloop
  endfacet
  facet normal 0 0 1
    outer loop
      vertex 3.78546 11.6504 1
      vertex 3.47644 10.6994 1
      vertex 5.625 9.74279 1
    endloop
  endfacet
  facet normal 0 0 1
    outer loop
      vertex 1.28047 12.1829 1
      vertex 3.47644 10.6994 1
      vertex 3.78546 11.6504 1
    endloop
  endfacet
  facet normal 0 0 1
    outer loop
      vertex 1.28047 12.1829 1
      vertex 1.17594 11.1884 1
      vertex 3.47644 10.6994 1
    endloop
  endfacet
  facet normal 0 0 1
    outer loop
      vertex 1.28047 12.1829 1
      vertex -1.17594 11.1884 1
      vertex 1.17594 11.1884 1
    endloop
  endfacet
  facet normal -0 0 1
    outer loop
      vertex -1.28047 12.1829 1
      vertex -1.17594 11.1884 1
      vertex 1.28047 12.1829 1
    endloop
  endfacet
  facet normal 0 0 1
    outer loop
      vertex -1.28047 12.1829 1
      vertex -3.47644 10.6994 1
      vertex -1.17594 11.1884 1
    endloop
  endfacet
  facet normal -0 0 1
    outer loop
      vertex -3.78546 11.6504 1
      vertex -3.47644 10.6994 1
      vertex -1.28047 12.1829 1
    endloop
  endfacet
  facet normal 0 0 1
    outer loop
      vertex -3.78546 11.6504 1
      vertex -5.625 9.74279 1
      vertex -3.47644 10.6994 1
    endloop
  endfacet
  facet normal -0 0 1
    outer loop
      vertex -6.125 10.6088 1
      vertex -5.625 9.74279 1
      vertex -3.78546 11.6504 1
    endloop
  endfacet
  facet normal 0 0 1
    outer loop
      vertex -6.125 10.6088 1
      vertex -7.52772 8.36038 1
      vertex -5.625 9.74279 1
    endloop
  endfacet
  facet normal -0 0 1
    outer loop
      vertex -8.19685 9.10352 1
      vertex -7.52772 8.36038 1
      vertex -6.125 10.6088 1
    endloop
  endfacet
  facet normal 0 0 1
    outer loop
      vertex -8.19685 9.10352 1
      vertex -9.10144 6.61258 1
      vertex -7.52772 8.36038 1
    endloop
  endfacet
  facet normal -0 0 1
    outer loop
      vertex -9.91046 7.20037 1
      vertex -9.10144 6.61258 1
      vertex -8.19685 9.10352 1
    endloop
  endfacet
  facet normal 0 0 1
    outer loop
      vertex -9.91046 7.20037 1
      vertex -10.2774 4.57579 1
      vertex -9.10144 6.61258 1
    endloop
  endfacet
  facet normal -0 0 1
    outer loop
      vertex -11.1909 4.98252 1
      vertex -10.2774 4.57579 1
      vertex -9.91046 7.20037 1
    endloop
  endfacet
  facet normal 0 0 1
    outer loop
      vertex -10.2774 4.57579 1
      vertex -11.1909 4.98252 1
      vertex -11.0042 2.33901 1
    endloop
  endfacet
  facet normal -0 0 1
    outer loop
      vertex -11.9823 2.54692 1
      vertex -11.0042 2.33901 1
      vertex -11.1909 4.98252 1
    endloop
  endfacet
  facet normal 0 0 1
    outer loop
      vertex -11.0042 2.33901 1
      vertex -11.9823 2.54692 1
      vertex -11.25 0 1
    endloop
  endfacet
  facet normal -0 0 1
    outer loop
      vertex 11.0042 -2.33901 1
      vertex 11.9823 -2.54692 1
      vertex 11.25 0 1
    endloop
  endfacet
  facet normal 0 0 1
    outer loop
      vertex 11.9823 -2.54692 1
      vertex 11.0042 -2.33901 1
      vertex 11.1909 -4.98252 1
    endloop
  endfacet
  facet normal -0 0 1
    outer loop
      vertex 10.2774 -4.57579 1
      vertex 11.1909 -4.98252 1
      vertex 11.0042 -2.33901 1
    endloop
  endfacet
  facet normal 0 0 1
    outer loop
      vertex 10.2774 -4.57579 1
      vertex 9.91046 -7.20037 1
      vertex 11.1909 -4.98252 1
    endloop
  endfacet
  facet normal -0 0 1
    outer loop
      vertex 9.10144 -6.61258 1
      vertex 9.91046 -7.20037 1
      vertex 10.2774 -4.57579 1
    endloop
  endfacet
  facet normal 0 0 1
    outer loop
      vertex 9.10144 -6.61258 1
      vertex 8.19685 -9.10352 1
      vertex 9.91046 -7.20037 1
    endloop
  endfacet
  facet normal -0 0 1
    outer loop
      vertex 7.52772 -8.36038 1
      vertex 8.19685 -9.10352 1
      vertex 9.10144 -6.61258 1
    endloop
  endfacet
  facet normal 0 0 1
    outer loop
      vertex 7.52772 -8.36038 1
      vertex 6.125 -10.6088 1
      vertex 8.19685 -9.10352 1
    endloop
  endfacet
  facet normal -0 0 1
    outer loop
      vertex 5.625 -9.74279 1
      vertex 6.125 -10.6088 1
      vertex 7.52772 -8.36038 1
    endloop
  endfacet
  facet normal 0 0 1
    outer loop
      vertex 5.625 -9.74279 1
      vertex 3.78546 -11.6504 1
      vertex 6.125 -10.6088 1
    endloop
  endfacet
  facet normal -0 0 1
    outer loop
      vertex 3.47644 -10.6994 1
      vertex 3.78546 -11.6504 1
      vertex 5.625 -9.74279 1
    endloop
  endfacet
  facet normal 0 0 1
    outer loop
      vertex 3.47644 -10.6994 1
      vertex 1.28047 -12.1829 1
      vertex 3.78546 -11.6504 1
    endloop
  endfacet
  facet normal -0 0 1
    outer loop
      vertex 1.17594 -11.1884 1
      vertex 1.28047 -12.1829 1
      vertex 3.47644 -10.6994 1
    endloop
  endfacet
  facet normal -0 0 1
    outer loop
      vertex -1.17594 -11.1884 1
      vertex 1.28047 -12.1829 1
      vertex 1.17594 -11.1884 1
    endloop
  endfacet
  facet normal 0 0 1
    outer loop
      vertex -1.17594 -11.1884 1
      vertex -1.28047 -12.1829 1
      vertex 1.28047 -12.1829 1
    endloop
  endfacet
  facet normal 0 0 1
    outer loop
      vertex -3.47644 -10.6994 1
      vertex -1.28047 -12.1829 1
      vertex -1.17594 -11.1884 1
    endloop
  endfacet
  facet normal 0 0 1
    outer loop
      vertex -3.47644 -10.6994 1
      vertex -3.78546 -11.6504 1
      vertex -1.28047 -12.1829 1
    endloop
  endfacet
  facet normal 0 0 1
    outer loop
      vertex -5.625 -9.74279 1
      vertex -3.78546 -11.6504 1
      vertex -3.47644 -10.6994 1
    endloop
  endfacet
  facet normal 0 0 1
    outer loop
      vertex -5.625 -9.74279 1
      vertex -6.125 -10.6088 1
      vertex -3.78546 -11.6504 1
    endloop
  endfacet
  facet normal 0 0 1
    outer loop
      vertex -7.52772 -8.36038 1
      vertex -6.125 -10.6088 1
      vertex -5.625 -9.74279 1
    endloop
  endfacet
  facet normal 0 0 1
    outer loop
      vertex -7.52772 -8.36038 1
      vertex -8.19685 -9.10352 1
      vertex -6.125 -10.6088 1
    endloop
  endfacet
  facet normal 0 0 1
    outer loop
      vertex -9.10144 -6.61258 1
      vertex -8.19685 -9.10352 1
      vertex -7.52772 -8.36038 1
    endloop
  endfacet
  facet normal 0 0 1
    outer loop
      vertex -9.10144 -6.61258 1
      vertex -9.91046 -7.20037 1
      vertex -8.19685 -9.10352 1
    endloop
  endfacet
  facet normal 0 0 1
    outer loop
      vertex -10.2774 -4.57579 1
      vertex -9.91046 -7.20037 1
      vertex -9.10144 -6.61258 1
    endloop
  endfacet
  facet normal 0 0 1
    outer loop
      vertex -11.1909 -4.98252 1
      vertex -10.2774 -4.57579 1
      vertex -11.0042 -2.33901 1
    endloop
  endfacet
  facet normal 0 0 1
    outer loop
      vertex -10.2774 -4.57579 1
      vertex -11.1909 -4.98252 1
      vertex -9.91046 -7.20037 1
    endloop
  endfacet
  facet normal 0 0 1
    outer loop
      vertex -11.9823 -2.54692 1
      vertex -11.0042 -2.33901 1
      vertex -11.25 0 1
    endloop
  endfacet
  facet normal 0 0 1
    outer loop
      vertex -12.25 0 1
      vertex -11.25 0 1
      vertex -11.9823 2.54692 1
    endloop
  endfacet
  facet normal 0 0 1
    outer loop
      vertex -11.0042 -2.33901 1
      vertex -11.9823 -2.54692 1
      vertex -11.1909 -4.98252 1
    endloop
  endfacet
  facet normal 0 0 1
    outer loop
      vertex -11.25 0 1
      vertex -12.25 0 1
      vertex -11.9823 -2.54692 1
    endloop
  endfacet
  facet normal 0.994522 -0.104532 0
    outer loop
      vertex -12.25 0 2
      vertex -11.9823 2.54692 1
      vertex -11.9823 2.54692 2
    endloop
  endfacet
  facet normal 0.994522 -0.104532 0
    outer loop
      vertex -11.9823 2.54692 1
      vertex -12.25 0 2
      vertex -12.25 0 1
    endloop
  endfacet
  facet normal -0.866032 0.499989 0
    outer loop
      vertex 9.91046 -7.20037 1
      vertex 11.1909 -4.98252 2
      vertex 11.1909 -4.98252 1
    endloop
  endfacet
  facet normal -0.866032 0.499989 0
    outer loop
      vertex 11.1909 -4.98252 2
      vertex 9.91046 -7.20037 1
      vertex 9.91046 -7.20037 2
    endloop
  endfacet
  facet normal -0.743144 0.669132 0
    outer loop
      vertex 8.19685 -9.10352 1
      vertex 9.91046 -7.20037 2
      vertex 9.91046 -7.20037 1
    endloop
  endfacet
  facet normal -0.743144 0.669132 0
    outer loop
      vertex 9.91046 -7.20037 2
      vertex 8.19685 -9.10352 1
      vertex 8.19685 -9.10352 2
    endloop
  endfacet
  facet normal -0.866032 -0.499989 0
    outer loop
      vertex 11.1909 4.98252 1
      vertex 9.91046 7.20037 2
      vertex 9.91046 7.20037 1
    endloop
  endfacet
  facet normal -0.866032 -0.499989 0
    outer loop
      vertex 9.91046 7.20037 2
      vertex 11.1909 4.98252 1
      vertex 11.1909 4.98252 2
    endloop
  endfacet
  facet normal -0.994522 0.104532 0
    outer loop
      vertex 11.9823 -2.54692 1
      vertex 12.25 0 2
      vertex 12.25 0 1
    endloop
  endfacet
  facet normal -0.994522 0.104532 0
    outer loop
      vertex 12.25 0 2
      vertex 11.9823 -2.54692 1
      vertex 11.9823 -2.54692 2
    endloop
  endfacet
  facet normal -0.587783 0.809018 0
    outer loop
      vertex 8.19685 -9.10352 1
      vertex 6.125 -10.6088 2
      vertex 8.19685 -9.10352 2
    endloop
  endfacet
  facet normal -0.587783 0.809018 0
    outer loop
      vertex 6.125 -10.6088 2
      vertex 8.19685 -9.10352 1
      vertex 6.125 -10.6088 1
    endloop
  endfacet
  facet normal 0.587783 0.809018 -0
    outer loop
      vertex -6.125 -10.6088 1
      vertex -8.19685 -9.10352 2
      vertex -6.125 -10.6088 2
    endloop
  endfacet
  facet normal 0.587783 0.809018 0
    outer loop
      vertex -8.19685 -9.10352 2
      vertex -6.125 -10.6088 1
      vertex -8.19685 -9.10352 1
    endloop
  endfacet
  facet normal 0 1 -0
    outer loop
      vertex 1.28047 -12.1829 1
      vertex -1.28047 -12.1829 2
      vertex 1.28047 -12.1829 2
    endloop
  endfacet
  facet normal 0 1 0
    outer loop
      vertex -1.28047 -12.1829 2
      vertex 1.28047 -12.1829 1
      vertex -1.28047 -12.1829 1
    endloop
  endfacet
  facet normal -0.587783 -0.809018 0
    outer loop
      vertex 6.125 10.6088 1
      vertex 8.19685 9.10352 2
      vertex 6.125 10.6088 2
    endloop
  endfacet
  facet normal -0.587783 -0.809018 -0
    outer loop
      vertex 8.19685 9.10352 2
      vertex 6.125 10.6088 1
      vertex 8.19685 9.10352 1
    endloop
  endfacet
  facet normal -0.406727 -0.91355 0
    outer loop
      vertex 3.78546 11.6504 1
      vertex 6.125 10.6088 2
      vertex 3.78546 11.6504 2
    endloop
  endfacet
  facet normal -0.406727 -0.91355 -0
    outer loop
      vertex 6.125 10.6088 2
      vertex 3.78546 11.6504 1
      vertex 6.125 10.6088 1
    endloop
  endfacet
  facet normal 0 -1 0
    outer loop
      vertex -1.28047 12.1829 1
      vertex 1.28047 12.1829 2
      vertex -1.28047 12.1829 2
    endloop
  endfacet
  facet normal 0 -1 -0
    outer loop
      vertex 1.28047 12.1829 2
      vertex -1.28047 12.1829 1
      vertex 1.28047 12.1829 1
    endloop
  endfacet
  facet normal 0.20793 0.978144 -0
    outer loop
      vertex -1.28047 -12.1829 1
      vertex -3.78546 -11.6504 2
      vertex -1.28047 -12.1829 2
    endloop
  endfacet
  facet normal 0.20793 0.978144 0
    outer loop
      vertex -3.78546 -11.6504 2
      vertex -1.28047 -12.1829 1
      vertex -3.78546 -11.6504 1
    endloop
  endfacet
  facet normal 0.743144 -0.669132 0
    outer loop
      vertex -9.91046 7.20037 2
      vertex -8.19685 9.10352 1
      vertex -8.19685 9.10352 2
    endloop
  endfacet
  facet normal 0.743144 -0.669132 0
    outer loop
      vertex -8.19685 9.10352 1
      vertex -9.91046 7.20037 2
      vertex -9.91046 7.20037 1
    endloop
  endfacet
  facet normal 0.587783 -0.809018 0
    outer loop
      vertex -8.19685 9.10352 1
      vertex -6.125 10.6088 2
      vertex -8.19685 9.10352 2
    endloop
  endfacet
  facet normal 0.587783 -0.809018 0
    outer loop
      vertex -6.125 10.6088 2
      vertex -8.19685 9.10352 1
      vertex -6.125 10.6088 1
    endloop
  endfacet
  facet normal -0.743144 -0.669132 0
    outer loop
      vertex 9.91046 7.20037 1
      vertex 8.19685 9.10352 2
      vertex 8.19685 9.10352 1
    endloop
  endfacet
  facet normal -0.743144 -0.669132 0
    outer loop
      vertex 8.19685 9.10352 2
      vertex 9.91046 7.20037 1
      vertex 9.91046 7.20037 2
    endloop
  endfacet
  facet normal -0.951053 -0.309027 0
    outer loop
      vertex 11.0042 2.33901 0
      vertex 10.2774 4.57579 1
      vertex 10.2774 4.57579 0
    endloop
  endfacet
  facet normal -0.951053 -0.309027 0
    outer loop
      vertex 10.2774 4.57579 1
      vertex 11.0042 2.33901 0
      vertex 11.0042 2.33901 1
    endloop
  endfacet
  facet normal -0.994524 -0.104512 0
    outer loop
      vertex 11.25 0 0
      vertex 11.0042 2.33901 1
      vertex 11.0042 2.33901 0
    endloop
  endfacet
  facet normal -0.994524 -0.104512 0
    outer loop
      vertex 11.0042 2.33901 1
      vertex 11.25 0 0
      vertex 11.25 0 1
    endloop
  endfacet
  facet normal -0.207917 -0.978146 0
    outer loop
      vertex 1.17594 11.1884 0
      vertex 3.47644 10.6994 1
      vertex 1.17594 11.1884 1
    endloop
  endfacet
  facet normal -0.207917 -0.978146 -0
    outer loop
      vertex 3.47644 10.6994 1
      vertex 1.17594 11.1884 0
      vertex 3.47644 10.6994 0
    endloop
  endfacet
  facet normal -0.207917 0.978146 0
    outer loop
      vertex 3.47644 -10.6994 0
      vertex 1.17594 -11.1884 1
      vertex 3.47644 -10.6994 1
    endloop
  endfacet
  facet normal -0.207917 0.978146 0
    outer loop
      vertex 1.17594 -11.1884 1
      vertex 3.47644 -10.6994 0
      vertex 1.17594 -11.1884 0
    endloop
  endfacet
  facet normal -0.587786 0.809016 0
    outer loop
      vertex 7.52772 -8.36038 0
      vertex 5.625 -9.74279 1
      vertex 7.52772 -8.36038 1
    endloop
  endfacet
  facet normal -0.587786 0.809016 0
    outer loop
      vertex 5.625 -9.74279 1
      vertex 7.52772 -8.36038 0
      vertex 5.625 -9.74279 0
    endloop
  endfacet
  facet normal 0.994524 0.104512 0
    outer loop
      vertex -11.0042 -2.33901 1
      vertex -11.25 0 0
      vertex -11.25 0 1
    endloop
  endfacet
  facet normal 0.994524 0.104512 0
    outer loop
      vertex -11.25 0 0
      vertex -11.0042 -2.33901 1
      vertex -11.0042 -2.33901 0
    endloop
  endfacet
  facet normal 0.866022 -0.500006 0
    outer loop
      vertex -10.2774 4.57579 1
      vertex -9.10144 6.61258 0
      vertex -9.10144 6.61258 1
    endloop
  endfacet
  facet normal 0.866022 -0.500006 0
    outer loop
      vertex -9.10144 6.61258 0
      vertex -10.2774 4.57579 1
      vertex -10.2774 4.57579 0
    endloop
  endfacet
  facet normal 0.951053 -0.309027 0
    outer loop
      vertex -11.0042 2.33901 1
      vertex -10.2774 4.57579 0
      vertex -10.2774 4.57579 1
    endloop
  endfacet
  facet normal 0.951053 -0.309027 0
    outer loop
      vertex -10.2774 4.57579 0
      vertex -11.0042 2.33901 1
      vertex -11.0042 2.33901 0
    endloop
  endfacet
  facet normal -0.40674 -0.913544 0
    outer loop
      vertex 3.47644 10.6994 0
      vertex 5.625 9.74279 1
      vertex 3.47644 10.6994 1
    endloop
  endfacet
  facet normal -0.40674 -0.913544 -0
    outer loop
      vertex 5.625 9.74279 1
      vertex 3.47644 10.6994 0
      vertex 5.625 9.74279 0
    endloop
  endfacet
  facet normal 0.866022 0.500006 0
    outer loop
      vertex -9.10144 -6.61258 1
      vertex -10.2774 -4.57579 0
      vertex -10.2774 -4.57579 1
    endloop
  endfacet
  facet normal 0.866022 0.500006 0
    outer loop
      vertex -10.2774 -4.57579 0
      vertex -9.10144 -6.61258 1
      vertex -9.10144 -6.61258 0
    endloop
  endfacet
  facet normal 0.951053 0.309027 0
    outer loop
      vertex -10.2774 -4.57579 1
      vertex -11.0042 -2.33901 0
      vertex -11.0042 -2.33901 1
    endloop
  endfacet
  facet normal 0.951053 0.309027 0
    outer loop
      vertex -11.0042 -2.33901 0
      vertex -10.2774 -4.57579 1
      vertex -10.2774 -4.57579 0
    endloop
  endfacet
  facet normal 0 1 -0
    outer loop
      vertex 1.17594 -11.1884 0
      vertex -1.17594 -11.1884 1
      vertex 1.17594 -11.1884 1
    endloop
  endfacet
  facet normal 0 1 0
    outer loop
      vertex -1.17594 -11.1884 1
      vertex 1.17594 -11.1884 0
      vertex -1.17594 -11.1884 0
    endloop
  endfacet
  facet normal -0.951053 0.309027 0
    outer loop
      vertex 10.2774 -4.57579 0
      vertex 11.0042 -2.33901 1
      vertex 11.0042 -2.33901 0
    endloop
  endfacet
  facet normal -0.951053 0.309027 0
    outer loop
      vertex 11.0042 -2.33901 1
      vertex 10.2774 -4.57579 0
      vertex 10.2774 -4.57579 1
    endloop
  endfacet
  facet normal -0.40674 0.913544 0
    outer loop
      vertex 5.625 -9.74279 0
      vertex 3.47644 -10.6994 1
      vertex 5.625 -9.74279 1
    endloop
  endfacet
  facet normal -0.40674 0.913544 0
    outer loop
      vertex 3.47644 -10.6994 1
      vertex 5.625 -9.74279 0
      vertex 3.47644 -10.6994 0
    endloop
  endfacet
  facet normal 0.40674 0.913544 -0
    outer loop
      vertex -3.47644 -10.6994 0
      vertex -5.625 -9.74279 1
      vertex -3.47644 -10.6994 1
    endloop
  endfacet
  facet normal 0.40674 0.913544 0
    outer loop
      vertex -5.625 -9.74279 1
      vertex -3.47644 -10.6994 0
      vertex -5.625 -9.74279 0
    endloop
  endfacet
  facet normal 0.587786 0.809016 -0
    outer loop
      vertex -5.625 -9.74279 0
      vertex -7.52772 -8.36038 1
      vertex -5.625 -9.74279 1
    endloop
  endfacet
  facet normal 0.587786 0.809016 0
    outer loop
      vertex -7.52772 -8.36038 1
      vertex -5.625 -9.74279 0
      vertex -7.52772 -8.36038 0
    endloop
  endfacet
  facet normal 0.587786 -0.809016 0
    outer loop
      vertex -7.52772 8.36038 0
      vertex -5.625 9.74279 1
      vertex -7.52772 8.36038 1
    endloop
  endfacet
  facet normal 0.587786 -0.809016 0
    outer loop
      vertex -5.625 9.74279 1
      vertex -7.52772 8.36038 0
      vertex -5.625 9.74279 0
    endloop
  endfacet
  facet normal 0.743146 0.669129 0
    outer loop
      vertex -7.52772 -8.36038 1
      vertex -9.10144 -6.61258 0
      vertex -9.10144 -6.61258 1
    endloop
  endfacet
  facet normal 0.743146 0.669129 0
    outer loop
      vertex -9.10144 -6.61258 0
      vertex -7.52772 -8.36038 1
      vertex -7.52772 -8.36038 0
    endloop
  endfacet
  facet normal -0.866022 0.500006 0
    outer loop
      vertex 9.10144 -6.61258 0
      vertex 10.2774 -4.57579 1
      vertex 10.2774 -4.57579 0
    endloop
  endfacet
  facet normal -0.866022 0.500006 0
    outer loop
      vertex 10.2774 -4.57579 1
      vertex 9.10144 -6.61258 0
      vertex 9.10144 -6.61258 1
    endloop
  endfacet
  facet normal -0.743146 0.669129 0
    outer loop
      vertex 7.52772 -8.36038 0
      vertex 9.10144 -6.61258 1
      vertex 9.10144 -6.61258 0
    endloop
  endfacet
  facet normal -0.743146 0.669129 0
    outer loop
      vertex 9.10144 -6.61258 1
      vertex 7.52772 -8.36038 0
      vertex 7.52772 -8.36038 1
    endloop
  endfacet
  facet normal 0.994524 -0.104512 0
    outer loop
      vertex -11.25 0 1
      vertex -11.0042 2.33901 0
      vertex -11.0042 2.33901 1
    endloop
  endfacet
  facet normal 0.994524 -0.104512 0
    outer loop
      vertex -11.0042 2.33901 0
      vertex -11.25 0 1
      vertex -11.25 0 0
    endloop
  endfacet
  facet normal 0.207917 0.978146 -0
    outer loop
      vertex -1.17594 -11.1884 0
      vertex -3.47644 -10.6994 1
      vertex -1.17594 -11.1884 1
    endloop
  endfacet
  facet normal 0.207917 0.978146 0
    outer loop
      vertex -3.47644 -10.6994 1
      vertex -1.17594 -11.1884 0
      vertex -3.47644 -10.6994 0
    endloop
  endfacet
  facet normal -0.994524 0.104512 0
    outer loop
      vertex 11.0042 -2.33901 0
      vertex 11.25 0 1
      vertex 11.25 0 0
    endloop
  endfacet
  facet normal -0.994524 0.104512 0
    outer loop
      vertex 11.25 0 1
      vertex 11.0042 -2.33901 0
      vertex 11.0042 -2.33901 1
    endloop
  endfacet
  facet normal 0 -1 0
    outer loop
      vertex -1.17594 11.1884 0
      vertex 1.17594 11.1884 1
      vertex -1.17594 11.1884 1
    endloop
  endfacet
  facet normal 0 -1 -0
    outer loop
      vertex 1.17594 11.1884 1
      vertex -1.17594 11.1884 0
      vertex 1.17594 11.1884 0
    endloop
  endfacet
  facet normal -0.587786 -0.809016 0
    outer loop
      vertex 5.625 9.74279 0
      vertex 7.52772 8.36038 1
      vertex 5.625 9.74279 1
    endloop
  endfacet
  facet normal -0.587786 -0.809016 -0
    outer loop
      vertex 7.52772 8.36038 1
      vertex 5.625 9.74279 0
      vertex 7.52772 8.36038 0
    endloop
  endfacet
  facet normal 0.40674 -0.913544 0
    outer loop
      vertex -5.625 9.74279 0
      vertex -3.47644 10.6994 1
      vertex -5.625 9.74279 1
    endloop
  endfacet
  facet normal 0.40674 -0.913544 0
    outer loop
      vertex -3.47644 10.6994 1
      vertex -5.625 9.74279 0
      vertex -3.47644 10.6994 0
    endloop
  endfacet
  facet normal 0.743146 -0.669129 0
    outer loop
      vertex -9.10144 6.61258 1
      vertex -7.52772 8.36038 0
      vertex -7.52772 8.36038 1
    endloop
  endfacet
  facet normal 0.743146 -0.669129 0
    outer loop
      vertex -7.52772 8.36038 0
      vertex -9.10144 6.61258 1
      vertex -9.10144 6.61258 0
    endloop
  endfacet
  facet normal -0.866022 -0.500006 0
    outer loop
      vertex 10.2774 4.57579 0
      vertex 9.10144 6.61258 1
      vertex 9.10144 6.61258 0
    endloop
  endfacet
  facet normal -0.866022 -0.500006 0
    outer loop
      vertex 9.10144 6.61258 1
      vertex 10.2774 4.57579 0
      vertex 10.2774 4.57579 1
    endloop
  endfacet
  facet normal 0.207917 -0.978146 0
    outer loop
      vertex -3.47644 10.6994 0
      vertex -1.17594 11.1884 1
      vertex -3.47644 10.6994 1
    endloop
  endfacet
  facet normal 0.207917 -0.978146 0
    outer loop
      vertex -1.17594 11.1884 1
      vertex -3.47644 10.6994 0
      vertex -1.17594 11.1884 0
    endloop
  endfacet
  facet normal -0.743146 -0.669129 0
    outer loop
      vertex 9.10144 6.61258 0
      vertex 7.52772 8.36038 1
      vertex 7.52772 8.36038 0
    endloop
  endfacet
  facet normal -0.743146 -0.669129 0
    outer loop
      vertex 7.52772 8.36038 1
      vertex 9.10144 6.61258 0
      vertex 9.10144 6.61258 1
    endloop
  endfacet
endsolid OpenSCAD_Model
